<svg xmlns="http://www.w3.org/2000/svg" xmlns:xlink="http://www.w3.org/1999/xlink" width="1920" zoomAndPan="magnify" viewBox="0 0 1440 809.999993" height="1080" preserveAspectRatio="xMidYMid meet" version="1.0"><defs><g/><clipPath id="3613e1b310"><path d="M 599.347656 372.847656 L 1359 372.847656 L 1359 810 L 599.347656 810 Z M 599.347656 372.847656 " clip-rule="nonzero"/></clipPath><clipPath id="7be776a411"><path d="M 0 623.941406 L 176.914062 623.941406 L 176.914062 810 L 0 810 Z M 0 623.941406 " clip-rule="nonzero"/></clipPath><clipPath id="7dff57a2d0"><path d="M 59.003906 629.050781 C 68.042969 625.964844 78.386719 623.941406 88.503906 623.941406 C 98.625 623.941406 108.363281 625.675781 117.339844 628.761719 C 117.53125 628.859375 117.722656 628.859375 117.910156 628.953125 C 151.613281 641.292969 176.4375 673.871094 176.914062 711.945312 L 176.914062 841.683594 L 0 841.683594 L 0 712.042969 C 0.476562 673.679688 24.917969 641.097656 59.003906 629.050781 Z M 59.003906 629.050781 " clip-rule="nonzero"/></clipPath><clipPath id="770ccb183c"><path d="M 637.660156 115 L 1267 115 L 1267 710.742188 L 637.660156 710.742188 Z M 637.660156 115 " clip-rule="nonzero"/></clipPath><clipPath id="f680cf1e03"><path d="M 641 172 L 1264 172 L 1264 710.742188 L 641 710.742188 Z M 641 172 " clip-rule="nonzero"/></clipPath><clipPath id="782f8b4b04"><path d="M 637.660156 129 L 1244 129 L 1244 710.742188 L 637.660156 710.742188 Z M 637.660156 129 " clip-rule="nonzero"/></clipPath><clipPath id="4ed5422d66"><path d="M 469.6875 0 L 619.40625 0 L 619.40625 184.265625 L 469.6875 184.265625 Z M 469.6875 0 " clip-rule="nonzero"/></clipPath><clipPath id="af68d3f28e"><path d="M 569.472656 179.941406 C 561.820312 182.550781 553.070312 184.265625 544.503906 184.265625 C 535.941406 184.265625 527.699219 182.796875 520.105469 180.1875 C 519.941406 180.105469 519.78125 180.105469 519.621094 180.023438 C 491.097656 169.582031 470.089844 142.011719 469.6875 109.789062 L 469.6875 -0.00390625 L 619.40625 -0.00390625 L 619.40625 109.710938 C 619 142.175781 598.316406 169.746094 569.472656 179.941406 Z M 569.472656 179.941406 " clip-rule="nonzero"/></clipPath><clipPath id="83009270c2"><path d="M 1122 171 L 1140 171 L 1140 185 L 1122 185 Z M 1122 171 " clip-rule="nonzero"/></clipPath><clipPath id="3cbd3b72fd"><path d="M 1121.984375 181.359375 L 1124.054688 170.160156 L 1139.804688 173.074219 L 1137.734375 184.273438 Z M 1121.984375 181.359375 " clip-rule="nonzero"/></clipPath><clipPath id="06c00b4b5b"><path d="M 1122.996094 177.683594 C 1122.910156 177.074219 1122.902344 176.398438 1123.019531 175.757812 C 1123.136719 175.117188 1123.363281 174.519531 1123.664062 173.988281 C 1123.671875 173.976562 1123.671875 173.964844 1123.679688 173.953125 C 1124.855469 171.964844 1127.210938 170.773438 1129.667969 171.199219 L 1139.761719 173.066406 L 1137.691406 184.265625 L 1127.605469 182.398438 C 1125.136719 181.910156 1123.359375 179.984375 1122.996094 177.683594 Z M 1122.996094 177.683594 " clip-rule="nonzero"/></clipPath><clipPath id="9a1e35a1e5"><path d="M 1062 489 L 1127 489 L 1127 564 L 1062 564 Z M 1062 489 " clip-rule="nonzero"/></clipPath><clipPath id="d0df7e9d0a"><path d="M 1055.460938 496.707031 L 1110.261719 483.570312 L 1126.371094 550.785156 L 1071.570312 563.921875 Z M 1055.460938 496.707031 " clip-rule="nonzero"/></clipPath><clipPath id="4e601c8e05"><path d="M 1074.234375 494.402344 C 1076.734375 492.476562 1079.742188 490.886719 1082.875 490.132812 C 1086.011719 489.382812 1089.195312 489.367188 1092.277344 489.953125 C 1092.34375 489.976562 1092.40625 489.964844 1092.472656 489.988281 C 1104.113281 492.503906 1114.980469 503.90625 1118.722656 518.875 L 1126.328125 550.609375 L 1071.53125 563.746094 L 1063.929688 532.03125 C 1060.457031 516.890625 1064.851562 501.832031 1074.234375 494.402344 Z M 1074.234375 494.402344 " clip-rule="nonzero"/></clipPath><clipPath id="175d4a442c"><path d="M 1096 201 L 1153 201 L 1153 278 L 1096 278 Z M 1096 201 " clip-rule="nonzero"/></clipPath><clipPath id="8077cf4e0c"><path d="M 1090.894531 207.257812 L 1135.53125 196.558594 L 1152.371094 266.824219 L 1107.738281 277.523438 Z M 1090.894531 207.257812 " clip-rule="nonzero"/></clipPath><clipPath id="748fcd95d5"><path d="M 1106.1875 205.382812 C 1108.222656 203.8125 1110.671875 202.515625 1113.222656 201.90625 C 1115.777344 201.292969 1118.371094 201.277344 1120.882812 201.757812 C 1120.9375 201.777344 1120.984375 201.765625 1121.042969 201.785156 C 1130.523438 203.835938 1139.371094 213.121094 1142.503906 225.660156 L 1152.367188 266.8125 L 1107.734375 277.511719 L 1097.878906 236.390625 C 1094.964844 223.699219 1098.542969 211.433594 1106.1875 205.382812 Z M 1106.1875 205.382812 " clip-rule="nonzero"/></clipPath><clipPath id="e923571cfb"><path d="M 775 208 L 845 208 L 845 271 L 775 271 Z M 775 208 " clip-rule="nonzero"/></clipPath><clipPath id="a955509b94"><path d="M 769.523438 216.855469 L 831.5 202 L 844.351562 255.628906 L 782.378906 270.484375 Z M 769.523438 216.855469 " clip-rule="nonzero"/></clipPath><clipPath id="837239f709"><path d="M 790.601562 213.8125 C 793.515625 212.035156 796.96875 210.496094 800.507812 209.648438 C 804.042969 208.800781 807.585938 208.5625 810.964844 208.832031 C 811.039062 208.847656 811.109375 208.832031 811.183594 208.847656 C 823.941406 210.109375 835.203125 218.816406 838.292969 230.972656 L 844.210938 255.664062 L 782.378906 270.484375 L 776.464844 245.8125 C 773.6875 233.496094 779.644531 220.660156 790.601562 213.8125 Z M 790.601562 213.8125 " clip-rule="nonzero"/></clipPath><clipPath id="1a81393250"><path d="M 806 496 L 868 496 L 868 585 L 806 585 Z M 806 496 " clip-rule="nonzero"/></clipPath><clipPath id="4954b45546"><path d="M 816.109375 493.601562 L 871.203125 499.839844 L 861.605469 584.625 L 806.515625 578.390625 Z M 816.109375 493.601562 " clip-rule="nonzero"/></clipPath><clipPath id="e5d25b8aee"><path d="M 834.289062 497.410156 C 837.222656 496.6875 840.519531 496.367188 843.671875 496.722656 C 846.824219 497.078125 849.789062 498.007812 852.464844 499.367188 C 852.519531 499.410156 852.582031 499.414062 852.636719 499.453125 C 862.660156 504.816406 869.140625 516.714844 867.804688 529.859375 L 861.625 584.449219 L 806.535156 578.214844 L 812.707031 523.664062 C 814.355469 510.449219 823.214844 500.285156 834.289062 497.410156 Z M 834.289062 497.410156 " clip-rule="nonzero"/></clipPath><clipPath id="f5e0b8c293"><path d="M 783 255 L 821 255 L 821 288 L 783 288 Z M 783 255 " clip-rule="nonzero"/></clipPath><clipPath id="3e916ad960"><path d="M 786.890625 253.546875 L 821.917969 257.003906 L 818.929688 287.316406 L 783.898438 283.859375 Z M 786.890625 253.546875 " clip-rule="nonzero"/></clipPath><clipPath id="defc643b5b"><path d="M 798.4375 255.769531 C 800.28125 255.371094 802.363281 255.191406 804.363281 255.390625 C 806.359375 255.585938 808.253906 256.101562 809.96875 256.855469 C 810.003906 256.875 810.042969 256.878906 810.078125 256.902344 C 816.507812 259.867188 820.808594 266.449219 820.226562 273.351562 L 818.847656 287.308594 L 783.898438 283.859375 L 785.273438 269.914062 C 786.054688 262.984375 791.484375 257.363281 798.4375 255.769531 Z M 798.4375 255.769531 " clip-rule="nonzero"/></clipPath></defs><rect x="-144" width="1728" fill="#ffffff" y="-80.999999" height="971.999992" fill-opacity="1"/><rect x="-144" width="1728" fill="#ffffff" y="-80.999999" height="971.999992" fill-opacity="1"/><g clip-path="url(#3613e1b310)"><path fill="#7b4d42" d="M 599.347656 372.847656 L 1359.375 372.847656 L 1359.375 841.683594 L 599.347656 841.683594 Z M 599.347656 372.847656 " fill-opacity="1" fill-rule="nonzero"/></g><g clip-path="url(#7be776a411)"><g clip-path="url(#7dff57a2d0)"><path fill="#7b4d42" d="M 0 623.941406 L 176.914062 623.941406 L 176.914062 841.632812 L 0 841.632812 Z M 0 623.941406 " fill-opacity="1" fill-rule="nonzero"/></g></g><g fill="#3f5053" fill-opacity="1"><g transform="translate(98.65599, 300.899873)"><g><path d="M 9.578125 0 C 9.785156 -1.195312 9.890625 -2.5 9.890625 -3.90625 L 9.890625 -70.328125 L 20.46875 -70.328125 L 48.484375 -26.234375 L 48.484375 -66.734375 C 48.484375 -68.671875 48.3125 -69.867188 47.96875 -70.328125 L 62.234375 -70.328125 C 62.054688 -68.921875 61.96875 -67.367188 61.96875 -65.671875 L 61.96875 0 L 50.96875 0 L 23.375 -42.359375 L 23.375 0 Z M 9.578125 0 "/></g></g></g><g fill="#3f5053" fill-opacity="1"><g transform="translate(170.516414, 300.899873)"><g><path d="M 7.5625 -65.578125 C 7.5625 -66.734375 7.507812 -68.316406 7.40625 -70.328125 L 57.53125 -70.328125 L 26.75 -12.6875 L 45.953125 -12.6875 C 50.960938 -12.6875 53.914062 -12.835938 54.8125 -13.140625 C 55.707031 -13.441406 56.421875 -13.710938 56.953125 -13.953125 L 56.953125 0.796875 C 55.429688 0.648438 54.175781 0.523438 53.1875 0.421875 C 52.207031 0.316406 51.171875 0.226562 50.078125 0.15625 C 48.421875 0.0507812 45.210938 0 40.453125 0 L 4.859375 0 L 36.703125 -57.640625 L 20.046875 -57.640625 C 13.171875 -57.640625 8.796875 -57.269531 6.921875 -56.53125 C 7.347656 -58.289062 7.5625 -60.773438 7.5625 -63.984375 Z M 7.5625 -65.578125 "/></g></g></g><g fill="#3f5053" fill-opacity="1"><g transform="translate(233.387677, 300.899873)"><g/></g></g><g fill="#3f5053" fill-opacity="1"><g transform="translate(269.291453, 300.899873)"><g><path d="M 34.484375 0.3125 C 32.785156 0.101562 28.429688 0 21.421875 0 L 19.71875 0 L 19.71875 -58.484375 L 9.25 -58.484375 C 6.144531 -58.484375 4.3125 -58.320312 3.75 -58 C 3.1875 -57.6875 2.75 -57.40625 2.4375 -57.15625 L 2.28125 -57.21875 L 2.28125 -70.75 L 2.4375 -70.90625 C 3.59375 -70.519531 6.726562 -70.328125 11.84375 -70.328125 L 45 -70.328125 C 48.101562 -70.328125 49.9375 -70.484375 50.5 -70.796875 C 51.0625 -71.117188 51.503906 -71.40625 51.828125 -71.65625 L 51.984375 -71.59375 L 51.984375 -58.0625 L 51.828125 -57.90625 C 50.660156 -58.289062 47.519531 -58.484375 42.40625 -58.484375 L 34.484375 -58.484375 Z M 34.484375 0.3125 "/></g></g></g><g fill="#3f5053" fill-opacity="1"><g transform="translate(323.543689, 300.899873)"><g><path d="M 44.46875 -12.6875 C 46.65625 -12.6875 48.171875 -12.898438 49.015625 -13.328125 L 49.234375 -13.265625 L 48.703125 0 L 9.09375 0 L 9.09375 -70.703125 C 10.039062 -70.628906 11.097656 -70.578125 12.265625 -70.546875 L 15.96875 -70.4375 C 18.4375 -70.363281 21.113281 -70.328125 24 -70.328125 C 32.070312 -70.328125 40.0625 -70.46875 47.96875 -70.75 C 47.570312 -67.644531 47.375 -63.503906 47.375 -58.328125 C 47.375 -57.765625 47.410156 -57.34375 47.484375 -57.0625 L 47.375 -56.890625 C 45.539062 -57.421875 42.929688 -57.6875 39.546875 -57.6875 L 22.890625 -57.6875 L 22.890625 -44.203125 L 35.421875 -44.203125 C 39.304688 -44.203125 41.632812 -44.3125 42.40625 -44.53125 L 42.5625 -31.46875 C 40.875 -31.644531 38.691406 -31.734375 36.015625 -31.734375 L 22.890625 -31.734375 L 22.890625 -12.6875 Z M 44.46875 -12.6875 "/></g></g></g><g fill="#3f5053" fill-opacity="1"><g transform="translate(377.795915, 300.899873)"><g><path d="M 14.21875 0.421875 C 11.1875 0.140625 7.644531 0 3.59375 0 L -0.578125 0 L 22.421875 -64.453125 C 23.441406 -67.347656 23.953125 -69.03125 23.953125 -69.5 C 23.953125 -69.976562 23.9375 -70.269531 23.90625 -70.375 L 23.953125 -70.484375 C 26.242188 -70.378906 28.675781 -70.328125 31.25 -70.328125 C 33.363281 -70.328125 35.898438 -70.363281 38.859375 -70.4375 L 38.921875 -70.328125 C 38.847656 -70.191406 38.8125 -70 38.8125 -69.75 C 38.8125 -69.082031 39.34375 -67.300781 40.40625 -64.40625 L 63.875 0.15625 C 63.175781 0.125 62.347656 0.109375 61.390625 0.109375 C 61.390625 0.109375 60.472656 0.0703125 58.640625 0 C 57.765625 0 56.972656 0 56.265625 0 L 48.0625 0 L 43.09375 -15.234375 L 19.1875 -15.234375 Z M 38.96875 -27.921875 L 30.984375 -52.515625 L 23.21875 -27.921875 Z M 38.96875 -27.921875 "/></g></g></g><g fill="#3f5053" fill-opacity="1"><g transform="translate(441.090208, 300.899873)"><g><path d="M 23.375 0.3125 C 21.675781 0.101562 18.414062 0 13.59375 0 L 9.359375 0 L 9.359375 -70.546875 C 11.617188 -70.398438 14.101562 -70.328125 16.8125 -70.328125 C 19.53125 -70.328125 21.453125 -70.46875 22.578125 -70.75 L 40.34375 -40.5625 L 57.421875 -70.75 C 58.554688 -70.46875 60.707031 -70.328125 63.875 -70.328125 C 67.050781 -70.328125 69.765625 -70.398438 72.015625 -70.546875 L 72.015625 0 L 67.796875 0 C 62.960938 0 59.703125 0.101562 58.015625 0.3125 L 58.015625 -47.0625 L 40.71875 -16.125 L 23.375 -44.578125 Z M 23.375 0.3125 "/></g></g></g><g clip-path="url(#770ccb183c)"><path fill="#de4c6e" d="M 1247.089844 122.921875 C 1222.46875 112.597656 1210.023438 129.273438 1210.023438 129.273438 C 1210.023438 129.273438 1168.457031 100.421875 1130.871094 124.777344 C 1102.410156 143.214844 1100.203125 163.457031 1100.8125 172.222656 L 1004.285156 172.222656 C 990.1875 172.222656 978.757812 183.652344 978.757812 197.746094 L 978.757812 273.128906 C 975.875 259.183594 971.445312 241.914062 969.386719 242.332031 C 967.203125 242.765625 968.078125 252.519531 968.449219 255.960938 C 968.398438 255.960938 968.371094 255.984375 968.320312 255.996094 C 967.417969 252.125 964.359375 239.730469 962.125 238.242188 L 962.125 197.746094 C 962.125 183.652344 950.695312 172.222656 936.597656 172.222656 L 835.933594 172.222656 C 835.769531 167.015625 834.980469 161.644531 833.039062 157.082031 C 826.953125 142.785156 804.707031 140.410156 804.707031 140.410156 C 786.976562 99.632812 724.765625 125.042969 702.007812 156.285156 C 697.574219 162.367188 694.148438 168.664062 691.519531 174.953125 C 683.175781 179.140625 677.421875 187.765625 677.421875 197.746094 L 677.421875 300.519531 L 668.242188 296.773438 C 666.578125 296.101562 664.683594 296.925781 664.0625 298.617188 L 658.09375 314.769531 C 657.207031 317.15625 654.042969 317.589844 652.53125 315.519531 C 651.035156 313.460938 648.9375 311.25 646.121094 309.585938 C 644.644531 308.710938 642.742188 309.105469 641.789062 310.527344 C 640.796875 312.011719 641.21875 314.03125 642.730469 314.972656 C 645.699219 316.8125 650.15625 320.710938 652.304688 328.253906 C 652.683594 329.574219 653.839844 330.515625 655.210938 330.578125 L 658.246094 330.71875 C 659.644531 330.78125 660.925781 329.917969 661.394531 328.597656 L 668.328125 308.914062 C 668.941406 307.199219 670.855469 306.335938 672.535156 307.023438 L 677.421875 309.027344 L 677.421875 383.980469 C 677.421875 383.980469 659.910156 365.144531 654.882812 360.90625 C 649.878906 356.6875 643.058594 358.503906 645.574219 363.203125 C 645.558594 363.214844 645.558594 363.226562 645.558594 363.253906 C 645.140625 362.988281 642.335938 361.285156 641.117188 362.757812 C 639.796875 364.347656 642.167969 367.519531 642.167969 367.519531 C 642.167969 367.519531 638.195312 364.878906 637.929688 366.464844 C 637.660156 368.054688 640.050781 371.496094 640.050781 371.496094 C 640.050781 371.496094 637.929688 373.351562 639.78125 376.257812 C 641.636719 379.164062 652.226562 395.320312 661.230469 407.496094 C 668.125 416.820312 681.09375 427.167969 692.777344 431.511719 C 692.964844 431.601562 693.15625 431.675781 693.359375 431.753906 C 693.917969 431.980469 694.488281 432.199219 695.074219 432.375 C 695.277344 432.4375 695.46875 432.503906 695.671875 432.566406 C 696.304688 432.757812 696.964844 432.921875 697.625 433.074219 C 697.640625 433.074219 697.664062 433.085938 697.675781 433.085938 C 697.804688 433.113281 697.929688 433.136719 698.058594 433.164062 C 698.769531 433.300781 699.492188 433.417969 700.230469 433.492188 C 700.242188 433.492188 700.253906 433.492188 700.28125 433.492188 C 700.355469 433.503906 700.421875 433.503906 700.496094 433.503906 C 701.296875 433.582031 702.109375 433.632812 702.933594 433.632812 L 744.054688 433.632812 C 733.539062 437.0625 724.484375 442.066406 717.375 448.933594 L 702.949219 448.933594 C 688.851562 448.933594 677.421875 460.363281 677.421875 474.460938 L 677.421875 684.832031 C 677.421875 686.8125 677.664062 688.71875 678.09375 690.574219 C 678.261719 691.257812 678.4375 691.945312 678.65625 692.617188 C 678.4375 691.945312 678.246094 691.273438 678.09375 690.574219 C 678.261719 691.273438 678.4375 691.945312 678.65625 692.617188 C 678.792969 693.074219 678.972656 693.519531 679.148438 693.964844 C 679.226562 694.167969 679.289062 694.371094 679.378906 694.574219 C 679.621094 695.171875 679.898438 695.742188 680.179688 696.3125 C 680.203125 696.351562 680.214844 696.402344 680.242188 696.441406 C 684.457031 704.707031 693.042969 710.371094 702.949219 710.371094 L 936.609375 710.371094 C 950.707031 710.371094 962.136719 698.941406 962.136719 684.847656 L 962.136719 474.472656 C 962.136719 460.375 950.707031 448.949219 936.609375 448.949219 L 838.855469 448.949219 C 835.375 442.21875 829.101562 437.136719 820.757812 433.644531 L 936.597656 433.644531 C 937.398438 433.644531 938.1875 433.59375 938.972656 433.53125 C 939.253906 433.503906 939.53125 433.46875 939.8125 433.429688 C 940.292969 433.367188 940.777344 433.300781 941.246094 433.214844 C 941.589844 433.148438 941.945312 433.074219 942.289062 432.996094 C 942.65625 432.910156 943.023438 432.820312 943.394531 432.71875 C 943.785156 432.605469 944.191406 432.503906 944.585938 432.375 C 944.777344 432.3125 944.96875 432.234375 945.15625 432.171875 C 946.871094 431.5625 948.484375 430.789062 950.007812 429.847656 C 950.035156 429.835938 950.058594 429.824219 950.085938 429.808594 C 957.324219 425.300781 962.148438 417.300781 962.148438 408.15625 L 962.148438 365.628906 C 970.9375 345.296875 976.042969 328.941406 978.785156 315.949219 L 978.785156 408.15625 C 978.785156 422.253906 990.214844 433.683594 1004.308594 433.683594 L 1094.917969 433.683594 C 1095.351562 434.191406 1095.78125 434.699219 1096.238281 435.21875 C 1092.25 437.722656 1089.191406 443.601562 1087.503906 448.972656 L 1004.285156 448.972656 C 990.1875 448.972656 978.757812 460.402344 978.757812 474.496094 L 978.757812 684.871094 C 978.757812 698.96875 990.1875 710.398438 1004.285156 710.398438 L 1237.949219 710.398438 C 1252.042969 710.398438 1263.472656 698.96875 1263.472656 684.871094 L 1263.472656 474.472656 C 1263.472656 460.375 1252.042969 448.949219 1237.949219 448.949219 L 1223.535156 448.949219 C 1221.847656 443.296875 1219.914062 438.253906 1216.828125 433.644531 L 1237.949219 433.644531 C 1252.042969 433.644531 1263.472656 422.214844 1263.472656 408.121094 L 1263.472656 197.746094 C 1263.472656 194.535156 1262.851562 191.472656 1261.773438 188.652344 C 1269.542969 164.5625 1269.519531 132.332031 1247.089844 122.921875 Z M 679.289062 694.359375 C 679.316406 694.421875 679.339844 694.496094 679.367188 694.5625 C 679.339844 694.496094 679.328125 694.433594 679.289062 694.359375 Z M 679.289062 694.359375 " fill-opacity="1" fill-rule="nonzero"/></g><g clip-path="url(#f680cf1e03)"><path fill="#3f5053" d="M 678.09375 690.585938 C 678.730469 693.328125 679.808594 695.90625 681.246094 698.230469 C 679.808594 695.894531 678.730469 693.328125 678.09375 690.585938 Z M 936.609375 448.949219 L 702.949219 448.949219 C 688.851562 448.949219 677.421875 460.375 677.421875 474.472656 L 677.421875 684.847656 C 677.421875 686.828125 677.664062 688.730469 678.09375 690.585938 C 681.878906 686.203125 688.027344 680.273438 698.046875 672.464844 C 725.324219 651.179688 737.960938 646.519531 758.582031 635.21875 C 779.207031 623.914062 771.21875 604.613281 771.21875 604.613281 L 837.734375 596.625 C 837.734375 596.625 841.722656 608.601562 855.691406 617.910156 C 869.660156 627.21875 908.914062 627.21875 929.523438 635.207031 C 942.339844 640.171875 954.644531 653.097656 962.125 662.164062 L 962.125 474.472656 C 962.125 460.375 950.707031 448.949219 936.609375 448.949219 Z M 1263.460938 197.746094 L 1263.460938 311.796875 L 1214.238281 301.269531 L 1186.960938 308.585938 C 1186.960938 308.585938 1180.980469 313.246094 1145.714844 335.863281 C 1110.460938 358.480469 1090.5 365.792969 1075.871094 395.726562 C 1067.820312 412.195312 1064.199219 425.238281 1062.574219 433.644531 L 1004.285156 433.644531 C 990.1875 433.644531 978.757812 422.214844 978.757812 408.121094 L 978.757812 197.746094 C 978.757812 183.652344 990.1875 172.222656 1004.285156 172.222656 L 1237.9375 172.222656 C 1252.03125 172.222656 1263.460938 183.652344 1263.460938 197.746094 Z M 1065.75 336.304688 C 1060.730469 325.234375 1050.269531 299.453125 1046.089844 289.105469 C 1045.011719 286.425781 1042.40625 284.683594 1039.523438 284.683594 L 988.574219 284.683594 C 986.734375 284.683594 985.464844 286.539062 986.136719 288.253906 L 1021.542969 378.9375 C 1021.542969 378.9375 1068.136719 378.9375 1080.3125 378.9375 C 1092.492188 378.925781 1072.109375 350.339844 1065.75 336.304688 Z M 899.453125 224.289062 L 901.726562 225.863281 C 902.386719 226.320312 903.300781 226.140625 903.734375 225.457031 L 924.8125 192.183594 C 925.21875 191.550781 925.054688 190.710938 924.445312 190.28125 L 921.828125 188.414062 C 921.15625 187.929688 920.230469 188.121094 919.796875 188.820312 L 899.058594 222.394531 C 898.652344 223.03125 898.832031 223.867188 899.453125 224.289062 Z M 897.992188 200.933594 C 899.949219 200.933594 901.523438 199.359375 901.523438 197.402344 C 901.523438 195.449219 899.949219 193.875 897.992188 193.875 C 896.039062 193.875 894.464844 195.449219 894.464844 197.402344 C 894.464844 199.359375 896.050781 200.933594 897.992188 200.933594 Z M 921.996094 217.875 C 921.996094 219.832031 923.570312 221.40625 925.523438 221.40625 C 927.480469 221.40625 929.054688 219.832031 929.054688 217.875 C 929.054688 215.917969 927.480469 214.34375 925.523438 214.34375 C 923.582031 214.355469 921.996094 215.929688 921.996094 217.875 Z M 860.757812 265.828125 L 870.996094 273.382812 C 872.289062 274.335938 872.660156 276.125 871.832031 277.523438 L 865.574219 288.113281 C 864.734375 289.523438 865.128906 291.339844 866.460938 292.292969 L 867.300781 292.886719 C 868.796875 293.953125 870.894531 293.496094 871.820312 291.921875 L 877.609375 282.121094 C 878.511719 280.59375 880.492188 280.113281 882.003906 281.050781 L 892.773438 287.847656 C 894.273438 288.785156 896.242188 288.316406 897.15625 286.804688 C 898.007812 285.382812 897.613281 283.542969 896.242188 282.589844 L 885.28125 275.03125 C 883.882812 274.082031 883.503906 272.1875 884.40625 270.765625 L 891.441406 259.617188 C 892.328125 258.195312 891.960938 256.328125 890.589844 255.363281 L 889.828125 254.828125 C 888.316406 253.761719 886.234375 254.21875 885.292969 255.808594 L 879.160156 266.257812 C 878.257812 267.808594 876.238281 268.277344 874.742188 267.3125 L 864.351562 260.621094 C 862.855469 259.65625 860.859375 260.125 859.945312 261.648438 L 859.910156 261.699219 C 859.097656 263.058594 859.464844 264.859375 860.757812 265.828125 Z M 699.898438 314.730469 L 700.457031 313.269531 C 701.066406 311.65625 700.292969 309.839844 698.695312 309.195312 L 668.253906 296.785156 C 666.589844 296.113281 664.699219 296.9375 664.074219 298.628906 L 658.105469 314.78125 C 657.21875 317.167969 654.054688 317.601562 652.546875 315.53125 C 651.046875 313.472656 648.949219 311.265625 646.132812 309.601562 C 644.660156 308.722656 642.753906 309.117188 641.800781 310.539062 C 640.8125 312.027344 641.230469 314.042969 642.742188 314.984375 C 645.710938 316.824219 650.171875 320.722656 652.316406 328.269531 C 652.699219 329.589844 653.851562 330.527344 655.222656 330.589844 L 658.257812 330.730469 C 659.65625 330.796875 660.9375 329.929688 661.410156 328.609375 L 668.34375 308.925781 C 668.953125 307.210938 670.871094 306.347656 672.546875 307.035156 L 695.734375 316.535156 C 697.371094 317.21875 699.265625 316.394531 699.898438 314.730469 Z M 1170.339844 608.589844 L 1263.460938 642.34375 L 1263.460938 684.832031 C 1263.460938 698.929688 1252.03125 710.359375 1237.9375 710.359375 L 1010.226562 710.359375 C 1014.164062 702.472656 1020.222656 690.765625 1027.320312 678.433594 C 1039.957031 656.476562 1064.566406 650.496094 1099.160156 637.1875 C 1133.753906 623.890625 1170.339844 608.589844 1170.339844 608.589844 Z M 1126.363281 693.886719 C 1126.363281 691.742188 1124.621094 690.015625 1122.488281 690.015625 C 1120.34375 690.015625 1118.613281 691.753906 1118.613281 693.886719 C 1118.613281 696.035156 1120.355469 697.761719 1122.488281 697.761719 C 1124.621094 697.773438 1126.363281 696.035156 1126.363281 693.886719 Z M 1140.585938 664.160156 C 1140.585938 662.011719 1138.84375 660.285156 1136.710938 660.285156 C 1134.566406 660.285156 1132.839844 662.027344 1132.839844 664.160156 C 1132.839844 666.304688 1134.578125 668.03125 1136.710938 668.03125 C 1138.84375 668.03125 1140.585938 666.292969 1140.585938 664.160156 Z M 1140.585938 664.160156 " fill-opacity="1" fill-rule="nonzero"/></g><path fill="#fbbe63" d="M 942.464844 357.3125 C 949.386719 366.058594 956.675781 375.445312 962.125 382.503906 L 962.125 408.132812 C 962.125 422.230469 950.695312 433.65625 936.597656 433.65625 L 702.949219 433.65625 C 695.378906 433.65625 688.597656 430.34375 683.925781 425.109375 L 686.921875 421.210938 C 686.921875 421.210938 694.335938 395.445312 713.398438 376.742188 C 732.460938 358.035156 742.695312 347.445312 742.695312 347.445312 C 742.695312 347.445312 740.574219 322.730469 751.523438 315.671875 C 762.46875 308.609375 796.707031 304.722656 806.230469 307.554688 C 815.753906 310.375 832.707031 323.085938 832.707031 323.085938 C 832.707031 323.085938 853.535156 320.964844 881.777344 320.964844 C 910.019531 320.964844 929.054688 340.371094 942.464844 357.3125 Z M 845.050781 641.160156 C 845.050781 638.976562 843.285156 637.210938 841.101562 637.210938 C 838.917969 637.210938 837.152344 638.976562 837.152344 641.160156 C 837.152344 643.332031 838.917969 645.109375 841.101562 645.109375 C 843.285156 645.109375 845.050781 643.34375 845.050781 641.160156 Z M 847.464844 689.113281 C 845.28125 689.113281 843.515625 690.878906 843.515625 693.0625 C 843.515625 695.246094 845.28125 697.011719 847.464844 697.011719 C 849.636719 697.011719 851.414062 695.246094 851.414062 693.0625 C 851.398438 690.878906 849.636719 689.113281 847.464844 689.113281 Z M 1131.085938 594.617188 C 1131.085938 594.617188 1112.976562 601.515625 1092.722656 601.425781 C 1099.859375 615 1106.855469 625.554688 1111.707031 632.308594 C 1120.152344 628.996094 1128.429688 625.695312 1135.988281 622.644531 Z M 1122.476562 690.015625 C 1120.328125 690.015625 1118.601562 691.753906 1118.601562 693.886719 C 1118.601562 696.035156 1120.34375 697.761719 1122.476562 697.761719 C 1124.621094 697.761719 1126.347656 696.019531 1126.347656 693.886719 C 1126.363281 691.753906 1124.621094 690.015625 1122.476562 690.015625 Z M 1136.699219 660.273438 C 1134.550781 660.273438 1132.824219 662.011719 1132.824219 664.148438 C 1132.824219 666.292969 1134.566406 668.019531 1136.699219 668.019531 C 1138.84375 668.019531 1140.570312 666.28125 1140.570312 664.148438 C 1140.585938 662.011719 1138.84375 660.273438 1136.699219 660.273438 Z M 986.734375 640.804688 C 998.316406 658.179688 1013.363281 670.496094 1027.027344 678.964844 C 1027.128906 678.789062 1027.230469 678.609375 1027.332031 678.433594 C 1039.96875 656.476562 1064.582031 650.496094 1099.171875 637.1875 C 1099.667969 636.996094 1100.164062 636.804688 1100.671875 636.613281 C 1021.976562 619.828125 986.734375 640.804688 986.734375 640.804688 Z M 1253.542969 480.566406 C 1224.765625 513.066406 1206.214844 563.085938 1197.386719 591.378906 C 1200.890625 605.871094 1204.613281 619.992188 1204.90625 621.121094 L 1263.472656 642.355469 L 1263.472656 505.980469 C 1258.316406 490.128906 1253.542969 480.566406 1253.542969 480.566406 Z M 1253.542969 480.566406 " fill-opacity="1" fill-rule="nonzero"/><g clip-path="url(#782f8b4b04)"><path fill="#fdb6ad" d="M 1095.832031 269.34375 C 1090.511719 245.394531 1093.164062 232.097656 1097.167969 217.457031 C 1101.152344 202.824219 1092.503906 149.605469 1133.753906 134.976562 C 1175 120.34375 1205.589844 135.636719 1223.558594 173.554688 C 1241.515625 211.472656 1204.269531 250.714844 1206.925781 265.355469 C 1209.589844 279.984375 1224.882812 303.277344 1224.882812 303.277344 C 1200.269531 329.878906 1162.351562 326.554688 1162.351562 326.554688 L 1156.546875 289.445312 C 1156.546875 289.445312 1149.878906 293.664062 1133.246094 296.328125 C 1116.632812 298.996094 1101.152344 293.292969 1095.832031 269.34375 Z M 1058.816406 433.644531 C 1057.277344 427.347656 1054.253906 415.738281 1050.597656 405.707031 C 1045.277344 391.078125 1030.648438 379.761719 1030.648438 379.761719 C 1030.648438 379.761719 1035.308594 363.125 1037.964844 355.152344 C 1040.628906 347.164062 1033.976562 347.164062 1031.308594 351.824219 C 1028.640625 356.484375 1022.660156 367.128906 1022.660156 367.128906 C 1022.660156 367.128906 1027.980469 353.820312 1029.976562 347.835938 C 1031.96875 341.855469 1026.648438 341.183594 1023.992188 345.171875 C 1021.328125 349.15625 1015.347656 357.144531 1015.347656 357.144531 C 1015.347656 357.144531 1018.671875 347.835938 1021.328125 341.84375 C 1023.992188 335.863281 1016.667969 335.863281 1014.011719 340.511719 C 1011.34375 345.171875 1007.359375 352.484375 1007.359375 352.484375 C 1007.359375 352.484375 1008.691406 345.171875 1010.683594 339.175781 C 1012.679688 333.195312 1007.359375 333.195312 1004.03125 339.175781 C 1000.703125 345.15625 994.722656 357.804688 992.730469 365.121094 C 990.734375 372.433594 1007.359375 398.378906 1016.679688 411.015625 C 1021.808594 417.988281 1022.699219 426.964844 1022.457031 433.632812 L 1058.816406 433.632812 Z M 1243.039062 433.136719 C 1228.511719 421.464844 1167.796875 372.574219 1159.023438 363.800781 C 1149.042969 353.820312 1128.417969 317.230469 1124.429688 310.578125 C 1120.445312 303.921875 1109.800781 302.589844 1099.820312 302.589844 C 1089.839844 302.589844 1065.226562 300.597656 1061.242188 301.257812 C 1057.253906 301.917969 1057.253906 306.578125 1063.234375 307.910156 C 1069.214844 309.246094 1086.511719 312.570312 1086.511719 312.570312 C 1086.511719 312.570312 1083.183594 325.878906 1083.183594 333.195312 C 1083.183594 340.511719 1087.84375 346.503906 1094.488281 351.152344 C 1101.140625 355.8125 1108.457031 354.480469 1108.457031 354.480469 C 1108.457031 354.480469 1111.121094 369.109375 1128.40625 377.757812 C 1142.640625 384.878906 1151.949219 403.28125 1167.40625 425.898438 C 1167.035156 425.824219 1166.679688 425.722656 1166.3125 425.644531 C 1134.71875 419.09375 1091.148438 434.953125 1082.5 463.5625 C 1073.851562 492.164062 1060.542969 502.144531 1057.214844 526.09375 C 1053.886719 550.046875 1052.554688 594.605469 1077.839844 599.925781 C 1103.121094 605.25 1131.058594 594.605469 1131.058594 594.605469 L 1140.367188 647.828125 C 1140.367188 647.828125 1177.613281 647.167969 1204.894531 621.222656 C 1204.894531 621.222656 1195.585938 585.972656 1192.257812 568.675781 C 1188.929688 551.378906 1224.855469 526.105469 1221.527344 492.835938 C 1218.964844 467.234375 1208.511719 445.582031 1187.761719 433.632812 L 1237.910156 433.632812 C 1239.6875 433.644531 1241.390625 433.46875 1243.039062 433.136719 Z M 874.320312 543.402344 C 869.660156 516.796875 852.367188 482.867188 841.722656 466.242188 C 831.082031 449.609375 793.835938 423.675781 749.921875 444.960938 C 706.019531 466.242188 705.347656 520.125 718.65625 540.75 C 731.964844 561.371094 782.519531 585.324219 782.519531 585.324219 L 783.855469 603.953125 L 807.804688 602.621094 L 836.402344 627.902344 L 831.742188 591.316406 C 831.742188 591.316406 835.730469 591.316406 850.371094 590.65625 C 865.015625 589.972656 878.984375 570.007812 874.320312 543.402344 Z M 881.636719 593.957031 C 884.964844 599.941406 895.605469 614.582031 895.605469 614.582031 C 895.605469 614.582031 884.304688 615.242188 877.648438 616.574219 C 870.996094 617.910156 866.347656 627.21875 860.351562 636.527344 C 854.371094 645.835938 859.019531 649.160156 868.339844 655.15625 C 868.339844 655.15625 866.347656 664.464844 860.351562 674.445312 C 855.386719 682.726562 859.566406 695.589844 862.285156 710.371094 L 907.847656 710.371094 C 906.527344 705.671875 904.738281 699.054688 903.59375 693.734375 C 901.601562 684.425781 915.570312 646.507812 918.894531 635.867188 C 922.222656 625.222656 897.613281 598.617188 888.964844 589.972656 C 880.316406 581.324219 878.308594 587.976562 881.636719 593.957031 Z M 969.386719 242.320312 C 966.746094 242.855469 968.585938 257.140625 968.585938 257.140625 C 968.585938 257.140625 964.347656 238.078125 961.703125 238.078125 C 959.0625 238.078125 962.125 257.609375 962.125 257.609375 C 959.839844 248.605469 956.089844 235.640625 953.476562 236.074219 C 949.488281 236.734375 956.140625 267.996094 956.140625 267.996094 C 956.140625 267.996094 949.488281 240.058594 945.5 242.054688 C 941.511719 244.046875 952.816406 284.621094 949.488281 295.277344 C 946.160156 305.917969 937.511719 307.25 937.511719 301.929688 C 937.511719 296.609375 940.839844 274.652344 936.851562 273.992188 C 932.863281 273.332031 928.203125 283.300781 926.210938 303.261719 C 924.21875 323.214844 932.191406 337.855469 928.878906 352.484375 C 926.070312 364.855469 911.859375 417.59375 907.519531 433.644531 L 936.609375 433.644531 C 942.25 433.644531 947.457031 431.789062 951.671875 428.691406 C 953.945312 414.277344 957.285156 392.285156 958.136719 382.429688 C 958.746094 375.46875 960.449219 369.769531 962.125 365.601562 C 980.816406 322.351562 982.886719 297.128906 980.765625 283.898438 C 978.65625 270.652344 972.027344 241.800781 969.386719 242.320312 Z M 755.394531 433.644531 C 753.148438 428.84375 744.257812 413.097656 722.378906 407.523438 C 696.433594 400.90625 696.433594 400.90625 696.433594 400.90625 L 677.410156 384.003906 C 677.410156 384.003906 659.898438 365.171875 654.867188 360.929688 C 649.839844 356.6875 642.957031 358.542969 645.597656 363.316406 C 645.597656 363.316406 642.421875 361.195312 641.101562 362.785156 C 639.78125 364.371094 642.15625 367.546875 642.15625 367.546875 C 642.15625 367.546875 638.183594 364.90625 637.914062 366.492188 C 637.648438 368.078125 640.035156 371.519531 640.035156 371.519531 C 640.035156 371.519531 637.914062 373.375 639.769531 376.28125 C 641.625 379.191406 652.214844 395.34375 661.21875 407.523438 C 668.113281 416.84375 681.078125 427.195312 692.761719 431.535156 C 695.875 432.894531 699.316406 433.65625 702.921875 433.65625 L 755.394531 433.65625 Z M 732.714844 275.679688 C 732.714844 275.679688 739.0625 277 741.984375 285.472656 C 744.894531 293.941406 750.722656 328.890625 750.722656 328.890625 L 796.527344 341.070312 L 817.441406 361.71875 L 819.5625 333.132812 L 810.828125 305.601562 C 810.828125 305.601562 825.125 306.652344 833.328125 296.597656 C 841.53125 286.539062 844.972656 272.773438 845.507812 249.203125 C 846.042969 225.644531 837.039062 218.761719 832.796875 188.84375 C 828.554688 158.925781 801.671875 140.878906 756.550781 145.425781 C 722.402344 148.867188 704.128906 167.664062 698.832031 194.40625 C 693.539062 221.152344 709.691406 243.386719 709.691406 243.386719 C 704.648438 272.507812 732.714844 275.679688 732.714844 275.679688 Z M 732.714844 275.679688 " fill-opacity="1" fill-rule="nonzero"/></g><path fill="#000000" d="M 690.351562 236.238281 C 682.414062 224.59375 679.226562 187.523438 701.996094 156.285156 C 724.765625 125.042969 786.976562 99.632812 804.71875 140.398438 C 804.71875 140.398438 826.953125 142.785156 833.050781 157.070312 C 839.144531 171.359375 833.851562 193.605469 833.851562 193.605469 L 832.796875 188.84375 C 832.796875 188.84375 803.945312 179.839844 792.820312 156.285156 C 792.820312 156.285156 772.703125 211.613281 738.023438 212.414062 C 738.023438 212.414062 743.851562 252.925781 740.144531 255.566406 C 736.433594 258.207031 716.839844 237.824219 716.839844 237.824219 C 716.839844 237.824219 711.011719 239.144531 709.691406 243.386719 C 708.371094 247.628906 709.15625 252.910156 709.15625 252.910156 C 709.15625 252.910156 698.300781 247.882812 690.351562 236.238281 Z M 781.683594 224.984375 C 781.683594 226.523438 782.925781 227.765625 784.464844 227.765625 C 786 227.765625 787.246094 226.523438 787.246094 224.984375 C 787.246094 223.449219 786 222.203125 784.464844 222.203125 C 782.925781 222.203125 781.683594 223.449219 781.683594 224.984375 Z M 822.851562 220.617188 C 824.390625 220.617188 825.632812 219.371094 825.632812 217.835938 C 825.632812 216.300781 824.390625 215.054688 822.851562 215.054688 C 821.316406 215.054688 820.070312 216.300781 820.070312 217.835938 C 820.070312 219.371094 821.316406 220.617188 822.851562 220.617188 Z M 1107.3125 213.074219 C 1107.3125 211.539062 1106.066406 210.292969 1104.53125 210.292969 C 1102.996094 210.292969 1101.75 211.539062 1101.75 213.074219 C 1101.75 214.609375 1102.996094 215.855469 1104.53125 215.855469 C 1106.066406 215.855469 1107.3125 214.609375 1107.3125 213.074219 Z M 1132.203125 217.835938 C 1132.203125 219.371094 1133.449219 220.617188 1134.984375 220.617188 C 1136.519531 220.617188 1137.765625 219.371094 1137.765625 217.835938 C 1137.765625 216.300781 1136.519531 215.054688 1134.984375 215.054688 C 1133.449219 215.054688 1132.203125 216.300781 1132.203125 217.835938 Z M 1247.089844 122.921875 C 1222.46875 112.597656 1210.023438 129.273438 1210.023438 129.273438 C 1210.023438 129.273438 1168.457031 100.421875 1130.871094 124.777344 C 1093.28125 149.132812 1101.484375 176.664062 1101.484375 176.664062 C 1109.6875 162.898438 1131.667969 150.988281 1131.667969 150.988281 C 1146.234375 192.550781 1177.730469 195.195312 1177.730469 195.195312 L 1188.855469 214.253906 C 1197.058594 206.839844 1202.085938 190.953125 1202.085938 190.953125 C 1212.945312 193.074219 1219.292969 201.277344 1218.507812 216.898438 C 1217.707031 232.515625 1200.246094 243.640625 1200.246094 243.640625 L 1206.859375 261.648438 L 1223.28125 233.582031 C 1235.460938 245.226562 1257.960938 240.734375 1257.960938 240.734375 C 1257.960938 240.734375 1257.960938 240.734375 1254.789062 235.171875 C 1251.613281 229.609375 1249.226562 219.816406 1259.28125 195.460938 C 1269.328125 171.117188 1271.714844 133.246094 1247.089844 122.921875 Z M 1152.941406 204.910156 C 1153.167969 205.226562 1153.539062 205.402344 1153.90625 205.402344 C 1154.148438 205.402344 1154.402344 205.328125 1154.617188 205.175781 C 1155.148438 204.78125 1155.265625 204.03125 1154.871094 203.5 C 1145.703125 190.992188 1130.070312 196.667969 1129.917969 196.730469 C 1129.292969 196.960938 1128.976562 197.65625 1129.21875 198.28125 C 1129.449219 198.902344 1130.144531 199.21875 1130.769531 198.992188 C 1131.339844 198.761719 1144.851562 193.898438 1152.941406 204.910156 Z M 1100.40625 195.765625 C 1100.761719 195.613281 1109.027344 192.007812 1116.253906 199.472656 C 1116.496094 199.714844 1116.800781 199.839844 1117.117188 199.839844 C 1117.421875 199.839844 1117.714844 199.726562 1117.953125 199.5 C 1118.4375 199.042969 1118.449219 198.28125 1117.980469 197.796875 C 1109.546875 189.085938 1099.503906 193.519531 1099.414062 193.570312 C 1098.816406 193.847656 1098.550781 194.558594 1098.816406 195.15625 C 1099.082031 195.777344 1099.792969 196.03125 1100.40625 195.765625 Z M 1109.433594 236.644531 C 1109.902344 236.644531 1110.347656 236.378906 1110.539062 235.921875 C 1110.804688 235.308594 1110.527344 234.597656 1109.914062 234.34375 C 1109.242188 234.054688 1107.390625 232.972656 1106.867188 231.539062 C 1106.625 230.851562 1106.691406 230.15625 1107.070312 229.378906 C 1109.152344 225.214844 1116.238281 212.351562 1116.316406 212.210938 C 1116.632812 211.625 1116.429688 210.902344 1115.847656 210.574219 C 1115.261719 210.242188 1114.527344 210.457031 1114.207031 211.042969 C 1113.917969 211.574219 1107.019531 224.085938 1104.925781 228.289062 C 1104.238281 229.671875 1104.125 231.042969 1104.609375 232.363281 C 1105.609375 235.082031 1108.824219 236.492188 1108.964844 236.554688 C 1109.117188 236.617188 1109.269531 236.644531 1109.433594 236.644531 Z M 1116.925781 248.007812 C 1116.226562 247.972656 1115.695312 248.464844 1115.65625 249.140625 C 1115.617188 249.800781 1116.113281 250.371094 1116.773438 250.410156 C 1117.117188 250.433594 1125.359375 250.90625 1136.0625 246.890625 C 1138.652344 245.925781 1140.179688 246.09375 1140.761719 246.585938 C 1141.195312 246.957031 1141.179688 247.601562 1141.09375 248.085938 C 1140.621094 250.585938 1136.699219 255.398438 1127.847656 258.398438 C 1127.210938 258.613281 1126.882812 259.300781 1127.097656 259.921875 C 1127.261719 260.417969 1127.734375 260.734375 1128.242188 260.734375 C 1128.367188 260.734375 1128.496094 260.707031 1128.621094 260.671875 C 1137.878906 257.535156 1142.742188 252.316406 1143.453125 248.515625 C 1143.746094 246.941406 1143.339844 245.609375 1142.3125 244.734375 C 1141.28125 243.871094 1139.214844 243.144531 1135.226562 244.632812 C 1125.027344 248.464844 1117.003906 248.007812 1116.925781 248.007812 Z M 1173.765625 284.683594 C 1171.914062 278.855469 1156.558594 289.445312 1156.558594 289.445312 L 1159.316406 307.074219 C 1166.476562 298.753906 1174.847656 288.074219 1173.765625 284.683594 Z M 1199.433594 217.429688 C 1198.847656 217.722656 1198.605469 218.445312 1198.898438 219.042969 C 1199.113281 219.460938 1199.535156 219.703125 1199.976562 219.703125 C 1200.15625 219.703125 1200.347656 219.664062 1200.511719 219.578125 C 1202.289062 218.6875 1205.261719 215.742188 1203.761719 210.992188 C 1202.976562 208.515625 1204.535156 205.621094 1206.492188 204.25 C 1207.394531 203.613281 1209.148438 202.761719 1210.886719 204.097656 C 1211.421875 204.503906 1212.167969 204.402344 1212.574219 203.867188 C 1212.980469 203.335938 1212.878906 202.585938 1212.347656 202.179688 C 1210.214844 200.554688 1207.507812 200.578125 1205.109375 202.265625 C 1202.480469 204.109375 1200.320312 208.046875 1201.476562 211.703125 C 1202.695312 215.589844 1199.773438 217.238281 1199.433594 217.429688 Z M 1086.398438 340.953125 C 1086.421875 340.953125 1086.460938 340.953125 1086.5 340.953125 C 1087.160156 340.902344 1087.65625 340.320312 1087.605469 339.660156 C 1086.839844 330.082031 1093.484375 317.957031 1093.546875 317.828125 C 1093.863281 317.246094 1093.660156 316.519531 1093.078125 316.191406 C 1092.492188 315.859375 1091.757812 316.078125 1091.4375 316.660156 C 1091.148438 317.179688 1084.390625 329.539062 1085.203125 339.835938 C 1085.253906 340.472656 1085.773438 340.953125 1086.398438 340.953125 Z M 1091.566406 347.609375 C 1091.65625 348.207031 1092.164062 348.625 1092.746094 348.625 C 1092.808594 348.625 1092.875 348.625 1092.9375 348.613281 C 1093.597656 348.511719 1094.042969 347.902344 1093.941406 347.242188 C 1092.429688 337.398438 1099.859375 321.625 1099.921875 321.460938 C 1100.203125 320.863281 1099.945312 320.140625 1099.351562 319.859375 C 1098.753906 319.582031 1098.03125 319.824219 1097.75 320.433594 C 1097.433594 321.105469 1089.941406 337.042969 1091.566406 347.609375 Z M 1107.121094 326.261719 C 1106.550781 325.929688 1105.8125 326.121094 1105.484375 326.707031 C 1105.152344 327.277344 1097.371094 340.917969 1098.183594 352.015625 C 1098.234375 352.648438 1098.753906 353.132812 1099.375 353.132812 C 1099.402344 353.132812 1099.4375 353.132812 1099.464844 353.132812 C 1100.125 353.082031 1100.621094 352.511719 1100.582031 351.851562 C 1099.820312 341.5 1107.492188 328.050781 1107.566406 327.914062 C 1107.898438 327.328125 1107.695312 326.589844 1107.121094 326.261719 Z M 1109.394531 355.773438 C 1109.507812 355.773438 1109.726562 355.785156 1110.042969 355.785156 C 1112.035156 355.785156 1117.648438 355.597656 1119.746094 353.539062 C 1120.367188 352.941406 1120.683594 352.191406 1120.683594 351.394531 C 1120.683594 348.257812 1115.984375 346.769531 1112.761719 346.121094 L 1117.078125 342.527344 C 1117.585938 342.109375 1117.664062 341.347656 1117.230469 340.839844 C 1116.800781 340.332031 1116.050781 340.253906 1115.542969 340.6875 L 1109.191406 345.984375 C 1108.824219 346.289062 1108.671875 346.796875 1108.8125 347.253906 C 1108.949219 347.710938 1109.34375 348.054688 1109.828125 348.105469 C 1113.828125 348.546875 1118.285156 350.007812 1118.285156 351.40625 C 1118.285156 351.46875 1118.285156 351.621094 1118.070312 351.824219 C 1116.851562 353.019531 1112.316406 353.449219 1109.457031 353.375 C 1108.785156 353.308594 1108.238281 353.882812 1108.226562 354.542969 C 1108.214844 355.203125 1108.734375 355.761719 1109.394531 355.773438 Z M 1076.074219 375.636719 C 1076.238281 375.636719 1076.390625 375.609375 1076.554688 375.535156 C 1077.164062 375.265625 1077.445312 374.570312 1077.175781 373.960938 L 1041.175781 290.832031 C 1040.910156 290.222656 1040.199219 289.941406 1039.589844 290.207031 C 1038.980469 290.476562 1038.699219 291.171875 1038.964844 291.785156 L 1074.96875 374.910156 C 1075.171875 375.355469 1075.617188 375.636719 1076.074219 375.636719 Z M 820.578125 235.132812 C 819.132812 232.910156 817.621094 230.625 816.492188 228.542969 C 812.730469 221.644531 810.800781 214.648438 810.777344 214.585938 C 810.597656 213.949219 809.9375 213.570312 809.304688 213.746094 C 808.667969 213.925781 808.285156 214.585938 808.464844 215.21875 C 808.539062 215.511719 810.484375 222.546875 814.382812 229.699219 C 815.5625 231.867188 817.101562 234.207031 818.574219 236.453125 C 821.035156 240.210938 824.757812 245.890625 823.640625 247.019531 C 822.039062 248.617188 816.628906 248.835938 813.59375 248.605469 C 812.933594 248.542969 812.351562 249.050781 812.300781 249.710938 C 812.25 250.371094 812.746094 250.957031 813.40625 251.007812 C 813.683594 251.03125 814.597656 251.09375 815.832031 251.09375 C 818.710938 251.09375 823.308594 250.753906 825.339844 248.71875 C 827.832031 246.207031 824.628906 241.316406 820.578125 235.132812 Z M 793.59375 259.996094 C 802.828125 262.132812 815.285156 261.46875 815.816406 261.433594 C 816.476562 261.394531 816.984375 260.824219 816.949219 260.164062 C 816.910156 259.503906 816.351562 258.996094 815.675781 259.03125 C 815.550781 259.03125 803.03125 259.707031 794.128906 257.648438 C 791.105469 256.949219 789.59375 257.773438 788.871094 258.585938 C 788.019531 259.539062 787.839844 260.886719 788.375 262.398438 C 789.898438 266.742188 797.289062 272.378906 809.886719 274.488281 C 809.949219 274.5 810.027344 274.5 810.089844 274.5 C 810.660156 274.5 811.183594 274.082031 811.269531 273.496094 C 811.386719 272.835938 810.941406 272.226562 810.28125 272.113281 C 797.847656 270.042969 791.726562 264.695312 790.636719 261.597656 C 790.535156 261.292969 790.316406 260.554688 790.648438 260.1875 C 790.976562 259.84375 791.917969 259.605469 793.59375 259.996094 Z M 830.546875 198.382812 C 830.890625 197.808594 830.699219 197.074219 830.140625 196.730469 C 816.949219 188.804688 808.476562 201.570312 808.386719 201.695312 C 808.03125 202.253906 808.183594 202.992188 808.742188 203.359375 C 808.945312 203.488281 809.175781 203.550781 809.390625 203.550781 C 809.785156 203.550781 810.167969 203.359375 810.394531 203.003906 C 810.6875 202.558594 817.695312 192.082031 828.882812 198.789062 C 829.46875 199.128906 830.207031 198.953125 830.546875 198.382812 Z M 795.625 207.183594 C 795.957031 206.597656 795.753906 205.875 795.167969 205.542969 C 780.769531 197.417969 769.464844 208.820312 769.351562 208.933594 C 768.894531 209.417969 768.90625 210.167969 769.375 210.636719 C 769.605469 210.863281 769.910156 210.980469 770.214844 210.980469 C 770.53125 210.980469 770.835938 210.851562 771.078125 210.609375 C 771.484375 210.191406 781.210938 200.4375 793.976562 207.640625 C 794.558594 207.957031 795.296875 207.753906 795.625 207.183594 Z M 814.902344 318.488281 L 810.8125 305.601562 C 810.8125 305.601562 801.289062 306.132812 791.753906 302.601562 C 782.226562 299.074219 785.402344 309.664062 798.101562 314.246094 C 805.492188 316.914062 811.308594 318.019531 814.902344 318.488281 Z M 968.449219 255.960938 C 967.789062 256.035156 967.316406 256.632812 967.394531 257.292969 C 967.417969 257.519531 970.1875 280.796875 969.160156 288.671875 C 968.804688 291.429688 965.589844 295.148438 961.882812 299.464844 C 955.417969 306.984375 947.367188 316.355469 946.910156 328.320312 C 946.886719 328.980469 947.40625 329.539062 948.066406 329.5625 C 948.078125 329.5625 948.089844 329.5625 948.117188 329.5625 C 948.765625 329.5625 949.296875 329.054688 949.324219 328.40625 C 949.742188 317.28125 957.488281 308.28125 963.710938 301.039062 C 967.839844 296.242188 971.101562 292.457031 971.546875 288.988281 C 972.613281 280.8125 969.894531 257.976562 969.78125 257.011719 C 969.707031 256.339844 969.09375 255.871094 968.449219 255.960938 Z M 960.703125 288.988281 C 960.601562 289.648438 961.042969 290.257812 961.691406 290.375 C 961.753906 290.386719 961.820312 290.386719 961.882812 290.386719 C 962.464844 290.386719 962.976562 289.96875 963.0625 289.382812 C 965.539062 274.167969 962.148438 255.859375 961.996094 255.082031 C 961.871094 254.433594 961.246094 254.003906 960.585938 254.128906 C 959.941406 254.257812 959.507812 254.878906 959.636719 255.539062 C 959.6875 255.707031 963.101562 274.207031 960.703125 288.988281 Z M 953.285156 290.398438 C 953.171875 291.058594 953.617188 291.667969 954.277344 291.785156 C 954.339844 291.796875 954.414062 291.796875 954.480469 291.796875 C 955.050781 291.796875 955.570312 291.375 955.660156 290.792969 C 957.4375 280.152344 955.40625 262.269531 955.316406 261.507812 C 955.242188 260.847656 954.644531 260.367188 953.984375 260.453125 C 953.324219 260.53125 952.851562 261.128906 952.929688 261.789062 C 952.941406 261.964844 955 280.101562 953.285156 290.398438 Z M 647.65625 362.972656 C 647.273438 362.429688 646.527344 362.300781 645.980469 362.683594 C 645.433594 363.0625 645.304688 363.8125 645.6875 364.359375 C 645.816406 364.535156 658.222656 382.214844 670.121094 395.878906 C 670.363281 396.15625 670.691406 396.285156 671.023438 396.285156 C 671.300781 396.285156 671.582031 396.183594 671.808594 395.992188 C 672.304688 395.558594 672.367188 394.796875 671.925781 394.289062 C 660.113281 380.726562 647.78125 363.152344 647.65625 362.972656 Z M 642.742188 368.308594 C 642.386719 367.75 641.636719 367.585938 641.078125 367.941406 C 640.519531 368.296875 640.355469 369.042969 640.710938 369.601562 C 640.835938 369.804688 653.902344 390.265625 662.667969 401.121094 C 662.90625 401.414062 663.25 401.566406 663.605469 401.566406 C 663.871094 401.566406 664.140625 401.476562 664.355469 401.300781 C 664.875 400.882812 664.953125 400.132812 664.53125 399.613281 C 655.871094 388.855469 642.867188 368.511719 642.742188 368.308594 Z M 1024.121094 363.253906 C 1023.511719 363 1022.800781 363.292969 1022.546875 363.902344 L 1018.304688 374.136719 C 1018.050781 374.746094 1018.34375 375.457031 1018.953125 375.710938 C 1019.105469 375.773438 1019.257812 375.800781 1019.410156 375.800781 C 1019.878906 375.800781 1020.324219 375.519531 1020.527344 375.0625 L 1024.769531 364.828125 C 1025.023438 364.21875 1024.730469 363.507812 1024.121094 363.253906 Z M 1016.09375 354.480469 C 1015.511719 354.175781 1014.773438 354.390625 1014.46875 354.988281 L 1007.765625 367.699219 C 1007.460938 368.28125 1007.675781 369.007812 1008.273438 369.324219 C 1008.449219 369.414062 1008.640625 369.464844 1008.832031 369.464844 C 1009.261719 369.464844 1009.683594 369.234375 1009.898438 368.828125 L 1016.601562 356.117188 C 1016.90625 355.519531 1016.691406 354.796875 1016.09375 354.480469 Z M 1006.597656 350.605469 C 1006.011719 350.289062 1005.289062 350.492188 1004.957031 351.074219 L 997.898438 363.789062 C 997.578125 364.371094 997.78125 365.09375 998.367188 365.425781 C 998.558594 365.527344 998.746094 365.578125 998.953125 365.578125 C 999.371094 365.578125 999.789062 365.347656 1000.003906 364.957031 L 1007.066406 352.242188 C 1007.382812 351.660156 1007.167969 350.9375 1006.597656 350.605469 Z M 725.679688 257.789062 C 725.375 255.945312 724.992188 253.660156 723.609375 251.183594 C 720.445312 245.496094 715.089844 245.328125 712.6875 246.027344 C 712.054688 246.21875 711.683594 246.878906 711.875 247.527344 C 712.066406 248.160156 712.738281 248.53125 713.375 248.339844 C 713.589844 248.277344 718.492188 246.90625 721.515625 252.351562 C 722.695312 254.472656 723.023438 256.441406 723.304688 258.179688 C 723.835938 261.394531 724.347656 264.429688 730.210938 264.960938 C 730.25 264.960938 730.289062 264.960938 730.328125 264.960938 C 730.9375 264.960938 731.46875 264.492188 731.519531 263.871094 C 731.585938 263.210938 731.089844 262.625 730.429688 262.5625 C 726.414062 262.207031 726.199219 260.910156 725.679688 257.789062 Z M 746.796875 350.441406 C 746.316406 350.898438 746.300781 351.660156 746.757812 352.140625 L 773.582031 380.03125 C 773.808594 380.269531 774.125 380.398438 774.445312 380.398438 C 774.496094 380.398438 774.558594 380.398438 774.609375 380.386719 C 774.988281 380.335938 775.320312 380.09375 775.511719 379.75 L 791.398438 349.398438 C 791.703125 348.816406 791.472656 348.078125 790.890625 347.773438 C 790.304688 347.46875 789.582031 347.699219 789.261719 348.28125 L 774.152344 377.160156 L 748.488281 350.480469 C 748.03125 349.996094 747.269531 349.984375 746.796875 350.441406 Z M 856.277344 335.824219 L 836.160156 323.113281 C 835.601562 322.757812 834.851562 322.921875 834.496094 323.492188 C 834.140625 324.050781 834.308594 324.800781 834.878906 325.15625 L 851.933594 335.925781 L 827.613281 337.816406 C 826.953125 337.867188 826.460938 338.453125 826.511719 339.113281 C 826.5625 339.746094 827.082031 340.21875 827.703125 340.21875 C 827.730469 340.21875 827.765625 340.21875 827.792969 340.21875 L 855.71875 338.046875 C 856.238281 338.007812 856.671875 337.640625 856.796875 337.132812 C 856.925781 336.625 856.722656 336.089844 856.277344 335.824219 Z M 1194.503906 416.261719 C 1162.730469 401.441406 1143.328125 399.320312 1133.433594 391.902344 C 1123.554688 384.488281 1121.078125 396.84375 1121.078125 396.84375 C 1121.078125 396.84375 1096.367188 390.835938 1092.835938 392.601562 C 1089.304688 394.367188 1086.828125 406.011719 1092.125 415.546875 C 1092.125 415.546875 1085.0625 415.546875 1085.773438 420.132812 C 1086.105469 422.292969 1090.207031 428.296875 1096.214844 435.179688 C 1090.5625 438.726562 1086.765625 449.035156 1086.128906 455.082031 C 1092.402344 446.609375 1100.609375 442.609375 1102.359375 441.824219 C 1108.050781 447.613281 1114.613281 453.378906 1121.066406 457.558594 C 1121.066406 457.558594 1118.589844 464.972656 1120.011719 466.738281 C 1121.421875 468.503906 1162.019531 483.324219 1162.019531 483.324219 C 1162.019531 483.324219 1153.195312 529.207031 1151.429688 539.097656 C 1149.664062 548.976562 1166.960938 548.621094 1185.667969 519.324219 C 1185.667969 519.324219 1197.3125 520.035156 1194.136719 538.03125 C 1193.007812 544.457031 1190.199219 548.863281 1187.074219 551.875 C 1181.640625 557.082031 1181.617188 565.792969 1186.65625 571.378906 L 1194.148438 579.683594 C 1194.148438 579.683594 1195.203125 562.386719 1212.15625 544.382812 C 1229.097656 526.375 1244.628906 509.433594 1232.628906 478.726562 C 1220.625 448.019531 1226.265625 431.078125 1194.503906 416.261719 Z M 1106.257812 510.5 C 1106.257812 512.253906 1107.679688 513.675781 1109.433594 513.675781 C 1111.1875 513.675781 1112.609375 512.253906 1112.609375 510.5 C 1112.609375 508.746094 1111.1875 507.324219 1109.433594 507.324219 C 1107.679688 507.324219 1106.257812 508.746094 1106.257812 510.5 Z M 820.921875 523.375 C 822.675781 523.375 824.097656 521.953125 824.097656 520.203125 C 824.097656 518.449219 822.675781 517.027344 820.921875 517.027344 C 819.171875 517.027344 817.746094 518.449219 817.746094 520.203125 C 817.746094 521.953125 819.171875 523.375 820.921875 523.375 Z M 1080.835938 497.445312 C 1082.585938 497.445312 1084.011719 496.023438 1084.011719 494.269531 C 1084.011719 492.519531 1082.585938 491.097656 1080.835938 491.097656 C 1079.082031 491.097656 1077.660156 492.519531 1077.660156 494.269531 C 1077.660156 496.023438 1079.082031 497.445312 1080.835938 497.445312 Z M 843.160156 500.785156 C 843.160156 502.539062 844.582031 503.960938 846.332031 503.960938 C 848.085938 503.960938 849.507812 502.539062 849.507812 500.785156 C 849.507812 499.03125 848.085938 497.609375 846.332031 497.609375 C 844.582031 497.609375 843.160156 499.03125 843.160156 500.785156 Z M 1110.488281 488.0625 C 1110.5 488.0625 1110.511719 488.0625 1110.527344 488.0625 C 1111.363281 488.035156 1131.261719 487.628906 1132.582031 508.824219 C 1132.621094 509.457031 1133.15625 509.953125 1133.777344 509.953125 C 1133.804688 509.953125 1133.828125 509.953125 1133.855469 509.953125 C 1134.515625 509.914062 1135.023438 509.34375 1134.984375 508.683594 C 1133.511719 485.203125 1110.691406 485.671875 1110.449219 485.671875 C 1109.789062 485.699219 1109.269531 486.246094 1109.28125 486.917969 C 1109.304688 487.539062 1109.839844 488.0625 1110.488281 488.0625 Z M 1084.023438 468.351562 C 1083.363281 468.351562 1082.816406 468.886719 1082.816406 469.558594 C 1082.816406 470.21875 1083.347656 470.765625 1084.023438 470.765625 C 1084.402344 470.765625 1093.445312 470.929688 1093.761719 484.773438 C 1093.777344 485.433594 1094.308594 485.941406 1094.96875 485.941406 C 1094.980469 485.941406 1094.980469 485.941406 1094.996094 485.941406 C 1095.65625 485.925781 1096.1875 485.367188 1096.164062 484.707031 C 1095.78125 468.542969 1084.136719 468.351562 1084.023438 468.351562 Z M 1071.261719 521.75 C 1075.070312 515.871094 1088.707031 498.726562 1088.835938 498.550781 C 1089.253906 498.03125 1089.164062 497.28125 1088.644531 496.859375 C 1088.125 496.453125 1087.375 496.53125 1086.957031 497.050781 C 1086.398438 497.761719 1073.113281 514.460938 1069.242188 520.445312 C 1065.722656 525.878906 1068.769531 530.769531 1070.878906 532.597656 C 1071.109375 532.800781 1071.386719 532.886719 1071.667969 532.886719 C 1072.007812 532.886719 1072.339844 532.75 1072.582031 532.46875 C 1073.011719 531.960938 1072.960938 531.210938 1072.464844 530.769531 C 1072.261719 530.617188 1067.984375 526.804688 1071.261719 521.75 Z M 1089.8125 547.746094 C 1089.8125 551.226562 1086.980469 554.070312 1083.488281 554.070312 C 1080.007812 554.070312 1077.164062 551.238281 1077.164062 547.746094 C 1077.164062 544.253906 1079.996094 541.421875 1083.488281 541.421875 C 1086.96875 541.421875 1089.8125 544.253906 1089.8125 547.746094 Z M 1087.402344 547.746094 C 1087.402344 545.585938 1085.648438 543.835938 1083.488281 543.835938 C 1081.332031 543.835938 1079.578125 545.585938 1079.578125 547.746094 C 1079.578125 549.90625 1081.332031 551.65625 1083.488281 551.65625 C 1085.648438 551.65625 1087.402344 549.90625 1087.402344 547.746094 Z M 1143.671875 590.988281 C 1136.964844 593.109375 1131.085938 594.632812 1131.085938 594.632812 L 1134.375 613.425781 C 1134.652344 613.234375 1134.90625 613.070312 1135.199219 612.878906 C 1157.082031 597.691406 1150.375 588.867188 1143.671875 590.988281 Z M 1228.449219 632.308594 C 1214.773438 652.539062 1198.910156 673.886719 1196.09375 674.585938 C 1193.488281 674.558594 1180.546875 659.726562 1170.046875 646.011719 C 1169.640625 645.492188 1168.890625 645.390625 1168.355469 645.785156 C 1167.824219 646.191406 1167.734375 646.9375 1168.128906 647.472656 C 1188.917969 674.625 1194.785156 676.984375 1196.179688 676.984375 C 1196.207031 676.984375 1196.246094 676.984375 1196.269531 676.984375 C 1197.820312 676.871094 1204.257812 672.402344 1230.441406 633.65625 C 1230.8125 633.109375 1230.671875 632.359375 1230.125 631.992188 C 1229.566406 631.625 1228.816406 631.765625 1228.449219 632.308594 Z M 1134.222656 639.027344 C 1120.773438 647.230469 1105.574219 655.5 1102.867188 655.5 C 1102.816406 655.5 1102.765625 655.5 1102.726562 655.484375 C 1101.609375 655.144531 1101.574219 648.296875 1103.210938 640.285156 C 1103.339844 639.636719 1102.917969 639.003906 1102.269531 638.863281 C 1101.625 638.722656 1100.988281 639.140625 1100.847656 639.800781 C 1097.777344 654.789062 1100.660156 657.363281 1102.03125 657.785156 C 1102.183594 657.835938 1102.371094 657.847656 1102.574219 657.847656 C 1107.414062 657.847656 1127.007812 646.226562 1135.480469 641.058594 C 1136.050781 640.714844 1136.230469 639.96875 1135.886719 639.410156 C 1135.53125 638.863281 1134.792969 638.671875 1134.222656 639.027344 Z M 786.8125 563.457031 C 786.8125 563.457031 766.699219 570.515625 755.394531 554.984375 C 740.550781 534.578125 759.636719 522.511719 759.636719 522.511719 C 771.28125 534.871094 782.582031 532.039062 782.582031 532.039062 C 807.996094 496.734375 798.113281 451.207031 798.113281 451.207031 C 798.113281 451.207031 822.828125 454.027344 841.734375 466.242188 C 844.769531 438.214844 816.464844 426.140625 778.34375 427.90625 C 740.21875 429.671875 710.566406 443.082031 702.453125 475.210938 C 694.335938 507.324219 693.625 547.214844 703.863281 579.699219 C 714.097656 612.167969 756.460938 625.933594 781.160156 609.707031 C 805.859375 593.449219 786.8125 563.457031 786.8125 563.457031 Z M 853.027344 520.40625 C 847.78125 517.257812 835.476562 510.21875 835.347656 510.15625 C 834.777344 509.828125 834.039062 510.03125 833.710938 510.601562 C 833.378906 511.171875 833.582031 511.910156 834.15625 512.238281 C 834.28125 512.316406 846.5625 519.324219 851.78125 522.460938 C 852.757812 523.046875 853.34375 523.820312 853.558594 524.800781 C 854.144531 527.53125 851.792969 530.945312 851.769531 530.984375 C 851.386719 531.53125 851.527344 532.277344 852.074219 532.660156 C 852.289062 532.8125 852.519531 532.875 852.757812 532.875 C 853.140625 532.875 853.507812 532.699219 853.75 532.367188 C 853.875 532.191406 856.722656 528.0625 855.921875 524.316406 C 855.554688 522.652344 854.585938 521.34375 853.027344 520.40625 Z M 850.15625 542.375 C 850.027344 542.398438 836.683594 544.496094 828.007812 545.195312 C 823.476562 545.5625 823.183594 548.113281 823.207031 548.890625 C 823.324219 553.488281 832.898438 558.742188 848.1875 559.238281 C 848.199219 559.238281 848.210938 559.238281 848.226562 559.238281 C 848.875 559.238281 849.40625 558.730469 849.433594 558.070312 C 849.457031 557.410156 848.9375 556.851562 848.261719 556.828125 C 832.464844 556.320312 825.660156 550.894531 825.609375 548.824219 C 825.597656 548.0625 826.992188 547.683594 828.199219 547.582031 C 836.960938 546.882812 850.398438 544.761719 850.523438 544.75 C 851.183594 544.648438 851.628906 544.027344 851.527344 543.378906 C 851.425781 542.71875 850.816406 542.273438 850.15625 542.375 Z M 821.417969 504.40625 C 821.46875 503.742188 820.972656 503.160156 820.3125 503.121094 C 805.378906 502.003906 801.113281 515.476562 801.074219 515.617188 C 800.882812 516.253906 801.238281 516.925781 801.875 517.117188 C 801.988281 517.15625 802.113281 517.167969 802.230469 517.167969 C 802.738281 517.167969 803.21875 516.835938 803.371094 516.316406 C 803.523438 515.832031 807.183594 504.519531 820.136719 505.507812 C 820.769531 505.546875 821.367188 505.066406 821.417969 504.40625 Z M 846.867188 482.652344 C 842.167969 481.953125 838.257812 482.765625 835.273438 485.0625 C 830.664062 488.621094 829.988281 494.410156 829.964844 494.652344 C 829.886719 495.3125 830.371094 495.910156 831.03125 495.972656 C 831.082031 495.972656 831.121094 495.984375 831.15625 495.984375 C 831.765625 495.984375 832.289062 495.527344 832.351562 494.917969 C 832.351562 494.867188 832.960938 489.875 836.757812 486.957031 C 839.210938 485.078125 842.484375 484.429688 846.511719 485.027344 C 847.171875 485.101562 847.78125 484.671875 847.882812 484.007812 C 847.984375 483.363281 847.527344 482.753906 846.867188 482.652344 Z M 773.695312 542.804688 C 773.515625 542.144531 773.328125 541.5 773.136719 540.863281 C 771.535156 535.667969 761.59375 534.488281 760.460938 534.375 C 759.800781 534.296875 759.21875 534.78125 759.140625 535.441406 C 759.078125 536.101562 759.546875 536.699219 760.207031 536.761719 C 762.660156 537.015625 769.871094 538.449219 770.835938 541.5625 C 771.027344 542.183594 771.207031 542.820312 771.382812 543.453125 C 772.539062 547.59375 773.859375 552.265625 779.089844 553.664062 C 779.191406 553.691406 779.292969 553.703125 779.394531 553.703125 C 779.929688 553.703125 780.414062 553.347656 780.550781 552.8125 C 780.71875 552.164062 780.335938 551.519531 779.699219 551.339844 C 775.800781 550.3125 774.824219 546.832031 773.695312 542.804688 Z M 817.164062 589.921875 C 809.113281 588.523438 817.378906 599.964844 833.355469 603.941406 L 831.742188 591.292969 C 831.753906 591.304688 825.277344 591.328125 817.164062 589.921875 Z M 806.269531 605.3125 C 805.621094 605.261719 805.046875 605.808594 805.023438 606.46875 L 804.363281 623.269531 L 775.902344 622.253906 C 775.230469 622.253906 774.683594 622.746094 774.660156 623.40625 C 774.632812 624.066406 775.15625 624.625 775.816406 624.652344 L 805.46875 625.707031 C 805.480469 625.707031 805.492188 625.707031 805.503906 625.707031 C 806.152344 625.707031 806.6875 625.199219 806.710938 624.550781 L 807.421875 606.542969 C 807.449219 605.894531 806.929688 605.335938 806.269531 605.3125 Z M 866.105469 645.175781 C 865.625 645.632812 865.609375 646.394531 866.066406 646.875 C 866.523438 647.359375 867.285156 647.371094 867.769531 646.914062 C 870.269531 644.539062 874.613281 641.65625 875.972656 643.015625 C 876.023438 643.066406 876.125 643.167969 876.113281 643.484375 C 876.050781 645.769531 871.476562 650.699219 868.609375 653.277344 C 868.113281 653.71875 868.074219 654.484375 868.519531 654.976562 C 868.761719 655.246094 869.089844 655.371094 869.421875 655.371094 C 869.699219 655.371094 869.992188 655.269531 870.21875 655.066406 C 871.058594 654.316406 878.410156 647.613281 878.527344 643.546875 C 878.550781 642.660156 878.257812 641.898438 877.6875 641.3125 C 874.195312 637.832031 867.425781 643.917969 866.105469 645.175781 Z M 889.625 628.96875 L 868.441406 627.203125 C 867.78125 627.152344 867.199219 627.636719 867.148438 628.296875 C 867.097656 628.957031 867.578125 629.542969 868.238281 629.59375 L 889.421875 631.355469 C 889.460938 631.355469 889.484375 631.355469 889.523438 631.355469 C 890.144531 631.355469 890.664062 630.886719 890.714844 630.253906 C 890.78125 629.605469 890.285156 629.019531 889.625 628.96875 Z M 893.867188 621.910156 L 872.683594 620.144531 C 872.023438 620.082031 871.441406 620.574219 871.390625 621.234375 C 871.339844 621.898438 871.820312 622.480469 872.480469 622.53125 L 893.664062 624.296875 C 893.699219 624.296875 893.726562 624.296875 893.765625 624.296875 C 894.386719 624.296875 894.90625 623.828125 894.957031 623.191406 C 895.007812 622.542969 894.527344 621.960938 893.867188 621.910156 Z M 893.867188 621.910156 " fill-opacity="1" fill-rule="nonzero"/><g clip-path="url(#4ed5422d66)"><g clip-path="url(#af68d3f28e)"><path fill="#7b4d42" d="M 619.40625 184.265625 L 469.6875 184.265625 L 469.6875 0.0390625 L 619.40625 0.0390625 Z M 619.40625 184.265625 " fill-opacity="1" fill-rule="nonzero"/></g></g><g clip-path="url(#83009270c2)"><g clip-path="url(#3cbd3b72fd)"><g clip-path="url(#06c00b4b5b)"><path fill="#fdb6ad" d="M 1121.984375 181.359375 L 1124.054688 170.160156 L 1139.761719 173.066406 L 1137.6875 184.265625 Z M 1121.984375 181.359375 " fill-opacity="1" fill-rule="nonzero"/></g></g></g><g clip-path="url(#9a1e35a1e5)"><g clip-path="url(#d0df7e9d0a)"><g clip-path="url(#4e601c8e05)"><path fill="#fdb6ad" d="M 1055.460938 496.707031 L 1110.261719 483.570312 L 1126.320312 550.574219 L 1071.519531 563.707031 Z M 1055.460938 496.707031 " fill-opacity="1" fill-rule="nonzero"/></g></g></g><g clip-path="url(#175d4a442c)"><g clip-path="url(#8077cf4e0c)"><g clip-path="url(#748fcd95d5)"><path fill="#fdb6ad" d="M 1090.894531 207.257812 L 1135.53125 196.558594 L 1152.371094 266.824219 L 1107.738281 277.523438 Z M 1090.894531 207.257812 " fill-opacity="1" fill-rule="nonzero"/></g></g></g><g clip-path="url(#e923571cfb)"><g clip-path="url(#a955509b94)"><g clip-path="url(#837239f709)"><path fill="#fdb6ad" d="M 769.574219 217.066406 L 831.339844 202.257812 L 844.144531 255.679688 L 782.378906 270.484375 Z M 769.574219 217.066406 " fill-opacity="1" fill-rule="nonzero"/></g></g></g><g clip-path="url(#1a81393250)"><g clip-path="url(#4954b45546)"><g clip-path="url(#e5d25b8aee)"><path fill="#fdb6ad" d="M 816.109375 493.601562 L 871.203125 499.839844 L 861.628906 584.410156 L 806.539062 578.175781 Z M 816.109375 493.601562 " fill-opacity="1" fill-rule="nonzero"/></g></g></g><g clip-path="url(#f5e0b8c293)"><g clip-path="url(#3e916ad960)"><g clip-path="url(#defc643b5b)"><path fill="#fdb6ad" d="M 786.878906 253.664062 L 821.789062 257.109375 L 818.808594 287.304688 L 783.898438 283.859375 Z M 786.878906 253.664062 " fill-opacity="1" fill-rule="nonzero"/></g></g></g></svg>