<svg xmlns="http://www.w3.org/2000/svg" xmlns:xlink="http://www.w3.org/1999/xlink" width="1920" zoomAndPan="magnify" viewBox="0 0 1440 809.999993" height="1080" preserveAspectRatio="xMidYMid meet" version="1.0"><defs><clipPath id="672b9d5e71"><path d="M 56.230469 53.816406 L 1384 53.816406 L 1384 756.183594 L 56.230469 756.183594 Z M 56.230469 53.816406 " clip-rule="nonzero"/></clipPath><clipPath id="15a0b18cb9"><path d="M 81.730469 53.816406 L 1358.269531 53.816406 C 1365.03125 53.816406 1371.519531 56.503906 1376.300781 61.285156 C 1381.082031 66.066406 1383.769531 72.554688 1383.769531 79.316406 L 1383.769531 730.683594 C 1383.769531 737.445312 1381.082031 743.933594 1376.300781 748.714844 C 1371.519531 753.496094 1365.03125 756.183594 1358.269531 756.183594 L 81.730469 756.183594 C 74.96875 756.183594 68.480469 753.496094 63.699219 748.714844 C 58.917969 743.933594 56.230469 737.445312 56.230469 730.683594 L 56.230469 79.316406 C 56.230469 72.554688 58.917969 66.066406 63.699219 61.285156 C 68.480469 56.503906 74.96875 53.816406 81.730469 53.816406 Z M 81.730469 53.816406 " clip-rule="nonzero"/></clipPath><clipPath id="7d85384076"><path d="M 56.230469 53.816406 L 1383.730469 53.816406 L 1383.730469 755.816406 L 56.230469 755.816406 Z M 56.230469 53.816406 " clip-rule="nonzero"/></clipPath><clipPath id="a759da570e"><path d="M 81.730469 53.816406 L 1358.265625 53.816406 C 1365.027344 53.816406 1371.515625 56.503906 1376.296875 61.285156 C 1381.078125 66.066406 1383.765625 72.554688 1383.765625 79.316406 L 1383.765625 730.679688 C 1383.765625 737.441406 1381.078125 743.929688 1376.296875 748.710938 C 1371.515625 753.492188 1365.027344 756.179688 1358.265625 756.179688 L 81.730469 756.179688 C 74.96875 756.179688 68.480469 753.492188 63.699219 748.710938 C 58.917969 743.929688 56.230469 737.441406 56.230469 730.679688 L 56.230469 79.316406 C 56.230469 72.554688 58.917969 66.066406 63.699219 61.285156 C 68.480469 56.503906 74.96875 53.816406 81.730469 53.816406 Z M 81.730469 53.816406 " clip-rule="nonzero"/></clipPath><clipPath id="313240396c"><path d="M 330.058594 81 L 1143.808594 81 L 1143.808594 566 L 330.058594 566 Z M 330.058594 81 " clip-rule="nonzero"/></clipPath><clipPath id="865ad8f162"><path d="M 331.832031 300.460938 C 306.589844 371.832031 340.773438 450.71875 409.273438 483.054688 C 462.09375 507.984375 553.308594 542.808594 677.023438 559.585938 C 881.761719 587.351562 1067.125 518.082031 1117.09375 422.390625 C 1167.058594 326.699219 1155.648438 186.589844 1007.421875 118.953125 C 859.195312 51.3125 644.6875 81.914062 604.3125 157.601562 C 563.9375 233.292969 493.089844 234.140625 406.152344 236.132812 C 369.929688 236.960938 344.605469 264.34375 331.832031 300.460938 Z M 331.832031 300.460938 " clip-rule="nonzero"/></clipPath><clipPath id="73f98edc26"><path d="M 425 81 L 511 81 L 511 566 L 425 566 Z M 425 81 " clip-rule="nonzero"/></clipPath><clipPath id="3087ccff08"><path d="M 331.832031 300.460938 C 306.589844 371.832031 340.773438 450.71875 409.273438 483.054688 C 462.09375 507.984375 553.308594 542.808594 677.023438 559.585938 C 881.761719 587.351562 1067.125 518.082031 1117.09375 422.390625 C 1167.058594 326.699219 1155.648438 186.589844 1007.421875 118.953125 C 859.195312 51.3125 644.6875 81.914062 604.3125 157.601562 C 563.9375 233.292969 493.089844 234.140625 406.152344 236.132812 C 369.929688 236.960938 344.605469 264.34375 331.832031 300.460938 Z M 331.832031 300.460938 " clip-rule="nonzero"/></clipPath><clipPath id="80d0a2c778"><path d="M 532 408 L 678 408 L 678 566 L 532 566 Z M 532 408 " clip-rule="nonzero"/></clipPath><clipPath id="24d5ddd459"><path d="M 331.832031 300.460938 C 306.589844 371.832031 340.773438 450.71875 409.273438 483.054688 C 462.09375 507.984375 553.308594 542.808594 677.023438 559.585938 C 881.761719 587.351562 1067.125 518.082031 1117.09375 422.390625 C 1167.058594 326.699219 1155.648438 186.589844 1007.421875 118.953125 C 859.195312 51.3125 644.6875 81.914062 604.3125 157.601562 C 563.9375 233.292969 493.089844 234.140625 406.152344 236.132812 C 369.929688 236.960938 344.605469 264.34375 331.832031 300.460938 Z M 331.832031 300.460938 " clip-rule="nonzero"/></clipPath><clipPath id="cc7536dfe3"><path d="M 733 81 L 1026 81 L 1026 312 L 733 312 Z M 733 81 " clip-rule="nonzero"/></clipPath><clipPath id="9a6f517b93"><path d="M 331.832031 300.460938 C 306.589844 371.832031 340.773438 450.71875 409.273438 483.054688 C 462.09375 507.984375 553.308594 542.808594 677.023438 559.585938 C 881.761719 587.351562 1067.125 518.082031 1117.09375 422.390625 C 1167.058594 326.699219 1155.648438 186.589844 1007.421875 118.953125 C 859.195312 51.3125 644.6875 81.914062 604.3125 157.601562 C 563.9375 233.292969 493.089844 234.140625 406.152344 236.132812 C 369.929688 236.960938 344.605469 264.34375 331.832031 300.460938 Z M 331.832031 300.460938 " clip-rule="nonzero"/></clipPath><clipPath id="88006fe469"><path d="M 749 81 L 1011 81 L 1011 294 L 749 294 Z M 749 81 " clip-rule="nonzero"/></clipPath><clipPath id="798c8f08a7"><path d="M 331.832031 300.460938 C 306.589844 371.832031 340.773438 450.71875 409.273438 483.054688 C 462.09375 507.984375 553.308594 542.808594 677.023438 559.585938 C 881.761719 587.351562 1067.125 518.082031 1117.09375 422.390625 C 1167.058594 326.699219 1155.648438 186.589844 1007.421875 118.953125 C 859.195312 51.3125 644.6875 81.914062 604.3125 157.601562 C 563.9375 233.292969 493.089844 234.140625 406.152344 236.132812 C 369.929688 236.960938 344.605469 264.34375 331.832031 300.460938 Z M 331.832031 300.460938 " clip-rule="nonzero"/></clipPath><clipPath id="62b5336791"><path d="M 872 81 L 888 81 L 888 312 L 872 312 Z M 872 81 " clip-rule="nonzero"/></clipPath><clipPath id="871c7325bd"><path d="M 331.832031 300.460938 C 306.589844 371.832031 340.773438 450.71875 409.273438 483.054688 C 462.09375 507.984375 553.308594 542.808594 677.023438 559.585938 C 881.761719 587.351562 1067.125 518.082031 1117.09375 422.390625 C 1167.058594 326.699219 1155.648438 186.589844 1007.421875 118.953125 C 859.195312 51.3125 644.6875 81.914062 604.3125 157.601562 C 563.9375 233.292969 493.089844 234.140625 406.152344 236.132812 C 369.929688 236.960938 344.605469 264.34375 331.832031 300.460938 Z M 331.832031 300.460938 " clip-rule="nonzero"/></clipPath></defs><rect x="-144" width="1728" fill="#ffffff" y="-80.999999" height="971.999992" fill-opacity="1"/><rect x="-144" width="1728" fill="#ffffff" y="-80.999999" height="971.999992" fill-opacity="1"/><g clip-path="url(#672b9d5e71)"><g clip-path="url(#15a0b18cb9)"><path fill="#ffffff" d="M 56.230469 53.816406 L 1384.140625 53.816406 L 1384.140625 756.183594 L 56.230469 756.183594 Z M 56.230469 53.816406 " fill-opacity="1" fill-rule="nonzero"/></g></g><g clip-path="url(#7d85384076)"><g clip-path="url(#a759da570e)"><path stroke-linecap="butt" transform="matrix(0.75, 0, 0, 0.75, 56.231257, 53.816969)" fill="none" stroke-linejoin="miter" d="M 33.998951 -0.000750723 L 1736.045911 -0.000750723 C 1745.061537 -0.000750723 1753.712579 3.582583 1760.087579 9.957583 C 1766.46258 16.332583 1770.045913 24.983626 1770.045913 33.999251 L 1770.045913 902.48367 C 1770.045913 911.499295 1766.46258 920.150337 1760.087579 926.525338 C 1753.712579 932.900338 1745.061537 936.483671 1736.045911 936.483671 L 33.998951 936.483671 C 24.983325 936.483671 16.332283 932.900338 9.957283 926.525338 C 3.582283 920.150337 -0.00105099 911.499295 -0.00105099 902.48367 L -0.00105099 33.999251 C -0.00105099 24.983626 3.582283 16.332583 9.957283 9.957583 C 16.332283 3.582583 24.983325 -0.000750723 33.998951 -0.000750723 Z M 33.998951 -0.000750723 " stroke="#000000" stroke-width="4" stroke-opacity="1" stroke-miterlimit="4"/></g></g><g clip-path="url(#313240396c)"><g clip-path="url(#865ad8f162)"><path fill="#f4f4fd" d="M 330.09375 55.878906 L 1143.808594 55.878906 L 1143.808594 680.097656 L 330.09375 680.097656 Z M 330.09375 55.878906 " fill-opacity="1" fill-rule="nonzero"/></g></g><g clip-path="url(#73f98edc26)"><g clip-path="url(#3087ccff08)"><path fill="#dad9e7" d="M 425.496094 55.878906 L 510.566406 55.878906 L 510.566406 575.167969 L 425.496094 575.167969 Z M 425.496094 55.878906 " fill-opacity="1" fill-rule="nonzero"/></g></g><g clip-path="url(#80d0a2c778)"><g clip-path="url(#24d5ddd459)"><path fill="#dad9e7" d="M 677.160156 575.167969 L 532.113281 575.167969 L 532.113281 408.722656 L 677.160156 408.722656 Z M 677.160156 575.167969 " fill-opacity="1" fill-rule="nonzero"/></g></g><g clip-path="url(#cc7536dfe3)"><g clip-path="url(#9a6f517b93)"><path fill="#dad9e7" d="M 733.78125 55.878906 L 1025.816406 55.878906 L 1025.816406 311.519531 L 733.78125 311.519531 Z M 733.78125 55.878906 " fill-opacity="1" fill-rule="nonzero"/></g></g><g clip-path="url(#88006fe469)"><g clip-path="url(#798c8f08a7)"><path fill="#dad9e7" d="M 749.117188 55.878906 L 1010.476562 55.878906 L 1010.476562 293.796875 L 749.117188 293.796875 Z M 749.117188 55.878906 " fill-opacity="1" fill-rule="nonzero"/><path fill="#f4f4fd" d="M 749.117188 55.878906 L 1010.476562 55.878906 L 1010.476562 293.796875 L 749.117188 293.796875 Z M 749.117188 55.878906 " fill-opacity="1" fill-rule="nonzero"/></g></g><g clip-path="url(#62b5336791)"><g clip-path="url(#871c7325bd)"><path fill="#dad9e7" d="M 872.128906 55.878906 L 887.464844 55.878906 L 887.464844 311.519531 L 872.128906 311.519531 Z M 872.128906 55.878906 " fill-opacity="1" fill-rule="nonzero"/></g></g><path stroke-linecap="butt" transform="matrix(1.674038, 0, 0, 1.672556, 315.161474, 73.876319)" fill-opacity="1" fill="#ffffff" fill-rule="nonzero" stroke-linejoin="miter" d="M 132.720018 189.942883 L 132.720018 218.33319 C 132.720018 223.015862 128.925861 226.801704 124.252002 226.801704 L 46.831143 226.801704 C 42.154951 226.801704 38.360794 223.015862 38.360794 218.33319 L 38.360794 189.942883 Z M 132.720018 189.942883 " stroke="#1c2e3f" stroke-width="1" stroke-opacity="1" stroke-miterlimit="10"/><path stroke-linecap="butt" transform="matrix(1.674038, 0, 0, 1.672556, 315.161474, 73.876319)" fill-opacity="1" fill="#d25455" fill-rule="nonzero" stroke-linejoin="miter" d="M 132.720018 169.285408 L 132.720018 189.942883 L 38.360794 189.942883 L 38.360794 169.285408 C 38.360794 164.609742 42.154951 160.816894 46.831143 160.816894 L 124.252002 160.816894 C 128.925861 160.816894 132.720018 164.609742 132.720018 169.285408 Z M 132.720018 169.285408 " stroke="#1c2e3f" stroke-width="1" stroke-opacity="1" stroke-miterlimit="10"/><path stroke-linecap="round" transform="matrix(1.674038, 0, 0, 1.672556, 315.161474, 73.876319)" fill="none" stroke-linejoin="round" d="M 60.131692 157.934891 L 60.131692 164.320141 " stroke="#1c2e3f" stroke-width="4" stroke-opacity="1" stroke-miterlimit="4"/><path stroke-linecap="round" transform="matrix(1.674038, 0, 0, 1.672556, 315.161474, 73.876319)" fill="none" stroke-linejoin="round" d="M 110.94912 157.934891 L 110.94912 164.320141 " stroke="#1c2e3f" stroke-width="4" stroke-opacity="1" stroke-miterlimit="4"/><path fill="#1996f2" d="M 409.675781 408.957031 L 421.972656 408.957031 C 422.441406 408.957031 422.890625 409.046875 423.320312 409.222656 C 423.753906 409.402344 424.132812 409.65625 424.464844 409.988281 C 424.792969 410.316406 425.046875 410.699219 425.226562 411.128906 C 425.40625 411.558594 425.496094 412.007812 425.496094 412.476562 C 425.496094 412.941406 425.40625 413.390625 425.226562 413.820312 C 425.046875 414.253906 424.792969 414.632812 424.464844 414.964844 C 424.132812 415.292969 423.753906 415.546875 423.320312 415.726562 C 422.890625 415.90625 422.441406 415.996094 421.972656 415.996094 L 409.675781 415.996094 C 409.207031 415.996094 408.757812 415.90625 408.328125 415.726562 C 407.898438 415.546875 407.515625 415.292969 407.183594 414.964844 C 406.855469 414.632812 406.601562 414.253906 406.421875 413.820312 C 406.242188 413.390625 406.152344 412.941406 406.152344 412.476562 C 406.152344 412.007812 406.242188 411.558594 406.421875 411.128906 C 406.601562 410.699219 406.855469 410.316406 407.183594 409.988281 C 407.515625 409.65625 407.898438 409.402344 408.328125 409.222656 C 408.757812 409.046875 409.207031 408.957031 409.675781 408.957031 Z M 409.675781 408.957031 " fill-opacity="1" fill-rule="nonzero"/><path fill="#1996f2" d="M 409.675781 423.121094 L 421.972656 423.121094 C 422.441406 423.121094 422.890625 423.210938 423.320312 423.390625 C 423.753906 423.570312 424.132812 423.824219 424.464844 424.152344 C 424.792969 424.484375 425.046875 424.863281 425.226562 425.296875 C 425.40625 425.726562 425.496094 426.175781 425.496094 426.640625 C 425.496094 427.109375 425.40625 427.558594 425.226562 427.988281 C 425.046875 428.417969 424.792969 428.800781 424.464844 429.128906 C 424.132812 429.460938 423.753906 429.714844 423.320312 429.894531 C 422.890625 430.070312 422.441406 430.160156 421.972656 430.160156 L 409.675781 430.160156 C 409.207031 430.160156 408.757812 430.070312 408.328125 429.894531 C 407.898438 429.714844 407.515625 429.460938 407.183594 429.128906 C 406.855469 428.800781 406.601562 428.417969 406.421875 427.988281 C 406.242188 427.558594 406.152344 427.109375 406.152344 426.640625 C 406.152344 426.175781 406.242188 425.726562 406.421875 425.296875 C 406.601562 424.863281 406.855469 424.484375 407.183594 424.152344 C 407.515625 423.824219 407.898438 423.570312 408.328125 423.390625 C 408.757812 423.210938 409.207031 423.121094 409.675781 423.121094 Z M 409.675781 423.121094 " fill-opacity="1" fill-rule="nonzero"/><path fill="#1996f2" d="M 452.210938 408.957031 L 464.507812 408.957031 C 464.976562 408.957031 465.425781 409.046875 465.855469 409.222656 C 466.289062 409.402344 466.667969 409.65625 467 409.988281 C 467.328125 410.316406 467.585938 410.699219 467.761719 411.128906 C 467.941406 411.558594 468.03125 412.007812 468.03125 412.476562 C 468.03125 412.941406 467.941406 413.390625 467.761719 413.820312 C 467.585938 414.253906 467.328125 414.632812 467 414.964844 C 466.667969 415.292969 466.289062 415.546875 465.855469 415.726562 C 465.425781 415.90625 464.976562 415.996094 464.507812 415.996094 L 452.210938 415.996094 C 451.746094 415.996094 451.296875 415.90625 450.863281 415.726562 C 450.433594 415.546875 450.050781 415.292969 449.722656 414.964844 C 449.390625 414.632812 449.136719 414.253906 448.957031 413.820312 C 448.777344 413.390625 448.6875 412.941406 448.6875 412.476562 C 448.6875 412.007812 448.777344 411.558594 448.957031 411.128906 C 449.136719 410.699219 449.390625 410.316406 449.722656 409.988281 C 450.050781 409.65625 450.433594 409.402344 450.863281 409.222656 C 451.296875 409.046875 451.746094 408.957031 452.210938 408.957031 Z M 452.210938 408.957031 " fill-opacity="1" fill-rule="nonzero"/><path fill="#1996f2" d="M 452.210938 423.121094 L 464.507812 423.121094 C 464.976562 423.121094 465.425781 423.210938 465.855469 423.390625 C 466.289062 423.570312 466.667969 423.824219 467 424.152344 C 467.328125 424.484375 467.585938 424.863281 467.761719 425.296875 C 467.941406 425.726562 468.03125 426.175781 468.03125 426.640625 C 468.03125 427.109375 467.941406 427.558594 467.761719 427.988281 C 467.585938 428.417969 467.328125 428.800781 467 429.128906 C 466.667969 429.460938 466.289062 429.714844 465.855469 429.894531 C 465.425781 430.070312 464.976562 430.160156 464.507812 430.160156 L 452.210938 430.160156 C 451.746094 430.160156 451.296875 430.070312 450.863281 429.894531 C 450.433594 429.714844 450.050781 429.460938 449.722656 429.128906 C 449.390625 428.800781 449.136719 428.417969 448.957031 427.988281 C 448.777344 427.558594 448.6875 427.109375 448.6875 426.640625 C 448.6875 426.175781 448.777344 425.726562 448.957031 425.296875 C 449.136719 424.863281 449.390625 424.484375 449.722656 424.152344 C 450.050781 423.824219 450.433594 423.570312 450.863281 423.390625 C 451.296875 423.210938 451.746094 423.121094 452.210938 423.121094 Z M 452.210938 423.121094 " fill-opacity="1" fill-rule="nonzero"/><path fill="#1996f2" d="M 494.746094 408.957031 L 507.042969 408.957031 C 507.511719 408.957031 507.960938 409.046875 508.394531 409.222656 C 508.824219 409.402344 509.203125 409.65625 509.535156 409.988281 C 509.867188 410.316406 510.121094 410.699219 510.296875 411.128906 C 510.476562 411.558594 510.566406 412.007812 510.566406 412.476562 C 510.566406 412.941406 510.476562 413.390625 510.296875 413.820312 C 510.121094 414.253906 509.867188 414.632812 509.535156 414.964844 C 509.203125 415.292969 508.824219 415.546875 508.394531 415.726562 C 507.960938 415.90625 507.511719 415.996094 507.042969 415.996094 L 494.746094 415.996094 C 494.28125 415.996094 493.832031 415.90625 493.398438 415.726562 C 492.96875 415.546875 492.585938 415.292969 492.257812 414.964844 C 491.925781 414.632812 491.671875 414.253906 491.492188 413.820312 C 491.3125 413.390625 491.226562 412.941406 491.226562 412.476562 C 491.226562 412.007812 491.3125 411.558594 491.492188 411.128906 C 491.671875 410.699219 491.925781 410.316406 492.257812 409.988281 C 492.585938 409.65625 492.96875 409.402344 493.398438 409.222656 C 493.832031 409.046875 494.28125 408.957031 494.746094 408.957031 Z M 494.746094 408.957031 " fill-opacity="1" fill-rule="nonzero"/><path fill="#1996f2" d="M 494.746094 423.121094 L 507.042969 423.121094 C 507.511719 423.121094 507.960938 423.210938 508.394531 423.390625 C 508.824219 423.570312 509.203125 423.824219 509.535156 424.152344 C 509.867188 424.484375 510.121094 424.863281 510.296875 425.296875 C 510.476562 425.726562 510.566406 426.175781 510.566406 426.640625 C 510.566406 427.109375 510.476562 427.558594 510.296875 427.988281 C 510.121094 428.417969 509.867188 428.800781 509.535156 429.128906 C 509.203125 429.460938 508.824219 429.714844 508.394531 429.894531 C 507.960938 430.070312 507.511719 430.160156 507.042969 430.160156 L 494.746094 430.160156 C 494.28125 430.160156 493.832031 430.070312 493.398438 429.894531 C 492.96875 429.714844 492.585938 429.460938 492.257812 429.128906 C 491.925781 428.800781 491.671875 428.417969 491.492188 427.988281 C 491.3125 427.558594 491.226562 427.109375 491.226562 426.640625 C 491.226562 426.175781 491.3125 425.726562 491.492188 425.296875 C 491.671875 424.863281 491.925781 424.484375 492.257812 424.152344 C 492.585938 423.824219 492.96875 423.570312 493.398438 423.390625 C 493.832031 423.210938 494.28125 423.121094 494.746094 423.121094 Z M 494.746094 423.121094 " fill-opacity="1" fill-rule="nonzero"/><path stroke-linecap="round" transform="matrix(1.674038, 0, 0, 1.672556, 315.161474, 73.876319)" fill="none" stroke-linejoin="round" d="M 87.41415 232.469956 C 87.41415 232.469956 88.422191 247.979995 103.827493 246.482941 " stroke="#1c2e3f" stroke-width="1" stroke-opacity="1" stroke-miterlimit="4"/><path stroke-linecap="round" transform="matrix(1.674038, 0, 0, 1.672556, 315.161474, 73.876319)" fill="none" stroke-linejoin="round" d="M 97.408229 151.302078 C 97.408229 151.302078 101.260721 135.647238 113.028206 132.865661 " stroke="#1c2e3f" stroke-width="1" stroke-opacity="1" stroke-miterlimit="4"/><path stroke-linecap="butt" transform="matrix(1.674038, 0, 0, 1.672556, 315.161474, 73.876319)" fill-opacity="1" fill="#ffffff" fill-rule="nonzero" stroke-linejoin="miter" d="M 185.32952 80.102103 L 185.32952 109.664829 C 185.32952 113.700569 182.055718 116.974936 178.021219 116.974936 L 93.856749 116.974936 C 89.822249 116.974936 86.548447 113.700569 86.548447 109.664829 L 86.548447 80.102103 Z M 185.32952 80.102103 " stroke="#1c2e3f" stroke-width="1" stroke-opacity="1" stroke-miterlimit="10"/><path fill="#d25455" d="M 480.527344 222.015625 L 491.136719 222.015625 C 491.539062 222.015625 491.925781 222.089844 492.300781 222.246094 C 492.671875 222.398438 493 222.621094 493.285156 222.902344 C 493.570312 223.1875 493.789062 223.515625 493.945312 223.890625 C 494.097656 224.261719 494.175781 224.648438 494.175781 225.050781 C 494.175781 225.453125 494.097656 225.839844 493.945312 226.214844 C 493.789062 226.585938 493.570312 226.914062 493.285156 227.199219 C 493 227.484375 492.671875 227.703125 492.300781 227.855469 C 491.925781 228.011719 491.539062 228.085938 491.136719 228.085938 L 480.527344 228.085938 C 480.125 228.085938 479.734375 228.011719 479.363281 227.855469 C 478.992188 227.703125 478.660156 227.484375 478.375 227.199219 C 478.089844 226.914062 477.871094 226.585938 477.71875 226.214844 C 477.5625 225.839844 477.484375 225.453125 477.484375 225.050781 C 477.484375 224.648438 477.5625 224.261719 477.71875 223.890625 C 477.871094 223.515625 478.089844 223.1875 478.375 222.902344 C 478.660156 222.621094 478.992188 222.398438 479.363281 222.246094 C 479.734375 222.089844 480.125 222.015625 480.527344 222.015625 Z M 480.527344 222.015625 " fill-opacity="1" fill-rule="nonzero"/><path fill="#d25455" d="M 480.527344 234.238281 L 491.136719 234.238281 C 491.539062 234.238281 491.925781 234.316406 492.300781 234.46875 C 492.671875 234.625 493 234.84375 493.285156 235.128906 C 493.570312 235.414062 493.789062 235.742188 493.945312 236.113281 C 494.097656 236.484375 494.175781 236.875 494.175781 237.277344 C 494.175781 237.679688 494.097656 238.066406 493.945312 238.4375 C 493.789062 238.808594 493.570312 239.136719 493.285156 239.421875 C 493 239.707031 492.671875 239.925781 492.300781 240.082031 C 491.925781 240.234375 491.539062 240.3125 491.136719 240.3125 L 480.527344 240.3125 C 480.125 240.3125 479.734375 240.234375 479.363281 240.082031 C 478.992188 239.925781 478.660156 239.707031 478.375 239.421875 C 478.089844 239.136719 477.871094 238.808594 477.71875 238.4375 C 477.5625 238.066406 477.484375 237.679688 477.484375 237.277344 C 477.484375 236.875 477.5625 236.484375 477.71875 236.113281 C 477.871094 235.742188 478.089844 235.414062 478.375 235.128906 C 478.660156 234.84375 478.992188 234.625 479.363281 234.46875 C 479.734375 234.316406 480.125 234.238281 480.527344 234.238281 Z M 480.527344 234.238281 " fill-opacity="1" fill-rule="nonzero"/><path fill="#d25455" d="M 480.527344 246.460938 L 491.136719 246.460938 C 491.539062 246.460938 491.925781 246.539062 492.300781 246.695312 C 492.671875 246.847656 493 247.066406 493.285156 247.351562 C 493.570312 247.636719 493.789062 247.964844 493.945312 248.335938 C 494.097656 248.707031 494.175781 249.097656 494.175781 249.5 C 494.175781 249.902344 494.097656 250.289062 493.945312 250.660156 C 493.789062 251.03125 493.570312 251.359375 493.285156 251.644531 C 493 251.929688 492.671875 252.148438 492.300781 252.304688 C 491.925781 252.457031 491.539062 252.535156 491.136719 252.535156 L 480.527344 252.535156 C 480.125 252.535156 479.734375 252.457031 479.363281 252.304688 C 478.992188 252.148438 478.660156 251.929688 478.375 251.644531 C 478.089844 251.359375 477.871094 251.03125 477.71875 250.660156 C 477.5625 250.289062 477.484375 249.902344 477.484375 249.5 C 477.484375 249.097656 477.5625 248.707031 477.71875 248.335938 C 477.871094 247.964844 478.089844 247.636719 478.375 247.351562 C 478.660156 247.066406 478.992188 246.847656 479.363281 246.695312 C 479.734375 246.539062 480.125 246.460938 480.527344 246.460938 Z M 480.527344 246.460938 " fill-opacity="1" fill-rule="nonzero"/><path stroke-linecap="butt" transform="matrix(1.674038, 0, 0, 1.672556, 315.161474, 73.876319)" fill-opacity="1" fill="#1996f2" fill-rule="nonzero" stroke-linejoin="miter" d="M 185.32952 67.838405 L 185.32952 80.102103 L 86.548447 80.102103 L 86.548447 67.838405 C 86.548447 63.805001 89.822249 60.530634 93.856749 60.530634 L 178.021219 60.530634 C 182.055718 60.530634 185.32952 63.805001 185.32952 67.838405 Z M 185.32952 67.838405 " stroke="#1c2e3f" stroke-width="1" stroke-opacity="1" stroke-miterlimit="10"/><path fill="#d25455" d="M 527.742188 228.085938 L 547.589844 228.085938 L 547.589844 252.535156 L 527.742188 252.535156 Z M 527.742188 228.085938 " fill-opacity="1" fill-rule="nonzero"/><path fill="#d25455" d="M 553.417969 222.015625 L 573.265625 222.015625 L 573.265625 252.535156 L 553.417969 252.535156 Z M 553.417969 222.015625 " fill-opacity="1" fill-rule="nonzero"/><path fill="#d25455" d="M 578.625 222.015625 L 598.472656 222.015625 L 598.472656 252.535156 L 578.625 252.535156 Z M 578.625 222.015625 " fill-opacity="1" fill-rule="nonzero"/><path fill="#ffcd5c" d="M 918.835938 217.457031 L 994.796875 217.457031 C 995.566406 217.457031 996.328125 217.535156 997.082031 217.683594 C 997.839844 217.832031 998.570312 218.054688 999.28125 218.351562 C 999.992188 218.644531 1000.667969 219.003906 1001.308594 219.433594 C 1001.949219 219.859375 1002.539062 220.34375 1003.082031 220.886719 C 1003.628906 221.429688 1004.113281 222.023438 1004.539062 222.660156 C 1004.96875 223.300781 1005.328125 223.976562 1005.625 224.6875 C 1005.917969 225.394531 1006.140625 226.128906 1006.289062 226.882812 C 1006.441406 227.636719 1006.515625 228.398438 1006.515625 229.167969 L 1006.515625 260.238281 C 1006.515625 261.007812 1006.441406 261.769531 1006.289062 262.523438 C 1006.140625 263.277344 1005.917969 264.007812 1005.625 264.71875 C 1005.328125 265.429688 1004.96875 266.101562 1004.539062 266.742188 C 1004.113281 267.382812 1003.628906 267.972656 1003.082031 268.515625 C 1002.539062 269.058594 1001.949219 269.546875 1001.308594 269.972656 C 1000.667969 270.398438 999.992188 270.761719 999.28125 271.054688 C 998.570312 271.347656 997.839844 271.570312 997.082031 271.71875 C 996.328125 271.871094 995.566406 271.945312 994.796875 271.945312 L 918.835938 271.945312 C 918.066406 271.945312 917.304688 271.871094 916.550781 271.71875 C 915.796875 271.570312 915.0625 271.347656 914.351562 271.054688 C 913.640625 270.761719 912.964844 270.398438 912.324219 269.972656 C 911.6875 269.546875 911.09375 269.058594 910.550781 268.515625 C 910.007812 267.972656 909.519531 267.382812 909.09375 266.742188 C 908.664062 266.101562 908.304688 265.429688 908.011719 264.71875 C 907.714844 264.007812 907.492188 263.277344 907.34375 262.523438 C 907.191406 261.769531 907.117188 261.007812 907.117188 260.238281 L 907.117188 229.167969 C 907.117188 228.398438 907.191406 227.636719 907.34375 226.882812 C 907.492188 226.128906 907.714844 225.394531 908.011719 224.6875 C 908.304688 223.976562 908.664062 223.300781 909.09375 222.660156 C 909.519531 222.023438 910.007812 221.429688 910.550781 220.886719 C 911.09375 220.34375 911.6875 219.859375 912.324219 219.433594 C 912.964844 219.003906 913.640625 218.644531 914.351562 218.351562 C 915.0625 218.054688 915.796875 217.832031 916.550781 217.683594 C 917.304688 217.535156 918.066406 217.457031 918.835938 217.457031 Z M 918.835938 217.457031 " fill-opacity="1" fill-rule="nonzero"/><path stroke-linecap="round" transform="matrix(1.674038, 0, 0, 1.672556, 315.161474, 73.876319)" fill="none" stroke-linejoin="round" d="M 357.844632 90.079348 L 383.297682 106.831871 L 408.750731 90.079348 " stroke="#1c2e3f" stroke-width="1" stroke-opacity="1" stroke-miterlimit="4"/><path stroke-linecap="round" transform="matrix(1.674038, 0, 0, 1.672556, 315.161474, 73.876319)" fill="none" stroke-linejoin="round" d="M 392.6314 104.139042 L 399.372678 111.3604 " stroke="#1c2e3f" stroke-width="1" stroke-opacity="1" stroke-miterlimit="4"/><path stroke-linecap="round" transform="matrix(1.674038, 0, 0, 1.672556, 315.161474, 73.876319)" fill="none" stroke-linejoin="round" d="M 373.963964 104.139042 L 367.222686 111.3604 " stroke="#1c2e3f" stroke-width="1" stroke-opacity="1" stroke-miterlimit="4"/><path stroke-linecap="butt" transform="matrix(1.674038, 0, 0, 1.672556, 315.161474, 73.876319)" fill-opacity="1" fill="#1996f2" fill-rule="nonzero" stroke-linejoin="miter" d="M 403.519182 152.362394 L 461.733582 152.362394 C 462.193268 152.362394 462.648286 152.406768 463.098638 152.497853 C 463.551324 152.586601 463.987675 152.719725 464.412359 152.894887 C 464.837043 153.072385 465.240727 153.287251 465.623409 153.54182 C 466.006092 153.798725 466.358439 154.088326 466.682786 154.41296 C 467.009466 154.737595 467.298811 155.09259 467.553155 155.473276 C 467.809833 155.856298 468.024508 156.260339 468.201849 156.683064 C 468.376856 157.108124 468.509861 157.547198 468.598532 157.997949 C 468.689535 158.4487 468.733871 158.904122 468.733871 159.36188 L 468.733871 191.26711 C 468.733871 191.727203 468.689535 192.182625 468.598532 192.633376 C 468.509861 193.084127 468.376856 193.523201 468.201849 193.945926 C 468.024508 194.370986 467.809833 194.775027 467.553155 195.158049 C 467.298811 195.538735 467.009466 195.893731 466.682786 196.218365 C 466.358439 196.542999 466.006092 196.832601 465.623409 197.08717 C 465.240727 197.344075 464.837043 197.55894 464.412359 197.734103 C 463.987675 197.9116 463.551324 198.044724 463.098638 198.133473 C 462.648286 198.222222 462.193268 198.268932 461.733582 198.268932 L 403.519182 198.268932 C 403.059496 198.268932 402.604478 198.222222 402.154126 198.133473 C 401.70144 198.044724 401.265089 197.9116 400.840405 197.734103 C 400.415721 197.55894 400.012037 197.344075 399.629355 197.08717 C 399.249006 196.832601 398.894325 196.542999 398.569978 196.218365 C 398.243298 195.893731 397.953953 195.538735 397.699609 195.158049 C 397.442932 194.775027 397.228256 194.370986 397.050915 193.945926 C 396.875908 193.523201 396.742903 193.084127 396.654232 192.633376 C 396.563229 192.182625 396.518893 191.727203 396.518893 191.26711 L 396.518893 159.36188 C 396.518893 158.904122 396.563229 158.4487 396.654232 157.997949 C 396.742903 157.547198 396.875908 157.108124 397.050915 156.683064 C 397.228256 156.260339 397.442932 155.856298 397.699609 155.473276 C 397.953953 155.09259 398.243298 154.737595 398.569978 154.41296 C 398.894325 154.088326 399.246673 153.798725 399.629355 153.54182 C 400.012037 153.287251 400.415721 153.072385 400.840405 152.894887 C 401.265089 152.719725 401.70144 152.586601 402.154126 152.497853 C 402.604478 152.406768 403.059496 152.362394 403.519182 152.362394 Z M 403.519182 152.362394 " stroke="#1c2e3f" stroke-width="1" stroke-opacity="1" stroke-miterlimit="10"/><path fill="#ffffff" d="M 1033.054688 355.210938 L 1030 355.210938 C 1029.820312 354.691406 1029.609375 354.183594 1029.367188 353.695312 L 1031.53125 351.535156 C 1032.636719 350.429688 1032.636719 348.632812 1031.53125 347.527344 L 1029.507812 345.507812 C 1028.402344 344.402344 1026.605469 344.402344 1025.5 345.507812 L 1023.335938 347.667969 C 1022.847656 347.429688 1022.339844 347.21875 1021.820312 347.039062 L 1021.820312 343.984375 C 1021.820312 342.421875 1020.550781 341.152344 1018.984375 341.152344 L 1016.125 341.152344 C 1014.558594 341.152344 1013.289062 342.421875 1013.289062 343.984375 L 1013.289062 347.039062 C 1012.769531 347.21875 1012.265625 347.429688 1011.773438 347.667969 L 1009.609375 345.507812 C 1008.503906 344.402344 1006.707031 344.402344 1005.601562 345.507812 L 1003.578125 347.527344 C 1002.472656 348.632812 1002.472656 350.429688 1003.578125 351.535156 L 1005.742188 353.695312 C 1005.503906 354.183594 1005.289062 354.691406 1005.109375 355.210938 L 1002.054688 355.210938 C 1000.488281 355.210938 999.21875 356.480469 999.21875 358.042969 L 999.21875 360.898438 C 999.21875 362.464844 1000.488281 363.734375 1002.054688 363.734375 L 1005.109375 363.734375 C 1005.289062 364.253906 1005.503906 364.757812 1005.742188 365.246094 L 1003.578125 367.410156 C 1002.472656 368.515625 1002.472656 370.308594 1003.578125 371.414062 L 1005.601562 373.433594 C 1006.707031 374.542969 1008.503906 374.542969 1009.609375 373.433594 L 1011.773438 371.273438 C 1012.265625 371.515625 1012.769531 371.726562 1013.289062 371.90625 L 1013.289062 374.957031 C 1013.289062 376.523438 1014.558594 377.789062 1016.125 377.789062 L 1018.984375 377.789062 C 1020.550781 377.789062 1021.820312 376.523438 1021.820312 374.957031 L 1021.820312 371.90625 C 1022.339844 371.726562 1022.847656 371.515625 1023.335938 371.273438 L 1025.5 373.433594 C 1026.605469 374.542969 1028.402344 374.542969 1029.507812 373.433594 L 1031.53125 371.414062 C 1032.636719 370.308594 1032.636719 368.515625 1031.53125 367.410156 L 1029.367188 365.246094 C 1029.609375 364.757812 1029.820312 364.253906 1030 363.734375 L 1033.054688 363.734375 C 1034.621094 363.734375 1035.890625 362.464844 1035.890625 360.898438 L 1035.890625 358.042969 C 1035.890625 356.480469 1034.621094 355.210938 1033.054688 355.210938 Z M 1017.554688 366.761719 C 1013.523438 366.761719 1010.257812 363.5 1010.257812 359.472656 C 1010.257812 355.445312 1013.523438 352.179688 1017.554688 352.179688 C 1021.585938 352.179688 1024.851562 355.445312 1024.851562 359.472656 C 1024.851562 363.5 1021.585938 366.761719 1017.554688 366.761719 Z M 1017.554688 366.761719 " fill-opacity="1" fill-rule="nonzero"/><path fill="#ffffff" d="M 1076.078125 365.253906 L 1072.316406 365.253906 C 1072.097656 364.613281 1071.835938 363.992188 1071.539062 363.386719 L 1074.203125 360.726562 C 1075.566406 359.367188 1075.566406 357.15625 1074.203125 355.796875 L 1071.714844 353.308594 C 1070.351562 351.949219 1068.140625 351.949219 1066.777344 353.308594 L 1064.113281 355.96875 C 1063.511719 355.675781 1062.890625 355.414062 1062.246094 355.195312 L 1062.246094 351.433594 C 1062.246094 349.507812 1060.683594 347.945312 1058.757812 347.945312 L 1055.238281 347.945312 C 1053.308594 347.945312 1051.746094 349.507812 1051.746094 351.433594 L 1051.746094 355.195312 C 1051.105469 355.414062 1050.484375 355.675781 1049.878906 355.96875 L 1047.21875 353.308594 C 1045.855469 351.949219 1043.644531 351.949219 1042.28125 353.308594 L 1039.792969 355.796875 C 1038.429688 357.15625 1038.429688 359.367188 1039.792969 360.726562 L 1042.453125 363.386719 C 1042.160156 363.992188 1041.898438 364.613281 1041.679688 365.253906 L 1037.914062 365.253906 C 1035.988281 365.253906 1034.425781 366.816406 1034.425781 368.742188 L 1034.425781 372.257812 C 1034.425781 374.183594 1035.988281 375.746094 1037.914062 375.746094 L 1041.679688 375.746094 C 1041.898438 376.386719 1042.160156 377.007812 1042.453125 377.609375 L 1039.792969 380.269531 C 1038.429688 381.632812 1038.429688 383.839844 1039.792969 385.203125 L 1042.28125 387.6875 C 1043.644531 389.050781 1045.855469 389.050781 1047.21875 387.6875 L 1049.878906 385.027344 C 1050.484375 385.324219 1051.105469 385.585938 1051.746094 385.804688 L 1051.746094 389.5625 C 1051.746094 391.488281 1053.308594 393.050781 1055.238281 393.050781 L 1058.757812 393.050781 C 1060.683594 393.050781 1062.246094 391.488281 1062.246094 389.5625 L 1062.246094 385.804688 C 1062.890625 385.585938 1063.511719 385.324219 1064.113281 385.027344 L 1066.777344 387.6875 C 1068.140625 389.050781 1070.351562 389.050781 1071.714844 387.6875 L 1074.203125 385.203125 C 1075.566406 383.839844 1075.566406 381.632812 1074.203125 380.269531 L 1071.539062 377.609375 C 1071.835938 377.007812 1072.097656 376.386719 1072.316406 375.746094 L 1076.078125 375.746094 C 1078.007812 375.746094 1079.570312 374.183594 1079.570312 372.257812 L 1079.570312 368.742188 C 1079.570312 366.816406 1078.007812 365.253906 1076.078125 365.253906 Z M 1056.996094 379.476562 C 1052.035156 379.476562 1048.011719 375.457031 1048.011719 370.5 C 1048.011719 365.542969 1052.035156 361.523438 1056.996094 361.523438 C 1061.960938 361.523438 1065.980469 365.542969 1065.980469 370.5 C 1065.980469 375.457031 1061.960938 379.476562 1056.996094 379.476562 Z M 1056.996094 379.476562 " fill-opacity="1" fill-rule="nonzero"/><path stroke-linecap="round" transform="matrix(1.674038, 0, 0, 1.672556, 315.161474, 73.876319)" fill="none" stroke-linejoin="round" d="M 404.158542 125.648974 C 404.158542 125.648974 418.740143 128.610385 417.886108 144.204501 " stroke="#1c2e3f" stroke-width="1" stroke-opacity="1" stroke-miterlimit="4"/><path stroke-linecap="round" transform="matrix(1.674038, 0, 0, 1.672556, 315.161474, 73.876319)" fill="none" stroke-linejoin="round" d="M 436.079858 208.372293 C 436.079858 208.372293 435.050815 220.379086 421.143575 224.230321 " stroke="#1c2e3f" stroke-width="1" stroke-opacity="1" stroke-miterlimit="4"/><path fill="#1c2e3f" d="M 843.40625 352.179688 L 913.78125 352.179688 C 943.917969 352.179688 968.382812 376.625 968.382812 406.734375 L 968.382812 587.351562 L 791.210938 587.351562 L 791.210938 404.328125 C 791.210938 375.546875 814.601562 352.179688 843.40625 352.179688 Z M 843.40625 352.179688 " fill-opacity="1" fill-rule="nonzero"/><path fill="#1c2e3f" d="M 695.808594 294.871094 C 691.523438 283.902344 684.953125 254.605469 684.71875 242.832031 C 684.328125 223.320312 691.03125 198.40625 708.898438 184.289062 C 738.449219 160.9375 787.277344 158.253906 818.234375 190.996094 C 849.191406 223.742188 836.234375 274.203125 849.398438 286.417969 C 862.5625 298.628906 891.039062 329.226562 881.636719 345.867188 C 881.636719 345.867188 808.027344 424.332031 738.3125 407.511719 C 668.601562 390.691406 667.703125 354.546875 690.359375 343.453125 C 711.035156 333.328125 711.4375 334.898438 695.808594 294.871094 Z M 695.808594 294.871094 " fill-opacity="1" fill-rule="nonzero"/><path fill="#1996f2" d="M 932.382812 519.597656 C 933.089844 535.207031 940.136719 547.304688 951.820312 551.996094 C 932.949219 557.691406 911.425781 557.164062 911.425781 557.164062 L 911.425781 587.351562 L 705.113281 587.351562 C 729.644531 561.542969 711.296875 459.476562 711.296875 459.476562 C 638.488281 572.734375 592.820312 558.78125 565.953125 510.476562 C 556.496094 493.460938 551.761719 478.515625 549.589844 466.292969 C 586.527344 488.390625 599.9375 467.992188 604.335938 456.460938 L 616.1875 469.140625 C 616.1875 469.140625 677.636719 372.003906 694.097656 357.878906 C 710.558594 343.757812 736.136719 353.175781 736.136719 353.175781 L 795.914062 366.238281 C 795.914062 366.238281 809.339844 385.929688 820.625 377.78125 C 831.914062 369.652344 843.199219 324.730469 881.324219 341.914062 C 914.316406 356.773438 964.636719 457.621094 976.902344 506.453125 L 954.953125 494.367188 C 954.953125 494.367188 931.304688 495.96875 932.378906 519.597656 Z M 932.382812 519.597656 " fill-opacity="1" fill-rule="nonzero"/><path stroke-linecap="round" transform="matrix(1.674038, 0, 0, 1.672556, 315.161474, 73.876319)" fill="none" stroke-linejoin="round" d="M 179.820293 236.321191 L 188.061966 244.771021 " stroke="#1c2e3f" stroke-width="1" stroke-opacity="1" stroke-miterlimit="4"/><path stroke-linecap="round" transform="matrix(1.674038, 0, 0, 1.672556, 315.161474, 73.876319)" fill="none" stroke-linejoin="round" d="M 356.18323 288.951626 C 356.18323 288.951626 345.916141 210.446215 323.769561 190.164755 " stroke="#1c2e3f" stroke-width="1" stroke-opacity="1" stroke-miterlimit="4"/><path stroke-linecap="round" transform="matrix(1.674038, 0, 0, 1.672556, 315.161474, 73.876319)" fill="none" stroke-linejoin="round" d="M 231.900107 180.152478 L 238.940064 192.028482 C 238.940064 192.028482 229.410337 196.199681 228.530634 207.433424 C 227.520259 220.337047 236.629968 227.65416 236.629968 227.65416 " stroke="#1c2e3f" stroke-width="1" stroke-opacity="1" stroke-miterlimit="4"/><path stroke-linecap="round" transform="matrix(1.674038, 0, 0, 1.672556, 315.161474, 73.876319)" fill="none" stroke-linejoin="round" d="M 366.912339 254.773957 C 366.912339 254.773957 359.821047 254.72024 357.531953 268.632799 " stroke="#1c2e3f" stroke-width="1" stroke-opacity="1" stroke-miterlimit="4"/><path fill="#ffc5bd" d="M 802.09375 297.09375 C 797.914062 305.15625 787.152344 328.300781 789.492188 348.699219 L 768.875 366.238281 L 739.640625 347.285156 L 739.640625 319.363281 L 802.09375 291.1875 Z M 802.09375 297.09375 " fill-opacity="1" fill-rule="nonzero"/><path fill="#ffffff" d="M 797.316406 368.035156 L 794.539062 372.667969 C 791.09375 378.40625 783.253906 379.523438 778.347656 374.992188 L 768.875 366.238281 L 759.746094 374.59375 C 754.667969 379.242188 746.558594 377.855469 743.324219 371.761719 L 731.445312 349.421875 L 739.640625 347.285156 L 768.507812 360.882812 L 789.292969 346.703125 C 789.804688 353.699219 791.746094 360.445312 795.914062 366.238281 C 796.382812 366.890625 796.847656 367.5 797.316406 368.035156 Z M 797.316406 368.035156 " fill-opacity="1" fill-rule="nonzero"/><path fill="#ffc5bd" d="M 703.304688 267.859375 C 703.304688 267.859375 698.738281 260.3125 690.949219 261.925781 C 683.15625 263.535156 683.695312 285.8125 693.636719 293.328125 C 703.574219 300.84375 712.707031 297.355469 712.707031 297.355469 Z M 703.304688 267.859375 " fill-opacity="1" fill-rule="nonzero"/><path stroke-linecap="round" transform="matrix(1.674038, 0, 0, 1.672556, 315.161474, 73.876319)" fill="none" stroke-linejoin="round" d="M 223.677101 119.331453 C 223.677101 119.331453 230.906066 115.758142 232.747142 127.494017 " stroke="#1c2e3f" stroke-width="1" stroke-opacity="1" stroke-miterlimit="4"/><path stroke-linecap="round" transform="matrix(1.674038, 0, 0, 1.672556, 315.161474, 73.876319)" fill="none" stroke-linejoin="round" d="M 229.377669 122.220464 L 227.20758 127.494017 L 230.257372 129.075149 " stroke="#1c2e3f" stroke-width="1" stroke-opacity="1" stroke-miterlimit="4"/><path fill="#ffc5bd" d="M 730.632812 208.78125 C 730.632812 208.78125 700.542969 229.984375 699.203125 260.3125 C 699.203125 260.3125 701.074219 314.824219 730.632812 325 C 762.601562 336.003906 801.285156 296.546875 801.285156 296.546875 C 801.285156 296.546875 821.53125 296.734375 827.078125 283.933594 C 834.867188 265.949219 815.523438 249.847656 802.09375 265.949219 C 802.09375 265.949219 745.140625 255.75 730.632812 208.78125 Z M 730.632812 208.78125 " fill-opacity="1" fill-rule="nonzero"/><path stroke-linecap="round" transform="matrix(1.674038, 0, 0, 1.672556, 315.161474, 73.876319)" fill="none" stroke-linejoin="round" d="M 256.690462 151.26471 C 273.516822 150.358537 290.389851 133.131908 290.389851 133.131908 " stroke="#1c2e3f" stroke-width="1" stroke-opacity="1" stroke-miterlimit="4"/><path stroke-linecap="round" transform="matrix(1.674038, 0, 0, 1.672556, 315.161474, 73.876319)" fill="none" stroke-linejoin="round" d="M 259.579248 137.144292 C 259.579248 137.144292 265.195813 140.353266 272.578784 132.973094 " stroke="#1c2e3f" stroke-width="1" stroke-opacity="1" stroke-miterlimit="4"/><path stroke-linecap="round" transform="matrix(1.674038, 0, 0, 1.672556, 315.161474, 73.876319)" fill="none" stroke-linejoin="round" d="M 291.834244 129.922934 C 291.834244 129.922934 292.958957 117.612527 298.895202 115.980014 C 304.83378 114.347502 303.067374 122.951474 303.067374 122.951474 " stroke="#1c2e3f" stroke-width="1" stroke-opacity="1" stroke-miterlimit="4"/><path stroke-linecap="round" transform="matrix(1.674038, 0, 0, 1.672556, 315.161474, 73.876319)" fill="none" stroke-linejoin="round" d="M 296.809116 119.331453 L 299.217215 125.109474 L 294.40335 128.157298 " stroke="#1c2e3f" stroke-width="1" stroke-opacity="1" stroke-miterlimit="4"/><path stroke-linecap="round" transform="matrix(1.674038, 0, 0, 1.672556, 315.161474, 73.876319)" fill="none" stroke-linejoin="round" d="M 250.432204 119.331453 L 248.665798 132.973094 L 254.282363 131.368607 " stroke="#1c2e3f" stroke-width="1" stroke-opacity="1" stroke-miterlimit="4"/><path stroke-linecap="round" transform="matrix(1.674038, 0, 0, 1.672556, 315.161474, 73.876319)" fill="none" stroke-linejoin="round" d="M 277.873335 118.486003 C 277.873335 118.831657 277.857001 119.17731 277.822 119.522964 C 277.786998 119.868618 277.737996 120.211936 277.670327 120.550583 C 277.602657 120.891566 277.518654 121.227877 277.415983 121.559518 C 277.315646 121.891158 277.198974 122.218128 277.065969 122.538091 C 276.932963 122.858054 276.785957 123.171011 276.622617 123.476961 C 276.459277 123.782911 276.281936 124.07952 276.088262 124.369121 C 275.894587 124.656387 275.689245 124.936647 275.469903 125.202894 C 275.248227 125.471476 275.017218 125.728381 274.769874 125.973608 C 274.524864 126.218835 274.268187 126.452385 273.999842 126.671922 C 273.733831 126.891458 273.45382 127.099318 273.166808 127.290829 C 272.877463 127.484675 272.581117 127.662173 272.275438 127.825657 C 271.969759 127.989142 271.654746 128.136279 271.335066 128.269402 C 271.015386 128.402525 270.688706 128.5193 270.357359 128.619727 C 270.023678 128.720153 269.687664 128.804231 269.349317 128.87196 C 269.008637 128.93969 268.665622 128.991071 268.320275 129.026103 C 267.974927 129.0588 267.62958 129.075149 267.281899 129.075149 C 266.934218 129.075149 266.58887 129.0588 266.243523 129.026103 C 265.898175 128.991071 265.555161 128.93969 265.216814 128.87196 C 264.876133 128.804231 264.540119 128.720153 264.208772 128.619727 C 263.875092 128.5193 263.548411 128.402525 263.228732 128.269402 C 262.909052 128.136279 262.596372 127.989142 262.288359 127.825657 C 261.98268 127.662173 261.686335 127.484675 261.396989 127.290829 C 261.109978 127.099318 260.832299 126.891458 260.563955 126.671922 C 260.295611 126.452385 260.038933 126.218835 259.793923 125.973608 C 259.548913 125.728381 259.31557 125.471476 259.093894 125.202894 C 258.874552 124.936647 258.66921 124.656387 258.475536 124.369121 C 258.284194 124.07952 258.10452 123.782911 257.94118 123.476961 C 257.77784 123.171011 257.630834 122.858054 257.497829 122.538091 C 257.364823 122.218128 257.248152 121.891158 257.147814 121.559518 C 257.047477 121.227877 256.96114 120.891566 256.89347 120.550583 C 256.825801 120.211936 256.776799 119.868618 256.741797 119.522964 C 256.709129 119.17731 256.690462 118.831657 256.690462 118.486003 C 256.690462 118.138014 256.709129 117.79236 256.741797 117.446707 C 256.776799 117.101053 256.825801 116.760071 256.89347 116.419088 C 256.96114 116.078105 257.047477 115.741794 257.147814 115.410153 C 257.248152 115.078512 257.364823 114.751543 257.497829 114.43158 C 257.630834 114.111616 257.77784 113.79866 257.94118 113.49271 C 258.10452 113.186759 258.284194 112.890151 258.475536 112.60055 C 258.66921 112.313283 258.874552 112.035359 259.093894 111.766777 C 259.31557 111.498195 259.548913 111.24129 259.793923 110.996063 C 260.038933 110.750836 260.295611 110.517286 260.563955 110.297749 C 260.832299 110.078212 261.109978 109.872689 261.396989 109.678842 C 261.686335 109.487332 261.98268 109.307498 262.288359 109.144013 C 262.596372 108.980529 262.909052 108.833392 263.228732 108.700269 C 263.548411 108.567146 263.875092 108.450371 264.208772 108.349944 C 264.540119 108.249518 264.876133 108.16544 265.216814 108.097711 C 265.555161 108.029981 265.898175 107.9786 266.243523 107.945903 C 266.58887 107.910871 266.934218 107.894522 267.281899 107.894522 C 267.62958 107.894522 267.974927 107.910871 268.320275 107.945903 C 268.665622 107.9786 269.008637 108.029981 269.349317 108.097711 C 269.687664 108.16544 270.023678 108.249518 270.357359 108.349944 C 270.688706 108.450371 271.015386 108.567146 271.335066 108.700269 C 271.654746 108.833392 271.969759 108.980529 272.275438 109.144013 C 272.581117 109.307498 272.877463 109.487332 273.166808 109.678842 C 273.45382 109.872689 273.733831 110.078212 273.999842 110.297749 C 274.268187 110.517286 274.524864 110.750836 274.769874 110.996063 C 275.017218 111.24129 275.248227 111.498195 275.469903 111.766777 C 275.689245 112.035359 275.894587 112.313283 276.088262 112.60055 C 276.281936 112.890151 276.459277 113.186759 276.622617 113.49271 C 276.785957 113.79866 276.932963 114.111616 277.065969 114.43158 C 277.198974 114.751543 277.315646 115.078512 277.415983 115.410153 C 277.518654 115.741794 277.602657 116.078105 277.670327 116.419088 C 277.737996 116.760071 277.786998 117.101053 277.822 117.446707 C 277.857001 117.79236 277.873335 118.138014 277.873335 118.486003 Z M 277.873335 118.486003 " stroke="#ffffff" stroke-width="2" stroke-opacity="1" stroke-miterlimit="4"/><path stroke-linecap="round" transform="matrix(1.674038, 0, 0, 1.672556, 315.161474, 73.876319)" fill="none" stroke-linejoin="round" d="M 250.432204 118.486003 C 250.432204 118.831657 250.41587 119.17731 250.383202 119.522964 C 250.350534 119.868618 250.301532 120.211936 250.236196 120.550583 C 250.17086 120.891566 250.091523 121.227877 249.993519 121.559518 C 249.897849 121.891158 249.785844 122.218128 249.657505 122.538091 C 249.5315 122.858054 249.389161 123.171011 249.232821 123.476961 C 249.074148 123.782911 248.903808 124.07952 248.719467 124.369121 C 248.532792 124.656387 248.336784 124.936647 248.124442 125.202894 C 247.914434 125.471476 247.690424 125.728381 247.454748 125.973608 C 247.219072 126.218835 246.974061 126.452385 246.715051 126.671922 C 246.458373 126.891458 246.190029 127.099318 245.914684 127.290829 C 245.637006 127.484675 245.352328 127.662173 245.058316 127.825657 C 244.764304 127.989142 244.465625 128.136279 244.157612 128.269402 C 243.849599 128.402525 243.53692 128.5193 243.21724 128.619727 C 242.899893 128.720153 242.575547 128.804231 242.2512 128.87196 C 241.92452 128.93969 241.595506 128.991071 241.264159 129.026103 C 240.932812 129.0588 240.599132 129.075149 240.267785 129.075149 C 239.934105 129.075149 239.602758 129.0588 239.271411 129.026103 C 238.940064 128.991071 238.61105 128.93969 238.28437 128.87196 C 237.95769 128.804231 237.635676 128.720153 237.315997 128.619727 C 236.99865 128.5193 236.683637 128.402525 236.377958 128.269402 C 236.069945 128.136279 235.768933 127.989142 235.474921 127.825657 C 235.180909 127.662173 234.89623 127.484675 234.618552 127.290829 C 234.343207 127.099318 234.074863 126.891458 233.818186 126.671922 C 233.561508 126.452385 233.314165 126.218835 233.078489 125.973608 C 232.842812 125.728381 232.621136 125.471476 232.408794 125.202894 C 232.198786 124.936647 232.000444 124.656387 231.816103 124.369121 C 231.629429 124.07952 231.459088 123.782911 231.302749 123.476961 C 231.146409 123.171011 231.00407 122.858054 230.875731 122.538091 C 230.747392 122.218128 230.635388 121.891158 230.539717 121.559518 C 230.444047 121.227877 230.362377 120.891566 230.297041 120.550583 C 230.231704 120.211936 230.182702 119.868618 230.150034 119.522964 C 230.117366 119.17731 230.101032 118.831657 230.101032 118.486003 C 230.101032 118.138014 230.117366 117.79236 230.150034 117.446707 C 230.182702 117.101053 230.231704 116.760071 230.297041 116.419088 C 230.362377 116.078105 230.444047 115.741794 230.539717 115.410153 C 230.635388 115.078512 230.747392 114.751543 230.875731 114.43158 C 231.00407 114.111616 231.146409 113.79866 231.302749 113.49271 C 231.459088 113.186759 231.629429 112.890151 231.816103 112.60055 C 232.000444 112.313283 232.198786 112.035359 232.408794 111.766777 C 232.621136 111.498195 232.842812 111.24129 233.078489 110.996063 C 233.314165 110.750836 233.561508 110.517286 233.818186 110.297749 C 234.074863 110.078212 234.343207 109.872689 234.618552 109.678842 C 234.89623 109.487332 235.180909 109.307498 235.474921 109.144013 C 235.768933 108.980529 236.069945 108.833392 236.377958 108.700269 C 236.683637 108.567146 236.99865 108.450371 237.315997 108.349944 C 237.635676 108.249518 237.95769 108.16544 238.28437 108.097711 C 238.61105 108.029981 238.940064 107.9786 239.271411 107.945903 C 239.602758 107.910871 239.934105 107.894522 240.267785 107.894522 C 240.599132 107.894522 240.932812 107.910871 241.264159 107.945903 C 241.595506 107.9786 241.92452 108.029981 242.2512 108.097711 C 242.575547 108.16544 242.899893 108.249518 243.21724 108.349944 C 243.53692 108.450371 243.849599 108.567146 244.157612 108.700269 C 244.465625 108.833392 244.764304 108.980529 245.058316 109.144013 C 245.352328 109.307498 245.637006 109.487332 245.914684 109.678842 C 246.190029 109.872689 246.458373 110.078212 246.715051 110.297749 C 246.974061 110.517286 247.219072 110.750836 247.454748 110.996063 C 247.690424 111.24129 247.914434 111.498195 248.124442 111.766777 C 248.336784 112.035359 248.532792 112.313283 248.719467 112.60055 C 248.903808 112.890151 249.074148 113.186759 249.232821 113.49271 C 249.389161 113.79866 249.5315 114.111616 249.657505 114.43158 C 249.785844 114.751543 249.897849 115.078512 249.993519 115.410153 C 250.091523 115.741794 250.17086 116.078105 250.236196 116.419088 C 250.301532 116.760071 250.350534 117.101053 250.383202 117.446707 C 250.41587 117.79236 250.432204 118.138014 250.432204 118.486003 Z M 250.432204 118.486003 " stroke="#ffffff" stroke-width="2" stroke-opacity="1" stroke-miterlimit="4"/><path stroke-linecap="round" transform="matrix(1.674038, 0, 0, 1.672556, 315.161474, 73.876319)" fill="none" stroke-linejoin="round" d="M 277.873335 115.980014 L 290.872871 114.837956 " stroke="#ffffff" stroke-width="1" stroke-opacity="1" stroke-miterlimit="4"/><path stroke-linecap="round" transform="matrix(1.674038, 0, 0, 1.672556, 315.161474, 73.876319)" fill="none" stroke-linejoin="round" d="M 256.690462 118.486003 L 250.432204 118.486003 " stroke="#ffffff" stroke-width="1" stroke-opacity="1" stroke-miterlimit="4"/><path fill="#1c2e3f" d="M 764.035156 277.015625 C 764.035156 277.339844 764.007812 277.664062 763.957031 277.984375 C 763.90625 278.304688 763.828125 278.613281 763.726562 278.914062 C 763.625 279.214844 763.503906 279.503906 763.355469 279.773438 C 763.207031 280.042969 763.042969 280.296875 762.855469 280.527344 C 762.667969 280.757812 762.464844 280.960938 762.242188 281.144531 C 762.023438 281.324219 761.792969 281.476562 761.546875 281.601562 C 761.300781 281.726562 761.050781 281.820312 760.792969 281.886719 C 760.53125 281.949219 760.269531 281.980469 760.003906 281.980469 C 759.742188 281.980469 759.480469 281.949219 759.21875 281.886719 C 758.960938 281.820312 758.707031 281.726562 758.464844 281.601562 C 758.21875 281.476562 757.988281 281.324219 757.765625 281.144531 C 757.546875 280.960938 757.34375 280.757812 757.15625 280.527344 C 756.96875 280.296875 756.800781 280.042969 756.65625 279.773438 C 756.507812 279.503906 756.382812 279.214844 756.28125 278.914062 C 756.179688 278.613281 756.105469 278.304688 756.054688 277.984375 C 756 277.664062 755.976562 277.339844 755.976562 277.015625 C 755.976562 276.6875 756 276.367188 756.054688 276.046875 C 756.105469 275.726562 756.179688 275.414062 756.28125 275.113281 C 756.382812 274.8125 756.507812 274.527344 756.65625 274.257812 C 756.800781 273.984375 756.96875 273.734375 757.15625 273.503906 C 757.34375 273.273438 757.546875 273.066406 757.765625 272.886719 C 757.988281 272.703125 758.21875 272.550781 758.464844 272.425781 C 758.707031 272.300781 758.960938 272.207031 759.21875 272.144531 C 759.480469 272.082031 759.742188 272.050781 760.003906 272.050781 C 760.269531 272.050781 760.53125 272.082031 760.792969 272.144531 C 761.050781 272.207031 761.300781 272.300781 761.546875 272.425781 C 761.792969 272.550781 762.023438 272.703125 762.242188 272.886719 C 762.464844 273.066406 762.667969 273.273438 762.855469 273.503906 C 763.042969 273.734375 763.207031 273.984375 763.355469 274.257812 C 763.503906 274.527344 763.625 274.8125 763.726562 275.113281 C 763.828125 275.414062 763.90625 275.726562 763.957031 276.046875 C 764.007812 276.367188 764.035156 276.6875 764.035156 277.015625 Z M 764.035156 277.015625 " fill-opacity="1" fill-rule="nonzero"/><path fill="#1c2e3f" d="M 725.753906 277.015625 C 725.753906 277.339844 725.726562 277.664062 725.675781 277.984375 C 725.625 278.304688 725.546875 278.613281 725.445312 278.914062 C 725.34375 279.214844 725.21875 279.503906 725.074219 279.773438 C 724.925781 280.042969 724.757812 280.296875 724.574219 280.527344 C 724.386719 280.757812 724.183594 280.960938 723.960938 281.144531 C 723.742188 281.324219 723.511719 281.476562 723.265625 281.601562 C 723.019531 281.726562 722.769531 281.820312 722.507812 281.886719 C 722.25 281.949219 721.988281 281.980469 721.722656 281.980469 C 721.457031 281.980469 721.195312 281.949219 720.9375 281.886719 C 720.679688 281.820312 720.425781 281.726562 720.179688 281.601562 C 719.9375 281.476562 719.703125 281.324219 719.484375 281.144531 C 719.265625 280.960938 719.0625 280.757812 718.875 280.527344 C 718.6875 280.296875 718.519531 280.042969 718.371094 279.773438 C 718.226562 279.503906 718.101562 279.214844 718 278.914062 C 717.898438 278.613281 717.824219 278.304688 717.769531 277.984375 C 717.71875 277.664062 717.695312 277.339844 717.695312 277.015625 C 717.695312 276.6875 717.71875 276.367188 717.769531 276.046875 C 717.824219 275.726562 717.898438 275.414062 718 275.113281 C 718.101562 274.8125 718.226562 274.527344 718.371094 274.257812 C 718.519531 273.984375 718.6875 273.734375 718.875 273.503906 C 719.0625 273.273438 719.265625 273.066406 719.484375 272.886719 C 719.703125 272.703125 719.9375 272.550781 720.179688 272.425781 C 720.425781 272.300781 720.679688 272.207031 720.9375 272.144531 C 721.195312 272.082031 721.457031 272.050781 721.722656 272.050781 C 721.988281 272.050781 722.25 272.082031 722.507812 272.144531 C 722.769531 272.207031 723.019531 272.300781 723.265625 272.425781 C 723.511719 272.550781 723.742188 272.703125 723.960938 272.886719 C 724.183594 273.066406 724.386719 273.273438 724.574219 273.503906 C 724.757812 273.734375 724.925781 273.984375 725.074219 274.257812 C 725.21875 274.527344 725.34375 274.8125 725.445312 275.113281 C 725.546875 275.414062 725.625 275.726562 725.675781 276.046875 C 725.726562 276.367188 725.753906 276.6875 725.753906 277.015625 Z M 725.753906 277.015625 " fill-opacity="1" fill-rule="nonzero"/><path stroke-linecap="round" transform="matrix(1.674038, 0, 0, 1.672556, 315.161474, 73.876319)" fill="none" stroke-linejoin="round" d="M 258.403199 106.226977 C 258.403199 106.226977 267.067223 97.774812 273.486488 106.226977 " stroke="#1c2e3f" stroke-width="1" stroke-opacity="1" stroke-miterlimit="4"/><path stroke-linecap="round" transform="matrix(1.674038, 0, 0, 1.672556, 315.161474, 73.876319)" fill="none" stroke-linejoin="round" d="M 245.777012 106.226977 C 245.777012 106.226977 237.32533 98.951903 232.940816 106.226977 " stroke="#1c2e3f" stroke-width="1" stroke-opacity="1" stroke-miterlimit="4"/><path stroke-linecap="butt" transform="matrix(1.674038, 0, 0, 1.672556, 315.161474, 73.876319)" fill-opacity="1" fill="#ffffff" fill-rule="nonzero" stroke-linejoin="miter" d="M 224.253458 212.438395 L 167.201106 218.667166 L 157.58971 167.891116 L 214.642062 161.662345 Z M 224.253458 212.438395 " stroke="#1c2e3f" stroke-width="1" stroke-opacity="1" stroke-miterlimit="10"/><path fill="#ffc5bd" d="M 550.285156 430.480469 L 574.28125 384.046875 L 607.863281 363.917969 C 607.863281 363.917969 621.027344 370.898438 600.878906 386.195312 L 629.890625 399.078125 C 629.890625 399.078125 632.308594 412.230469 612.429688 406.328125 L 629.984375 426.457031 C 629.984375 426.457031 627.742188 439.605469 618.070312 432.09375 L 623.980469 437.730469 C 623.980469 437.730469 617.265625 454.371094 598.730469 432.898438 L 597.117188 448.738281 L 584.757812 462.691406 C 584.757812 462.691406 556.648438 463.492188 550.285156 430.480469 Z M 550.285156 430.480469 " fill-opacity="1" fill-rule="nonzero"/><path stroke-linecap="round" transform="matrix(1.674038, 0, 0, 1.672556, 315.161474, 73.876319)" fill="none" stroke-linejoin="round" d="M 177.575534 198.768728 C 177.575534 198.768728 174.206061 196.521979 168.42849 198.768728 " stroke="#1c2e3f" stroke-width="1" stroke-opacity="1" stroke-miterlimit="4"/><path stroke-linecap="round" transform="matrix(1.674038, 0, 0, 1.672556, 315.161474, 73.876319)" fill="none" stroke-linejoin="round" d="M 170.675582 186.731574 L 161.848219 193.151857 " stroke="#1c2e3f" stroke-width="1" stroke-opacity="1" stroke-miterlimit="4"/><path stroke-linecap="round" transform="matrix(1.674038, 0, 0, 1.672556, 315.161474, 73.876319)" fill="none" stroke-linejoin="round" d="M 180.945006 214.173669 L 175.650454 208.236835 L 168.42849 205.553348 " stroke="#1c2e3f" stroke-width="1" stroke-opacity="1" stroke-miterlimit="4"/><path fill="#ffffff" d="M 604.335938 456.445312 L 604.335938 456.460938 C 599.9375 467.992188 586.527344 488.390625 549.589844 466.292969 C 545.578125 443.78125 550.285156 430.480469 550.285156 430.480469 C 577.609375 468.0625 597.117188 448.738281 597.117188 448.738281 Z M 604.335938 456.445312 " fill-opacity="1" fill-rule="nonzero"/><path stroke-linecap="round" transform="matrix(1.674038, 0, 0, 1.672556, 315.161474, 73.876319)" fill="none" stroke-linejoin="round" d="M 140.037653 234.620949 C 137.641221 221.161478 140.453003 213.209109 140.453003 213.209109 " stroke="#1c2e3f" stroke-width="1" stroke-opacity="1" stroke-miterlimit="4"/><path stroke-linecap="round" transform="matrix(1.674038, 0, 0, 1.672556, 315.161474, 73.876319)" fill="none" stroke-linejoin="round" d="M 168.42849 224.125224 L 172.740668 228.73316 L 172.740668 228.742502 " stroke="#1c2e3f" stroke-width="1" stroke-opacity="1" stroke-miterlimit="4"/><path fill="#ffffff" d="M 979.667969 524.964844 C 979.199219 539.640625 966.296875 547.644531 951.820312 551.996094 C 940.136719 547.304688 933.089844 535.207031 932.382812 519.597656 C 931.304688 495.96875 954.953125 494.367188 954.953125 494.367188 L 976.902344 506.453125 C 978.828125 514.058594 979.808594 520.40625 979.667969 524.964844 Z M 979.667969 524.964844 " fill-opacity="1" fill-rule="nonzero"/><path stroke-linecap="round" transform="matrix(1.674038, 0, 0, 1.672556, 315.161474, 73.876319)" fill="none" stroke-linejoin="round" d="M 395.296176 258.632199 C 396.446557 263.179412 397.032248 266.974595 396.948244 269.700121 C 396.784904 274.800847 394.115461 278.551656 390.2093 281.309879 " stroke="#1c2e3f" stroke-width="1" stroke-opacity="1" stroke-miterlimit="4"/><path fill="#ffffff" d="M 882.417969 424.039062 L 976.902344 424.039062 L 976.902344 500 L 882.417969 500 Z M 882.417969 424.039062 " fill-opacity="1" fill-rule="nonzero"/><path stroke-linecap="butt" transform="matrix(1.674038, 0, 0, 1.672556, 315.161474, 73.876319)" fill-opacity="1" fill="#ffffff" fill-rule="nonzero" stroke-linejoin="miter" d="M 338.855183 209.357873 L 395.296176 209.357873 L 395.296176 254.773957 L 338.855183 254.773957 Z M 338.855183 209.357873 " stroke="#1c2e3f" stroke-width="1" stroke-opacity="1" stroke-miterlimit="10"/><path fill="#ffc5bd" d="M 983.605469 466.988281 C 983.605469 466.988281 979.578125 460.722656 965.875 461.261719 C 952.175781 461.796875 931.847656 466.71875 945.011719 478.257812 C 945.011719 478.257812 934.253906 485.53125 947.007812 496.324219 C 947.007812 496.324219 935.878906 503.757812 946.085938 511.273438 C 946.085938 511.273438 941.519531 517.105469 948.234375 523.179688 C 952.542969 527.078125 965.800781 526.707031 974.757812 525.941406 C 980.222656 525.476562 984.824219 521.621094 986.152344 516.304688 C 988.90625 505.269531 991.867188 489.234375 983.605469 466.984375 Z M 983.605469 466.988281 " fill-opacity="1" fill-rule="nonzero"/><path stroke-linecap="round" transform="matrix(1.674038, 0, 0, 1.672556, 315.161474, 73.876319)" fill="none" stroke-linejoin="round" d="M 376.887751 261.514202 L 386.356808 261.514202 " stroke="#1c2e3f" stroke-width="1" stroke-opacity="1" stroke-miterlimit="4"/><path stroke-linecap="round" transform="matrix(1.674038, 0, 0, 1.672556, 315.161474, 73.876319)" fill="none" stroke-linejoin="round" d="M 377.43844 252.576254 L 393.590439 252.576254 " stroke="#1c2e3f" stroke-width="1" stroke-opacity="1" stroke-miterlimit="4"/><path stroke-linecap="round" transform="matrix(1.674038, 0, 0, 1.672556, 315.161474, 73.876319)" fill="none" stroke-linejoin="round" d="M 376.246058 241.774578 L 392.454059 241.774578 " stroke="#1c2e3f" stroke-width="1" stroke-opacity="1" stroke-miterlimit="4"/><path fill="#ffcd5c" d="M 866.460938 454.628906 L 800.5 454.628906 L 797.320312 470.210938 L 687.070312 470.210938 L 662.847656 587.351562 L 839.402344 587.351562 Z M 866.460938 454.628906 " fill-opacity="1" fill-rule="nonzero"/><path fill="#ffffff" d="M 839.402344 587.351562 L 662.847656 587.351562 L 670.699219 477.636719 L 847.253906 477.636719 Z M 839.402344 587.351562 " fill-opacity="1" fill-rule="nonzero"/><path stroke-linecap="round" transform="matrix(1.674038, 0, 0, 1.672556, 315.161474, 73.876319)" fill="none" stroke-linejoin="round" d="M 207.693109 307.000351 L 212.383302 241.403234 L 317.84965 241.403234 L 313.159457 307.000351 " stroke="#1c2e3f" stroke-width="1" stroke-opacity="1" stroke-miterlimit="4"/><path fill="#ffffff" d="M 839.402344 587.351562 L 662.847656 587.351562 L 650.042969 483.269531 L 826.597656 483.269531 Z M 839.402344 587.351562 " fill-opacity="1" fill-rule="nonzero"/><path stroke-linecap="round" transform="matrix(1.674038, 0, 0, 1.672556, 315.161474, 73.876319)" fill="none" stroke-linejoin="round" d="M 207.693109 307.000351 L 200.044127 244.771021 L 305.510475 244.771021 L 313.159457 307.000351 " stroke="#1c2e3f" stroke-width="1" stroke-opacity="1" stroke-miterlimit="4"/><path fill="#ffcd5c" d="M 839.402344 587.351562 L 662.847656 587.351562 L 629.984375 493.832031 L 806.539062 493.832031 Z M 839.402344 587.351562 " fill-opacity="1" fill-rule="nonzero"/><path fill="#1c2e3f" d="M 391.746094 587.359375 C 381.300781 587.359375 372.835938 595.820312 372.835938 606.253906 C 372.835938 704.714844 1085.835938 704.714844 1085.835938 606.253906 C 1085.835938 595.820312 1077.371094 587.359375 1066.925781 587.359375 Z M 391.746094 587.359375 " fill-opacity="1" fill-rule="nonzero"/><path stroke-linecap="round" transform="matrix(1.674038, 0, 0, 1.672556, 315.161474, 73.876319)" fill="none" stroke-linejoin="round" d="M 390.206967 307.000351 L 356.18323 307.000351 " stroke="#ffffff" stroke-width="1" stroke-opacity="1" stroke-miterlimit="4"/><path fill="#d25455" d="M 670.070312 598.25 L 525.808594 598.25 L 499.949219 626.972656 L 606.132812 626.972656 Z M 670.070312 598.25 " fill-opacity="1" fill-rule="nonzero"/><path fill="#d25455" d="M 606.132812 626.972656 L 443.332031 626.972656 L 396.679688 529.449219 C 395.328125 526.628906 397.386719 523.367188 400.515625 523.367188 L 553.886719 523.367188 C 555.523438 523.367188 557.015625 524.308594 557.722656 525.785156 Z M 606.132812 626.972656 " fill-opacity="1" fill-rule="nonzero"/><path fill="#ffffff" d="M 504.414062 569.515625 C 505.011719 569.984375 505.574219 570.488281 506.101562 571.019531 C 506.628906 571.554688 507.113281 572.109375 507.550781 572.6875 C 507.992188 573.265625 508.375 573.851562 508.710938 574.449219 C 509.042969 575.046875 509.316406 575.640625 509.53125 576.238281 C 509.746094 576.832031 509.898438 577.414062 509.984375 577.984375 C 510.070312 578.554688 510.09375 579.101562 510.050781 579.625 C 510.007812 580.148438 509.902344 580.636719 509.730469 581.09375 C 509.558594 581.546875 509.328125 581.960938 509.035156 582.332031 C 508.742188 582.703125 508.394531 583.027344 507.988281 583.296875 C 507.585938 583.570312 507.132812 583.789062 506.632812 583.949219 C 506.136719 584.113281 505.597656 584.21875 505.023438 584.265625 C 504.445312 584.3125 503.84375 584.300781 503.214844 584.230469 C 502.585938 584.160156 501.941406 584.035156 501.285156 583.847656 C 500.625 583.664062 499.964844 583.425781 499.300781 583.132812 C 498.636719 582.839844 497.984375 582.5 497.339844 582.109375 C 496.699219 581.722656 496.078125 581.292969 495.484375 580.820312 C 494.886719 580.351562 494.324219 579.851562 493.796875 579.316406 C 493.269531 578.78125 492.785156 578.226562 492.347656 577.648438 C 491.90625 577.074219 491.519531 576.488281 491.1875 575.890625 C 490.855469 575.292969 490.582031 574.695312 490.367188 574.101562 C 490.152344 573.503906 490 572.921875 489.914062 572.351562 C 489.824219 571.78125 489.804688 571.238281 489.847656 570.714844 C 489.886719 570.191406 489.996094 569.703125 490.167969 569.246094 C 490.335938 568.789062 490.570312 568.375 490.863281 568.003906 C 491.15625 567.632812 491.503906 567.3125 491.910156 567.039062 C 492.3125 566.765625 492.765625 566.550781 493.261719 566.386719 C 493.761719 566.222656 494.300781 566.117188 494.875 566.070312 C 495.449219 566.023438 496.050781 566.035156 496.683594 566.105469 C 497.3125 566.175781 497.957031 566.304688 498.613281 566.488281 C 499.273438 566.671875 499.933594 566.910156 500.597656 567.203125 C 501.261719 567.496094 501.914062 567.835938 502.554688 568.226562 C 503.199219 568.613281 503.816406 569.042969 504.414062 569.515625 Z M 504.414062 569.515625 " fill-opacity="1" fill-rule="nonzero"/><path fill="#d25455" d="M 670.070312 603.082031 L 606.132812 626.972656 L 604.171875 622.871094 L 670.070312 598.25 Z M 670.070312 603.082031 " fill-opacity="1" fill-rule="nonzero"/><path fill="#ffffff" d="M 740.035156 640.734375 L 638.382812 640.734375 L 707.484375 600.652344 L 802.046875 600.652344 Z M 740.035156 640.734375 " fill-opacity="1" fill-rule="nonzero"/><path fill="#ffcd5c" d="M 863.289062 635.722656 L 769.664062 635.722656 L 820.914062 600.652344 L 898.9375 600.652344 Z M 863.289062 635.722656 " fill-opacity="1" fill-rule="nonzero"/><path stroke-linecap="round" transform="matrix(1.674038, 0, 0, 1.672556, 315.161474, 73.876319)" fill="none" stroke-linejoin="round" d="M 276.582949 335.920816 L 310.536682 325.436768 L 323.193204 335.920816 " stroke="#1c2e3f" stroke-width="1" stroke-opacity="1" stroke-miterlimit="4"/><path stroke-linecap="round" transform="matrix(1.674038, 0, 0, 1.672556, 315.161474, 73.876319)" fill="none" stroke-linejoin="round" d="M 313.532805 327.919401 L 330.821185 321.879805 " stroke="#1c2e3f" stroke-width="1" stroke-opacity="1" stroke-miterlimit="4"/><path stroke-linecap="round" transform="matrix(1.674038, 0, 0, 1.672556, 315.161474, 73.876319)" fill="none" stroke-linejoin="round" d="M 302.666024 327.919401 L 297.644484 321.879805 " stroke="#1c2e3f" stroke-width="1" stroke-opacity="1" stroke-miterlimit="4"/></svg>