<svg xmlns="http://www.w3.org/2000/svg" xmlns:xlink="http://www.w3.org/1999/xlink" width="1920" zoomAndPan="magnify" viewBox="0 0 1440 809.999993" height="1080" preserveAspectRatio="xMidYMid meet" version="1.0"><defs><clipPath id="e496ae3e03"><path d="M 56.230469 53.816406 L 1384 53.816406 L 1384 756.183594 L 56.230469 756.183594 Z M 56.230469 53.816406 " clip-rule="nonzero"/></clipPath><clipPath id="db6dc5f295"><path d="M 81.730469 53.816406 L 1358.269531 53.816406 C 1365.03125 53.816406 1371.519531 56.503906 1376.300781 61.285156 C 1381.082031 66.066406 1383.769531 72.554688 1383.769531 79.316406 L 1383.769531 730.683594 C 1383.769531 737.445312 1381.082031 743.933594 1376.300781 748.714844 C 1371.519531 753.496094 1365.03125 756.183594 1358.269531 756.183594 L 81.730469 756.183594 C 74.96875 756.183594 68.480469 753.496094 63.699219 748.714844 C 58.917969 743.933594 56.230469 737.445312 56.230469 730.683594 L 56.230469 79.316406 C 56.230469 72.554688 58.917969 66.066406 63.699219 61.285156 C 68.480469 56.503906 74.96875 53.816406 81.730469 53.816406 Z M 81.730469 53.816406 " clip-rule="nonzero"/></clipPath><clipPath id="18c6a02295"><path d="M 56.230469 53.816406 L 1383.730469 53.816406 L 1383.730469 755.816406 L 56.230469 755.816406 Z M 56.230469 53.816406 " clip-rule="nonzero"/></clipPath><clipPath id="d4398b1417"><path d="M 81.730469 53.816406 L 1358.265625 53.816406 C 1365.027344 53.816406 1371.515625 56.503906 1376.296875 61.285156 C 1381.078125 66.066406 1383.765625 72.554688 1383.765625 79.316406 L 1383.765625 730.679688 C 1383.765625 737.441406 1381.078125 743.929688 1376.296875 748.710938 C 1371.515625 753.492188 1365.027344 756.179688 1358.265625 756.179688 L 81.730469 756.179688 C 74.96875 756.179688 68.480469 753.492188 63.699219 748.710938 C 58.917969 743.929688 56.230469 737.441406 56.230469 730.679688 L 56.230469 79.316406 C 56.230469 72.554688 58.917969 66.066406 63.699219 61.285156 C 68.480469 56.503906 74.96875 53.816406 81.730469 53.816406 Z M 81.730469 53.816406 " clip-rule="nonzero"/></clipPath><clipPath id="f8af2fc39b"><path d="M 291.367188 696.113281 L 1166.585938 696.113281 L 1166.585938 709.292969 L 291.367188 709.292969 Z M 291.367188 696.113281 " clip-rule="nonzero"/></clipPath></defs><rect x="-144" width="1728" fill="#ffffff" y="-80.999999" height="971.999992" fill-opacity="1"/><rect x="-144" width="1728" fill="#ffffff" y="-80.999999" height="971.999992" fill-opacity="1"/><g clip-path="url(#e496ae3e03)"><g clip-path="url(#db6dc5f295)"><path fill="#ffffff" d="M 56.230469 53.816406 L 1384.140625 53.816406 L 1384.140625 756.183594 L 56.230469 756.183594 Z M 56.230469 53.816406 " fill-opacity="1" fill-rule="nonzero"/></g></g><g clip-path="url(#18c6a02295)"><g clip-path="url(#d4398b1417)"><path stroke-linecap="butt" transform="matrix(0.75, 0, 0, 0.75, 56.231257, 53.816969)" fill="none" stroke-linejoin="miter" d="M 33.998951 -0.000750723 L 1736.045911 -0.000750723 C 1745.061537 -0.000750723 1753.712579 3.582583 1760.087579 9.957583 C 1766.46258 16.332583 1770.045913 24.983626 1770.045913 33.999251 L 1770.045913 902.48367 C 1770.045913 911.499295 1766.46258 920.150337 1760.087579 926.525338 C 1753.712579 932.900338 1745.061537 936.483671 1736.045911 936.483671 L 33.998951 936.483671 C 24.983325 936.483671 16.332283 932.900338 9.957283 926.525338 C 3.582283 920.150337 -0.00105099 911.499295 -0.00105099 902.48367 L -0.00105099 33.999251 C -0.00105099 24.983626 3.582283 16.332583 9.957283 9.957583 C 16.332283 3.582583 24.983325 -0.000750723 33.998951 -0.000750723 Z M 33.998951 -0.000750723 " stroke="#000000" stroke-width="4" stroke-opacity="1" stroke-miterlimit="4"/></g></g><path fill="#f0f0f0" d="M 877.957031 211.734375 C 848.25 211.734375 824.074219 187.582031 824.074219 157.894531 L 824.074219 111.269531 C 824.074219 98.210938 834.710938 87.585938 847.777344 87.585938 C 849.953125 87.585938 851.71875 89.347656 851.71875 91.519531 C 851.71875 93.695312 849.953125 95.457031 847.777344 95.457031 C 839.046875 95.457031 831.945312 102.550781 831.945312 111.269531 L 831.945312 157.894531 C 831.945312 183.242188 852.585938 203.867188 877.957031 203.867188 C 903.335938 203.867188 923.972656 183.242188 923.972656 157.894531 L 923.972656 111.269531 C 923.972656 102.550781 916.878906 95.457031 908.144531 95.457031 C 905.96875 95.457031 904.207031 93.695312 904.207031 91.519531 C 904.207031 89.347656 905.96875 87.585938 908.144531 87.585938 C 921.214844 87.585938 931.847656 98.210938 931.847656 111.269531 L 931.847656 157.894531 C 931.847656 187.582031 907.671875 211.734375 877.957031 211.734375 " fill-opacity="1" fill-rule="nonzero"/><path fill="#254799" d="M 877.957031 215.667969 C 846.074219 215.667969 820.136719 189.75 820.136719 157.894531 C 820.136719 153.546875 823.664062 150.027344 828.015625 150.027344 C 832.359375 150.027344 835.882812 153.546875 835.882812 157.894531 C 835.882812 181.074219 854.761719 199.929688 877.957031 199.929688 C 901.167969 199.929688 920.042969 181.074219 920.042969 157.894531 C 920.042969 153.546875 923.566406 150.027344 927.910156 150.027344 C 932.261719 150.027344 935.789062 153.546875 935.789062 157.894531 C 935.789062 189.75 909.839844 215.667969 877.957031 215.667969 " fill-opacity="1" fill-rule="nonzero"/><path fill="#254799" d="M 927.910156 263.601562 C 897.113281 263.601562 872.058594 238.570312 872.058594 207.800781 C 872.058594 204.542969 874.699219 201.898438 877.957031 201.898438 C 881.21875 201.898438 883.867188 204.542969 883.867188 207.800781 C 883.867188 232.0625 903.625 251.804688 927.910156 251.804688 C 952.195312 251.804688 971.953125 232.0625 971.953125 207.800781 L 971.953125 123.058594 C 971.953125 119.800781 974.601562 117.15625 977.863281 117.15625 C 981.121094 117.15625 983.769531 119.800781 983.769531 123.058594 L 983.769531 207.800781 C 983.769531 238.570312 958.710938 263.601562 927.910156 263.601562 " fill-opacity="1" fill-rule="nonzero"/><path fill="#346ee3" d="M 873.777344 91.519531 C 873.777344 97.230469 867.957031 101.859375 860.78125 101.859375 C 853.597656 101.859375 847.777344 97.230469 847.777344 91.519531 C 847.777344 85.8125 853.597656 81.191406 860.78125 81.191406 C 867.957031 81.191406 873.777344 85.8125 873.777344 91.519531 " fill-opacity="1" fill-rule="nonzero"/><path fill="#346ee3" d="M 908.71875 91.519531 C 908.71875 97.230469 902.902344 101.859375 895.71875 101.859375 C 888.542969 101.859375 882.722656 97.230469 882.722656 91.519531 C 882.722656 85.8125 888.542969 81.191406 895.71875 81.191406 C 902.902344 81.191406 908.71875 85.8125 908.71875 91.519531 " fill-opacity="1" fill-rule="nonzero"/><path fill="#f0f0f0" d="M 1009.960938 123.058594 C 1009.960938 140.765625 995.59375 155.125 977.863281 155.125 C 960.140625 155.125 945.765625 140.765625 945.765625 123.058594 C 945.765625 105.34375 960.140625 90.992188 977.863281 90.992188 C 995.59375 90.992188 1009.960938 105.34375 1009.960938 123.058594 " fill-opacity="1" fill-rule="nonzero"/><path fill="#346ee3" d="M 993.726562 123.058594 C 993.726562 131.8125 986.625 138.90625 977.863281 138.90625 C 969.101562 138.90625 962 131.8125 962 123.058594 C 962 114.304688 969.101562 107.207031 977.863281 107.207031 C 986.625 107.207031 993.726562 114.304688 993.726562 123.058594 " fill-opacity="1" fill-rule="nonzero"/><path fill="#f0f0f0" d="M 320.386719 478.667969 L 311.882812 479.851562 L 384.152344 565.5 L 377 478.960938 L 373.1875 478.476562 C 364.691406 477.390625 355.996094 476.847656 347.34375 476.847656 C 338.09375 476.847656 329.023438 477.457031 320.386719 478.667969 Z M 308.460938 484.117188 L 308.0625 496.453125 C 307.039062 527.894531 311.160156 558.191406 320.304688 586.507812 L 321.191406 589.242188 L 409.855469 604.304688 Z M 323.027344 594.996094 L 326.191406 602.851562 C 332.902344 619.519531 341.523438 635.507812 351.8125 650.40625 L 352.949219 652.050781 L 466.417969 671.324219 L 415.226562 610.65625 Z M 384.152344 696.40625 C 355.839844 669.511719 330.292969 631.492188 317.136719 593.433594 L 317.03125 593.132812 L 316.882812 592.84375 C 316.765625 592.609375 316.683594 592.367188 316.632812 592.085938 L 316.574219 591.746094 L 316.464844 591.417969 C 304.953125 557.210938 300.554688 520.777344 303.402344 483.117188 C 303.71875 478.859375 306.316406 475.726562 310.164062 474.945312 C 316.671875 473.613281 330.175781 471.371094 347.550781 471.371094 C 368.828125 471.371094 389.65625 474.621094 409.464844 481.015625 C 410.144531 481.238281 410.703125 481.710938 411.027344 482.34375 C 411.351562 482.984375 411.410156 483.714844 411.191406 484.390625 C 410.835938 485.503906 409.804688 486.25 408.632812 486.25 C 408.359375 486.25 408.085938 486.203125 407.8125 486.125 C 401.75 484.164062 395.488281 482.519531 388.675781 481.082031 L 382.457031 479.777344 L 390.128906 572.582031 L 474.707031 672.820312 L 475.117188 673.136719 C 475.445312 673.386719 475.707031 673.699219 475.886719 674.050781 L 476.128906 674.523438 L 494.957031 696.40625 L 487.929688 696.40625 L 471.769531 677.683594 L 357.011719 658.179688 L 365.222656 668.023438 C 372.558594 676.828125 384.140625 688.832031 392.515625 696.40625 L 384.152344 696.40625 " fill-opacity="1" fill-rule="nonzero"/><path fill="#f0f0f0" d="M 441.871094 283.304688 L 437.046875 299.261719 C 432.933594 312.871094 429.472656 326.613281 426.765625 340.089844 L 425.75 345.136719 L 489.988281 371.597656 Z M 447.726562 279.332031 L 538.472656 445.820312 L 561.347656 302.328125 L 556.128906 300.480469 C 516.847656 286.507812 482.183594 281.734375 460.027344 280.1875 Z M 424.464844 351.910156 L 423.191406 360.40625 C 418.523438 391.601562 417.578125 422.933594 420.378906 453.519531 L 420.742188 457.417969 L 568.371094 515.390625 L 495.121094 381.007812 Z M 568.179688 304.886719 L 544.070312 456.089844 L 598.3125 555.597656 L 647.085938 349.257812 L 643.6875 346.746094 C 623.292969 331.652344 600.71875 318.765625 576.578125 308.464844 Z M 421.433594 464.933594 L 423.183594 476.273438 C 427.910156 507.003906 436.511719 537.207031 448.730469 566.046875 L 449.808594 568.582031 L 637.550781 642.308594 L 573.402344 524.609375 Z M 530.441406 697.394531 C 447.777344 616.003906 374.832031 460.238281 434.863281 282.648438 C 436.894531 276.648438 441.929688 272.921875 448.015625 272.921875 L 448.5 272.929688 C 493.046875 274.109375 718.390625 293.125 780.023438 552.546875 C 792.707031 605.953125 785.628906 666.757812 780.179688 697.394531 L 772.847656 697.394531 C 777.789062 669.625 785.695312 607.28125 773.03125 553.984375 C 770.722656 544.257812 768.015625 534.355469 764.984375 524.5625 L 758.84375 504.667969 L 688.71875 697.394531 L 681.167969 697.394531 L 754.734375 495.15625 L 753.878906 492.996094 C 732.800781 440.117188 701.964844 395.898438 662.21875 361.570312 L 653.332031 353.882812 L 603.425781 564.980469 L 675.4375 697.394531 L 667.40625 697.394531 L 642.574219 651.519531 L 453.222656 577.164062 L 461.1875 592.59375 C 480.257812 629.511719 512.464844 670.367188 540.589844 697.394531 L 530.441406 697.394531 " fill-opacity="1" fill-rule="nonzero"/><path fill="#f0f0f0" d="M 1136.835938 423.191406 L 1128.183594 423.765625 C 1120.011719 424.3125 1107.03125 425.636719 1091.59375 428.863281 L 1087.457031 429.726562 L 1094.539062 496.859375 Z M 1141.015625 426.003906 L 1061.402344 564.660156 L 1155.914062 542.84375 L 1156.203125 539.832031 C 1159.402344 506.136719 1155.441406 471.453125 1144.421875 436.742188 Z M 1082.367188 430.890625 L 1076.585938 432.4375 C 1047.425781 440.253906 1020.964844 452.449219 997.945312 468.683594 L 995.753906 470.230469 L 1022.394531 622.488281 L 1090.128906 504.527344 Z M 1155.414062 547.632812 L 1058.304688 570.0625 L 1008.269531 657.199219 L 1124.488281 638.691406 L 1125.578125 636.746094 C 1140.226562 610.683594 1149.933594 582.847656 1154.425781 554 Z M 899.964844 696.503906 C 896.359375 674 893.683594 638.46875 901.617188 606.773438 C 945.25 432.429688 1104.8125 419.640625 1136.445312 418.851562 C 1138.132812 418.851562 1139.734375 419.21875 1141.191406 419.933594 L 1141.753906 420.199219 L 1142.136719 420.441406 C 1143.964844 421.589844 1145.332031 423.308594 1146.074219 425.402344 C 1186.792969 539.75 1145.433594 639.230469 1086.90625 696.503906 L 1079.722656 696.503906 C 1092.050781 684.242188 1106.691406 666.707031 1116.5 651.71875 L 1121.730469 643.722656 L 1005.363281 662.269531 L 985.820312 696.503906 L 980.015625 696.503906 L 1018.375 629.503906 L 991.070312 473.507812 L 984.257812 479.160156 C 950.699219 506.960938 926.339844 544.113281 911.863281 589.566406 L 911.382812 591.070312 L 967.25 696.503906 L 961.554688 696.503906 L 909.039062 597.503906 L 906.042969 610.5 C 898.824219 641.777344 902.246094 677.433594 905.289062 696.503906 L 899.964844 696.503906 " fill-opacity="1" fill-rule="nonzero"/><path fill="#346ee3" d="M 539.734375 590.457031 L 539.734375 696.390625 L 409.023438 696.390625 C 402.496094 696.390625 397.207031 691.109375 397.207031 684.597656 L 397.207031 602.253906 C 397.207031 595.742188 402.496094 590.457031 409.023438 590.457031 L 539.734375 590.457031 " fill-opacity="1" fill-rule="nonzero"/><path fill="#f9f9f9" d="M 425.070312 652.191406 C 433.773438 652.191406 440.824219 659.226562 440.824219 667.921875 C 440.824219 676.609375 433.773438 683.652344 425.070312 683.652344 C 416.375 683.652344 409.324219 676.609375 409.324219 667.921875 C 409.324219 659.226562 416.375 652.191406 425.070312 652.191406 " fill-opacity="1" fill-rule="nonzero"/><path fill="#f0f0f0" d="M 440.582031 670.339844 C 440.699219 669.542969 440.824219 668.746094 440.824219 667.921875 C 440.824219 667.097656 440.699219 666.300781 440.582031 665.503906 L 409.566406 665.503906 C 409.441406 666.300781 409.324219 667.097656 409.324219 667.921875 C 409.324219 668.746094 409.441406 669.542969 409.566406 670.339844 L 440.582031 670.339844 " fill-opacity="1" fill-rule="nonzero"/><path fill="#f9f9f9" d="M 436.207031 607.804688 C 442.359375 613.949219 442.359375 623.910156 436.207031 630.054688 C 430.054688 636.199219 420.085938 636.199219 413.933594 630.054688 C 407.785156 623.910156 407.785156 613.949219 413.933594 607.804688 C 420.085938 601.664062 430.054688 601.664062 436.207031 607.804688 " fill-opacity="1" fill-rule="nonzero"/><path fill="#f0f0f0" d="M 434.328125 631.59375 C 434.976562 631.117188 435.625 630.644531 436.207031 630.054688 C 436.796875 629.472656 437.269531 628.824219 437.75 628.175781 L 415.816406 606.269531 C 415.171875 606.742188 414.523438 607.222656 413.933594 607.804688 C 413.351562 608.394531 412.871094 609.042969 412.398438 609.683594 L 434.328125 631.59375 " fill-opacity="1" fill-rule="nonzero"/><path fill="#f9f9f9" d="M 470.175781 652.191406 C 478.871094 652.191406 485.921875 659.226562 485.921875 667.921875 C 485.921875 676.609375 478.871094 683.652344 470.175781 683.652344 C 461.480469 683.652344 454.429688 676.609375 454.429688 667.921875 C 454.429688 659.226562 461.480469 652.191406 470.175781 652.191406 " fill-opacity="1" fill-rule="nonzero"/><path fill="#f0f0f0" d="M 485.679688 670.339844 C 485.804688 669.542969 485.921875 668.746094 485.921875 667.921875 C 485.921875 667.097656 485.804688 666.300781 485.679688 665.503906 L 454.675781 665.503906 C 454.550781 666.300781 454.425781 667.097656 454.425781 667.921875 C 454.425781 668.746094 454.550781 669.542969 454.675781 670.339844 L 485.679688 670.339844 " fill-opacity="1" fill-rule="nonzero"/><path fill="#f9f9f9" d="M 481.3125 607.804688 C 487.464844 613.949219 487.464844 623.910156 481.3125 630.054688 C 475.164062 636.199219 465.191406 636.199219 459.039062 630.054688 C 452.890625 623.910156 452.890625 613.949219 459.039062 607.804688 C 465.191406 601.664062 475.164062 601.664062 481.3125 607.804688 " fill-opacity="1" fill-rule="nonzero"/><path fill="#f0f0f0" d="M 479.433594 631.59375 C 480.082031 631.117188 480.730469 630.644531 481.3125 630.054688 C 481.898438 629.472656 482.375 628.824219 482.847656 628.175781 L 460.921875 606.269531 C 460.273438 606.742188 459.625 607.222656 459.039062 607.804688 C 458.457031 608.394531 457.980469 609.042969 457.507812 609.683594 L 479.433594 631.59375 " fill-opacity="1" fill-rule="nonzero"/><path fill="#f9f9f9" d="M 515.277344 652.191406 C 523.980469 652.191406 531.03125 659.226562 531.03125 667.921875 C 531.03125 676.609375 523.980469 683.652344 515.277344 683.652344 C 506.582031 683.652344 499.53125 676.609375 499.53125 667.921875 C 499.53125 659.226562 506.582031 652.191406 515.277344 652.191406 " fill-opacity="1" fill-rule="nonzero"/><path fill="#f0f0f0" d="M 530.785156 670.339844 C 530.90625 669.542969 531.03125 668.746094 531.03125 667.921875 C 531.03125 667.097656 530.90625 666.300781 530.785156 665.503906 L 499.773438 665.503906 C 499.648438 666.300781 499.53125 667.097656 499.53125 667.921875 C 499.53125 668.746094 499.648438 669.542969 499.773438 670.339844 L 530.785156 670.339844 " fill-opacity="1" fill-rule="nonzero"/><path fill="#f9f9f9" d="M 526.414062 607.804688 C 532.5625 613.949219 532.5625 623.910156 526.414062 630.054688 C 520.261719 636.199219 510.292969 636.199219 504.140625 630.054688 C 497.996094 623.910156 497.996094 613.949219 504.140625 607.804688 C 510.292969 601.664062 520.261719 601.664062 526.414062 607.804688 " fill-opacity="1" fill-rule="nonzero"/><path fill="#f0f0f0" d="M 524.53125 631.59375 C 525.179688 631.117188 525.832031 630.644531 526.414062 630.054688 C 527.003906 629.472656 527.476562 628.824219 527.953125 628.175781 L 506.019531 606.269531 C 505.378906 606.742188 504.730469 607.222656 504.140625 607.804688 C 503.558594 608.394531 503.085938 609.042969 502.605469 609.683594 L 524.53125 631.59375 " fill-opacity="1" fill-rule="nonzero"/><path fill="#5eacff" d="M 576.84375 234.503906 C 576.84375 215.765625 561.039062 200.71875 542.019531 201.949219 C 524.65625 203.070312 511.53125 218.242188 511.53125 235.625 L 511.53125 386.664062 C 511.53125 392.457031 516.226562 397.152344 522.023438 397.152344 C 527.820312 397.152344 532.519531 401.84375 532.519531 407.636719 L 532.519531 423.890625 C 532.519531 430.199219 537.253906 435.855469 543.558594 436.1875 C 550.292969 436.542969 555.863281 431.191406 555.863281 424.546875 L 555.863281 407.636719 C 555.863281 401.84375 560.558594 397.152344 566.355469 397.152344 C 572.148438 397.152344 576.84375 392.457031 576.84375 386.664062 L 576.84375 234.503906 " fill-opacity="1" fill-rule="nonzero"/><path fill="#346ee3" d="M 552.941406 230.6875 C 551.851562 227.222656 548.40625 224.511719 544.660156 224.3125 C 540.367188 224.09375 536.4375 226.964844 535.441406 230.898438 C 535.441406 230.898438 535.441406 231.460938 535.441406 231.777344 L 535.441406 423.675781 C 535.441406 428.40625 538.988281 432.652344 543.722656 432.902344 C 548.765625 433.167969 552.941406 429.152344 552.941406 424.171875 L 552.941406 231.777344 C 552.941406 231.371094 552.941406 230.6875 552.941406 230.6875 " fill-opacity="1" fill-rule="nonzero"/><path fill="#346ee3" d="M 562.375 379.703125 L 526.007812 379.703125 C 524.5625 379.703125 523.390625 378.539062 523.390625 377.09375 C 523.390625 375.648438 524.5625 374.480469 526.007812 374.480469 L 562.375 374.480469 C 563.820312 374.480469 564.984375 375.648438 564.984375 377.09375 C 564.984375 378.539062 563.820312 379.703125 562.375 379.703125 " fill-opacity="1" fill-rule="nonzero"/><path fill="#346ee3" d="M 562.375 348.710938 L 526.007812 348.710938 C 524.5625 348.710938 523.390625 347.539062 523.390625 346.097656 C 523.390625 344.652344 524.5625 343.488281 526.007812 343.488281 L 562.375 343.488281 C 563.820312 343.488281 564.984375 344.652344 564.984375 346.097656 C 564.984375 347.539062 563.820312 348.710938 562.375 348.710938 " fill-opacity="1" fill-rule="nonzero"/><path fill="#346ee3" d="M 562.375 317.714844 L 526.007812 317.714844 C 524.5625 317.714844 523.390625 316.542969 523.390625 315.105469 C 523.390625 313.660156 524.5625 312.488281 526.007812 312.488281 L 562.375 312.488281 C 563.820312 312.488281 564.984375 313.660156 564.984375 315.105469 C 564.984375 316.542969 563.820312 317.714844 562.375 317.714844 " fill-opacity="1" fill-rule="nonzero"/><path fill="#346ee3" d="M 562.375 286.714844 L 526.007812 286.714844 C 524.5625 286.714844 523.390625 285.550781 523.390625 284.105469 C 523.390625 282.664062 524.5625 281.492188 526.007812 281.492188 L 562.375 281.492188 C 563.820312 281.492188 564.984375 282.664062 564.984375 284.105469 C 564.984375 285.550781 563.820312 286.714844 562.375 286.714844 " fill-opacity="1" fill-rule="nonzero"/><path fill="#346ee3" d="M 562.375 255.714844 L 526.007812 255.714844 C 524.5625 255.714844 523.390625 254.550781 523.390625 253.109375 C 523.390625 251.664062 524.5625 250.5 526.007812 250.5 L 562.375 250.5 C 563.820312 250.5 564.984375 251.664062 564.984375 253.109375 C 564.984375 254.550781 563.820312 255.714844 562.375 255.714844 " fill-opacity="1" fill-rule="nonzero"/><path fill="#f54755" d="M 535.441406 326.496094 L 535.441406 423.675781 C 535.441406 428.40625 538.988281 432.652344 543.722656 432.902344 C 548.765625 433.167969 552.941406 429.152344 552.941406 424.171875 L 552.941406 326.496094 L 535.441406 326.496094 " fill-opacity="1" fill-rule="nonzero"/><path fill="#5eacff" d="M 632.757812 696.390625 L 536.316406 696.390625 C 523.949219 696.390625 513.925781 686.378906 513.925781 674.03125 L 513.925781 542.960938 C 513.925781 530.605469 523.949219 520.59375 536.316406 520.59375 L 632.757812 520.59375 C 645.125 520.59375 655.148438 530.605469 655.148438 542.960938 L 655.148438 674.03125 C 655.148438 686.378906 645.125 696.390625 632.757812 696.390625 " fill-opacity="1" fill-rule="nonzero"/><path fill="#1f3b80" d="M 623.5 520.59375 L 545.574219 520.59375 C 539.667969 520.59375 534.863281 515.804688 534.863281 509.894531 L 534.863281 469.34375 C 534.863281 463.445312 539.667969 458.652344 545.574219 458.652344 L 623.5 458.652344 C 629.414062 458.652344 634.207031 463.445312 634.207031 469.34375 L 634.207031 509.894531 C 634.207031 515.804688 629.414062 520.59375 623.5 520.59375 " fill-opacity="1" fill-rule="nonzero"/><path fill="#ffffff" d="M 513.925781 558.441406 L 513.925781 651.351562 L 655.148438 651.351562 L 655.148438 558.441406 L 513.925781 558.441406 " fill-opacity="1" fill-rule="nonzero"/><path fill="#f54755" d="M 624.886719 612.230469 C 624.886719 614.699219 622.886719 616.691406 620.425781 616.691406 L 600.800781 616.691406 C 598.335938 616.691406 596.335938 618.6875 596.335938 621.148438 L 596.335938 640.753906 C 596.335938 643.214844 594.347656 645.203125 591.882812 645.203125 L 577.191406 645.203125 C 574.726562 645.203125 572.730469 643.214844 572.730469 640.753906 L 572.730469 621.148438 C 572.730469 618.6875 570.738281 616.691406 568.273438 616.691406 L 548.648438 616.691406 C 546.1875 616.691406 544.1875 614.699219 544.1875 612.230469 L 544.1875 597.5625 C 544.1875 595.101562 546.1875 593.105469 548.648438 593.105469 L 568.273438 593.105469 C 570.738281 593.105469 572.730469 591.113281 572.730469 588.644531 L 572.730469 569.046875 C 572.730469 566.585938 574.726562 564.589844 577.191406 564.589844 L 591.882812 564.589844 C 594.347656 564.589844 596.335938 566.585938 596.335938 569.046875 L 596.335938 588.644531 C 596.335938 591.113281 598.335938 593.105469 600.800781 593.105469 L 620.425781 593.105469 C 622.886719 593.105469 624.886719 595.101562 624.886719 597.5625 Z M 513.925781 558.441406 L 513.925781 651.351562 L 655.148438 651.351562 L 655.148438 558.441406 L 513.925781 558.441406 " fill-opacity="1" fill-rule="nonzero"/><path fill="#1a356b" d="M 384.796875 317.683594 C 387.367188 309.703125 382.355469 299.859375 383.488281 291.5625 C 383.992188 287.914062 386.167969 286.132812 387.164062 282.816406 C 390.976562 270.152344 368.871094 259.527344 349.828125 276.246094 C 340.167969 284.726562 340.648438 296.675781 337.683594 307.964844 C 332.941406 326.03125 308.707031 328.507812 301.617188 344.378906 C 292.238281 365.386719 333.207031 395.832031 360.707031 366.21875 C 371.777344 354.3125 362.898438 346.015625 375.496094 330.585938 C 378.585938 326.796875 383.304688 322.3125 384.796875 317.683594 " fill-opacity="1" fill-rule="nonzero"/><path fill="#346ee3" d="M 378.933594 297.375 C 371.4375 291.496094 369.253906 285.609375 370.066406 280.996094 C 370.878906 276.378906 377.117188 266.238281 388.164062 270.34375 C 399.214844 274.453125 394.082031 291.496094 394.082031 291.496094 L 378.933594 297.375 " fill-opacity="1" fill-rule="nonzero"/><path fill="#1f3b80" d="M 384.277344 320.644531 C 371.417969 310.535156 367.667969 300.433594 369.0625 292.507812 C 370.457031 284.570312 381.167969 267.167969 400.144531 274.21875 C 419.125 281.269531 410.296875 310.535156 410.296875 310.535156 L 384.277344 320.644531 " fill-opacity="1" fill-rule="nonzero"/><path fill="#e0e0e0" d="M 421.140625 378.214844 L 380.761719 467.222656 L 359.800781 581.128906 L 421.140625 578.707031 L 433.898438 540.492188 L 428.144531 438.140625 L 421.140625 378.214844 " fill-opacity="1" fill-rule="nonzero"/><path fill="#f54755" d="M 364.445312 680.675781 C 365.433594 683.75 367.085938 692.289062 366.0625 695.933594 C 365.8125 696.820312 364.957031 697.386719 364.042969 697.386719 L 351.746094 697.394531 C 350.640625 697.394531 349.742188 696.53125 349.628906 695.425781 C 348.878906 688.289062 355.226562 679.238281 355.226562 679.238281 L 362.257812 679.253906 C 363.230469 679.15625 364.152344 679.738281 364.445312 680.675781 " fill-opacity="1" fill-rule="nonzero"/><path fill="#f7af81" d="M 373.902344 451.816406 C 360.5 488.894531 356.984375 664.863281 355.226562 679.238281 C 354.890625 682.007812 356.828125 697.394531 364.445312 680.675781 C 364.445312 680.675781 406.800781 460.28125 406.332031 455.367188 C 405.867188 450.460938 373.902344 451.816406 373.902344 451.816406 " fill-opacity="1" fill-rule="nonzero"/><path fill="#f54755" d="M 452.027344 674.089844 C 449.71875 676.300781 446.722656 681.367188 449.949219 686.054688 L 453.023438 696.714844 L 455.117188 696.714844 C 455.117188 696.714844 453.722656 689.046875 455.464844 689.304688 C 462.53125 690.34375 465.945312 697.386719 468.386719 697.386719 C 470.828125 697.386719 483.453125 697.394531 483.453125 697.394531 C 483.453125 697.394531 483.992188 694.441406 479.75 691.449219 C 467.707031 682.9375 459.152344 674.773438 459.152344 674.773438 L 452.027344 674.089844 " fill-opacity="1" fill-rule="nonzero"/><path fill="#f7af81" d="M 467.125 681.816406 C 464.890625 679.4375 462.75 677.789062 461.871094 676.078125 C 456.421875 665.503906 440.59375 587.628906 440.59375 587.628906 C 437.304688 571.832031 414.296875 449 414.296875 449 L 373.902344 481.328125 L 420.609375 592.652344 C 416.101562 612.078125 447.1875 655.917969 452.027344 674.089844 C 453.371094 679.121094 473.546875 688.65625 467.125 681.816406 " fill-opacity="1" fill-rule="nonzero"/><path fill="#45a1f4" d="M 461.910156 674.089844 C 460.09375 662.011719 414.296875 449 414.296875 449 L 373.902344 481.328125 C 373.902344 481.328125 407.613281 569.40625 415.226562 595.453125 C 422.15625 619.136719 442.4375 655.917969 447.277344 674.089844 C 448.621094 679.121094 462.203125 676.054688 461.910156 674.089844 " fill-opacity="1" fill-rule="nonzero"/><path fill="#5eacff" d="M 367.464844 451.984375 C 354.0625 489.0625 358.621094 525.851562 358.589844 534.304688 C 358.53125 548.480469 354.054688 665.078125 354.0625 676.3125 C 354.070312 679.097656 365.050781 682.902344 368.179688 677.410156 C 368.179688 677.410156 379.75 601.6875 392.847656 538.828125 C 402.761719 491.273438 411.410156 455.972656 411.207031 453.859375 C 410.742188 448.941406 367.464844 451.984375 367.464844 451.984375 " fill-opacity="1" fill-rule="nonzero"/><path fill="#ffffff" d="M 421.074219 352.617188 C 426.332031 358.320312 448.839844 406.464844 450.671875 412.019531 C 452.476562 419.261719 446.679688 423.816406 437.019531 421.386719 C 431.191406 419.910156 405.703125 375.105469 405.3125 361.589844 C 404.871094 346.507812 414.988281 346.042969 421.074219 352.617188 " fill-opacity="1" fill-rule="nonzero"/><path fill="#346ee3" d="M 380.769531 342.972656 C 380.769531 342.972656 361.535156 348.5 359.195312 351.769531 C 356.851562 355.046875 369.832031 413.355469 370.695312 425.3125 C 371.4375 435.605469 370.28125 443.160156 367.464844 451.984375 C 366.460938 455.140625 414.679688 463.058594 414.296875 449 C 413.152344 407.179688 431.574219 394.703125 426.089844 376.085938 C 423.351562 366.785156 417.636719 350.738281 414.589844 348.636719 C 411.542969 346.53125 400.203125 343.082031 400.203125 343.082031 L 380.769531 342.972656 " fill-opacity="1" fill-rule="nonzero"/><path fill="#ededed" d="M 423.5 403.089844 C 424.257812 405.859375 427.636719 414.9375 432.445312 417.796875 C 438.566406 421.4375 448.796875 419.277344 448.738281 411.460938 C 448.722656 409.625 446.65625 406.367188 445.34375 405.328125 C 440.464844 401.433594 435.589844 397.417969 427.886719 395.027344 C 427.886719 395.027344 422.488281 399.367188 423.5 403.089844 " fill-opacity="1" fill-rule="nonzero"/><path fill="#ed996f" d="M 384.757812 314.625 C 383.777344 332.539062 379.542969 341.992188 378.546875 343.988281 C 378.421875 344.238281 378.472656 344.519531 378.671875 344.710938 C 381.179688 347.082031 397.164062 361.828125 402.1875 357.765625 C 404.753906 355.691406 401.648438 345.910156 400.203125 343.082031 C 396.832031 336.503906 399.464844 313.136719 399.464844 313.136719 C 399.464844 313.136719 384.949219 311.050781 384.757812 314.625 " fill-opacity="1" fill-rule="nonzero"/><path fill="#fae0d4" d="M 400.136719 342.941406 C 397.398438 337.296875 398.769531 320.242188 399.292969 314.808594 C 398.769531 320.242188 397.40625 337.304688 400.144531 342.941406 C 400.144531 342.941406 400.136719 342.941406 400.136719 342.941406 " fill-opacity="1" fill-rule="nonzero"/><path fill="#1e346a" d="M 399.292969 314.808594 C 399.390625 313.769531 399.457031 313.160156 399.464844 313.136719 C 399.457031 313.160156 399.390625 313.769531 399.292969 314.808594 " fill-opacity="1" fill-rule="nonzero"/><path fill="#fae0d4" d="M 382.988281 329.480469 C 382.988281 329.480469 382.980469 329.472656 382.980469 329.464844 C 383.480469 326.871094 383.933594 323.941406 384.277344 320.636719 L 384.285156 320.636719 C 383.941406 323.945312 383.488281 326.886719 382.988281 329.480469 " fill-opacity="1" fill-rule="nonzero"/><path fill="#1e346a" d="M 384.277344 320.636719 C 384.464844 318.898438 384.617188 317.066406 384.730469 315.113281 C 384.617188 317.058594 384.464844 318.898438 384.285156 320.636719 L 384.277344 320.636719 M 384.734375 315.082031 C 384.734375 315.0625 384.734375 315.046875 384.734375 315.03125 C 384.734375 315.046875 384.734375 315.0625 384.734375 315.082031 M 384.742188 314.949219 C 384.742188 314.941406 384.742188 314.9375 384.742188 314.929688 C 384.742188 314.9375 384.742188 314.941406 384.742188 314.949219 M 384.742188 314.839844 C 384.742188 314.839844 384.742188 314.832031 384.742188 314.832031 C 384.742188 314.832031 384.742188 314.839844 384.742188 314.839844 M 384.75 314.738281 C 384.75 314.738281 384.75 314.730469 384.75 314.722656 C 384.75 314.730469 384.75 314.738281 384.75 314.738281 " fill-opacity="1" fill-rule="nonzero"/><path fill="#e8875c" d="M 397.703125 343.449219 C 392.546875 343.449219 386.75 336.960938 382.988281 329.480469 C 383.488281 326.886719 383.941406 323.945312 384.285156 320.636719 C 384.464844 318.898438 384.617188 317.058594 384.730469 315.113281 C 384.730469 315.105469 384.730469 315.089844 384.734375 315.082031 C 384.734375 315.0625 384.734375 315.046875 384.734375 315.03125 C 384.734375 315 384.734375 314.980469 384.742188 314.949219 C 384.742188 314.941406 384.742188 314.9375 384.742188 314.929688 C 384.742188 314.898438 384.742188 314.871094 384.742188 314.839844 C 384.742188 314.839844 384.742188 314.832031 384.742188 314.832031 C 384.75 314.804688 384.75 314.773438 384.75 314.738281 C 384.75 314.738281 384.75 314.730469 384.75 314.722656 C 384.757812 314.683594 384.757812 314.65625 384.757812 314.625 C 384.847656 312.976562 387.988281 312.535156 391.34375 312.535156 C 395.261719 312.535156 399.464844 313.136719 399.464844 313.136719 C 399.457031 313.160156 399.390625 313.769531 399.292969 314.808594 C 398.769531 320.242188 397.398438 337.296875 400.136719 342.941406 C 399.5 343.1875 398.867188 343.371094 398.226562 343.429688 C 398.046875 343.445312 397.878906 343.449219 397.703125 343.449219 " fill-opacity="1" fill-rule="nonzero"/><path fill="#ed996f" d="M 397.902344 289.640625 C 406.242188 286.117188 414.429688 289.980469 412.984375 305.371094 C 411.730469 318.664062 405.171875 335.566406 398.453125 336.503906 C 392.628906 337.3125 385.878906 325.015625 383.960938 314.625 C 382.589844 312.761719 393.097656 291.660156 397.902344 289.640625 " fill-opacity="1" fill-rule="nonzero"/><path fill="#f5f5f5" d="M 400.144531 342.941406 C 410.960938 352.652344 421.148438 373.175781 421.140625 386.804688 C 421.140625 400.429688 433.898438 540.492188 433.898438 540.492188 C 433.898438 540.492188 429.53125 383.21875 427.195312 373.445312 C 424.855469 363.667969 420.359375 353.332031 415.59375 349 C 412.398438 346.097656 400.144531 342.941406 400.144531 342.941406 " fill-opacity="1" fill-rule="nonzero"/><path fill="#ed996f" d="M 381.261719 304.714844 C 382.878906 302.792969 385.324219 303.144531 386.777344 308.023438 C 388.039062 312.230469 388.4375 318.089844 386.910156 319.054688 C 385.589844 319.894531 382.109375 317 380.8125 313.800781 C 378.894531 309.054688 380.332031 305.820312 381.261719 304.714844 " fill-opacity="1" fill-rule="nonzero"/><path fill="#ffcc4d" d="M 431.355469 427.648438 L 407.445312 427.648438 C 405.761719 427.648438 404.890625 426.285156 405.503906 424.605469 L 423.035156 376.492188 C 423.648438 374.808594 425.507812 373.445312 427.195312 373.445312 L 451.097656 373.445312 C 452.785156 373.445312 453.65625 374.808594 453.039062 376.492188 L 435.515625 424.605469 C 434.902344 426.285156 433.035156 427.648438 431.355469 427.648438 " fill-opacity="1" fill-rule="nonzero"/><path fill="#4976de" d="M 435.824219 371.855469 C 435.410156 371.855469 434.910156 372.222656 434.753906 372.652344 L 434.003906 374.65625 L 433.988281 374.972656 L 434.203125 375.039062 L 443.566406 375.039062 C 443.972656 375.039062 444.480469 374.664062 444.636719 374.242188 L 445.390625 372.238281 L 445.398438 371.921875 L 445.191406 371.855469 Z M 443.566406 376.238281 L 434.203125 376.238281 C 433.699219 376.238281 433.265625 376.027344 433.007812 375.65625 C 432.742188 375.265625 432.691406 374.757812 432.882812 374.242188 L 433.632812 372.238281 C 433.949219 371.347656 434.917969 370.65625 435.824219 370.65625 L 445.191406 370.65625 C 445.683594 370.65625 446.121094 370.859375 446.378906 371.230469 C 446.652344 371.613281 446.703125 372.136719 446.511719 372.652344 L 445.757812 374.65625 C 445.441406 375.539062 444.476562 376.238281 443.566406 376.238281 " fill-opacity="1" fill-rule="nonzero"/><path fill="#f5f5f5" d="M 378.9375 343.449219 C 391.824219 358.445312 401.019531 370.523438 398.492188 398.160156 C 395.96875 425.800781 377.707031 587.519531 377.707031 587.519531 L 343.921875 584.4375 C 343.921875 584.4375 354.386719 432.996094 357.972656 417.945312 C 361.5625 402.890625 357.90625 351.769531 357.90625 351.769531 C 362.921875 346.457031 378.9375 343.449219 378.9375 343.449219 " fill-opacity="1" fill-rule="nonzero"/><path fill="#ededed" d="M 370.5625 358.476562 C 376.785156 378.574219 367.664062 403.382812 367.027344 413.089844 C 367.066406 413.109375 390.445312 406.921875 401.292969 403.703125 C 404.28125 402.816406 406.75 408.691406 406.273438 409.101562 C 396.058594 417.929688 364.308594 433.933594 352.992188 432.363281 C 346 431.382812 350.101562 374.824219 352.152344 363.066406 C 354.875 347.414062 366.828125 346.433594 370.5625 358.476562 " fill-opacity="1" fill-rule="nonzero"/><path fill="#ed996f" d="M 418.714844 398.910156 C 413.335938 396.320312 411.132812 396.613281 401.980469 403.78125 C 398.195312 409.234375 406.648438 409.675781 408.734375 409.148438 C 411.265625 408.5 415.234375 405.652344 418.351562 405.101562 C 424.140625 404.078125 423.351562 401.152344 418.714844 398.910156 " fill-opacity="1" fill-rule="nonzero"/><path fill="#ffcc4d" d="M 852.839844 603.101562 L 602.457031 603.101562 C 594.855469 603.101562 588.6875 596.941406 588.6875 589.347656 L 588.6875 183.207031 C 588.6875 175.601562 594.855469 169.449219 602.457031 169.449219 L 852.839844 169.449219 C 860.441406 169.449219 866.609375 175.601562 866.609375 183.207031 L 866.609375 589.347656 C 866.609375 596.941406 860.441406 603.101562 852.839844 603.101562 " fill-opacity="1" fill-rule="nonzero"/><path fill="#ffffff" d="M 843.097656 571.433594 L 614.464844 571.433594 C 612.695312 571.433594 611.257812 569.996094 611.257812 568.226562 L 611.257812 200.070312 C 611.257812 198.304688 612.695312 196.867188 614.464844 196.867188 L 843.097656 196.867188 C 844.867188 196.867188 846.304688 198.304688 846.304688 200.070312 L 846.304688 568.226562 C 846.304688 569.996094 844.867188 571.433594 843.097656 571.433594 " fill-opacity="1" fill-rule="nonzero"/><path fill="#346ee3" d="M 787.863281 221.234375 L 669.941406 221.234375 C 667.929688 221.234375 666.289062 219.597656 666.289062 217.585938 L 666.289062 186.851562 C 666.289062 184.839844 667.929688 183.210938 669.941406 183.210938 L 787.863281 183.210938 C 789.875 183.210938 791.515625 184.839844 791.515625 186.851562 L 791.515625 217.585938 C 791.515625 219.597656 789.875 221.234375 787.863281 221.234375 " fill-opacity="1" fill-rule="nonzero"/><path fill="#f0f0f0" d="M 766.636719 191.207031 C 766.636719 192.277344 765.765625 193.136719 764.699219 193.136719 L 693.105469 193.136719 C 692.039062 193.136719 691.167969 192.277344 691.167969 191.207031 L 691.167969 156.886719 C 691.167969 155.816406 692.039062 154.953125 693.105469 154.953125 L 764.699219 154.953125 C 765.765625 154.953125 766.636719 155.816406 766.636719 156.886719 Z M 764.699219 147.503906 L 693.105469 147.503906 C 687.929688 147.503906 683.71875 151.714844 683.71875 156.886719 L 683.71875 191.207031 C 683.71875 196.378906 687.929688 200.585938 693.105469 200.585938 L 764.699219 200.585938 C 769.882812 200.585938 774.09375 196.378906 774.09375 191.207031 L 774.09375 156.886719 C 774.09375 151.714844 769.882812 147.503906 764.699219 147.503906 " fill-opacity="1" fill-rule="nonzero"/><path fill="#ffffff" d="M 735.617188 464.296875 C 735.617188 492.929688 712.378906 516.148438 683.71875 516.148438 C 655.050781 516.148438 631.8125 492.929688 631.8125 464.296875 C 631.8125 435.65625 655.050781 412.441406 683.71875 412.441406 C 712.378906 412.441406 735.617188 435.65625 735.617188 464.296875 " fill-opacity="1" fill-rule="nonzero"/><path fill="#f0f0f0" d="M 724.84375 497.875 C 720.726562 485.429688 710.59375 475.742188 697.738281 472.484375 C 703.609375 469.152344 707.605469 462.929688 707.605469 455.707031 C 707.605469 445.015625 698.925781 436.34375 688.222656 436.34375 C 677.515625 436.34375 668.835938 445.015625 668.835938 455.707031 C 668.835938 462.929688 672.839844 469.152344 678.703125 472.484375 C 665.847656 475.742188 655.722656 485.429688 651.605469 497.875 C 643.457031 489.019531 638.433594 477.246094 638.433594 464.296875 C 638.433594 436.867188 660.773438 414.554688 688.222656 414.554688 C 715.675781 414.554688 738.007812 436.867188 738.007812 464.296875 C 738.007812 477.246094 732.984375 489.019531 724.84375 497.875 Z M 688.222656 410.324219 C 658.4375 410.324219 634.207031 434.539062 634.207031 464.296875 C 634.207031 494.058594 658.4375 518.265625 688.222656 518.265625 C 718.003906 518.265625 742.242188 494.058594 742.242188 464.296875 C 742.242188 434.539062 718.003906 410.324219 688.222656 410.324219 " fill-opacity="1" fill-rule="nonzero"/><path fill="#5eacff" d="M 680.605469 553.027344 L 638.273438 553.027344 C 635.632812 553.027344 633.484375 550.890625 633.484375 548.246094 C 633.484375 545.609375 635.632812 543.464844 638.273438 543.464844 L 680.605469 543.464844 C 683.246094 543.464844 685.386719 545.609375 685.386719 548.246094 C 685.386719 550.890625 683.246094 553.027344 680.605469 553.027344 " fill-opacity="1" fill-rule="nonzero"/><path fill="#5eacff" d="M 779.441406 391.058594 L 638.273438 391.058594 C 635.632812 391.058594 633.484375 388.914062 633.484375 386.277344 C 633.484375 383.636719 635.632812 381.492188 638.273438 381.492188 L 779.441406 381.492188 C 782.082031 381.492188 784.226562 383.636719 784.226562 386.277344 C 784.226562 388.914062 782.082031 391.058594 779.441406 391.058594 " fill-opacity="1" fill-rule="nonzero"/><path fill="#5eacff" d="M 819.289062 368.453125 L 638.273438 368.453125 C 635.632812 368.453125 633.484375 366.308594 633.484375 363.667969 C 633.484375 361.03125 635.632812 358.886719 638.273438 358.886719 L 819.289062 358.886719 C 821.929688 358.886719 824.074219 361.03125 824.074219 363.667969 C 824.074219 366.308594 821.929688 368.453125 819.289062 368.453125 " fill-opacity="1" fill-rule="nonzero"/><path fill="#5eacff" d="M 819.289062 345.84375 L 638.273438 345.84375 C 635.632812 345.84375 633.484375 343.707031 633.484375 341.0625 C 633.484375 338.425781 635.632812 336.28125 638.273438 336.28125 L 819.289062 336.28125 C 821.929688 336.28125 824.074219 338.425781 824.074219 341.0625 C 824.074219 343.707031 821.929688 345.84375 819.289062 345.84375 " fill-opacity="1" fill-rule="nonzero"/><path fill="#5eacff" d="M 714.789062 316.171875 L 638.273438 316.171875 C 635.632812 316.171875 633.484375 314.027344 633.484375 311.390625 C 633.484375 308.753906 635.632812 306.609375 638.273438 306.609375 L 714.789062 306.609375 C 717.429688 306.609375 719.578125 308.753906 719.578125 311.390625 C 719.578125 314.027344 717.429688 316.171875 714.789062 316.171875 " fill-opacity="1" fill-rule="nonzero"/><path fill="#5eacff" d="M 714.789062 296.714844 L 638.273438 296.714844 C 635.632812 296.714844 633.484375 294.578125 633.484375 291.933594 C 633.484375 289.292969 635.632812 287.148438 638.273438 287.148438 L 714.789062 287.148438 C 717.429688 287.148438 719.578125 289.292969 719.578125 291.933594 C 719.578125 294.578125 717.429688 296.714844 714.789062 296.714844 " fill-opacity="1" fill-rule="nonzero"/><path fill="#346ee3" d="M 773.84375 245.328125 L 683.71875 245.328125 L 683.71875 231.9375 L 773.84375 231.9375 L 773.84375 245.328125 " fill-opacity="1" fill-rule="nonzero"/><path fill="#346ee3" d="M 799 270.1875 L 658.5625 270.1875 L 658.5625 256.800781 L 799 256.800781 L 799 270.1875 " fill-opacity="1" fill-rule="nonzero"/><path fill="#5eacff" d="M 819.289062 553.027344 L 753.707031 553.027344 C 751.070312 553.027344 748.921875 550.890625 748.921875 548.246094 C 748.921875 545.609375 751.070312 543.464844 753.707031 543.464844 L 819.289062 543.464844 C 821.929688 543.464844 824.074219 545.609375 824.074219 548.246094 C 824.074219 550.890625 821.929688 553.027344 819.289062 553.027344 " fill-opacity="1" fill-rule="nonzero"/><path fill="#f54755" d="M 993.210938 246.078125 C 948.375 201.980469 895.246094 248.324219 905.046875 295.976562 C 917.976562 358.777344 993.210938 384.058594 993.210938 384.058594 C 993.210938 384.058594 1068.453125 358.777344 1081.378906 295.976562 C 1091.183594 248.324219 1038.050781 201.980469 993.210938 246.078125 " fill-opacity="1" fill-rule="nonzero"/><path fill="#ffffff" d="M 1054.675781 303.757812 L 1013.261719 303.757812 C 1010.761719 303.757812 1008.515625 305.34375 1007.671875 307.671875 L 997.164062 336.445312 L 997.164062 261.390625 C 997.164062 258.488281 995.164062 256.085938 992.308594 255.546875 C 989.476562 254.980469 986.726562 256.527344 985.664062 259.230469 L 966.828125 307.617188 L 937.5 307.617188 C 934.960938 307.617188 932.894531 309.683594 932.894531 312.222656 C 932.894531 314.757812 934.960938 316.820312 937.5 316.820312 L 969.050781 316.820312 C 971.496094 316.820312 973.726562 315.296875 974.59375 313.042969 L 987.953125 278.75 L 987.953125 354.878906 C 987.953125 357.773438 990.023438 360.234375 992.871094 360.738281 C 993.21875 360.804688 993.5625 360.832031 993.910156 360.832031 C 996.375 360.832031 998.625 359.300781 999.492188 356.921875 L 1015.542969 312.960938 L 1054.675781 312.960938 C 1057.21875 312.960938 1059.277344 310.898438 1059.277344 308.355469 C 1059.277344 305.820312 1057.21875 303.757812 1054.675781 303.757812 " fill-opacity="1" fill-rule="nonzero"/><path fill="#1f3b80" d="M 917.277344 671.183594 C 912.386719 668.679688 797.613281 608.769531 797.613281 521.292969 L 797.613281 383.039062 C 797.613281 370.675781 807.289062 360.355469 819.648438 359.527344 C 861.128906 356.765625 896.707031 335.074219 910.078125 325.886719 C 914.023438 323.164062 918.640625 321.738281 923.417969 321.738281 C 928.21875 321.738281 932.851562 323.171875 936.796875 325.898438 C 950.132812 335.09375 985.636719 356.78125 1027.21875 359.527344 C 1039.578125 360.355469 1049.269531 370.683594 1049.269531 383.039062 L 1049.269531 521.292969 C 1049.269531 608.769531 934.488281 668.679688 929.597656 671.183594 L 923.433594 674.355469 L 917.277344 671.183594 " fill-opacity="1" fill-rule="nonzero"/><path fill="#346ee3" d="M 824.339844 377.558594 C 819.222656 377.898438 815.246094 382.128906 815.246094 387.246094 L 815.246094 520.40625 C 815.246094 597.695312 923.433594 653.222656 923.433594 653.222656 C 923.433594 653.222656 1031.628906 597.695312 1031.628906 520.40625 L 1031.628906 387.246094 C 1031.628906 382.128906 1027.644531 377.898438 1022.527344 377.558594 C 979.109375 374.683594 942.378906 352.183594 928.929688 342.898438 C 925.617188 340.621094 921.25 340.613281 917.9375 342.890625 C 904.449219 352.167969 867.625 374.675781 824.339844 377.558594 " fill-opacity="1" fill-rule="nonzero"/><path fill="#ffffff" d="M 990.15625 461.761719 L 957.933594 461.761719 C 954.652344 461.761719 951.996094 459.109375 951.996094 455.839844 L 951.996094 423.648438 C 951.996094 420.375 949.34375 417.714844 946.066406 417.714844 L 900.808594 417.714844 C 897.53125 417.714844 894.878906 420.375 894.878906 423.648438 L 894.878906 455.839844 C 894.878906 459.109375 892.214844 461.761719 888.941406 461.761719 L 856.71875 461.761719 C 853.441406 461.761719 850.789062 464.417969 850.789062 467.695312 L 850.789062 512.914062 C 850.789062 516.1875 853.441406 518.839844 856.71875 518.839844 L 888.941406 518.839844 C 892.214844 518.839844 894.878906 521.492188 894.878906 524.761719 L 894.878906 556.953125 C 894.878906 560.234375 897.53125 562.886719 900.808594 562.886719 L 946.066406 562.886719 C 949.34375 562.886719 951.996094 560.234375 951.996094 556.953125 L 951.996094 524.761719 C 951.996094 521.492188 954.652344 518.839844 957.933594 518.839844 L 990.15625 518.839844 C 993.429688 518.839844 996.085938 516.1875 996.085938 512.914062 L 996.085938 467.695312 C 996.085938 464.417969 993.429688 461.761719 990.15625 461.761719 " fill-opacity="1" fill-rule="nonzero"/><path fill="#ffcc4d" d="M 1109.6875 567.402344 C 1101.242188 558.457031 1079.597656 566.8125 1072.640625 567.898438 C 1068.386719 567.308594 1064.617188 566.0625 1062.042969 563.753906 C 1053.835938 556.378906 1063.589844 539.941406 1064.972656 519.398438 C 1065.398438 513.15625 1064.972656 493.210938 1052.585938 490.09375 C 1045.449219 488.296875 1042.816406 493.375 1042.394531 499.636719 C 1039.378906 544.636719 1004.164062 565.566406 998.179688 586.566406 C 996.65625 581.511719 992.007812 577.800781 986.441406 577.800781 L 977.234375 577.800781 C 970.429688 577.800781 964.910156 583.3125 964.910156 590.113281 L 964.910156 659.824219 C 964.910156 666.625 970.429688 672.136719 977.234375 672.136719 L 986.441406 672.136719 C 992.871094 672.136719 998.085938 667.207031 998.652344 660.929688 L 998.765625 661.003906 C 1006.398438 668.996094 1029.96875 667.765625 1057.308594 668.460938 C 1085.917969 669.195312 1094.683594 668.148438 1100.878906 659.390625 C 1106.398438 651.609375 1124.6875 583.289062 1109.6875 567.402344 " fill-opacity="1" fill-rule="nonzero"/><g clip-path="url(#f8af2fc39b)"><path fill="#1f3b80" d="M 1160.140625 709.292969 L 297.828125 709.292969 C 294.257812 709.292969 291.367188 706.414062 291.367188 702.847656 C 291.367188 699.28125 294.257812 696.390625 297.828125 696.390625 L 1160.140625 696.390625 C 1163.703125 696.390625 1166.59375 699.28125 1166.59375 702.847656 C 1166.59375 706.414062 1163.703125 709.292969 1160.140625 709.292969 " fill-opacity="1" fill-rule="nonzero"/></g></svg>