<svg xmlns="http://www.w3.org/2000/svg" xmlns:xlink="http://www.w3.org/1999/xlink" width="200" zoomAndPan="magnify" viewBox="0 0 150 149.999998" height="200" preserveAspectRatio="xMidYMid meet" version="1.0"><path fill="#f2e6dc" d="M 149.996094 75.164062 C 149.996094 116.53125 116.238281 149.886719 74.820312 149.886719 C 33.398438 149.886719 0.00390625 116.53125 0.00390625 75.164062 C 0.00390625 33.796875 33.582031 0.261719 75 0.261719 C 116.417969 0.261719 149.996094 33.796875 149.996094 75.164062 " fill-opacity="1" fill-rule="nonzero"/><path fill="#d3bba3" d="M 126.335938 36.527344 C 129.1875 30.050781 131.0625 23.734375 131.914062 18.320312 L 123.148438 23.601562 L 132.402344 13.726562 C 132.683594 7.949219 131.464844 3.796875 128.648438 2.5625 C 122.796875 -0.00390625 112.269531 11.042969 105.140625 27.234375 C 98.007812 43.425781 96.96875 58.628906 102.824219 61.195312 C 108.675781 63.761719 119.203125 52.71875 126.335938 36.527344 " fill-opacity="1" fill-rule="nonzero"/><path fill="#e6d0be" d="M 133.566406 58.089844 L 126.011719 55.214844 L 135.863281 55.707031 C 144.996094 45.746094 149.179688 35.222656 145.257812 31.171875 C 140.921875 26.703125 128.351562 31.816406 117.175781 42.589844 C 106 53.371094 100.449219 65.730469 104.78125 70.199219 C 109.113281 74.667969 121.6875 69.554688 132.863281 58.777344 C 133.101562 58.550781 133.335938 58.320312 133.566406 58.089844 " fill-opacity="1" fill-rule="nonzero"/><path fill="#e6d0be" d="M 93.5625 37.914062 L 97.996094 41.855469 L 94.347656 35.617188 C 97.765625 26.3125 103.230469 20.035156 107.203125 21.21875 C 111.585938 22.523438 112.496094 32.425781 109.230469 43.335938 C 105.964844 54.246094 99.765625 62.03125 95.378906 60.726562 C 90.996094 59.417969 90.085938 49.515625 93.351562 38.605469 C 93.421875 38.375 93.492188 38.144531 93.5625 37.914062 " fill-opacity="1" fill-rule="nonzero"/><path fill="#e6d0be" d="M 102.769531 61.347656 C 102.738281 61.347656 102.710938 61.339844 102.679688 61.324219 C 102.59375 61.273438 102.566406 61.164062 102.617188 61.078125 C 120.464844 30.261719 125.582031 8.648438 125.632812 8.433594 C 125.65625 8.335938 125.75 8.273438 125.847656 8.296875 C 125.945312 8.320312 126.007812 8.417969 125.984375 8.511719 C 125.933594 8.726562 120.804688 30.394531 102.925781 61.257812 C 102.894531 61.316406 102.832031 61.347656 102.769531 61.347656 " fill-opacity="1" fill-rule="nonzero"/><path fill="#ffffff" d="M 83.046875 95.015625 C 83.007812 95.015625 82.96875 95.003906 82.9375 94.976562 C 82.855469 94.914062 82.84375 94.800781 82.90625 94.722656 C 110.214844 59.792969 136.628906 37.546875 136.894531 37.328125 C 136.96875 37.265625 137.082031 37.273438 137.148438 37.351562 C 137.210938 37.425781 137.199219 37.539062 137.125 37.605469 C 136.863281 37.824219 110.472656 60.046875 83.1875 94.945312 C 83.152344 94.992188 83.101562 95.015625 83.046875 95.015625 " fill-opacity="1" fill-rule="nonzero"/><path fill="#ffffff" d="M 105.660156 28.664062 Z M 105.667969 28.683594 Z M 79.253906 91.738281 C 79.21875 91.738281 79.183594 91.730469 79.148438 91.707031 C 79.070312 91.648438 79.050781 91.535156 79.109375 91.453125 C 90.347656 75.960938 96.964844 59.96875 100.53125 49.277344 C 104.46875 37.484375 105.726562 29.21875 105.660156 28.667969 C 105.636719 28.582031 105.683594 28.484375 105.773438 28.453125 C 105.863281 28.417969 105.96875 28.464844 106.003906 28.558594 C 106.160156 28.96875 104.867188 37.363281 100.960938 49.128906 C 97.382812 59.914062 90.734375 76.042969 79.402344 91.664062 C 79.367188 91.714844 79.3125 91.738281 79.253906 91.738281 " fill-opacity="1" fill-rule="nonzero"/><path fill="#363e44" d="M 97.957031 125.109375 C 97.855469 125.109375 97.773438 125.027344 97.773438 124.925781 L 97.773438 69.8125 C 97.773438 69.710938 97.855469 69.628906 97.957031 69.628906 C 98.054688 69.628906 98.136719 69.710938 98.136719 69.8125 L 98.136719 124.925781 C 98.136719 125.027344 98.054688 125.109375 97.957031 125.109375 " fill-opacity="1" fill-rule="nonzero"/><path fill="#363e44" d="M 88.816406 130.753906 L 4.117188 130.753906 C 4.015625 130.753906 3.933594 130.675781 3.933594 130.574219 L 3.933594 18.742188 C 3.933594 18.644531 4.015625 18.5625 4.117188 18.5625 L 25.257812 18.5625 C 25.355469 18.5625 25.4375 18.644531 25.4375 18.742188 C 25.4375 18.84375 25.355469 18.921875 25.257812 18.921875 L 4.296875 18.921875 L 4.296875 130.394531 L 88.816406 130.394531 C 88.914062 130.394531 88.996094 130.472656 88.996094 130.574219 C 88.996094 130.675781 88.914062 130.753906 88.816406 130.753906 " fill-opacity="1" fill-rule="nonzero"/><path fill="#ffffff" d="M 13.671875 122.546875 L 88.398438 122.546875 L 88.398438 22.164062 L 13.671875 22.164062 L 13.671875 122.546875 " fill-opacity="1" fill-rule="nonzero"/><path fill="#f7f1eb" d="M 41.195312 13.035156 C 41.195312 8.625 44.824219 5.050781 49.300781 5.050781 C 53.777344 5.050781 57.410156 8.625 57.410156 13.035156 Z M 60.304688 13.035156 C 60.304688 7.046875 55.378906 2.195312 49.300781 2.195312 C 43.226562 2.195312 38.300781 7.046875 38.300781 13.035156 L 26.238281 13.035156 L 26.238281 27.3125 L 72.367188 27.3125 L 72.367188 13.035156 L 60.304688 13.035156 " fill-opacity="1" fill-rule="nonzero"/><path fill="#b77250" d="M 43.113281 11.144531 L 58.960938 11.144531 C 58.863281 6.925781 55.34375 3.519531 51.035156 3.519531 C 46.726562 3.519531 43.210938 6.925781 43.113281 11.144531 Z M 59.140625 11.507812 L 42.929688 11.507812 C 42.828125 11.507812 42.75 11.425781 42.75 11.324219 C 42.75 6.824219 46.464844 3.160156 51.035156 3.160156 C 55.605469 3.160156 59.324219 6.824219 59.324219 11.324219 C 59.324219 11.425781 59.242188 11.507812 59.140625 11.507812 Z M 62.21875 11.324219 Z M 28.152344 25.425781 L 73.917969 25.425781 L 73.917969 11.507812 L 62.035156 11.507812 C 61.9375 11.507812 61.855469 11.425781 61.855469 11.324219 C 61.855469 5.449219 57.003906 0.667969 51.035156 0.667969 C 45.070312 0.667969 40.214844 5.449219 40.214844 11.324219 C 40.214844 11.425781 40.132812 11.507812 40.035156 11.507812 L 28.152344 11.507812 Z M 74.101562 25.785156 L 27.972656 25.785156 C 27.871094 25.785156 27.789062 25.707031 27.789062 25.605469 L 27.789062 11.324219 C 27.789062 11.226562 27.871094 11.144531 27.972656 11.144531 L 39.855469 11.144531 C 39.953125 5.152344 44.929688 0.308594 51.035156 0.308594 C 57.140625 0.308594 62.117188 5.152344 62.214844 11.144531 L 74.101562 11.144531 C 74.199219 11.144531 74.28125 11.226562 74.28125 11.324219 L 74.28125 25.605469 C 74.28125 25.707031 74.199219 25.785156 74.101562 25.785156 " fill-opacity="1" fill-rule="nonzero"/><path fill="#f2e6dc" d="M 66.519531 97.421875 L 39.019531 97.421875 L 39.019531 95.484375 L 66.519531 95.484375 L 66.519531 97.421875 " fill-opacity="1" fill-rule="nonzero"/><path fill="#f2e6dc" d="M 77.09375 102.265625 L 43.285156 102.265625 L 43.285156 100.328125 L 77.09375 100.328125 L 77.09375 102.265625 " fill-opacity="1" fill-rule="nonzero"/><path fill="#f2e6dc" d="M 71.546875 107.113281 L 39.019531 107.113281 L 39.019531 105.171875 L 71.546875 105.171875 L 71.546875 107.113281 " fill-opacity="1" fill-rule="nonzero"/><path fill="#f2e6dc" d="M 80.3125 76.089844 L 46.296875 76.089844 L 46.296875 74.152344 L 80.3125 74.152344 L 80.3125 76.089844 " fill-opacity="1" fill-rule="nonzero"/><path fill="#f2e6dc" d="M 70.625 80.9375 L 38.097656 80.9375 L 38.097656 78.996094 L 70.625 78.996094 L 70.625 80.9375 " fill-opacity="1" fill-rule="nonzero"/><path fill="#f2e6dc" d="M 76.292969 85.78125 L 38.097656 85.78125 L 38.097656 83.839844 L 76.292969 83.839844 L 76.292969 85.78125 " fill-opacity="1" fill-rule="nonzero"/><path fill="#f2e6dc" d="M 76.292969 56.050781 L 46.417969 56.050781 L 46.417969 54.113281 L 76.292969 54.113281 L 76.292969 56.050781 " fill-opacity="1" fill-rule="nonzero"/><path fill="#f2e6dc" d="M 70.625 60.898438 L 38.21875 60.898438 L 38.21875 58.957031 L 70.625 58.957031 L 70.625 60.898438 " fill-opacity="1" fill-rule="nonzero"/><path fill="#f2e6dc" d="M 80.3125 65.742188 L 38.21875 65.742188 L 38.21875 63.800781 L 80.3125 63.800781 L 80.3125 65.742188 " fill-opacity="1" fill-rule="nonzero"/><path fill="#9e6c5a" d="M 20.28125 108.953125 L 35.617188 108.953125 L 35.617188 93.644531 L 20.28125 93.644531 Z M 35.796875 109.3125 L 20.101562 109.3125 C 20 109.3125 19.917969 109.230469 19.917969 109.132812 L 19.917969 93.460938 C 19.917969 93.363281 20 93.28125 20.101562 93.28125 L 35.796875 93.28125 C 35.898438 93.28125 35.976562 93.363281 35.976562 93.460938 L 35.976562 109.132812 C 35.976562 109.230469 35.898438 109.3125 35.796875 109.3125 " fill-opacity="1" fill-rule="nonzero"/><path fill="#8b865c" d="M 27.105469 106.765625 L 22.191406 102.300781 L 23.710938 100.433594 L 26.828125 102.917969 L 31.714844 95.832031 L 33.707031 97.199219 L 27.105469 106.765625 " fill-opacity="1" fill-rule="nonzero"/><path fill="#9e6c5a" d="M 20.28125 87.621094 L 35.617188 87.621094 L 35.617188 72.3125 L 20.28125 72.3125 Z M 35.796875 87.980469 L 20.101562 87.980469 C 20 87.980469 19.917969 87.902344 19.917969 87.800781 L 19.917969 72.132812 C 19.917969 72.03125 20 71.953125 20.101562 71.953125 L 35.796875 71.953125 C 35.898438 71.953125 35.976562 72.03125 35.976562 72.132812 L 35.976562 87.800781 C 35.976562 87.902344 35.898438 87.980469 35.796875 87.980469 " fill-opacity="1" fill-rule="nonzero"/><path fill="#8b865c" d="M 27.105469 85.433594 L 22.191406 80.96875 L 23.710938 79.101562 L 26.828125 81.585938 L 31.714844 74.5 L 33.707031 75.867188 L 27.105469 85.433594 " fill-opacity="1" fill-rule="nonzero"/><path fill="#9e6c5a" d="M 20.28125 67.582031 L 35.617188 67.582031 L 35.617188 52.273438 L 20.28125 52.273438 Z M 35.796875 67.941406 L 20.101562 67.941406 C 20 67.941406 19.917969 67.863281 19.917969 67.761719 L 19.917969 52.09375 C 19.917969 51.992188 20 51.910156 20.101562 51.910156 L 35.796875 51.910156 C 35.898438 51.910156 35.976562 51.992188 35.976562 52.09375 L 35.976562 67.761719 C 35.976562 67.863281 35.898438 67.941406 35.796875 67.941406 " fill-opacity="1" fill-rule="nonzero"/><path fill="#8b865c" d="M 27.105469 65.394531 L 22.191406 60.929688 L 23.710938 59.0625 L 26.828125 61.550781 L 31.714844 54.460938 L 33.707031 55.828125 L 27.105469 65.394531 " fill-opacity="1" fill-rule="nonzero"/><path fill="#d3bba3" d="M 80.855469 46.691406 L 21.21875 46.691406 C 21.117188 46.691406 21.035156 46.609375 21.035156 46.507812 C 21.035156 46.410156 21.117188 46.328125 21.21875 46.328125 L 80.855469 46.328125 C 80.953125 46.328125 81.035156 46.410156 81.035156 46.507812 C 81.035156 46.609375 80.953125 46.691406 80.855469 46.691406 " fill-opacity="1" fill-rule="nonzero"/><path fill="#40484c" d="M 23.285156 38.855469 L 26.6875 38.855469 L 24.984375 34.242188 Z M 26.914062 39.460938 L 23.0625 39.460938 L 22.191406 41.839844 L 21.4375 41.839844 L 24.648438 33.371094 L 25.328125 33.371094 L 28.539062 41.839844 L 27.792969 41.839844 L 26.914062 39.460938 " fill-opacity="1" fill-rule="nonzero"/><path fill="#40484c" d="M 30.5 37.785156 L 32.671875 37.785156 C 33.367188 37.785156 33.898438 37.621094 34.261719 37.292969 C 34.628906 36.960938 34.808594 36.5 34.808594 35.910156 C 34.808594 35.324219 34.628906 34.859375 34.265625 34.511719 C 33.902344 34.160156 33.386719 33.984375 32.71875 33.976562 L 30.5 33.976562 Z M 30.5 38.390625 L 30.5 41.839844 L 29.785156 41.839844 L 29.785156 33.371094 L 32.671875 33.371094 C 33.554688 33.371094 34.25 33.597656 34.761719 34.046875 C 35.269531 34.496094 35.527344 35.113281 35.527344 35.902344 C 35.527344 36.695312 35.28125 37.308594 34.789062 37.742188 C 34.296875 38.175781 33.585938 38.390625 32.65625 38.390625 L 30.5 38.390625 " fill-opacity="1" fill-rule="nonzero"/><path fill="#40484c" d="M 37.84375 37.785156 L 40.015625 37.785156 C 40.710938 37.785156 41.242188 37.621094 41.605469 37.292969 C 41.972656 36.960938 42.152344 36.5 42.152344 35.910156 C 42.152344 35.324219 41.972656 34.859375 41.609375 34.511719 C 41.246094 34.160156 40.730469 33.984375 40.0625 33.976562 L 37.84375 33.976562 Z M 37.84375 38.390625 L 37.84375 41.839844 L 37.128906 41.839844 L 37.128906 33.371094 L 40.015625 33.371094 C 40.898438 33.371094 41.59375 33.597656 42.105469 34.046875 C 42.613281 34.496094 42.871094 35.113281 42.871094 35.902344 C 42.871094 36.695312 42.625 37.308594 42.132812 37.742188 C 41.640625 38.175781 40.929688 38.390625 40 38.390625 L 37.84375 38.390625 " fill-opacity="1" fill-rule="nonzero"/><path fill="#40484c" d="M 45.175781 37.707031 L 47.371094 37.707031 C 47.972656 37.707031 48.457031 37.535156 48.820312 37.191406 C 49.1875 36.851562 49.371094 36.410156 49.371094 35.863281 C 49.371094 35.265625 49.179688 34.800781 48.796875 34.472656 C 48.417969 34.140625 47.882812 33.976562 47.195312 33.976562 L 45.175781 33.976562 Z M 47.640625 38.308594 L 45.175781 38.308594 L 45.175781 41.839844 L 44.453125 41.839844 L 44.453125 33.371094 L 47.207031 33.371094 C 48.113281 33.371094 48.820312 33.589844 49.328125 34.027344 C 49.835938 34.464844 50.089844 35.078125 50.089844 35.863281 C 50.089844 36.40625 49.933594 36.882812 49.613281 37.300781 C 49.296875 37.714844 48.867188 38 48.332031 38.160156 L 50.453125 41.765625 L 50.453125 41.839844 L 49.691406 41.839844 L 47.640625 38.308594 " fill-opacity="1" fill-rule="nonzero"/><path fill="#40484c" d="M 57.59375 37.148438 C 57.59375 36.128906 57.363281 35.328125 56.898438 34.75 C 56.4375 34.171875 55.804688 33.882812 55 33.882812 C 54.210938 33.882812 53.585938 34.171875 53.117188 34.753906 C 52.648438 35.332031 52.414062 36.140625 52.414062 37.183594 L 52.414062 38.066406 C 52.414062 39.070312 52.648438 39.867188 53.113281 40.453125 C 53.578125 41.042969 54.210938 41.335938 55.011719 41.335938 C 55.824219 41.335938 56.457031 41.046875 56.910156 40.464844 C 57.363281 39.886719 57.59375 39.078125 57.59375 38.042969 Z M 58.308594 38.066406 C 58.308594 38.84375 58.171875 39.53125 57.902344 40.121094 C 57.632812 40.707031 57.25 41.164062 56.746094 41.480469 C 56.246094 41.796875 55.667969 41.957031 55.011719 41.957031 C 54.023438 41.957031 53.222656 41.601562 52.613281 40.894531 C 52.003906 40.1875 51.699219 39.234375 51.699219 38.03125 L 51.699219 37.160156 C 51.699219 36.386719 51.835938 35.703125 52.109375 35.109375 C 52.382812 34.511719 52.769531 34.054688 53.269531 33.734375 C 53.773438 33.414062 54.347656 33.253906 55 33.253906 C 55.652344 33.253906 56.230469 33.414062 56.726562 33.726562 C 57.226562 34.042969 57.613281 34.484375 57.882812 35.058594 C 58.15625 35.632812 58.296875 36.296875 58.308594 37.054688 L 58.308594 38.066406 " fill-opacity="1" fill-rule="nonzero"/><path fill="#40484c" d="M 62.542969 40.792969 L 62.589844 40.972656 L 62.640625 40.792969 L 65.308594 33.371094 L 66.09375 33.371094 L 62.9375 41.839844 L 62.25 41.839844 L 59.09375 33.371094 L 59.875 33.371094 L 62.542969 40.792969 " fill-opacity="1" fill-rule="nonzero"/><path fill="#40484c" d="M 72.023438 37.78125 L 68.058594 37.78125 L 68.058594 41.234375 L 72.617188 41.234375 L 72.617188 41.839844 L 67.339844 41.839844 L 67.339844 33.371094 L 72.589844 33.371094 L 72.589844 33.976562 L 68.058594 33.976562 L 68.058594 37.175781 L 72.023438 37.175781 L 72.023438 37.78125 " fill-opacity="1" fill-rule="nonzero"/><path fill="#40484c" d="M 74.84375 33.976562 L 74.84375 41.234375 L 76.449219 41.234375 C 77.34375 41.234375 78.058594 40.941406 78.597656 40.347656 C 79.140625 39.757812 79.40625 38.957031 79.40625 37.945312 L 79.40625 37.203125 C 79.40625 36.226562 79.140625 35.449219 78.609375 34.863281 C 78.078125 34.277344 77.378906 33.980469 76.507812 33.976562 Z M 74.125 41.839844 L 74.125 33.371094 L 76.496094 33.371094 C 77.191406 33.371094 77.816406 33.53125 78.367188 33.84375 C 78.917969 34.160156 79.347656 34.613281 79.65625 35.203125 C 79.964844 35.792969 80.117188 36.464844 80.117188 37.214844 L 80.117188 37.996094 C 80.117188 38.75 79.964844 39.421875 79.660156 40.007812 C 79.351562 40.59375 78.917969 41.046875 78.363281 41.363281 C 77.804688 41.683594 77.164062 41.839844 76.445312 41.839844 L 74.125 41.839844 " fill-opacity="1" fill-rule="nonzero"/><path fill="#363e44" d="M 97.664062 48 C 97.5625 48 97.480469 47.917969 97.480469 47.820312 L 97.480469 18.921875 L 77.09375 18.921875 C 76.992188 18.921875 76.910156 18.84375 76.910156 18.742188 C 76.910156 18.644531 76.992188 18.5625 77.09375 18.5625 L 97.664062 18.5625 C 97.761719 18.5625 97.84375 18.644531 97.84375 18.742188 L 97.84375 47.820312 C 97.84375 47.917969 97.761719 48 97.664062 48 " fill-opacity="1" fill-rule="nonzero"/><path fill="#efbc73" d="M 83.003906 149.71875 L 31.964844 149.71875 L 31.964844 111.917969 L 83.003906 111.917969 L 83.003906 149.71875 " fill-opacity="1" fill-rule="nonzero"/><path fill="#e0aa63" d="M 44.59375 147.703125 C 44.492188 147.703125 44.414062 147.621094 44.414062 147.523438 L 44.414062 114.113281 C 44.414062 114.011719 44.492188 113.933594 44.59375 113.933594 C 44.691406 113.933594 44.773438 114.011719 44.773438 114.113281 L 44.773438 147.523438 C 44.773438 147.621094 44.691406 147.703125 44.59375 147.703125 " fill-opacity="1" fill-rule="nonzero"/><path fill="#e0aa63" d="M 67.382812 147.703125 C 67.285156 147.703125 67.203125 147.621094 67.203125 147.523438 L 67.203125 125.292969 C 67.203125 125.195312 67.285156 125.113281 67.382812 125.113281 C 67.484375 125.113281 67.5625 125.195312 67.5625 125.292969 L 67.5625 147.523438 C 67.5625 147.621094 67.484375 147.703125 67.382812 147.703125 " fill-opacity="1" fill-rule="nonzero"/><path fill="#f7f1eb" d="M 72.21875 124.132812 C 72.171875 124.132812 72.125 124.113281 72.089844 124.078125 L 69.601562 121.589844 L 67.53125 123.65625 C 67.464844 123.726562 67.34375 123.726562 67.277344 123.65625 L 65.136719 121.519531 L 62.675781 123.984375 C 62.621094 124.035156 62.542969 124.050781 62.476562 124.023438 C 62.410156 123.996094 62.367188 123.929688 62.367188 123.855469 L 62.367188 112.417969 C 62.367188 112.320312 62.445312 112.238281 62.546875 112.238281 C 62.644531 112.238281 62.726562 112.320312 62.726562 112.417969 L 62.726562 123.417969 L 65.011719 121.136719 C 65.078125 121.066406 65.199219 121.066406 65.265625 121.136719 L 67.402344 123.273438 L 69.472656 121.207031 C 69.539062 121.136719 69.660156 121.136719 69.730469 121.207031 L 72.039062 123.515625 L 72.039062 112.417969 C 72.039062 112.320312 72.121094 112.238281 72.21875 112.238281 C 72.320312 112.238281 72.402344 112.320312 72.402344 112.417969 L 72.402344 123.953125 C 72.402344 124.027344 72.355469 124.089844 72.289062 124.117188 C 72.265625 124.128906 72.242188 124.132812 72.21875 124.132812 " fill-opacity="1" fill-rule="nonzero"/><path fill="#ffd092" d="M 73.3125 111.90625 L 40.335938 111.90625 L 40.335938 87.484375 L 73.3125 87.484375 L 73.3125 111.90625 " fill-opacity="1" fill-rule="nonzero"/><path fill="#efbc73" d="M 48.496094 110.667969 C 48.398438 110.667969 48.316406 110.589844 48.316406 110.488281 L 48.316406 88.902344 C 48.316406 88.804688 48.398438 88.722656 48.496094 88.722656 C 48.597656 88.722656 48.675781 88.804688 48.675781 88.902344 L 48.675781 110.488281 C 48.675781 110.589844 48.597656 110.667969 48.496094 110.667969 " fill-opacity="1" fill-rule="nonzero"/><path fill="#efbc73" d="M 63.21875 110.667969 C 63.121094 110.667969 63.039062 110.589844 63.039062 110.488281 L 63.039062 96.128906 C 63.039062 96.027344 63.121094 95.949219 63.21875 95.949219 C 63.320312 95.949219 63.402344 96.027344 63.402344 96.128906 L 63.402344 110.488281 C 63.402344 110.589844 63.320312 110.667969 63.21875 110.667969 " fill-opacity="1" fill-rule="nonzero"/><path fill="#f7f1eb" d="M 66.347656 95.441406 C 66.296875 95.441406 66.253906 95.421875 66.21875 95.386719 L 64.652344 93.824219 L 63.363281 95.113281 C 63.292969 95.183594 63.171875 95.183594 63.105469 95.113281 L 61.769531 93.777344 L 60.222656 95.324219 C 60.171875 95.378906 60.09375 95.390625 60.027344 95.363281 C 59.960938 95.335938 59.914062 95.269531 59.914062 95.199219 L 59.914062 87.808594 C 59.914062 87.707031 59.996094 87.628906 60.097656 87.628906 C 60.195312 87.628906 60.277344 87.707031 60.277344 87.808594 L 60.277344 94.761719 L 61.644531 93.394531 C 61.710938 93.328125 61.832031 93.328125 61.898438 93.394531 L 63.234375 94.730469 L 64.527344 93.441406 C 64.558594 93.40625 64.605469 93.386719 64.652344 93.386719 C 64.703125 93.386719 64.746094 93.40625 64.78125 93.441406 L 66.164062 94.824219 L 66.164062 87.808594 C 66.164062 87.707031 66.246094 87.628906 66.347656 87.628906 C 66.445312 87.628906 66.527344 87.707031 66.527344 87.808594 L 66.527344 95.261719 C 66.527344 95.332031 66.480469 95.398438 66.414062 95.425781 C 66.394531 95.4375 66.367188 95.441406 66.347656 95.441406 " fill-opacity="1" fill-rule="nonzero"/><path fill="#ffd092" d="M 39.699219 149.808594 L 6.722656 149.808594 L 6.722656 125.386719 L 39.699219 125.386719 L 39.699219 149.808594 " fill-opacity="1" fill-rule="nonzero"/><path fill="#efbc73" d="M 14.882812 148.570312 C 14.785156 148.570312 14.703125 148.492188 14.703125 148.390625 L 14.703125 126.804688 C 14.703125 126.707031 14.785156 126.625 14.882812 126.625 C 14.984375 126.625 15.066406 126.707031 15.066406 126.804688 L 15.066406 148.390625 C 15.066406 148.492188 14.984375 148.570312 14.882812 148.570312 " fill-opacity="1" fill-rule="nonzero"/><path fill="#efbc73" d="M 29.609375 148.570312 C 29.507812 148.570312 29.425781 148.492188 29.425781 148.390625 L 29.425781 134.03125 C 29.425781 133.929688 29.507812 133.851562 29.609375 133.851562 C 29.707031 133.851562 29.789062 133.929688 29.789062 134.03125 L 29.789062 148.390625 C 29.789062 148.492188 29.707031 148.570312 29.609375 148.570312 " fill-opacity="1" fill-rule="nonzero"/><path fill="#f7f1eb" d="M 32.734375 133.34375 C 32.6875 133.34375 32.640625 133.324219 32.605469 133.289062 L 31.042969 131.726562 L 29.75 133.019531 C 29.679688 133.085938 29.5625 133.085938 29.492188 133.019531 L 28.15625 131.679688 L 26.609375 133.230469 C 26.558594 133.28125 26.480469 133.296875 26.414062 133.269531 C 26.347656 133.238281 26.300781 133.171875 26.300781 133.101562 L 26.300781 125.710938 C 26.300781 125.613281 26.382812 125.53125 26.484375 125.53125 C 26.582031 125.53125 26.664062 125.613281 26.664062 125.710938 L 26.664062 132.664062 L 28.03125 131.296875 C 28.097656 131.230469 28.21875 131.230469 28.285156 131.296875 L 29.621094 132.636719 L 30.914062 131.34375 C 30.945312 131.308594 30.992188 131.289062 31.042969 131.289062 C 31.089844 131.289062 31.136719 131.308594 31.167969 131.34375 L 32.550781 132.726562 L 32.550781 125.710938 C 32.550781 125.613281 32.632812 125.53125 32.734375 125.53125 C 32.832031 125.53125 32.914062 125.613281 32.914062 125.710938 L 32.914062 133.164062 C 32.914062 133.238281 32.871094 133.300781 32.800781 133.328125 C 32.78125 133.339844 32.757812 133.34375 32.734375 133.34375 " fill-opacity="1" fill-rule="nonzero"/><path fill="#363e44" d="M 81.285156 116.660156 L 74.675781 108.878906 C 74.609375 108.804688 74.621094 108.691406 74.695312 108.625 C 74.773438 108.5625 74.886719 108.570312 74.949219 108.644531 L 81.328125 116.152344 L 83.722656 114.125 L 77.320312 106.585938 C 77.253906 106.511719 77.265625 106.398438 77.339844 106.332031 C 77.417969 106.269531 77.53125 106.277344 77.59375 106.355469 L 84.230469 114.164062 L 81.285156 116.660156 " fill-opacity="1" fill-rule="nonzero"/><path fill="#363e44" d="M 88.507812 120.507812 C 88.460938 120.507812 88.410156 120.488281 88.371094 120.449219 L 84.335938 115.796875 C 84.269531 115.71875 84.277344 115.605469 84.355469 115.542969 C 84.429688 115.476562 84.542969 115.484375 84.609375 115.558594 L 88.648438 120.210938 C 88.710938 120.285156 88.703125 120.398438 88.628906 120.464844 C 88.59375 120.496094 88.550781 120.507812 88.507812 120.507812 " fill-opacity="1" fill-rule="nonzero"/><path fill="#363e44" d="M 86.886719 121.902344 C 86.835938 121.902344 86.789062 121.882812 86.75 121.839844 L 82.714844 117.191406 C 82.648438 117.113281 82.65625 117 82.730469 116.9375 C 82.808594 116.871094 82.921875 116.878906 82.988281 116.953125 L 87.023438 121.605469 C 87.089844 121.679688 87.082031 121.792969 87.007812 121.859375 C 86.972656 121.890625 86.929688 121.902344 86.886719 121.902344 " fill-opacity="1" fill-rule="nonzero"/><path fill="#363e44" d="M 84.890625 113.78125 C 84.746094 113.78125 84.601562 113.832031 84.488281 113.925781 L 81.007812 116.878906 C 80.746094 117.097656 80.714844 117.492188 80.9375 117.753906 L 93.859375 132.964844 C 94.148438 133.304688 94.550781 133.511719 94.996094 133.550781 C 95.441406 133.585938 95.875 133.449219 96.214844 133.160156 L 98.097656 131.566406 C 98.4375 131.277344 98.644531 130.871094 98.679688 130.429688 C 98.71875 129.984375 98.578125 129.550781 98.289062 129.210938 L 85.367188 114 C 85.257812 113.875 85.109375 113.796875 84.945312 113.78125 C 84.925781 113.78125 84.910156 113.78125 84.890625 113.78125 Z M 95.136719 133.917969 C 95.082031 133.917969 95.023438 133.914062 94.96875 133.910156 C 94.425781 133.863281 93.933594 133.613281 93.582031 133.199219 L 80.660156 117.988281 C 80.308594 117.574219 80.359375 116.953125 80.773438 116.601562 L 84.257812 113.652344 C 84.457031 113.484375 84.710938 113.402344 84.972656 113.421875 C 85.234375 113.445312 85.472656 113.566406 85.640625 113.765625 L 98.566406 128.976562 C 98.917969 129.390625 99.085938 129.917969 99.042969 130.457031 C 98.996094 131 98.742188 131.488281 98.332031 131.839844 L 96.449219 133.433594 C 96.078125 133.746094 95.617188 133.917969 95.136719 133.917969 " fill-opacity="1" fill-rule="nonzero"/><path fill="#363e44" d="M 65.84375 112.238281 L 65.847656 112.238281 Z M 63.242188 72.972656 C 62.542969 72.972656 61.84375 73.007812 61.140625 73.082031 C 55.921875 73.632812 51.226562 76.179688 47.925781 80.257812 C 44.621094 84.332031 43.105469 89.449219 43.65625 94.664062 C 44.207031 99.878906 46.757812 104.566406 50.839844 107.863281 C 55.085938 111.296875 60.40625 112.785156 65.820312 112.058594 C 70.816406 111.390625 75.3125 108.867188 78.484375 104.953125 C 81.785156 100.878906 83.300781 95.761719 82.75 90.546875 C 82.199219 85.332031 79.648438 80.644531 75.566406 77.34375 C 72.035156 74.492188 67.722656 72.972656 63.242188 72.972656 Z M 63.144531 112.601562 C 58.589844 112.601562 54.21875 111.0625 50.613281 108.144531 C 46.457031 104.785156 43.859375 100.011719 43.296875 94.703125 C 42.738281 89.390625 44.28125 84.179688 47.644531 80.027344 C 51.007812 75.878906 55.785156 73.285156 61.105469 72.722656 C 66.421875 72.164062 71.636719 73.703125 75.792969 77.0625 C 79.949219 80.421875 82.546875 85.199219 83.109375 90.507812 C 83.671875 95.820312 82.125 101.03125 78.765625 105.179688 C 75.535156 109.167969 70.957031 111.738281 65.871094 112.417969 C 64.957031 112.539062 64.046875 112.601562 63.144531 112.601562 " fill-opacity="1" fill-rule="nonzero"/><path fill="#363e44" d="M 66.8125 109.023438 C 66.726562 109.023438 66.652344 108.964844 66.632812 108.878906 C 66.613281 108.78125 66.675781 108.6875 66.773438 108.664062 C 70.441406 107.851562 73.636719 105.878906 76.007812 102.953125 C 77.613281 100.96875 78.710938 98.710938 79.269531 96.238281 C 79.292969 96.140625 79.390625 96.082031 79.488281 96.105469 C 79.582031 96.125 79.644531 96.222656 79.625 96.320312 C 79.050781 98.84375 77.929688 101.152344 76.289062 103.179688 C 73.863281 106.167969 70.601562 108.1875 66.851562 109.015625 C 66.835938 109.019531 66.824219 109.023438 66.8125 109.023438 " fill-opacity="1" fill-rule="nonzero"/><path fill="#363e44" d="M 69.898438 77.554688 C 69.875 77.554688 69.851562 77.550781 69.828125 77.539062 C 67.035156 76.3125 63.953125 75.890625 60.914062 76.3125 C 60.816406 76.328125 60.726562 76.257812 60.710938 76.160156 C 60.699219 76.0625 60.769531 75.96875 60.867188 75.957031 C 63.96875 75.523438 67.121094 75.957031 69.972656 77.207031 C 70.0625 77.25 70.105469 77.355469 70.066406 77.445312 C 70.035156 77.515625 69.96875 77.554688 69.898438 77.554688 " fill-opacity="1" fill-rule="nonzero"/><path fill="#363e44" d="M 47.042969 88.757812 C 47.03125 88.757812 47.015625 88.753906 47 88.753906 C 46.902344 88.726562 46.84375 88.628906 46.867188 88.535156 C 47.464844 86.144531 48.558594 83.957031 50.117188 82.03125 C 52.136719 79.539062 54.804688 77.683594 57.832031 76.671875 C 57.925781 76.640625 58.027344 76.691406 58.0625 76.785156 C 58.09375 76.878906 58.042969 76.980469 57.945312 77.011719 C 54.984375 78.007812 52.375 79.820312 50.398438 82.257812 C 48.871094 84.144531 47.800781 86.285156 47.21875 88.621094 C 47.199219 88.703125 47.125 88.757812 47.042969 88.757812 " fill-opacity="1" fill-rule="nonzero"/><path fill="#363e44" d="M 63.210938 109.414062 C 61.300781 109.414062 59.390625 109.09375 57.601562 108.460938 C 57.507812 108.429688 57.457031 108.328125 57.492188 108.230469 C 57.523438 108.136719 57.628906 108.089844 57.722656 108.121094 C 59.941406 108.902344 62.355469 109.203125 64.710938 108.984375 C 64.808594 108.976562 64.898438 109.050781 64.90625 109.148438 C 64.914062 109.25 64.84375 109.335938 64.742188 109.34375 C 64.234375 109.390625 63.722656 109.414062 63.210938 109.414062 " fill-opacity="1" fill-rule="nonzero"/><path fill="#8b865c" d="M 62.40625 101.347656 L 54.570312 94.230469 L 56.992188 91.25 L 61.957031 95.21875 L 69.753906 83.914062 L 72.929688 86.09375 L 62.40625 101.347656 " fill-opacity="1" fill-rule="nonzero"/><path fill="#363e44" d="M 106.308594 116.945312 L 143.898438 117.625 L 146.988281 150 L 126.160156 150 L 123.792969 142.878906 L 123.007812 141.433594 L 120.480469 149.945312 L 102.46875 149.886719 L 106.308594 116.945312 " fill-opacity="1" fill-rule="nonzero"/><path fill="#f7f1eb" d="M 124.109375 144.382812 C 124.035156 144.382812 123.964844 144.335938 123.9375 144.261719 L 121.363281 137.101562 C 121.332031 137.007812 121.378906 136.90625 121.472656 136.871094 C 121.566406 136.835938 121.671875 136.886719 121.703125 136.980469 L 124.277344 144.140625 C 124.3125 144.234375 124.265625 144.335938 124.171875 144.371094 C 124.152344 144.378906 124.128906 144.382812 124.109375 144.382812 " fill-opacity="1" fill-rule="nonzero"/><path fill="#d87355" d="M 143.972656 82.082031 C 143.972656 82.082031 148.671875 102.53125 145.941406 120.347656 L 103.015625 120.347656 L 101.988281 98.820312 C 101.988281 98.820312 103.640625 91.652344 103.640625 88.914062 L 143.972656 82.082031 " fill-opacity="1" fill-rule="nonzero"/><path fill="#e2a18d" d="M 148.285156 87.359375 C 148.285156 87.359375 149.699219 104.101562 139.140625 105.832031 C 128.582031 107.566406 130.230469 88.261719 130.230469 88.261719 L 148.285156 87.359375 " fill-opacity="1" fill-rule="nonzero"/><path fill="#d87355" d="M 149.625 88.664062 C 149.625 88.664062 137.652344 90.238281 128.796875 94.503906 C 119.9375 98.769531 93.910156 94.738281 87.039062 88.210938 C 87.039062 88.210938 94.746094 66.242188 119.386719 66.277344 C 144.027344 66.3125 147.683594 77.746094 149.625 88.664062 " fill-opacity="1" fill-rule="nonzero"/><path fill="#e2a18d" d="M 87.632812 82.082031 C 87.632812 82.082031 79.554688 95.898438 88.578125 99.992188 C 94.269531 102.574219 98.832031 101.03125 101.988281 98.820312 C 105.203125 96.566406 106.957031 93.613281 106.957031 93.613281 L 87.632812 82.082031 " fill-opacity="1" fill-rule="nonzero"/><path fill="#363e44" d="M 95.921875 96.695312 L 117.4375 96.695312 L 106.566406 71.691406 L 85.050781 71.691406 L 95.921875 96.695312 " fill-opacity="1" fill-rule="nonzero"/><path fill="#363e44" d="M 118.027344 95.441406 C 117.957031 95.441406 117.890625 95.398438 117.859375 95.332031 L 107.273438 70.976562 L 86.394531 70.976562 C 86.292969 70.976562 86.210938 70.898438 86.210938 70.796875 C 86.210938 70.699219 86.292969 70.617188 86.394531 70.617188 L 107.394531 70.617188 C 107.464844 70.617188 107.53125 70.660156 107.558594 70.726562 L 118.191406 95.1875 C 118.230469 95.277344 118.191406 95.382812 118.097656 95.425781 C 118.074219 95.433594 118.050781 95.441406 118.027344 95.441406 " fill-opacity="1" fill-rule="nonzero"/><path fill="#e2a18d" d="M 96.273438 77.820312 C 96.097656 76.546875 93.195312 76.378906 90.382812 76.425781 C 88.316406 76.460938 85.964844 76.65625 85.964844 78.3125 C 85.964844 80.242188 88.875 80.238281 90.773438 80.078125 C 93.585938 79.839844 96.441406 79.066406 96.273438 77.820312 " fill-opacity="1" fill-rule="nonzero"/><path fill="#e2a18d" d="M 97.203125 80.722656 C 97.015625 79.378906 93.851562 79.199219 90.78125 79.25 C 88.527344 79.285156 85.964844 79.492188 85.964844 81.242188 C 85.964844 83.277344 89.140625 83.273438 91.207031 83.105469 C 94.273438 82.851562 97.390625 82.035156 97.203125 80.722656 " fill-opacity="1" fill-rule="nonzero"/><path fill="#e2a18d" d="M 97.3125 84.203125 C 97.207031 82.804688 94.425781 82.5 91.714844 82.4375 C 89.722656 82.394531 87.453125 82.507812 87.378906 84.320312 C 87.289062 86.429688 90.089844 86.546875 91.917969 86.449219 C 94.632812 86.300781 97.417969 85.570312 97.3125 84.203125 " fill-opacity="1" fill-rule="nonzero"/><path fill="#e2a18d" d="M 96.617188 87.121094 C 96.535156 85.964844 94.351562 85.71875 92.222656 85.671875 C 90.664062 85.636719 88.878906 85.734375 88.816406 87.238281 C 88.742188 88.984375 90.941406 89.074219 92.378906 88.992188 C 94.511719 88.867188 96.695312 88.253906 96.617188 87.121094 " fill-opacity="1" fill-rule="nonzero"/><path fill="#363e44" d="M 91.855469 89.179688 C 90.523438 89.179688 89.59375 88.929688 89.082031 88.429688 C 88.765625 88.117188 88.617188 87.714844 88.636719 87.230469 C 88.652344 86.90625 88.738281 86.625 88.898438 86.390625 C 87.726562 86.039062 87.152344 85.34375 87.195312 84.3125 C 87.21875 83.847656 87.371094 83.460938 87.660156 83.152344 C 87.484375 83.105469 87.320312 83.058594 87.167969 83 C 87.074219 82.964844 87.027344 82.863281 87.0625 82.769531 C 87.097656 82.675781 87.203125 82.628906 87.292969 82.664062 C 87.523438 82.746094 87.789062 82.816406 88.082031 82.871094 C 88.152344 82.882812 88.210938 82.9375 88.226562 83.007812 C 88.242188 83.078125 88.214844 83.152344 88.15625 83.195312 C 87.773438 83.46875 87.578125 83.835938 87.558594 84.328125 C 87.519531 85.25 88.078125 85.835938 89.261719 86.113281 C 89.328125 86.128906 89.378906 86.179688 89.394531 86.242188 C 89.414062 86.304688 89.394531 86.375 89.347656 86.417969 C 89.125 86.628906 89.011719 86.898438 88.996094 87.246094 C 88.980469 87.628906 89.09375 87.929688 89.335938 88.171875 C 89.847656 88.675781 90.960938 88.890625 92.554688 88.796875 C 92.652344 88.792969 92.738281 88.867188 92.746094 88.96875 C 92.75 89.066406 92.675781 89.152344 92.574219 89.160156 C 92.324219 89.171875 92.085938 89.179688 91.855469 89.179688 " fill-opacity="1" fill-rule="nonzero"/><path fill="#363e44" d="M 87.035156 79.964844 C 86.941406 79.964844 86.859375 79.886719 86.855469 79.792969 C 86.851562 79.691406 86.925781 79.609375 87.027344 79.601562 L 93.003906 79.296875 C 93.105469 79.292969 93.1875 79.367188 93.191406 79.46875 C 93.199219 79.566406 93.121094 79.652344 93.019531 79.65625 L 87.042969 79.960938 L 87.035156 79.964844 " fill-opacity="1" fill-rule="nonzero"/><path fill="#363e44" d="M 87.882812 83.207031 C 87.789062 83.207031 87.710938 83.136719 87.703125 83.039062 C 87.695312 82.941406 87.773438 82.855469 87.871094 82.847656 L 93.679688 82.480469 C 93.78125 82.476562 93.867188 82.550781 93.875 82.648438 C 93.878906 82.75 93.804688 82.835938 93.703125 82.839844 L 87.894531 83.207031 L 87.882812 83.207031 " fill-opacity="1" fill-rule="nonzero"/><path fill="#363e44" d="M 89.15625 86.453125 C 89.058594 86.453125 88.980469 86.378906 88.976562 86.28125 C 88.96875 86.183594 89.046875 86.097656 89.148438 86.09375 L 95.074219 85.824219 C 95.171875 85.820312 95.257812 85.898438 95.265625 85.996094 C 95.269531 86.097656 95.191406 86.179688 95.09375 86.183594 L 89.164062 86.453125 L 89.15625 86.453125 " fill-opacity="1" fill-rule="nonzero"/><path fill="#e2a18d" d="M 123.105469 72.953125 C 130.136719 78.28125 145.757812 100.246094 145.757812 100.246094 L 141.4375 105.183594 L 139.773438 105.882812 C 134.355469 108.167969 128.09375 105.851562 125.472656 100.597656 L 117.617188 84.390625 C 117.617188 84.390625 116.179688 84.746094 115.578125 84.195312 C 114.855469 83.523438 114.738281 82.160156 114.738281 82.160156 C 114.738281 82.160156 113.832031 81.929688 113.492188 80.933594 C 113.1875 80.035156 113.824219 79.355469 113.824219 79.355469 C 113.824219 79.355469 113.070312 78.289062 113.578125 77.207031 C 114.332031 75.597656 117.4375 75.027344 117.4375 75.027344 C 117.4375 75.027344 109.972656 75.679688 110.066406 73.71875 C 110.148438 71.914062 120.503906 70.980469 123.105469 72.953125 " fill-opacity="1" fill-rule="nonzero"/><path fill="#363e44" d="M 144.15625 98.207031 C 144.101562 98.207031 144.046875 98.179688 144.007812 98.132812 C 142.847656 96.535156 141.015625 94.046875 138.886719 91.257812 C 138.824219 91.175781 138.839844 91.0625 138.921875 91.003906 C 139 90.941406 139.113281 90.957031 139.175781 91.039062 C 141.304688 93.832031 143.136719 96.324219 144.300781 97.917969 C 144.359375 98 144.34375 98.113281 144.261719 98.171875 C 144.230469 98.195312 144.191406 98.207031 144.15625 98.207031 " fill-opacity="1" fill-rule="nonzero"/><path fill="#363e44" d="M 113.835938 79.535156 C 113.800781 79.535156 113.765625 79.523438 113.734375 79.5 C 113.652344 79.445312 113.632812 79.332031 113.6875 79.25 C 114.054688 78.722656 114.878906 77.765625 116.265625 77.296875 C 117.28125 76.953125 118.203125 77.003906 118.796875 77.105469 C 118.894531 77.125 118.957031 77.21875 118.941406 77.316406 C 118.925781 77.414062 118.832031 77.480469 118.730469 77.460938 C 118.179688 77.367188 117.328125 77.316406 116.382812 77.636719 C 115.09375 78.074219 114.328125 78.964844 113.988281 79.457031 C 113.953125 79.503906 113.894531 79.535156 113.835938 79.535156 " fill-opacity="1" fill-rule="nonzero"/><path fill="#363e44" d="M 114.691406 82.296875 C 114.648438 82.296875 114.609375 82.285156 114.578125 82.257812 C 114.5 82.195312 114.484375 82.082031 114.550781 82.003906 C 114.980469 81.460938 115.503906 81.027344 116.101562 80.703125 C 117.046875 80.191406 117.964844 80.089844 118.5625 80.09375 C 118.664062 80.09375 118.742188 80.175781 118.742188 80.273438 C 118.742188 80.375 118.660156 80.453125 118.5625 80.453125 C 118.554688 80.453125 118.546875 80.453125 118.539062 80.453125 C 117.980469 80.453125 117.140625 80.554688 116.273438 81.019531 C 115.71875 81.320312 115.234375 81.726562 114.832031 82.230469 C 114.792969 82.273438 114.742188 82.296875 114.691406 82.296875 " fill-opacity="1" fill-rule="nonzero"/><path fill="#363e44" d="M 117.65625 84.53125 C 117.582031 84.53125 117.515625 84.488281 117.488281 84.417969 L 117.050781 83.316406 C 117.011719 83.222656 117.058594 83.117188 117.152344 83.082031 C 117.246094 83.042969 117.347656 83.089844 117.386719 83.183594 L 117.824219 84.285156 C 117.859375 84.378906 117.816406 84.484375 117.722656 84.519531 C 117.699219 84.527344 117.679688 84.53125 117.65625 84.53125 " fill-opacity="1" fill-rule="nonzero"/><path fill="#363e44" d="M 110.476562 54.253906 C 110.46875 54.253906 110.460938 54.253906 110.449219 54.253906 C 108.976562 54.039062 107.734375 53.007812 107.285156 51.617188 C 107.015625 50.777344 107.058594 49.875 107.414062 49.007812 C 107.453125 48.917969 107.558594 48.871094 107.648438 48.910156 C 107.742188 48.949219 107.785156 49.054688 107.75 49.144531 C 107.421875 49.945312 107.378906 50.738281 107.628906 51.507812 C 108.035156 52.765625 109.164062 53.703125 110.503906 53.894531 C 110.601562 53.910156 110.667969 54 110.65625 54.097656 C 110.640625 54.1875 110.566406 54.253906 110.476562 54.253906 " fill-opacity="1" fill-rule="nonzero"/><path fill="#363e44" d="M 111.058594 55.050781 C 110.195312 54.417969 109.523438 53.777344 108.984375 52.910156 C 108.605469 52.304688 107.59375 50.453125 108.8125 48.683594 C 109.703125 47.394531 111.601562 46.859375 113.414062 47.492188 C 113.082031 47.546875 112.832031 47.804688 112.796875 48.105469 C 112.757812 48.457031 113.027344 48.699219 113.050781 48.722656 C 113.382812 48.339844 114.023438 47.714844 115.007812 47.347656 C 116.792969 46.679688 118.398438 47.335938 118.957031 47.5625 C 121.074219 48.429688 122.046875 50.21875 122.289062 50.675781 C 122.828125 51.703125 122.976562 53.035156 123.253906 55.664062 C 123.382812 56.886719 123.402344 57.644531 123.484375 59.203125 C 123.199219 59.734375 122.910156 59.910156 122.453125 59.910156 C 121.957031 59.054688 121.371094 57.65625 120.875 56.800781 C 119.824219 57.246094 118.90625 57.40625 118.226562 57.46875 C 114.773438 57.769531 112.179688 55.875 111.058594 55.050781 " fill-opacity="1" fill-rule="nonzero"/><path fill="#e2a18d" d="M 126.226562 68.558594 L 120.96875 56.207031 L 114.675781 60.308594 L 116.480469 68.453125 L 126.226562 68.558594 " fill-opacity="1" fill-rule="nonzero"/><path fill="#e2a18d" d="M 115.125 68.496094 C 115.125 69.195312 117.820312 69.765625 121.140625 69.765625 C 124.460938 69.765625 127.152344 69.195312 127.152344 68.496094 C 127.152344 67.792969 124.460938 67.042969 121.140625 67.042969 C 117.820312 67.042969 115.125 67.792969 115.125 68.496094 " fill-opacity="1" fill-rule="nonzero"/><path fill="#e2a18d" d="M 109.96875 54.136719 C 109.96875 54.136719 111 63.941406 115.023438 64.246094 C 117.457031 64.429688 119.6875 61.398438 120.226562 60.085938 C 120.769531 58.773438 120.226562 56.628906 120.226562 56.628906 C 120.226562 56.628906 119.410156 57.394531 118.753906 56.890625 C 118.097656 56.386719 118.855469 53.210938 115.96875 53.339844 C 113.082031 53.46875 112.710938 54.625 109.96875 54.136719 " fill-opacity="1" fill-rule="nonzero"/><path fill="#363e44" d="M 115.484375 64.425781 C 115.398438 64.425781 115.320312 64.363281 115.304688 64.269531 C 115.292969 64.171875 115.359375 64.082031 115.457031 64.066406 C 116.742188 63.871094 118.570312 62.71875 119.582031 60.886719 C 119.628906 60.800781 119.742188 60.769531 119.828125 60.816406 C 119.914062 60.863281 119.945312 60.976562 119.898438 61.0625 C 118.828125 62.996094 116.882812 64.214844 115.511719 64.421875 C 115.503906 64.421875 115.496094 64.425781 115.484375 64.425781 " fill-opacity="1" fill-rule="nonzero"/><path fill="#e2a18d" d="M 119.472656 55.640625 C 119.183594 56.539062 119.464844 58.179688 120.363281 58.464844 C 121.265625 58.753906 122.445312 57.585938 122.734375 56.6875 C 123.023438 55.785156 122.527344 54.824219 121.625 54.535156 C 120.726562 54.246094 119.761719 54.742188 119.472656 55.640625 " fill-opacity="1" fill-rule="nonzero"/><path fill="#ffffff" d="M 110.234375 57.464844 C 110.246094 57.484375 110.238281 57.5 110.246094 57.519531 C 110.28125 57.792969 110.316406 58.078125 110.300781 58.347656 C 110.292969 58.46875 110.242188 58.554688 110.222656 58.667969 C 110.210938 58.75 110.195312 58.828125 110.179688 58.910156 C 109.371094 58.5 108.882812 57.796875 108.882812 57.796875 C 108.882812 57.796875 109.484375 57.511719 110.234375 57.464844 " fill-opacity="1" fill-rule="nonzero"/><path fill="#363e44" d="M 111.125 57.546875 C 112.152344 57.816406 112.828125 58.691406 112.941406 58.839844 C 112.933594 58.855469 112.929688 58.867188 112.921875 58.882812 C 112.730469 58.96875 111.726562 59.378906 110.714844 59.113281 C 110.523438 59.066406 110.347656 58.992188 110.183594 58.910156 C 110.152344 58.84375 110.121094 58.777344 110.097656 58.703125 C 109.957031 58.273438 110.023438 57.828125 110.238281 57.464844 C 110.519531 57.449219 110.820312 57.46875 111.125 57.546875 " fill-opacity="1" fill-rule="nonzero"/><path fill="#ffffff" d="M 115.664062 57.636719 C 115.769531 57.945312 115.792969 58.195312 115.703125 58.488281 C 114.957031 58.679688 114.289062 58.578125 114.289062 58.578125 C 114.289062 58.578125 114.601562 57.617188 115.371094 56.976562 C 115.515625 57.164062 115.589844 57.421875 115.664062 57.636719 " fill-opacity="1" fill-rule="nonzero"/><path fill="#363e44" d="M 115.71875 58.484375 C 115.339844 58.089844 115.199219 57.515625 115.371094 56.980469 C 115.457031 56.90625 115.546875 56.839844 115.644531 56.777344 C 116.632812 56.164062 117.863281 56.351562 117.863281 56.351562 C 117.863281 56.351562 117.492188 57.539062 116.503906 58.152344 C 116.25 58.3125 115.980469 58.417969 115.71875 58.484375 " fill-opacity="1" fill-rule="nonzero"/><path fill="#363e44" d="M 121.824219 56.945312 C 121.808594 56.945312 121.792969 56.945312 121.773438 56.9375 C 121.675781 56.910156 121.625 56.808594 121.652344 56.710938 C 121.667969 56.667969 121.675781 56.621094 121.683594 56.574219 C 121.730469 56.203125 121.53125 55.871094 121.230469 55.832031 C 121.164062 55.824219 121.09375 55.832031 121.027344 55.855469 C 120.933594 55.886719 120.828125 55.835938 120.796875 55.742188 C 120.761719 55.648438 120.8125 55.546875 120.910156 55.511719 C 121.03125 55.46875 121.15625 55.457031 121.277344 55.472656 C 121.773438 55.539062 122.117188 56.050781 122.042969 56.621094 C 122.035156 56.6875 122.019531 56.753906 122 56.820312 C 121.972656 56.894531 121.902344 56.945312 121.824219 56.945312 " fill-opacity="1" fill-rule="nonzero"/><path fill="#363e44" d="M 113.378906 60.285156 C 113.339844 60.285156 113.300781 60.273438 113.265625 60.246094 C 113.101562 60.113281 113.003906 59.960938 112.984375 59.792969 C 112.957031 59.605469 113.035156 59.46875 113.113281 59.335938 C 113.160156 59.253906 113.210938 59.164062 113.246094 59.050781 C 113.289062 58.90625 113.300781 58.746094 113.277344 58.578125 C 113.265625 58.476562 113.332031 58.386719 113.433594 58.375 C 113.53125 58.359375 113.625 58.429688 113.636719 58.527344 C 113.667969 58.75 113.652344 58.960938 113.589844 59.15625 C 113.542969 59.3125 113.476562 59.425781 113.425781 59.515625 C 113.363281 59.625 113.332031 59.679688 113.339844 59.746094 C 113.351562 59.816406 113.402344 59.890625 113.492188 59.964844 C 113.570312 60.027344 113.582031 60.140625 113.519531 60.21875 C 113.484375 60.261719 113.433594 60.285156 113.378906 60.285156 " fill-opacity="1" fill-rule="nonzero"/><path fill="#363e44" d="M 114.539062 61.488281 C 114.4375 61.488281 114.328125 61.472656 114.21875 61.4375 C 114.121094 61.40625 114.070312 61.304688 114.097656 61.210938 C 114.128906 61.117188 114.230469 61.0625 114.324219 61.09375 C 114.5 61.148438 114.640625 61.140625 114.746094 61.070312 C 114.953125 60.941406 115 60.617188 115 60.617188 C 115.011719 60.519531 115.101562 60.449219 115.203125 60.460938 C 115.300781 60.472656 115.371094 60.5625 115.359375 60.660156 C 115.355469 60.683594 115.292969 61.152344 114.945312 61.375 C 114.824219 61.449219 114.6875 61.488281 114.539062 61.488281 " fill-opacity="1" fill-rule="nonzero"/></svg>