<svg xmlns="http://www.w3.org/2000/svg" xmlns:xlink="http://www.w3.org/1999/xlink" width="200" zoomAndPan="magnify" viewBox="0 0 150 149.999998" height="200" preserveAspectRatio="xMidYMid meet" version="1.0"><path fill="#65c688" d="M 128.148438 142.246094 C 128.203125 145.242188 130.558594 146.824219 130.878906 150.851562 L 133.722656 150.851562 L 133.367188 145.507812 C 133.367188 143.136719 132.085938 142.859375 131.957031 139.632812 C 131.949219 139.472656 131.921875 139.316406 131.875 139.167969 C 131.8125 138.992188 131.722656 138.824219 131.601562 138.679688 C 131.265625 138.273438 130.6875 138.128906 130.25 137.832031 C 129.863281 137.574219 129.597656 137.121094 129.472656 136.816406 C 129.460938 136.789062 129.457031 136.761719 129.457031 136.730469 C 129.453125 136.382812 129.402344 134.820312 128.386719 133.667969 C 127.796875 133.003906 126.863281 132.945312 125.980469 132.886719 C 125.710938 132.871094 125.441406 132.832031 125.214844 132.757812 C 125.089844 132.71875 124.96875 132.601562 124.863281 132.519531 C 124.417969 132.164062 123.035156 131.382812 121.890625 131.144531 C 121.496094 131.0625 121.101562 131.195312 120.773438 131.429688 C 120.027344 131.949219 119.902344 132.859375 120.757812 133.164062 C 121.429688 133.402344 122.246094 133.578125 122.902344 133.738281 C 123.316406 133.839844 123.589844 134.210938 123.589844 134.636719 C 123.589844 134.917969 123.417969 136.554688 124.777344 137.625 C 124.816406 137.652344 124.847656 137.6875 124.871094 137.722656 C 125.378906 138.441406 126.976562 138.585938 127.851562 140.28125 C 128.160156 140.875 128.136719 141.574219 128.148438 142.246094 Z M 128.148438 142.246094 " fill-opacity="1" fill-rule="nonzero"/><path fill="#007d41" d="M 123.4375 132.761719 C 123.492188 132.675781 123.601562 132.652344 123.683594 132.703125 C 126.84375 134.695312 128.949219 138.210938 130.269531 141.722656 C 131.585938 145.238281 132.125 148.78125 132.125 150.851562 L 131.769531 150.851562 C 131.769531 148.828125 131.238281 145.328125 129.933594 141.851562 C 128.628906 138.367188 126.558594 134.9375 123.496094 133.003906 C 123.410156 132.953125 123.386719 132.84375 123.4375 132.761719 Z M 123.4375 132.761719 " fill-opacity="1" fill-rule="evenodd"/><path fill="#65c688" d="M 145.46875 147.214844 C 144.46875 152.25 142.1875 149.171875 141.015625 150.851562 L 136.746094 150.851562 L 136.828125 149.785156 L 137.53125 148.378906 C 137.941406 147.566406 137.824219 146.542969 138.226562 145.726562 C 138.8125 144.546875 140.804688 144.179688 141.726562 143.546875 L 143.148438 142.597656 C 143.96875 142.046875 144.894531 141.609375 145.878906 141.671875 C 148.332031 141.832031 151.398438 143.398438 151.5 146.925781 C 151.503906 147.039062 151.441406 147.140625 151.339844 147.191406 C 151.226562 147.25 151.085938 147.226562 150.988281 147.144531 C 150.429688 146.695312 149.695312 146.574219 149.371094 146.574219 C 148.453125 146.574219 147.535156 146.09375 146.617188 146.050781 C 145.996094 146.023438 145.59375 146.601562 145.46875 147.214844 Z M 145.46875 147.214844 " fill-opacity="1" fill-rule="nonzero"/><path fill="#007d41" d="M 140.34375 146.820312 C 139.558594 147.789062 139.058594 149.105469 139.058594 150.851562 L 138.703125 150.851562 C 138.703125 149.035156 139.222656 147.636719 140.070312 146.597656 C 140.914062 145.5625 142.066406 144.898438 143.316406 144.535156 C 145.804688 143.808594 148.703125 144.257812 150.355469 145.359375 C 150.4375 145.414062 150.460938 145.523438 150.40625 145.605469 C 150.351562 145.6875 150.238281 145.710938 150.15625 145.65625 C 148.605469 144.617188 145.816406 144.175781 143.417969 144.875 C 142.222656 145.222656 141.132812 145.855469 140.34375 146.820312 Z M 140.34375 146.820312 " fill-opacity="1" fill-rule="evenodd"/><path fill="#007d41" d="M 133.367188 145.507812 C 133.367188 143.136719 132.085938 142.859375 131.957031 139.632812 C 131.949219 139.472656 131.921875 139.316406 131.875 139.167969 C 132.300781 136.417969 133.902344 135.351562 133.902344 133.566406 C 133.460938 132.097656 133.265625 130.78125 133.269531 129.703125 C 133.285156 127.527344 135.421875 126.074219 136.191406 124.039062 C 136.871094 122.234375 136.925781 120.410156 137.480469 119.023438 C 137.800781 118.234375 138.652344 117.886719 139.503906 117.886719 C 140.90625 117.886719 142.1875 118.855469 142.277344 120.261719 C 142.441406 122.855469 141.46875 123.492188 141.015625 123.945312 C 139.4375 125.644531 139.53125 127.644531 139.796875 128.878906 C 139.957031 129.644531 140.222656 130.390625 140.253906 131.171875 C 140.378906 134.082031 138.507812 133.339844 138.347656 134.457031 L 138.347656 134.972656 C 138.347656 135.683594 138.589844 136.367188 138.886719 137.011719 C 140.03125 139.496094 138.957031 141.554688 138.097656 142.664062 C 137.625 143.273438 137.246094 143.980469 137.191406 144.75 L 136.828125 149.785156 L 136.746094 150.851562 L 133.726562 150.851562 Z M 133.367188 145.507812 " fill-opacity="1" fill-rule="nonzero"/><path fill="#65c688" d="M 139.691406 120.53125 C 139.753906 120.484375 139.785156 120.402344 139.761719 120.324219 C 139.730469 120.230469 139.628906 120.179688 139.535156 120.210938 C 139.488281 120.226562 139.457031 120.257812 139.441406 120.273438 C 139.421875 120.292969 139.40625 120.3125 139.390625 120.332031 C 139.363281 120.375 139.335938 120.425781 139.304688 120.488281 C 139.238281 120.609375 139.164062 120.78125 139.074219 121 C 138.898438 121.4375 138.667969 122.066406 138.410156 122.867188 C 137.886719 124.46875 137.230469 126.757812 136.589844 129.550781 C 135.308594 135.132812 134.078125 142.726562 134.078125 150.851562 L 134.4375 150.851562 C 134.4375 142.761719 135.660156 135.195312 136.9375 129.628906 C 137.578125 126.847656 138.230469 124.570312 138.746094 122.976562 C 139.007812 122.179688 139.230469 121.558594 139.40625 121.132812 C 139.492188 120.921875 139.5625 120.757812 139.621094 120.652344 C 139.648438 120.597656 139.667969 120.558594 139.683594 120.539062 C 139.6875 120.535156 139.6875 120.53125 139.691406 120.53125 Z M 139.691406 120.53125 " fill-opacity="1" fill-rule="evenodd"/><path fill="#ffffff" d="M 81.375 114.015625 C 106.695312 113.824219 127.164062 93.210938 127.164062 67.8125 C 127.164062 42.296875 106.503906 21.609375 81.015625 21.609375 C 56.730469 21.609375 36.824219 40.394531 35.003906 64.246094 C 34.988281 64.453125 35.152344 64.628906 35.359375 64.628906 L 44.03125 64.628906 C 44.566406 64.628906 44.910156 65.199219 44.660156 65.675781 L 31.894531 89.777344 C 31.632812 90.273438 30.925781 90.285156 30.648438 89.796875 L 16.789062 65.695312 C 16.515625 65.21875 16.855469 64.628906 17.40625 64.628906 L 26.671875 64.628906 C 26.859375 64.628906 27.015625 64.480469 27.027344 64.289062 C 28.839844 36.015625 52.320312 13.644531 81.015625 13.644531 C 110.898438 13.644531 135.121094 37.894531 135.121094 67.8125 C 135.121094 97.613281 111.089844 121.792969 81.375 121.984375 C 81.179688 121.984375 81.015625 121.824219 81.015625 121.628906 L 81.015625 114.375 C 81.015625 114.179688 81.179688 114.019531 81.375 114.015625 Z M 81.375 114.015625 " fill-opacity="1" fill-rule="nonzero"/><path fill="#2b4ea3" d="M 80.878906 25.539062 C 80.878906 25.925781 78.6875 26.238281 75.984375 26.238281 C 73.28125 26.238281 71.089844 25.925781 71.089844 25.539062 C 71.089844 25.152344 73.28125 24.839844 75.984375 24.839844 C 78.6875 24.839844 80.878906 25.152344 80.878906 25.539062 Z M 80.878906 25.539062 " fill-opacity="1" fill-rule="nonzero"/><path fill="#8eacf7" d="M 75.984375 26.238281 C 78.6875 26.238281 80.878906 25.925781 80.878906 25.539062 L 80.878906 32.6875 C 80.878906 32.804688 80.804688 32.910156 80.691406 32.941406 C 77.617188 33.820312 74.355469 33.820312 71.28125 32.941406 C 71.167969 32.910156 71.089844 32.804688 71.089844 32.6875 L 71.089844 25.539062 C 71.089844 25.925781 73.28125 26.238281 75.984375 26.238281 Z M 75.984375 26.238281 " fill-opacity="1" fill-rule="nonzero"/><path fill="#ffffff" d="M 80.972656 27.574219 C 81.027344 27.65625 81.007812 27.765625 80.925781 27.824219 C 79.71875 28.652344 77.882812 29.085938 76.054688 29.3125 C 74.222656 29.539062 72.363281 29.566406 71.089844 29.566406 L 71.089844 29.210938 C 72.359375 29.210938 74.199219 29.183594 76.011719 28.957031 C 77.832031 28.730469 79.589844 28.308594 80.726562 27.527344 C 80.804688 27.472656 80.917969 27.496094 80.972656 27.574219 Z M 80.972656 30.03125 C 81.023438 30.117188 80.996094 30.226562 80.910156 30.277344 C 79.742188 30.980469 77.855469 31.414062 75.996094 31.671875 C 74.125 31.929688 72.253906 32.015625 71.089844 32.015625 L 71.089844 31.660156 C 72.238281 31.660156 74.09375 31.574219 75.945312 31.316406 C 77.804688 31.0625 79.625 30.636719 80.726562 29.972656 C 80.8125 29.921875 80.921875 29.949219 80.972656 30.03125 Z M 80.972656 30.03125 " fill-opacity="1" fill-rule="evenodd"/><path fill="#ffc600" d="M 76.09375 5.371094 C 71.074219 5.371094 67.003906 9.445312 67.003906 14.46875 C 67.003906 17.09375 68.113281 19.457031 69.886719 21.117188 C 70.636719 21.933594 71.863281 23.902344 72.367188 24.992188 C 72.535156 25.351562 72.914062 25.664062 73.308594 25.664062 L 78.875 25.664062 C 79.105469 25.664062 79.320312 25.554688 79.453125 25.371094 C 80.054688 24.539062 81.066406 23.132812 81.714844 22.128906 C 82.136719 21.484375 82.609375 20.859375 83.101562 20.265625 C 84.402344 18.691406 85.183594 16.671875 85.183594 14.46875 C 85.183594 9.445312 81.113281 5.371094 76.09375 5.371094 Z M 76.09375 5.371094 " fill-opacity="1" fill-rule="nonzero"/><path fill="#fe8d00" d="M 78.460938 15.917969 C 78.457031 15.914062 78.4375 15.910156 78.390625 15.957031 C 78.269531 16.078125 78.132812 16.34375 78.007812 16.835938 C 77.898438 17.269531 77.800781 17.867188 77.726562 18.660156 C 78.488281 18.269531 78.714844 17.359375 78.742188 16.582031 C 78.75 16.386719 78.675781 16.152344 78.574219 16.015625 C 78.523438 15.945312 78.480469 15.921875 78.464844 15.917969 C 78.460938 15.917969 78.460938 15.917969 78.460938 15.917969 Z M 77.691406 19.066406 C 78.800781 18.640625 79.070312 17.441406 79.097656 16.59375 C 79.105469 16.320312 79.011719 16.007812 78.863281 15.804688 C 78.789062 15.703125 78.683594 15.601562 78.546875 15.570312 C 78.394531 15.535156 78.25 15.589844 78.132812 15.710938 C 77.949219 15.902344 77.792969 16.242188 77.664062 16.746094 C 77.539062 17.238281 77.433594 17.902344 77.359375 18.792969 C 77.292969 18.804688 77.207031 18.816406 77.105469 18.824219 C 77.085938 18.828125 77.0625 18.828125 77.042969 18.832031 C 76.179688 18.914062 75.324219 18.996094 74.53125 18.792969 C 74.429688 18.078125 74.3125 17.542969 74.179688 17.152344 C 74.039062 16.746094 73.882812 16.472656 73.695312 16.324219 C 73.5625 16.21875 73.410156 16.183594 73.265625 16.234375 C 73.128906 16.28125 73.027344 16.382812 72.957031 16.496094 C 72.816406 16.714844 72.742188 17.039062 72.785156 17.3125 C 72.894531 17.988281 73.28125 18.746094 74.210938 19.066406 C 74.394531 20.484375 74.515625 22.589844 74.515625 25.664062 L 74.871094 25.664062 C 74.871094 22.6875 74.761719 20.605469 74.582031 19.167969 C 75.398438 19.347656 76.253906 19.265625 77.050781 19.1875 C 77.078125 19.183594 77.109375 19.183594 77.140625 19.179688 C 77.207031 19.171875 77.269531 19.164062 77.328125 19.15625 C 77.222656 20.675781 77.195312 22.785156 77.296875 25.671875 L 77.652344 25.660156 C 77.546875 22.703125 77.582031 20.574219 77.691406 19.066406 Z M 74.152344 18.660156 C 74.058594 18.050781 73.953125 17.597656 73.839844 17.265625 C 73.710938 16.878906 73.578125 16.6875 73.472656 16.601562 C 73.421875 16.558594 73.394531 16.566406 73.378906 16.570312 C 73.351562 16.582031 73.304688 16.613281 73.257812 16.6875 C 73.160156 16.835938 73.105469 17.070312 73.136719 17.257812 C 73.226562 17.796875 73.503906 18.363281 74.152344 18.660156 Z M 74.152344 18.660156 " fill-opacity="1" fill-rule="evenodd"/><path fill="#fe8d00" d="M 89.617188 7.78125 L 88.835938 6.527344 C 88.585938 6.128906 88.019531 6.085938 87.710938 6.445312 L 85.835938 8.632812 C 85.371094 9.175781 85.925781 9.988281 86.597656 9.75 L 89.257812 8.8125 C 89.679688 8.660156 89.851562 8.160156 89.617188 7.78125 Z M 89.617188 7.78125 " fill-opacity="1" fill-rule="nonzero"/><path fill="#fe8d00" d="M 70.042969 0.445312 L 68.296875 1.144531 C 67.84375 1.324219 67.710938 1.910156 68.046875 2.269531 L 70.3125 4.710938 C 70.785156 5.222656 71.628906 4.804688 71.515625 4.121094 L 70.992188 0.980469 C 70.917969 0.539062 70.457031 0.28125 70.042969 0.445312 Z M 70.042969 0.445312 " fill-opacity="1" fill-rule="nonzero"/><path fill="#fe8d00" d="M 81.597656 0.15625 L 79.800781 -0.5625 C 79.355469 -0.742188 78.867188 -0.425781 78.84375 0.0546875 L 78.664062 3.828125 C 78.628906 4.542969 79.5625 4.84375 79.949219 4.242188 L 81.925781 1.1875 C 82.164062 0.816406 82.007812 0.320312 81.597656 0.15625 Z M 81.597656 0.15625 " fill-opacity="1" fill-rule="nonzero"/><path fill="#fe8d00" d="M 62.542969 9.3125 L 61.503906 11.042969 C 61.242188 11.476562 61.515625 12.035156 62.015625 12.097656 L 64.785156 12.445312 C 65.414062 12.523438 65.816406 11.789062 65.410156 11.300781 L 63.679688 9.222656 C 63.371094 8.851562 62.789062 8.898438 62.542969 9.3125 Z M 62.542969 9.3125 " fill-opacity="1" fill-rule="nonzero"/><path fill="#fe8d00" d="M 121.746094 22.945312 L 109.988281 40.429688 C 109.691406 40.867188 109.839844 41.464844 110.304688 41.710938 L 114.839844 44.136719 C 120.078125 46.941406 124.988281 50.328125 129.46875 54.238281 L 132.164062 56.589844 C 132.5625 56.9375 133.175781 56.859375 133.476562 56.421875 L 145.222656 39.359375 C 145.515625 38.9375 145.390625 38.359375 144.957031 38.09375 L 135.515625 32.472656 C 134.183594 31.679688 132.914062 30.792969 131.714844 29.816406 L 123.03125 22.746094 C 122.628906 22.421875 122.035156 22.515625 121.746094 22.945312 Z M 121.746094 22.945312 " fill-opacity="1" fill-rule="nonzero"/><path fill="#ffffff" d="M 122.222656 46.933594 L 112.46875 41.492188 L 111.597656 40.867188 C 111.441406 40.757812 111.398438 40.539062 111.507812 40.382812 L 122.449219 23.875 C 122.566406 23.699219 122.8125 23.664062 122.976562 23.804688 L 123.824219 24.527344 L 132.621094 31.730469 C 132.765625 31.847656 132.792969 32.058594 132.6875 32.210938 L 122.691406 46.824219 C 122.585938 46.972656 122.382812 47.023438 122.222656 46.933594 Z M 122.222656 46.933594 " fill-opacity="1" fill-rule="nonzero"/><path fill="#ffccba" d="M 112.46875 41.492188 L 123.824219 24.527344 L 122.976562 23.804688 C 122.8125 23.664062 122.566406 23.699219 122.449219 23.875 L 111.507812 40.382812 C 111.398438 40.539062 111.441406 40.757812 111.597656 40.867188 Z M 112.46875 41.492188 " fill-opacity="1" fill-rule="nonzero"/><path fill="#ffccba" d="M 130.460938 32.574219 L 124.207031 27.800781 L 124.425781 27.515625 L 130.679688 32.292969 Z M 129.3125 34.390625 L 123.222656 29.941406 L 123.433594 29.65625 L 129.523438 34.101562 Z M 128.324219 36.199219 L 121.085938 30.929688 L 121.292969 30.644531 L 128.535156 35.914062 Z M 128.324219 36.199219 " fill-opacity="1" fill-rule="evenodd"/><path fill="#ffffff" d="M 131.46875 54.273438 L 123.246094 47.386719 C 123.105469 47.269531 123.078125 47.0625 123.183594 46.914062 L 133.0625 32.378906 C 133.167969 32.226562 133.378906 32.179688 133.539062 32.273438 L 134.085938 32.59375 L 135.179688 33.257812 L 143.058594 37.867188 L 144.082031 38.546875 C 144.253906 38.660156 144.292969 38.890625 144.171875 39.054688 L 132.605469 54.828125 C 132.476562 55.003906 132.222656 55.023438 132.066406 54.867188 Z M 131.46875 54.273438 " fill-opacity="1" fill-rule="nonzero"/><path fill="#ffccba" d="M 140.351562 39.144531 L 133.765625 35.054688 L 133.957031 34.753906 L 140.539062 38.839844 Z M 139.03125 40.65625 L 132.449219 36.539062 L 132.640625 36.234375 L 139.222656 40.351562 Z M 137.882812 42.300781 L 131.296875 38.183594 L 131.488281 37.882812 L 138.070312 42 Z M 137.882812 42.300781 " fill-opacity="1" fill-rule="evenodd"/><path fill="#fe8d00" d="M 133.039062 36.386719 L 135.179688 33.257812 L 134.085938 32.59375 L 132.050781 35.652344 L 132.804688 35.652344 Z M 133.039062 36.386719 " fill-opacity="1" fill-rule="nonzero"/><path fill="#ffccba" d="M 131.46875 54.273438 L 143.058594 37.867188 L 144.082031 38.546875 C 144.253906 38.660156 144.292969 38.890625 144.171875 39.054688 L 132.605469 54.828125 C 132.476562 55.003906 132.222656 55.023438 132.066406 54.867188 Z M 131.46875 54.273438 " fill-opacity="1" fill-rule="nonzero"/><path fill="#ffc600" d="M 109.480469 107.554688 L 32.910156 107.554688 C 32.714844 107.554688 32.554688 107.710938 32.554688 107.910156 L 32.554688 108.445312 C 32.554688 108.640625 32.714844 108.800781 32.910156 108.800781 L 35.046875 108.800781 L 35.046875 123.945312 L 32.910156 123.945312 C 32.714844 123.945312 32.554688 124.105469 32.554688 124.304688 L 32.554688 125.015625 C 32.554688 125.214844 32.714844 125.371094 32.910156 125.371094 L 109.480469 125.371094 C 114.398438 125.371094 118.382812 121.382812 118.382812 116.460938 C 118.382812 111.542969 114.398438 107.554688 109.480469 107.554688 Z M 109.480469 107.554688 " fill-opacity="1" fill-rule="nonzero"/><path fill="#f99d23" d="M 84.730469 107.554688 L 86.511719 107.554688 C 90.484375 112.8125 90.507812 120.132812 86.511719 125.371094 L 84.730469 125.371094 C 88.8125 120.160156 88.785156 112.785156 84.730469 107.554688 Z M 84.730469 107.554688 " fill-opacity="1" fill-rule="nonzero"/><path fill="#f99d23" d="M 89.003906 107.554688 L 90.78125 107.554688 C 94.757812 112.8125 94.78125 120.132812 90.785156 125.371094 L 89.003906 125.371094 C 93.085938 120.160156 93.058594 112.785156 89.003906 107.554688 Z M 89.003906 107.554688 " fill-opacity="1" fill-rule="nonzero"/><path fill="#f99d23" d="M 107.164062 107.554688 L 108.945312 107.554688 C 112.917969 112.8125 112.945312 120.132812 108.945312 125.371094 L 107.164062 125.371094 C 111.246094 120.160156 111.222656 112.785156 107.164062 107.554688 Z M 107.164062 107.554688 " fill-opacity="1" fill-rule="nonzero"/><path fill="#f99d23" d="M 32.914062 107.554688 L 72.441406 107.554688 C 77.359375 107.554688 81.34375 111.542969 81.34375 116.460938 C 81.34375 121.382812 77.359375 125.371094 72.441406 125.371094 L 32.914062 125.371094 C 32.714844 125.371094 32.554688 125.214844 32.554688 125.015625 L 32.554688 124.304688 C 32.554688 124.105469 32.714844 123.945312 32.914062 123.945312 L 35.046875 123.945312 L 35.046875 108.800781 L 32.914062 108.800781 C 32.714844 108.800781 32.554688 108.640625 32.554688 108.445312 L 32.554688 107.910156 C 32.554688 107.710938 32.714844 107.554688 32.914062 107.554688 Z M 32.914062 107.554688 " fill-opacity="1" fill-rule="nonzero"/><path fill="#ffffff" d="M 79.742188 116.375 C 79.742188 112.191406 76.355469 108.800781 72.175781 108.800781 L 35.046875 108.800781 L 35.046875 123.945312 L 72.175781 123.945312 C 76.355469 123.945312 79.742188 120.554688 79.742188 116.375 Z M 79.742188 116.375 " fill-opacity="1" fill-rule="nonzero"/><path fill="#f4f4f4" d="M 35.046875 111.828125 L 71.550781 111.828125 C 71.746094 111.828125 71.90625 111.671875 71.90625 111.472656 C 71.90625 111.277344 71.746094 111.117188 71.550781 111.117188 L 35.046875 111.117188 Z M 35.046875 111.828125 " fill-opacity="1" fill-rule="nonzero"/><path fill="#f4f4f4" d="M 35.046875 115.035156 L 71.550781 115.035156 C 71.746094 115.035156 71.90625 114.878906 71.90625 114.679688 C 71.90625 114.484375 71.746094 114.324219 71.550781 114.324219 L 35.046875 114.324219 Z M 35.046875 115.035156 " fill-opacity="1" fill-rule="nonzero"/><path fill="#f4f4f4" d="M 35.046875 118.601562 L 71.550781 118.601562 C 71.746094 118.601562 71.90625 118.441406 71.90625 118.246094 C 71.90625 118.046875 71.746094 117.886719 71.550781 117.886719 L 35.046875 117.886719 Z M 35.046875 118.601562 " fill-opacity="1" fill-rule="nonzero"/><path fill="#f4f4f4" d="M 35.046875 121.808594 L 71.550781 121.808594 C 71.746094 121.808594 71.90625 121.648438 71.90625 121.453125 C 71.90625 121.253906 71.746094 121.097656 71.550781 121.097656 L 35.046875 121.097656 Z M 35.046875 121.808594 " fill-opacity="1" fill-rule="nonzero"/><path fill="#d5e3ff" d="M 118.738281 125.371094 L 28.992188 125.371094 C 28.796875 125.371094 28.636719 125.53125 28.636719 125.730469 L 28.636719 126.441406 C 28.636719 126.636719 28.796875 126.796875 28.992188 126.796875 L 29.527344 126.796875 L 29.527344 131.609375 L 28.992188 131.609375 C 28.796875 131.609375 28.636719 131.769531 28.636719 131.964844 L 28.636719 132.5 C 28.636719 132.695312 28.796875 132.855469 28.992188 132.855469 L 118.738281 132.855469 C 120.804688 132.855469 122.476562 131.179688 122.476562 129.113281 C 122.476562 127.046875 120.804688 125.371094 118.738281 125.371094 Z M 118.738281 125.371094 " fill-opacity="1" fill-rule="nonzero"/><path fill="#a1bafc" d="M 28.992188 125.371094 L 58.195312 125.371094 C 60.261719 125.371094 61.9375 127.046875 61.9375 129.113281 C 61.9375 131.179688 60.261719 132.855469 58.195312 132.855469 L 28.992188 132.855469 C 28.796875 132.855469 28.636719 132.695312 28.636719 132.5 L 28.636719 131.964844 C 28.636719 131.769531 28.796875 131.609375 28.992188 131.609375 L 29.527344 131.609375 L 29.527344 126.796875 L 28.992188 126.796875 C 28.796875 126.796875 28.636719 126.636719 28.636719 126.441406 L 28.636719 125.730469 C 28.636719 125.53125 28.796875 125.371094 28.992188 125.371094 Z M 28.992188 125.371094 " fill-opacity="1" fill-rule="nonzero"/><path fill="#ffffff" d="M 29.527344 126.796875 L 57.929688 126.796875 C 59.257812 126.796875 60.332031 127.875 60.332031 129.203125 C 60.332031 130.53125 59.257812 131.609375 57.929688 131.609375 L 29.527344 131.609375 Z M 29.527344 126.796875 " fill-opacity="1" fill-rule="nonzero"/><path fill="#a1bafc" d="M 116.425781 127.511719 C 116.425781 127.3125 116.265625 127.15625 116.066406 127.15625 L 68.347656 127.15625 C 68.148438 127.15625 67.992188 127.3125 67.992188 127.511719 L 67.992188 130.363281 C 67.992188 130.558594 68.148438 130.71875 68.347656 130.71875 L 116.066406 130.71875 C 116.265625 130.71875 116.425781 130.558594 116.425781 130.363281 Z M 116.425781 127.511719 " fill-opacity="1" fill-rule="nonzero"/><path fill="#ffccba" d="M 41.460938 132.855469 L 118.027344 132.855469 C 118.222656 132.855469 118.382812 133.015625 118.382812 133.214844 L 118.382812 133.746094 C 118.382812 133.945312 118.222656 134.105469 118.027344 134.105469 L 115.890625 134.105469 L 115.890625 149.25 L 118.027344 149.25 C 118.222656 149.25 118.382812 149.410156 118.382812 149.605469 L 118.382812 150.320312 C 118.382812 150.515625 118.222656 150.675781 118.027344 150.675781 L 41.460938 150.675781 C 36.542969 150.675781 32.554688 146.6875 32.554688 141.765625 C 32.554688 136.84375 36.542969 132.855469 41.460938 132.855469 Z M 41.460938 132.855469 " fill-opacity="1" fill-rule="nonzero"/><path fill="#fe8d00" d="M 66.210938 132.855469 L 64.429688 132.855469 C 60.457031 138.113281 60.429688 145.4375 64.429688 150.675781 L 66.210938 150.675781 C 62.128906 145.464844 62.152344 138.085938 66.210938 132.855469 Z M 66.210938 132.855469 " fill-opacity="1" fill-rule="nonzero"/><path fill="#fe8d00" d="M 61.9375 132.855469 L 60.15625 132.855469 C 56.183594 138.113281 56.15625 145.4375 60.15625 150.675781 L 61.9375 150.675781 C 57.855469 145.464844 57.878906 138.085938 61.9375 132.855469 Z M 61.9375 132.855469 " fill-opacity="1" fill-rule="nonzero"/><path fill="#fe8d00" d="M 43.773438 132.855469 L 41.992188 132.855469 C 38.019531 138.113281 37.992188 145.4375 41.992188 150.675781 L 43.773438 150.675781 C 39.691406 145.464844 39.71875 138.085938 43.773438 132.855469 Z M 43.773438 132.855469 " fill-opacity="1" fill-rule="nonzero"/><path fill="#fe8d00" d="M 118.027344 132.855469 L 78.496094 132.855469 C 73.578125 132.855469 69.59375 136.84375 69.59375 141.765625 C 69.59375 146.6875 73.578125 150.675781 78.496094 150.675781 L 118.027344 150.675781 C 118.222656 150.675781 118.382812 150.515625 118.382812 150.320312 L 118.382812 149.605469 C 118.382812 149.410156 118.222656 149.25 118.027344 149.25 L 115.890625 149.25 L 115.890625 134.105469 L 118.027344 134.105469 C 118.222656 134.105469 118.382812 133.945312 118.382812 133.746094 L 118.382812 133.214844 C 118.382812 133.015625 118.222656 132.855469 118.027344 132.855469 Z M 118.027344 132.855469 " fill-opacity="1" fill-rule="nonzero"/><path fill="#ffffff" d="M 71.195312 141.675781 C 71.195312 137.496094 74.585938 134.105469 78.765625 134.105469 L 115.890625 134.105469 L 115.890625 149.25 L 78.765625 149.25 C 74.585938 149.25 71.195312 145.859375 71.195312 141.675781 Z M 71.195312 141.675781 " fill-opacity="1" fill-rule="nonzero"/><path fill="#f4f4f4" d="M 115.890625 137.132812 L 79.386719 137.132812 C 79.191406 137.132812 79.03125 136.972656 79.03125 136.777344 C 79.03125 136.578125 79.191406 136.421875 79.386719 136.421875 L 115.890625 136.421875 Z M 115.890625 137.132812 " fill-opacity="1" fill-rule="nonzero"/><path fill="#f4f4f4" d="M 115.890625 140.339844 L 79.386719 140.339844 C 79.191406 140.339844 79.03125 140.179688 79.03125 139.984375 C 79.03125 139.789062 79.191406 139.628906 79.386719 139.628906 L 115.890625 139.628906 Z M 115.890625 140.339844 " fill-opacity="1" fill-rule="nonzero"/><path fill="#f4f4f4" d="M 115.890625 143.90625 L 79.386719 143.90625 C 79.191406 143.90625 79.03125 143.746094 79.03125 143.546875 C 79.03125 143.351562 79.191406 143.191406 79.386719 143.191406 L 115.890625 143.191406 Z M 115.890625 143.90625 " fill-opacity="1" fill-rule="nonzero"/><path fill="#f4f4f4" d="M 115.890625 147.113281 L 79.386719 147.113281 C 79.191406 147.113281 79.03125 146.953125 79.03125 146.757812 C 79.03125 146.558594 79.191406 146.398438 79.386719 146.398438 L 115.890625 146.398438 Z M 115.890625 147.113281 " fill-opacity="1" fill-rule="nonzero"/><path fill="#fe8d00" d="M 28.75 31.863281 L 46.492188 41.753906 L 46.492188 42.339844 C 46.492188 42.519531 46.355469 42.671875 46.175781 42.691406 L 34.535156 44.027344 L 34.097656 49.015625 C 34.089844 49.132812 34.019531 49.238281 33.914062 49.292969 C 28.957031 51.839844 19.371094 49.875 15.488281 45.300781 C 15.40625 45.203125 15.386719 45.066406 15.433594 44.945312 L 17.386719 40.082031 L 6.847656 32.921875 C 6.6875 32.808594 6.644531 32.589844 6.753906 32.425781 L 7.007812 32.042969 L 28.574219 31.820312 C 28.636719 31.820312 28.695312 31.835938 28.75 31.863281 Z M 28.75 31.863281 " fill-opacity="1" fill-rule="nonzero"/><path fill="#ffccba" d="M 25.175781 44.164062 L 7.007812 32.042969 L 28.574219 31.820312 C 28.636719 31.820312 28.695312 31.835938 28.75 31.863281 L 46.492188 41.753906 L 25.414062 44.222656 C 25.328125 44.230469 25.246094 44.210938 25.175781 44.164062 Z M 25.175781 44.164062 " fill-opacity="1" fill-rule="nonzero"/><path fill="#ffccba" d="M 24.613281 44.992188 L 17.386719 40.082031 L 15.433594 44.945312 C 15.386719 45.066406 15.40625 45.203125 15.488281 45.300781 C 19.371094 49.875 28.957031 51.839844 33.914062 49.292969 C 34.023438 49.238281 34.089844 49.132812 34.097656 49.015625 L 34.535156 44.027344 L 25.09375 45.109375 C 24.925781 45.128906 24.753906 45.085938 24.613281 44.992188 Z M 24.613281 44.992188 " fill-opacity="1" fill-rule="nonzero"/><path fill="#fe8d00" d="M 9.597656 45.449219 C 9.53125 45.632812 9.453125 45.824219 9.375 46.03125 C 9.144531 46.621094 9.148438 47.269531 9.347656 47.871094 C 9.433594 48.128906 9.671875 48.300781 9.941406 48.300781 L 10.824219 48.300781 C 10.929688 48.300781 10.992188 48.183594 10.933594 48.097656 C 10.480469 47.417969 10.535156 46.515625 11.0625 45.894531 C 11.347656 45.558594 11.664062 45.1875 11.976562 44.816406 C 12.410156 44.296875 12.589844 43.644531 12.414062 42.988281 C 12.351562 42.761719 12.289062 42.53125 12.238281 42.347656 C 12.210938 42.253906 12.222656 42.160156 12.269531 42.078125 L 13.96875 38.980469 C 14.40625 38.183594 15.246094 37.6875 16.152344 37.6875 L 26.414062 37.6875 C 26.539062 37.6875 26.636719 37.589844 26.636719 37.464844 C 26.636719 37.339844 26.535156 37.238281 26.410156 37.242188 L 15.707031 37.4375 C 14.792969 37.453125 13.964844 37.964844 13.542969 38.773438 L 11.777344 42.144531 C 11.757812 42.183594 11.730469 42.21875 11.695312 42.25 L 11.226562 42.660156 C 10.410156 43.375 9.976562 44.429688 9.597656 45.449219 Z M 9.597656 45.449219 " fill-opacity="1" fill-rule="nonzero"/><path fill="#fe8d00" d="M 28.214844 37.464844 C 28.214844 37.710938 27.710938 37.914062 27.089844 37.914062 C 26.464844 37.914062 25.960938 37.710938 25.960938 37.464844 C 25.960938 37.214844 26.464844 37.011719 27.089844 37.011719 C 27.710938 37.011719 28.214844 37.214844 28.214844 37.464844 Z M 28.214844 37.464844 " fill-opacity="1" fill-rule="nonzero"/><path fill="#65c688" d="M 16.664062 138.15625 C 16.746094 142.5625 20.207031 144.890625 20.679688 150.804688 L 24.859375 150.804688 L 24.335938 142.949219 C 24.335938 139.46875 22.453125 139.058594 22.261719 134.316406 C 22.253906 134.085938 22.210938 133.855469 22.140625 133.636719 C 22.050781 133.375 21.917969 133.128906 21.742188 132.914062 C 21.246094 132.320312 20.394531 132.105469 19.753906 131.675781 C 19.183594 131.292969 18.792969 130.628906 18.613281 130.179688 C 18.597656 130.140625 18.589844 130.097656 18.589844 130.054688 C 18.585938 129.542969 18.511719 127.246094 17.011719 125.550781 C 16.152344 124.578125 14.777344 124.488281 13.480469 124.40625 C 13.085938 124.378906 12.691406 124.324219 12.355469 124.214844 C 12.167969 124.15625 11.996094 123.988281 11.839844 123.863281 C 11.179688 123.34375 9.152344 122.191406 7.46875 121.84375 C 6.890625 121.722656 6.3125 121.921875 5.828125 122.261719 C 4.730469 123.027344 4.546875 124.363281 5.804688 124.8125 C 6.792969 125.160156 7.992188 125.421875 8.957031 125.65625 C 9.5625 125.804688 9.96875 126.351562 9.96875 126.976562 C 9.96875 127.390625 9.710938 129.792969 11.714844 131.363281 C 11.765625 131.40625 11.8125 131.457031 11.851562 131.515625 C 12.597656 132.570312 14.941406 132.777344 16.230469 135.269531 C 16.683594 136.144531 16.644531 137.171875 16.664062 138.15625 Z M 16.664062 138.15625 " fill-opacity="1" fill-rule="nonzero"/><path fill="#007d41" d="M 9.816406 124.261719 C 9.867188 124.179688 9.976562 124.152344 10.0625 124.207031 C 14.679688 127.117188 17.769531 132.265625 19.703125 137.421875 C 21.636719 142.578125 22.425781 147.773438 22.425781 150.804688 L 22.066406 150.804688 C 22.066406 147.816406 21.289062 142.667969 19.367188 137.546875 C 17.449219 132.421875 14.394531 127.359375 9.871094 124.507812 C 9.789062 124.457031 9.761719 124.347656 9.816406 124.261719 Z M 9.816406 124.261719 " fill-opacity="1" fill-rule="evenodd"/><path fill="#65c688" d="M 8.84375 144.890625 C 10.316406 149.902344 13.679688 148.324219 15.410156 150.804688 L 21.683594 150.804688 L 21.566406 149.234375 L 20.230469 146.578125 C 19.820312 145.761719 19.867188 144.800781 19.710938 143.902344 C 19.320312 141.65625 15.871094 141.105469 14.367188 140.070312 L 11.691406 138.28125 C 10.871094 137.734375 9.949219 137.304688 8.960938 137.296875 C 5.269531 137.257812 0.164062 139.507812 0 145.035156 C -0.00390625 145.199219 0.0898438 145.355469 0.238281 145.429688 C 0.40625 145.511719 0.605469 145.476562 0.753906 145.359375 C 1.574219 144.695312 2.65625 144.519531 3.132812 144.519531 C 4.667969 144.519531 6.199219 143.601562 7.734375 143.765625 C 8.304688 143.828125 8.683594 144.339844 8.84375 144.890625 Z M 8.84375 144.890625 " fill-opacity="1" fill-rule="nonzero"/><path fill="#007d41" d="M 16.457031 144.832031 C 17.628906 146.269531 18.367188 148.222656 18.367188 150.804688 L 18.722656 150.804688 C 18.722656 148.152344 17.960938 146.113281 16.734375 144.605469 C 15.507812 143.097656 13.824219 142.132812 12.003906 141.601562 C 8.367188 140.539062 4.132812 141.199219 1.730469 142.800781 C 1.648438 142.855469 1.625 142.96875 1.679688 143.050781 C 1.734375 143.132812 1.84375 143.152344 1.925781 143.097656 C 4.234375 141.558594 8.355469 140.90625 11.902344 141.941406 C 13.671875 142.457031 15.285156 143.390625 16.457031 144.832031 Z M 16.457031 144.832031 " fill-opacity="1" fill-rule="evenodd"/><path fill="#f7aa8c" d="M 74.789062 60.820312 C 74.46875 60.75 74.164062 60.628906 73.886719 60.441406 C 73.386719 60.105469 73.035156 59.28125 72.808594 58.238281 C 72.46875 56.679688 72.421875 54.636719 72.605469 53.035156 C 74.578125 53.210938 77.535156 51.980469 78.921875 51.3125 C 78.90625 52.765625 79.46875 54.460938 79.75 55.128906 C 80.195312 54.738281 81.339844 53.890625 81.953125 55.050781 C 82.601562 56.28125 81.53125 57.878906 80.203125 58.140625 C 80.140625 58.4375 80.230469 60.964844 80.746094 63.136719 C 76.929688 66.445312 74.582031 64.59375 74.214844 63.4375 C 74.242188 63.261719 74.226562 62.902344 74.226562 62.902344 C 74.328125 62.132812 74.761719 61.664062 74.789062 60.820312 Z M 74.789062 60.820312 " fill-opacity="1" fill-rule="nonzero"/><path fill="#8c1a00" d="M 73.886719 60.441406 C 74.164062 60.628906 74.464844 60.75 74.785156 60.816406 C 76.308594 61.136719 78.273438 60.140625 80.203125 58.140625 C 81.53125 57.878906 82.597656 56.28125 81.949219 55.050781 C 81.339844 53.890625 80.195312 54.738281 79.75 55.128906 C 79.464844 54.460938 78.90625 52.765625 78.921875 51.3125 C 77.535156 51.980469 74.578125 53.210938 72.605469 53.035156 C 72.460938 53.023438 72.328125 53.003906 72.195312 52.976562 C 72.039062 51.558594 71.601562 49.03125 73.582031 48.171875 C 75.515625 47.332031 80.371094 47.0625 82.714844 49.75 C 84.332031 51.601562 82.324219 55.742188 84.363281 60.664062 C 83.808594 61.371094 82.472656 62.519531 80.554688 63.082031 C 79.621094 59.789062 80.015625 58.617188 80.203125 58.140625 C 78.273438 60.140625 76.308594 61.136719 74.785156 60.816406 C 74.773438 61.058594 74.648438 62.179688 74.582031 62.738281 L 73.132812 62.882812 C 72.890625 61.402344 72.808594 59.722656 72.808594 58.238281 C 73.03125 59.28125 73.386719 60.105469 73.886719 60.441406 Z M 73.886719 60.441406 " fill-opacity="1" fill-rule="nonzero"/><path fill="#3a3683" d="M 53.359375 46.964844 L 57.304688 51.683594 L 64.882812 52.625 L 62.5625 64.984375 L 56.25 66.714844 L 53.359375 62.46875 Z M 53.359375 46.964844 " fill-opacity="1" fill-rule="nonzero"/><path fill="#6c64f5" d="M 57.304688 51.683594 L 53.804688 47.5 L 55.328125 47.5 C 56.042969 48.390625 57.507812 50.386719 57.652344 51.242188 L 62.65625 52.351562 Z M 57.304688 51.683594 " fill-opacity="1" fill-rule="nonzero"/><path fill="#f7aa8c" d="M 58.328125 57.652344 C 58.703125 58.644531 56.335938 61.625 57.707031 62.988281 C 58.117188 63.402344 58.390625 63.921875 58.566406 64.449219 L 55.648438 65.320312 C 55.507812 64.804688 55.257812 64.324219 54.839844 63.984375 C 53.46875 62.863281 53.59375 61.003906 53.222656 59.511719 C 52.847656 58.023438 51.351562 56.90625 51.851562 56.660156 C 52.25 56.460938 53.261719 57.484375 53.71875 58.023438 C 53.71875 57.277344 53.71875 53.925781 54.46875 54.300781 C 55.0625 54.59375 54.964844 56.789062 54.84375 57.875 C 54.976562 56.75 55.714844 54.550781 56.210938 55.042969 C 56.585938 55.417969 56.210938 56.660156 56.085938 57.527344 C 55.988281 58.222656 56.128906 60.132812 56.210938 61.003906 C 56.585938 59.636719 58.082031 56.996094 58.328125 57.652344 Z M 58.328125 57.652344 " fill-opacity="1" fill-rule="nonzero"/><path fill="#6c64f5" d="M 100.597656 84.378906 C 101.492188 79.390625 98.273438 71.195312 94.695312 66.917969 C 92.820312 64.675781 87.675781 63.28125 83.222656 62.550781 C 81.078125 65.796875 76.035156 70.308594 73.03125 62.386719 C 67.667969 63.894531 64.089844 65.855469 62.867188 74.757812 C 62.320312 72.621094 61.515625 65.355469 61.226562 64.785156 C 59.082031 63.894531 55.328125 65.148438 53.003906 66.566406 C 55.507812 86.707031 60 87.5 62.867188 85.8125 C 64.984375 84.5625 67.152344 82.683594 68.683594 80.007812 C 68.636719 84.332031 68.203125 87.945312 66.949219 89.011719 C 65.699219 90.082031 66.949219 91.0625 66.59375 91.328125 C 64.589844 92.828125 64.625 93.644531 66.054688 93.824219 L 66.074219 93.832031 C 69.417969 95.140625 76.984375 98.101562 85.753906 95.25 C 86.789062 94.914062 91.476562 96.328125 92.550781 95.960938 C 93.953125 95.484375 92.90625 94.714844 92.90625 94.003906 L 93.039062 92.886719 C 94.847656 91.5 96.867188 89.890625 98.371094 88.226562 C 99.542969 87.40625 100.316406 86.210938 100.597656 84.378906 Z M 100.597656 84.378906 " fill-opacity="1" fill-rule="nonzero"/><path fill="#3a3683" d="M 68.863281 80.011719 C 68.898438 76.96875 68.578125 73.507812 67.839844 70.261719 L 67.492188 70.34375 C 68.226562 73.558594 68.542969 76.988281 68.507812 80.007812 Z M 63.546875 77.582031 L 63.039062 74.726562 L 62.691406 74.789062 L 63.195312 77.644531 Z M 63.546875 77.582031 " fill-opacity="1" fill-rule="evenodd"/><path fill="#3a3683" d="M 89.808594 71.625 L 89.460938 71.6875 L 91.03125 80.335938 C 89.148438 80.824219 87.863281 81.371094 86.84375 81.851562 C 86.625 81.953125 86.425781 82.050781 86.230469 82.144531 C 85.480469 82.507812 84.875 82.800781 84.210938 82.96875 L 84.296875 83.3125 C 85 83.136719 85.644531 82.824219 86.402344 82.457031 C 86.59375 82.367188 86.789062 82.273438 86.992188 82.175781 C 88.03125 81.6875 89.335938 81.128906 91.28125 80.636719 L 91.441406 80.597656 Z M 90.195312 90.113281 C 88.683594 90.300781 87.050781 90.5 85.332031 90.800781 L 85.390625 91.152344 C 87.101562 90.851562 88.726562 90.652344 90.234375 90.46875 C 90.519531 90.433594 90.800781 90.398438 91.074219 90.363281 C 92.8125 90.148438 94.386719 89.925781 95.738281 89.5625 C 97.089844 89.195312 98.234375 88.679688 99.097656 87.863281 C 99.964844 87.046875 100.539062 85.933594 100.773438 84.40625 L 100.421875 84.351562 C 100.199219 85.816406 99.65625 86.847656 98.855469 87.605469 C 98.050781 88.363281 96.96875 88.859375 95.644531 89.21875 C 94.320312 89.574219 92.769531 89.792969 91.03125 90.011719 C 90.757812 90.042969 90.476562 90.078125 90.195312 90.113281 Z M 90.195312 90.113281 " fill-opacity="1" fill-rule="evenodd"/><path fill="#3a3683" d="M 73.03125 62.386719 C 76.035156 70.308594 81.078125 65.796875 83.222656 62.550781 C 82.5 62.433594 81.28125 62.203125 80.585938 62.113281 C 77.1875 67.105469 75.175781 64.066406 74.542969 62.117188 C 74.144531 62.175781 73.359375 62.332031 73.03125 62.386719 Z M 73.03125 62.386719 " fill-opacity="1" fill-rule="nonzero"/><path fill="#8c1a00" d="M 77.664062 107.789062 C 67.257812 111.472656 65.09375 111.867188 61.636719 111.5625 C 61.878906 111.199219 62.464844 110.21875 62.703125 109.882812 C 63.28125 109.066406 63.84375 108.359375 64.390625 107.742188 C 64.882812 106.925781 65.3125 106.101562 65.570312 105.375 C 66.1875 104.628906 68.164062 102.882812 71.546875 101.136719 C 71.601562 101.726562 71.386719 102.476562 71.414062 102.765625 C 71.277344 105.183594 74.886719 107.015625 77.664062 107.789062 Z M 77.664062 107.789062 " fill-opacity="1" fill-rule="nonzero"/><path fill="#f7aa8c" d="M 71.546875 101.136719 C 68.164062 102.882812 66.1875 104.628906 65.570312 105.375 C 66.609375 103.671875 67.167969 100.800781 70.3125 99.117188 L 73.136719 99.671875 C 72.457031 100.175781 71.933594 100.667969 71.546875 101.136719 Z M 71.546875 101.136719 " fill-opacity="1" fill-rule="nonzero"/><path fill="#3a3683" d="M 79.53125 85.789062 L 79.53125 80.476562 C 79.53125 80.976562 78.003906 81.378906 76.125 81.378906 C 74.242188 81.378906 72.71875 80.976562 72.71875 80.476562 L 72.71875 85.789062 C 72.71875 87.671875 74.242188 89.199219 76.125 89.199219 C 78.003906 89.199219 79.53125 87.671875 79.53125 85.789062 Z M 79.53125 85.789062 " fill-opacity="1" fill-rule="nonzero"/><path fill="#3a3683" d="M 76.125 81.378906 C 78.003906 81.378906 79.53125 80.976562 79.53125 80.476562 C 79.53125 79.980469 78.003906 79.574219 76.125 79.574219 C 74.242188 79.574219 72.71875 79.980469 72.71875 80.476562 C 72.71875 80.976562 74.242188 81.378906 76.125 81.378906 Z M 76.125 81.378906 " fill-opacity="1" fill-rule="nonzero"/><path fill="#6c64f5" d="M 76.125 80.976562 C 77.671875 80.976562 78.929688 80.753906 78.929688 80.476562 C 78.929688 80.199219 77.671875 79.976562 76.125 79.976562 C 74.574219 79.976562 73.320312 80.199219 73.320312 80.476562 C 73.320312 80.753906 74.574219 80.976562 76.125 80.976562 Z M 76.125 80.976562 " fill-opacity="1" fill-rule="nonzero"/><path fill="#f7aa8c" d="M 79.671875 81.136719 C 80.320312 81.789062 81.617188 81.65625 82.527344 83.476562 C 82.738281 83.902344 82.800781 84.441406 82.769531 85.023438 L 85.503906 84.25 C 85.867188 84.777344 86.507812 86.382812 86.15625 88.585938 L 81.617188 88.933594 C 80.320312 89.84375 79.902344 87.894531 79.671875 87.765625 C 79.4375 87.632812 76.683594 87.113281 76.8125 86.726562 C 76.945312 86.335938 79.671875 86.464844 79.902344 86.464844 C 79.816406 86.320312 79.632812 86.175781 79.28125 86.074219 C 78.371094 85.816406 76.683594 85.425781 76.8125 84.90625 C 76.917969 84.488281 78.761719 84.90625 79.671875 85.164062 L 79.019531 84.386719 C 78.113281 83.996094 76.683594 83.476562 76.8125 83.085938 C 76.945312 82.695312 78.371094 82.957031 79.019531 83.085938 C 79.539062 83.191406 80.191406 83.910156 80.449219 84.257812 C 80.578125 83.996094 80.710938 83.214844 79.800781 82.566406 C 78.890625 81.917969 79.019531 80.488281 79.671875 81.136719 Z M 79.671875 81.136719 " fill-opacity="1" fill-rule="nonzero"/><path fill="#3a3683" d="M 78.265625 82.375 L 77.664062 82.304688 L 77.785156 81.269531 L 78.386719 81.34375 C 79.5625 81.480469 80.449219 82.480469 80.449219 83.664062 L 80.449219 86.359375 C 80.449219 87.714844 79.210938 88.734375 77.882812 88.46875 L 78.085938 87.449219 C 78.769531 87.585938 79.410156 87.058594 79.410156 86.359375 L 79.410156 83.664062 C 79.410156 83.007812 78.917969 82.453125 78.265625 82.375 Z M 78.265625 82.375 " fill-opacity="1" fill-rule="evenodd"/><path fill="#8c1a00" d="M 77.789062 108.074219 C 67.429688 111.753906 65.273438 112.152344 61.832031 111.847656 C 62.074219 111.484375 62.65625 110.5 62.894531 110.167969 C 63.46875 109.351562 64.027344 108.644531 64.574219 108.027344 C 65.066406 107.207031 65.492188 106.386719 65.746094 105.65625 C 66.363281 104.914062 68.332031 103.167969 71.699219 101.421875 C 71.753906 102.011719 71.542969 102.761719 71.566406 103.050781 C 71.433594 105.464844 75.023438 107.300781 77.789062 108.074219 Z M 77.789062 108.074219 " fill-opacity="1" fill-rule="nonzero"/><path fill="#3a3683" d="M 107.703125 94.238281 C 114.265625 105.910156 99.621094 113.890625 76.804688 108.390625 C 75.574219 109.398438 74.664062 108.371094 74.363281 107.730469 C 72.773438 109.300781 70.816406 106.066406 71.335938 103.328125 C 71.371094 102.699219 71.125 102.125 71.699219 101.417969 C 68.328125 103.164062 66.363281 104.910156 65.746094 105.65625 C 65.488281 106.386719 65.0625 107.207031 64.570312 108.023438 C 64.027344 108.640625 63.46875 109.347656 62.890625 110.167969 C 61.332031 109.835938 60.949219 109.222656 61.039062 108.648438 C 42.566406 104.628906 39.9375 97.300781 43.984375 92.039062 C 47.644531 87.28125 65.3125 91.410156 80.386719 95.941406 C 91.570312 90.636719 103.914062 87.496094 107.703125 94.238281 Z M 107.703125 94.238281 " fill-opacity="1" fill-rule="nonzero"/><path fill="#8a86d3" d="M 47.921875 94.957031 C 47.925781 94.910156 47.972656 94.875 48.019531 94.882812 C 53.652344 95.570312 58.4375 96.515625 61.8125 97.285156 C 63.503906 97.671875 64.835938 98.015625 65.753906 98.261719 C 66.210938 98.386719 66.5625 98.484375 66.796875 98.554688 C 66.917969 98.585938 67.007812 98.613281 67.066406 98.632812 C 67.097656 98.640625 67.121094 98.648438 67.136719 98.652344 L 67.140625 98.652344 C 67.601562 98.605469 68.3125 98.621094 68.972656 98.722656 C 69.304688 98.773438 69.628906 98.847656 69.902344 98.949219 C 70.171875 99.046875 70.402344 99.179688 70.542969 99.347656 C 70.574219 99.386719 70.566406 99.441406 70.527344 99.472656 C 70.492188 99.503906 70.433594 99.496094 70.402344 99.460938 C 70.296875 99.328125 70.101562 99.210938 69.839844 99.117188 C 69.582031 99.019531 69.269531 98.949219 68.945312 98.898438 C 68.289062 98.796875 67.585938 98.785156 67.144531 98.832031 L 67.125 98.835938 L 67.109375 98.828125 L 67.132812 98.746094 C 67.109375 98.828125 67.109375 98.828125 67.109375 98.828125 L 67.101562 98.828125 L 67.085938 98.824219 C 67.070312 98.816406 67.046875 98.8125 67.015625 98.800781 C 66.957031 98.785156 66.867188 98.757812 66.75 98.722656 C 66.511719 98.65625 66.160156 98.558594 65.707031 98.433594 C 64.792969 98.1875 63.460938 97.847656 61.773438 97.460938 C 58.402344 96.6875 53.625 95.746094 48 95.058594 C 47.949219 95.050781 47.914062 95.007812 47.921875 94.957031 Z M 93.960938 92.574219 C 93.972656 92.621094 93.945312 92.671875 93.898438 92.683594 C 91.527344 93.320312 79.191406 97.851562 73.3125 100.042969 C 73.269531 100.058594 73.21875 100.035156 73.199219 99.988281 C 73.183594 99.941406 73.207031 99.890625 73.253906 99.875 C 79.125 97.6875 91.472656 93.148438 93.851562 92.511719 C 93.898438 92.5 93.949219 92.527344 93.960938 92.574219 Z M 93.960938 92.574219 " fill-opacity="1" fill-rule="evenodd"/><path fill="#8a86d3" d="M 49.484375 100.796875 C 52.71875 102.9375 56.636719 104.679688 60.191406 105.953125 C 60.929688 103.277344 62.589844 100.136719 65.753906 98.355469 C 66.050781 98.4375 66.304688 98.503906 66.507812 98.5625 C 63.171875 100.199219 61.445312 103.390625 60.695312 106.132812 C 62.207031 106.660156 63.640625 107.097656 64.910156 107.445312 C 64.824219 107.605469 64.730469 107.765625 64.636719 107.921875 C 63.398438 107.582031 62.015625 107.15625 60.5625 106.652344 C 60.410156 107.308594 60.3125 107.929688 60.265625 108.476562 C 60.089844 108.4375 59.914062 108.394531 59.738281 108.355469 C 59.792969 107.78125 59.898438 107.144531 60.058594 106.472656 C 56.464844 105.191406 52.484375 103.425781 49.191406 101.242188 C 46.234375 99.28125 43.792969 96.957031 42.722656 94.304688 C 42.808594 94.058594 42.910156 93.816406 43.023438 93.578125 C 43.90625 96.289062 46.351562 98.71875 49.484375 100.796875 Z M 49.484375 100.796875 " fill-opacity="1" fill-rule="nonzero"/><path fill="#8a86d3" d="M 100.457031 105.46875 C 94.445312 107.566406 85.8125 108.023438 76.816406 107.304688 C 77.15625 107.816406 77.46875 108.257812 77.742188 108.613281 L 77.71875 108.605469 C 77.460938 108.546875 77.199219 108.488281 76.9375 108.425781 C 76.691406 108.082031 76.421875 107.6875 76.140625 107.25 C 74.71875 107.125 73.285156 106.972656 71.855469 106.796875 C 71.761719 106.617188 71.679688 106.425781 71.605469 106.226562 C 73 106.402344 74.390625 106.554688 75.777344 106.679688 C 74.765625 105.050781 73.617188 102.90625 72.664062 100.453125 C 72.800781 100.335938 72.945312 100.214844 73.097656 100.097656 C 74.117188 102.761719 75.375 105.058594 76.445312 106.738281 C 85.566406 107.5 94.28125 107.058594 100.28125 104.964844 C 103.296875 103.914062 105.597656 102.457031 106.929688 100.558594 C 107.980469 99.066406 108.449219 97.277344 108.175781 95.152344 C 108.417969 95.660156 108.617188 96.160156 108.78125 96.652344 C 108.71875 98.238281 108.230469 99.640625 107.367188 100.863281 C 105.941406 102.890625 103.527344 104.398438 100.457031 105.46875 Z M 100.457031 105.46875 " fill-opacity="1" fill-rule="nonzero"/><path fill="#f7aa8c" d="M 71.703125 101.421875 C 68.332031 103.167969 66.363281 104.914062 65.746094 105.65625 C 66.78125 103.953125 67.335938 101.082031 70.472656 99.402344 L 73.28125 99.957031 C 72.605469 100.460938 72.085938 100.949219 71.703125 101.421875 Z M 71.703125 101.421875 " fill-opacity="1" fill-rule="nonzero"/></svg>