<svg xmlns="http://www.w3.org/2000/svg" xmlns:xlink="http://www.w3.org/1999/xlink" width="200" zoomAndPan="magnify" viewBox="0 0 150 149.999998" height="200" preserveAspectRatio="xMidYMid meet" version="1.0"><path fill="#fda4ff" d="M 51.332031 26.125 C 49.1875 26.753906 46.945312 25.523438 46.320312 23.382812 C 45.699219 21.238281 46.929688 18.992188 49.074219 18.363281 C 51.21875 17.738281 53.464844 18.964844 54.085938 21.105469 C 54.710938 23.25 53.476562 25.496094 51.332031 26.125 Z M 59.066406 21.316406 L 58.171875 18.242188 L 56.253906 18.800781 C 55.882812 18.148438 55.410156 17.570312 54.867188 17.078125 L 55.832031 15.324219 L 53.019531 13.789062 L 52.058594 15.542969 C 51.351562 15.347656 50.609375 15.261719 49.855469 15.304688 L 49.296875 13.386719 L 46.21875 14.289062 L 46.777344 16.207031 C 46.121094 16.578125 45.539062 17.050781 45.050781 17.59375 L 43.296875 16.636719 L 41.75 19.449219 L 43.503906 20.40625 C 43.308594 21.113281 43.222656 21.855469 43.261719 22.609375 L 41.304688 23.273438 L 42.238281 26.25 L 44.15625 25.683594 C 44.527344 26.339844 44.996094 26.917969 45.539062 27.410156 L 44.578125 29.164062 L 47.386719 30.703125 L 48.351562 28.945312 C 49.058594 29.140625 49.800781 29.226562 50.550781 29.183594 L 51.109375 31.101562 L 54.1875 30.199219 L 53.632812 28.28125 C 54.289062 27.910156 54.867188 27.4375 55.359375 26.894531 L 57.109375 27.851562 L 58.65625 25.039062 L 56.902344 24.082031 C 57.101562 23.375 57.183594 22.632812 57.148438 21.878906 L 59.066406 21.316406 " fill-opacity="1" fill-rule="nonzero"/><path fill="#fda4ff" d="M 70.179688 16.226562 C 67.449219 17.023438 64.59375 15.460938 63.800781 12.738281 C 63.007812 10.011719 64.578125 7.152344 67.308594 6.351562 C 70.035156 5.554688 72.890625 7.117188 73.683594 9.839844 C 74.476562 12.566406 72.90625 15.425781 70.179688 16.226562 Z M 80.019531 10.109375 L 78.878906 6.195312 L 76.4375 6.910156 C 75.964844 6.078125 75.367188 5.339844 74.675781 4.71875 L 75.902344 2.484375 L 72.324219 0.527344 L 71.101562 2.761719 C 70.203125 2.515625 69.257812 2.40625 68.300781 2.457031 L 67.589844 0.0195312 L 63.671875 1.167969 L 64.382812 3.605469 C 63.546875 4.082031 62.808594 4.679688 62.183594 5.375 L 59.953125 4.15625 L 57.988281 7.734375 L 60.21875 8.953125 C 59.96875 9.851562 59.859375 10.796875 59.910156 11.753906 L 57.421875 12.597656 L 58.605469 16.382812 L 61.046875 15.667969 C 61.519531 16.5 62.117188 17.238281 62.808594 17.859375 L 61.582031 20.09375 L 65.160156 22.050781 L 66.382812 19.816406 C 67.285156 20.0625 68.226562 20.171875 69.183594 20.121094 L 69.894531 22.558594 L 73.8125 21.410156 L 73.101562 18.972656 C 73.9375 18.496094 74.675781 17.898438 75.300781 17.203125 L 77.53125 18.425781 L 79.496094 14.84375 L 77.265625 13.625 C 77.515625 12.726562 77.625 11.78125 77.574219 10.824219 L 80.019531 10.109375 " fill-opacity="1" fill-rule="nonzero"/><path fill="#000000" d="M 94.105469 3.316406 L 149.617188 3.316406 L 149.617188 0.363281 L 94.105469 0.363281 Z M 149.796875 3.679688 L 93.925781 3.679688 C 93.828125 3.679688 93.746094 3.597656 93.746094 3.5 L 93.746094 0.179688 C 93.746094 0.0820312 93.828125 0 93.925781 0 L 149.796875 0 C 149.898438 0 149.976562 0.0820312 149.976562 0.179688 L 149.976562 3.5 C 149.976562 3.597656 149.898438 3.679688 149.796875 3.679688 " fill-opacity="1" fill-rule="nonzero"/><path fill="#000000" d="M 94.105469 38.226562 L 149.617188 38.226562 L 149.617188 3.679688 L 94.105469 3.679688 Z M 149.796875 38.585938 L 93.925781 38.585938 C 93.828125 38.585938 93.746094 38.507812 93.746094 38.40625 L 93.746094 3.5 C 93.746094 3.398438 93.828125 3.316406 93.925781 3.316406 L 149.796875 3.316406 C 149.898438 3.316406 149.976562 3.398438 149.976562 3.5 L 149.976562 38.40625 C 149.976562 38.507812 149.898438 38.585938 149.796875 38.585938 " fill-opacity="1" fill-rule="nonzero"/><path fill="#000000" d="M 95.851562 1.253906 C 95.5 1.253906 95.21875 1.535156 95.21875 1.878906 C 95.21875 2.222656 95.5 2.5 95.851562 2.5 C 96.203125 2.5 96.488281 2.222656 96.488281 1.878906 C 96.488281 1.535156 96.203125 1.253906 95.851562 1.253906 Z M 95.851562 2.863281 C 95.300781 2.863281 94.855469 2.421875 94.855469 1.878906 C 94.855469 1.335938 95.300781 0.894531 95.851562 0.894531 C 96.402344 0.894531 96.851562 1.335938 96.851562 1.878906 C 96.851562 2.421875 96.402344 2.863281 95.851562 2.863281 " fill-opacity="1" fill-rule="nonzero"/><path fill="#000000" d="M 98.691406 1.253906 C 98.34375 1.253906 98.054688 1.535156 98.054688 1.878906 C 98.054688 2.222656 98.34375 2.5 98.691406 2.5 C 99.042969 2.5 99.328125 2.222656 99.328125 1.878906 C 99.328125 1.535156 99.042969 1.253906 98.691406 1.253906 Z M 98.691406 2.863281 C 98.140625 2.863281 97.695312 2.421875 97.695312 1.878906 C 97.695312 1.335938 98.140625 0.894531 98.691406 0.894531 C 99.242188 0.894531 99.691406 1.335938 99.691406 1.878906 C 99.691406 2.421875 99.242188 2.863281 98.691406 2.863281 " fill-opacity="1" fill-rule="nonzero"/><path fill="#000000" d="M 101.53125 1.253906 C 101.179688 1.253906 100.894531 1.535156 100.894531 1.878906 C 100.894531 2.222656 101.179688 2.5 101.53125 2.5 C 101.882812 2.5 102.167969 2.222656 102.167969 1.878906 C 102.167969 1.535156 101.882812 1.253906 101.53125 1.253906 Z M 101.53125 2.863281 C 100.980469 2.863281 100.535156 2.421875 100.535156 1.878906 C 100.535156 1.335938 100.980469 0.894531 101.53125 0.894531 C 102.082031 0.894531 102.53125 1.335938 102.53125 1.878906 C 102.53125 2.421875 102.082031 2.863281 101.53125 2.863281 " fill-opacity="1" fill-rule="nonzero"/><path fill="#fed101" d="M 126.101562 30.417969 L 128.300781 38.238281 L 142.023438 38.242188 L 140.375 32.78125 L 136.492188 25.746094 L 126.101562 30.417969 " fill-opacity="1" fill-rule="nonzero"/><path fill="#000000" d="M 142.023438 38.585938 C 141.945312 38.585938 141.871094 38.535156 141.847656 38.453125 C 141.835938 38.40625 140.421875 33.460938 139.921875 32.328125 C 139.179688 30.65625 136.363281 25.886719 136.335938 25.835938 C 136.285156 25.75 136.3125 25.640625 136.398438 25.589844 C 136.484375 25.539062 136.597656 25.566406 136.648438 25.652344 C 136.761719 25.851562 139.503906 30.492188 140.25 32.179688 C 140.761719 33.335938 142.136719 38.152344 142.195312 38.355469 C 142.222656 38.453125 142.167969 38.554688 142.070312 38.578125 C 142.054688 38.585938 142.039062 38.585938 142.023438 38.585938 " fill-opacity="1" fill-rule="nonzero"/><path fill="#fed101" d="M 136.234375 38.238281 L 132.535156 27.714844 L 122.117188 31.792969 L 122.15625 38.238281 L 136.234375 38.238281 " fill-opacity="1" fill-rule="nonzero"/><path fill="#020202" d="M 122.117188 34.980469 L 138.722656 29.632812 L 136.578125 25.851562 L 121.183594 32.101562 L 122.117188 34.980469 " fill-opacity="1" fill-rule="nonzero"/><path fill="#8c7bff" d="M 141.171875 8.804688 L 98.6875 9 C 96.304688 9.011719 94.378906 10.953125 94.390625 13.339844 C 94.398438 15.722656 96.339844 17.648438 98.722656 17.636719 L 109.707031 17.585938 L 120.550781 34.550781 L 138.183594 27.191406 L 132.59375 17.480469 L 141.207031 17.441406 C 143.589844 17.429688 145.515625 15.488281 145.507812 13.101562 C 145.496094 10.71875 143.554688 8.792969 141.171875 8.804688 " fill-opacity="1" fill-rule="nonzero"/><path fill="#000000" d="M 110.960938 23.117188 L 113.804688 23.117188 L 113.804688 7.40625 L 111.527344 5.109375 L 110.960938 23.117188 " fill-opacity="1" fill-rule="nonzero"/><path fill="#955b50" d="M 119.09375 10.488281 L 117.222656 13.558594 L 114.039062 8.570312 L 116.757812 6.832031 L 119.09375 10.488281 " fill-opacity="1" fill-rule="nonzero"/><path fill="#000000" d="M 117.414062 7.863281 L 116.757812 6.832031 L 114.039062 8.570312 L 115.492188 10.847656 C 115.769531 10.738281 116.296875 10.488281 116.742188 9.945312 C 117.433594 9.089844 117.425781 8.128906 117.414062 7.863281 " fill-opacity="1" fill-rule="nonzero"/><path fill="#955b50" d="M 116.96875 5.273438 C 117.851562 6.652344 117.539062 8.683594 116.132812 9.503906 C 114.855469 10.253906 113.1875 9.753906 112.480469 8.273438 C 111.824219 6.898438 112.117188 5.175781 113.277344 4.378906 C 114.5 3.539062 116.085938 3.890625 116.96875 5.273438 " fill-opacity="1" fill-rule="nonzero"/><path fill="#ffffff" d="M 116.121094 7.585938 C 116.035156 7.914062 115.84375 8.21875 115.558594 8.445312 C 114.917969 8.953125 114.015625 8.90625 113.433594 8.367188 L 116.121094 7.585938 " fill-opacity="1" fill-rule="nonzero"/><path fill="#000000" d="M 114.40625 4.554688 C 114.40625 4.554688 110.242188 2.308594 112.175781 17.125 L 113.039062 23.183594 L 107.132812 23.183594 C 107.132812 23.183594 110.191406 9.957031 110.414062 8.855469 C 111.046875 5.734375 111.378906 1.765625 114.1875 2.402344 L 114.40625 4.554688 " fill-opacity="1" fill-rule="nonzero"/><path fill="#000000" d="M 117.070312 23.183594 L 122.765625 23.183594 C 122.765625 23.183594 119.488281 7.566406 119.265625 6.300781 C 119.050781 5.074219 118.421875 3.8125 117.429688 3.003906 C 116.878906 2.558594 115.589844 1.648438 114.183594 2.40625 L 114.402344 4.554688 C 114.402344 4.554688 115.339844 3.984375 116.246094 4.816406 C 117.292969 6.203125 117.144531 8.300781 117.144531 8.300781 L 117.070312 23.183594 " fill-opacity="1" fill-rule="nonzero"/><path fill="#000000" d="M 119.042969 5.429688 L 120.398438 8.902344 L 119.378906 8.917969 L 119.042969 5.429688 " fill-opacity="1" fill-rule="nonzero"/><path fill="#ffffff" d="M 122.117188 99.863281 L 8.273438 99.863281 L 8.273438 23.183594 L 122.117188 23.183594 L 122.117188 99.863281 " fill-opacity="1" fill-rule="nonzero"/><path fill="#000000" d="M 8.453125 99.679688 L 121.9375 99.679688 L 121.9375 23.363281 L 8.453125 23.363281 Z M 122.117188 100.042969 L 8.273438 100.042969 C 8.171875 100.042969 8.089844 99.960938 8.089844 99.863281 L 8.089844 23.183594 C 8.089844 23.082031 8.171875 23.003906 8.273438 23.003906 L 122.117188 23.003906 C 122.21875 23.003906 122.296875 23.082031 122.296875 23.183594 L 122.296875 99.863281 C 122.296875 99.960938 122.21875 100.042969 122.117188 100.042969 " fill-opacity="1" fill-rule="nonzero"/><path fill="#ffffff" d="M 12.671875 27.648438 L 12.671875 95.394531 L 117.535156 95.394531 L 117.535156 27.648438 L 12.671875 27.648438 " fill-opacity="1" fill-rule="nonzero"/><path fill="#000000" d="M 12.855469 95.214844 L 117.355469 95.214844 L 117.355469 27.828125 L 12.855469 27.828125 Z M 117.535156 95.578125 L 12.671875 95.578125 C 12.574219 95.578125 12.492188 95.496094 12.492188 95.394531 L 12.492188 27.648438 C 12.492188 27.550781 12.574219 27.46875 12.671875 27.46875 L 117.535156 27.46875 C 117.636719 27.46875 117.71875 27.550781 117.71875 27.648438 L 117.71875 95.394531 C 117.71875 95.496094 117.636719 95.578125 117.535156 95.578125 " fill-opacity="1" fill-rule="nonzero"/><path fill="#000000" d="M 47.410156 123.882812 L 82.980469 123.882812 L 82.980469 100.042969 L 47.410156 100.042969 Z M 83.160156 124.242188 L 47.230469 124.242188 C 47.128906 124.242188 47.046875 124.160156 47.046875 124.0625 L 47.046875 99.863281 C 47.046875 99.761719 47.128906 99.679688 47.230469 99.679688 L 83.160156 99.679688 C 83.261719 99.679688 83.339844 99.761719 83.339844 99.863281 L 83.339844 124.0625 C 83.339844 124.160156 83.261719 124.242188 83.160156 124.242188 " fill-opacity="1" fill-rule="nonzero"/><path fill="#000000" d="M 25.113281 134.921875 L 105.273438 134.921875 L 104.675781 134.277344 C 98.761719 127.898438 90.382812 124.242188 81.691406 124.242188 L 48.699219 124.242188 C 40.003906 124.242188 31.628906 127.898438 25.714844 134.277344 Z M 105.691406 135.28125 L 24.699219 135.28125 C 24.628906 135.28125 24.5625 135.238281 24.535156 135.175781 C 24.503906 135.105469 24.519531 135.03125 24.566406 134.976562 L 25.449219 134.027344 C 31.429688 127.578125 39.90625 123.882812 48.699219 123.882812 L 81.691406 123.882812 C 90.484375 123.882812 98.957031 127.578125 104.941406 134.027344 L 105.824219 134.976562 C 105.871094 135.03125 105.882812 135.105469 105.855469 135.175781 C 105.828125 135.238281 105.761719 135.28125 105.691406 135.28125 " fill-opacity="1" fill-rule="nonzero"/><path fill="#8c7bff" d="M 76.777344 90.792969 L 76.777344 33.21875 L 16.660156 33.21875 L 16.660156 90.792969 L 76.777344 90.792969 " fill-opacity="1" fill-rule="nonzero"/><path fill="#ffffff" d="M 49.863281 54.4375 L 28.914062 54.4375 L 28.914062 52.917969 L 49.863281 52.917969 L 49.863281 54.4375 " fill-opacity="1" fill-rule="nonzero"/><path fill="#ffffff" d="M 38.617188 45.664062 L 28.914062 45.664062 L 28.914062 44.144531 L 38.617188 44.144531 L 38.617188 45.664062 " fill-opacity="1" fill-rule="nonzero"/><path fill="#ffffff" d="M 46.429688 45.664062 L 40.621094 45.664062 L 40.621094 44.144531 L 46.429688 44.144531 L 46.429688 45.664062 " fill-opacity="1" fill-rule="nonzero"/><path fill="#fed101" d="M 40.160156 71.988281 L 32.101562 71.988281 L 32.101562 70.46875 L 40.160156 70.46875 L 40.160156 71.988281 " fill-opacity="1" fill-rule="nonzero"/><path fill="#fed101" d="M 33.566406 85.152344 L 23.441406 85.152344 L 23.441406 83.632812 L 33.566406 83.632812 L 33.566406 85.152344 " fill-opacity="1" fill-rule="nonzero"/><path fill="#ffffff" d="M 57.527344 85.152344 L 35.269531 85.152344 L 35.269531 83.632812 L 57.527344 83.632812 L 57.527344 85.152344 " fill-opacity="1" fill-rule="nonzero"/><path fill="#fed101" d="M 72.316406 67.601562 L 52.511719 67.601562 L 52.511719 66.082031 L 72.316406 66.082031 L 72.316406 67.601562 " fill-opacity="1" fill-rule="nonzero"/><path fill="#ffffff" d="M 46.429688 67.601562 L 35.730469 67.601562 L 35.730469 66.082031 L 46.429688 66.082031 L 46.429688 67.601562 " fill-opacity="1" fill-rule="nonzero"/><path fill="#fed101" d="M 50.804688 67.601562 L 47.929688 67.601562 L 47.929688 66.082031 L 50.804688 66.082031 L 50.804688 67.601562 " fill-opacity="1" fill-rule="nonzero"/><path fill="#fed101" d="M 36.515625 76.375 L 28.207031 76.375 L 28.207031 74.855469 L 36.515625 74.855469 L 36.515625 76.375 " fill-opacity="1" fill-rule="nonzero"/><path fill="#ffffff" d="M 60.867188 76.375 L 51.453125 76.375 L 51.453125 74.855469 L 60.867188 74.855469 L 60.867188 76.375 " fill-opacity="1" fill-rule="nonzero"/><path fill="#ffffff" d="M 50.605469 76.375 L 38.089844 76.375 L 38.089844 74.855469 L 50.605469 74.855469 L 50.605469 76.375 " fill-opacity="1" fill-rule="nonzero"/><path fill="#ffffff" d="M 65.226562 76.375 L 62.351562 76.375 L 62.351562 74.855469 L 65.226562 74.855469 L 65.226562 76.375 " fill-opacity="1" fill-rule="nonzero"/><path fill="#ffffff" d="M 39.5625 63.199219 L 31.894531 63.199219 L 31.894531 61.679688 L 39.5625 61.679688 L 39.5625 63.199219 " fill-opacity="1" fill-rule="nonzero"/><path fill="#fed101" d="M 50.3125 63.199219 L 40.914062 63.199219 L 40.914062 61.679688 L 50.3125 61.679688 L 50.3125 63.199219 " fill-opacity="1" fill-rule="nonzero"/><path fill="#ffffff" d="M 59.289062 63.199219 L 52 63.199219 L 52 61.679688 L 59.289062 61.679688 L 59.289062 63.199219 " fill-opacity="1" fill-rule="nonzero"/><path fill="#ffffff" d="M 64.230469 63.226562 L 61.355469 63.226562 L 61.355469 61.707031 L 64.230469 61.707031 L 64.230469 63.226562 " fill-opacity="1" fill-rule="nonzero"/><path fill="#fed101" d="M 54.628906 58.824219 L 35.984375 58.824219 L 35.984375 57.304688 L 54.628906 57.304688 L 54.628906 58.824219 " fill-opacity="1" fill-rule="nonzero"/><path fill="#fed101" d="M 43.367188 41.238281 L 24.878906 41.238281 L 24.878906 39.71875 L 43.367188 39.71875 L 43.367188 41.238281 " fill-opacity="1" fill-rule="nonzero"/><path fill="#ffffff" d="M 64.246094 41.3125 L 46.71875 41.3125 L 46.71875 39.792969 L 64.246094 39.792969 L 64.246094 41.3125 " fill-opacity="1" fill-rule="nonzero"/><path fill="#ffffff" d="M 72.316406 41.3125 L 66.585938 41.3125 L 66.585938 39.792969 L 72.316406 39.792969 L 72.316406 41.3125 " fill-opacity="1" fill-rule="nonzero"/><path fill="#ffffff" d="M 71.480469 80.765625 L 53.222656 80.765625 L 53.222656 79.242188 L 71.480469 79.242188 L 71.480469 80.765625 " fill-opacity="1" fill-rule="nonzero"/><path fill="#ffffff" d="M 43.855469 80.765625 L 32.304688 80.765625 L 32.304688 79.242188 L 43.855469 79.242188 L 43.855469 80.765625 " fill-opacity="1" fill-rule="nonzero"/><path fill="#ffffff" d="M 64.824219 50.0625 L 61.167969 50.0625 L 61.167969 48.542969 L 64.824219 48.542969 L 64.824219 50.0625 " fill-opacity="1" fill-rule="nonzero"/><path fill="#fed101" d="M 36.226562 50.039062 L 27.046875 50.039062 L 27.046875 48.519531 L 36.226562 48.519531 L 36.226562 50.039062 " fill-opacity="1" fill-rule="nonzero"/><path fill="#fed101" d="M 59.289062 50.0625 L 38.617188 50.0625 L 38.617188 48.542969 L 59.289062 48.542969 L 59.289062 50.0625 " fill-opacity="1" fill-rule="nonzero"/><path fill="#955b50" d="M 95.765625 37.703125 L 93.988281 38.011719 L 94.378906 41.640625 C 94.4375 42.175781 94.882812 42.539062 95.375 42.453125 C 95.867188 42.367188 96.21875 41.863281 96.160156 41.332031 L 95.765625 37.703125 " fill-opacity="1" fill-rule="nonzero"/><path fill="#955b50" d="M 93.878906 37.042969 L 92.097656 37.351562 L 92.492188 40.980469 C 92.550781 41.511719 92.996094 41.875 93.484375 41.789062 C 93.976562 41.703125 94.328125 41.203125 94.269531 40.667969 L 93.878906 37.042969 " fill-opacity="1" fill-rule="nonzero"/><path fill="#955b50" d="M 92.066406 37.023438 L 90.480469 37.300781 L 90.832031 40.539062 C 90.882812 41.015625 91.277344 41.339844 91.71875 41.265625 C 92.15625 41.1875 92.46875 40.738281 92.417969 40.261719 L 92.066406 37.023438 " fill-opacity="1" fill-rule="nonzero"/><path fill="#955b50" d="M 97.710938 38.886719 L 95.96875 38.503906 L 94.417969 45.546875 C 94.3125 46.027344 94.617188 46.503906 95.097656 46.609375 C 95.578125 46.714844 96.054688 46.410156 96.160156 45.929688 L 97.710938 38.886719 " fill-opacity="1" fill-rule="nonzero"/><path fill="#955b50" d="M 99.339844 32.808594 L 96.894531 35.511719 L 100.117188 40.859375 C 100.347656 41.324219 100.890625 41.480469 101.328125 41.207031 C 101.765625 40.929688 101.929688 40.332031 101.695312 39.867188 L 100.429688 37.335938 L 99.339844 32.808594 " fill-opacity="1" fill-rule="nonzero"/><path fill="#955b50" d="M 99.257812 32.679688 L 99.878906 26.785156 L 93.230469 26.1875 L 92.609375 31.421875 L 90.480469 37.289062 L 97.710938 38.886719 L 99.257812 32.679688 " fill-opacity="1" fill-rule="nonzero"/><path fill="#020202" d="M 99.878906 26.785156 L 93.230469 26.1875 L 92.914062 28.117188 L 99.464844 30.855469 L 99.878906 26.785156 " fill-opacity="1" fill-rule="nonzero"/><path fill="#000000" d="M 94.949219 42.601562 C 94.9375 42.601562 94.929688 42.597656 94.917969 42.597656 C 94.292969 42.492188 94.222656 41.863281 94.203125 41.65625 L 93.847656 38.425781 C 93.835938 38.324219 93.90625 38.234375 94.007812 38.226562 C 94.105469 38.214844 94.195312 38.285156 94.207031 38.386719 L 94.5625 41.617188 C 94.617188 42.113281 94.792969 42.210938 94.976562 42.242188 C 95.078125 42.257812 95.144531 42.351562 95.128906 42.449219 C 95.113281 42.535156 95.035156 42.601562 94.949219 42.601562 " fill-opacity="1" fill-rule="nonzero"/><path fill="#000000" d="M 93.34375 41.984375 C 93.128906 41.984375 92.917969 41.914062 92.742188 41.78125 C 92.503906 41.601562 92.347656 41.316406 92.3125 41 L 91.964844 37.765625 C 91.957031 37.667969 92.027344 37.578125 92.125 37.566406 C 92.226562 37.558594 92.316406 37.628906 92.324219 37.726562 L 92.671875 40.960938 C 92.695312 41.175781 92.800781 41.371094 92.960938 41.492188 C 93.105469 41.601562 93.277344 41.644531 93.453125 41.613281 C 93.851562 41.542969 94.136719 41.128906 94.089844 40.6875 L 93.84375 38.425781 C 93.835938 38.328125 93.90625 38.238281 94.003906 38.226562 C 94.101562 38.214844 94.195312 38.285156 94.203125 38.386719 L 94.449219 40.648438 C 94.515625 41.277344 94.097656 41.867188 93.515625 41.96875 C 93.457031 41.980469 93.398438 41.984375 93.34375 41.984375 " fill-opacity="1" fill-rule="nonzero"/><path fill="#000000" d="M 91.589844 41.457031 C 91.394531 41.457031 91.203125 41.390625 91.042969 41.269531 C 90.824219 41.105469 90.683594 40.847656 90.652344 40.558594 L 90.300781 37.316406 C 90.289062 37.21875 90.363281 37.128906 90.460938 37.117188 C 90.558594 37.109375 90.648438 37.179688 90.660156 37.28125 L 91.011719 40.519531 C 91.03125 40.707031 91.121094 40.878906 91.261719 40.984375 C 91.382812 41.074219 91.535156 41.113281 91.6875 41.085938 C 92.035156 41.023438 92.28125 40.664062 92.238281 40.28125 L 91.96875 37.765625 C 91.957031 37.667969 92.027344 37.578125 92.128906 37.566406 C 92.222656 37.558594 92.316406 37.628906 92.328125 37.726562 L 92.597656 40.242188 C 92.660156 40.8125 92.277344 41.347656 91.75 41.441406 C 91.695312 41.449219 91.644531 41.457031 91.589844 41.457031 " fill-opacity="1" fill-rule="nonzero"/><path fill="#000000" d="M 95.289062 46.808594 C 95.214844 46.808594 95.136719 46.800781 95.058594 46.785156 C 94.78125 46.722656 94.539062 46.558594 94.386719 46.316406 C 94.234375 46.074219 94.183594 45.789062 94.242188 45.507812 L 95.640625 38.433594 C 95.660156 38.335938 95.753906 38.273438 95.851562 38.292969 C 95.949219 38.3125 96.015625 38.40625 95.996094 38.503906 L 94.597656 45.582031 C 94.554688 45.769531 94.589844 45.960938 94.691406 46.121094 C 94.792969 46.28125 94.953125 46.390625 95.136719 46.429688 C 95.519531 46.515625 95.898438 46.273438 95.984375 45.890625 L 97.53125 38.847656 C 97.554688 38.75 97.652344 38.6875 97.75 38.707031 C 97.847656 38.730469 97.910156 38.828125 97.886719 38.925781 L 96.335938 45.96875 C 96.226562 46.46875 95.78125 46.808594 95.289062 46.808594 " fill-opacity="1" fill-rule="nonzero"/><path fill="#000000" d="M 100.871094 41.523438 C 100.78125 41.523438 100.691406 41.511719 100.601562 41.484375 C 100.320312 41.40625 100.09375 41.214844 99.953125 40.941406 L 97.929688 37.578125 C 97.878906 37.492188 97.90625 37.382812 97.992188 37.332031 C 98.078125 37.28125 98.1875 37.308594 98.242188 37.394531 L 100.273438 40.765625 C 100.371094 40.960938 100.519531 41.085938 100.699219 41.136719 C 100.878906 41.1875 101.066406 41.15625 101.230469 41.054688 C 101.589844 40.828125 101.726562 40.332031 101.535156 39.945312 L 100.269531 37.417969 C 100.261719 37.40625 100.257812 37.390625 100.253906 37.378906 L 99.082031 32.722656 C 99.078125 32.703125 99.078125 32.679688 99.078125 32.660156 L 99.628906 27.777344 C 99.640625 27.679688 99.730469 27.605469 99.828125 27.617188 C 99.929688 27.632812 100 27.71875 99.988281 27.820312 L 99.441406 32.667969 L 100.601562 37.273438 L 101.859375 39.785156 C 102.132812 40.328125 101.9375 41.035156 101.425781 41.359375 C 101.253906 41.46875 101.0625 41.523438 100.871094 41.523438 " fill-opacity="1" fill-rule="nonzero"/><path fill="#000000" d="M 97.707031 39.066406 C 97.691406 39.066406 97.679688 39.066406 97.664062 39.0625 C 97.566406 39.035156 97.507812 38.9375 97.535156 38.839844 L 98.273438 36.09375 C 98.296875 35.996094 98.398438 35.941406 98.496094 35.964844 C 98.589844 35.992188 98.648438 36.089844 98.621094 36.1875 L 97.882812 38.933594 C 97.863281 39.015625 97.789062 39.066406 97.707031 39.066406 " fill-opacity="1" fill-rule="nonzero"/><path fill="#000000" d="M 90.480469 37.472656 C 90.460938 37.472656 90.441406 37.46875 90.421875 37.460938 C 90.328125 37.425781 90.277344 37.324219 90.3125 37.226562 L 92.433594 31.382812 L 92.941406 27.1875 C 92.957031 27.089844 93.042969 27.015625 93.144531 27.03125 C 93.242188 27.042969 93.3125 27.132812 93.300781 27.230469 L 92.789062 31.445312 C 92.789062 31.457031 92.785156 31.472656 92.78125 31.484375 L 90.652344 37.351562 C 90.625 37.425781 90.554688 37.472656 90.480469 37.472656 " fill-opacity="1" fill-rule="nonzero"/><path fill="#8c7bff" d="M 91.949219 28.039062 L 100.265625 28.726562 L 101.828125 13.125 L 94.429688 12.726562 L 91.949219 28.039062 " fill-opacity="1" fill-rule="nonzero"/><path fill="#000000" d="M 100.265625 28.90625 C 100.261719 28.90625 100.253906 28.90625 100.246094 28.90625 C 100.148438 28.894531 100.074219 28.804688 100.085938 28.707031 L 101.648438 13.105469 C 101.660156 13.007812 101.75 12.9375 101.847656 12.945312 C 101.949219 12.953125 102.019531 13.042969 102.011719 13.140625 L 100.445312 28.742188 C 100.4375 28.835938 100.359375 28.90625 100.265625 28.90625 " fill-opacity="1" fill-rule="nonzero"/><path fill="#8c7bff" d="M 143.484375 16.039062 L 129.945312 24.703125 L 125.25 17.351562 L 138.785156 8.6875 L 143.484375 16.039062 " fill-opacity="1" fill-rule="nonzero"/><path fill="#000000" d="M 129.945312 24.882812 C 129.933594 24.882812 129.917969 24.882812 129.90625 24.878906 C 129.859375 24.871094 129.820312 24.839844 129.792969 24.800781 L 125.097656 17.449219 C 125.042969 17.363281 125.066406 17.253906 125.152344 17.199219 L 136.964844 9.636719 C 137.050781 9.585938 137.160156 9.609375 137.214844 9.695312 C 137.269531 9.777344 137.246094 9.890625 137.160156 9.941406 L 125.496094 17.40625 L 130 24.453125 L 134.761719 21.40625 C 134.84375 21.355469 134.957031 21.378906 135.007812 21.464844 C 135.0625 21.546875 135.039062 21.660156 134.957031 21.714844 L 130.042969 24.855469 C 130.011719 24.875 129.980469 24.882812 129.945312 24.882812 " fill-opacity="1" fill-rule="nonzero"/><path fill="#955b50" d="M 124.035156 19.859375 C 123.449219 20.234375 122.59375 19.644531 121.277344 20.488281 L 118.097656 22.523438 C 117.152344 23.125 116.503906 24.097656 116.304688 25.199219 L 116.199219 25.777344 C 116.121094 26.222656 116.324219 26.664062 116.695312 26.898438 L 116.703125 26.898438 L 116.585938 27.550781 C 116.5 28.042969 116.757812 28.535156 117.210938 28.742188 L 117.140625 29.128906 C 117.046875 29.644531 117.328125 30.152344 117.816406 30.347656 L 118.238281 30.515625 C 118.226562 30.933594 118.472656 31.324219 118.875 31.484375 C 119.472656 31.722656 120.136719 31.34375 120.242188 30.707031 L 120.355469 30 C 120.410156 29.664062 120.609375 29.367188 120.894531 29.179688 L 124.230469 27.046875 L 125.988281 25.921875 L 129.351562 23.773438 L 126.035156 18.582031 L 124.035156 19.859375 " fill-opacity="1" fill-rule="nonzero"/><path fill="#020202" d="M 124.183594 19.765625 L 129.351562 23.773438 L 126.035156 18.582031 L 124.183594 19.765625 " fill-opacity="1" fill-rule="nonzero"/><path fill="#000000" d="M 117.210938 28.921875 C 117.183594 28.921875 117.160156 28.917969 117.132812 28.90625 C 116.605469 28.664062 116.304688 28.09375 116.410156 27.515625 L 116.59375 26.5 C 116.75 25.632812 117.265625 24.859375 118.007812 24.386719 L 119.636719 23.34375 C 119.722656 23.289062 119.832031 23.3125 119.886719 23.398438 C 119.941406 23.480469 119.914062 23.59375 119.832031 23.648438 L 118.199219 24.691406 C 117.542969 25.109375 117.085938 25.792969 116.949219 26.5625 L 116.765625 27.582031 C 116.691406 27.992188 116.90625 28.402344 117.285156 28.578125 C 117.375 28.617188 117.414062 28.726562 117.375 28.816406 C 117.34375 28.882812 117.277344 28.921875 117.210938 28.921875 " fill-opacity="1" fill-rule="nonzero"/><path fill="#000000" d="M 118.242188 30.695312 C 118.222656 30.695312 118.199219 30.691406 118.175781 30.683594 L 117.75 30.515625 C 117.1875 30.289062 116.855469 29.695312 116.964844 29.097656 L 117.183594 27.875 C 117.316406 27.136719 117.753906 26.480469 118.386719 26.078125 L 120.53125 24.707031 C 120.613281 24.652344 120.726562 24.675781 120.78125 24.761719 C 120.832031 24.84375 120.808594 24.957031 120.722656 25.011719 L 118.582031 26.382812 C 118.035156 26.730469 117.652344 27.300781 117.539062 27.941406 L 117.316406 29.160156 C 117.242188 29.589844 117.480469 30.015625 117.882812 30.175781 L 118.308594 30.347656 C 118.402344 30.382812 118.449219 30.488281 118.414062 30.582031 C 118.382812 30.652344 118.316406 30.695312 118.242188 30.695312 " fill-opacity="1" fill-rule="nonzero"/><path fill="#000000" d="M 124.230469 27.226562 C 124.171875 27.226562 124.113281 27.199219 124.078125 27.144531 C 124.023438 27.058594 124.050781 26.949219 124.132812 26.894531 L 129.101562 23.71875 L 125.980469 18.832031 L 124.132812 20.011719 C 123.851562 20.191406 123.527344 20.1875 123.1875 20.179688 C 122.6875 20.171875 122.121094 20.164062 121.375 20.640625 L 118.195312 22.675781 C 117.296875 23.25 116.671875 24.179688 116.484375 25.230469 L 116.378906 25.808594 C 116.3125 26.179688 116.472656 26.546875 116.792969 26.746094 C 116.878906 26.800781 116.902344 26.910156 116.847656 26.996094 C 116.796875 27.082031 116.683594 27.105469 116.597656 27.050781 C 116.15625 26.773438 115.929688 26.261719 116.023438 25.746094 L 116.128906 25.167969 C 116.332031 24.019531 117.015625 23 118 22.371094 L 121.179688 20.335938 C 122.015625 19.800781 122.699219 19.8125 123.195312 19.820312 C 123.503906 19.824219 123.75 19.828125 123.9375 19.707031 L 126.089844 18.332031 L 129.601562 23.828125 L 124.328125 27.199219 C 124.300781 27.21875 124.265625 27.226562 124.230469 27.226562 " fill-opacity="1" fill-rule="nonzero"/><path fill="#000000" d="M 119.246094 31.734375 C 119.097656 31.734375 118.949219 31.707031 118.804688 31.652344 C 118.28125 31.441406 117.976562 30.890625 118.074219 30.335938 L 118.304688 29.058594 C 118.4375 28.308594 118.886719 27.640625 119.527344 27.230469 L 121.3125 26.089844 C 121.394531 26.035156 121.507812 26.058594 121.5625 26.144531 C 121.613281 26.230469 121.589844 26.339844 121.507812 26.394531 L 119.722656 27.535156 C 119.164062 27.894531 118.777344 28.472656 118.660156 29.125 L 118.429688 30.398438 C 118.359375 30.785156 118.574219 31.171875 118.9375 31.316406 C 119.171875 31.40625 119.433594 31.390625 119.652344 31.265625 C 119.871094 31.140625 120.019531 30.925781 120.0625 30.679688 L 120.175781 29.972656 C 120.242188 29.585938 120.46875 29.242188 120.796875 29.03125 L 125.890625 25.769531 C 126.726562 25.234375 127.242188 24.324219 127.269531 23.328125 C 127.273438 23.230469 127.359375 23.152344 127.457031 23.152344 C 127.554688 23.15625 127.636719 23.238281 127.632812 23.339844 C 127.601562 24.453125 127.023438 25.476562 126.085938 26.074219 L 120.992188 29.335938 C 120.75 29.492188 120.582031 29.746094 120.535156 30.03125 L 120.417969 30.738281 C 120.359375 31.09375 120.144531 31.402344 119.832031 31.582031 C 119.648438 31.683594 119.449219 31.734375 119.246094 31.734375 " fill-opacity="1" fill-rule="nonzero"/><path fill="#ffffff" d="M 124.507812 115.574219 C 120.410156 114.15625 118.246094 109.695312 119.664062 105.609375 C 121.085938 101.519531 125.558594 99.355469 129.652344 100.773438 C 133.746094 102.191406 135.914062 106.65625 134.492188 110.742188 C 133.070312 114.828125 128.601562 116.992188 124.507812 115.574219 Z M 142.125 116.671875 L 144.167969 110.804688 L 140.5 109.535156 C 140.652344 108.082031 140.558594 106.640625 140.246094 105.253906 L 143.738281 103.566406 L 141.023438 97.976562 L 137.535156 99.664062 C 136.636719 98.566406 135.558594 97.597656 134.320312 96.816406 L 135.59375 93.15625 L 129.714844 91.121094 L 128.441406 94.78125 C 126.984375 94.628906 125.539062 94.722656 124.152344 95.03125 L 122.460938 91.546875 L 116.859375 94.257812 L 118.550781 97.742188 C 117.449219 98.636719 116.480469 99.714844 115.695312 100.945312 L 111.863281 99.796875 L 109.992188 105.546875 L 113.65625 106.816406 C 113.507812 108.265625 113.601562 109.710938 113.910156 111.09375 L 110.417969 112.785156 L 113.132812 118.375 L 116.625 116.683594 C 117.523438 117.785156 118.601562 118.753906 119.835938 119.535156 L 118.5625 123.191406 L 124.445312 125.230469 L 125.714844 121.570312 C 127.171875 121.71875 128.617188 121.628906 130.003906 121.316406 L 131.699219 124.804688 L 137.296875 122.09375 L 135.605469 118.609375 C 136.707031 117.714844 137.675781 116.636719 138.460938 115.402344 L 142.125 116.671875 " fill-opacity="1" fill-rule="nonzero"/><path fill="#000000" d="M 127.085938 100.523438 C 123.910156 100.523438 120.933594 102.507812 119.835938 105.667969 C 119.164062 107.59375 119.285156 109.667969 120.175781 111.503906 C 121.070312 113.347656 122.628906 114.734375 124.566406 115.402344 C 128.558594 116.785156 132.9375 114.667969 134.324219 110.683594 C 134.992188 108.753906 134.871094 106.679688 133.980469 104.84375 C 133.089844 103.003906 131.53125 101.617188 129.59375 100.945312 C 128.761719 100.660156 127.917969 100.523438 127.085938 100.523438 Z M 127.074219 116.1875 C 126.199219 116.1875 125.316406 116.046875 124.449219 115.746094 C 122.417969 115.042969 120.785156 113.59375 119.851562 111.664062 C 118.917969 109.738281 118.792969 107.566406 119.496094 105.546875 C 120.945312 101.375 125.527344 99.15625 129.710938 100.605469 C 131.738281 101.308594 133.371094 102.757812 134.308594 104.6875 C 135.238281 106.609375 135.367188 108.78125 134.664062 110.800781 C 133.515625 114.109375 130.398438 116.1875 127.074219 116.1875 Z M 118.792969 123.082031 L 124.332031 125 L 125.546875 121.511719 C 125.570312 121.433594 125.652344 121.386719 125.734375 121.390625 C 127.148438 121.535156 128.574219 121.453125 129.96875 121.140625 C 130.050781 121.125 130.132812 121.164062 130.167969 121.238281 L 131.78125 124.5625 L 137.058594 122.007812 L 135.445312 118.6875 C 135.40625 118.613281 135.425781 118.519531 135.492188 118.46875 C 136.597656 117.570312 137.546875 116.503906 138.308594 115.308594 C 138.355469 115.234375 138.441406 115.207031 138.519531 115.234375 L 142.015625 116.441406 L 143.9375 110.917969 L 140.441406 109.707031 C 140.363281 109.679688 140.3125 109.601562 140.320312 109.515625 C 140.46875 108.105469 140.382812 106.683594 140.074219 105.292969 C 140.054688 105.210938 140.09375 105.128906 140.171875 105.089844 L 143.5 103.480469 L 140.941406 98.21875 L 137.613281 99.828125 C 137.535156 99.863281 137.445312 99.84375 137.394531 99.78125 C 136.492188 98.675781 135.425781 97.730469 134.226562 96.96875 C 134.15625 96.921875 134.125 96.835938 134.152344 96.753906 L 135.363281 93.269531 L 129.824219 91.351562 L 128.613281 94.839844 C 128.585938 94.917969 128.507812 94.964844 128.425781 94.957031 C 127.007812 94.8125 125.585938 94.898438 124.191406 95.207031 C 124.109375 95.226562 124.027344 95.1875 123.992188 95.109375 L 122.375 91.789062 L 117.101562 94.339844 L 118.714844 97.664062 C 118.75 97.738281 118.730469 97.828125 118.667969 97.882812 C 117.558594 98.78125 116.613281 99.84375 115.847656 101.042969 C 115.804688 101.113281 115.722656 101.140625 115.644531 101.121094 L 111.980469 100.019531 L 110.21875 105.433594 L 113.714844 106.644531 C 113.796875 106.671875 113.84375 106.75 113.835938 106.832031 C 113.691406 108.246094 113.773438 109.667969 114.085938 111.054688 C 114.105469 111.136719 114.0625 111.222656 113.988281 111.257812 L 110.660156 112.867188 L 113.21875 118.132812 L 116.546875 116.523438 C 116.621094 116.484375 116.710938 116.503906 116.765625 116.570312 C 117.664062 117.675781 118.730469 118.621094 119.933594 119.382812 C 120.003906 119.425781 120.035156 119.515625 120.007812 119.59375 Z M 124.445312 125.410156 C 124.425781 125.410156 124.40625 125.40625 124.382812 125.398438 L 118.503906 123.363281 C 118.460938 123.347656 118.421875 123.316406 118.402344 123.273438 C 118.378906 123.226562 118.378906 123.179688 118.394531 123.132812 L 119.617188 119.609375 C 118.472656 118.867188 117.453125 117.960938 116.574219 116.910156 L 113.210938 118.539062 C 113.121094 118.578125 113.011719 118.542969 112.96875 118.453125 L 110.253906 112.863281 C 110.234375 112.820312 110.230469 112.769531 110.246094 112.726562 C 110.261719 112.679688 110.296875 112.644531 110.339844 112.621094 L 113.703125 110.996094 C 113.417969 109.660156 113.339844 108.296875 113.460938 106.9375 L 109.933594 105.714844 C 109.839844 105.683594 109.789062 105.582031 109.820312 105.488281 L 111.691406 99.738281 C 111.722656 99.648438 111.820312 99.59375 111.914062 99.621094 L 115.617188 100.734375 C 116.363281 99.589844 117.273438 98.566406 118.328125 97.691406 L 116.695312 94.335938 C 116.675781 94.292969 116.671875 94.242188 116.6875 94.199219 C 116.703125 94.152344 116.738281 94.113281 116.78125 94.09375 L 122.378906 91.382812 C 122.472656 91.339844 122.578125 91.378906 122.621094 91.46875 L 124.253906 94.824219 C 125.59375 94.542969 126.957031 94.460938 128.316406 94.585938 L 129.542969 91.0625 C 129.574219 90.96875 129.679688 90.917969 129.773438 90.949219 L 135.652344 92.988281 C 135.699219 93.003906 135.734375 93.035156 135.757812 93.078125 C 135.777344 93.121094 135.78125 93.171875 135.765625 93.21875 L 134.539062 96.738281 C 135.683594 97.480469 136.707031 98.390625 137.582031 99.441406 L 140.945312 97.8125 C 141.039062 97.769531 141.144531 97.808594 141.1875 97.894531 L 143.902344 103.484375 C 143.925781 103.53125 143.925781 103.578125 143.910156 103.625 C 143.894531 103.671875 143.863281 103.707031 143.820312 103.726562 L 140.457031 105.355469 C 140.738281 106.691406 140.820312 108.054688 140.695312 109.410156 L 144.226562 110.632812 C 144.269531 110.648438 144.308594 110.683594 144.328125 110.726562 C 144.351562 110.769531 144.351562 110.820312 144.335938 110.863281 L 142.296875 116.734375 C 142.265625 116.828125 142.160156 116.875 142.066406 116.84375 L 138.535156 115.621094 C 137.792969 116.761719 136.882812 117.785156 135.832031 118.65625 L 137.460938 122.015625 C 137.480469 122.058594 137.484375 122.105469 137.46875 122.152344 C 137.453125 122.199219 137.421875 122.234375 137.378906 122.257812 L 131.777344 124.964844 C 131.6875 125.007812 131.578125 124.972656 131.535156 124.882812 L 129.90625 121.523438 C 128.566406 121.808594 127.199219 121.890625 125.839844 121.765625 L 124.613281 125.289062 C 124.589844 125.363281 124.519531 125.410156 124.445312 125.410156 " fill-opacity="1" fill-rule="nonzero"/><path fill="#fed101" d="M 12.816406 147.953125 L 1.242188 147.953125 L 6.332031 138.15625 L 14.515625 138.15625 L 12.816406 147.953125 " fill-opacity="1" fill-rule="nonzero"/><path fill="#000000" d="M 14.089844 140.605469 L 3.785156 143.054688 L 6.332031 138.15625 L 14.515625 138.15625 L 14.089844 140.605469 " fill-opacity="1" fill-rule="nonzero"/><path fill="#000000" d="M 13.628906 150 L 11.429688 150 L 10.492188 149.03125 L 9.554688 150 L 5.132812 150 L 4.140625 149.03125 L 3.113281 150 L 0.03125 150 L 0.449219 147.734375 L 13.210938 147.734375 L 13.628906 150 " fill-opacity="1" fill-rule="nonzero"/><path fill="#fed101" d="M 42.070312 148.949219 C 42.113281 148.671875 42.132812 148.386719 42.132812 148.101562 C 42.132812 144.933594 39.566406 142.363281 36.402344 142.363281 C 33.234375 142.363281 30.667969 144.933594 30.667969 148.101562 C 30.667969 148.386719 30.691406 148.671875 30.730469 148.949219 L 42.070312 148.949219 " fill-opacity="1" fill-rule="nonzero"/><path fill="#fed101" d="M 41.078125 147.652344 L 28.9375 147.652344 L 30.421875 139.960938 L 36.625 139.960938 L 41.078125 147.652344 " fill-opacity="1" fill-rule="nonzero"/><path fill="#000000" d="M 37 140.605469 L 29.890625 142.707031 L 30.421875 139.960938 L 36.625 139.960938 L 37 140.605469 " fill-opacity="1" fill-rule="nonzero"/><path fill="#000000" d="M 39.34375 144.832031 C 39.28125 144.832031 39.21875 144.800781 39.1875 144.742188 L 38.023438 142.738281 C 37.972656 142.652344 38.003906 142.539062 38.089844 142.488281 C 38.175781 142.441406 38.289062 142.46875 38.335938 142.554688 L 39.5 144.5625 C 39.550781 144.648438 39.519531 144.757812 39.433594 144.808594 C 39.40625 144.824219 39.375 144.832031 39.34375 144.832031 " fill-opacity="1" fill-rule="nonzero"/><path fill="#000000" d="M 42.804688 149.917969 L 40.464844 149.917969 L 39.464844 148.949219 L 38.464844 149.917969 L 33.757812 149.917969 L 32.699219 148.949219 L 31.605469 149.917969 L 28.320312 149.917969 L 28.765625 147.652344 L 42.359375 147.652344 L 42.804688 149.917969 " fill-opacity="1" fill-rule="nonzero"/><path fill="#8c7bff" d="M 41.484375 99.667969 L 39.25 83.40625 L 18.839844 83.40625 L 18.839844 94.347656 L 14.980469 113.027344 L 4.015625 140.605469 L 14.992188 140.605469 L 21.945312 125.734375 C 25.066406 119.066406 27.195312 111.980469 28.273438 104.699219 L 29.484375 96.523438 L 30.96875 112.664062 L 28.273438 140.605469 L 39.25 140.605469 L 41.382812 125.949219 C 42.648438 117.238281 42.683594 108.390625 41.484375 99.667969 " fill-opacity="1" fill-rule="nonzero"/><path fill="#6155ff" d="M 33.085938 94.152344 C 31.3125 94.152344 29.878906 92.714844 29.878906 90.945312 L 29.878906 87.210938 L 36.289062 87.210938 L 36.289062 90.945312 C 36.289062 92.714844 34.855469 94.152344 33.085938 94.152344 " fill-opacity="1" fill-rule="nonzero"/><path fill="#000000" d="M 39.25 140.789062 L 28.273438 140.789062 C 28.222656 140.789062 28.175781 140.765625 28.140625 140.730469 C 28.105469 140.691406 28.089844 140.640625 28.09375 140.589844 L 30.789062 112.664062 L 29.300781 96.539062 C 29.292969 96.4375 29.367188 96.351562 29.464844 96.34375 C 29.566406 96.332031 29.652344 96.40625 29.664062 96.503906 L 31.148438 112.648438 C 31.152344 112.660156 31.152344 112.671875 31.148438 112.683594 L 28.472656 140.425781 L 39.09375 140.425781 L 41.203125 125.921875 C 42.46875 117.226562 42.503906 108.402344 41.304688 99.691406 L 39.070312 83.429688 C 39.058594 83.332031 39.125 83.242188 39.226562 83.226562 C 39.324219 83.210938 39.414062 83.28125 39.429688 83.382812 L 41.664062 99.644531 C 42.867188 108.382812 42.832031 117.246094 41.5625 125.976562 L 39.429688 140.632812 C 39.417969 140.722656 39.339844 140.789062 39.25 140.789062 " fill-opacity="1" fill-rule="nonzero"/><path fill="#000000" d="M 32.230469 96.636719 L 25.300781 96.636719 C 25.203125 96.636719 25.121094 96.554688 25.121094 96.453125 C 25.121094 96.355469 25.203125 96.273438 25.300781 96.273438 L 32.230469 96.273438 C 32.328125 96.273438 32.410156 96.355469 32.410156 96.453125 C 32.410156 96.554688 32.328125 96.636719 32.230469 96.636719 " fill-opacity="1" fill-rule="nonzero"/><path fill="#000000" d="M 19.90625 115.265625 C 19.875 115.265625 19.84375 115.257812 19.816406 115.242188 L 14.890625 112.441406 C 14.816406 112.402344 14.78125 112.316406 14.804688 112.234375 C 14.828125 112.152344 14.90625 112.101562 14.988281 112.105469 L 19.214844 112.359375 C 19.3125 112.363281 19.390625 112.449219 19.382812 112.546875 C 19.378906 112.648438 19.292969 112.722656 19.191406 112.71875 L 15.742188 112.511719 L 19.996094 114.929688 C 20.082031 114.976562 20.113281 115.089844 20.0625 115.175781 C 20.03125 115.234375 19.96875 115.265625 19.90625 115.265625 " fill-opacity="1" fill-rule="nonzero"/><path fill="#000000" d="M 33.777344 114.609375 C 33.746094 114.609375 33.714844 114.601562 33.683594 114.582031 L 30.875 112.820312 C 30.804688 112.777344 30.773438 112.695312 30.796875 112.617188 C 30.820312 112.539062 30.890625 112.484375 30.96875 112.484375 L 35.007812 112.484375 C 35.109375 112.484375 35.191406 112.566406 35.191406 112.664062 C 35.191406 112.765625 35.109375 112.847656 35.007812 112.847656 L 31.597656 112.847656 L 33.875 114.277344 C 33.960938 114.328125 33.984375 114.441406 33.933594 114.523438 C 33.898438 114.578125 33.839844 114.609375 33.777344 114.609375 " fill-opacity="1" fill-rule="nonzero"/><path fill="#000000" d="M 18.839844 90.679688 L 18.839844 83.40625 L 39.238281 83.40625 Z M 18.839844 90.679688 " fill-opacity="1" fill-rule="nonzero"/><path fill="#fda4ff" d="M 45.96875 52.382812 L 44.539062 56.066406 L 44.203125 53.898438 L 44.546875 52.957031 C 44.742188 52.429688 45.320312 52.15625 45.847656 52.34375 L 45.96875 52.382812 " fill-opacity="1" fill-rule="nonzero"/><path fill="#fda4ff" d="M 51.488281 55.214844 L 50.933594 59.421875 L 45.796875 60.925781 L 44.289062 57.003906 C 43.886719 55.949219 43.875 54.78125 44.265625 53.722656 L 44.503906 53.074219 L 51.488281 55.214844 " fill-opacity="1" fill-rule="nonzero"/><path fill="#ffffff" d="M 42.417969 48.757812 C 42.417969 53.605469 38.492188 57.535156 33.648438 57.535156 C 28.804688 57.535156 24.878906 53.605469 24.878906 48.757812 C 24.878906 43.914062 28.804688 39.984375 33.648438 39.984375 C 38.492188 39.984375 42.417969 43.914062 42.417969 48.757812 " fill-opacity="1" fill-rule="nonzero"/><path fill="#000000" d="M 43.425781 53.519531 L 53.523438 57.640625 L 54.371094 55.558594 L 44.285156 51.441406 Z M 53.621094 58.058594 C 53.597656 58.058594 53.574219 58.054688 53.554688 58.046875 L 43.121094 53.785156 C 43.078125 53.769531 43.042969 53.734375 43.023438 53.691406 C 43.003906 53.644531 43.003906 53.59375 43.023438 53.550781 L 44.019531 51.136719 C 44.058594 51.046875 44.164062 51 44.257812 51.039062 L 54.675781 55.292969 C 54.769531 55.332031 54.8125 55.4375 54.773438 55.53125 L 53.789062 57.945312 C 53.769531 57.992188 53.734375 58.027344 53.691406 58.046875 C 53.667969 58.054688 53.644531 58.058594 53.621094 58.058594 " fill-opacity="1" fill-rule="nonzero"/><path fill="#000000" d="M 33.648438 40.164062 C 28.914062 40.164062 25.0625 44.019531 25.0625 48.757812 C 25.0625 53.496094 28.914062 57.351562 33.648438 57.351562 C 38.382812 57.351562 42.238281 53.496094 42.238281 48.757812 C 42.238281 44.019531 38.382812 40.164062 33.648438 40.164062 Z M 33.648438 57.714844 C 28.714844 57.714844 24.699219 53.695312 24.699219 48.757812 C 24.699219 43.820312 28.714844 39.804688 33.648438 39.804688 C 38.582031 39.804688 42.597656 43.820312 42.597656 48.757812 C 42.597656 53.695312 38.582031 57.714844 33.648438 57.714844 " fill-opacity="1" fill-rule="nonzero"/><path fill="#000000" d="M 38.679688 53.972656 C 38.632812 53.972656 38.585938 53.957031 38.550781 53.921875 C 38.480469 53.851562 38.480469 53.734375 38.550781 53.664062 C 39.605469 52.613281 40.28125 51.28125 40.503906 49.8125 C 40.519531 49.714844 40.609375 49.648438 40.710938 49.664062 C 40.808594 49.675781 40.875 49.769531 40.859375 49.867188 C 40.625 51.410156 39.917969 52.8125 38.808594 53.921875 C 38.773438 53.957031 38.726562 53.972656 38.679688 53.972656 " fill-opacity="1" fill-rule="nonzero"/><path fill="#000000" d="M 40.683594 47.855469 C 40.59375 47.855469 40.519531 47.792969 40.503906 47.703125 C 39.992188 44.347656 37.046875 41.820312 33.648438 41.820312 C 33.550781 41.820312 33.46875 41.738281 33.46875 41.636719 C 33.46875 41.539062 33.550781 41.457031 33.648438 41.457031 C 37.222656 41.457031 40.324219 44.117188 40.863281 47.648438 C 40.875 47.746094 40.808594 47.839844 40.710938 47.855469 C 40.699219 47.855469 40.691406 47.855469 40.683594 47.855469 " fill-opacity="1" fill-rule="nonzero"/><path fill="#000000" d="M 43.339844 53.445312 C 43.316406 53.445312 43.292969 53.441406 43.269531 53.429688 L 41.554688 52.726562 C 41.464844 52.6875 41.417969 52.582031 41.457031 52.488281 C 41.496094 52.398438 41.601562 52.351562 41.691406 52.390625 L 43.242188 53.027344 L 43.792969 51.6875 L 42.132812 51.003906 C 42.039062 50.964844 41.996094 50.859375 42.03125 50.765625 C 42.070312 50.675781 42.175781 50.628906 42.269531 50.667969 L 44.097656 51.421875 C 44.140625 51.4375 44.175781 51.472656 44.195312 51.519531 C 44.214844 51.5625 44.214844 51.613281 44.195312 51.65625 L 43.507812 53.332031 C 43.488281 53.378906 43.453125 53.414062 43.410156 53.429688 C 43.386719 53.441406 43.363281 53.445312 43.339844 53.445312 " fill-opacity="1" fill-rule="nonzero"/><path fill="#fda4ff" d="M 47.769531 51.679688 L 46.195312 55.96875 L 44.777344 55.449219 L 46.355469 51.15625 C 46.492188 50.78125 46.90625 50.589844 47.28125 50.726562 L 47.339844 50.75 C 47.714844 50.886719 47.90625 51.304688 47.769531 51.679688 " fill-opacity="1" fill-rule="nonzero"/><path fill="#fda4ff" d="M 49.421875 51.554688 L 47.765625 56.070312 L 46.347656 55.550781 L 48.007812 51.035156 C 48.144531 50.65625 48.5625 50.460938 48.941406 50.601562 L 48.992188 50.621094 C 49.367188 50.757812 49.5625 51.175781 49.421875 51.554688 " fill-opacity="1" fill-rule="nonzero"/><path fill="#fda4ff" d="M 52.253906 52.601562 L 50.621094 57.046875 L 49.207031 56.523438 L 50.839844 52.082031 C 50.976562 51.699219 51.402344 51.503906 51.78125 51.644531 L 51.816406 51.660156 C 52.199219 51.800781 52.394531 52.222656 52.253906 52.601562 " fill-opacity="1" fill-rule="nonzero"/><path fill="#fda4ff" d="M 52.253906 55.875 L 50.949219 59.390625 L 49.523438 58.867188 L 51.726562 52.910156 L 52.242188 54.242188 C 52.441406 54.769531 52.449219 55.347656 52.253906 55.875 " fill-opacity="1" fill-rule="nonzero"/><path fill="#fda4ff" d="M 50.226562 51.441406 L 50.304688 51.46875 C 50.671875 51.605469 50.84375 52.066406 50.683594 52.503906 L 49.089844 56.84375 L 47.671875 56.320312 L 49.265625 51.980469 C 49.425781 51.546875 49.855469 51.304688 50.226562 51.441406 " fill-opacity="1" fill-rule="nonzero"/><path fill="#fda4ff" d="M 50.996094 59.050781 L 50.84375 65.414062 L 45.363281 63.664062 L 45.488281 57.027344 L 50.996094 59.050781 " fill-opacity="1" fill-rule="nonzero"/><path fill="#000000" d="M 50.945312 61.222656 L 50.84375 65.414062 L 45.363281 63.664062 L 45.398438 61.828125 L 48.800781 61.453125 L 50.945312 61.222656 " fill-opacity="1" fill-rule="nonzero"/><path fill="#000000" d="M 48.863281 53.261719 C 48.84375 53.261719 48.824219 53.257812 48.800781 53.25 C 48.707031 53.214844 48.660156 53.109375 48.695312 53.015625 L 49.253906 51.492188 C 49.304688 51.355469 49.296875 51.207031 49.238281 51.074219 C 49.175781 50.941406 49.066406 50.839844 48.929688 50.789062 L 48.878906 50.769531 C 48.742188 50.722656 48.59375 50.726562 48.460938 50.789062 C 48.328125 50.851562 48.226562 50.957031 48.175781 51.097656 L 47.542969 52.828125 C 47.507812 52.921875 47.402344 52.96875 47.308594 52.933594 C 47.214844 52.898438 47.167969 52.796875 47.203125 52.703125 L 47.835938 50.972656 C 48.011719 50.5 48.535156 50.257812 49.003906 50.433594 L 49.054688 50.449219 C 49.28125 50.535156 49.464844 50.703125 49.566406 50.921875 C 49.667969 51.144531 49.675781 51.390625 49.59375 51.617188 L 49.035156 53.140625 C 49.007812 53.214844 48.9375 53.261719 48.863281 53.261719 " fill-opacity="1" fill-rule="nonzero"/><path fill="#000000" d="M 50.199219 54.003906 C 50.179688 54.003906 50.15625 54 50.136719 53.992188 C 50.042969 53.960938 49.992188 53.855469 50.027344 53.761719 L 50.558594 52.324219 C 50.660156 52.046875 50.515625 51.738281 50.242188 51.636719 L 50.164062 51.609375 C 49.886719 51.507812 49.582031 51.652344 49.480469 51.925781 L 48.96875 53.316406 C 48.9375 53.40625 48.832031 53.457031 48.738281 53.421875 C 48.644531 53.386719 48.597656 53.285156 48.628906 53.1875 L 49.140625 51.800781 C 49.3125 51.339844 49.824219 51.101562 50.289062 51.269531 L 50.367188 51.296875 C 50.828125 51.46875 51.066406 51.984375 50.894531 52.449219 L 50.367188 53.886719 C 50.339844 53.960938 50.273438 54.003906 50.199219 54.003906 " fill-opacity="1" fill-rule="nonzero"/><path fill="#000000" d="M 44.921875 55.234375 C 44.902344 55.234375 44.882812 55.230469 44.859375 55.222656 C 44.765625 55.1875 44.71875 55.085938 44.753906 54.988281 L 46.183594 51.097656 C 46.355469 50.625 46.875 50.386719 47.34375 50.558594 L 47.402344 50.578125 C 47.628906 50.664062 47.808594 50.828125 47.910156 51.050781 C 48.011719 51.269531 48.023438 51.515625 47.941406 51.742188 L 47.429688 53.132812 C 47.394531 53.230469 47.289062 53.277344 47.195312 53.242188 C 47.101562 53.207031 47.054688 53.101562 47.089844 53.007812 L 47.601562 51.617188 C 47.652344 51.480469 47.644531 51.332031 47.582031 51.199219 C 47.523438 51.070312 47.414062 50.96875 47.277344 50.917969 L 47.21875 50.898438 C 46.941406 50.796875 46.625 50.9375 46.523438 51.21875 L 45.09375 55.117188 C 45.066406 55.1875 44.996094 55.234375 44.921875 55.234375 " fill-opacity="1" fill-rule="nonzero"/><path fill="#000000" d="M 50.84375 65.59375 C 50.824219 65.59375 50.804688 65.59375 50.789062 65.585938 L 45.308594 63.835938 C 45.234375 63.8125 45.179688 63.738281 45.183594 63.660156 L 45.253906 60.011719 L 44.121094 57.070312 C 43.742188 56.082031 43.699219 54.980469 43.996094 53.964844 C 44.023438 53.871094 44.125 53.8125 44.21875 53.84375 C 44.316406 53.871094 44.371094 53.972656 44.34375 54.066406 C 44.066406 55.003906 44.109375 56.027344 44.460938 56.9375 L 45.601562 59.917969 C 45.609375 59.9375 45.613281 59.960938 45.613281 59.984375 L 45.546875 63.53125 L 50.667969 65.167969 L 50.808594 59.300781 C 50.808594 59.277344 50.8125 59.257812 50.820312 59.242188 L 52.085938 55.8125 C 52.261719 55.328125 52.257812 54.792969 52.074219 54.308594 L 51.78125 53.546875 C 51.765625 53.507812 51.761719 53.464844 51.777344 53.425781 L 52.082031 52.542969 C 52.136719 52.402344 52.128906 52.25 52.066406 52.117188 C 52.003906 51.984375 51.894531 51.878906 51.757812 51.828125 L 51.71875 51.816406 C 51.433594 51.710938 51.113281 51.859375 51.007812 52.144531 L 50.285156 54.105469 C 50.253906 54.199219 50.148438 54.25 50.054688 54.214844 C 49.960938 54.179688 49.914062 54.078125 49.949219 53.980469 L 50.667969 52.019531 C 50.84375 51.546875 51.371094 51.300781 51.84375 51.476562 L 51.882812 51.488281 C 52.109375 51.574219 52.292969 51.742188 52.394531 51.964844 C 52.5 52.1875 52.507812 52.4375 52.425781 52.664062 L 52.140625 53.480469 L 52.410156 54.179688 C 52.628906 54.746094 52.632812 55.367188 52.421875 55.9375 L 51.167969 59.335938 L 51.023438 65.417969 C 51.023438 65.476562 50.996094 65.527344 50.949219 65.5625 C 50.917969 65.585938 50.878906 65.59375 50.84375 65.59375 " fill-opacity="1" fill-rule="nonzero"/><path fill="#fed101" d="M 48.164062 80.753906 C 45.574219 80.707031 43.511719 78.570312 43.554688 75.976562 L 43.746094 62.734375 L 53.167969 62.753906 L 52.933594 76.140625 C 52.890625 78.730469 50.753906 80.796875 48.164062 80.753906 " fill-opacity="1" fill-rule="nonzero"/><path fill="#000000" d="M 43.925781 62.914062 L 43.734375 75.980469 C 43.691406 78.46875 45.679688 80.527344 48.167969 80.570312 C 48.195312 80.570312 48.21875 80.570312 48.246094 80.570312 C 50.699219 80.570312 52.710938 78.597656 52.753906 76.136719 L 52.980469 62.933594 Z M 48.246094 80.933594 C 48.21875 80.933594 48.191406 80.933594 48.160156 80.933594 C 45.476562 80.886719 43.328125 78.664062 43.375 75.976562 L 43.566406 62.730469 C 43.566406 62.632812 43.648438 62.554688 43.746094 62.554688 L 53.167969 62.570312 C 53.214844 62.574219 53.261719 62.59375 53.296875 62.628906 C 53.328125 62.660156 53.347656 62.707031 53.347656 62.757812 L 53.117188 76.144531 C 53.070312 78.800781 50.894531 80.933594 48.246094 80.933594 " fill-opacity="1" fill-rule="nonzero"/><path fill="#fed101" d="M 51.613281 72.792969 L 43.222656 64.394531 C 39.816406 60.984375 35.195312 59.066406 30.375 59.066406 L 24.945312 59.066406 C 21.199219 59.066406 17.789062 61.210938 16.160156 64.585938 L 12.027344 73.164062 C 10.890625 75.535156 11.578125 79.023438 13.949219 80.164062 C 15.550781 80.933594 16.890625 80.875 18.375 80.160156 L 17.828125 86.324219 L 39.992188 83.40625 L 38.746094 74.308594 L 44.980469 79.429688 L 51.613281 72.792969 " fill-opacity="1" fill-rule="nonzero"/><path fill="#000000" d="M 44.980469 79.609375 C 44.9375 79.609375 44.898438 79.597656 44.863281 79.570312 L 34.84375 71.335938 C 34.765625 71.273438 34.753906 71.15625 34.816406 71.082031 C 34.882812 71.003906 34.996094 70.992188 35.070312 71.054688 L 45.09375 79.289062 C 45.171875 79.351562 45.179688 79.46875 45.117188 79.542969 C 45.082031 79.585938 45.03125 79.609375 44.980469 79.609375 " fill-opacity="1" fill-rule="nonzero"/><path fill="#000000" d="M 51.613281 72.972656 C 51.566406 72.972656 51.519531 72.953125 51.484375 72.917969 L 43.097656 64.523438 C 39.648438 61.070312 35.199219 59.25 30.226562 59.25 C 30.125 59.25 30.046875 59.167969 30.046875 59.066406 C 30.046875 58.96875 30.125 58.886719 30.226562 58.886719 C 35.296875 58.886719 39.835938 60.746094 43.351562 64.265625 L 51.742188 72.664062 C 51.8125 72.734375 51.8125 72.847656 51.742188 72.917969 C 51.703125 72.953125 51.660156 72.972656 51.613281 72.972656 " fill-opacity="1" fill-rule="nonzero"/><path fill="#000000" d="M 18.398438 80.34375 C 18.394531 80.34375 18.386719 80.34375 18.382812 80.34375 C 18.28125 80.332031 18.210938 80.246094 18.21875 80.144531 L 19.539062 66.789062 C 19.546875 66.6875 19.636719 66.617188 19.738281 66.625 C 19.835938 66.636719 19.910156 66.722656 19.898438 66.824219 L 18.578125 80.179688 C 18.570312 80.273438 18.492188 80.34375 18.398438 80.34375 " fill-opacity="1" fill-rule="nonzero"/><path fill="#000000" d="M 19.679688 67.207031 L 16.667969 80.6875 C 16.667969 80.6875 17.125 80.648438 17.605469 80.492188 C 17.945312 80.378906 18.375 80.160156 18.375 80.160156 L 19.679688 67.207031 " fill-opacity="1" fill-rule="nonzero"/><path fill="#fda4ff" d="M 32.050781 53.886719 C 32.050781 55.550781 32.15625 57.863281 30.492188 57.863281 C 28.828125 57.863281 26.023438 55.550781 26.023438 53.886719 C 26.023438 52.222656 27.371094 50.871094 29.035156 50.871094 C 30.699219 50.871094 32.050781 52.222656 32.050781 53.886719 " fill-opacity="1" fill-rule="nonzero"/><path fill="#000000" d="M 33.15625 53.148438 C 32.695312 51.613281 31.273438 50.496094 29.589844 50.496094 C 27.90625 50.496094 26.535156 51.523438 26.113281 53.148438 L 33.15625 53.148438 " fill-opacity="1" fill-rule="nonzero"/><path fill="#fda4ff" d="M 30.117188 59.066406 L 26.632812 59.066406 L 26.632812 53.886719 L 30.117188 53.886719 L 30.117188 59.066406 " fill-opacity="1" fill-rule="nonzero"/><path fill="#000000" d="M 30.117188 59.300781 C 30.015625 59.300781 29.933594 59.21875 29.933594 59.121094 L 29.933594 56.203125 C 29.933594 56.101562 30.015625 56.019531 30.117188 56.019531 C 30.214844 56.019531 30.296875 56.101562 30.296875 56.203125 L 30.296875 59.121094 C 30.296875 59.21875 30.214844 59.300781 30.117188 59.300781 " fill-opacity="1" fill-rule="nonzero"/><path fill="#000000" d="M 128.03125 75.484375 L 88.976562 75.484375 L 88.976562 48.765625 L 128.03125 48.765625 L 128.03125 75.484375 " fill-opacity="1" fill-rule="nonzero"/><path fill="#4ada85" d="M 125.761719 73.136719 L 86.703125 73.136719 L 86.703125 48.292969 L 125.761719 48.292969 L 125.761719 73.136719 " fill-opacity="1" fill-rule="nonzero"/><path fill="#ffffff" d="M 120.179688 55.308594 L 93.050781 55.308594 L 93.050781 53.269531 L 120.179688 53.269531 L 120.179688 55.308594 " fill-opacity="1" fill-rule="nonzero"/><path fill="#ffffff" d="M 120.179688 60.375 L 93.050781 60.375 L 93.050781 58.335938 L 120.179688 58.335938 L 120.179688 60.375 " fill-opacity="1" fill-rule="nonzero"/><path fill="#ffffff" d="M 115.792969 65.882812 L 93.050781 65.882812 L 93.050781 63.84375 L 115.792969 63.84375 L 115.792969 65.882812 " fill-opacity="1" fill-rule="nonzero"/><path fill="#000000" d="M 128.03125 108.195312 L 88.976562 108.195312 L 88.976562 81.472656 L 128.03125 81.472656 L 128.03125 108.195312 " fill-opacity="1" fill-rule="nonzero"/><path fill="#4ada85" d="M 125.761719 105.84375 L 86.703125 105.84375 L 86.703125 81 L 125.761719 81 L 125.761719 105.84375 " fill-opacity="1" fill-rule="nonzero"/><path fill="#ffffff" d="M 120.179688 88.019531 L 93.050781 88.019531 L 93.050781 85.976562 L 120.179688 85.976562 L 120.179688 88.019531 " fill-opacity="1" fill-rule="nonzero"/><path fill="#ffffff" d="M 120.179688 93.085938 L 93.050781 93.085938 L 93.050781 91.046875 L 120.179688 91.046875 L 120.179688 93.085938 " fill-opacity="1" fill-rule="nonzero"/><path fill="#ffffff" d="M 115.792969 98.59375 L 93.050781 98.59375 L 93.050781 96.550781 L 115.792969 96.550781 L 115.792969 98.59375 " fill-opacity="1" fill-rule="nonzero"/><path fill="#000000" d="M 128.03125 140.894531 L 88.976562 140.894531 L 88.976562 114.171875 L 128.03125 114.171875 L 128.03125 140.894531 " fill-opacity="1" fill-rule="nonzero"/><path fill="#4ada85" d="M 125.761719 138.542969 L 86.703125 138.542969 L 86.703125 113.699219 L 125.761719 113.699219 L 125.761719 138.542969 " fill-opacity="1" fill-rule="nonzero"/><path fill="#ffffff" d="M 120.179688 120.71875 L 93.050781 120.71875 L 93.050781 118.675781 L 120.179688 118.675781 L 120.179688 120.71875 " fill-opacity="1" fill-rule="nonzero"/><path fill="#ffffff" d="M 120.179688 125.785156 L 93.050781 125.785156 L 93.050781 123.746094 L 120.179688 123.746094 L 120.179688 125.785156 " fill-opacity="1" fill-rule="nonzero"/><path fill="#ffffff" d="M 115.792969 131.289062 L 93.050781 131.289062 L 93.050781 129.25 L 115.792969 129.25 L 115.792969 131.289062 " fill-opacity="1" fill-rule="nonzero"/></svg>