<svg width="472" height="524" viewBox="0 0 472 524" fill="none" xmlns="http://www.w3.org/2000/svg">
<path d="M416.117 270.566C409.216 270.566 406.619 236.914 413.523 236.376C376.195 240.355 337.869 246.471 311.816 242.324C302.669 253.622 295.207 266.19 289.662 279.634C286.142 266.979 284.861 253.805 285.878 240.707C280.922 240.303 226.837 204.382 204.064 191.041C199.126 194.385 194.919 198.7 191.697 203.723C188.476 208.746 186.308 214.373 185.325 220.262L265.139 268.898L271.424 259.83C269.954 263.451 269.133 267.302 268.996 271.208C268.765 279.062 271.302 290.553 280.755 310.724C289.981 313.496 305.033 309.223 316.505 302.581C315.986 295.361 319.503 286.525 322.156 279.135C320.118 277.641 317.98 276.29 315.755 275.093C349.581 277.324 381.409 274.798 416.117 270.566Z" fill="#FFD647"/>
<path d="M134.924 323.641C117.393 322.267 99.8045 321.785 82.2252 322.197C83.3238 318.455 83.9793 314.598 84.1857 310.704C69.7706 314.458 55.8168 314.574 37.2533 311.92V311.689C28.6285 317.404 21.0993 337.666 26.5072 352.561L11.5368 384.229L-31.1288 356.963C-43.987 364.991 -50.445 375.271 -55.1731 391.038L-1.37912 427.94C2.22909 430.422 6.3213 432.109 10.6279 432.891C14.9344 433.674 19.3576 433.533 23.606 432.479C27.8543 431.426 31.8319 429.484 35.2769 426.781C38.7219 424.077 41.5561 420.673 43.5929 416.794L60.7756 384.05L39.0893 367.459C42.2694 369.319 45.6848 370.742 49.2435 371.69C66.9452 376.599 92.8317 374.636 110.242 372.499C105.121 392.901 101.119 413.569 98.2517 434.409C109.23 441.807 122.617 444.72 135.67 442.552C145.422 415.176 153.662 387.283 160.352 358.999C161.35 354.975 161.462 350.781 160.679 346.708C159.896 342.636 158.236 338.784 155.816 335.419C153.397 332.054 150.274 329.258 146.666 327.224C143.058 325.19 139.051 323.967 134.924 323.641Z" fill="#FFD647"/>
<path d="M387.406 144.492C386.753 143.83 385.918 143.379 385.007 143.196C384.096 143.014 383.152 143.108 382.295 143.468C381.726 143.705 381.209 144.053 380.775 144.492L379.561 145.708L378.347 144.492C377.459 143.652 376.279 143.192 375.058 143.21C373.837 143.227 372.67 143.721 371.807 144.586C370.944 145.452 370.451 146.62 370.434 147.843C370.417 149.066 370.877 150.248 371.716 151.137L379.606 158.992L387.391 151.137C388.051 150.483 388.503 149.647 388.687 148.736C388.871 147.824 388.78 146.878 388.425 146.018C388.189 145.447 387.843 144.929 387.406 144.492Z" fill="#FFD647"/>
<path d="M76.9721 96.3863C76.3194 95.7244 75.4841 95.2732 74.5734 95.0907C73.6626 94.9081 72.7183 95.0026 71.8616 95.3619C71.2921 95.5991 70.7752 95.9474 70.3412 96.3863L69.1273 97.6022L67.9134 96.3863C67.0255 95.5463 65.8455 95.0862 64.6243 95.1038C63.4031 95.1213 62.2368 95.6152 61.3734 96.4805C60.51 97.3457 60.0174 98.5141 60.0005 99.7373C59.9835 100.961 60.4434 102.142 61.2824 103.031L69.1728 110.886L76.9569 103.031C77.6177 102.377 78.069 101.541 78.2533 100.63C78.4376 99.718 78.3466 98.7719 77.9918 97.9123C77.7556 97.3413 77.4091 96.8227 76.9721 96.3863Z" fill="#FFD647"/>
<path d="M211.972 308.386C211.319 307.724 210.484 307.273 209.573 307.091C208.663 306.908 207.718 307.003 206.862 307.362C206.292 307.599 205.775 307.947 205.341 308.386L204.127 309.602L202.913 308.386C202.026 307.546 200.846 307.086 199.624 307.104C198.403 307.121 197.237 307.615 196.373 308.48C195.51 309.346 195.017 310.514 195 311.737C194.983 312.961 195.443 314.142 196.282 315.031L204.173 322.886L211.957 315.031C212.618 314.377 213.069 313.541 213.253 312.63C213.438 311.718 213.347 310.772 212.992 309.912C212.756 309.341 212.409 308.823 211.972 308.386Z" fill="#FFD647"/>
<path d="M438.972 54.3863C438.319 53.7244 437.484 53.2732 436.573 53.0907C435.663 52.9081 434.718 53.0026 433.862 53.3619C433.292 53.5991 432.775 53.9474 432.341 54.3863L431.127 55.6022L429.913 54.3863C429.026 53.5463 427.846 53.0862 426.624 53.1038C425.403 53.1213 424.237 53.6152 423.373 54.4805C422.51 55.3457 422.017 56.5141 422 57.7373C421.983 58.9606 422.443 60.1422 423.282 61.0312L431.173 68.8858L438.957 61.0312C439.618 60.3775 440.069 59.5414 440.253 58.6297C440.438 57.718 440.347 56.7719 439.992 55.9123C439.756 55.3413 439.409 54.8227 438.972 54.3863Z" fill="#FFD647"/>
<path d="M57.2584 482.342L49.2436 481.129L45.6687 473.91L42.0938 481.129L34.082 482.342L39.9057 487.944L38.5219 495.914L45.6687 492.16L52.8186 495.914L51.4347 487.944L57.2584 482.342Z" fill="#FFD647"/>
<path d="M437.176 455.432L429.162 454.219L425.587 447L422.012 454.219L414 455.432L419.824 461.034L418.44 469.005L425.587 465.25L432.737 469.005L431.353 461.034L437.176 455.432Z" fill="#FFD647"/>
<path d="M335.176 8.43216L327.162 7.21931L323.587 0L320.012 7.21931L312 8.43216L317.824 14.0344L316.44 22.0046L323.587 18.2505L330.737 22.0046L329.353 14.0344L335.176 8.43216Z" fill="#FFD647"/>
<path d="M298.093 229.202L292.023 234.977C292.585 233.375 292.934 231.703 293.061 230.01C294.763 229.929 296.451 229.657 298.093 229.202Z" fill="#FF6635"/>
<path d="M323.348 275.475C322.945 276.63 322.541 277.843 322.08 279.123C320.043 277.628 317.904 276.278 315.68 275.08C318.274 275.187 320.811 275.36 323.348 275.475Z" fill="#FF6635"/>
<path d="M370.281 179.605C360.837 171.75 335.226 193.812 335.226 193.812C339.951 170.479 305.358 190.468 293.711 201.84C299.708 197.046 304.493 207.439 303.974 213.33C303.974 214.719 304.724 215.008 306.857 213.507C311.297 210.272 314.469 217.954 306.108 221.531C305.546 222.139 305.134 222.869 304.894 223.659C303.362 228.018 303.261 232.753 304.606 237.174C343.411 229.216 379.679 187.401 370.281 179.605Z" fill="#FF6635"/>
<path d="M303.629 356.789L299.016 360.774L294.979 343.62L303.629 356.789Z" fill="#FF6635"/>
<path d="M176.955 88.0098C172.333 88.0098 167.815 89.3825 163.973 91.9544C160.13 94.5263 157.135 98.1818 155.366 102.459C153.598 106.736 153.135 111.442 154.036 115.982C154.938 120.522 157.164 124.693 160.432 127.966C163.7 131.24 167.863 133.469 172.396 134.372C176.929 135.275 181.627 134.811 185.897 133.04C190.167 131.268 193.817 128.268 196.384 124.419C198.952 120.57 200.323 116.045 200.323 111.416C200.33 106.784 198.964 102.254 196.397 98.4021C193.83 94.5497 190.178 91.5483 185.904 89.7789C183.067 88.6051 180.025 88.0039 176.955 88.0098ZM177.532 125.666C177.532 125.819 177.471 125.966 177.363 126.074C177.255 126.183 177.108 126.243 176.955 126.243C176.878 126.248 176.801 126.236 176.729 126.208C176.657 126.181 176.592 126.139 176.537 126.084C176.483 126.03 176.441 125.964 176.413 125.892C176.386 125.82 176.374 125.743 176.378 125.666V107.531C176.379 107.378 176.44 107.232 176.548 107.123C176.656 107.015 176.802 106.954 176.955 106.953C177.032 106.949 177.109 106.961 177.181 106.988C177.253 107.016 177.318 107.058 177.372 107.113C177.427 107.167 177.469 107.233 177.497 107.305C177.524 107.377 177.536 107.454 177.532 107.531V125.666ZM175.34 98.7552C175.359 98.3309 175.54 97.93 175.846 97.6363C176.152 97.3425 176.56 97.1785 176.984 97.1785C177.408 97.1785 177.815 97.3425 178.122 97.6363C178.428 97.93 178.609 98.3309 178.627 98.7552C178.609 99.1796 178.428 99.5804 178.122 99.8742C177.815 100.168 177.408 100.332 176.984 100.332C176.56 100.332 176.152 100.168 175.846 99.8742C175.54 99.5804 175.359 99.1796 175.34 98.7552Z" fill="#FF6635"/>
<path d="M38.7495 367.241L60.7757 384.048L65.9075 374.345C56.4298 374.101 47.136 371.67 38.7495 367.241Z" fill="#FF6635"/>
<path d="M57.7774 239.956L50.8582 235.281C52.8459 235.521 54.8519 235.597 56.8548 235.512C57.0126 237.02 57.3222 238.509 57.7774 239.956Z" fill="#FF6635"/>
<path d="M271.342 259.824C269.873 263.444 269.051 267.296 268.914 271.201L265.051 268.833L271.342 259.824Z" fill="#FF6635"/>
<path d="M87.2991 260.228C87.815 262.745 88.1792 265.292 88.3946 267.852C89.4902 267.332 90.701 266.697 91.9119 266.062L87.2991 260.228Z" fill="#FF6635"/>
<path d="M103.038 439.143C101.715 442.955 100.04 446.767 98.8894 450.114C99.7847 453.957 101.179 457.665 103.038 461.145C108.862 471.945 114.685 493.141 119.298 498.455C121.835 490.889 124.545 471.89 126.333 461.203C117.333 455.279 109.447 447.812 103.038 439.143Z" fill="#FF6635"/>
<path d="M52.0114 203.06C50.1087 199.941 45.942 200.114 46.3607 202.482C43.7691 200.172 39.2716 201.266 39.7875 203.926C36.6769 201.385 33.0443 203.406 33.7908 205.832C31.0838 203.753 28.1431 205.832 29.0657 208.315C25.2025 206.641 21.9735 209.531 26.5286 214.091C28.4891 216.055 37.0198 222.405 41.8056 230.433C42.0996 229.278 42.0723 228.064 41.7267 226.924C41.3811 225.784 40.7304 224.76 39.8451 223.964C35.117 220.383 38.346 216.112 41.3443 219.055C43.9967 221.654 43.1348 217.839 41.229 214.434C41.6235 214.776 42.0978 215.013 42.6078 215.123C43.1179 215.233 43.6474 215.212 44.1473 215.063C44.6473 214.913 45.1016 214.64 45.4683 214.268C45.835 213.897 46.1023 213.438 46.2454 212.936C46.6235 213.222 47.0593 213.422 47.5225 213.522C47.9857 213.622 48.4652 213.62 48.9274 213.516C49.3896 213.411 49.8236 213.207 50.199 212.917C50.5744 212.628 50.8822 212.259 51.101 211.838C53.2253 213.337 56.1175 212.416 56.2328 210.164C54.9521 207.963 53.5106 205.537 52.0114 203.06Z" fill="#FF6635"/>
<path d="M37.029 280.209L32.8229 285.638C32.2463 283.388 31.6697 281.191 31.0354 279.057C32.9867 279.403 37.029 280.209 37.029 280.209Z" fill="#FF6635"/>
<path d="M4.50243 248.62C4.50243 248.877 4.45173 249.133 4.3532 249.371C4.25468 249.609 4.11028 249.826 3.92823 250.008C3.74619 250.19 3.53007 250.335 3.29221 250.434C3.05436 250.532 2.79944 250.583 2.54199 250.583C2.28454 250.583 2.0296 250.532 1.79175 250.434C1.5539 250.335 1.33779 250.19 1.15574 250.008C0.9737 249.826 0.829293 249.609 0.730771 249.371C0.63225 249.133 0.581543 248.877 0.581543 248.62C0.581543 248.099 0.78809 247.599 1.15574 247.231C1.5234 246.863 2.02204 246.656 2.54199 246.656C3.06193 246.656 3.56058 246.863 3.92823 247.231C4.29589 247.599 4.50243 248.099 4.50243 248.62Z" fill="#FF6635"/>
<path d="M29.7001 267.91C29.7001 268.431 29.4934 268.931 29.1254 269.299C28.7575 269.668 28.2584 269.875 27.7381 269.875C27.2177 269.875 26.7187 269.668 26.3508 269.299C25.9828 268.931 25.7761 268.431 25.7761 267.91C25.7761 267.389 25.9828 266.889 26.3508 266.52C26.7187 266.152 27.2177 265.945 27.7381 265.945C28.2584 265.945 28.7575 266.152 29.1254 266.52C29.4934 266.889 29.7001 267.389 29.7001 267.91Z" fill="#FF6635"/>
<path d="M64.0626 273.396C64.0626 273.918 63.8559 274.417 63.488 274.786C63.12 275.155 62.621 275.362 62.1006 275.362C61.5803 275.362 61.0813 275.155 60.7133 274.786C60.3454 274.417 60.1387 273.918 60.1387 273.396C60.1387 272.875 60.3454 272.375 60.7133 272.007C61.0813 271.638 61.5803 271.431 62.1006 271.431C62.621 271.431 63.12 271.638 63.488 272.007C63.8559 272.375 64.0626 272.875 64.0626 273.396Z" fill="#FF6635"/>
<path d="M81.9432 243.364C81.9432 243.886 81.7365 244.385 81.3686 244.754C81.0006 245.122 80.5016 245.33 79.9813 245.33C79.4609 245.33 78.9619 245.122 78.5939 244.754C78.226 244.385 78.0193 243.886 78.0193 243.364C78.0193 242.843 78.226 242.343 78.5939 241.975C78.9619 241.606 79.4609 241.399 79.9813 241.399C80.5016 241.399 81.0006 241.606 81.3686 241.975C81.7365 242.343 81.9432 242.843 81.9432 243.364Z" fill="#FF6635"/>
<path d="M115.377 242.96C115.377 243.218 115.326 243.473 115.228 243.712C115.129 243.95 114.985 244.166 114.803 244.349C114.621 244.531 114.405 244.676 114.167 244.774C113.929 244.873 113.674 244.924 113.417 244.924C113.159 244.924 112.904 244.873 112.667 244.774C112.429 244.676 112.213 244.531 112.031 244.349C111.848 244.166 111.704 243.95 111.606 243.712C111.507 243.473 111.456 243.218 111.456 242.96C111.456 242.439 111.663 241.94 112.031 241.572C112.398 241.203 112.897 240.996 113.417 240.996C113.937 240.996 114.435 241.203 114.803 241.572C115.171 241.94 115.377 242.439 115.377 242.96Z" fill="#FF6635"/>
<path d="M126.678 216.338C126.678 216.858 126.472 217.358 126.104 217.726C125.737 218.094 125.238 218.301 124.718 218.301C124.198 218.301 123.699 218.094 123.332 217.726C122.964 217.358 122.758 216.858 122.758 216.338C122.758 215.817 122.964 215.317 123.332 214.949C123.699 214.581 124.198 214.374 124.718 214.374C125.238 214.374 125.737 214.581 126.104 214.949C126.472 215.317 126.678 215.817 126.678 216.338Z" fill="#FF6635"/>
<path d="M49.5896 300.365C49.5896 300.623 49.5389 300.878 49.4404 301.116C49.3418 301.355 49.1974 301.571 49.0154 301.754C48.8333 301.936 48.6172 302.081 48.3794 302.179C48.1415 302.278 47.8866 302.329 47.6291 302.329C47.3717 302.329 47.1168 302.278 46.8789 302.179C46.6411 302.081 46.4249 301.936 46.2429 301.754C46.0609 301.571 45.9165 301.355 45.8179 301.116C45.7194 300.878 45.6687 300.623 45.6687 300.365C45.6687 299.844 45.8752 299.345 46.2429 298.977C46.6106 298.608 47.1092 298.401 47.6291 298.401C48.1491 298.401 48.6477 298.608 49.0154 298.977C49.383 299.345 49.5896 299.844 49.5896 300.365Z" fill="#FF6635"/>
<path d="M79.9767 298.402C79.9767 298.923 79.77 299.423 79.402 299.791C79.0341 300.16 78.5351 300.367 78.0147 300.367C77.4944 300.367 76.9953 300.16 76.6274 299.791C76.2594 299.423 76.0527 298.923 76.0527 298.402C76.0527 297.88 76.2594 297.381 76.6274 297.012C76.9953 296.643 77.4944 296.436 78.0147 296.436C78.5351 296.436 79.0341 296.643 79.402 297.012C79.77 297.381 79.9767 297.88 79.9767 298.402Z" fill="#FF6635"/>
<path d="M417.098 239.725C415.08 239.841 411.505 240.014 410.698 240.072C412.197 235.281 414.855 235.22 417.098 239.725Z" fill="#FF6635"/>
<path d="M418.943 267.447C417.501 271.374 415.137 271.548 413.119 267.909C414.791 267.806 416.809 267.62 418.943 267.447Z" fill="#FF6635"/>
<path d="M206.823 201.844C206.833 202.109 206.79 202.372 206.696 202.62C206.602 202.868 206.46 203.093 206.276 203.284C206.093 203.475 205.873 203.627 205.63 203.731C205.387 203.835 205.125 203.888 204.861 203.888C204.597 203.888 204.335 203.835 204.092 203.731C203.849 203.627 203.629 203.475 203.446 203.284C203.262 203.093 203.119 202.868 203.026 202.62C202.932 202.372 202.889 202.109 202.899 201.844C202.919 201.336 203.134 200.856 203.5 200.504C203.866 200.151 204.354 199.955 204.861 199.955C205.368 199.955 205.856 200.151 206.222 200.504C206.588 200.856 206.803 201.336 206.823 201.844Z" fill="#FF6635"/>
<path d="M403.605 247.291C403.605 247.812 403.399 248.311 403.032 248.679C402.664 249.047 402.166 249.253 401.646 249.253C401.127 249.253 400.629 249.047 400.261 248.679C399.894 248.311 399.688 247.812 399.688 247.291C399.688 246.771 399.894 246.272 400.261 245.904C400.629 245.536 401.127 245.329 401.646 245.329C402.166 245.329 402.664 245.536 403.032 245.904C403.399 246.272 403.605 246.771 403.605 247.291Z" fill="#FF6635"/>
<path d="M357.538 376.771C357.52 373.452 357.328 370.136 356.961 366.837L373.625 351.359L357.538 376.771Z" fill="#FF6635"/>
<path d="M195.406 455.315C172.882 458.132 150.013 455.701 128.581 448.211" stroke="#120071" stroke-width="0.769171" stroke-linecap="round" stroke-linejoin="round"/>
<path d="M310.894 367.814C296.997 400.412 271.755 426.846 239.859 442.199" stroke="#120071" stroke-width="0.769171" stroke-linecap="round" stroke-linejoin="round"/>
<path d="M320.119 284.541C321.397 291.441 322.146 298.432 322.368 305.448" stroke="#120071" stroke-width="0.769171" stroke-linecap="round" stroke-linejoin="round"/>
<path d="M199.731 166.727C233.384 172.025 264.102 189.015 286.504 214.721" stroke="#120071" stroke-width="0.769171" stroke-linecap="round" stroke-linejoin="round"/>
<path d="M164.731 165.456C171.293 164.928 177.882 164.831 184.457 165.167C185.61 165.228 186.821 165.283 187.974 165.398" stroke="#120071" stroke-width="0.769171" stroke-linecap="round" stroke-linejoin="round"/>
<path d="M61.8708 221.418C83.3406 193.654 114.091 174.583 148.474 167.709" stroke="#120071" stroke-width="0.769171" stroke-linecap="round" stroke-linejoin="round"/>
<path d="M31.6025 317.864C31.367 312.977 31.3862 308.08 31.6602 303.195C31.9364 297.991 32.4765 292.808 33.2747 287.659" stroke="#120071" stroke-width="0.769171" stroke-linecap="round" stroke-linejoin="round"/>
<path d="M98.5404 433.542C81.8487 422.822 67.509 408.813 56.3938 392.366" stroke="#120071" stroke-width="0.769171" stroke-linecap="round" stroke-linejoin="round"/>
<path d="M293.076 229.966C294.753 229.915 296.418 229.663 298.035 229.215L292.039 234.932" stroke="#120071" stroke-width="0.769171" stroke-linecap="round" stroke-linejoin="round"/>
<path d="M443.333 245.617L454.693 240.419C461.897 237.127 461.976 233.616 453.366 236.376C452.844 236.543 440.047 240.355 438.029 240.65C436.472 240.878 433.78 241.109 433.477 240.072C432.32 236.121 437.118 225.445 433.765 224.363C431.577 223.661 427.838 230.549 425.462 235.51C423.799 238.981 420.91 239.553 417.101 239.726" stroke="#120071" stroke-width="0.769171" stroke-linecap="round" stroke-linejoin="round"/>
<path d="M441.257 245.847C441.257 245.847 458.555 243.719 459.709 243.537C468.698 242.227 468.069 245.625 460.401 247.753C453.078 249.784 444.256 252.313 444.256 252.313" stroke="#120071" stroke-width="0.769171" stroke-linecap="round" stroke-linejoin="round"/>
<path d="M441.257 252.259C446.932 252.429 452.61 252.274 458.267 251.796C467.317 251.088 466.336 254.107 458.671 256.013C453.941 257.307 449.123 258.253 444.256 258.843" stroke="#120071" stroke-width="0.769171" stroke-linecap="round" stroke-linejoin="round"/>
<path d="M418.943 267.448C418.943 267.448 431.456 266.628 433.877 266.409C438.545 265.983 443.34 265.239 448.004 264.618C449.914 264.36 451.817 264.056 453.713 263.706C461.791 262.187 462.993 259.183 453.828 259.433C448.908 259.55 443.993 259.085 439.182 258.047" stroke="#120071" stroke-width="0.769171" stroke-linecap="round" stroke-linejoin="round"/>
<path d="M440.911 243.076C441.788 250.27 440.224 257.55 436.472 263.746" stroke="#120071" stroke-width="0.769171" stroke-linecap="round" stroke-linejoin="round"/>
<path d="M434.107 242.96C432.755 246.545 430.673 249.809 427.993 252.543C425.312 255.278 422.093 257.423 418.539 258.843" stroke="#120071" stroke-width="0.769171" stroke-linecap="round" stroke-linejoin="round"/>
<path d="M323.384 275.5C322.981 276.655 322.577 277.868 322.116 279.148C319.117 277.126 316.574 275.819 315.715 275.105C318.31 275.211 320.847 275.385 323.384 275.5Z" stroke="#120071" stroke-width="0.769171" stroke-linecap="round" stroke-linejoin="round"/>
<path d="M265.057 268.892L271.342 259.824C269.708 263.397 268.86 267.279 268.853 271.208" stroke="#120071" stroke-width="0.769171" stroke-linecap="round" stroke-linejoin="round"/>
<path d="M285.878 240.707C287.963 240.707 290.658 238.914 292.048 234.932C292.607 233.328 292.955 231.658 293.086 229.965C287.666 230.023 280.704 227.229 288.588 209.465C290.285 205.647 293.578 199.808 297.668 200.701C301.647 201.574 304.378 208.629 304.041 213.164C303.905 215.113 305.255 214.636 306.855 213.496C311.322 210.298 314.466 217.94 306.105 221.521C305.55 222.131 305.134 222.858 304.891 223.648C302.733 232.767 302.658 240.279 311.81 242.361" stroke="#120071" stroke-width="0.769171" stroke-linecap="round" stroke-linejoin="round"/>
<path d="M293.768 201.845C305.415 190.467 340.012 170.484 335.283 193.817C335.283 193.817 360.879 171.757 370.338 179.609C379.746 187.409 343.526 229.217 304.724 237.187" stroke="#120071" stroke-width="0.769171" stroke-linecap="round" stroke-linejoin="round"/>
<path d="M416.117 270.566C409.292 270.566 406.616 236.913 413.523 236.375C376.499 240.327 338.103 246.513 311.816 242.324C302.669 253.622 295.207 266.189 289.662 279.633C286.142 266.979 284.861 253.804 285.878 240.707C280.922 240.302 226.837 204.382 204.064 191.041C199.126 194.385 194.919 198.699 191.697 203.723C188.476 208.746 186.308 214.373 185.325 220.262L268.862 271.207C268.841 272.141 268.862 273.119 268.914 274.165C269.342 281.91 272.301 292.941 280.631 310.702C290.934 313.782 306.903 308.113 316.496 302.559C315.889 294.118 320.799 283.47 323.394 275.505C354.412 276.925 384.034 274.463 416.117 270.566Z" stroke="#120071" stroke-width="0.769171" stroke-linecap="round" stroke-linejoin="round"/>
<path d="M280.679 310.703L230.864 364.123C221.866 373.749 215.303 385.394 211.724 398.083L193.1 463.282C198.24 467.829 204.403 471.062 211.062 472.703C217.721 474.344 224.678 474.345 231.337 472.705L250.456 403.333C307.033 353.73 297.34 362.208 303.616 356.785L334.464 403.852C336.278 406.611 338.666 408.943 341.465 410.689C344.264 412.435 347.407 413.553 350.679 413.966C353.95 414.379 357.273 414.077 360.416 413.079C363.559 412.08 366.449 410.41 368.884 408.184L427.176 354.879C425.644 348.26 422.576 342.095 418.222 336.885C413.867 331.674 408.348 327.565 402.112 324.89L356.949 366.838C356.949 366.838 349.165 315.381 316.417 302.56" stroke="#120071" stroke-width="0.769171" stroke-linecap="round" stroke-linejoin="round"/>
<path d="M299.016 360.774L294.979 343.621L303.629 356.789" stroke="#120071" stroke-width="0.769171" stroke-linecap="round" stroke-linejoin="round"/>
<path d="M196.732 466.055C194.459 478.304 190.982 490.299 186.353 501.863C181.962 511.791 178.521 520.682 179.78 522.193C184.193 527.479 199.203 504.644 210.34 498.802C212.993 497.483 215.364 495.659 217.32 493.431C221.232 488.804 219.047 483.439 223.602 473.794" stroke="#120071" stroke-width="0.769171" stroke-linecap="round" stroke-linejoin="round"/>
<path d="M424.825 347.779C434.372 339.638 444.383 332.061 454.808 325.084C463.858 319.074 471.526 313.417 471.296 311.512C470.479 304.696 445.47 315.74 433.012 314.688C430.051 314.378 427.057 314.633 424.19 315.439C418.424 317.184 417.675 322.658 408.622 328.376" stroke="#120071" stroke-width="0.769171" stroke-linecap="round" stroke-linejoin="round"/>
<path d="M184.105 184.457C184.105 171.69 194.016 147.889 197.886 145.937C198.04 145.867 198.215 145.861 198.374 145.919C198.532 145.977 198.662 146.095 198.735 146.247C198.784 146.348 198.805 146.46 198.796 146.573C197.47 160.209 188.639 183.499 200.948 193.308" stroke="#120071" stroke-width="0.769171" stroke-linecap="round" stroke-linejoin="round"/>
<path d="M186.815 214.432C182.375 211.428 176.111 206.224 176.321 201.148C176.9 187.117 176.812 180.53 176.839 174.985C176.861 170.885 180.081 170.766 182.26 177.873C184.171 184.107 186.18 192.889 186.18 192.889" stroke="#120071" stroke-width="0.769171" stroke-linecap="round" stroke-linejoin="round"/>
<path d="M196.098 162.741C197.312 160.72 198.626 158.638 199.154 157.777C203.008 151.497 204.556 153.035 204.228 154.197C202.945 158.738 199.846 165.571 198.808 169.787C197.26 175.991 194.626 184.652 199.537 192.02" stroke="#120071" stroke-width="0.769171" stroke-linecap="round" stroke-linejoin="round"/>
<path d="M137.23 368.118C137.23 368.118 125.755 370.602 110.245 372.508" stroke="#120071" stroke-width="0.769171" stroke-linecap="round" stroke-linejoin="round"/>
<path d="M31.4294 318.154C32.9274 315.653 34.9057 313.474 37.25 311.744V311.975C55.8166 314.631 69.7704 314.516 84.1855 310.759C83.9803 314.653 83.3223 318.51 82.225 322.252C99.8042 321.849 117.393 322.33 134.923 323.696C139.046 324.014 143.05 325.23 146.655 327.259C150.26 329.289 153.379 332.082 155.793 335.444C158.209 338.806 159.863 342.656 160.639 346.724C161.416 350.792 161.297 354.982 160.291 358.999C153.613 387.29 145.375 415.189 135.615 442.567C122.561 444.735 109.173 441.822 98.1939 434.424C101.063 413.584 105.067 392.916 110.187 372.514C92.7769 374.642 66.8935 376.596 49.1887 371.705C38.6976 368.808 30.1457 362.759 26.4281 352.473C22.1825 340.8 26.0063 326.641 31.4294 318.154Z" stroke="#120071" stroke-width="0.769171" stroke-linecap="round" stroke-linejoin="round"/>
<path d="M82.2827 322.312C79.3997 322.37 76.5744 322.485 73.749 322.601" stroke="#120071" stroke-width="0.769171" stroke-linecap="round" stroke-linejoin="round"/>
<path d="M65.8588 374.344L43.5837 416.794C40.5143 422.641 35.6621 427.356 29.7329 430.251C23.8037 433.145 17.1071 434.07 10.6172 432.889C6.31139 432.107 2.21974 430.421 -1.38822 427.94L-55.1731 391.038C-50.4389 375.253 -43.9718 364.966 -31.0833 356.935L11.4791 384.229L26.4708 352.464" stroke="#120071" stroke-width="0.769171" stroke-linecap="round" stroke-linejoin="round"/>
<path d="M38.8066 367.241L60.7752 384.048" stroke="#120071" stroke-width="0.769171" stroke-linecap="round" stroke-linejoin="round"/>
<path d="M57.7771 239.957L50.8579 235.221C52.8506 235.444 54.8584 235.502 56.8607 235.394" stroke="#120071" stroke-width="0.769171" stroke-linecap="round" stroke-linejoin="round"/>
<path d="M70.6927 241.401C69.6548 242.036 68.617 242.617 67.5791 243.249C66.4518 244.136 65.0573 244.613 63.6238 244.603C62.1903 244.592 60.8029 244.095 59.6887 243.191C57.9213 240.972 56.9307 238.232 56.8694 235.394C66.1436 234.85 66.7111 228.604 56.2291 210.101C56.119 210.639 55.8686 211.138 55.5033 211.548C55.1381 211.958 54.671 212.263 54.1496 212.433C53.6282 212.603 53.071 212.632 52.5349 212.517C51.9988 212.401 51.5028 212.145 51.0973 211.776C50.8901 212.208 50.5878 212.588 50.2133 212.886C49.8387 213.185 49.4016 213.395 48.9345 213.501C48.4675 213.606 47.9826 213.605 47.5163 213.496C47.05 213.387 46.6143 213.174 46.2417 212.873C46.0983 213.375 45.8309 213.833 45.4643 214.205C45.0977 214.576 44.6436 214.849 44.1438 214.999C43.6441 215.149 43.1149 215.17 42.6048 215.061C42.0948 214.952 41.6204 214.716 41.2253 214.375C43.1857 217.779 43.993 221.591 41.3406 218.992C38.3423 216.049 35.1133 220.378 39.8445 223.904C40.73 224.699 41.381 225.723 41.7266 226.862C42.0722 228.002 42.0993 229.215 41.8049 230.37C44.5405 234.366 45.6338 239.265 44.8579 244.048C44.3389 246.48 40.8793 248.38 36.6641 247.283C41.6926 256.332 52.0411 264.67 62.1044 261.107C73.1782 257.201 70.6927 241.401 70.6927 241.401Z" stroke="#120071" stroke-width="0.769171" stroke-linecap="round" stroke-linejoin="round"/>
<path d="M142.335 193.941C156.577 183.153 157.138 160.343 157.138 143.986C157.138 143.466 157.885 142.77 158.288 143.074C161.891 145.421 166.683 169.742 165.529 182.539" stroke="#120071" stroke-width="0.769171" stroke-linecap="round" stroke-linejoin="round"/>
<path d="M158.677 213.334C162.762 211.686 166.147 208.664 168.248 204.787C172.639 194.999 174.176 184.167 172.682 173.541C171.899 168.927 169.508 169.325 167.435 176.313C165.587 182.551 162.707 190.925 162.707 190.925" stroke="#120071" stroke-width="0.769171" stroke-linecap="round" stroke-linejoin="round"/>
<path d="M142.095 193.789C146.064 188.925 149.8 180.292 149.627 175.736C149.161 170.627 148.274 165.566 146.975 160.604C146.714 159.388 148.228 157.771 152.625 166.076" stroke="#120071" stroke-width="0.769171" stroke-linecap="round" stroke-linejoin="round"/>
<path d="M88.3944 267.852C88.1788 265.292 87.813 262.746 87.2988 260.229L91.8449 265.983" stroke="#120071" stroke-width="0.769171" stroke-linecap="round" stroke-linejoin="round"/>
<path d="M84.2435 310.761H84.3011C86.7805 296.092 89.4906 281.249 88.395 267.853C111.42 255.754 140.684 232.303 158.801 216.338C160.856 214.28 153.66 205.167 151.682 202.83C149.651 200.431 141.713 191.601 138.911 193.005C117.747 211.23 94.9273 227.432 70.751 241.401" stroke="#120071" stroke-width="0.769171" stroke-linecap="round" stroke-linejoin="round"/>
<path d="M129.792 443.303C128.306 449.198 127.17 455.177 126.39 461.207C117.367 455.288 109.477 447.796 103.095 439.087C103.326 438.582 103.52 438.062 103.672 437.527" stroke="#120071" stroke-width="0.769171" stroke-linecap="round" stroke-linejoin="round"/>
<path d="M103.038 461.133C101.179 457.653 99.7845 453.944 98.8892 450.101C97.9082 452.424 97.3926 454.917 97.3718 457.439C98.0969 461.035 99.3605 464.5 101.12 467.717C107.059 478.806 112.998 502.023 117.265 501.734C117.899 501.676 118.591 500.464 119.283 498.442C114.743 493.141 108.919 471.945 103.038 461.133Z" stroke="#120071" stroke-width="0.769171" stroke-linecap="round" stroke-linejoin="round"/>
<path d="M103.038 439.144C101.715 442.956 100.039 446.767 98.8892 450.114C99.7845 453.957 101.179 457.666 103.038 461.145C108.861 471.945 114.685 493.141 119.298 498.455C121.835 490.889 124.545 471.891 126.332 461.203C117.333 455.28 109.447 447.812 103.038 439.144Z" stroke="#120071" stroke-width="0.769171" stroke-linecap="round" stroke-linejoin="round"/>
<path d="M56.2202 210.159C56.1049 212.411 53.2219 213.335 51.0884 211.834C50.87 212.255 50.5624 212.623 50.187 212.913C49.8116 213.203 49.3776 213.408 48.9152 213.512C48.4528 213.617 47.9732 213.619 47.5099 213.518C47.0466 213.418 46.6108 213.217 46.2328 212.931C46.0883 213.432 45.8203 213.889 45.4535 214.26C45.0866 214.631 44.6326 214.903 44.1333 215.053C43.6339 215.202 43.1051 215.223 42.5954 215.114C42.0858 215.005 41.6116 214.77 41.2164 214.429C43.1192 217.837 43.9841 221.652 41.3317 219.05C38.3334 216.107 35.1166 220.366 39.8326 223.959C40.7192 224.754 41.3708 225.778 41.7165 226.918C42.0622 228.059 42.0887 229.273 41.793 230.428C37.0102 222.403 28.4765 216.05 26.5161 214.086C21.9639 209.526 25.1899 206.636 29.0531 208.31C28.1427 205.827 31.0712 203.751 33.7782 205.827C33.0286 203.395 36.6643 201.38 39.7749 203.921C39.2559 201.264 43.7534 200.167 46.3482 202.477C45.9445 200.109 50.1052 199.93 51.9989 203.055C53.5162 205.532 56.2202 210.159 56.2202 210.159Z" stroke="#120071" stroke-width="0.769171" stroke-linecap="round" stroke-linejoin="round"/>
<path d="M32.8135 285.638L37.0288 280.209C34.956 279.808 32.9956 279.4 31.0352 279.057" stroke="#120071" stroke-width="0.769171" stroke-linecap="round" stroke-linejoin="round"/>
<path d="M36.6766 247.291C35.927 247.003 -0.347382 237.531 -51.3099 242.428C-54.0737 252.765 -53.7572 263.687 -50.3995 273.847C-23.1492 271.627 4.2785 273.381 31.0259 279.054C34.2743 289.692 36.3612 300.651 37.2501 311.74" stroke="#120071" stroke-width="0.769171" stroke-linecap="round" stroke-linejoin="round"/>
<path d="M0.984919 181.108C1.11997 182.672 0.788852 184.242 0.0334111 185.618C-0.72203 186.995 -1.86787 188.116 -3.25928 188.84C-4.65069 189.564 -6.22522 189.859 -7.78381 189.687C-9.3424 189.515 -10.8151 188.884 -12.0157 187.874C-13.2164 186.863 -14.0911 185.519 -14.5293 184.011C-14.9675 182.503 -14.9495 180.899 -14.4776 179.401C-14.0057 177.903 -13.101 176.579 -11.878 175.597C-10.655 174.614 -9.16852 174.016 -7.60646 173.879C-5.51154 173.703 -3.43208 174.364 -1.82232 175.718C-0.212564 177.073 0.796663 179.01 0.984919 181.108Z" stroke="#120071" stroke-width="0.769171" stroke-linecap="round" stroke-linejoin="round"/>
<path d="M317.064 456.471H292.097" stroke="#120071" stroke-width="0.769171" stroke-linecap="round" stroke-linejoin="round"/>
<path d="M304.581 469V443.937" stroke="#120071" stroke-width="0.769171" stroke-linecap="round" stroke-linejoin="round"/>
<path d="M128.071 202.131C136.738 207.936 143.793 215.847 148.577 225.126" stroke="#120071" stroke-width="0.769171" stroke-linecap="round" stroke-linejoin="round"/>
<path d="M417.098 239.726C415.079 239.841 411.505 240.014 410.697 240.072C412.196 235.282 414.855 235.221 417.098 239.726Z" stroke="#120071" stroke-width="0.769171" stroke-linecap="round" stroke-linejoin="round"/>
<path d="M418.943 267.448C417.501 271.375 415.137 271.548 413.119 267.91C414.791 267.806 416.809 267.621 418.943 267.448Z" stroke="#120071" stroke-width="0.769171" stroke-linecap="round" stroke-linejoin="round"/>
<path d="M308.011 306.715C331.363 323.129 337.751 343.392 347.563 379.364C347.907 380.619 348.566 381.765 349.477 382.694C350.388 383.622 351.52 384.302 352.767 384.668C354.015 385.032 355.334 385.071 356.601 384.781C357.867 384.491 359.039 383.882 360.005 383.012L414.855 333.227" stroke="#120071" stroke-width="0.769171" stroke-linecap="round" stroke-linejoin="round"/>
<path d="M217.317 473.736L237.207 397.39L295.671 346.508" stroke="#120071" stroke-width="0.769171" stroke-linecap="round" stroke-linejoin="round"/>
<path d="M68.2136 319.944C66.006 323.685 63.0287 326.913 59.4795 329.412C55.9303 331.912 51.8906 333.626 47.6289 334.441" stroke="#120071" stroke-width="0.769171" stroke-linecap="round" stroke-linejoin="round"/>
<path d="M101.365 414.713C107.201 418.93 113.85 421.884 120.889 423.387C127.927 424.889 135.201 424.907 142.246 423.44" stroke="#120071" stroke-width="0.769171" stroke-linecap="round" stroke-linejoin="round"/>
<path d="M373.625 351.359L357.541 376.771C357.523 373.452 357.331 370.136 356.964 366.838" stroke="#120071" stroke-width="0.769171" stroke-linecap="round" stroke-linejoin="round"/>
<path d="M142.353 193.942C150.614 187.704 152.626 178.439 152.914 170.01C152.323 164.115 151.321 158.268 149.916 152.513C149.734 151.358 151.357 149.972 154.644 156.614L156.547 160.76" stroke="#120071" stroke-width="0.769171" stroke-linecap="round" stroke-linejoin="round"/>
<path d="M176.955 88.0103C172.333 88.0103 167.815 89.383 163.972 91.9549C160.13 94.5268 157.135 98.1823 155.366 102.459C153.597 106.736 153.135 111.442 154.036 115.982C154.938 120.523 157.163 124.693 160.431 127.967C163.699 131.24 167.863 133.469 172.396 134.372C176.929 135.275 181.627 134.812 185.897 133.04C190.167 131.269 193.817 128.269 196.384 124.42C198.952 120.571 200.322 116.045 200.322 111.416C200.33 106.785 198.964 102.255 196.397 98.4026C193.83 94.5502 190.178 91.5488 185.904 89.7794C183.066 88.6056 180.025 88.0044 176.955 88.0103Z" stroke="#120071" stroke-width="0.769171" stroke-linejoin="round"/>
<path d="M174.679 98.7033C174.679 99.3079 174.919 99.8878 175.346 100.315C175.772 100.743 176.351 100.983 176.955 100.983C177.559 100.983 178.138 100.743 178.564 100.315C178.991 99.8878 179.231 99.3079 179.231 98.7033C179.231 98.0986 178.991 97.5187 178.564 97.0912C178.138 96.6637 177.559 96.4235 176.955 96.4235C176.351 96.4235 175.772 96.6637 175.346 97.0912C174.919 97.5187 174.679 98.0986 174.679 98.7033Z" stroke="#120071" stroke-width="0.769171" stroke-linejoin="round"/>
<path d="M176.93 107.158V125.968" stroke="#120071" stroke-width="0.769171" stroke-linecap="round" stroke-linejoin="round"/>
</svg>
