<svg width="156" height="141" viewBox="0 0 156 141" fill="none" xmlns="http://www.w3.org/2000/svg">
<path d="M140.674 72.6234C138.818 72.6234 138.12 63.5906 139.976 63.4462C129.941 64.5142 119.637 66.1558 112.632 65.0429C110.173 68.0754 108.167 71.4487 106.676 75.0572C105.73 71.6605 105.385 68.1243 105.659 64.6088C104.326 64.5003 89.7852 54.8588 83.6627 51.2778C82.3351 52.1754 81.2039 53.3335 80.3378 54.6818C79.4717 56.0302 78.8888 57.5405 78.6245 59.1211L100.083 72.1755L101.772 69.7416C101.377 70.7135 101.156 71.7472 101.12 72.7956C101.058 74.9039 101.74 77.988 104.281 83.4023C106.762 84.1464 110.809 82.9992 113.893 81.2165C113.753 79.2787 114.699 76.9069 115.412 74.9234C114.864 74.5223 114.289 74.1597 113.691 73.8383C122.785 74.4372 131.342 73.7591 140.674 72.6234Z" fill="#FFD647"/>
<path d="M65.0743 86.8693C60.3612 86.5004 55.6324 86.371 50.9062 86.4818C51.2015 85.4774 51.3778 84.442 51.4333 83.3969C47.5577 84.4045 43.8062 84.4355 38.8154 83.7232V83.6612C36.4966 85.1951 34.4723 90.6339 35.9263 94.6318L31.9014 103.132L20.4307 95.8132C16.9737 97.968 15.2375 100.727 13.9663 104.959L28.429 114.864C29.399 115.531 30.4992 115.983 31.6571 116.193C32.8149 116.403 34.0041 116.366 35.1463 116.083C36.2884 115.8 37.3578 115.279 38.284 114.553C39.2102 113.828 39.9722 112.914 40.5198 111.873L45.1394 103.084L39.309 98.6305C40.164 99.1297 41.0822 99.5117 42.039 99.7663C46.7981 101.084 53.7578 100.557 58.4386 99.9833C57.0619 105.46 55.9858 111.007 55.215 116.601C58.1665 118.586 61.7656 119.368 65.275 118.787C67.8969 111.438 70.1121 103.952 71.9107 96.3599C72.1792 95.2796 72.2092 94.1539 71.9986 93.0609C71.7881 91.9679 71.342 90.9338 70.6914 90.0307C70.0408 89.1275 69.2013 88.3768 68.2313 87.8309C67.2612 87.285 66.1839 86.9568 65.0743 86.8693Z" fill="#FFD647"/>
<path d="M132.955 38.7835C132.779 38.6058 132.555 38.4847 132.31 38.4357C132.065 38.3867 131.811 38.4121 131.581 38.5085C131.427 38.5722 131.289 38.6657 131.172 38.7835L130.845 39.1098L130.519 38.7835C130.28 38.558 129.963 38.4345 129.635 38.4392C129.307 38.4439 128.993 38.5765 128.761 38.8088C128.529 39.041 128.396 39.3546 128.392 39.6829C128.387 40.0113 128.511 40.3284 128.736 40.567L130.858 42.6753L132.951 40.567C133.128 40.3916 133.249 40.1672 133.299 39.9225C133.349 39.6777 133.324 39.4238 133.229 39.1931C133.165 39.0398 133.072 38.9006 132.955 38.7835Z" fill="#FFD647"/>
<path d="M49.4937 25.8713C49.3182 25.6936 49.0936 25.5725 48.8487 25.5235C48.6039 25.4745 48.35 25.4998 48.1197 25.5963C47.9666 25.66 47.8276 25.7534 47.7109 25.8713L47.3846 26.1976L47.0582 25.8713C46.8195 25.6458 46.5023 25.5223 46.1739 25.527C45.8456 25.5317 45.532 25.6643 45.2999 25.8965C45.0678 26.1288 44.9354 26.4424 44.9308 26.7707C44.9262 27.099 45.0499 27.4162 45.2754 27.6548L47.3968 29.7631L49.4896 27.6548C49.6672 27.4794 49.7886 27.255 49.8381 27.0102C49.8877 26.7655 49.8632 26.5116 49.7678 26.2808C49.7043 26.1276 49.6111 25.9884 49.4937 25.8713Z" fill="#FFD647"/>
<path d="M85.7891 82.7747C85.6136 82.597 85.389 82.4759 85.1442 82.4269C84.8993 82.3779 84.6454 82.4033 84.4151 82.4997C84.262 82.5634 84.123 82.6569 84.0063 82.7747L83.68 83.1011L83.3536 82.7747C83.1149 82.5492 82.7977 82.4257 82.4693 82.4304C82.141 82.4352 81.8275 82.5677 81.5953 82.8C81.3632 83.0322 81.2308 83.3458 81.2262 83.6741C81.2216 84.0025 81.3453 84.3196 81.5709 84.5583L83.6922 86.6665L85.785 84.5583C85.9626 84.3828 86.084 84.1584 86.1335 83.9137C86.1831 83.669 86.1586 83.415 86.0632 83.1843C85.9997 83.031 85.9066 82.8918 85.7891 82.7747Z" fill="#FFD647"/>
<path d="M146.818 14.5979C146.643 14.4203 146.418 14.2992 146.173 14.2502C145.929 14.2012 145.675 14.2265 145.444 14.323C145.291 14.3866 145.152 14.4801 145.036 14.5979L144.709 14.9243L144.383 14.5979C144.144 14.3725 143.827 14.249 143.499 14.2537C143.17 14.2584 142.857 14.391 142.625 14.6232C142.392 14.8554 142.26 15.1691 142.255 15.4974C142.251 15.8257 142.375 16.1429 142.6 16.3815L144.721 18.4898L146.814 16.3815C146.992 16.206 147.113 15.9816 147.163 15.7369C147.212 15.4922 147.188 15.2383 147.092 15.0075C147.029 14.8543 146.936 14.7151 146.818 14.5979Z" fill="#FFD647"/>
<path d="M44.1939 129.467L42.0391 129.141L41.078 127.203L40.1169 129.141L37.9629 129.467L39.5286 130.97L39.1566 133.11L41.078 132.102L43.0003 133.11L42.6282 130.97L44.1939 129.467Z" fill="#FFD647"/>
<path d="M146.336 122.244L144.181 121.918L143.22 119.98L142.258 121.918L140.104 122.244L141.67 123.747L141.298 125.887L143.22 124.879L145.142 125.887L144.77 123.747L146.336 122.244Z" fill="#FFD647"/>
<path d="M118.913 2.2633L116.758 1.93775L115.797 0L114.836 1.93775L112.682 2.2633L114.247 3.767L113.875 5.9063L115.797 4.89865L117.719 5.9063L117.347 3.767L118.913 2.2633Z" fill="#FFD647"/>
<path d="M108.943 61.5206L107.311 63.0708C107.462 62.6409 107.556 62.1921 107.59 61.7377C108.048 61.7157 108.501 61.6429 108.943 61.5206Z" fill="#FF6635"/>
<path d="M115.733 73.941C115.624 74.2511 115.516 74.5766 115.392 74.9201C114.844 74.5189 114.269 74.1563 113.671 73.835C114.368 73.8635 115.051 73.91 115.733 73.941Z" fill="#FF6635"/>
<path d="M128.351 48.2081C125.812 46.0998 118.926 52.0216 118.926 52.0216C120.197 45.7587 110.896 51.1241 107.765 54.1764C109.377 52.8897 110.664 55.6793 110.524 57.2605C110.524 57.6334 110.726 57.7109 111.299 57.3078C112.493 56.4397 113.345 58.5015 111.098 59.4618C110.947 59.625 110.836 59.8208 110.771 60.0329C110.359 61.2029 110.332 62.4739 110.694 63.6604C121.127 61.5244 130.877 50.3009 128.351 48.2081Z" fill="#FF6635"/>
<path d="M110.431 95.7665L109.191 96.8362L108.106 92.2321L110.431 95.7665Z" fill="#FF6635"/>
<path d="M76.3747 23.6229C75.1322 23.6229 73.9175 23.9914 72.8844 24.6817C71.8512 25.372 71.046 26.3532 70.5705 27.5012C70.095 28.6491 69.9706 29.9123 70.213 31.131C70.4554 32.3497 71.0538 33.4691 71.9324 34.3477C72.811 35.2263 73.9304 35.8247 75.1491 36.0671C76.3677 36.3095 77.6309 36.1851 78.7789 35.7096C79.9269 35.2341 80.908 34.4288 81.5984 33.3957C82.2887 32.3626 82.6571 31.1479 82.6571 29.9054C82.6593 28.6622 82.2919 27.4464 81.6017 26.4124C80.9116 25.3783 79.9297 24.5727 78.7808 24.0978C78.0178 23.7827 77.2002 23.6214 76.3747 23.6229ZM76.5297 33.7303C76.5297 33.7714 76.5134 33.8108 76.4843 33.8399C76.4553 33.869 76.4158 33.8853 76.3747 33.8853C76.354 33.8865 76.3334 33.8833 76.314 33.8759C76.2947 33.8686 76.2771 33.8572 76.2625 33.8426C76.2478 33.8279 76.2365 33.8103 76.2291 33.791C76.2217 33.7717 76.2185 33.751 76.2197 33.7303V28.8626C76.2199 28.8216 76.2363 28.7823 76.2653 28.7533C76.2944 28.7242 76.3337 28.7078 76.3747 28.7076C76.3954 28.7064 76.4161 28.7096 76.4354 28.717C76.4548 28.7244 76.4723 28.7358 76.487 28.7504C76.5016 28.765 76.513 28.7826 76.5203 28.8019C76.5277 28.8213 76.5309 28.842 76.5297 28.8626V33.7303ZM75.9407 26.5071C75.9455 26.3933 75.9942 26.2857 76.0766 26.2068C76.1589 26.1279 76.2685 26.0839 76.3825 26.0839C76.4965 26.0839 76.6061 26.1279 76.6884 26.2068C76.7707 26.2857 76.8194 26.3933 76.8243 26.5071C76.8194 26.621 76.7707 26.7286 76.6884 26.8075C76.6061 26.8863 76.4965 26.9304 76.3825 26.9304C76.2685 26.9304 76.1589 26.8863 76.0766 26.8075C75.9942 26.7286 75.9455 26.621 75.9407 26.5071Z" fill="#FF6635"/>
<path d="M39.2178 98.572L45.1396 103.083L46.5193 100.479C43.9712 100.413 41.4725 99.7609 39.2178 98.572Z" fill="#FF6635"/>
<path d="M44.3334 64.4072L42.4731 63.1523C43.0076 63.2168 43.5469 63.2372 44.0854 63.2143C44.1278 63.619 44.211 64.0188 44.3334 64.4072Z" fill="#FF6635"/>
<path d="M101.75 69.74C101.355 70.7118 101.135 71.7455 101.098 72.7939L100.059 72.1583L101.75 69.74Z" fill="#FF6635"/>
<path d="M52.2705 69.8485C52.4092 70.5241 52.5071 71.2078 52.5651 71.8948C52.8596 71.7553 53.1851 71.5847 53.5107 71.4142L52.2705 69.8485Z" fill="#FF6635"/>
<path d="M56.5016 117.872C56.1458 118.895 55.6955 119.918 55.3862 120.816C55.6269 121.848 56.0019 122.843 56.5016 123.777C58.0673 126.676 59.633 132.365 60.8732 133.791C61.5553 131.761 62.2839 126.661 62.7644 123.793C60.3448 122.203 58.2247 120.198 56.5016 117.872Z" fill="#FF6635"/>
<path d="M15.2376 94.5881C14.1801 94.5418 13.1212 94.6409 12.0906 94.8826C8.86621 95.6267 2.96073 95.6267 1.271 96.4483C3.03824 97.6575 7.76556 99.7193 10.4009 100.928C12.5794 99.0068 15.0836 97.4897 17.7954 96.4483C16.8808 95.8283 16.0127 95.1307 15.2376 94.5881Z" fill="#FF6635"/>
<path d="M42.7834 54.5038C42.2718 53.6667 41.1516 53.7132 41.2641 54.3488C40.5674 53.7287 39.3582 54.0224 39.4969 54.7363C38.6606 54.0543 37.684 54.5968 37.8847 55.2479C37.1569 54.6898 36.3663 55.2479 36.6143 55.9145C35.5757 55.4649 34.7076 56.2409 35.9322 57.4647C36.4593 57.9918 38.7528 59.6962 40.0395 61.851C40.1185 61.5411 40.1112 61.2154 40.0183 60.9093C39.9253 60.6033 39.7504 60.3285 39.5124 60.1148C38.2412 59.1536 39.1094 58.0073 39.9155 58.7971C40.6286 59.4947 40.3968 58.4707 39.8845 57.5569C39.9905 57.6487 40.118 57.7122 40.2552 57.7417C40.3923 57.7712 40.5346 57.7656 40.6691 57.7255C40.8035 57.6854 40.9256 57.6121 41.0242 57.5123C41.1228 57.4126 41.1947 57.2896 41.2331 57.1547C41.3348 57.2315 41.452 57.2852 41.5765 57.312C41.701 57.3389 41.8299 57.3383 41.9542 57.3103C42.0785 57.2822 42.1951 57.2274 42.2961 57.1497C42.397 57.0719 42.4797 56.9731 42.5386 56.8601C43.1097 57.2624 43.8873 57.0152 43.9183 56.4106C43.574 55.8199 43.1864 55.1688 42.7834 54.5038Z" fill="#FF6635"/>
<path d="M38.755 75.2114L37.6241 76.6686C37.4691 76.0649 37.3141 75.475 37.1436 74.9022C37.6682 74.9952 38.755 75.2114 38.755 75.2114Z" fill="#FF6635"/>
<path d="M22.9415 71.383C22.9362 71.5191 22.8783 71.6479 22.7801 71.7423C22.682 71.8367 22.551 71.8894 22.4148 71.8894C22.2786 71.8894 22.1477 71.8367 22.0496 71.7423C21.9514 71.6479 21.8935 71.5191 21.8882 71.383C21.8935 71.247 21.9514 71.1182 22.0496 71.0238C22.1477 70.9294 22.2786 70.8767 22.4148 70.8767C22.551 70.8767 22.682 70.9294 22.7801 71.0238C22.8783 71.1182 22.9362 71.247 22.9415 71.383Z" fill="#FF6635"/>
<path d="M30.0102 66.7326C30.0102 66.8019 29.9966 66.8704 29.9701 66.9343C29.9436 66.9983 29.9048 67.0564 29.8558 67.1053C29.8069 67.1543 29.7488 67.1931 29.6848 67.2196C29.6209 67.2461 29.5523 67.2597 29.4831 67.2597C29.4139 67.2597 29.3454 67.2461 29.2814 67.2196C29.2175 67.1931 29.1594 67.1543 29.1104 67.1053C29.0615 67.0564 29.0227 66.9983 28.9962 66.9343C28.9697 66.8704 28.9561 66.8019 28.9561 66.7326C28.9561 66.5928 29.0116 66.4588 29.1104 66.3599C29.2093 66.2611 29.3433 66.2056 29.4831 66.2056C29.6229 66.2056 29.757 66.2611 29.8558 66.3599C29.9547 66.4588 30.0102 66.5928 30.0102 66.7326Z" fill="#FF6635"/>
<path d="M36.7849 71.9103C36.7849 72.0502 36.7294 72.1844 36.6304 72.2833C36.5315 72.3822 36.3974 72.4378 36.2575 72.4378C36.1176 72.4378 35.9834 72.3822 35.8845 72.2833C35.7856 72.1844 35.73 72.0502 35.73 71.9103C35.73 71.7704 35.7856 71.6362 35.8845 71.5373C35.9834 71.4384 36.1176 71.3828 36.2575 71.3828C36.3974 71.3828 36.5315 71.4384 36.6304 71.5373C36.7294 71.6362 36.7849 71.7704 36.7849 71.9103Z" fill="#FF6635"/>
<path d="M46.0232 73.3829C46.0232 73.5228 45.9676 73.657 45.8687 73.7559C45.7698 73.8548 45.6356 73.9104 45.4957 73.9104C45.3558 73.9104 45.2217 73.8548 45.1228 73.7559C45.0238 73.657 44.9683 73.5228 44.9683 73.3829C44.9683 73.243 45.0238 73.1089 45.1228 73.01C45.2217 72.911 45.3558 72.8555 45.4957 72.8555C45.6356 72.8555 45.7698 72.911 45.8687 73.01C45.9676 73.1089 46.0232 73.243 46.0232 73.3829Z" fill="#FF6635"/>
<path d="M50.8304 65.322C50.8304 65.4619 50.7748 65.5961 50.6759 65.695C50.5769 65.7939 50.4428 65.8495 50.3029 65.8495C50.163 65.8495 50.0288 65.7939 49.9299 65.695C49.831 65.5961 49.7754 65.4619 49.7754 65.322C49.7754 65.1821 49.831 65.048 49.9299 64.9491C50.0288 64.8501 50.163 64.7946 50.3029 64.7946C50.4428 64.7946 50.5769 64.8501 50.6759 64.9491C50.7748 65.048 50.8304 65.1821 50.8304 65.322Z" fill="#FF6635"/>
<path d="M59.8193 65.2136C59.8193 65.2828 59.8056 65.3513 59.7792 65.4153C59.7527 65.4792 59.7138 65.5373 59.6649 65.5863C59.616 65.6352 59.5579 65.6741 59.4939 65.7005C59.43 65.727 59.3614 65.7407 59.2922 65.7407C59.223 65.7407 59.1545 65.727 59.0905 65.7005C59.0266 65.6741 58.9685 65.6352 58.9195 65.5863C58.8706 65.5373 58.8317 65.4792 58.8053 65.4153C58.7788 65.3513 58.7651 65.2828 58.7651 65.2136C58.7651 65.0738 58.8207 64.9397 58.9195 64.8409C59.0184 64.7421 59.1524 64.6865 59.2922 64.6865C59.432 64.6865 59.5661 64.7421 59.6649 64.8409C59.7637 64.9397 59.8193 65.0738 59.8193 65.2136Z" fill="#FF6635"/>
<path d="M62.8574 58.0677C62.8574 58.2075 62.8018 58.3416 62.703 58.4404C62.6041 58.5393 62.4701 58.5948 62.3303 58.5948C62.1905 58.5948 62.0564 58.5393 61.9576 58.4404C61.8588 58.3416 61.8032 58.2075 61.8032 58.0677C61.8032 57.9279 61.8588 57.7939 61.9576 57.695C62.0564 57.5962 62.1905 57.5406 62.3303 57.5406C62.4701 57.5406 62.6041 57.5962 62.703 57.695C62.8018 57.7939 62.8574 57.9279 62.8574 58.0677Z" fill="#FF6635"/>
<path d="M42.1323 80.6217C42.1323 80.6909 42.1186 80.7594 42.0921 80.8234C42.0657 80.8873 42.0268 80.9454 41.9779 80.9944C41.9289 81.0433 41.8708 81.0821 41.8069 81.1086C41.7429 81.1351 41.6744 81.1487 41.6052 81.1487C41.536 81.1487 41.4674 81.1351 41.4035 81.1086C41.3395 81.0821 41.2814 81.0433 41.2325 80.9944C41.1836 80.9454 41.1447 80.8873 41.1182 80.8234C41.0918 80.7594 41.0781 80.6909 41.0781 80.6217C41.0781 80.4819 41.1337 80.3478 41.2325 80.249C41.3313 80.1501 41.4654 80.0946 41.6052 80.0946C41.745 80.0946 41.879 80.1501 41.9779 80.249C42.0767 80.3478 42.1323 80.4819 42.1323 80.6217Z" fill="#FF6635"/>
<path d="M50.3015 80.0947C50.3015 80.2346 50.246 80.3688 50.147 80.4677C50.0481 80.5666 49.914 80.6222 49.7741 80.6222C49.6342 80.6222 49.5 80.5666 49.4011 80.4677C49.3022 80.3688 49.2466 80.2346 49.2466 80.0947C49.2466 79.9548 49.3022 79.8207 49.4011 79.7218C49.5 79.6228 49.6342 79.5673 49.7741 79.5673C49.914 79.5673 50.0481 79.6228 50.147 79.7218C50.246 79.8207 50.3015 79.9548 50.3015 80.0947Z" fill="#FF6635"/>
<path d="M140.938 64.3451C140.395 64.3761 139.434 64.4227 139.217 64.4382C139.62 63.1523 140.335 63.136 140.938 64.3451Z" fill="#FF6635"/>
<path d="M141.433 71.7861C141.046 72.8403 140.41 72.8868 139.868 71.9101C140.317 71.8824 140.86 71.8326 141.433 71.7861Z" fill="#FF6635"/>
<path d="M84.4045 54.1774C84.4073 54.2484 84.3957 54.3193 84.3705 54.3857C84.3452 54.4522 84.3068 54.5128 84.2575 54.564C84.2083 54.6153 84.1492 54.656 84.0838 54.6839C84.0184 54.7117 83.9481 54.7261 83.877 54.7261C83.8059 54.7261 83.7356 54.7117 83.6702 54.6839C83.6048 54.656 83.5457 54.6153 83.4965 54.564C83.4472 54.5128 83.4088 54.4522 83.3836 54.3857C83.3583 54.3193 83.3467 54.2484 83.3495 54.1774C83.3549 54.0411 83.4128 53.9122 83.5111 53.8176C83.6095 53.7231 83.7406 53.6703 83.877 53.6703C84.0134 53.6703 84.1445 53.7231 84.2429 53.8176C84.3412 53.9122 84.3991 54.0411 84.4045 54.1774Z" fill="#FF6635"/>
<path d="M137.31 66.376C137.31 66.5157 137.255 66.6497 137.156 66.7484C137.057 66.8472 136.923 66.9027 136.783 66.9027C136.644 66.9027 136.51 66.8472 136.411 66.7484C136.312 66.6497 136.257 66.5157 136.257 66.376C136.257 66.2363 136.312 66.1024 136.411 66.0036C136.51 65.9049 136.644 65.8494 136.783 65.8494C136.923 65.8494 137.057 65.9049 137.156 66.0036C137.255 66.1024 137.31 66.2363 137.31 66.376Z" fill="#FF6635"/>
<path d="M124.925 101.13C124.92 100.239 124.868 99.3491 124.77 98.4636L129.25 94.3091L124.925 101.13Z" fill="#FF6635"/>
<path d="M81.3353 122.212C75.2796 122.968 69.1311 122.316 63.3691 120.305" stroke="#120071" stroke-width="0.5" stroke-linecap="round" stroke-linejoin="round"/>
<path d="M112.384 98.7258C108.648 107.476 101.862 114.571 93.2866 118.692" stroke="#120071" stroke-width="0.5" stroke-linecap="round" stroke-linejoin="round"/>
<path d="M114.865 76.3743C115.208 78.2264 115.41 80.1029 115.469 81.986" stroke="#120071" stroke-width="0.5" stroke-linecap="round" stroke-linejoin="round"/>
<path d="M82.498 44.7516C91.5456 46.1736 99.8043 50.7341 105.827 57.6338" stroke="#120071" stroke-width="0.5" stroke-linecap="round" stroke-linejoin="round"/>
<path d="M73.0879 44.4112C74.8521 44.2686 76.6237 44.2426 78.3912 44.3332C78.7013 44.3497 79.0268 44.3644 79.3369 44.3956" stroke="#120071" stroke-width="0.5" stroke-linecap="round" stroke-linejoin="round"/>
<path d="M45.4341 59.4313C51.2063 51.9792 59.4737 46.8604 68.7174 45.0151" stroke="#120071" stroke-width="0.5" stroke-linecap="round" stroke-linejoin="round"/>
<path d="M37.2964 85.3188C37.233 84.0069 37.2382 82.6926 37.3119 81.3812C37.3861 79.9844 37.5313 78.5933 37.7459 77.2112" stroke="#120071" stroke-width="0.5" stroke-linecap="round" stroke-linejoin="round"/>
<path d="M55.2926 116.368C50.805 113.491 46.9498 109.731 43.9614 105.316" stroke="#120071" stroke-width="0.5" stroke-linecap="round" stroke-linejoin="round"/>
<path d="M107.594 61.7257C108.045 61.7121 108.492 61.6444 108.927 61.5242L107.315 63.0589" stroke="#120071" stroke-width="0.5" stroke-linecap="round" stroke-linejoin="round"/>
<path d="M147.991 65.9266L151.045 64.5314C152.982 63.6478 153.003 62.7054 150.688 63.4463C150.548 63.4912 147.107 64.5143 146.565 64.5934C146.146 64.6546 145.423 64.7166 145.341 64.4384C145.03 63.3777 146.32 60.5123 145.419 60.2218C144.83 60.0334 143.825 61.8822 143.186 63.2137C142.739 64.1455 141.962 64.2989 140.938 64.3454" stroke="#120071" stroke-width="0.5" stroke-linecap="round" stroke-linejoin="round"/>
<path d="M147.433 65.9885C147.433 65.9885 152.084 65.4174 152.394 65.3684C154.81 65.0168 154.642 65.929 152.58 66.5001C150.611 67.0451 148.239 67.7239 148.239 67.7239" stroke="#120071" stroke-width="0.5" stroke-linecap="round" stroke-linejoin="round"/>
<path d="M147.433 67.7094C148.959 67.755 150.485 67.7134 152.006 67.5853C154.439 67.3952 154.176 68.2054 152.115 68.717C150.843 69.0645 149.548 69.3183 148.239 69.4766" stroke="#120071" stroke-width="0.5" stroke-linecap="round" stroke-linejoin="round"/>
<path d="M141.434 71.7865C141.434 71.7865 144.798 71.5662 145.449 71.5075C146.703 71.3933 147.993 71.1934 149.247 71.0269C149.76 70.9576 150.272 70.876 150.781 70.7821C152.953 70.3742 153.276 69.5681 150.812 69.635C149.49 69.6665 148.168 69.5416 146.875 69.2629" stroke="#120071" stroke-width="0.5" stroke-linecap="round" stroke-linejoin="round"/>
<path d="M147.34 65.2446C147.576 67.1755 147.155 69.1296 146.146 70.7927" stroke="#120071" stroke-width="0.5" stroke-linecap="round" stroke-linejoin="round"/>
<path d="M145.511 65.2135C145.147 66.1757 144.587 67.0517 143.867 67.7857C143.146 68.5197 142.281 69.0955 141.325 69.4766" stroke="#120071" stroke-width="0.5" stroke-linecap="round" stroke-linejoin="round"/>
<path d="M115.742 73.9476C115.634 74.2577 115.525 74.5832 115.401 74.9267C114.595 74.3841 113.912 74.0333 113.681 73.8416C114.378 73.8701 115.06 73.9166 115.742 73.9476Z" stroke="#120071" stroke-width="0.5" stroke-linecap="round" stroke-linejoin="round"/>
<path d="M100.061 72.1739L101.751 69.7401C101.312 70.699 101.084 71.741 101.082 72.7957" stroke="#120071" stroke-width="0.5" stroke-linecap="round" stroke-linejoin="round"/>
<path d="M105.659 64.6089C106.219 64.6089 106.944 64.1275 107.317 63.0587C107.468 62.6282 107.561 62.18 107.596 61.7255C106.139 61.741 104.268 60.9912 106.387 56.223C106.843 55.1983 107.729 53.6309 108.828 53.8708C109.898 54.105 110.632 55.9987 110.542 57.216C110.505 57.739 110.868 57.6109 111.298 57.3049C112.499 56.4466 113.344 58.4978 111.097 59.4589C110.947 59.6229 110.836 59.8179 110.77 60.03C110.19 62.4777 110.17 64.4938 112.631 65.0527" stroke="#120071" stroke-width="0.5" stroke-linecap="round" stroke-linejoin="round"/>
<path d="M107.78 54.1776C110.912 51.1237 120.213 45.7599 118.942 52.0228C118.942 52.0228 125.823 46.1018 128.366 48.2093C130.896 50.3029 121.158 61.5248 110.726 63.6641" stroke="#120071" stroke-width="0.5" stroke-linecap="round" stroke-linejoin="round"/>
<path d="M140.674 72.6233C138.839 72.6233 138.12 63.5905 139.977 63.446C130.023 64.5067 119.7 66.1671 112.633 65.0428C110.173 68.0753 108.167 71.4485 106.676 75.0571C105.73 71.6604 105.386 68.1242 105.659 64.6087C104.327 64.5002 89.7857 54.8587 83.6632 51.2777C82.3356 52.1753 81.2044 53.3334 80.3383 54.6817C79.4722 56.03 78.8893 57.5404 78.625 59.121L101.084 72.7954C101.079 73.0459 101.084 73.3086 101.098 73.5893C101.213 75.6682 102.009 78.6291 104.248 83.3964C107.018 84.2229 111.312 82.7013 113.891 81.2106C113.727 78.9449 115.048 76.0868 115.745 73.9491C124.085 74.3301 132.049 73.6693 140.674 72.6233Z" stroke="#120071" stroke-width="0.5" stroke-linecap="round" stroke-linejoin="round"/>
<path d="M104.261 83.3966L90.8684 97.7352C88.4494 100.319 86.6848 103.445 85.7225 106.85L80.7153 124.351C82.0972 125.571 83.7542 126.439 85.5445 126.879C87.3349 127.32 89.2052 127.32 90.9957 126.88L96.1358 108.26C111.347 94.9457 108.741 97.2212 110.428 95.7657L118.722 108.399C119.209 109.139 119.851 109.766 120.604 110.234C121.356 110.703 122.201 111.003 123.081 111.114C123.96 111.225 124.854 111.143 125.699 110.875C126.544 110.608 127.321 110.159 127.976 109.562L143.647 95.2541C143.235 93.4773 142.411 91.8226 141.24 90.424C140.069 89.0255 138.585 87.9225 136.909 87.2044L124.767 98.4638C124.767 98.4638 122.674 84.6523 113.869 81.2108" stroke="#120071" stroke-width="0.5" stroke-linecap="round" stroke-linejoin="round"/>
<path d="M109.191 96.8363L108.106 92.2322L110.431 95.7667" stroke="#120071" stroke-width="0.5" stroke-linecap="round" stroke-linejoin="round"/>
<path d="M81.6918 125.095C81.0805 128.383 80.1458 131.602 78.9014 134.706C77.7208 137.371 76.7956 139.758 77.1342 140.163C78.3205 141.582 82.3559 135.453 85.3503 133.885C86.0636 133.531 86.701 133.041 87.2268 132.443C88.2785 131.201 87.6911 129.761 88.9158 127.172" stroke="#120071" stroke-width="0.5" stroke-linecap="round" stroke-linejoin="round"/>
<path d="M143.015 93.3481C145.582 91.1631 148.273 89.1292 151.076 87.2566C153.509 85.6435 155.571 84.1252 155.509 83.6136C155.289 81.7843 148.565 84.7485 145.216 84.4662C144.42 84.3831 143.615 84.4514 142.844 84.6677C141.294 85.1361 141.093 86.6055 138.659 88.1402" stroke="#120071" stroke-width="0.5" stroke-linecap="round" stroke-linejoin="round"/>
<path d="M78.2969 49.5105C78.2969 46.0837 80.9616 39.6952 82.0019 39.1714C82.0433 39.1526 82.0904 39.1508 82.1331 39.1664C82.1758 39.1819 82.2107 39.2136 82.2303 39.2546C82.2434 39.2815 82.2491 39.3117 82.2466 39.3419C81.8901 43.002 79.5158 49.2534 82.8251 51.8864" stroke="#120071" stroke-width="0.5" stroke-linecap="round" stroke-linejoin="round"/>
<path d="M79.0254 57.5561C77.8317 56.75 76.1477 55.3532 76.204 53.9906C76.3598 50.2244 76.3362 48.4564 76.3435 46.9682C76.3492 45.8675 77.2149 45.8357 77.8007 47.7433C78.3147 49.4167 78.8549 51.7738 78.8549 51.7738" stroke="#120071" stroke-width="0.5" stroke-linecap="round" stroke-linejoin="round"/>
<path d="M81.5215 43.6818C81.8478 43.1393 82.2011 42.5804 82.3431 42.3495C83.3793 40.6638 83.7954 41.0767 83.7073 41.3883C83.3622 42.6073 82.5291 44.4414 82.2501 45.5731C81.834 47.2383 81.1258 49.5628 82.4459 51.5406" stroke="#120071" stroke-width="0.5" stroke-linecap="round" stroke-linejoin="round"/>
<path d="M65.6944 98.8075C65.6944 98.8075 62.6095 99.4741 58.4395 99.9857" stroke="#120071" stroke-width="0.5" stroke-linecap="round" stroke-linejoin="round"/>
<path d="M37.2496 85.3966C37.6524 84.7252 38.1842 84.1403 38.8145 83.6759V83.7379C43.8062 84.451 47.5577 84.42 51.4332 83.4115C51.3781 84.4568 51.2012 85.4921 50.9062 86.4964C55.6324 86.3882 60.361 86.5175 65.0743 86.884C66.1827 86.9694 67.2591 87.2958 68.2283 87.8405C69.1975 88.3852 70.036 89.135 70.6852 90.0374C71.3346 90.9398 71.7792 91.9731 71.9881 93.0651C72.1969 94.1571 72.1649 95.2815 71.8944 96.3598C70.099 103.954 67.8843 111.442 65.2603 118.791C61.7506 119.372 58.1513 118.59 55.1994 116.605C55.9709 111.011 57.0473 105.464 58.4239 99.9873C53.743 100.558 46.7842 101.083 42.0243 99.7703C39.2037 98.9927 36.9045 97.3691 35.905 94.6081C34.7636 91.475 35.7916 87.6746 37.2496 85.3966Z" stroke="#120071" stroke-width="0.5" stroke-linecap="round" stroke-linejoin="round"/>
<path d="M50.9218 86.5126C50.1466 86.5282 49.387 86.5594 48.6274 86.5906" stroke="#120071" stroke-width="0.5" stroke-linecap="round" stroke-linejoin="round"/>
<path d="M46.506 100.479L40.5173 111.873C39.6921 113.442 38.3876 114.708 36.7935 115.485C35.1994 116.262 33.399 116.51 31.6542 116.193C30.4966 115.983 29.3965 115.53 28.4265 114.865L13.9663 104.959C15.2391 100.723 16.9778 97.9615 20.4429 95.8059L31.8859 103.132L35.9165 94.6057" stroke="#120071" stroke-width="0.5" stroke-linecap="round" stroke-linejoin="round"/>
<path d="M39.2329 98.5721L45.1392 103.083" stroke="#120071" stroke-width="0.5" stroke-linecap="round" stroke-linejoin="round"/>
<path d="M44.3334 64.4074L42.4731 63.1362C43.0089 63.1962 43.5487 63.2117 44.087 63.1827" stroke="#120071" stroke-width="0.5" stroke-linecap="round" stroke-linejoin="round"/>
<path d="M47.8059 64.795C47.5269 64.9655 47.2478 65.1214 46.9688 65.2911C46.6657 65.5292 46.2908 65.6573 45.9054 65.6545C45.52 65.6517 45.147 65.5181 44.8475 65.2756C44.3723 64.6799 44.106 63.9446 44.0895 63.1828C46.5829 63.0367 46.7355 61.3601 43.9173 56.3937C43.8877 56.5381 43.8204 56.6721 43.7222 56.7821C43.624 56.8921 43.4984 56.9741 43.3582 57.0197C43.2181 57.0654 43.0683 57.0731 42.9241 57.0421C42.78 57.0111 42.6467 56.9425 42.5376 56.8432C42.4819 56.9593 42.4007 57.0612 42.3 57.1414C42.1993 57.2216 42.0817 57.2779 41.9562 57.3063C41.8306 57.3346 41.7003 57.3342 41.5749 57.305C41.4495 57.2758 41.3324 57.2186 41.2322 57.1378C41.1936 57.2726 41.1218 57.3955 41.0232 57.4953C40.9246 57.595 40.8025 57.6683 40.6682 57.7085C40.5338 57.7486 40.3915 57.7543 40.2544 57.725C40.1173 57.6957 39.9897 57.6324 39.8835 57.5408C40.4106 58.4546 40.6276 59.4778 39.9145 58.7802C39.1084 57.9904 38.2403 59.1522 39.5123 60.0987C39.7504 60.3121 39.9254 60.5868 40.0183 60.8927C40.1112 61.1987 40.1185 61.5243 40.0394 61.8341C40.7748 62.9069 41.0688 64.2218 40.8602 65.5056C40.7206 66.1584 39.7905 66.6683 38.6572 66.3738C40.0092 68.8027 42.7914 71.0407 45.4969 70.0845C48.4741 69.036 47.8059 64.795 47.8059 64.795Z" stroke="#120071" stroke-width="0.5" stroke-linecap="round" stroke-linejoin="round"/>
<path d="M67.0669 52.0562C70.8959 49.1606 71.0469 43.0381 71.0469 38.6477C71.0469 38.5082 71.2476 38.3214 71.3561 38.4029C72.3246 39.0328 73.6129 45.5608 73.3028 48.9958" stroke="#120071" stroke-width="0.5" stroke-linecap="round" stroke-linejoin="round"/>
<path d="M71.4604 57.2616C72.5589 56.8193 73.4688 56.008 74.0338 54.9673C75.2141 52.3401 75.6274 49.4327 75.2258 46.5807C75.0153 45.3421 74.3724 45.449 73.8151 47.3248C73.3183 48.999 72.544 51.2468 72.544 51.2468" stroke="#120071" stroke-width="0.5" stroke-linecap="round" stroke-linejoin="round"/>
<path d="M67.0024 52.0153C68.0696 50.7099 69.074 48.3927 69.0275 47.1697C68.9022 45.7985 68.6637 44.44 68.3144 43.1081C68.2442 42.7818 68.6514 42.3477 69.8336 44.5768" stroke="#120071" stroke-width="0.5" stroke-linecap="round" stroke-linejoin="round"/>
<path d="M52.5651 71.8949C52.5071 71.2076 52.4087 70.5244 52.2705 69.8486L53.4927 71.3931" stroke="#120071" stroke-width="0.5" stroke-linecap="round" stroke-linejoin="round"/>
<path d="M51.4488 83.4123H51.4643C52.1309 79.4748 52.8595 75.4907 52.5649 71.8951C58.7552 68.6478 66.6229 62.3531 71.4938 58.068C72.0462 57.5156 70.1117 55.0696 69.5797 54.4421C69.0339 53.7984 66.8995 51.4282 66.1464 51.8051C60.4562 56.6968 54.3212 61.0457 47.8213 64.7951" stroke="#120071" stroke-width="0.5" stroke-linecap="round" stroke-linejoin="round"/>
<path d="M63.6946 118.988C63.295 120.57 62.9896 122.175 62.7799 123.794C60.3541 122.205 58.2329 120.194 56.5171 117.856C56.5791 117.721 56.6313 117.581 56.6721 117.438" stroke="#120071" stroke-width="0.5" stroke-linecap="round" stroke-linejoin="round"/>
<path d="M56.5018 123.774C56.0021 122.84 55.6272 121.844 55.3865 120.813C55.1227 121.436 54.9841 122.106 54.9785 122.782C55.1735 123.747 55.5132 124.678 55.9862 125.541C57.5829 128.517 59.1796 134.749 60.3267 134.672C60.4973 134.656 60.6833 134.331 60.8693 133.788C59.6487 132.365 58.083 126.676 56.5018 123.774Z" stroke="#120071" stroke-width="0.5" stroke-linecap="round" stroke-linejoin="round"/>
<path d="M56.5016 117.872C56.1458 118.895 55.6955 119.918 55.3862 120.816C55.6269 121.848 56.0019 122.843 56.5016 123.777C58.0673 126.676 59.633 132.365 60.8732 133.792C61.5553 131.761 62.2839 126.661 62.7644 123.793C60.3448 122.203 58.2247 120.198 56.5016 117.872Z" stroke="#120071" stroke-width="0.5" stroke-linecap="round" stroke-linejoin="round"/>
<path d="M14.633 102.99C13.2651 102.219 11.8518 101.53 10.4009 100.929C12.5734 99.0106 15.0727 97.4984 17.7799 96.464C18.1984 96.743 18.2604 96.8515 18.6635 97.0841" stroke="#120071" stroke-width="0.5" stroke-linecap="round" stroke-linejoin="round"/>
<path d="M13.4547 93.6891C12.4719 93.6155 11.4836 93.6942 10.5248 93.9224C7.23835 94.6812 0.790298 94.5572 0.570821 95.6888C0.539817 95.8594 0.803352 96.1229 1.26842 96.4485C2.95814 95.6268 8.86363 95.6268 12.1036 94.8982C13.134 94.6556 14.193 94.5567 15.2505 94.6045C14.72 94.181 14.1091 93.8695 13.4547 93.6891Z" stroke="#120071" stroke-width="0.5" stroke-linecap="round" stroke-linejoin="round"/>
<path d="M15.2376 94.5882C14.1801 94.5419 13.1212 94.641 12.0906 94.8828C8.86621 95.6269 2.96073 95.6269 1.271 96.4485C3.03824 97.6576 7.76556 99.7194 10.4009 100.929C12.5794 99.007 15.0836 97.4898 17.7954 96.4485C16.8808 95.8284 16.0127 95.1308 15.2376 94.5882Z" stroke="#120071" stroke-width="0.5" stroke-linecap="round" stroke-linejoin="round"/>
<path d="M5.3943 72.4064C4.69079 72.6399 3.98359 72.8621 3.27296 73.073C1.84595 73.5038 1.3197 73.2435 2.74589 72.2669C4.09433 71.3512 5.58223 70.6602 7.15175 70.2206" stroke="#120071" stroke-width="0.5" stroke-linecap="round" stroke-linejoin="round"/>
<path d="M8.5714 68.4224C8.14091 68.8427 7.75133 69.3031 7.40793 69.7972C6.7916 70.7205 6.37477 71.7623 6.18408 72.856" stroke="#120071" stroke-width="0.5" stroke-linecap="round" stroke-linejoin="round"/>
<path d="M4.85198 71.0734C-0.310222 72.8871 -0.958047 72.041 3.36378 70.0657C5.03128 69.3519 6.76725 68.8101 8.54474 68.4486" stroke="#120071" stroke-width="0.5" stroke-linecap="round" stroke-linejoin="round"/>
<path d="M14.9619 72.4366C12.8022 72.3159 8.19397 73.1212 4.85204 74.2316C3.39484 74.7122 2.61566 74.3948 4.23196 73.1775C4.91291 72.6684 5.64263 72.2281 6.41041 71.863" stroke="#120071" stroke-width="0.5" stroke-linecap="round" stroke-linejoin="round"/>
<path d="M6.01381 69.0733C4.27839 69.4763 0.322907 69.6248 6.47887 67.6316C7.44 67.3207 8.60021 67.0605 9.68781 66.8255C9.74923 66.4213 9.67855 66.0081 9.48628 65.6473C8.83356 64.554 9.05385 64.1102 10.1219 64.7637C11.4774 65.6862 13.0868 66.163 14.726 66.1279" stroke="#120071" stroke-width="0.5" stroke-linecap="round" stroke-linejoin="round"/>
<path d="M9.6879 66.8243C9.68115 67.2336 9.75893 67.6399 9.91638 68.0177C10.0738 68.3955 10.3076 68.7368 10.6029 69.0201C10.8983 69.3035 11.249 69.5228 11.633 69.6645C12.0171 69.8061 12.4262 69.8669 12.8348 69.8432" stroke="#120071" stroke-width="0.5" stroke-linecap="round" stroke-linejoin="round"/>
<path d="M43.915 56.4092C43.884 57.0138 43.1089 57.2618 42.5353 56.8588C42.4766 56.9719 42.3939 57.0708 42.2929 57.1486C42.192 57.2264 42.0753 57.2813 41.951 57.3093C41.8267 57.3374 41.6977 57.338 41.5732 57.311C41.4486 57.2841 41.3315 57.2302 41.2299 57.1533C41.191 57.2879 41.1189 57.4106 41.0203 57.5101C40.9217 57.6096 40.7996 57.6828 40.6654 57.7228C40.5311 57.7628 40.3889 57.7685 40.2519 57.7393C40.1149 57.7101 39.9874 57.6469 39.8812 57.5555C40.3927 58.4702 40.6253 59.4941 39.9122 58.7957C39.1061 58.0059 38.2412 59.149 39.5091 60.1134C39.7475 60.3268 39.9227 60.6016 40.0156 60.9078C40.1086 61.2139 40.1157 61.5397 40.0362 61.8496C38.7503 59.6957 36.456 57.9904 35.9289 57.4634C34.7051 56.2395 35.5724 55.4636 36.611 55.9131C36.3663 55.2466 37.1536 54.6893 37.8814 55.2466C37.6799 54.5938 38.6573 54.0529 39.4936 54.735C39.3541 54.0219 40.5633 53.7273 41.2609 54.3474C41.1523 53.7118 42.2709 53.6637 42.7801 54.5025C43.188 55.1674 43.915 56.4092 43.915 56.4092Z" stroke="#120071" stroke-width="0.5" stroke-linecap="round" stroke-linejoin="round"/>
<path d="M37.6217 76.6689L38.755 75.2117C38.1977 75.104 37.6706 74.9947 37.1436 74.9025" stroke="#120071" stroke-width="0.5" stroke-linecap="round" stroke-linejoin="round"/>
<path d="M38.6603 66.3761C38.4587 66.2986 28.7063 63.7563 15.0049 65.0707C14.2618 67.8454 14.3469 70.7769 15.2497 73.5038C22.576 72.9082 29.95 73.379 37.1411 74.9015C38.0144 77.7568 38.5755 80.6985 38.8145 83.6748" stroke="#120071" stroke-width="0.5" stroke-linecap="round" stroke-linejoin="round"/>
<path d="M29.0646 48.6115C29.1009 49.0315 29.0119 49.4529 28.8087 49.8223C28.6056 50.1917 28.2976 50.4926 27.9235 50.687C27.5494 50.8814 27.1261 50.9605 26.7071 50.9143C26.288 50.8681 25.8921 50.6988 25.5693 50.4276C25.2465 50.1565 25.0113 49.7957 24.8935 49.3909C24.7757 48.9862 24.7806 48.5556 24.9074 48.1535C25.0343 47.7515 25.2775 47.3961 25.6063 47.1323C25.9351 46.8685 26.3348 46.7081 26.7548 46.6713C27.318 46.624 27.877 46.8015 28.3098 47.165C28.7426 47.5286 29.014 48.0486 29.0646 48.6115Z" stroke="#120071" stroke-width="0.5" stroke-linecap="round" stroke-linejoin="round"/>
<path d="M114.043 122.522H107.331" stroke="#120071" stroke-width="0.5" stroke-linecap="round" stroke-linejoin="round"/>
<path d="M110.687 125.885V119.158" stroke="#120071" stroke-width="0.5" stroke-linecap="round" stroke-linejoin="round"/>
<path d="M19.9079 64.7483C19.1491 67.5786 19.2911 70.5738 20.3109 73.3209" stroke="#120071" stroke-width="0.5" stroke-linecap="round" stroke-linejoin="round"/>
<path d="M63.2319 54.2544C65.562 55.8125 67.4588 57.9362 68.745 60.4267" stroke="#120071" stroke-width="0.5" stroke-linecap="round" stroke-linejoin="round"/>
<path d="M140.938 64.3454C140.395 64.3764 139.434 64.4229 139.217 64.4384C139.62 63.1525 140.335 63.1362 140.938 64.3454Z" stroke="#120071" stroke-width="0.5" stroke-linecap="round" stroke-linejoin="round"/>
<path d="M141.434 71.7863C141.046 72.8404 140.411 72.8869 139.868 71.9103C140.318 71.8825 140.86 71.8328 141.434 71.7863Z" stroke="#120071" stroke-width="0.5" stroke-linecap="round" stroke-linejoin="round"/>
<path d="M111.609 82.326C117.888 86.7319 119.605 92.1707 122.243 101.826C122.336 102.163 122.513 102.471 122.758 102.72C123.003 102.969 123.307 103.151 123.642 103.25C123.978 103.347 124.332 103.358 124.673 103.28C125.013 103.202 125.328 103.039 125.588 102.805L140.335 89.4423" stroke="#120071" stroke-width="0.5" stroke-linecap="round" stroke-linejoin="round"/>
<path d="M87.2261 127.157L92.5735 106.664L108.292 93.0071" stroke="#120071" stroke-width="0.5" stroke-linecap="round" stroke-linejoin="round"/>
<path d="M47.1392 85.8771C46.5457 86.8812 45.7452 87.7476 44.791 88.4184C43.8368 89.0893 42.7507 89.5494 41.605 89.7681" stroke="#120071" stroke-width="0.5" stroke-linecap="round" stroke-linejoin="round"/>
<path d="M56.0522 111.314C57.6213 112.446 59.4089 113.239 61.3012 113.642C63.1935 114.046 65.149 114.05 67.0432 113.657" stroke="#120071" stroke-width="0.5" stroke-linecap="round" stroke-linejoin="round"/>
<path d="M24.6154 98.481C21.5778 100.527 19.6384 103.845 18.4619 108.027" stroke="#120071" stroke-width="0.5" stroke-linecap="round" stroke-linejoin="round"/>
<path d="M129.25 94.3092L124.926 101.13C124.921 100.239 124.869 99.3492 124.771 98.4638" stroke="#120071" stroke-width="0.5" stroke-linecap="round" stroke-linejoin="round"/>
<path d="M67.0718 52.0564C69.2927 50.3822 69.8336 47.8953 69.9111 45.6328C69.7523 44.0505 69.4829 42.4812 69.105 40.9365C69.056 40.6264 69.4926 40.2544 70.3762 42.0371L70.8877 43.15" stroke="#120071" stroke-width="0.5" stroke-linecap="round" stroke-linejoin="round"/>
<path d="M76.3747 23.6231C75.1322 23.6231 73.9175 23.9915 72.8844 24.6818C71.8512 25.3722 71.046 26.3533 70.5705 27.5013C70.095 28.6493 69.9706 29.9125 70.213 31.1311C70.4554 32.3498 71.0538 33.4692 71.9324 34.3478C72.811 35.2265 73.9304 35.8248 75.1491 36.0672C76.3677 36.3096 77.6309 36.1852 78.7789 35.7097C79.9269 35.2342 80.908 34.429 81.5984 33.3958C82.2887 32.3627 82.6571 31.148 82.6571 29.9055C82.6593 28.6623 82.2919 27.4465 81.6017 26.4125C80.9116 25.3785 79.9297 24.5728 78.7808 24.0979C78.0178 23.7829 77.2002 23.6215 76.3747 23.6231Z" stroke="#120071" stroke-width="0.5" stroke-linejoin="round"/>
<path d="M75.7627 26.4933C75.7627 26.6556 75.8272 26.8112 75.9419 26.926C76.0567 27.0407 76.2123 27.1052 76.3746 27.1052C76.5369 27.1052 76.6926 27.0407 76.8073 26.926C76.9221 26.8112 76.9865 26.6556 76.9865 26.4933C76.9865 26.331 76.9221 26.1753 76.8073 26.0606C76.6926 25.9458 76.5369 25.8813 76.3746 25.8813C76.2123 25.8813 76.0567 25.9458 75.9419 26.0606C75.8272 26.1753 75.7627 26.331 75.7627 26.4933Z" stroke="#120071" stroke-width="0.5" stroke-linejoin="round"/>
<path d="M76.3682 28.7626V33.8114" stroke="#120071" stroke-width="0.5" stroke-linecap="round" stroke-linejoin="round"/>
</svg>
