<svg width="155" height="347" viewBox="0 0 155 347" fill="none" xmlns="http://www.w3.org/2000/svg">
<path d="M2.63891 13.1888L-3.31314 0.323365L-12.0398 4.36068L-6.08776 17.2262L-20.7792 16.4625L-19.884 26.5802L-1.31364 27.5455L2.62109 36.0504L-18.0683 34.975L-17.1731 45.0927L7.39521 46.3697L11.5207 55.2871L-13.7391 53.9741L-12.8439 64.0918L16.2949 65.6064L20.4725 74.6363L-10.4231 73.0304L-9.52796 83.1481L25.2466 84.9556L29.052 93.181L-5.58195 91.3808L-4.68678 101.498L33.8261 103.5L36.9133 110.173L2.27939 108.373L3.17457 118.491L41.6874 120.493L45.8583 129.508L11.2243 127.708L12.1195 137.825L50.6324 139.827L53.7832 146.638L19.1493 144.838L20.0445 154.955L58.5574 156.957L62.022 164.446L27.3881 162.646L28.2833 172.764L66.7961 174.765L70.8885 183.611L36.2546 181.811L37.1497 191.928L75.6626 193.93L80.2258 203.794L45.5919 201.994L46.4871 212.111L84.9999 214.113L88.3861 221.432L53.7522 219.632L54.6474 229.75L93.1602 231.752L97.5142 241.163L66.3475 239.543L67.2427 249.661L102.288 251.482L105.441 258.296L79.6027 256.953L80.4978 267.071L110.215 268.615L113.912 276.607L97.2914 275.743L98.1866 285.861L118.686 286.926L146.22 346.441L154.947 342.403L127.413 282.889L139.872 266.575L132.741 259.343L122.639 272.57L118.942 264.578L137.003 240.929L129.871 233.697L114.167 254.259L111.015 247.445L132.315 219.555L125.183 212.323L106.241 237.125L101.887 227.714L125.294 197.066L118.163 189.833L97.1128 217.395L93.7266 210.076L117.134 179.427L110.002 172.195L88.9525 199.756L84.3893 189.893L107.797 159.244L100.665 152.012L79.6151 179.574L75.5228 170.728L98.9302 140.079L91.7985 132.847L70.7487 160.409L67.284 152.92L90.6914 122.271L83.5597 115.039L62.5099 142.6L59.359 135.79L82.7664 105.141L75.6347 97.9089L54.5849 125.471L50.4141 116.455L73.8215 85.8067L66.6898 78.5743L45.64 106.136L42.5527 99.4629L65.9601 68.8144L58.8284 61.5819L37.7786 89.1436L33.9732 80.9182L55.1085 53.2447L47.9768 46.0122L29.1991 70.5989L25.0215 61.569L42.7314 38.3804L35.5998 31.148L20.2474 51.2497L16.1219 42.3324L31.054 22.7809L23.9224 15.5484L11.3478 32.013L7.41303 23.5081L18.6997 8.72984L11.568 1.49741L2.63891 13.1888Z" fill="#FF6635"/>
</svg>
