<svg width="147" height="144" viewBox="0 0 147 144" fill="none" xmlns="http://www.w3.org/2000/svg">
<path d="M69.8702 8.90341C64.1632 9.06259 59.6623 13.4188 59.8215 18.6322C59.996 24.7012 66.2395 28.8692 72.4983 27.5039L72.1639 23.5686C72.091 22.9163 72.1474 22.2561 72.3299 21.6257C72.5124 20.9953 72.8173 20.407 73.2273 19.8945C73.6373 19.3821 74.1443 18.9554 74.7192 18.639C75.2942 18.3226 75.9259 18.1227 76.5783 18.0506L80.4554 17.7169C80.1363 12.6642 75.4601 8.74345 69.8702 8.90341Z" fill="#FF6635"/>
<path fill-rule="evenodd" clip-rule="evenodd" d="M64.4683 110.823L110.992 106.903C112.262 106.794 113.438 106.186 114.261 105.211C115.083 104.236 115.485 102.975 115.377 101.704L112.676 69.9763C112.568 68.7057 111.959 67.53 110.985 66.7077C110.01 65.8854 108.749 65.4838 107.478 65.591L82.6202 67.6827C82.1809 68.3523 81.8947 68.7013 81.235 69.2202C80.1671 70.0367 78.8418 70.4432 77.4997 70.3658C76.1576 70.2884 74.8878 69.7323 73.9208 68.7985L73.581 68.4618L65.8267 69.1138C68.3982 78.2434 68.6691 84.5772 68.8574 93.6226C69.0139 96.2813 68.65 98.9449 67.7859 101.464L64.4683 110.823ZM91.5631 90.1748L96.2537 92.3675L95.4111 82.406L91.1567 85.3678C91.0077 84.4293 90.5082 83.5823 89.7591 82.9976C89.0099 82.413 88.0669 82.1343 87.1204 82.2177L78.0444 83.0022C77.5505 83.0424 77.0695 83.1803 76.6293 83.408C76.1892 83.6357 75.7987 83.9486 75.4805 84.3285C75.1616 84.7077 74.9211 85.1464 74.773 85.6192C74.625 86.092 74.5723 86.5895 74.618 87.0829L74.9808 91.2922C75.0217 91.7859 75.1599 92.2666 75.3876 92.7066C75.6152 93.1466 75.9278 93.5371 76.3072 93.8557C76.6866 94.1742 77.1253 94.4145 77.598 94.5626C78.0708 94.7107 78.5681 94.7637 79.0615 94.7185L88.1222 93.9639C89.0681 93.8827 89.9484 93.4469 90.5865 92.7439C91.2247 92.0409 91.5735 91.1227 91.5631 90.1733V90.1748Z" fill="#FF6635"/>
<path d="M125.658 70.1072C125.697 70.4539 125.667 70.8049 125.57 71.14C125.473 71.4752 125.311 71.7879 125.093 72.0603C124.875 72.3325 124.605 72.5586 124.298 72.7257C123.992 72.8928 123.655 72.9975 123.308 73.0338C122.786 73.0885 122.259 72.9863 121.794 72.7401C121.33 72.4939 120.95 72.115 120.702 71.6516C120.537 71.3438 120.435 71.0064 120.402 70.659L119.981 66.6793C119.914 65.9856 120.125 65.2938 120.566 64.7542C121.007 64.2146 121.643 63.8709 122.336 63.7979C123.029 63.7252 123.722 63.9292 124.266 64.3655C124.809 64.8018 125.158 65.4351 125.237 66.1275L125.658 70.1072Z" fill="#FF6635"/>
<path d="M96.5298 22.1458C96.7548 22.6739 96.9255 23.2242 97.038 23.7867C97.4734 22.8721 97.7306 21.8826 97.7949 20.8716C97.3915 21.3141 96.9694 21.7393 96.5298 22.1458Z" fill="#FFD647"/>
<path d="M57.0483 42.1118C57.1731 42.7983 57.408 43.4603 57.7448 44.0718C58.8637 44.0718 60.0982 43.9272 60.4028 43.4772C60.4464 43.4006 60.49 43.3172 60.5329 43.23C60.1119 44.0596 58.5889 43.2177 57.0483 42.1118Z" fill="#FFD647"/>
<path d="M18.6128 74.4052C15.9112 70.5281 -1.26578 84.6858 1.20163 88.2576L1.62256 88.6349C5.19586 90.6247 20.7174 77.455 18.6128 74.4052Z" fill="#FFD647"/>
<path d="M48.0021 124.385C44.4724 126.063 55.3882 145.754 58.7166 142.957C60.708 140.067 50.7902 123.049 48.0021 124.385Z" fill="#FFD647"/>
<path d="M14.7938 86.7188C14.7258 86.9694 14.7063 87.2307 14.7364 87.4887C14.8818 88.4178 16.0719 88.4614 16.8709 88.2433C16.3114 87.5753 15.5988 87.0523 14.7938 86.7188Z" fill="#FFD647"/>
<path d="M22.5039 79.1389C23.0549 79.8216 23.6213 80.5035 24.1302 81.1288C24.2152 80.8854 24.2687 80.6313 24.2902 80.3742C24.3051 80.1557 24.263 79.9371 24.168 79.7398C24.073 79.5425 23.9284 79.3733 23.7482 79.2487C23.5681 79.1241 23.3587 79.0485 23.1406 79.0293C22.9224 79.0101 22.703 79.0478 22.5039 79.1389Z" fill="#FFD647"/>
<path d="M48.931 49.7227C48.7699 49.7399 48.6175 49.8044 48.4931 49.9082C48.3686 50.012 48.2778 50.1504 48.2321 50.3058C48.1863 50.4612 48.1877 50.6267 48.236 50.7814C48.2844 50.936 48.3775 51.0728 48.5036 51.1745C48.6298 51.2762 48.7832 51.3382 48.9446 51.3527C49.106 51.3671 49.268 51.3334 49.4102 51.2557C49.5524 51.178 49.6683 51.0599 49.7434 50.9163C49.8184 50.7727 49.8492 50.6101 49.8318 50.449C49.8218 50.3416 49.7904 50.2372 49.7394 50.1422C49.6884 50.0471 49.6189 49.9632 49.5349 49.8955C49.4509 49.8278 49.3542 49.7776 49.2504 49.7479C49.1467 49.7182 49.0381 49.7097 48.931 49.7227Z" fill="#FFD647"/>
<path d="M43.1227 56.4722C43.0127 56.4798 42.9055 56.5095 42.8073 56.5596C42.7091 56.6096 42.622 56.679 42.5513 56.7635C42.4806 56.848 42.4276 56.9459 42.3956 57.0514C42.3636 57.1568 42.3532 57.2676 42.3651 57.3772C42.377 57.4868 42.4108 57.5928 42.4646 57.689C42.5184 57.7851 42.5911 57.8695 42.6783 57.9369C42.7654 58.0043 42.8653 58.0534 42.9719 58.0813C43.0785 58.1092 43.1897 58.1153 43.2987 58.0993C43.5081 58.0684 43.6975 57.9576 43.827 57.7901C43.9565 57.6226 44.0162 57.4115 43.9934 57.201C43.9706 56.9906 43.8672 56.7971 43.7049 56.6612C43.5425 56.5253 43.3339 56.4575 43.1227 56.4722Z" fill="#FFD647"/>
<path d="M46.5648 65.3883C46.4554 65.3965 46.3488 65.4266 46.2513 65.4768C46.1538 65.527 46.0673 65.5962 45.9971 65.6805C45.9268 65.7647 45.8743 65.8622 45.8424 65.9671C45.8106 66.0721 45.8001 66.1823 45.8117 66.2914C45.8233 66.4005 45.8567 66.5061 45.9099 66.602C45.963 66.6979 46.035 66.7822 46.1213 66.8498C46.2077 66.9174 46.3068 66.9669 46.4127 66.9955C46.5185 67.0241 46.6291 67.0311 46.7377 67.0161C46.9485 66.9871 47.1398 66.8772 47.2709 66.7096C47.4021 66.542 47.4628 66.33 47.4403 66.1184C47.4179 65.9068 47.3139 65.7122 47.1505 65.5759C46.987 65.4397 46.777 65.3724 46.5648 65.3883Z" fill="#FFD647"/>
<path d="M39.0141 54.9332C38.9069 54.9441 38.8029 54.976 38.7081 55.0273C38.6133 55.0785 38.5296 55.1479 38.4617 55.2315C38.3938 55.3152 38.3431 55.4115 38.3125 55.5148C38.2819 55.6181 38.272 55.7264 38.2834 55.8336C38.2948 55.9407 38.3272 56.0446 38.3789 56.1391C38.4305 56.2337 38.5003 56.3171 38.5843 56.3847C38.6682 56.4522 38.7647 56.5024 38.8682 56.5326C38.9716 56.5627 39.08 56.5721 39.1871 56.5602C39.4021 56.5364 39.5989 56.4284 39.7345 56.2598C39.8701 56.0912 39.9334 55.8757 39.9105 55.6606C39.8876 55.4455 39.7805 55.2482 39.6125 55.1118C39.4445 54.9755 39.2293 54.9113 39.0141 54.9332Z" fill="#FFD647"/>
<path d="M55.8435 52.9152C55.7332 52.9221 55.6254 52.9512 55.5266 53.0009C55.4279 53.0506 55.3402 53.1197 55.2689 53.2042C55.1976 53.2886 55.1441 53.3866 55.1117 53.4923C55.0793 53.598 55.0686 53.7091 55.0803 53.819C55.092 53.929 55.1258 54.0354 55.1797 54.1319C55.2336 54.2284 55.3065 54.3129 55.394 54.3805C55.4814 54.4481 55.5817 54.4973 55.6887 54.5251C55.7956 54.5529 55.9071 54.5587 56.0164 54.5423C56.2251 54.5108 56.4136 54.4001 56.5426 54.2331C56.6716 54.0661 56.7312 53.8558 56.7089 53.6459C56.6866 53.4361 56.5841 53.2429 56.4229 53.1068C56.2617 52.9707 56.0541 52.902 55.8435 52.9152Z" fill="#FFD647"/>
<path d="M51.1091 59.5368C51.0002 59.5454 50.894 59.5759 50.797 59.6263C50.7 59.6767 50.614 59.746 50.5443 59.8301C50.4745 59.9143 50.4223 60.0116 50.3907 60.1163C50.3592 60.221 50.349 60.3309 50.3606 60.4396C50.3723 60.5483 50.4056 60.6536 50.4587 60.7492C50.5117 60.8448 50.5833 60.9288 50.6694 60.9962C50.7554 61.0637 50.8541 61.1132 50.9596 61.1418C51.0651 61.1705 51.1753 61.1777 51.2836 61.1631C51.4948 61.1345 51.6865 61.0247 51.818 60.857C51.9495 60.6893 52.0103 60.4769 51.9876 60.265C51.9648 60.0531 51.8603 59.8585 51.6963 59.7225C51.5322 59.5865 51.3216 59.5198 51.1091 59.5368Z" fill="#FFD647"/>
<path d="M59.6046 62.6147C59.4953 62.6232 59.3889 62.6534 59.2916 62.7037C59.1942 62.754 59.108 62.8233 59.0379 62.9076C58.9679 62.9918 58.9154 63.0893 58.8837 63.1941C58.852 63.299 58.8416 63.4092 58.8533 63.5181C58.8649 63.627 58.8983 63.7325 58.9514 63.8284C59.0045 63.9242 59.0763 64.0084 59.1626 64.0759C59.2489 64.1435 59.3478 64.193 59.4535 64.2217C59.5593 64.2503 59.6697 64.2574 59.7783 64.2426C59.9894 64.2138 60.1809 64.1038 60.3122 63.9361C60.4436 63.7684 60.5044 63.5561 60.4818 63.3443C60.4592 63.1325 60.3549 62.9378 60.1912 62.8016C60.0274 62.6654 59.817 62.5983 59.6046 62.6147Z" fill="#FFD647"/>
<path d="M63.1324 48.5298C62.9713 48.5468 62.8188 48.6113 62.6942 48.715C62.5697 48.8187 62.4788 48.957 62.4329 49.1125C62.387 49.2679 62.3883 49.4334 62.4366 49.5881C62.4848 49.7428 62.5779 49.8797 62.704 49.9815C62.8302 50.0833 62.9836 50.1453 63.145 50.1598C63.3064 50.1743 63.4685 50.1406 63.6108 50.063C63.753 49.9853 63.869 49.8672 63.9441 49.7235C64.0191 49.5799 64.0499 49.4173 64.0325 49.2561C64.0226 49.1487 63.9913 49.0444 63.9404 48.9493C63.8894 48.8543 63.82 48.7704 63.736 48.7027C63.6521 48.6349 63.5554 48.5847 63.4518 48.5551C63.3481 48.5254 63.2395 48.5168 63.1324 48.5298Z" fill="#FFD647"/>
<path d="M70.7415 62.2657C70.6322 62.2739 70.5256 62.304 70.428 62.3542C70.3305 62.4044 70.2441 62.4737 70.1738 62.5579C70.1036 62.6421 70.051 62.7396 70.0192 62.8446C69.9873 62.9495 69.9769 63.0598 69.9885 63.1689C70.0001 63.2779 70.0334 63.3835 70.0866 63.4794C70.1398 63.5754 70.2117 63.6596 70.2981 63.7272C70.3845 63.7948 70.4835 63.8444 70.5894 63.8729C70.6953 63.9015 70.8058 63.9085 70.9145 63.8936C71.1253 63.8645 71.3165 63.7546 71.4477 63.587C71.5788 63.4194 71.6396 63.2074 71.6171 62.9958C71.5946 62.7842 71.4906 62.5897 71.3272 62.4534C71.1638 62.3171 70.9537 62.2498 70.7415 62.2657Z" fill="#FFD647"/>
<path d="M70.7704 54.6423C70.8773 54.631 70.9809 54.5988 71.0752 54.5474C71.1696 54.4961 71.2529 54.4266 71.3204 54.343C71.3878 54.2594 71.4381 54.1633 71.4684 54.0602C71.4987 53.9571 71.5083 53.8491 71.4967 53.7422C71.4637 53.5349 71.3523 53.3482 71.1855 53.2207C71.0188 53.0932 70.8094 53.0345 70.6007 53.0569C70.3919 53.0793 70.1998 53.181 70.0639 53.341C69.928 53.501 69.8587 53.7071 69.8704 53.9167C69.8817 54.0236 69.9139 54.1271 69.9653 54.2214C70.0166 54.3158 70.0861 54.399 70.1697 54.4664C70.2534 54.5338 70.3495 54.5841 70.4526 54.6142C70.5556 54.6444 70.6637 54.6539 70.7704 54.6423Z" fill="#FFD647"/>
<path d="M79.6427 63.9938C79.4821 64.0113 79.3301 64.0758 79.206 64.1793C79.0818 64.2828 78.9909 64.4206 78.9447 64.5755C78.9101 64.6915 78.9017 64.8139 78.9202 64.9336C78.9387 65.0534 78.9836 65.1675 79.0517 65.2677C79.1198 65.3679 79.2093 65.4518 79.3137 65.5131C79.4182 65.5745 79.535 65.6118 79.6557 65.6224C79.77 65.6336 79.8854 65.6206 79.9943 65.5844C80.1032 65.5481 80.2033 65.4893 80.2881 65.4118C80.3728 65.3344 80.4403 65.2399 80.4862 65.1347C80.5321 65.0294 80.5554 64.9157 80.5544 64.8009C80.5535 64.6861 80.5285 64.5727 80.4809 64.4682C80.4333 64.3637 80.3643 64.2704 80.2784 64.1943C80.1924 64.1181 80.0914 64.061 79.9819 64.0264C79.8723 63.9919 79.7568 63.9808 79.6427 63.9938Z" fill="#FFD647"/>
<path d="M80.659 55.3403C80.4983 55.3579 80.3463 55.4225 80.2221 55.5261C80.0979 55.6297 80.0071 55.7677 79.9611 55.9227C79.9275 56.0386 79.9199 56.1604 79.939 56.2795C79.958 56.3986 80.0032 56.5121 80.0713 56.6116C80.1394 56.7112 80.2286 56.7945 80.3327 56.8555C80.4367 56.9165 80.553 56.9537 80.6732 56.9645C80.7933 56.9753 80.9143 56.9593 81.0276 56.9178C81.1408 56.8762 81.2435 56.8101 81.3282 56.7242C81.4128 56.6383 81.4775 56.5347 81.5174 56.4209C81.5573 56.3071 81.5715 56.1858 81.5591 56.0658C81.5357 55.8504 81.4282 55.6528 81.2598 55.5163C81.0907 55.3806 80.8747 55.3174 80.659 55.3403Z" fill="#FFD647"/>
<path d="M87.9192 52.4359C87.911 52.3265 87.8809 52.2199 87.8307 52.1224C87.7805 52.0249 87.7113 51.9384 87.627 51.8682C87.5428 51.7979 87.4453 51.7453 87.3404 51.7135C87.2354 51.6817 87.1251 51.6712 87.0161 51.6828C86.907 51.6944 86.8014 51.7278 86.7055 51.781C86.6096 51.8341 86.5253 51.9061 86.4577 51.9924C86.3901 52.0788 86.3406 52.1779 86.312 52.2837C86.2834 52.3896 86.2764 52.5002 86.2913 52.6088C86.3204 52.8196 86.4303 53.0109 86.5979 53.142C86.7655 53.2731 86.9775 53.3339 87.1891 53.3114C87.4007 53.2889 87.5953 53.185 87.7315 53.0216C87.8678 52.8581 87.9351 52.6481 87.9192 52.4359Z" fill="#FFD647"/>
<path d="M112.154 7.0008C112.065 5.87493 111.578 4.8176 110.78 4.01874C109.981 3.21988 108.925 2.73184 107.799 2.64228C106.673 2.55305 105.552 2.86834 104.638 3.53146C103.724 4.19458 103.076 5.16205 102.811 6.25997C101.499 5.64969 100.052 5.38746 98.6099 5.49853C97.1674 5.60961 95.7777 6.09025 94.5748 6.89416C93.3719 7.69807 92.3963 8.79817 91.7418 10.0885C91.0874 11.3789 90.7762 12.816 90.8383 14.2614C92.5873 13.7874 94.3847 13.5144 96.1956 13.4479C96.2936 14.0426 96.429 14.6303 96.602 15.2082C96.7619 15.5709 97.0084 15.6 97.4438 14.9319C98.4173 13.5237 100.392 15.7018 98.0829 17.3863C99.0793 19.111 100.345 20.6652 101.833 21.9897C103.83 21.3469 105.517 19.9858 106.567 18.1701C107.617 16.3544 107.956 14.2134 107.518 12.1622C107.623 12.1622 107.727 12.1568 107.831 12.1446C108.453 12.0909 109.058 11.9153 109.611 11.6277C110.165 11.3401 110.657 10.9462 111.058 10.4685C111.46 9.99083 111.763 9.4387 111.951 8.8437C112.139 8.24869 112.208 7.62246 112.154 7.0008Z" fill="#FFD647"/>
<path d="M50.6157 83.5098L50.7757 89.4028L52.8497 87.53C51.9452 86.2852 51.1951 84.9352 50.6157 83.5098Z" fill="#FFD647"/>
<path d="M63.9458 56.603L66.0076 59.5365L66.1239 63.2973L63.9458 56.603Z" fill="#FFD647"/>
<path d="M60.3884 36.7246C60.641 36.6784 60.8689 36.5437 61.0313 36.3448C61.1937 36.1458 61.28 35.8956 61.2747 35.6388C61.2695 35.3821 61.173 35.1356 61.0026 34.9434C60.8322 34.7513 60.599 34.626 60.3447 34.5901C60.5415 34.4464 60.684 34.2406 60.7495 34.0059C60.815 33.7713 60.7996 33.5214 60.7057 33.2966C60.6118 33.0718 60.4449 32.8851 60.232 32.7667C60.0191 32.6483 59.7725 32.605 59.532 32.6439C59.6552 32.4393 59.7075 32.1998 59.6807 31.9625C59.654 31.7251 59.5497 31.5033 59.384 31.3312C59.2184 31.1592 59.0006 31.0466 58.7644 31.0109C58.5283 30.9753 58.2869 31.0185 58.0778 31.1339C58.1287 30.8901 58.0943 30.6361 57.9803 30.4146C57.8663 30.1932 57.6797 30.0175 57.4517 29.9172C57.2237 29.8169 56.9681 29.7979 56.7278 29.8635C56.4875 29.9291 56.277 30.0753 56.1316 30.2775C56.1081 30.0158 55.9941 29.7704 55.8091 29.5838C55.6241 29.3971 55.3798 29.2808 55.1183 29.255C54.8568 29.2291 54.5944 29.2954 54.3765 29.4422C54.1586 29.589 53.9987 29.8073 53.9244 30.0594C53.8218 29.8332 53.6447 29.6491 53.4228 29.5376C53.2008 29.4261 52.9474 29.3939 52.7047 29.4465C52.4619 29.4991 52.2445 29.6333 52.0887 29.8267C51.9328 30.0201 51.8479 30.261 51.8481 30.5094C51.6669 30.3536 51.4395 30.2617 51.201 30.2478C50.9624 30.2339 50.7259 30.2988 50.5278 30.4325C50.3298 30.5662 50.1811 30.7613 50.1048 30.9877C50.0285 31.2142 50.0287 31.4594 50.1054 31.6857C49.8797 31.6024 49.6327 31.5966 49.4033 31.6693C49.1739 31.742 48.9752 31.889 48.8387 32.0872C48.7022 32.2853 48.6355 32.5233 48.6492 32.7635C48.663 33.0037 48.7564 33.2326 48.9146 33.4138C48.6584 33.3998 48.4054 33.4767 48.2004 33.6311C47.9954 33.7854 47.8515 34.0073 47.7942 34.2574C47.7368 34.5076 47.7698 34.7699 47.8871 34.9981C48.0045 35.2264 48.1987 35.4058 48.4355 35.5047C48.1838 35.5534 47.9576 35.69 47.7972 35.8899C47.6367 36.0899 47.5525 36.3403 47.5595 36.5966C47.5665 36.8529 47.6642 37.0984 47.8353 37.2893C48.0064 37.4802 48.2397 37.6042 48.4937 37.6392C48.3011 37.7853 48.163 37.9916 48.1012 38.2252C48.0395 38.4589 48.0577 38.7065 48.1529 38.9286C48.2481 39.1507 48.4149 39.3346 48.6267 39.451C48.8385 39.5674 49.0832 39.6096 49.3218 39.5709C49.2014 39.7764 49.152 40.0159 49.1812 40.2523C49.2104 40.4887 49.3166 40.7089 49.4834 40.879C49.6502 41.0491 49.8683 41.1596 50.1041 41.1935C50.3399 41.2273 50.5802 41.1826 50.7881 41.0663C50.7401 41.3094 50.7767 41.5615 50.8919 41.7809C51.0071 42.0002 51.1939 42.1735 51.4213 42.2719C51.6487 42.3703 51.9029 42.3878 52.1416 42.3217C52.3804 42.2555 52.5893 42.1096 52.7336 41.9082C52.7464 42.0894 52.8039 42.2646 52.901 42.4182C52.9981 42.5717 53.1317 42.6988 53.29 42.788C53.4482 42.8773 53.6261 42.9259 53.8078 42.9296C53.9894 42.9332 54.1691 42.8918 54.3308 42.809C54.4609 42.649 56.2441 40.4564 56.8717 39.6574C55.3334 37.9155 56.6107 36.7828 57.438 37.93C57.8743 38.5545 58.5095 38.38 58.1345 36.521C58.6156 36.3118 59.0767 36.0592 59.5121 35.7664C59.8182 36.942 60.0478 37.9446 60.2384 38.7864C60.4592 38.7291 60.6564 38.604 60.8025 38.4287C60.9485 38.2534 61.0359 38.0368 61.0525 37.8093C61.069 37.5818 61.0139 37.3548 60.8948 37.1602C60.7756 36.9657 60.5985 36.8133 60.3884 36.7246Z" fill="#FFD647"/>
<path d="M60.2423 38.7865C60.054 37.9446 59.8213 36.9428 59.5167 35.7665C59.0814 36.0593 58.6203 36.3119 58.1391 36.5211C58.5172 38.3801 57.8828 38.5508 57.4427 37.9301C56.6238 36.776 55.3373 37.9156 56.8764 39.6574C56.0359 40.7134 55.1887 41.7639 54.3347 42.809C54.173 42.8921 53.9933 42.9336 53.8116 42.9301C53.6299 42.9265 53.4519 42.8779 53.2936 42.7887C53.1353 42.6994 53.0016 42.5722 52.9046 42.4186C52.8075 42.2649 52.7501 42.0896 52.7375 41.9083C52.5928 42.1088 52.3839 42.254 52.1455 42.3197C51.907 42.3853 51.6533 42.3676 51.4263 42.2694C51.1994 42.1711 51.0127 41.9983 50.8974 41.7796C50.782 41.5608 50.7449 41.3092 50.792 41.0664C50.5841 41.1827 50.3438 41.2274 50.108 41.1935C49.8722 41.1597 49.6541 41.0492 49.4873 40.8791C49.3205 40.709 49.2143 40.4888 49.1851 40.2524C49.1559 40.016 49.2053 39.7765 49.3257 39.5709C49.0871 39.6097 48.8424 39.5675 48.6306 39.4511C48.4188 39.3347 48.252 39.1508 48.1568 38.9287C48.0616 38.7066 48.0434 38.459 48.1051 38.2253C48.1669 37.9916 48.305 37.7853 48.4976 37.6393C48.2436 37.6043 48.0103 37.4803 47.8392 37.2894C47.6681 37.0984 47.5704 36.853 47.5634 36.5967C47.5564 36.3404 47.6406 36.09 47.8011 35.89C47.9615 35.69 48.1877 35.5535 48.4394 35.5048C48.2026 35.4059 48.0084 35.2265 47.891 34.9982C47.7737 34.77 47.7407 34.5076 47.7981 34.2575C47.8554 34.0073 47.9993 33.7855 48.2043 33.6311C48.4093 33.4768 48.6623 33.3998 48.9185 33.4139C48.7595 33.2328 48.6655 33.0038 48.6514 32.7633C48.6373 32.5227 48.7039 32.2843 48.8407 32.0859C48.9774 31.8875 49.1765 31.7404 49.4063 31.6679C49.6361 31.5954 49.8835 31.6017 50.1094 31.6858C50.0348 31.4601 50.0361 31.2163 50.113 30.9914C50.1898 30.7665 50.3381 30.5729 50.5353 30.4401C50.7324 30.3073 50.9675 30.2426 51.2048 30.2558C51.4421 30.269 51.6686 30.3595 51.8497 30.5133C51.8495 30.265 51.9344 30.024 52.0903 29.8306C52.2461 29.6372 52.4635 29.5031 52.7063 29.4504C52.949 29.3978 53.2024 29.43 53.4244 29.5415C53.6463 29.653 53.8234 29.8372 53.926 30.0633C54.0003 29.8112 54.1602 29.5929 54.3781 29.4461C54.596 29.2993 54.8584 29.233 55.1199 29.2589C55.3814 29.2847 55.6257 29.401 55.8107 29.5877C55.9957 29.7743 56.1098 30.0197 56.1332 30.2814C56.279 30.08 56.4895 29.9347 56.7295 29.8696C56.9695 29.8045 57.2245 29.8236 57.4521 29.9238C57.6797 30.0239 57.8662 30.199 57.9803 30.42C58.0944 30.6409 58.1294 30.8942 58.0795 31.1378C58.2885 31.0224 58.5299 30.9792 58.766 31.0149C59.0022 31.0505 59.22 31.1631 59.3856 31.3351C59.5513 31.5072 59.6556 31.729 59.6823 31.9664C59.7091 32.2037 59.6568 32.4432 59.5336 32.6478C59.7741 32.609 60.0207 32.6522 60.2336 32.7706C60.4465 32.889 60.6134 33.0757 60.7073 33.3005C60.8012 33.5253 60.8166 33.7752 60.7511 34.0099C60.6857 34.2445 60.5431 34.4503 60.3463 34.594C60.6014 34.6289 60.8357 34.7537 61.0069 34.9459C61.1782 35.1382 61.2751 35.3852 61.2804 35.6426C61.2857 35.9 61.1989 36.1509 61.0356 36.3499C60.8724 36.549 60.6434 36.6833 60.39 36.7285C60.598 36.8185 60.7729 36.9709 60.8905 37.1646C61.0081 37.3583 61.0626 37.5839 61.0464 37.8099C61.0301 38.036 60.944 38.2514 60.8 38.4264C60.6559 38.6013 60.461 38.7272 60.2423 38.7865Z" stroke="#141220" stroke-width="0.769171" stroke-linecap="round" stroke-linejoin="round"/>
<path d="M60.417 32.8329L64.3087 32.5137C64.7733 32.473 65.2414 32.5247 65.686 32.6656C66.1306 32.8066 66.5429 33.0341 66.8992 33.3351C67.2555 33.636 67.5488 34.0045 67.7621 34.4193C67.9754 34.8341 68.1046 35.2869 68.1422 35.7518L69.2022 48.4861" stroke="#141220" stroke-width="0.769171" stroke-linecap="round" stroke-linejoin="round"/>
<path d="M66.2686 63.0938L66.864 63.0502C67.3838 63.0444 67.8916 62.8935 68.3303 62.6147" stroke="#141220" stroke-width="0.769171" stroke-linecap="round" stroke-linejoin="round"/>
<path d="M39.3186 65.3562L31.5069 66.0244C30.5695 66.1028 29.6393 65.8059 28.9206 65.1989C28.202 64.5918 27.7537 63.7244 27.6742 62.787L25.6844 39.3214C25.6055 38.3837 25.9024 37.453 26.5096 36.7342C27.1168 36.0153 27.9847 35.567 28.9224 35.4879L48.0227 33.8784" stroke="#141220" stroke-width="0.769171" stroke-linecap="round" stroke-linejoin="round"/>
<path d="M64.4683 110.823L110.992 106.903C112.262 106.794 113.438 106.186 114.261 105.211C115.083 104.236 115.485 102.975 115.377 101.704L112.676 69.9763C112.568 68.7057 111.959 67.53 110.985 66.7077C110.01 65.8854 108.749 65.4838 107.478 65.591L82.6202 67.6827" stroke="#141220" stroke-width="0.769171" stroke-linecap="round" stroke-linejoin="round"/>
<path d="M65.8477 69.1055L73.5728 68.4519" stroke="#141220" stroke-width="0.769171" stroke-linecap="round" stroke-linejoin="round"/>
<path d="M90.9106 16.8137L76.5638 18.0482C75.2498 18.1949 74.0474 18.8563 73.22 19.8877C72.3926 20.919 72.0076 22.2363 72.1494 23.5509L75.0248 56.6435" stroke="#141220" stroke-width="0.769171" stroke-linecap="round" stroke-linejoin="round"/>
<path d="M85.3926 61.4966L128.91 57.7358C129.876 57.6485 130.794 57.272 131.542 56.6554C132.291 56.0389 132.836 55.2108 133.107 54.2795" stroke="#141220" stroke-width="0.769171" stroke-linecap="round" stroke-linejoin="round"/>
<path d="M131.713 33.5446L130.421 18.5159C130.334 17.1956 129.728 15.9634 128.734 15.0895C127.741 14.2156 126.441 13.7714 125.121 13.8543L107.595 15.3651" stroke="#141220" stroke-width="0.769171" stroke-linecap="round" stroke-linejoin="round"/>
<path d="M115.784 37.9153C114.288 40.2671 111.138 47.1359 109.308 51.5932C112.82 52.9662 115.78 55.4628 117.726 58.6939" stroke="#141220" stroke-width="0.769171" stroke-linecap="round" stroke-linejoin="round"/>
<path d="M92.3916 45.437C92.9228 48.1718 93.6161 50.8725 94.4679 53.525C93.6689 56.5304 93.3498 59.2021 92.9725 60.843" stroke="#141220" stroke-width="0.769171" stroke-linecap="round" stroke-linejoin="round"/>
<path d="M93.785 34.2563C92.6884 35.9471 92.0483 37.8929 91.9268 39.9044" stroke="#141220" stroke-width="0.769171" stroke-linecap="round" stroke-linejoin="round"/>
<path d="M109.293 51.6079C105.198 54.5559 97.4587 56.1233 94.4678 53.525" stroke="#141220" stroke-width="0.769171" stroke-linecap="round" stroke-linejoin="round"/>
<path d="M107.435 52.7258C109.619 54.4339 111.369 56.6327 112.545 59.1438" stroke="#141220" stroke-width="0.769171" stroke-linecap="round" stroke-linejoin="round"/>
<path d="M97.0474 23.7699C97.476 22.8591 97.7293 21.8757 97.7944 20.8716C97.3912 21.3143 96.9691 21.7395 96.5293 22.1458" stroke="#141220" stroke-width="0.769171" stroke-linecap="round" stroke-linejoin="round"/>
<path d="M113.707 41.807L118.906 50.5914C122.928 57.8811 131.304 60.174 136.563 49.285C139.045 44.1443 140.222 40.6889 142.4 37.1163C138.838 36.101 135.595 34.1917 132.979 31.57C130.561 35.2086 128.411 39.018 126.546 42.968C116.018 20.5922 114.726 24.5374 107.712 24.1494C105.573 24.0904 103.512 23.3303 101.846 21.9858" stroke="#141220" stroke-width="0.769171" stroke-linecap="round" stroke-linejoin="round"/>
<path d="M86.5107 41.981C88.5871 34.9239 93.2387 31.6621 95.2806 29.4358C96.2417 28.5144 96.8817 27.309 97.1065 25.9967C97.3313 24.6845 97.1291 23.3348 96.5296 22.146C92.8706 25.3696 90.8524 22.7996 90.8524 14.2632" stroke="#141220" stroke-width="0.769171" stroke-linecap="round" stroke-linejoin="round"/>
<path d="M108.596 24.1787C105.686 26.5176 103.059 29.1889 100.769 32.1381C100.41 32.5851 99.9418 32.9313 99.4092 33.1429C98.8765 33.3545 98.298 33.4242 97.7303 33.3453C97.1626 33.2665 96.6251 33.0416 96.1703 32.6928C95.7155 32.3439 95.3591 31.883 95.1357 31.3552C94.9606 30.948 94.796 30.5364 94.6421 30.1207" stroke="#141220" stroke-width="0.769171" stroke-linecap="round" stroke-linejoin="round"/>
<path d="M126.543 42.968L124.816 46.8597" stroke="#141220" stroke-width="0.769171" stroke-linecap="round" stroke-linejoin="round"/>
<path d="M54.3325 42.8088C52.3029 45.4109 50.8664 45.2403 47.0436 46.9469C39.2602 50.4177 41.932 64.3282 41.932 64.3282" stroke="#141220" stroke-width="0.769171" stroke-linecap="round" stroke-linejoin="round"/>
<path d="M60.2424 38.7864C60.8768 41.7275 60.8194 42.8533 60.4023 43.4617C60.0962 43.9125 58.8633 44.0572 57.7451 44.0572" stroke="#141220" stroke-width="0.769171" stroke-linecap="round" stroke-linejoin="round"/>
<path d="M60.5354 43.2175C60.1291 44.0594 58.5877 43.2175 57.0479 42.0994C57.3387 43.4356 57.5415 45.0367 58.6305 45.1048C68.2844 45.7102 69.3038 46.8038 77.6818 61.1766" stroke="#141220" stroke-width="0.769171" stroke-linecap="round" stroke-linejoin="round"/>
<path d="M76.6511 59.3912C77.0138 58.3748 79.2647 53.7423 80.5718 49.5606C83.4341 49.2522 86.311 50.0014 88.6598 51.666C87.759 55.935 85.1462 62.4119 82.8946 67.1722C82.512 67.977 81.9433 68.6791 81.2356 69.2205C80.5279 69.7618 79.7014 70.127 78.8246 70.2856C77.9479 70.4445 77.046 70.3925 76.1934 70.134C75.3407 69.8754 74.5619 69.4177 73.9212 68.7986C70.1618 65.1021 66.8214 61.0025 63.9604 56.574" stroke="#141220" stroke-width="0.769171" stroke-linecap="round" stroke-linejoin="round"/>
<path d="M63.9746 56.574L66.1236 63.2974" stroke="#141220" stroke-width="0.769171" stroke-linecap="round" stroke-linejoin="round"/>
<path d="M48.1045 68.7863C52.4171 70.1639 59.7933 69.6427 65.5585 68.0745C66.4294 66.361 66.0667 59.5947 66.0667 59.5947" stroke="#141220" stroke-width="0.769171" stroke-linecap="round" stroke-linejoin="round"/>
<path d="M48.0598 68.4517C46.2016 71.1235 42.5494 71.2222 40.8718 68.4372C38.758 64.9167 37.8519 59.8992 37.4019 54.3231C37.4019 54.3231 40.6928 53.27 42.0703 53.6825" stroke="#141220" stroke-width="0.769171" stroke-linecap="round" stroke-linejoin="round"/>
<path d="M52.8492 87.5298L37.5159 101.107C36.5016 101.999 35.1985 102.493 33.8477 102.498C32.4969 102.504 31.19 102.019 30.1688 101.135L15.0835 88.0839" stroke="#141220" stroke-width="0.769171" stroke-linecap="round" stroke-linejoin="round"/>
<path d="M35.3547 90.1603L23.9414 79.4006" stroke="#141220" stroke-width="0.769171" stroke-linecap="round" stroke-linejoin="round"/>
<path d="M45.7217 54.2222C45.7217 54.2222 48.2473 64.401 48.0888 69.0473C45.0166 70.7937 42.6426 73.5486 41.3693 76.8452C39.5149 81.8558 33.0923 87.9531 33.0923 87.9531" stroke="#141220" stroke-width="0.769171" stroke-linecap="round" stroke-linejoin="round"/>
<path d="M65.5573 68.0747C68.4028 77.7599 68.686 84.2231 68.8819 93.6014C69.0383 96.26 68.6744 98.9237 67.8104 101.443L61.1605 120.145C57.0933 119.718 53.1836 118.34 49.7472 116.123L56.3979 97.0721C56.526 93.818 55.4343 90.6334 53.3366 88.1423C51.26 85.6126 49.959 82.5365 49.5903 79.2844" stroke="#141220" stroke-width="0.769171" stroke-linecap="round" stroke-linejoin="round"/>
<path d="M50.9937 45.3935C50.9937 45.3935 53.3164 47.9489 58.8344 45.1172" stroke="#141220" stroke-width="0.769171" stroke-linecap="round" stroke-linejoin="round"/>
<path d="M38.5491 53.9895C38.5037 51.774 38.2557 49.5673 37.8083 47.397C37.38 45.7266 36.7662 44.1093 35.9784 42.5754C34.8227 40.3223 35.1977 39.7123 37.0537 41.7627C38.8863 44.0633 40.3958 46.6037 41.54 49.3134" stroke="#141220" stroke-width="0.769171" stroke-linecap="round" stroke-linejoin="round"/>
<path d="M40.8955 47.8784C41.8177 48.9238 42.3695 45.7355 42.7162 45.0298C43.1953 44.0571 43.7877 42.9979 43.7471 45.9888C43.7356 46.8161 43.8344 48.1378 43.9652 49.4442" stroke="#141220" stroke-width="0.769171" stroke-linecap="round" stroke-linejoin="round"/>
<path d="M36.9377 44.7108C36.5168 44.2463 35.5601 43.3179 35.2823 43.0554C34.0134 41.8416 33.7609 42.2695 33.9047 42.5197C34.4558 43.4856 35.489 44.9733 35.9711 45.8871C36.7426 47.3673 38.3084 50.1852 38.3957 51.637" stroke="#141220" stroke-width="0.769171" stroke-linecap="round" stroke-linejoin="round"/>
<path d="M35.9213 45.7998C35.6741 45.6261 35.4698 45.483 35.355 45.408C33.884 44.449 33.7286 44.8852 33.9008 45.1018C34.598 45.9728 35.8639 47.2631 36.4861 48.0927C37.2166 49.1148 37.8486 50.2039 38.3734 51.3453" stroke="#141220" stroke-width="0.769171" stroke-linecap="round" stroke-linejoin="round"/>
<path d="M87.9778 51.187C88.7567 48.8645 89.7383 46.6149 90.9113 44.4644C91.9041 42.8411 93.078 41.3358 94.4103 39.9773C96.3665 37.9874 96.1706 37.2037 93.5394 38.7574C90.8555 40.5902 88.4326 42.7785 86.3369 45.2626" stroke="#141220" stroke-width="0.769171" stroke-linecap="round" stroke-linejoin="round"/>
<path d="M87.5577 43.8848C86.0929 44.977 86.6332 41.2468 86.4962 40.3689C86.3118 39.1919 86.0462 37.8717 85.1018 41.0516C84.8408 41.9218 83.7801 44.6188 81.7803 49.487" stroke="#141220" stroke-width="0.769171" stroke-linecap="round" stroke-linejoin="round"/>
<path d="M92.6961 41.9081C93.2916 41.5453 94.5987 40.8917 94.976 40.7035C96.7187 39.8318 96.8327 40.382 96.6169 40.5871C95.7238 41.4359 94.1495 42.665 93.3497 43.4762C92.0594 44.7857 89.4871 47.2516 88.9062 48.7623" stroke="#141220" stroke-width="0.769171" stroke-linecap="round" stroke-linejoin="round"/>
<path d="M93.4223 43.4042C93.7415 43.3024 94.0032 43.2159 94.1486 43.1746C96.0099 42.6044 96.0351 43.1585 95.7749 43.3345C94.754 44.0233 93.0029 44.9777 92.0715 45.6573C90.9698 46.4995 89.949 47.4426 89.0225 48.4745" stroke="#141220" stroke-width="0.769171" stroke-linecap="round" stroke-linejoin="round"/>
<path d="M18.6125 74.4054C16.028 70.6928 0.184967 83.5005 0.990089 87.7404C1.11484 88.3971 1.68271 88.9848 3.00749 88.805C8.09919 88.1154 20.5219 77.1529 18.6125 74.4054Z" stroke="#141220" stroke-width="0.769171" stroke-linecap="round" stroke-linejoin="round"/>
<path d="M18.6128 74.4053C19.411 75.4216 22.1555 78.7033 24.1155 81.1401" stroke="#141220" stroke-width="0.769171" stroke-linecap="round" stroke-linejoin="round"/>
<path d="M59.5604 119.942C58.9482 122.25 55.5119 127.317 58.1515 133.809C59.5038 137.134 60.286 141.982 58.4576 143.202" stroke="#141220" stroke-width="0.769171" stroke-linecap="round" stroke-linejoin="round"/>
<path d="M47.5371 124.821C48.699 122.202 49.8414 119.574 50.9642 116.938" stroke="#141220" stroke-width="0.769171" stroke-linecap="round" stroke-linejoin="round"/>
<path d="M48.0021 124.385C44.7556 125.929 53.4221 141.8 57.3972 143.248C58.4954 143.648 59.0197 142.865 58.9768 141.7C58.7962 136.851 50.5116 123.194 48.0021 124.385Z" stroke="#141220" stroke-width="0.769171" stroke-linecap="round" stroke-linejoin="round"/>
<path d="M22.4896 79.1388C22.6888 79.0488 22.9079 79.0117 23.1256 79.0312C23.3433 79.0506 23.5524 79.1259 23.7325 79.2498C23.9126 79.3739 24.0573 79.5427 24.1524 79.7397C24.2476 79.9367 24.2898 80.155 24.2751 80.3732C24.0348 83.4345 18.3477 88.6786 15.7907 88.3694C15.0254 88.276 14.5402 87.7349 14.7958 86.7048" stroke="#141220" stroke-width="0.769171" stroke-linecap="round" stroke-linejoin="round"/>
<path d="M60.2554 114.739L64.7119 100.644C65.4853 98.4411 65.811 96.1061 65.67 93.7758C65.0524 83.685 64.3055 75.8863 62.4901 68.7864" stroke="#141220" stroke-width="0.769171" stroke-linecap="round" stroke-linejoin="round"/>
<path d="M51.5591 110.924C54.8553 113.432 58.8476 114.858 62.9869 115.005" stroke="#141220" stroke-width="0.769171" stroke-linecap="round" stroke-linejoin="round"/>
<path d="M19.3818 91.8011C23.7817 90.3921 26.2506 87.2092 27.7315 83.0596" stroke="#141220" stroke-width="0.769171" stroke-linecap="round" stroke-linejoin="round"/>
<path d="M50.6156 83.5098L38.2587 94.4585C37.2422 95.3638 35.93 95.8665 34.5688 95.8718C33.2077 95.8772 31.8915 95.3849 30.8679 94.4876L24.3481 88.766" stroke="#141220" stroke-width="0.769171" stroke-linecap="round" stroke-linejoin="round"/>
<path d="M52.7065 72.6482C52.5183 72.6773 52.242 76.3371 52.7356 77.818C53.6799 79.1232 54.8869 80.2163 56.2791 81.027C57.0754 79.7005 58.0313 78.4765 59.1253 77.3825C58.9799 75.5381 58.8054 74.5654 58.6026 72.6191C56.6478 72.8986 54.664 72.9084 52.7065 72.6482Z" stroke="#141220" stroke-width="0.769171" stroke-linecap="round" stroke-linejoin="round"/>
<path d="M44.4737 71.9082C45.2191 71.9188 45.9511 72.108 46.6082 72.46C45.272 73.1128 43.9219 76.4397 43.9219 76.4397L40.9448 77.8632" stroke="#141220" stroke-width="0.769171" stroke-linecap="round" stroke-linejoin="round"/>
<path d="M138.944 24.467C141.24 25.1926 142.516 26.3689 143.995 28.2569" stroke="#141220" stroke-width="0.769171" stroke-linecap="round" stroke-linejoin="round"/>
<path d="M138.378 25.5439C139.18 26.3571 139.803 27.3283 140.208 28.3957C140.613 29.463 140.791 30.6031 140.73 31.7431" stroke="#141220" stroke-width="0.769171" stroke-linecap="round" stroke-linejoin="round"/>
<path d="M142.792 26.8212C143.683 25.6475 144.428 24.37 145.012 23.0168C146.083 20.505 146.74 21.2022 146.144 23.5831C146.005 24.1393 145.851 24.6913 145.68 25.2385C145.256 26.5791 144.85 27.9249 144.46 29.2756C144.049 30.7114 141.322 36.7827 141.322 36.7827C138.767 36.1 136.109 34.2418 134.033 32.5282C134.077 32.441 135.181 30.4091 135.223 30.3356C135.448 29.9295 135.544 29.4644 135.497 29.0025C135.45 28.5406 135.264 28.104 134.962 27.7511C133.912 26.4914 132.506 24.6133 132.972 24.1058C133.695 23.3199 135.978 25.9778 137.198 26.1393C137.633 26.1967 137.982 24.8758 138.054 24.3967C138.186 23.5257 138.644 20.5624 138.679 20.2731C138.995 17.5807 139.957 18.0368 139.942 20.4177C139.928 22.6831 139.928 24.1495 139.928 24.1495" stroke="#141220" stroke-width="0.769171" stroke-linecap="round" stroke-linejoin="round"/>
<path d="M139.743 24.7303C139.743 24.7303 141.326 19.7649 141.426 19.4304C142.214 16.8322 143.04 17.4268 142.646 19.7641C142.27 22.0012 141.862 24.7303 141.862 24.7303" stroke="#141220" stroke-width="0.769171" stroke-linecap="round" stroke-linejoin="round"/>
<path d="M141.474 25.5293C142.232 24.0107 142.901 22.4493 143.478 20.8532C144.419 18.297 145.111 18.9499 144.669 21.2749C144.426 22.7204 144.082 24.147 143.638 25.5439" stroke="#141220" stroke-width="0.769171" stroke-linecap="round" stroke-linejoin="round"/>
<path d="M125.658 70.1072C125.697 70.4539 125.667 70.8049 125.57 71.14C125.473 71.4752 125.311 71.7879 125.093 72.0603C124.875 72.3325 124.605 72.5586 124.298 72.7257C123.992 72.8928 123.655 72.9975 123.308 73.0338C122.786 73.0885 122.259 72.9863 121.794 72.7401C121.33 72.4939 120.95 72.115 120.702 71.6516C120.537 71.3438 120.435 71.0064 120.402 70.659L119.981 66.6793C119.914 65.9856 120.125 65.2938 120.566 64.7542C121.007 64.2146 121.643 63.8709 122.336 63.7979C123.029 63.7252 123.722 63.9292 124.266 64.3655C124.809 64.8018 125.158 65.4351 125.237 66.1275L125.658 70.1072Z" stroke="#141220" stroke-width="0.769171" stroke-linecap="round" stroke-linejoin="round"/>
<path d="M118.252 69.0619L118.455 71.0219C118.583 72.2387 119.188 73.3552 120.138 74.1258C121.088 74.8965 122.306 75.2583 123.522 75.1317C124.739 75.0034 125.856 74.3983 126.627 73.4488C127.398 72.4982 127.759 71.2807 127.632 70.0638L127.429 68.1038" stroke="#141220" stroke-width="0.769171" stroke-linecap="round" stroke-linejoin="round"/>
<path d="M123.523 75.1318L123.915 78.7909" stroke="#141220" stroke-width="0.769171" stroke-linecap="round" stroke-linejoin="round"/>
<path d="M121.955 78.9943L125.861 78.5872" stroke="#141220" stroke-width="0.769171" stroke-linecap="round" stroke-linejoin="round"/>
<path d="M91.5636 90.1748L96.2543 92.3675L95.4117 82.406L91.1572 85.3678" stroke="#141220" stroke-width="0.769171" stroke-linecap="round" stroke-linejoin="round"/>
<path d="M87.1209 82.2177C88.0674 82.1348 89.0101 82.4137 89.7591 82.9983C90.5081 83.5828 91.0077 84.4295 91.1572 85.3678L91.549 89.8832C91.6144 90.6257 91.4579 91.3709 91.0995 92.0244C90.741 92.678 90.1967 93.2105 89.5355 93.5545C89.0961 93.7825 88.616 93.9217 88.1227 93.9639L79.062 94.7185C78.5685 94.7637 78.071 94.7109 77.5979 94.5632C77.1254 94.4146 76.6868 94.174 76.3075 93.8554C75.9282 93.5368 75.6156 93.1463 75.3877 92.7065C75.1602 92.2665 75.0221 91.7858 74.9813 91.2922L74.6185 87.0829C74.5736 86.5896 74.6266 86.0922 74.7747 85.6195C74.9227 85.1468 75.1628 84.708 75.481 84.3285C75.7992 83.9486 76.1897 83.6357 76.6299 83.408C77.07 83.1803 77.551 83.0424 78.0449 83.0022L87.1209 82.2177Z" stroke="#141220" stroke-width="0.769171" stroke-linecap="round" stroke-linejoin="round"/>
<path d="M112.154 7.00077C112.087 6.16214 111.798 5.35644 111.317 4.66626C110.836 3.97608 110.18 3.42627 109.416 3.0732C108.653 2.72013 107.809 2.5765 106.971 2.65704C106.134 2.73759 105.333 3.03941 104.651 3.53155C103.736 4.1899 103.086 5.15221 102.817 6.24616C104.009 6.79624 105.056 7.61687 105.876 8.64281C106.695 9.66875 107.264 10.8717 107.537 12.156C108.185 12.141 108.823 11.9932 109.412 11.7218C110.001 11.4504 110.529 11.0611 110.961 10.578C111.394 10.0949 111.723 9.52818 111.928 8.91291C112.133 8.29765 112.21 7.64687 112.154 7.00077Z" stroke="#141220" stroke-width="0.769171" stroke-linecap="round" stroke-linejoin="round"/>
<path d="M107.667 13.2016C107.531 11.5607 106.918 9.99552 105.903 8.69918C104.888 7.40284 103.515 6.43208 101.955 5.90666C100.394 5.38125 98.714 5.32418 97.1215 5.74249C95.529 6.16081 94.0938 7.0362 92.993 8.26067C91.517 9.90188 90.7433 12.0563 90.8378 14.2616C92.5868 13.7875 94.3842 13.5146 96.1951 13.448C96.2931 14.0427 96.4285 14.6305 96.6015 15.2083C96.7614 15.571 97.0079 15.6001 97.4433 14.932C98.4168 13.5238 100.391 15.7019 98.0824 17.3864C99.0788 19.1112 100.345 20.6653 101.832 21.9898C103.656 21.4016 105.226 20.212 106.286 18.6157C107.346 17.0193 107.833 15.1106 107.667 13.2016Z" stroke="#141220" stroke-width="0.769171" stroke-linecap="round" stroke-linejoin="round"/>
<path d="M10.4375 62.2084L13.472 61.9031" stroke="#141220" stroke-width="0.769171" stroke-linecap="round" stroke-linejoin="round"/>
<path d="M18.8447 61.3512L21.88 61.0466" stroke="#141220" stroke-width="0.769171" stroke-linecap="round" stroke-linejoin="round"/>
<path d="M15.5771 55.906L15.8825 58.9413" stroke="#141220" stroke-width="0.769171" stroke-linecap="round" stroke-linejoin="round"/>
<path d="M16.4346 64.3137L16.7392 67.3482" stroke="#141220" stroke-width="0.769171" stroke-linecap="round" stroke-linejoin="round"/>
<path d="M11.7007 57.9976L14.0671 59.9139" stroke="#141220" stroke-width="0.769171" stroke-linecap="round" stroke-linejoin="round"/>
<path d="M18.249 63.3264L20.6162 65.2573" stroke="#141220" stroke-width="0.769171" stroke-linecap="round" stroke-linejoin="round"/>
<path d="M19.7887 57.1694L17.8716 59.5366" stroke="#141220" stroke-width="0.769171" stroke-linecap="round" stroke-linejoin="round"/>
<path d="M14.4592 63.7185L12.5283 66.0857" stroke="#141220" stroke-width="0.769171" stroke-linecap="round" stroke-linejoin="round"/>
<path d="M80.7464 27.4456L78.9861 23.1475C80.0622 21.5476 80.5826 19.6384 80.467 17.7137C80.1479 12.6626 75.4572 8.74028 69.8673 8.90023C64.1602 9.05942 59.6594 13.4156 59.8185 18.629C59.977 24.1325 65.1253 28.0724 70.7497 27.741C72.7644 27.614 74.7072 26.9438 76.3718 25.8017L80.7464 27.4456Z" stroke="#141220" stroke-width="0.769171" stroke-linecap="round" stroke-linejoin="round"/>
<path d="M47.2908 25.2531C47.0223 25.5103 46.6836 25.682 46.3175 25.7467C45.9514 25.8114 45.5743 25.7661 45.234 25.6164C44.8936 25.4668 44.6053 25.2196 44.4055 24.9061C44.2056 24.5926 44.1032 24.2269 44.1113 23.8552C44.1193 23.4835 44.2374 23.1225 44.4506 22.8179C44.6638 22.5133 44.9625 22.2788 45.309 22.144C45.6555 22.0092 46.0341 21.9802 46.3971 22.0606C46.7601 22.1411 47.0911 22.3273 47.3482 22.5959C47.6917 22.9564 47.8785 23.4384 47.8678 23.9363C47.857 24.4342 47.6496 24.9077 47.2908 25.2531Z" stroke="#141220" stroke-width="0.769171" stroke-linecap="round" stroke-linejoin="round"/>
<path d="M124.946 0.480957L125.6 8.40972" stroke="#141220" stroke-width="0.769171" stroke-linecap="round" stroke-linejoin="round"/>
<path d="M129.244 4.11108L121.316 4.77921" stroke="#141220" stroke-width="0.769171" stroke-linecap="round" stroke-linejoin="round"/>
<path d="M16.8702 88.2433C16.3174 87.5658 15.6043 87.0371 14.7954 86.705C13.3872 86.196 12.0058 86.646 10.3649 87.1114C7.05875 88.0298 3.51452 90.0242 1.65479 88.6474" stroke="#141220" stroke-width="0.769171" stroke-linecap="round" stroke-linejoin="round"/>
<path d="M50.7752 89.4051L50.6152 83.5098" stroke="#141220" stroke-width="0.769171" stroke-linecap="round" stroke-linejoin="round"/>
</svg>
