<svg width="88" height="88" viewBox="0 0 88 88" fill="none" xmlns="http://www.w3.org/2000/svg">
<path d="M65.9336 13.2156C64.6288 10.419 62.524 8.07208 59.8854 6.47168C57.2469 4.87128 54.193 4.08924 51.1099 4.22446C48.0269 4.35968 45.0532 5.40609 42.5649 7.23135C40.0765 9.05661 38.1853 11.5788 37.1304 14.4788C36.0755 17.3789 35.9042 20.5267 36.6383 23.5241C37.3723 26.5216 38.9787 29.234 41.2543 31.3185C43.53 33.4029 46.3726 34.7658 49.4227 35.2347C52.4729 35.7036 55.5936 35.2575 58.3903 33.9528C60.2482 33.0877 61.9173 31.8647 63.3021 30.3538C64.6869 28.843 65.7603 27.0739 66.4607 25.1478C67.1613 23.2218 67.4754 21.1766 67.3849 19.1292C67.2945 17.0818 66.8013 15.0722 65.9336 13.2156Z" fill="#FECFC4"/>
<path d="M80.5668 59.315L28.079 83.7955L25.1011 77.4071L77.5889 52.9349L80.5668 59.315Z" fill="#FECFC4"/>
<path d="M28.6444 16.4843C28.1714 16.7049 27.7464 17.0165 27.3939 17.4014C27.0413 17.7863 26.768 18.2368 26.5895 18.7273C26.4111 19.2178 26.331 19.7387 26.3539 20.2601C26.3768 20.7816 26.5022 21.2934 26.7229 21.7664C28.7976 20.0491 31.2776 18.8921 33.9265 18.4058C33.4801 17.4513 32.6732 16.7129 31.6829 16.3526C30.6926 15.9924 29.5998 16.0397 28.6444 16.4843Z" fill="#FECFC4"/>
<path d="M59.4803 82.6138C56.546 83.9807 53.189 84.1265 50.1473 83.019C47.1056 81.9115 44.6282 79.6414 43.2598 76.7079L65.3862 66.3933C66.0637 67.8461 66.4483 69.4181 66.5181 71.0196C66.5879 72.621 66.3415 74.2206 65.7929 75.7268C65.2445 77.233 64.4047 78.6165 63.3216 79.7982C62.2385 80.9799 60.9332 81.9366 59.4803 82.6138Z" fill="#6153BD"/>
<path d="M55.5142 34.9758C60.347 42.6373 66.96 50.5475 77.5907 52.9348" stroke="#120071" stroke-width="0.769171" stroke-linecap="round" stroke-linejoin="round"/>
<path d="M25.1011 77.4071C32.0884 63.8984 25.9189 49.3516 22.1897 39.576C21.2618 37.2382 20.9111 34.7113 21.1674 32.2092C21.4237 29.7071 22.2795 27.3037 23.6622 25.2027C25.0449 23.1017 26.9138 21.3651 29.1104 20.1399C31.307 18.9148 33.7666 18.2373 36.2808 18.1649" stroke="#120071" stroke-width="0.769171" stroke-linecap="round" stroke-linejoin="round"/>
<path d="M80.5668 59.3151L28.079 83.7956L25.1011 77.4072L77.5889 52.9351L80.5668 59.3151Z" stroke="#120071" stroke-width="0.769171" stroke-linecap="round" stroke-linejoin="round"/>
<path d="M65.3862 66.3938C66.0701 67.8474 66.4602 69.4218 66.5341 71.0265C66.608 72.6313 66.3643 74.2349 65.817 75.7452C65.27 77.2556 64.4301 78.6431 63.3456 79.8281C62.2614 81.0136 60.9538 81.9732 59.4978 82.652C58.0418 83.3308 56.466 83.7154 54.861 83.7836C53.2561 83.8519 51.6534 83.6029 50.1449 83.0507C48.6364 82.4985 47.2516 81.6541 46.07 80.5658C44.8885 79.4775 43.9335 78.1666 43.2598 76.7084" stroke="#120071" stroke-width="0.769171" stroke-linecap="round" stroke-linejoin="round"/>
<path d="M26.7233 21.7665C26.2941 20.8137 26.2574 19.7301 26.6211 18.7504C26.9849 17.7707 27.7199 16.9737 28.6669 16.5319C29.614 16.0901 30.697 16.039 31.6814 16.3897C32.6658 16.7405 33.4725 17.4648 33.9269 18.406" stroke="#120071" stroke-width="0.769171" stroke-linecap="round" stroke-linejoin="round"/>
<path d="M65.934 13.2157C64.6293 10.4191 62.5245 8.0722 59.8859 6.4718C57.2474 4.8714 54.1935 4.08936 51.1104 4.22459C48.0274 4.35981 45.0537 5.40621 42.5654 7.23147C40.077 9.05673 38.1858 11.5789 37.1309 14.479C36.076 17.3791 35.9047 20.5268 36.6388 23.5243C37.3728 26.5217 38.9792 29.2341 41.2548 31.3186C43.5304 33.403 46.3731 34.7659 49.4232 35.2348C52.4734 35.7037 55.5941 35.2576 58.3907 33.9529C60.2487 33.0878 61.9178 31.8648 63.3026 30.354C64.6874 28.8431 65.7607 27.074 66.4612 25.1479C67.1618 23.222 67.4759 21.1768 67.3854 19.1293C67.295 17.0819 66.8018 15.0723 65.934 13.2157Z" stroke="#120071" stroke-width="0.769171" stroke-linecap="round" stroke-linejoin="round"/>
<path d="M48.6914 13.1324L54.9051 26.4915" stroke="#120071" stroke-width="0.769171" stroke-linecap="round" stroke-linejoin="round"/>
<path d="M58.4738 16.7091L45.123 22.9145" stroke="#120071" stroke-width="0.769171" stroke-linecap="round" stroke-linejoin="round"/>
<path d="M81.9895 33.4871C79.4524 36.1738 76.2105 37.7775 72.881 38.7192C72.7996 38.7425 72.7247 38.7843 72.6622 38.8414C72.5996 38.8985 72.5511 38.9693 72.5205 39.0483C72.4899 39.1272 72.478 39.2122 72.4857 39.2965C72.4934 39.3809 72.5205 39.4623 72.5649 39.5344L73.9541 41.747C76.0747 40.6725 78.0507 39.3339 79.8351 37.763C78.3281 39.6704 76.5845 41.3781 74.6462 42.845C75.1121 43.5937 75.5779 44.3335 76.052 45.0826C76.1207 45.1883 76.2232 45.2675 76.3427 45.3072C76.4623 45.347 76.5918 45.345 76.71 45.3015C76.7884 45.2726 76.8593 45.2262 76.9171 45.1658C79.8093 42.0017 81.8703 38.1687 82.915 34.0111C82.946 33.8936 82.9372 33.7692 82.89 33.6573C82.8429 33.5453 82.7599 33.4522 82.6542 33.3923C82.5485 33.3324 82.426 33.3093 82.3057 33.3264C82.1854 33.3436 82.0742 33.4 81.9895 33.4871Z" stroke="#120071" stroke-width="0.769171" stroke-linecap="round" stroke-linejoin="round"/>
<path d="M79.8264 37.7626C74.902 42.8848 65.3685 48.2238 53.7738 51.8203C35.4221 57.5117 18.8628 56.7114 16.7828 50.0254C15.8516 47.0308 17.9806 43.3708 22.2478 39.7274" stroke="#120071" stroke-width="0.769171" stroke-linecap="round" stroke-linejoin="round"/>
<path d="M9.20524 22.407C9.20793 22.5311 9.18582 22.6544 9.1402 22.7698C9.09457 22.8853 9.02636 22.9904 8.93957 23.0791C8.85277 23.1678 8.74913 23.2383 8.63474 23.2864C8.52034 23.3345 8.39749 23.3593 8.27339 23.3593C8.14928 23.3593 8.02643 23.3345 7.91203 23.2864C7.79764 23.2383 7.694 23.1678 7.6072 23.0791C7.52041 22.9904 7.4522 22.8853 7.40657 22.7698C7.36095 22.6544 7.33884 22.5311 7.34153 22.407C7.34681 22.1633 7.44731 21.9315 7.62149 21.761C7.79567 21.5906 8.02968 21.4951 8.27339 21.4951C8.51709 21.4951 8.7511 21.5906 8.92528 21.761C9.09946 21.9315 9.19996 22.1633 9.20524 22.407Z" stroke="#120071" stroke-width="0.769171" stroke-linecap="round" stroke-linejoin="round"/>
<path d="M4.55518 67.5583L8.27341 75.5688" stroke="#120071" stroke-width="0.769171" stroke-linecap="round" stroke-linejoin="round"/>
<path d="M10.4196 69.7042L2.40918 73.4225" stroke="#120071" stroke-width="0.769171" stroke-linecap="round" stroke-linejoin="round"/>
<path d="M82.8794 75.078L82.9459 78.8877L85.5246 77.6899L85.5911 81.4913" stroke="#120071" stroke-width="0.769171" stroke-linecap="round" stroke-linejoin="round"/>
</svg>
