<svg width="96" height="293" viewBox="0 0 96 293" fill="none" xmlns="http://www.w3.org/2000/svg">
<path d="M82.7202 12.9755L85.6506 2.03941L78.2325 0.0517403L75.3021 10.9879L66.6813 3.00425L62.0548 9.66818L72.9517 19.7598L71.0146 26.9893L58.8742 15.7462L54.2477 22.4102L68.6642 35.7612L66.6331 43.3413L51.8108 29.6145L47.1842 36.2784L64.2827 52.1132L62.2259 59.789L44.0966 42.9996L39.4701 49.6635L59.8755 68.5609L58.0021 75.5528L37.6791 56.7318L33.0526 63.3957L55.6516 84.3246L54.1317 89.997L33.8088 71.1761L29.1822 77.84L51.7813 98.7689L49.7279 106.432L29.405 87.6113L24.7784 94.2752L47.3775 115.204L45.8263 120.993L25.5033 102.172L20.8768 108.836L43.4759 129.765L41.7701 136.131L21.4472 117.31L16.8206 123.974L39.4197 144.903L37.405 152.422L17.082 133.601L12.4555 140.265L35.0546 161.194L32.808 169.578L12.485 150.757L7.85849 157.421L30.4576 178.35L28.7905 184.572L8.46753 165.751L3.84099 172.415L26.4401 193.344L24.2965 201.344L6.00807 184.407L1.38152 191.071L21.9461 210.115L20.3941 215.908L5.2325 201.867L0.605949 208.53L18.0437 224.679L16.2235 231.473L6.47059 222.441L1.84404 229.104L13.873 240.244L0.317584 290.834L7.73565 292.822L21.2911 242.232L37.2786 238.599L36.6038 230.515L23.6415 233.46L25.4618 226.667L48.6377 221.4L47.9629 213.316L27.8122 217.895L29.3642 212.103L56.6959 205.892L56.0211 197.808L31.7146 203.331L33.8582 195.331L63.8939 188.506L63.2191 180.421L36.2086 186.559L37.8757 180.338L67.9114 173.512L67.2366 165.428L40.2261 171.566L42.4726 163.182L72.5084 156.356L71.8336 148.272L44.8231 154.41L46.8378 146.891L76.8735 140.065L76.1988 131.981L49.1882 138.119L50.894 131.753L80.9297 124.927L80.2549 116.843L53.2444 122.981L54.7956 117.192L84.8313 110.366L84.1566 102.282L57.146 108.42L59.1994 100.756L89.2351 93.9311L88.5604 85.8467L61.5498 91.9846L63.0697 86.3122L93.1054 79.4868L92.4307 71.4024L65.4201 77.5404L67.2936 70.5484L94.4138 64.3856L93.7391 56.3012L69.644 61.7766L71.7008 54.1008L94.4257 48.9367L93.7509 40.8523L74.0512 45.3289L76.0823 37.7488L95.2428 33.3947L94.568 25.3103L78.4327 28.977L80.3698 21.7474L94.8526 18.4563L94.1778 10.3719L82.7202 12.9755Z" fill="#45403F"/>
</svg>
