<svg width="430" height="358" viewBox="0 0 430 358" fill="none" xmlns="http://www.w3.org/2000/svg">
<path d="M141.196 305.187C140.083 309.347 137.76 313.084 134.523 315.925C131.286 318.766 127.279 320.583 123.009 321.146C118.739 321.709 114.398 320.994 110.535 319.09C106.671 317.186 103.46 314.179 101.305 310.45C99.1508 306.72 98.1508 302.436 98.4316 298.138C98.7123 293.84 100.261 289.722 102.882 286.305C105.504 282.888 109.079 280.324 113.158 278.939C117.236 277.554 121.633 277.409 125.793 278.523C131.363 280.031 136.109 283.682 138.995 288.678C141.881 293.674 142.672 299.609 141.196 305.187Z" fill="#FFEFEB"/>
<path d="M241.426 117.488L190.418 103.797C189.665 103.595 188.959 103.247 188.341 102.772C187.723 102.297 187.204 101.704 186.815 101.029C186.426 100.353 186.175 99.6072 186.075 98.834C185.974 98.0609 186.028 97.2755 186.232 96.5231L195.336 62.6651C195.538 61.9124 195.887 61.2069 196.362 60.5889C196.837 59.971 197.429 59.4528 198.105 59.064C198.781 58.6752 199.526 58.4233 200.299 58.3229C201.072 58.2224 201.857 58.2754 202.61 58.4786L253.618 72.1698C255.138 72.5792 256.432 73.5755 257.218 74.9395C258.003 76.3035 258.214 77.9236 257.804 79.4433L248.74 113.299C248.323 114.823 247.32 116.119 245.949 116.904C244.578 117.689 242.952 117.899 241.426 117.488Z" fill="#FFEFEB"/>
<path d="M166.681 31.646C165.923 32.5538 165.477 33.6814 165.409 34.8621C165.341 36.0429 165.655 37.2142 166.303 38.2031C166.952 39.192 167.902 39.9461 169.012 40.3539C170.122 40.7618 171.334 40.8018 172.468 40.468C173.603 40.1343 174.6 39.4445 175.313 38.5005C176.025 37.5566 176.415 36.4085 176.425 35.2258C176.435 34.0431 176.065 32.8886 175.368 31.9327C174.672 30.9769 173.686 30.2703 172.558 29.9175C171.517 29.5901 170.403 29.5797 169.356 29.8875C168.31 30.1953 167.379 30.8074 166.681 31.646Z" fill="#FF9178"/>
<path d="M241.142 357.821L239.11 365.341C238.232 368.616 236.719 371.686 234.655 374.377C232.591 377.067 230.017 379.324 227.081 381.019C224.144 382.715 220.903 383.814 217.541 384.255C214.179 384.697 210.764 384.471 207.489 383.591L81.9388 349.936C73.7093 347.731 66.6926 342.347 62.4321 334.969C58.1716 327.591 57.0161 318.823 59.22 310.593L134.329 30.0625C136.027 23.7409 140.167 18.3526 145.838 15.083C151.508 11.8134 158.246 10.9302 164.567 12.6276L171.965 14.6193C166.893 13.2692 161.493 13.9876 156.951 16.6165C152.409 19.2454 149.096 23.5699 147.74 28.6399L71.7346 312.382C71.0436 314.896 70.859 317.522 71.1916 320.108C71.5241 322.694 72.3672 325.188 73.6719 327.446C74.9766 329.703 76.7168 331.679 78.7915 333.258C80.8662 334.837 83.234 335.989 85.7574 336.645L216.958 371.803C222.019 373.154 227.409 372.44 231.944 369.818C236.478 367.196 239.787 362.881 241.142 357.821Z" fill="#FF9178"/>
<path fill-rule="evenodd" clip-rule="evenodd" d="M311.416 294.66C324.589 278.27 331.046 257.488 329.48 236.519C327.914 215.55 318.442 195.958 302.981 181.707C287.52 167.455 267.223 159.607 246.196 159.751C225.169 159.895 204.981 168.019 189.716 182.481C174.451 196.942 165.248 216.661 163.969 237.65C162.69 258.639 169.43 279.33 182.825 295.538C196.221 311.747 215.273 322.263 236.127 324.959C256.981 327.655 278.08 322.331 295.158 310.062L395.104 414.761C396.114 415.843 397.328 416.713 398.676 417.323C400.024 417.933 401.48 418.27 402.959 418.315C405.187 418.378 407.383 417.775 409.265 416.583C411.148 415.39 412.632 413.662 413.526 411.621C414.42 409.58 414.684 407.318 414.284 405.125C413.884 402.933 412.838 400.91 411.281 399.316V399.318L311.416 294.66ZM178.526 263.42C182.744 277.282 191.073 289.535 202.409 298.559V298.562C216.177 309.502 233.489 314.993 251.046 313.988C268.603 312.983 285.175 305.553 297.605 293.113C305.253 285.445 311.061 276.14 314.589 265.901C318.118 255.662 319.275 244.755 317.975 234.003C316.675 223.252 312.95 212.935 307.082 203.833C301.214 194.73 293.356 187.078 284.1 181.455C274.843 175.833 264.431 172.387 253.648 171.375C242.866 170.363 231.994 171.813 221.853 175.614C211.712 179.416 202.567 185.47 195.106 193.321C187.646 201.171 182.065 210.613 178.785 220.935C174.398 234.743 174.308 249.559 178.526 263.42Z" fill="#FF9178"/>
<path d="M379.78 96.3966C379.79 97.5834 379.357 98.7312 378.564 99.6143C377.771 100.497 376.676 101.052 375.495 101.168C374.314 101.284 373.132 100.955 372.181 100.243C371.231 99.5321 370.582 98.4911 370.361 97.325C370.231 96.6738 370.238 96.0026 370.384 95.3546C370.529 94.7067 370.808 94.0963 371.203 93.5627C371.599 93.0292 372.101 92.5844 372.679 92.257C373.257 91.9296 373.897 91.7267 374.558 91.6616C375.218 91.5965 375.886 91.6705 376.516 91.8788C377.147 92.0871 377.727 92.4252 378.218 92.8713C378.71 93.3173 379.103 93.8615 379.372 94.4686C379.641 95.0758 379.78 95.7326 379.78 96.3966Z" stroke="#7C4D42" stroke-width="0.769171" stroke-linecap="round" stroke-linejoin="round"/>
<path d="M241.142 357.821L317.188 73.9598C317.858 71.4544 318.028 68.8415 317.688 66.2703C317.348 63.6992 316.505 61.2202 315.207 58.9752C313.908 56.7301 312.18 54.7631 310.121 53.1864C308.061 51.6097 305.711 50.4543 303.205 49.7863L172.001 14.6191" stroke="#7C4D42" stroke-width="0.769171" stroke-linecap="round" stroke-linejoin="round"/>
<path d="M59.2175 310.592C57.0184 318.822 58.1762 327.589 62.4365 334.966C66.6967 342.343 73.711 347.727 81.9384 349.935L207.448 383.59C212.38 384.918 217.595 384.751 222.432 383.111C227.269 381.472 231.511 378.433 234.619 374.381C236.682 371.689 238.194 368.617 239.069 365.34L241.101 357.821C239.743 362.877 236.436 367.188 231.904 369.809C227.373 372.43 221.987 373.147 216.927 371.803L83.8167 336.035C79.2086 334.319 75.4118 330.937 73.1766 326.557C70.9414 322.178 70.4305 317.119 71.7449 312.381L147.74 28.6392C149.104 23.5665 152.424 19.2417 156.972 16.6134C161.52 13.985 166.925 13.2677 172.001 14.6186L164.608 12.6291C158.286 10.9322 151.549 11.8157 145.878 15.0853C140.208 18.3548 136.068 23.7426 134.369 30.064L59.2175 310.592Z" stroke="#7C4D42" stroke-width="0.769171" stroke-linecap="round" stroke-linejoin="round"/>
<path d="M141.195 305.187C140.082 309.347 137.76 313.084 134.523 315.925C131.285 318.766 127.278 320.583 123.008 321.146C118.738 321.709 114.397 320.994 110.534 319.09C106.671 317.186 103.459 314.179 101.305 310.45C99.1504 306.72 98.1503 302.436 98.4311 298.138C98.7119 293.84 100.261 289.722 102.882 286.305C105.503 282.888 109.079 280.324 113.157 278.939C117.235 277.554 121.632 277.409 125.793 278.523C131.362 280.031 136.108 283.682 138.994 288.678C141.88 293.674 142.672 299.609 141.195 305.187Z" stroke="#7C4D42" stroke-width="0.769171" stroke-linecap="round" stroke-linejoin="round"/>
<path d="M122.866 289.618L117.501 309.453" stroke="#7C4D42" stroke-width="0.769171" stroke-linecap="round" stroke-linejoin="round"/>
<path d="M130.102 302.219L110.267 296.854" stroke="#7C4D42" stroke-width="0.769171" stroke-linecap="round" stroke-linejoin="round"/>
<path d="M293.328 218.084L209.643 266.247" stroke="#7C4D42" stroke-width="0.769171" stroke-linecap="round" stroke-linejoin="round"/>
<path d="M275.569 284.01L227.403 200.322" stroke="#7C4D42" stroke-width="0.769171" stroke-linecap="round" stroke-linejoin="round"/>
<path d="M144.61 110.985L277.56 146.591" stroke="#7C4D42" stroke-width="0.769171" stroke-linecap="round" stroke-linejoin="round"/>
<path d="M257.847 79.4467C258.05 78.6942 258.103 77.9091 258.002 77.1361C257.902 76.3632 257.65 75.6176 257.261 74.942C256.872 74.2665 256.354 73.6742 255.736 73.1992C255.118 72.7241 254.413 72.3754 253.66 72.1732L202.652 58.482C201.899 58.2785 201.114 58.2253 200.341 58.3257C199.568 58.426 198.822 58.6778 198.147 59.0666C197.471 59.4555 196.879 59.9738 196.404 60.5919C195.929 61.21 195.58 61.9156 195.378 62.6686L186.272 96.5179C186.068 97.2704 186.014 98.0557 186.115 98.8289C186.215 99.602 186.467 100.348 186.855 101.023C187.244 101.699 187.763 102.291 188.381 102.766C188.999 103.241 189.705 103.59 190.458 103.791L241.426 117.483C242.945 117.892 244.565 117.681 245.93 116.896C247.294 116.111 248.29 114.816 248.699 113.296L257.847 79.4467Z" stroke="#7C4D42" stroke-width="0.769171" stroke-linecap="round" stroke-linejoin="round"/>
<path d="M198.491 58.873L222.038 87.9818L257.034 74.6115" stroke="#7C4D42" stroke-width="0.769171" stroke-linecap="round" stroke-linejoin="round"/>
<path d="M309.555 102.41C323.821 104.977 332.922 109.93 334.958 117.325C341.376 140.617 275.211 179.226 187.136 203.494C99.0611 227.755 22.4674 228.568 16.0496 205.278C12.4771 192.323 31.3752 174.595 64.0544 157.282" stroke="#7C4D42" stroke-width="0.769171" stroke-linecap="round" stroke-linejoin="round"/>
<path d="M359.053 229.546L399.859 225.929" stroke="#7C4D42" stroke-width="0.769171" stroke-linecap="round" stroke-linejoin="round"/>
<path d="M357.427 284.782L392.543 305.918" stroke="#7C4D42" stroke-width="0.769171" stroke-linecap="round" stroke-linejoin="round"/>
<path d="M346.575 185.121L376.935 157.606" stroke="#7C4D42" stroke-width="0.769171" stroke-linecap="round" stroke-linejoin="round"/>
<path d="M88.8056 152.688C71.4563 161.442 58.5651 175.531 48.9342 190.933C48.7013 191.313 48.3822 191.632 48.0028 191.864C47.6235 192.097 47.1946 192.237 46.751 192.272C46.3074 192.308 45.8616 192.238 45.45 192.069C45.0383 191.9 44.6724 191.636 44.3819 191.299C41.3634 187.859 39.5814 185.893 36.5373 182.486C45.0322 173.422 53.4374 163.992 64.0545 157.285C52.3891 161.992 39.9515 166.878 29.5056 174.598C26.4165 171.145 24.5853 169.068 21.539 165.613C21.2468 165.284 21.0342 164.893 20.9174 164.469C20.8006 164.044 20.7829 163.599 20.8656 163.167C20.9483 162.735 21.1292 162.328 21.3943 161.977C21.6595 161.625 22.0017 161.34 22.3947 161.142C42.6369 151.181 65.0456 146.431 87.5883 147.323C88.216 147.345 88.8186 147.574 89.3024 147.974C89.7862 148.375 90.1239 148.924 90.2628 149.537C90.4018 150.149 90.3342 150.79 90.0706 151.36C89.807 151.93 89.3622 152.397 88.8056 152.688Z" stroke="#7C4D42" stroke-width="0.769171" stroke-linecap="round" stroke-linejoin="round"/>
<path d="M48.2432 70.6662L56.4536 66.0732" stroke="#7C4D42" stroke-width="0.769171" stroke-linecap="round" stroke-linejoin="round"/>
<path d="M71.0435 57.9455L79.2539 53.3525" stroke="#7C4D42" stroke-width="0.769171" stroke-linecap="round" stroke-linejoin="round"/>
<path d="M55.0718 46.4834L59.6647 54.6938" stroke="#7C4D42" stroke-width="0.769171" stroke-linecap="round" stroke-linejoin="round"/>
<path d="M67.832 69.2852L72.425 77.5362" stroke="#7C4D42" stroke-width="0.769171" stroke-linecap="round" stroke-linejoin="round"/>
<path d="M46.6582 57.1318L55.7222 59.7332" stroke="#7C4D42" stroke-width="0.769171" stroke-linecap="round" stroke-linejoin="round"/>
<path d="M71.7749 64.2852L80.8389 66.8458" stroke="#7C4D42" stroke-width="0.769171" stroke-linecap="round" stroke-linejoin="round"/>
<path d="M68.6046 44.8975L66.0439 53.9615" stroke="#7C4D42" stroke-width="0.769171" stroke-linecap="round" stroke-linejoin="round"/>
<path d="M61.4939 70.0566L58.8926 79.08" stroke="#7C4D42" stroke-width="0.769171" stroke-linecap="round" stroke-linejoin="round"/>
<path d="M311.416 294.66C321.245 282.432 327.405 267.666 329.181 252.078C330.956 236.49 328.274 220.718 321.445 206.593C314.616 192.467 303.922 180.569 290.602 172.278C277.283 163.987 261.885 159.643 246.196 159.752C233.15 159.842 220.309 163.008 208.716 168.993C197.124 174.978 187.106 183.613 179.478 194.197C171.85 204.781 166.826 217.015 164.814 229.906C162.803 242.796 163.86 255.98 167.901 268.385C171.941 280.79 178.851 292.067 188.069 301.299C197.287 310.532 208.553 317.46 220.952 321.521C233.35 325.581 246.532 326.66 259.425 324.669C272.319 322.678 284.561 317.673 295.157 310.062L395.103 414.761C396.113 415.843 397.327 416.715 398.675 417.324C400.023 417.934 401.479 418.271 402.958 418.315C405.186 418.378 407.382 417.775 409.265 416.583C411.147 415.39 412.631 413.662 413.525 411.621C414.419 409.58 414.683 407.318 414.283 405.125C413.883 402.933 412.838 400.91 411.28 399.316M311.416 294.66L411.28 399.318V399.316M311.416 294.66L411.28 399.316M202.408 298.559C191.073 289.536 182.745 277.282 178.527 263.422C174.309 249.561 174.399 234.746 178.786 220.937C183.172 207.129 191.649 194.978 203.093 186.093C214.537 177.208 228.41 172.008 242.874 171.18C257.339 170.352 271.714 173.937 284.097 181.459C296.48 188.98 306.287 200.085 312.22 213.303C318.153 226.521 319.932 241.229 317.322 255.481C314.713 269.732 307.837 282.855 297.605 293.113C285.175 305.553 268.602 312.983 251.045 313.988C233.489 314.993 216.176 309.502 202.408 298.561V298.559Z" stroke="#7C4D42" stroke-width="0.769171" stroke-linejoin="round"/>
</svg>
