<svg width="98" height="202" viewBox="0 0 98 202" fill="none" xmlns="http://www.w3.org/2000/svg">
<path fill-rule="evenodd" clip-rule="evenodd" d="M65.9622 101C65.9622 137.399 36.5473 166.906 0.262238 166.906L0.262239 150.072C27.2795 150.072 49.1814 128.102 49.1814 101C49.1814 73.8982 27.2795 51.9278 0.262258 51.9278L0.262259 35.0945C36.5473 35.0945 65.9622 64.6014 65.9622 101Z" fill="white"/>
<path fill-rule="evenodd" clip-rule="evenodd" d="M95.7451 101C95.7451 153.899 52.996 196.782 0.262237 196.782L0.262238 179.948C43.7282 179.948 78.9643 144.602 78.9643 101C78.9643 57.3981 43.7282 22.0517 0.262267 22.0517L0.262268 5.21838C52.996 5.21839 95.7451 48.1013 95.7451 101Z" fill="white"/>
<path fill-rule="evenodd" clip-rule="evenodd" d="M37.5331 101C37.5331 121.649 20.8463 138.388 0.262239 138.388L0.26224 121.554C11.5785 121.554 20.7522 112.352 20.7522 101C20.7522 89.6483 11.5786 80.446 0.262257 80.446L0.262258 63.6126C20.8463 63.6126 37.5331 80.3516 37.5331 101Z" fill="white"/>
</svg>
