<svg width="162" height="307" viewBox="0 0 162 307" fill="none" xmlns="http://www.w3.org/2000/svg">
<path d="M111.353 63.6127L84.0629 16.3846L69.569 24.7455L97.4577 73.0086C95.1426 74.8642 92.9093 76.8174 90.764 78.862L50.9148 39.0471L39.0806 50.8711L79.6076 91.3632C77.8992 93.621 76.2817 95.9512 74.7605 98.3484L24.7668 69.5093L16.3987 83.9907L66.9706 113.163C65.8992 115.68 64.925 118.248 64.0528 120.862L7.40068 105.695L3.06907 121.847L60.0738 137.108C59.6511 139.753 59.329 142.431 59.1115 145.139L1.93017e-06 145.139L1.73077e-06 161.861L59.1115 161.861C59.329 164.569 59.6511 167.247 60.0738 169.892L3.06907 185.153L7.40068 201.305L64.0528 186.138C64.9251 188.752 65.8992 191.32 66.9706 193.837L16.3987 223.009L24.7668 237.491L74.7605 208.652C76.2818 211.049 77.8993 213.379 79.6076 215.637L39.0806 256.129L50.9148 267.953L90.764 228.138C92.9093 230.183 95.1426 232.136 97.4577 233.991L69.569 282.255L84.0629 290.615L111.353 243.387C114.071 244.919 116.865 246.332 119.728 247.617L105.786 299.606L121.952 303.934L135.553 253.218C138.732 254.057 141.972 254.749 145.264 255.285L145.264 307L162 307L162 1.93183e-06L145.264 1.73225e-06L145.264 51.7146C141.972 52.2508 138.732 52.9426 135.553 53.7822L121.952 3.06629L105.786 7.3942L119.728 59.3826C116.865 60.6684 114.071 62.0808 111.353 63.6127Z" fill="#7667D8"/>
</svg>
