<svg width="291" height="292" viewBox="0 0 291 292" fill="none" xmlns="http://www.w3.org/2000/svg">
<path d="M177.561 161.132C177.561 161.132 168.866 153.18 165.4 146C162.815 140.692 159.431 134.394 153.354 131.643C152.846 126.478 152.79 121.278 153.189 116.103C153.488 110.702 152.161 102.784 150.293 101.554C149.069 100.833 147.755 100.278 146.384 99.9033C147.346 102.76 148.1 105.683 148.64 108.649L133.149 109.062C132.656 106.097 131.911 103.181 130.921 100.343C129.546 100.674 128.418 100.923 127.4 101.224C127.428 101.389 133.259 122.924 127.648 119.789C128.748 124.657 130.646 132.633 131.719 134.284C127.043 164.566 121.268 225.845 120.167 236.599C126.412 239.279 133.374 239.792 139.943 238.057C139.943 238.057 148.084 175.43 149.354 161.128L169.735 178.373C171.466 179.855 173.504 180.935 175.702 181.536L205.462 189.759C200.054 188.167 204.607 168.957 210.853 169.323L177.561 161.132Z" fill="#DF4C6F"/>
<path d="M41.521 145.808V152.272C41.5229 153.475 42.0015 154.628 42.852 155.478C43.7025 156.329 44.8554 156.807 46.0582 156.809H52.5729C52.5888 155.356 52.3133 153.914 51.7629 152.569C51.2125 151.224 50.3981 150.002 49.368 148.977C48.3379 147.951 47.1128 147.143 45.7651 146.598C44.4174 146.054 42.9743 145.785 41.521 145.808Z" fill="#DF4C6F"/>
<path d="M85.2745 80.8149C83.7948 78.8948 81.7556 77.4813 79.4383 76.7698C77.121 76.0582 74.6399 76.0835 72.3376 76.8423C72.518 75.9458 72.5093 75.0216 72.3121 74.1287C72.1149 73.2357 71.7336 72.3937 71.1925 71.6566C70.1798 70.4077 68.7186 69.6046 67.1215 69.4191C65.5244 69.2335 63.9181 69.6802 62.646 70.6637C61.374 71.6471 60.5372 73.0892 60.3147 74.6816C60.0921 76.274 60.5014 77.8902 61.4551 79.1848C62.0233 79.9003 62.7369 80.4871 63.5487 80.9064C64.3605 81.3256 65.2521 81.5678 66.1645 81.6169C64.8535 83.6509 64.2052 86.0413 64.3089 88.459C64.4126 90.8766 65.2632 93.2027 66.7436 95.117C67.8601 96.4075 69.1806 97.5065 70.6524 98.37C72.3579 95.185 72.7763 91.599 72.5229 91.3008C70.7509 89.2276 72.6054 87.2862 73.7882 89.6518C74.3934 90.8621 75.1361 88.7441 75.4936 87.2037C77.2946 88.0086 79.2201 88.5023 81.1861 88.6616C80.9935 96.3345 78.903 100.075 75.7412 96.8571C75.6789 97.8387 75.7065 98.8238 75.8237 99.8004C78.462 99.6319 81.0021 98.7359 83.1622 97.2118C85.615 95.3164 87.2152 92.5248 87.6112 89.4504C88.0073 86.376 87.1668 83.2701 85.2745 80.8149Z" fill="#3F5053"/>
<path d="M75.7095 96.8498C75.2002 96.3046 74.7399 95.7155 74.3342 95.0894C74.2083 95.9283 74.2741 96.7848 74.5265 97.5947C74.779 98.4046 75.2117 99.1467 75.792 99.7655C75.6773 98.798 75.6497 97.8222 75.7095 96.8498Z" fill="#3F5053"/>
<path d="M60.0046 121.66C58.5743 122.358 57.1048 122.973 55.6035 123.501L59.0708 117.506C59.2619 118.915 59.5746 120.305 60.0046 121.66Z" fill="#3F5053"/>
<path d="M134.87 93.4395C134.788 94.2371 134.788 95.3099 134.76 96.3552C133.11 96.5202 130.662 96.6027 130.139 95.9976L129.892 95.6675C130.634 96.8503 132.78 95.3649 134.87 93.4395Z" fill="#3F5053"/>
<path d="M111.299 118.029C110.556 119.074 109.786 120.2 108.962 121.412V114.563C109.635 115.786 110.417 116.946 111.299 118.029Z" fill="#3F5053"/>
<path d="M149.365 161.1L152.941 164.126L153.326 151.364C153.106 154.224 149.365 161.128 149.365 161.1Z" fill="#3F5053"/>
<path d="M221.097 173.257C215.661 172.967 210.371 204.176 217.136 206.207C223.599 206.565 228.137 173.642 221.097 173.257Z" fill="#3F5053"/>
<path d="M208.444 187.724C206.774 186.903 204.994 186.328 203.16 186.016C203.765 190.004 206.243 191.052 208.939 188.164C208.774 188.027 208.636 187.889 208.444 187.724Z" fill="#3F5053"/>
<path d="M211.167 169.351C210.604 169.273 210.031 169.335 209.499 169.532C208.966 169.729 208.49 170.055 208.114 170.48C209.627 170.914 211.387 171.359 213.12 171.744C213.014 171.216 212.78 170.723 212.44 170.306C212.1 169.889 211.663 169.561 211.167 169.351Z" fill="#3F5053"/>
<path d="M142.489 78.9994C143.011 77.7891 140.84 76.9914 139.492 78.8619C140.042 77.7616 137.732 76.8814 136.521 79.0269C136.879 77.9817 134.784 77.1014 133.468 79.4945C133.613 78.2567 131.515 78.2842 130.992 80.4848C130.662 81.8601 130.413 83.3455 130.222 84.4458C130.91 84.8106 131.626 85.1146 132.368 85.3535C132.093 88.1592 133.083 88.3242 133.633 87.334C134.678 85.491 136.769 86.9764 134.733 89.8096C134.868 89.9543 140.644 96.0724 140.783 96.2172C137.319 92.1462 142.901 83.5105 144.717 80.5398C146.224 78.0642 143.864 77.184 142.489 78.9994Z" fill="#3F5053"/>
<path d="M26.8891 169.765L16.189 180.463C15.0453 181.607 16.8042 183.381 17.9262 182.201L28.6264 171.501C28.7403 171.387 28.8307 171.251 28.8924 171.102C28.954 170.953 28.9857 170.793 28.9856 170.632C28.9856 170.471 28.9538 170.311 28.892 170.162C28.8302 170.013 28.7397 169.878 28.6256 169.764C28.5116 169.65 28.3762 169.56 28.2272 169.498C28.0782 169.436 27.9185 169.405 27.7572 169.405C27.596 169.405 27.4363 169.437 27.2873 169.498C27.1384 169.56 27.0031 169.651 26.8891 169.765Z" fill="#3F5053"/>
<path d="M227.037 117.946C226.899 118.606 226.652 119.844 226.404 121.131L231.411 117.198L227.037 117.946Z" fill="#3F5053"/>
<path d="M210.562 100.673C210.623 101.001 210.66 101.331 210.672 101.664L211.83 100.096L210.562 100.673Z" fill="#3F5053"/>
<path d="M230.998 80.7079C230.991 80.2388 230.815 79.7881 230.501 79.4391C230.188 79.0901 229.758 78.8666 229.292 78.81C229.594 78.4388 229.75 77.9702 229.73 77.4924C229.71 77.0146 229.516 76.5605 229.185 76.2156C228.853 75.8708 228.407 75.6589 227.931 75.62C227.454 75.5811 226.98 75.7177 226.597 76.0043C226.536 75.5167 226.3 75.0678 225.933 74.7413C225.566 74.4148 225.092 74.2329 224.601 74.2295C224.11 74.2262 223.634 74.4016 223.262 74.723C222.89 75.0445 222.648 75.49 222.581 75.9768C222.204 75.6875 221.735 75.5456 221.261 75.5778C220.787 75.6101 220.341 75.8142 220.007 76.1518C219.673 76.4895 219.473 76.9375 219.446 77.4117C219.419 77.8859 219.566 78.3538 219.859 78.7274C219.506 78.7707 219.171 78.9098 218.891 79.1296C218.611 79.3494 218.397 79.6416 218.271 79.9745C218.145 80.3074 218.113 80.6684 218.177 81.0184C218.242 81.3684 218.401 81.6941 218.637 81.9602C218.951 82.3163 219.387 82.5465 219.859 82.6059C219.564 82.9791 219.416 83.4475 219.444 83.9224C219.471 84.3973 219.671 84.8457 220.007 85.1828C220.341 85.5201 220.787 85.7237 221.261 85.7557C221.735 85.7877 222.204 85.6458 222.581 85.3566C222.637 85.8294 222.864 86.2654 223.219 86.5831C223.573 86.9007 224.032 87.0782 224.508 87.0823C224.984 87.0857 225.445 86.915 225.805 86.6023C226.164 86.2895 226.397 85.8563 226.459 85.3841C226.834 85.6751 227.302 85.8203 227.776 85.7929C228.25 85.7655 228.698 85.5673 229.037 85.235C229.376 84.9027 229.583 84.4589 229.62 83.9856C229.657 83.5123 229.521 83.0417 229.237 82.6609C229.723 82.6165 230.174 82.3908 230.5 82.0289C230.826 81.6669 231.004 81.1952 230.998 80.7079Z" fill="#3F5053"/>
<path d="M225.112 90.5525C225.606 90.4115 226.037 90.1033 226.33 89.6804C226.623 89.2575 226.76 88.746 226.719 88.2332C226.676 87.7207 226.456 87.239 226.098 86.8699C225.74 86.5009 225.265 86.2675 224.754 86.2093C225.093 85.8468 225.301 85.3818 225.345 84.8878C225.39 84.3938 225.268 83.899 225 83.4818C224.732 83.0648 224.332 82.7494 223.863 82.5857C223.395 82.422 222.886 82.4195 222.416 82.5784C222.531 82.0904 222.479 81.5777 222.267 81.1233C222.055 80.6688 221.696 80.2991 221.248 80.0739C220.8 79.8487 220.289 79.7807 219.798 79.8807C219.307 79.9808 218.863 80.2431 218.539 80.6254C218.452 80.2452 218.27 79.893 218.011 79.6016C217.751 79.3102 217.423 79.0889 217.055 78.9583C216.687 78.8277 216.293 78.7919 215.907 78.8543C215.522 78.9167 215.159 79.0752 214.852 79.3152C214.44 79.6376 214.15 80.0897 214.028 80.5979C213.712 80.2097 213.273 79.9399 212.784 79.8325C212.295 79.7251 211.785 79.7865 211.335 80.0065C210.885 80.2266 210.523 80.5924 210.308 81.0445C210.093 81.4965 210.037 82.0081 210.149 82.4959C209.681 82.3261 209.169 82.3185 208.695 82.4744C208.222 82.6302 207.814 82.9404 207.538 83.3553C207.261 83.7702 207.132 84.2659 207.171 84.7629C207.21 85.2598 207.415 85.7294 207.752 86.0964C207.372 86.1382 207.009 86.2772 206.698 86.5001C206.387 86.7229 206.139 87.0221 205.977 87.3688C205.815 87.7155 205.746 88.098 205.775 88.4794C205.804 88.8608 205.931 89.2282 206.144 89.5463C206.427 89.9734 206.85 90.2875 207.339 90.4396C207.083 90.5881 206.86 90.7864 206.682 91.0229C206.504 91.2594 206.375 91.5292 206.303 91.8164C206.231 92.1035 206.218 92.4021 206.264 92.6946C206.309 92.987 206.413 93.2673 206.569 93.5189C208.613 84.3475 212.803 88.8862 213.391 92.5055C213.528 93.0846 213.886 93.1106 214.629 92.2594C216.169 90.4439 218.235 93.2641 215.151 95.7238C214.98 95.8598 214.752 96.9442 214.931 99.5197C215.212 99.4114 215.468 99.2487 215.685 99.041C215.902 98.8333 216.076 98.5846 216.197 98.3094C216.394 98.7822 216.749 99.1721 217.201 99.4127C217.653 99.6534 218.175 99.73 218.677 99.6295C219.179 99.529 219.631 99.2576 219.956 98.8615C220.281 98.4654 220.459 97.969 220.459 97.4567C220.862 97.7395 221.348 97.8795 221.841 97.8545C222.333 97.8295 222.802 97.641 223.175 97.3188C223.548 96.9966 223.802 96.5592 223.898 96.0759C223.994 95.5926 223.926 95.0911 223.704 94.651C224.02 94.6919 224.34 94.6646 224.643 94.5709C224.947 94.4773 225.227 94.3195 225.464 94.1082C225.702 93.8969 225.891 93.6371 226.019 93.3464C226.147 93.0556 226.212 92.7407 226.208 92.4229C226.197 92.0442 226.091 91.6742 225.899 91.3473C225.708 91.0204 225.437 90.747 225.112 90.5525Z" fill="#3F5053"/>
<path d="M217.659 128.917C217.67 129.051 217.655 129.186 217.614 129.314C217.573 129.441 217.507 129.56 217.42 129.662C217.333 129.764 217.227 129.848 217.107 129.909C216.988 129.97 216.857 130.007 216.724 130.018C216.454 130.039 216.187 129.952 215.98 129.777C215.774 129.602 215.646 129.352 215.623 129.082C215.612 128.949 215.627 128.814 215.668 128.686C215.709 128.558 215.775 128.44 215.862 128.338C215.949 128.235 216.055 128.151 216.175 128.09C216.294 128.029 216.425 127.993 216.558 127.982C216.828 127.961 217.095 128.047 217.302 128.223C217.508 128.398 217.636 128.648 217.659 128.917Z" fill="#3F5053"/>
<path d="M207.124 121.908C207.135 122.041 207.12 122.176 207.079 122.304C207.038 122.432 206.972 122.55 206.885 122.652C206.798 122.755 206.692 122.839 206.572 122.9C206.453 122.961 206.322 122.997 206.188 123.008C205.919 123.029 205.651 122.943 205.445 122.767C205.239 122.592 205.111 122.342 205.088 122.073C205.077 121.939 205.092 121.804 205.133 121.676C205.174 121.548 205.239 121.43 205.326 121.328C205.413 121.225 205.52 121.141 205.639 121.08C205.759 121.019 205.89 120.983 206.023 120.972C206.293 120.951 206.56 121.038 206.767 121.213C206.973 121.388 207.101 121.638 207.124 121.908Z" fill="#3F5053"/>
<path d="M216.641 113.766C216.653 113.899 216.637 114.034 216.597 114.162C216.556 114.29 216.49 114.408 216.403 114.511C216.316 114.613 216.21 114.697 216.09 114.758C215.97 114.819 215.84 114.856 215.706 114.866C215.436 114.887 215.169 114.801 214.963 114.625C214.757 114.45 214.628 114.2 214.606 113.931C214.594 113.797 214.61 113.662 214.651 113.534C214.692 113.407 214.757 113.288 214.844 113.186C214.931 113.084 215.038 113 215.157 112.939C215.277 112.877 215.407 112.841 215.541 112.83C215.811 112.809 216.078 112.896 216.284 113.071C216.49 113.246 216.619 113.496 216.641 113.766Z" fill="#3F5053"/>
<path d="M26.8891 169.764L16.189 180.463C15.0453 181.607 16.8042 183.38 17.9262 182.2L28.6264 171.5C28.7403 171.386 28.8307 171.251 28.8924 171.102C28.954 170.953 28.9857 170.793 28.9856 170.632C28.9856 170.47 28.9538 170.311 28.892 170.162C28.8302 170.013 28.7397 169.878 28.6256 169.764C28.5116 169.65 28.3762 169.559 28.2272 169.498C28.0782 169.436 27.9185 169.404 27.7572 169.404C27.596 169.404 27.4363 169.436 27.2873 169.498C27.1384 169.56 27.0031 169.65 26.8891 169.764Z" stroke="#120071" stroke-width="0.769171" stroke-linejoin="round"/>
<path d="M230.5 79.4396C230.814 79.787 230.991 80.2387 230.998 80.7078C231.004 81.1949 230.825 81.6662 230.499 82.028C230.173 82.3898 229.723 82.6157 229.238 82.6607C229.523 83.0416 229.661 83.5131 229.625 83.9878C229.59 84.4625 229.383 84.9082 229.044 85.242C228.703 85.575 228.254 85.773 227.778 85.7991C227.303 85.8252 226.834 85.6777 226.46 85.3839C226.397 85.8559 226.164 86.2889 225.805 86.6015L225.796 86.6087C226.271 86.9484 226.592 87.4608 226.692 88.0354C226.792 88.6101 226.662 89.201 226.331 89.6808C226.037 90.1035 225.607 90.4119 225.112 90.5523C225.438 90.7459 225.709 91.0191 225.901 91.3462C226.093 91.6733 226.198 92.0437 226.208 92.4228C226.213 92.7406 226.149 93.0557 226.021 93.3466C225.892 93.6374 225.703 93.8972 225.465 94.1079C225.228 94.3194 224.948 94.4774 224.644 94.5711C224.34 94.6647 224.02 94.6919 223.705 94.6508C223.923 95.0911 223.99 95.5916 223.893 96.0737C223.797 96.5559 223.543 96.9923 223.172 97.3146C222.8 97.6364 222.331 97.825 221.84 97.8507C221.348 97.8764 220.862 97.7377 220.459 97.4565C220.458 97.9681 220.28 98.4637 219.955 98.8588C219.63 99.254 219.178 99.5243 218.677 99.6237C218.175 99.7236 217.654 99.6474 217.203 99.4079C216.751 99.1684 216.395 98.7803 216.197 98.3092C216.076 98.5847 215.903 98.8335 215.685 99.0413C215.468 99.249 215.212 99.4116 214.931 99.5195C214.752 96.944 214.981 95.8597 215.151 95.7236C218.235 93.2639 216.169 90.4437 214.629 92.2592C213.886 93.1104 213.528 93.0844 213.391 92.5053C212.803 88.886 208.613 84.3473 206.569 93.5187C206.335 93.1395 206.22 92.6986 206.241 92.2533C206.261 91.8081 206.415 91.3792 206.682 91.0228C206.86 90.7868 207.083 90.5885 207.339 90.4394C206.849 90.2894 206.425 89.9747 206.14 89.5483C205.854 89.1219 205.725 88.6101 205.774 88.0994C205.822 87.5887 206.046 87.1104 206.406 86.7454C206.767 86.3804 207.242 86.1511 207.752 86.0962C207.417 85.7283 207.214 85.259 207.176 84.7627C207.138 84.2665 207.267 83.7718 207.542 83.3571C207.817 82.9422 208.224 82.6317 208.697 82.4755C209.17 82.3193 209.681 82.3264 210.149 82.4957C210.04 82.0085 210.097 81.4984 210.312 81.0477C210.528 80.5971 210.888 80.232 211.337 80.0114C211.786 79.7915 212.296 79.7297 212.784 79.8362C213.273 79.9426 213.711 80.211 214.028 80.5977C214.136 80.1485 214.375 79.7418 214.716 79.4298C215.057 79.1179 215.483 78.9149 215.94 78.8471C216.397 78.7792 216.864 78.8495 217.281 79.049C217.697 79.2485 218.045 79.568 218.278 79.9665C218.405 79.6361 218.619 79.3462 218.897 79.1279C219.176 78.9096 219.508 78.7711 219.859 78.7273C219.637 78.4491 219.496 78.1153 219.45 77.7622C219.405 77.4092 219.457 77.0504 219.601 76.7249C219.745 76.3994 219.976 76.1197 220.268 75.9163C220.56 75.7129 220.903 75.5936 221.258 75.5712C221.734 75.5394 222.205 75.6842 222.581 75.9766C222.65 75.4915 222.893 75.048 223.264 74.7285C223.636 74.409 224.111 74.2351 224.601 74.2393C225.091 74.242 225.563 74.4223 225.93 74.7468C226.297 75.0714 226.534 75.5181 226.597 76.0041C226.883 75.7892 227.221 75.6566 227.577 75.6206C227.933 75.5846 228.291 75.6467 228.614 75.8C228.937 75.9534 229.211 76.1921 229.408 76.4905C229.605 76.7888 229.716 77.1353 229.73 77.4924C229.75 77.9701 229.594 78.4392 229.293 78.8098C229.757 78.8677 230.187 79.0907 230.5 79.4396Z" stroke="#120071" stroke-width="0.769171" stroke-linejoin="round"/>
<path d="M184.708 156.809H173.266" stroke="#120071" stroke-width="0.769171" stroke-linecap="round" stroke-linejoin="round"/>
<path d="M196.617 156.809H235.258C236.461 156.807 237.614 156.328 238.464 155.478C239.315 154.627 239.793 153.475 239.796 152.272V110.602" stroke="#120071" stroke-width="0.769171" stroke-linecap="round" stroke-linejoin="round"/>
<path d="M239.798 90.5784V88.0767C239.797 86.8731 239.319 85.7191 238.467 84.8682C237.616 84.0172 236.462 83.5389 235.258 83.5381H229.604" stroke="#120071" stroke-width="0.769171" stroke-linecap="round" stroke-linejoin="round"/>
<path d="M175.323 83.5383H150.566C149.363 83.5399 148.21 84.0185 147.359 84.8694C146.508 85.7202 146.029 86.8737 146.028 88.0769V99.7109" stroke="#120071" stroke-width="0.769171" stroke-linecap="round" stroke-linejoin="round"/>
<path d="M210.507 80.5818V77.239H175.329V86.8389H206.032" stroke="#120071" stroke-width="0.769171" stroke-linecap="round" stroke-linejoin="round"/>
<path d="M195.847 74.0482C195.847 74.4791 195.751 74.9046 195.566 75.294C195.381 75.6834 195.113 76.0272 194.78 76.3005C194.447 76.5739 194.057 76.7701 193.639 76.875C193.221 76.9799 192.785 76.991 192.362 76.9074C191.821 76.7994 191.322 76.5399 190.922 76.1592C190.523 75.7784 190.24 75.292 190.106 74.7566C189.972 74.2212 189.993 73.6587 190.166 73.1347C190.339 72.6107 190.658 72.1467 191.084 71.7966C191.511 71.4465 192.028 71.2248 192.576 71.1572C193.124 71.0896 193.679 71.1789 194.178 71.4148C194.677 71.6507 195.099 72.0234 195.394 72.4896C195.69 72.9558 195.847 73.4963 195.847 74.0482Z" stroke="#120071" stroke-width="0.769171" stroke-linecap="round" stroke-linejoin="round"/>
<path d="M230.585 97.8679V92.9717H226.233" stroke="#120071" stroke-width="0.769171" stroke-linecap="round" stroke-linejoin="round"/>
<path d="M178.272 102.131H155.196V92.9717H178.272V102.131Z" stroke="#120071" stroke-width="0.769171" stroke-linecap="round" stroke-linejoin="round"/>
<path d="M160.944 111.399H178.272V119.101H166.858" stroke="#120071" stroke-width="0.769171" stroke-linecap="round" stroke-linejoin="round"/>
<path d="M155.196 132.633V128.425H156.792" stroke="#120071" stroke-width="0.769171" stroke-linecap="round" stroke-linejoin="round"/>
<path d="M162.705 136.099H159.239" stroke="#120071" stroke-width="0.769171" stroke-linecap="round" stroke-linejoin="round"/>
<path d="M174.366 128.425H178.272V132.771" stroke="#120071" stroke-width="0.769171" stroke-linecap="round" stroke-linejoin="round"/>
<path d="M164.74 144.707H170.544" stroke="#120071" stroke-width="0.769171" stroke-linecap="round" stroke-linejoin="round"/>
<path d="M173.486 147.65H166.253" stroke="#120071" stroke-width="0.769171" stroke-linecap="round" stroke-linejoin="round"/>
<path d="M190.373 144.707H230.585V147.623H196.012" stroke="#120071" stroke-width="0.769171" stroke-linecap="round" stroke-linejoin="round"/>
<path d="M72.3257 76.8268C69.7864 77.6585 67.6107 79.3388 66.1642 81.5855C65.1251 81.5617 64.1088 81.2754 63.2102 80.753C62.3116 80.2306 61.5599 79.4893 61.0251 78.598C60.4903 77.7068 60.1898 76.6947 60.1516 75.656C60.1134 74.6173 60.3389 73.5858 60.8068 72.6577C61.2748 71.7296 61.9701 70.9351 62.8279 70.3482C63.6858 69.7613 64.6782 69.4011 65.7128 69.3012C66.7474 69.2013 67.7904 69.3649 68.7447 69.7769C69.699 70.1888 70.5335 70.8356 71.1704 71.657C71.7405 72.3757 72.1406 73.2141 72.3406 74.1094C72.5407 75.0048 72.5356 75.9337 72.3257 76.8268Z" stroke="#120071" stroke-width="0.769171" stroke-linecap="round" stroke-linejoin="round"/>
<path d="M91.9339 111.124C83.4894 104.465 76.6966 106.998 75.8164 99.793" stroke="#120071" stroke-width="0.769171" stroke-linecap="round" stroke-linejoin="round"/>
<path d="M83.1621 97.2118C81.0002 98.735 78.4587 99.63 75.8193 99.7974C75.8193 99.7974 75.7093 97.4594 75.7368 96.8542C78.8986 100.072 80.9891 96.3316 81.1817 88.6586C79.2152 88.499 77.2903 88.006 75.4892 87.2008C75.1316 88.7412 74.3889 90.8577 73.7838 89.6489C72.601 87.2833 70.7436 89.2247 72.5185 91.2978C72.7718 91.5961 72.3534 95.1763 70.648 98.3671C69.1734 97.5103 67.8523 96.4133 66.7391 95.1213C65.3219 93.2905 64.4793 91.0805 64.318 88.7709C64.1567 86.4613 64.6839 84.1556 65.833 82.1456C66.982 80.1356 68.7013 78.5115 70.7734 77.4785C72.8455 76.4456 75.1773 76.0504 77.4741 76.3427C79.7708 76.6351 81.9293 77.6019 83.6765 79.121C85.4238 80.6401 86.6813 82.6432 87.2902 84.877C87.899 87.1107 87.8318 89.4749 87.097 91.6705C86.3622 93.8661 84.9929 95.7944 83.1621 97.2118Z" stroke="#120071" stroke-width="0.769171" stroke-linecap="round" stroke-linejoin="round"/>
<path d="M75.8192 99.793C75.2342 99.1709 74.7969 98.425 74.5397 97.6107C74.2826 96.7964 74.2122 95.9346 74.3339 95.0894C74.7479 95.7162 75.217 96.3054 75.7367 96.8498" stroke="#120071" stroke-width="0.769171" stroke-linecap="round" stroke-linejoin="round"/>
<path d="M64.5415 103.699C69.6578 106.257 74.9651 106.861 79.3662 104.937" stroke="#120071" stroke-width="0.769171" stroke-linecap="round" stroke-linejoin="round"/>
<path d="M84.7302 113.27C87.2347 117.699 84.7302 128.37 84.209 132.248C84.6172 133.483 85.1717 134.665 85.8594 135.769" stroke="#120071" stroke-width="0.769171" stroke-linecap="round" stroke-linejoin="round"/>
<path d="M60.0046 121.659C59.5639 120.307 59.2508 118.917 59.0694 117.506L55.6035 123.501" stroke="#120071" stroke-width="0.769171" stroke-linecap="round" stroke-linejoin="round"/>
<path d="M62.038 135.769C63.0499 134.693 63.9444 133.512 64.7062 132.247C62.7768 128.889 61.201 125.341 60.004 121.658C55.8013 123.579 51.4017 125.035 46.8832 126.001C44.3135 126.572 41.6266 126.268 39.2495 125.137C36.8724 124.006 34.9416 122.113 33.764 119.759L22.4326 97.0424C23.9749 95.199 25.901 93.7148 28.0766 92.6933C30.2521 91.6718 32.6244 91.1377 35.0278 91.1284L44.9853 111.234C52.5265 109.073 59.8257 106.142 66.7678 102.489C68.4249 101.517 69.7631 100.083 70.6187 98.3627" stroke="#120071" stroke-width="0.769171" stroke-linecap="round" stroke-linejoin="round"/>
<path d="M130.4 83.5383H105.991" stroke="#120071" stroke-width="0.769171" stroke-linecap="round" stroke-linejoin="round"/>
<path d="M64.9698 83.5383H46.0582C44.8551 83.5399 43.7017 84.0186 42.8511 84.8694C42.0005 85.7203 41.5221 86.8738 41.521 88.0769V104.112" stroke="#120071" stroke-width="0.769171" stroke-linecap="round" stroke-linejoin="round"/>
<path d="M91.6344 86.8389H87.5909M93.0648 86.8389H105.993V77.239H81.0762" stroke="#120071" stroke-width="0.769171" stroke-linecap="round" stroke-linejoin="round"/>
<path d="M91.3314 74.0483C91.3314 74.8216 91.0242 75.5632 90.4774 76.11C89.9306 76.6568 89.189 76.964 88.4157 76.964C87.6424 76.964 86.9008 76.6568 86.354 76.11C85.8072 75.5632 85.5 74.8216 85.5 74.0483C85.5 73.275 85.8072 72.5334 86.354 71.9866C86.9008 71.4398 87.6424 71.1326 88.4157 71.1326C89.189 71.1326 89.9306 71.4398 90.4774 71.9866C91.0242 72.5334 91.3314 73.275 91.3314 74.0483Z" stroke="#120071" stroke-width="0.769171" stroke-linecap="round" stroke-linejoin="round"/>
<path d="M93.8333 115.746V135.769H50.707V125.096" stroke="#120071" stroke-width="0.769171" stroke-linecap="round" stroke-linejoin="round"/>
<path d="M50.707 109.364V92.6416H65.151" stroke="#120071" stroke-width="0.769171" stroke-linecap="round" stroke-linejoin="round"/>
<path d="M126.123 101.416H103.048V92.6416H126.123V101.416Z" stroke="#120071" stroke-width="0.769171" stroke-linecap="round" stroke-linejoin="round"/>
<path d="M126.123 147.65H50.707V144.707H126.123V147.65Z" stroke="#120071" stroke-width="0.769171" stroke-linecap="round" stroke-linejoin="round"/>
<path d="M126.123 122.1V135.769H103.048V132.221" stroke="#120071" stroke-width="0.769171" stroke-linecap="round" stroke-linejoin="round"/>
<path d="M105.881 108.649H118.01" stroke="#120071" stroke-width="0.769171" stroke-linecap="round" stroke-linejoin="round"/>
<path d="M268.871 258.3H22.103" stroke="#120071" stroke-width="0.769171" stroke-linecap="round" stroke-linejoin="round"/>
<path d="M144.881 99.4355C142.213 101.966 138.222 101.636 133.522 99.7105C135.09 99.2979 134.681 95.1994 134.87 93.439C132.78 95.337 130.634 96.8223 129.892 95.6395C129.204 94.4017 129.149 91.7061 130.249 84.4182C130.937 84.783 131.653 85.0871 132.395 85.3259C132.12 88.1316 133.09 88.2996 133.66 87.3064C134.717 85.4693 136.796 86.9763 134.76 89.782C135.805 90.8533 140.117 95.4282 140.812 96.1897C141.9 97.5704 143.293 98.6812 144.881 99.4355Z" stroke="#120071" stroke-width="0.769171" stroke-linecap="round" stroke-linejoin="round"/>
<path d="M144.881 99.4355C149.029 100.449 152.803 102.619 155.765 105.694C163.894 113.384 170.024 126.168 187.514 141.792C186.663 144.05 185.328 146.095 183.602 147.782C181.876 149.469 179.802 150.757 177.525 151.557C167.349 141.874 160.307 134.256 152.913 122.648" stroke="#120071" stroke-width="0.769171" stroke-linecap="round" stroke-linejoin="round"/>
<path d="M134.87 93.4395C134.788 94.2371 134.788 95.3099 134.76 96.3552C133.11 96.5202 130.662 96.6027 130.139 95.9976L129.892 95.6675C130.634 96.8503 132.78 95.3649 134.87 93.4395Z" stroke="#120071" stroke-width="0.769171" stroke-linecap="round" stroke-linejoin="round"/>
<path d="M108.962 114.584V121.406C109.783 120.202 110.554 119.08 111.288 118.039" stroke="#120071" stroke-width="0.769171" stroke-linecap="round" stroke-linejoin="round"/>
<path d="M127.664 119.816C124.627 124.74 120.979 129.259 116.806 133.266C112.651 137.196 105.414 135.854 102.174 131.148C97.6236 124.258 93.9472 116.83 91.229 109.034C94.8468 106.005 99.3585 104.247 104.072 104.029C105.765 109.036 108.2 113.76 111.296 118.044C114.133 113.937 116.253 110.907 117.989 108.649C121.869 103.534 123.761 102.253 127.422 101.223C129.209 100.721 131.577 100.21 133.503 99.7104" stroke="#120071" stroke-width="0.769171" stroke-linecap="round" stroke-linejoin="round"/>
<path d="M149.365 161.128C149.365 161.128 153.078 154.251 153.326 151.364L152.941 164.126" stroke="#120071" stroke-width="0.769171" stroke-linecap="round" stroke-linejoin="round"/>
<path d="M126.866 115.993C126.866 115.993 130.196 131.863 131.762 134.284C127.086 164.566 121.311 225.845 120.211 236.599C126.449 239.266 133.397 239.779 139.959 238.057C139.959 238.057 148.067 175.43 149.37 161.127L169.723 178.345C171.454 179.827 173.492 180.908 175.691 181.509L205.45 189.732" stroke="#120071" stroke-width="0.769171" stroke-linecap="round" stroke-linejoin="round"/>
<path d="M221.097 173.256C215.885 172.967 211.542 199.592 215.504 205.176C215.746 205.578 216.115 205.887 216.553 206.054C216.992 206.221 217.473 206.235 217.921 206.095C218.217 206.002 218.49 205.843 218.717 205.632C224.279 201.264 227.547 173.609 221.097 173.256Z" stroke="#120071" stroke-width="0.769171" stroke-linecap="round" stroke-linejoin="round"/>
<path d="M123.292 237.809L122.857 241.495C122.655 243.289 121.987 244.999 120.921 246.456C119.854 247.912 118.426 249.065 116.777 249.801C112.461 251.733 108.389 254.17 104.648 257.062C104.535 257.152 104.453 257.275 104.414 257.413C104.374 257.552 104.378 257.699 104.426 257.835C104.474 257.971 104.562 258.089 104.68 258.172C104.798 258.256 104.938 258.3 105.082 258.3C117.376 258.3 127.69 258.19 137.511 258.163C137.619 254.91 137.124 251.665 136.053 248.592C135.918 248.175 135.881 247.733 135.943 247.299C136.182 245.455 136.714 240.395 136.879 238.634" stroke="#120071" stroke-width="0.769171" stroke-linecap="round" stroke-linejoin="round"/>
<path d="M213.12 171.744C212.518 169.766 211.133 168.669 209.282 169.628C205.391 171.645 201.54 182.027 203.551 187.563C204.474 190.104 206.494 190.784 208.939 188.164" stroke="#120071" stroke-width="0.769171" stroke-linecap="round" stroke-linejoin="round"/>
<path d="M208.142 170.479C212.392 171.659 216.708 172.586 221.068 173.257" stroke="#120071" stroke-width="0.769171" stroke-linecap="round" stroke-linejoin="round"/>
<path d="M203.16 186.016C205.008 186.307 206.801 186.883 208.471 187.724C210.225 189.185 210.747 191.343 211.415 193.66C212.791 198.452 213.081 204.59 216.269 205.902" stroke="#120071" stroke-width="0.769171" stroke-linecap="round" stroke-linejoin="round"/>
<path d="M89.1035 93.5215C90.0151 93.5659 90.9072 93.8014 91.722 94.2126C92.5368 94.6239 93.2561 95.2018 93.8332 95.9088" stroke="#120071" stroke-width="0.769171" stroke-linecap="round" stroke-linejoin="round"/>
<path d="M95.2635 94.402C94.8058 93.8933 94.2892 93.4409 93.7246 93.0542" stroke="#120071" stroke-width="0.769171" stroke-linecap="round" stroke-linejoin="round"/>
<path d="M88.7734 98.6377C89.5002 99.625 90.1097 100.693 90.5889 101.823" stroke="#120071" stroke-width="0.769171" stroke-linecap="round" stroke-linejoin="round"/>
<path d="M87.8931 95.887C88.9658 95.5569 90.8088 96.1345 92.5417 97.95" stroke="#120071" stroke-width="0.769171" stroke-linecap="round" stroke-linejoin="round"/>
<path d="M92.2394 108.236C92.0694 106.02 91.5108 103.851 90.589 101.829C87.6733 101.471 86.3558 97.7997 87.1231 96.4722C87.2934 96.1851 87.5703 95.977 87.8933 95.8931C87.6808 95.3365 87.6614 94.7247 87.8383 94.1558C87.9757 93.9472 88.1639 93.7771 88.3853 93.6616C88.6068 93.5461 88.854 93.489 89.1036 93.4957C89.1014 93.2033 89.1576 92.9134 89.2687 92.643C89.7189 91.7135 91.7443 91.7352 93.7248 93.0555C90.8641 87.6657 91.4909 83.9001 92.0193 85.025C93.812 88.3664 95.7857 91.6074 97.9318 94.7335C98.0144 93.9083 98.2359 92.4837 98.8396 92.3679C99.5287 92.2376 101.563 100.51 102.415 104.113" stroke="#120071" stroke-width="0.769171" stroke-linecap="round" stroke-linejoin="round"/>
<path d="M196.617 155.186C195.466 154.747 194.345 154.233 193.262 153.647C194.488 154.909 195.783 156.102 197.14 157.221C198.937 158.417 198.051 159.554 195.82 158.542C194.431 157.859 193.09 157.086 191.804 156.225C192.849 157.463 193.787 158.643 194.224 159.031C195.828 160.451 194.811 161.465 192.766 160.189C191.568 159.399 190.42 158.536 189.328 157.604C189.649 158.258 190.027 158.883 190.456 159.474C191.873 161.029 190.977 161.646 189.053 160.272C185.349 157.459 181.839 154.399 178.547 151.113C182.346 149.491 185.412 146.523 187.156 142.779C188.696 143.984 190.464 144.864 192.354 145.364C198.103 146.821 197.47 148.473 190.566 148.088C192.712 150.251 195.113 152.144 197.718 153.725C199.51 154.904 198.932 156.027 196.617 155.186Z" stroke="#120071" stroke-width="0.769171" stroke-linecap="round" stroke-linejoin="round"/>
<path d="M190.648 152.081C191.281 152.493 192.189 153.071 193.262 153.648" stroke="#120071" stroke-width="0.769171" stroke-linecap="round" stroke-linejoin="round"/>
<path d="M190.539 148.091C190.126 147.656 189.686 147.21 189.273 146.715" stroke="#120071" stroke-width="0.769171" stroke-linecap="round" stroke-linejoin="round"/>
<path d="M188.504 153.976C189.108 154.41 190.373 155.296 191.804 156.204" stroke="#120071" stroke-width="0.769171" stroke-linecap="round" stroke-linejoin="round"/>
<path d="M186.905 155.434C187.4 155.929 188.308 156.726 189.296 157.579" stroke="#120071" stroke-width="0.769171" stroke-linecap="round" stroke-linejoin="round"/>
<path d="M130.25 84.4182C130.442 83.318 130.664 81.8601 130.992 80.4848C131.518 78.2857 133.605 78.2567 133.468 79.4945C134.788 77.1014 136.879 77.9817 136.523 79.0269C137.731 76.8814 140.042 77.7616 139.492 78.8619C140.84 76.9914 143.011 77.7891 142.489 78.9994C143.864 77.184 146.23 78.0642 144.718 80.5398C142.946 83.4352 137.588 91.7293 140.549 95.9117" stroke="#120071" stroke-width="0.769171" stroke-linecap="round" stroke-linejoin="round"/>
<path d="M253.386 105.707L271.126 120.834L253.386 135.934" stroke="#120071" stroke-width="0.769171" stroke-linecap="round" stroke-linejoin="round"/>
<path d="M26.3114 106.23L9.78125 120.34L27.4942 135.439" stroke="#120071" stroke-width="0.769171" stroke-linecap="round" stroke-linejoin="round"/>
<path d="M127.443 101.224C127.443 101.224 133.33 122.924 127.692 119.796" stroke="#120071" stroke-width="0.769171" stroke-linecap="round" stroke-linejoin="round"/>
<path d="M150.277 101.555C152.55 103.789 153.441 111.319 153.173 116.105C152.796 121.28 152.851 126.478 153.338 131.645C159.434 134.388 162.822 140.684 165.412 146.002C168.878 153.181 177.573 161.133 177.573 161.133L211.069 169.354" stroke="#120071" stroke-width="0.769171" stroke-linecap="round" stroke-linejoin="round"/>
<path d="M130.964 100.343C131.953 103.168 132.69 106.075 133.165 109.029L148.656 108.617C148.115 105.651 147.362 102.728 146.4 99.8711" stroke="#120071" stroke-width="0.769171" stroke-linecap="round" stroke-linejoin="round"/>
<path d="M33.9568 164.428L27.7417 170.643" stroke="#120071" stroke-width="0.769171" stroke-linecap="round" stroke-linejoin="round"/>
<path d="M41.521 126.059V152.272C41.5229 153.474 42.0015 154.627 42.852 155.478C43.7025 156.328 44.8554 156.807 46.0582 156.809H128.706" stroke="#120071" stroke-width="0.769171" stroke-linecap="round" stroke-linejoin="round"/>
<path d="M49.3867 148.998C50.9129 150.524 51.9523 152.469 52.3735 154.585C52.7946 156.702 52.5787 158.896 51.7529 160.89C50.9271 162.884 49.5285 164.588 47.7341 165.787C45.9396 166.986 43.8299 167.626 41.6718 167.626C39.5136 167.626 37.4039 166.986 35.6095 165.787C33.815 164.588 32.4165 162.884 31.5907 160.89C30.7649 158.896 30.5489 156.702 30.9701 154.585C31.3912 152.469 32.4306 150.524 33.9568 148.998C36.004 146.954 38.7788 145.806 41.6718 145.806C44.5648 145.806 47.3395 146.954 49.3867 148.998Z" stroke="#120071" stroke-width="0.769171" stroke-linecap="round" stroke-linejoin="round"/>
<path d="M120.541 39.6416H108.659" stroke="#120071" stroke-width="0.769171" stroke-linecap="round" stroke-linejoin="round"/>
<path d="M114.614 45.5817V33.7002" stroke="#120071" stroke-width="0.769171" stroke-linecap="round" stroke-linejoin="round"/>
<path d="M178.767 209.453C178.826 210.133 178.683 210.815 178.356 211.414C178.027 212.012 177.528 212.499 176.923 212.815C176.318 213.13 175.633 213.259 174.955 213.186C174.276 213.113 173.634 212.84 173.111 212.401C172.588 211.962 172.207 211.378 172.016 210.722C171.826 210.067 171.834 209.37 172.038 208.719C172.243 208.068 172.636 207.492 173.167 207.064C173.654 206.672 174.239 206.42 174.858 206.334C175.478 206.249 176.108 206.333 176.684 206.578C177.259 206.824 177.756 207.221 178.123 207.727C178.49 208.233 178.713 208.83 178.767 209.453Z" stroke="#120071" stroke-width="0.769171" stroke-linecap="round" stroke-linejoin="round"/>
<path d="M280.258 71.7667C279.046 72.6191 277.746 73.3384 276.38 73.9123C276.6 73.7472 278.167 71.8492 280.01 69.5387C282.211 66.788 281.603 65.5502 278.553 68.3284C277.471 69.3261 276.312 70.2366 275.087 71.0516C275.224 70.859 277.258 67.6682 278.635 65.0551C280.176 62.0843 279.069 61.3692 276.82 64.2299C276.701 64.3746 272.756 69.0609 271.621 70.3103L272.443 69.3765C272.669 67.8347 273.113 66.3334 273.766 64.919C275.004 62.0235 273.963 61.1882 271.978 64.2863C271.871 64.4528 268.992 69.1087 268.458 69.7327C268.023 70.235 267.247 71.053 266.781 70.8909C265.076 70.2582 263.068 66.1872 261.61 66.9024C260.675 67.3367 262.243 69.9831 263.15 71.8811C263.825 73.3013 262.561 75.027 261.197 76.1432C264.374 78.4282 266.812 81.5933 268.21 85.2479C273.959 80.4343 275.417 78.7332 279.818 74.7128C280.313 74.2467 280.891 73.6994 281.523 73.0364C283.889 70.5564 283.449 69.5387 280.258 71.7667Z" stroke="#120071" stroke-width="0.769171" stroke-linecap="round" stroke-linejoin="round"/>
<path d="M231.411 117.204L227.037 117.946C226.899 118.606 226.652 119.844 226.404 121.131" stroke="#120071" stroke-width="0.769171" stroke-linecap="round" stroke-linejoin="round"/>
<path d="M217.686 104.414C218.869 104.909 220.516 104.795 222.773 103.617C225.576 102.153 258.749 75.8638 258.749 75.8638C261.693 73.6372 270.988 86.2874 267.935 88.5169L226.404 121.137C225.5 125.98 225.049 130.897 225.056 135.824" stroke="#120071" stroke-width="0.769171" stroke-linecap="round" stroke-linejoin="round"/>
<path d="M208.664 106.477C209.457 105.739 210.045 104.808 210.37 103.774C210.694 102.74 210.744 101.64 210.514 100.581C208.768 101.099 204.564 101.658 206.711 92.7529C208.738 84.4314 212.702 89.0887 213.337 92.307C213.472 92.9947 213.743 93.277 214.605 92.2578C216.143 90.4409 218.212 93.2712 215.128 95.7237C214.694 96.074 214.155 102.906 217.659 104.41C213.725 112.115 210.7 112.83 208.664 106.477Z" stroke="#120071" stroke-width="0.769171" stroke-linecap="round" stroke-linejoin="round"/>
<path d="M210.514 100.579C210.937 100.446 211.488 100.209 211.827 100.096L210.647 101.664" stroke="#120071" stroke-width="0.769171" stroke-linecap="round" stroke-linejoin="round"/>
<path d="M187.459 125.977C193.757 116.213 199.395 110.301 206.078 107.961C207.031 107.646 207.911 107.141 208.664 106.478" stroke="#120071" stroke-width="0.769171" stroke-linecap="round" stroke-linejoin="round"/>
<path d="M201.981 115.361C200.389 118.772 198.76 120.23 202.642 131.698C203.221 133.404 203.384 133.926 204.209 136.1" stroke="#120071" stroke-width="0.769171" stroke-linecap="round" stroke-linejoin="round"/>
<path d="M211.552 110.712C209.902 117.891 210.315 126.307 212.268 135.604" stroke="#120071" stroke-width="0.769171" stroke-linecap="round" stroke-linejoin="round"/>
<path d="M270.191 69.511C272.545 70.7696 274.385 72.8128 275.39 75.286" stroke="#120071" stroke-width="0.769171" stroke-linecap="round" stroke-linejoin="round"/>
<path d="M269.558 71.7668C271.071 74.435 271.151 76.9367 269.124 79.0272" stroke="#120071" stroke-width="0.769171" stroke-linecap="round" stroke-linejoin="round"/>
<path d="M201.459 127.985C199.638 130.938 197.437 133.638 194.912 136.017" stroke="#120071" stroke-width="0.769171" stroke-linecap="round" stroke-linejoin="round"/>
<path d="M24.2341 95.2386C23.1947 92.6906 21.9855 90.2153 20.6148 87.8291C19.1868 85.665 17.5265 83.6635 15.6636 81.8602C12.9129 79.2137 13.1619 78.1743 16.7928 80.1548C18.1189 80.8786 30.468 89.2827 32.4427 91.3515" stroke="#120071" stroke-width="0.769171" stroke-linecap="round" stroke-linejoin="round"/>
<path d="M25.8438 86.3163C27.6867 87.4165 26.501 83.5656 26.4489 82.0802C26.391 80.4573 26.9368 78.6723 28.3744 82.9604C29.4258 85.8897 30.7805 88.701 32.4164 91.3485" stroke="#120071" stroke-width="0.769171" stroke-linecap="round" stroke-linejoin="round"/>
<path d="M16.2175 82.4102C15.2475 81.6864 14.237 81.0161 13.1918 80.4023C9.28291 78.2133 9.14827 79.577 10.7162 80.7598C12.064 81.7732 14.321 83.3657 15.4459 84.4458C17.2628 86.183 21.8014 89.617 22.6526 91.6236" stroke="#120071" stroke-width="0.769171" stroke-linecap="round" stroke-linejoin="round"/>
<path d="M10.4963 80.595C7.93818 79.8798 7.74563 80.6181 8.10322 80.8425C9.5162 81.7343 11.9744 82.9157 13.3295 83.7032C14.0954 84.1491 17.1515 86.0688 17.8942 86.619" stroke="#120071" stroke-width="0.769171" stroke-linecap="round" stroke-linejoin="round"/>
<path d="M85.7476 121.412L93.8056 126.417" stroke="#120071" stroke-width="0.769171" stroke-linecap="round" stroke-linejoin="round"/>
<path d="M206.573 92.9717H187.459V136.099H230.585V117.946" stroke="#120071" stroke-width="0.769171" stroke-linecap="round" stroke-linejoin="round"/>
<path d="M97.9316 94.7319C98.4835 95.7588 98.9349 96.8366 99.2795 97.9502" stroke="#120071" stroke-width="0.769171" stroke-linecap="round" stroke-linejoin="round"/>
<path d="M129.645 119.459L134.128 134.284L123.292 237.727" stroke="#120071" stroke-width="0.769171" stroke-linecap="round" stroke-linejoin="round" stroke-dasharray="1.14 1.9"/>
<path d="M151.813 156.094L174.146 175.43L203.027 183.709" stroke="#120071" stroke-width="0.769171" stroke-linecap="round" stroke-linejoin="round" stroke-dasharray="1.14 1.9"/>
</svg>
