<svg width="175" height="227" viewBox="0 0 175 227" fill="none" xmlns="http://www.w3.org/2000/svg">
<path d="M132.217 107.66C118.251 103.155 114.902 89.058 114.902 89.058C115.371 88.3881 115.829 87.7104 116.276 87.0252L116.727 79.7523C109.432 77.7354 113.573 68.8521 113.573 68.8521C110.228 63.9625 107.435 58.7167 105.248 53.2109C101.197 53.6056 97.317 55.039 93.9827 57.3725C96.771 66.6815 101.48 78.1747 111.487 93.4872C107.181 98.8628 100.152 107.362 96.7665 111.782L69.7756 99.6985L63.623 112.424L93.9183 127.936C96.0108 128.915 98.3792 129.133 100.615 128.554C102.852 127.974 104.816 126.633 106.169 124.76L112.8 115.62C115.46 119.697 117.499 123.044 124.883 126.134C132.739 122.599 136.14 118.318 139.087 112.424C136.537 111.248 134.212 109.636 132.217 107.66Z" fill="#FF6635"/>
<path d="M132.582 162.652L131.487 156.665L157.062 151.946L158.156 157.931L132.582 162.652Z" fill="#FF6635"/>
<path d="M154.961 157.61L150.948 153.062L172.554 134.009L176.566 138.557L154.961 157.61Z" fill="#FF6635"/>
<path d="M56.7352 66.6153C55.8277 66.5895 54.9471 66.9253 54.2871 67.5488C53.6272 68.1723 53.242 69.0325 53.2162 69.94C53.1905 70.8475 53.5263 71.7281 54.1498 72.3881C54.7733 73.048 55.6334 73.4332 56.541 73.459C57.4485 73.4847 58.3291 73.1489 58.989 72.5254C59.649 71.9019 60.0342 71.0418 60.0599 70.1342C60.0857 69.2267 59.7499 68.3461 59.1264 67.6862C58.5029 67.0262 57.6427 66.641 56.7352 66.6153Z" fill="#FF6635"/>
<path d="M59.5246 50.8668C60.4403 49.4762 61.0004 47.882 61.1557 46.2242C61.3109 44.5665 61.0565 42.896 60.4148 41.3596C59.7731 39.8233 58.7638 38.468 57.4757 37.4131C56.1875 36.3582 54.6599 35.6359 53.0272 35.3097C51.3945 34.9836 49.7066 35.0635 48.112 35.5425C46.5174 36.0215 45.0649 36.8849 43.8822 38.0567C42.6994 39.2286 41.8227 40.6732 41.3291 42.2633C40.8354 43.8534 40.74 45.5405 41.0511 47.1761C41.0771 47.35 41.1121 47.5217 41.1584 47.6911L46.0924 46.7696C45.8884 46.0969 45.8238 45.3897 45.9026 44.6913C45.9815 43.9928 46.2021 43.3178 46.551 42.7076C46.8999 42.0974 47.3697 41.5649 47.9316 41.1426C48.4936 40.7204 49.1358 40.4173 49.819 40.252C50.5022 40.0867 51.2119 40.0626 51.9047 40.1813C52.5975 40.2999 53.2588 40.5587 53.8481 40.9419C54.4374 41.3251 54.9422 41.8246 55.3316 42.4097C55.7211 42.9949 55.9869 43.6534 56.1129 44.3449C56.5647 46.808 55.2264 48.6985 53.5595 50.7821C52.4652 52.0868 51.8654 53.7353 51.8655 55.4383C51.8723 57.9815 52.175 60.5168 52.769 62.9901L57.851 62.0245C57.3057 59.7495 57.0676 57.4117 57.1429 55.0735C57.4647 53.4416 58.6449 52.1971 59.5246 50.8668Z" fill="#FF6635"/>
<path fill-rule="evenodd" clip-rule="evenodd" d="M46.4858 9.03996C54.7253 8.03251 63.0837 9.28685 70.6646 12.6685C85.251 19.1666 94.2111 31.8399 96.8842 45.6843C96.8842 45.6843 96.9497 47.5499 97.0908 48.9876C96.1998 49.5251 94.446 48.031 92.9135 46.7244C91.5312 45.5465 90.3284 44.5222 90.1026 45.2823C89.8857 46.0129 90.4075 46.7956 91.2364 48.0378C92.3488 49.7047 94.0123 52.1982 95.1845 56.5044L94.0552 57.4225C94.3974 58.7912 95.2071 61.0928 96.1591 63.8032L96.5499 64.9178C94.6549 73.1122 90.4594 80.9158 83.8303 87.2977C78.1683 92.7743 71.1875 96.6955 63.5646 98.6813C63.3952 98.7264 62.241 97.9766 60.8689 97.0855C58.993 95.8659 56.7096 94.383 55.9755 94.3017C54.8112 94.1719 57.5645 97.7236 58.7536 99.2595C58.862 99.3973 58.9569 99.5192 59.0337 99.6209C53.0344 100.558 46.9084 100.292 41.0133 98.8361C35.1182 97.3808 29.5719 94.7659 24.6981 91.1441C19.8244 87.5224 15.7207 82.9663 12.6265 77.7416C9.53239 72.5169 7.50975 66.7284 6.67662 60.7137C5.8435 54.699 6.21657 48.5786 7.77408 42.7096C9.33159 36.8406 12.0423 31.3406 15.7482 26.5304C19.454 21.7203 24.0807 17.6963 29.3583 14.6934C34.6358 11.6904 40.4586 9.76854 46.4869 9.03996H46.4858ZM47.6896 18.8278C54.1354 18.0395 60.6741 19.0205 66.6047 21.6658C89.9727 32.0759 94.8773 62.7461 76.9041 80.0463C72.8263 83.9912 67.8686 86.9096 62.4403 88.5605C57.0121 90.2114 51.269 90.5475 45.6852 89.5409C40.1015 88.5343 34.8372 86.214 30.3271 82.7716C25.8171 79.3291 22.1905 74.8632 19.7469 69.7427C17.3032 64.6221 16.1127 58.9937 16.2734 53.3223C16.4342 47.6508 17.9417 42.0989 20.6714 37.125C23.4012 32.151 27.2749 27.8978 31.9728 24.7163C36.6706 21.5349 42.0578 19.5165 47.6896 18.8278Z" fill="#FFD647"/>
<path d="M176.63 146.86L179.248 142.891L175.214 139.715L173.091 141.625L176.63 146.86Z" fill="#FFD647"/>
<path d="M172.662 92.2767C175.479 92.6704 178.34 91.9556 180.641 90.2826C182.942 88.6097 184.504 86.1092 184.998 83.3076C181.526 82.1906 177.865 81.7804 174.232 82.101C170.598 82.4216 167.066 83.4666 163.843 85.1744C164.536 87.0432 165.722 88.6899 167.274 89.9402C168.826 91.1905 170.688 91.9978 172.662 92.2767Z" fill="#FFD647"/>
<path d="M108.015 87.9854L92.395 75.8418C90.1495 80.6018 86.8997 84.819 82.8691 88.2034L102.971 104.059L111.511 93.4819L108.015 87.9854Z" fill="#FFD647"/>
<path d="M120.544 105.064L112.823 115.707C113.367 116.705 113.999 117.653 114.711 118.538L120.544 105.064Z" fill="#FFD647"/>
<path d="M116.598 81.9775L119.665 79.8114C118.693 79.8749 117.716 79.8533 116.748 79.7471L116.598 81.9775Z" fill="#FFD647"/>
<path d="M137.002 93.1565C137.227 91.4266 136.835 89.6724 135.892 88.204C134.95 86.7356 133.52 85.6474 131.853 85.1315C132.066 84.5189 132.132 83.8648 132.046 83.2219C130.63 72.8806 128.484 66.5078 124.944 62.8613C122.541 60.3496 117.628 60.7585 114.71 64.4265C111.812 68.1002 112.54 72.9461 112.521 73.3482C112.815 69.7383 114.5 66.3839 117.22 63.9928C117.982 63.3677 118.877 62.9271 119.837 62.7054C119.687 65.968 122.283 71.1381 125.416 69.8506C127.511 68.9957 127.763 72.7869 123.635 72.7869C122.519 81.7334 122.862 91.9854 126.982 100.337L127.647 101.602C129.672 105.29 132.567 108.427 136.08 110.742C138.413 110.864 140.699 110.054 142.435 108.491C144.171 106.928 145.216 104.739 145.338 102.406C145.46 100.073 144.65 97.7871 143.086 96.0512C141.523 94.3152 139.334 93.2712 137.002 93.1486V93.1565Z" fill="#FFD647"/>
<path d="M176.63 146.86L179.248 142.891L175.214 139.715L173.091 141.625L176.63 146.86Z" stroke="#120071" stroke-width="0.769171" stroke-linejoin="round"/>
<path d="M108.015 87.9856L92.395 75.8419C90.1495 80.6019 86.8997 84.8191 82.8691 88.2035L102.971 104.059L111.511 93.482L108.015 87.9856Z" stroke="#120071" stroke-width="0.769171"/>
<path d="M113.25 68.3962C110.01 63.659 107.331 58.5613 105.268 53.2057C101.216 53.5988 97.3357 55.0345 94.0039 57.3729C96.7933 66.6842 101.491 78.1638 111.508 93.4831" stroke="#120071" stroke-width="0.769171" stroke-linecap="round" stroke-linejoin="round"/>
<path d="M97.4369 50.8882C96.8353 47.758 96.6048 44.5679 96.7502 41.3838C96.6862 39.7385 96.7998 38.091 97.089 36.4701C97.8796 32.0239 98.9626 32.4576 99.3206 36.749C100.196 47.2608 102.709 50.738 103.632 53.4416" stroke="#120071" stroke-width="0.769171" stroke-linecap="round" stroke-linejoin="round"/>
<path d="M96.8991 37.8218C96.1797 36.3045 95.2477 34.8975 94.1311 33.6433C93.7923 33.318 93.0018 33.2853 93.9809 36.0036C94.191 36.584 95.0301 39.0934 95.2898 39.9946C95.892 41.7925 96.3794 43.6268 96.7489 45.4865" stroke="#120071" stroke-width="0.769171" stroke-linecap="round" stroke-linejoin="round"/>
<path d="M97.051 48.378C96.9008 50.5022 93.6201 47.217 92.073 45.9748C90.6805 44.8567 88.685 44.1464 91.4936 48.2063C93.158 50.7965 94.417 53.6257 95.2272 56.5961" stroke="#120071" stroke-width="0.769171" stroke-linecap="round" stroke-linejoin="round"/>
<path d="M178.154 149.092L173.091 141.625" stroke="#120071" stroke-width="0.769171" stroke-linecap="round" stroke-linejoin="round"/>
<path d="M116.775 79.6917C116.775 79.6917 116.538 82.664 116.302 87.0198C115.828 87.6914 115.363 88.3691 114.907 89.0526" stroke="#120071" stroke-width="0.769171" stroke-linecap="round" stroke-linejoin="round"/>
<path d="M119.666 79.876L116.606 81.9517" stroke="#120071" stroke-width="0.769171" stroke-linecap="round" stroke-linejoin="round"/>
<path d="M152.021 152.096L134.878 133.194" stroke="#120071" stroke-width="0.769171" stroke-linecap="round" stroke-linejoin="round"/>
<path d="M120.523 105.043L114.709 118.517" stroke="#120071" stroke-width="0.769171" stroke-linecap="round" stroke-linejoin="round"/>
<path d="M164.722 140.895C158.061 130.19 148.388 121.689 136.916 116.458" stroke="#120071" stroke-width="0.769171" stroke-linecap="round" stroke-linejoin="round"/>
<path d="M133.271 156.337L124.942 126.113" stroke="#120071" stroke-width="0.769171" stroke-linecap="round" stroke-linejoin="round"/>
<path d="M157.641 155.249L158.156 157.931L132.582 162.652L131.487 156.665L150.948 153.083" stroke="#120071" stroke-width="0.769171" stroke-linecap="round" stroke-linejoin="round"/>
<path d="M136.058 110.772C138.356 110.833 140.588 109.995 142.277 108.435C143.967 106.876 144.981 104.718 145.104 102.422C145.227 100.126 144.449 97.873 142.935 96.1421C141.422 94.4112 139.293 93.3393 137.001 93.1546C137.227 91.4246 136.834 89.6705 135.892 88.2021C134.95 86.7337 133.519 85.6454 131.852 85.1296C132.547 83.116 130.399 70.4619 126.531 64.8131C122.901 59.512 117.596 60.7531 114.688 64.4246C111.78 68.096 112.518 72.9431 112.499 73.3462" stroke="#120071" stroke-width="0.769171" stroke-linecap="round" stroke-linejoin="round"/>
<path d="M176.63 146.86L191.242 124.632C194.031 120.147 193.923 118.731 195.168 115.642C201.004 112.467 214.242 108.733 220.787 107.875C215.98 115.385 204.716 119.826 200.275 129.138L187.08 159.433C186.3 161.228 185.097 162.806 183.574 164.034C182.051 165.263 180.253 166.103 178.334 166.485C176.415 166.866 174.432 166.777 172.555 166.225C170.678 165.674 168.962 164.676 167.555 163.317L158.457 154.542" stroke="#120071" stroke-width="0.769171" stroke-linecap="round" stroke-linejoin="round"/>
<path d="M154.961 157.61L150.948 153.062L172.554 134.009L176.566 138.557L154.961 157.61Z" stroke="#120071" stroke-width="0.769171" stroke-linecap="round" stroke-linejoin="round"/>
<path d="M58.7284 101.395C61.0672 101.159 57.1789 97.4502 56.5397 96.313C55.6758 94.7715 54.7599 92.986 58.7927 95.8195C62.0599 97.8816 65.4488 99.7443 68.9409 101.397" stroke="#120071" stroke-width="0.769171" stroke-linecap="round" stroke-linejoin="round"/>
<path d="M136.701 161.879L138.481 168.274C139.642 172.382 142.359 175.877 146.055 178.014C149.746 180.16 183.453 196.337 183.453 196.337C192.444 201.419 196.112 212.944 203.278 218.266C202.871 211.678 200.038 198.204 197.27 192.178C194.317 190.744 192.879 190.738 188.774 187.802L156.568 165.166L154.724 158.557" stroke="#120071" stroke-width="0.769171" stroke-linecap="round" stroke-linejoin="round"/>
<path d="M120.523 105.043C119.301 106.631 111.973 116.771 106.169 124.782C104.814 126.652 102.85 127.992 100.614 128.571C98.3785 129.15 96.011 128.933 93.9183 127.956L63.623 112.446L69.7587 99.7227L96.7495 111.78" stroke="#120071" stroke-width="0.769171" stroke-linecap="round" stroke-linejoin="round"/>
<path d="M132.217 107.661C134.226 109.629 136.55 111.248 139.094 112.45C136.248 119 131.378 123.241 124.9 126.156C117.495 123.056 115.468 119.74 112.795 115.645" stroke="#120071" stroke-width="0.769171" stroke-linecap="round" stroke-linejoin="round"/>
<path d="M171.31 135.082C158.018 117.266 143.933 114.446 139.094 112.45" stroke="#120071" stroke-width="0.769171" stroke-linecap="round" stroke-linejoin="round"/>
<path d="M114.902 89.0582C114.902 89.0582 118.249 103.154 132.217 107.66C130.063 105.537 128.285 103.062 126.96 100.344C122.83 92.0035 122.497 81.7413 123.612 72.7948H124.17C127.558 72.6017 127.495 68.9947 125.393 69.8586C122.259 71.1426 119.665 65.9748 119.816 62.7145C118.856 62.9379 117.961 63.3779 117.198 64.0008C115.611 65.3901 114.367 67.1271 113.562 69.0764C112.757 71.0257 112.413 73.1347 112.557 75.2387C112.957 77.966 114.835 80.1456 119.665 79.8791" stroke="#120071" stroke-width="0.769171" stroke-linecap="round" stroke-linejoin="round"/>
<path d="M114.901 89.0583C112.884 92.1075 97.1575 110.75 95.0547 114.162" stroke="#120071" stroke-width="0.769171" stroke-linecap="round" stroke-linejoin="round"/>
<path d="M50.7266 103.841C49.6966 103.97 47.5735 104.4 46.9501 104.528C44.1189 105.111 44.4837 105.858 44.9343 105.901C46.757 106.074 49.7181 106.053 51.4132 106.266C54.1383 106.61 59.3953 107.103 61.4552 108.326" stroke="#120071" stroke-width="0.769171" stroke-linecap="round" stroke-linejoin="round"/>
<path d="M51.2637 106.244C50.8119 106.416 50.4054 106.566 50.2123 106.652C47.5087 107.682 48.0033 108.374 48.4528 108.346C50.2778 108.239 53.1959 107.703 54.9114 107.638C56.9745 107.599 59.0365 107.757 61.0696 108.11" stroke="#120071" stroke-width="0.769171" stroke-linecap="round" stroke-linejoin="round"/>
<path d="M129.642 44.6022C129.609 45.1542 129.413 45.684 129.078 46.1242C128.743 46.5643 128.285 46.895 127.762 47.0743C127.371 47.2086 126.956 47.2546 126.545 47.2089C126.134 47.1633 125.739 47.0271 125.387 46.8103C125.035 46.5934 124.736 46.3013 124.511 45.9548C124.285 45.6084 124.14 45.2164 124.084 44.8069C124.028 44.3974 124.064 43.9807 124.189 43.5867C124.314 43.1928 124.525 42.8314 124.806 42.5287C125.087 42.2259 125.432 41.9893 125.816 41.8358C126.199 41.6823 126.612 41.6158 127.025 41.6411C127.763 41.6896 128.453 42.0281 128.943 42.5827C129.434 43.1373 129.685 43.8631 129.642 44.6022Z" stroke="#120071" stroke-width="0.769171" stroke-linecap="round" stroke-linejoin="round"/>
<path d="M203.815 112.102C204.438 106.056 203.027 99.9748 199.805 94.821C196.583 89.6671 191.734 85.7352 186.026 83.6478C181.282 81.914 176.15 81.5297 171.2 82.5376C166.251 83.5455 161.678 85.9061 157.99 89.357C154.302 92.808 151.643 97.214 150.309 102.085C148.975 106.957 149.018 112.103 150.433 116.952" stroke="#120071" stroke-width="0.769171" stroke-linecap="round" stroke-linejoin="round"/>
<path d="M174.784 136.538C177.855 136.756 180.939 136.444 183.903 135.616" stroke="#120071" stroke-width="0.769171" stroke-linecap="round" stroke-linejoin="round"/>
<path d="M175.707 70.4991C174.099 70.2775 172.462 70.4149 170.913 70.9015C169.365 71.3881 167.943 72.2119 166.751 73.3134C165.559 74.415 164.626 75.7671 164.018 77.2724C163.411 78.7777 163.145 80.3989 163.239 82.0194C163.367 84.1867 164.134 86.2676 165.443 87.9993C166.753 89.731 168.546 91.0359 170.597 91.7491C172.647 92.4622 174.863 92.5518 176.965 92.0064C179.066 91.461 180.959 90.3051 182.404 88.6847C183.848 87.0636 184.78 85.0506 185.08 82.9003C185.479 80.0133 184.715 77.0863 182.958 74.7614C181.201 72.4366 178.593 70.9037 175.707 70.4991Z" stroke="#120071" stroke-width="0.769171" stroke-linecap="round" stroke-linejoin="round"/>
<path d="M94.5844 37.7577C91.8481 30.7788 87.4391 24.5791 81.745 19.7038C76.0509 14.8285 69.2462 11.4269 61.9291 9.79815C54.6121 8.1694 47.007 8.3634 39.7825 10.3631C32.5581 12.3628 25.9356 16.1069 20.4974 21.2662C15.0593 26.4255 10.9721 32.8419 8.59527 39.9512C6.21843 47.0605 5.62475 54.6449 6.86645 62.0374C8.10816 69.43 11.1472 76.4042 15.7163 82.3468C20.2854 88.2894 26.2447 93.0184 33.07 96.1178C41.2029 99.7458 50.2051 100.967 59.0106 99.6368" stroke="#120071" stroke-width="0.769171" stroke-linecap="round" stroke-linejoin="round"/>
<path d="M96.5155 64.8344C95.1253 70.8456 92.5296 76.5121 88.8856 81.491C85.2417 86.4699 80.6253 90.6575 75.3158 93.8004C71.647 95.9665 67.6886 97.5993 63.5596 98.6497" stroke="#120071" stroke-width="0.769171" stroke-linecap="round" stroke-linejoin="round"/>
<path d="M66.6041 21.666C60.6737 19.0206 54.1351 18.0394 47.6895 18.8276C41.2439 19.6157 35.1344 22.1435 30.0161 26.1398C24.8979 30.1361 20.9639 35.4503 18.6362 41.5123C16.3084 47.5744 15.6746 54.1557 16.8028 60.5506C17.931 66.9455 20.7786 72.9127 25.0402 77.8122C29.3018 82.7118 34.8167 86.359 40.9934 88.3626C47.1702 90.3663 53.7758 90.6509 60.102 89.1858C66.4282 87.7208 72.2363 84.5614 76.9035 80.0464C94.8767 62.7463 89.972 32.0761 66.6041 21.666Z" stroke="#120071" stroke-width="0.769171" stroke-linecap="round" stroke-linejoin="round"/>
<path d="M34.0342 129.395L43.5612 136.947L53.2801 122.036" stroke="#120071" stroke-width="0.769171" stroke-linecap="round" stroke-linejoin="round"/>
<path d="M166.972 40.6531L176.499 48.2049L186.218 33.2933" stroke="#120071" stroke-width="0.769171" stroke-linecap="round" stroke-linejoin="round"/>
<path d="M117.455 136.026L108.186 137.205" stroke="#120071" stroke-width="0.769171" stroke-linecap="round" stroke-linejoin="round"/>
<path d="M69.2988 169.513L60.0293 170.692" stroke="#120071" stroke-width="0.769171" stroke-linecap="round" stroke-linejoin="round"/>
<path d="M113.4 141.261L112.22 131.971" stroke="#120071" stroke-width="0.769171" stroke-linecap="round" stroke-linejoin="round"/>
<path d="M65.2436 174.748L64.0635 165.458" stroke="#120071" stroke-width="0.769171" stroke-linecap="round" stroke-linejoin="round"/>
<path d="M60.0607 70.1344C60.0417 70.8113 59.8223 71.4675 59.4304 72.0198C59.0384 72.5721 58.4915 72.9958 57.8588 73.2372C57.226 73.4787 56.5359 73.5271 55.8756 73.3763C55.2154 73.2255 54.6146 72.8823 54.1494 72.3901C53.6843 71.8979 53.3755 71.2788 53.2621 70.6111C53.1488 69.9434 53.236 69.2571 53.5128 68.6389C53.7895 68.0208 54.2434 67.4986 54.8169 67.1384C55.3904 66.7782 56.0579 66.5962 56.7349 66.6154C57.6417 66.6434 58.5006 67.0293 59.1238 67.6887C59.747 68.3481 60.0839 69.2274 60.0607 70.1344Z" stroke="#120071" stroke-width="0.769171" stroke-linecap="round" stroke-linejoin="round"/>
<path d="M59.5031 50.8669C60.4189 49.4763 60.979 47.8821 61.1342 46.2244C61.2894 44.5666 61.035 42.8961 60.3933 41.3598C59.7516 39.8234 58.7424 38.4682 57.4542 37.4133C56.166 36.3584 54.6384 35.6361 53.0057 35.3099C51.373 34.9837 49.6851 35.0636 48.0905 35.5426C46.4959 36.0216 45.0434 36.885 43.8607 38.0569C42.6779 39.2288 41.8012 40.6733 41.3076 42.2634C40.8139 43.8535 40.7185 45.5406 41.0296 47.1762C41.0545 47.3502 41.0906 47.5218 41.1369 47.6912L46.0721 46.7697C45.8665 46.0967 45.8007 45.3888 45.8787 44.6894C45.9566 43.99 46.1767 43.314 46.5254 42.7028C46.8741 42.0916 47.3441 41.5581 47.9065 41.1351C48.4689 40.7121 49.1118 40.4085 49.7957 40.243C50.4797 40.0775 51.1902 40.0535 51.8838 40.1726C52.5773 40.2917 53.2392 40.5512 53.8288 40.9354C54.4184 41.3195 54.9232 41.8202 55.3123 42.4065C55.7014 42.9928 55.9666 43.6525 56.0914 44.345C56.5432 46.8081 55.2049 48.6986 53.538 50.7822C52.4437 52.0869 51.8439 53.7355 51.8441 55.4384C51.8192 56.3531 51.8599 57.269 51.9638 58.1793C52.0891 59.3763 52.7667 62.9902 52.7667 62.9902L57.8487 62.0246C57.7843 62.0246 57.162 57.9918 57.1191 57.5412C57.0011 56.7229 57.0011 55.8919 57.1191 55.0736C57.4432 53.4417 58.6234 52.1972 59.5031 50.8669Z" stroke="#120071" stroke-width="0.769171" stroke-linecap="round" stroke-linejoin="round"/>
<path d="M64.6729 110.257C61.6685 108.273 58.4868 106.572 55.1685 105.175C52.5045 104.201 49.7389 103.532 46.9245 103.179C42.7832 102.671 42.31 101.557 46.8172 100.948C48.4756 100.747 50.1471 100.675 51.8167 100.733C54.9822 100.774 58.1341 101.162 61.2149 101.892" stroke="#120071" stroke-width="0.769171" stroke-linecap="round" stroke-linejoin="round"/>
<path d="M13.6551 137.149C13.6221 137.701 13.4257 138.23 13.0909 138.671C12.7561 139.111 12.298 139.441 11.7748 139.621C11.384 139.755 10.9683 139.801 10.5576 139.755C10.1469 139.71 9.75139 139.573 9.39962 139.357C9.04786 139.14 8.74854 138.848 8.52325 138.501C8.29795 138.155 8.15226 137.763 8.09668 137.353C8.04111 136.944 8.07702 136.527 8.20183 136.133C8.32664 135.739 8.53724 135.378 8.81848 135.075C9.09972 134.772 9.44459 134.536 9.82827 134.382C10.2119 134.229 10.6249 134.162 11.0373 134.187C11.776 134.236 12.4656 134.574 12.9559 135.129C13.4462 135.684 13.6975 136.41 13.6551 137.149Z" stroke="#120071" stroke-width="0.769171" stroke-linecap="round" stroke-linejoin="round"/>
</svg>
