<svg width="28" height="28" viewBox="0 0 28 28" fill="none" xmlns="http://www.w3.org/2000/svg">
<path d="M14 2.5225C17.738 2.5225 18.181 2.537 19.657 2.604C20.5449 2.61478 21.4243 2.77781 22.257 3.086C22.8607 3.31911 23.4089 3.67592 23.8665 4.13351C24.3241 4.59109 24.6809 5.13933 24.914 5.743C25.2222 6.57572 25.3852 7.45515 25.396 8.343C25.463 9.819 25.4775 10.262 25.4775 14C25.4775 17.738 25.463 18.181 25.396 19.657C25.3852 20.5449 25.2222 21.4243 24.914 22.257C24.6809 22.8607 24.3241 23.4089 23.8665 23.8665C23.4089 24.3241 22.8607 24.6809 22.257 24.914C21.4243 25.2222 20.5449 25.3852 19.657 25.396C18.181 25.463 17.7385 25.4775 14 25.4775C10.2615 25.4775 9.819 25.463 8.343 25.396C7.45515 25.3852 6.57572 25.2222 5.743 24.914C5.13933 24.6809 4.59109 24.3241 4.13351 23.8665C3.67592 23.4089 3.31911 22.8607 3.086 22.257C2.77781 21.4243 2.61478 20.5449 2.604 19.657C2.537 18.181 2.5225 17.738 2.5225 14C2.5225 10.262 2.537 9.819 2.604 8.343C2.61478 7.45515 2.77781 6.57572 3.086 5.743C3.31911 5.13933 3.67592 4.59109 4.13351 4.13351C4.59109 3.67592 5.13933 3.31911 5.743 3.086C6.57572 2.77781 7.45515 2.61478 8.343 2.604C9.819 2.537 10.262 2.5225 14 2.5225ZM14 0C10.2 0 9.721 0.0160001 8.228 0.0840001C7.06607 0.106857 5.91643 0.326641 4.828 0.734C3.89827 1.09415 3.05398 1.64445 2.34917 2.34969C1.64437 3.05492 1.09458 3.89955 0.735 4.8295C0.327641 5.91793 0.107857 7.06757 0.085 8.2295C0.016 9.721 0 10.2 0 14C0 17.8 0.0160001 18.279 0.0840001 19.772C0.106857 20.9339 0.326641 22.0836 0.734 23.172C1.09386 24.1019 1.64394 24.9464 2.349 25.6515C3.05407 26.3566 3.89859 26.9066 4.8285 27.2665C5.91693 27.6739 7.06657 27.8936 8.2285 27.9165C9.721 27.984 10.2 28 14 28C17.8 28 18.279 27.984 19.772 27.916C20.9339 27.8931 22.0836 27.6734 23.172 27.266C24.1019 26.9061 24.9464 26.3561 25.6515 25.651C26.3566 24.9459 26.9066 24.1014 27.2665 23.1715C27.6739 22.0831 27.8936 20.9334 27.9165 19.7715C27.984 18.279 28 17.8 28 14C28 10.2 27.984 9.721 27.916 8.228C27.8931 7.06607 27.6734 5.91643 27.266 4.828C26.9059 3.89827 26.3555 3.05398 25.6503 2.34917C24.9451 1.64437 24.1005 1.09458 23.1705 0.735C22.0821 0.327641 20.9324 0.107857 19.7705 0.085C18.279 0.016 17.8 0 14 0Z" fill="#5F5A59"/>
<path d="M13.9995 6.81104C12.5777 6.81104 11.1878 7.23266 10.0056 8.0226C8.82333 8.81254 7.9019 9.93531 7.35778 11.2489C6.81366 12.5625 6.6713 14.008 6.94868 15.4025C7.22607 16.7971 7.91076 18.078 8.91616 19.0834C9.92156 20.0888 11.2025 20.7735 12.597 21.0509C13.9916 21.3283 15.437 21.1859 16.7507 20.6418C18.0643 20.0977 19.187 19.1763 19.977 17.994C20.7669 16.8118 21.1885 15.4219 21.1885 14C21.1885 12.0934 20.4311 10.2648 19.0829 8.91665C17.7347 7.56845 15.9062 6.81104 13.9995 6.81104ZM13.9995 18.6665C13.0766 18.6665 12.1744 18.3928 11.407 17.8801C10.6396 17.3673 10.0415 16.6385 9.68827 15.7858C9.33507 14.9331 9.24266 13.9949 9.42272 13.0896C9.60277 12.1844 10.0472 11.3529 10.6998 10.7003C11.3525 10.0477 12.1839 9.60326 13.0892 9.4232C13.9944 9.24314 14.9326 9.33555 15.7853 9.68875C16.638 10.0419 17.3668 10.6401 17.8796 11.4075C18.3924 12.1749 18.666 13.0771 18.666 14C18.6661 14.6129 18.5455 15.2197 18.311 15.7859C18.0765 16.3521 17.7327 16.8666 17.2994 17.2999C16.8661 17.7332 16.3516 18.077 15.7854 18.3115C15.2192 18.5459 14.6124 18.6666 13.9995 18.6665Z" fill="#5F5A59"/>
<path d="M21.473 8.20705C22.4008 8.20705 23.153 7.45488 23.153 6.52705C23.153 5.59921 22.4008 4.84705 21.473 4.84705C20.5451 4.84705 19.793 5.59921 19.793 6.52705C19.793 7.45488 20.5451 8.20705 21.473 8.20705Z" fill="#5F5A59"/>
</svg>
