<svg width="32" height="32" viewBox="0 0 32 32" fill="none" xmlns="http://www.w3.org/2000/svg">
<path d="M28.1333 2H3.86667C3.3716 2 2.8968 2.19667 2.54673 2.54673C2.19667 2.8968 2 3.3716 2 3.86667V28.1333C2 28.6284 2.19667 29.1032 2.54673 29.4533C2.8968 29.8033 3.3716 30 3.86667 30H28.1333C28.6284 30 29.1032 29.8033 29.4533 29.4533C29.8033 29.1032 30 28.6284 30 28.1333V3.86667C30 3.3716 29.8033 2.8968 29.4533 2.54673C29.1032 2.19667 28.6284 2 28.1333 2ZM10.2945 25.8877H6.0824V12.5H10.2945V25.8877ZM8.188 10.6623C7.70376 10.6608 7.23081 10.5158 6.82889 10.2457C6.42698 9.97564 6.11412 9.59249 5.92983 9.14468C5.74554 8.69687 5.69808 8.20449 5.79346 7.72973C5.88883 7.25497 6.12276 6.81912 6.46569 6.47723C6.80863 6.13534 7.24519 5.90274 7.72023 5.80881C8.19528 5.71488 8.68751 5.76383 9.13476 5.94948C9.582 6.13514 9.9642 6.44916 10.2331 6.8519C10.502 7.25464 10.6455 7.72802 10.6455 8.21227C10.6456 8.53467 10.5821 8.85392 10.4585 9.15172C10.335 9.44951 10.1538 9.71997 9.92551 9.9476C9.6972 10.1752 9.42618 10.3555 9.12801 10.4782C8.82985 10.6008 8.5104 10.6634 8.188 10.6623ZM25.9129 25.8877H21.7867V19.4123C21.7867 17.8377 21.7867 15.9123 19.5933 15.9123C17.4 15.9123 17.1359 17.5755 17.1359 19.3245V25.9755H13.0133V12.5H16.8736V14.3377H16.9613C17.3595 13.6494 17.9372 13.0822 18.6328 12.6969C19.3283 12.3115 20.1156 12.1225 20.9103 12.15C25.1224 12.15 25.912 14.95 25.912 18.5377L25.9129 25.8877Z" fill="#5F5A59"/>
</svg>
