<svg xmlns="http://www.w3.org/2000/svg" xmlns:xlink="http://www.w3.org/1999/xlink" width="1920" zoomAndPan="magnify" viewBox="0 0 1440 809.999993" height="1080" preserveAspectRatio="xMidYMid meet" version="1.0"><defs><clipPath id="84de5dee1e"><path d="M 56.230469 53.816406 L 1384 53.816406 L 1384 756.183594 L 56.230469 756.183594 Z M 56.230469 53.816406 " clip-rule="nonzero"/></clipPath><clipPath id="aba1102731"><path d="M 81.730469 53.816406 L 1358.269531 53.816406 C 1365.03125 53.816406 1371.519531 56.503906 1376.300781 61.285156 C 1381.082031 66.066406 1383.769531 72.554688 1383.769531 79.316406 L 1383.769531 730.683594 C 1383.769531 737.445312 1381.082031 743.933594 1376.300781 748.714844 C 1371.519531 753.496094 1365.03125 756.183594 1358.269531 756.183594 L 81.730469 756.183594 C 74.96875 756.183594 68.480469 753.496094 63.699219 748.714844 C 58.917969 743.933594 56.230469 737.445312 56.230469 730.683594 L 56.230469 79.316406 C 56.230469 72.554688 58.917969 66.066406 63.699219 61.285156 C 68.480469 56.503906 74.96875 53.816406 81.730469 53.816406 Z M 81.730469 53.816406 " clip-rule="nonzero"/></clipPath><clipPath id="0b8340dd68"><path d="M 56.230469 53.816406 L 1383.730469 53.816406 L 1383.730469 755.816406 L 56.230469 755.816406 Z M 56.230469 53.816406 " clip-rule="nonzero"/></clipPath><clipPath id="63920b68c3"><path d="M 81.730469 53.816406 L 1358.265625 53.816406 C 1365.027344 53.816406 1371.515625 56.503906 1376.296875 61.285156 C 1381.078125 66.066406 1383.765625 72.554688 1383.765625 79.316406 L 1383.765625 730.679688 C 1383.765625 737.441406 1381.078125 743.929688 1376.296875 748.710938 C 1371.515625 753.492188 1365.027344 756.179688 1358.265625 756.179688 L 81.730469 756.179688 C 74.96875 756.179688 68.480469 753.492188 63.699219 748.710938 C 58.917969 743.929688 56.230469 737.441406 56.230469 730.679688 L 56.230469 79.316406 C 56.230469 72.554688 58.917969 66.066406 63.699219 61.285156 C 68.480469 56.503906 74.96875 53.816406 81.730469 53.816406 Z M 81.730469 53.816406 " clip-rule="nonzero"/></clipPath></defs><rect x="-144" width="1728" fill="#ffffff" y="-80.999999" height="971.999992" fill-opacity="1"/><rect x="-144" width="1728" fill="#ffcbbe" y="-80.999999" height="971.999992" fill-opacity="1"/><g clip-path="url(#84de5dee1e)"><g clip-path="url(#aba1102731)"><path fill="#ffffff" d="M 56.230469 53.816406 L 1384.140625 53.816406 L 1384.140625 756.183594 L 56.230469 756.183594 Z M 56.230469 53.816406 " fill-opacity="1" fill-rule="nonzero"/></g></g><g clip-path="url(#0b8340dd68)"><g clip-path="url(#63920b68c3)"><path stroke-linecap="butt" transform="matrix(0.75, 0, 0, 0.75, 56.231257, 53.816931)" fill="none" stroke-linejoin="miter" d="M 33.998951 -0.000699523 L 1736.045911 -0.000699523 C 1745.061537 -0.000699523 1753.712579 3.582634 1760.087579 9.957634 C 1766.46258 16.332635 1770.045913 24.983677 1770.045913 33.999302 L 1770.045913 902.483721 C 1770.045913 911.499346 1766.46258 920.150388 1760.087579 926.525389 C 1753.712579 932.900389 1745.061537 936.483723 1736.045911 936.483723 L 33.998951 936.483723 C 24.983325 936.483723 16.332283 932.900389 9.957283 926.525389 C 3.582283 920.150388 -0.00105099 911.499346 -0.00105099 902.483721 L -0.00105099 33.999302 C -0.00105099 24.983677 3.582283 16.332635 9.957283 9.957634 C 16.332283 3.582634 24.983325 -0.000699523 33.998951 -0.000699523 Z M 33.998951 -0.000699523 " stroke="#000000" stroke-width="4" stroke-opacity="1" stroke-miterlimit="4"/></g></g><path fill="#caddff" d="M 445.792969 597.183594 C 464.074219 641.613281 506.800781 662.625 534.109375 676.058594 C 641.753906 728.996094 805.28125 722.785156 923.007812 626.214844 C 950.554688 603.613281 1086.339844 485.222656 1054.738281 324.914062 C 1026.804688 183.195312 886.238281 100.984375 767.855469 90.058594 C 669.78125 81.007812 541.695312 116.785156 496.421875 203.238281 C 467.953125 257.605469 502.152344 274.871094 478.867188 398.054688 C 458.710938 504.671875 423.433594 542.847656 445.792969 597.183594 " fill-opacity="1" fill-rule="nonzero"/><path fill="#5479f7" d="M 559.417969 270.023438 C 560.027344 263.015625 587.515625 274.160156 600.429688 259.21875 C 612.234375 245.566406 597.8125 226.398438 609.371094 214.5625 C 621.742188 201.902344 644.390625 217.574219 656.445312 204.171875 C 665.738281 193.839844 655.0625 181.449219 664.011719 169.515625 C 674.769531 155.175781 693.429688 168.726562 714.734375 156.164062 C 734.632812 144.429688 729.789062 125.867188 750.136719 120.695312 C 752.785156 120.023438 768.902344 116.265625 779.039062 125.09375 C 795.53125 139.457031 793.101562 184.433594 769.710938 204.253906 C 750.015625 220.9375 730.195312 207.300781 711 226.578125 C 694.734375 242.921875 704.683594 257.027344 688.671875 266.65625 C 669.726562 278.054688 649.460938 262.109375 629.601562 276.300781 C 619.199219 283.726562 621.480469 290.445312 611.804688 293.621094 C 591.371094 300.335938 558.75 277.746094 559.417969 270.023438 " fill-opacity="1" fill-rule="nonzero"/><path fill="#99b9ff" d="M 595.140625 281.371094 C 587.480469 281.371094 578.417969 278.980469 568.046875 274.210938 C 567.480469 273.957031 567.234375 273.285156 567.496094 272.722656 C 567.753906 272.164062 568.421875 271.917969 568.984375 272.175781 C 584.609375 279.359375 597.019531 280.992188 605.867188 277.027344 C 612.363281 274.109375 614.617188 269.1875 617.226562 263.484375 C 619.855469 257.742188 622.835938 251.238281 630.984375 246.613281 C 639.566406 241.738281 646.761719 242.386719 653.113281 242.949219 C 659.046875 243.484375 664.652344 243.980469 670.796875 240.0625 C 679.488281 234.519531 680.347656 225.945312 681.261719 216.871094 C 682.175781 207.742188 683.125 198.296875 692.160156 191.554688 C 699.421875 186.132812 706.988281 186.15625 715.011719 186.167969 C 723.546875 186.199219 732.378906 186.207031 742.289062 179.925781 C 749.695312 175.234375 755.550781 168.335938 759.699219 159.417969 C 759.960938 158.859375 760.628906 158.621094 761.191406 158.878906 C 761.75 159.140625 761.996094 159.804688 761.734375 160.367188 C 757.402344 169.675781 751.265625 176.894531 743.492188 181.820312 C 733.027344 188.453125 723.460938 188.433594 715.007812 188.410156 C 707.042969 188.394531 700.164062 188.378906 693.503906 193.351562 C 685.257812 199.503906 684.402344 208.050781 683.492188 217.097656 C 682.570312 226.300781 681.613281 235.824219 672.007812 241.953125 C 665.21875 246.285156 659.238281 245.753906 652.914062 245.183594 C 646.597656 244.621094 640.066406 244.039062 632.09375 248.5625 C 624.574219 252.832031 621.878906 258.722656 619.269531 264.417969 C 616.585938 270.277344 614.054688 275.8125 606.785156 279.074219 C 603.363281 280.605469 599.476562 281.371094 595.140625 281.371094 " fill-opacity="1" fill-rule="nonzero"/><path fill="#99b9ff" d="M 548.65625 299.980469 C 550.140625 295.480469 572.484375 306.796875 608.066406 297.609375 C 629.617188 292.042969 645.230469 281.746094 659.785156 271.976562 C 695.789062 247.816406 694.792969 235.859375 716.261719 228.84375 C 742.03125 220.421875 748.703125 238.550781 779.207031 233.441406 C 816.828125 227.136719 819.640625 197.386719 855.71875 193.683594 C 875.433594 191.664062 901.765625 197.757812 912.769531 216.617188 C 919.433594 228.035156 921.335938 245.597656 913.011719 255.382812 C 904.972656 264.820312 893.394531 259.992188 876.410156 265.03125 C 846.082031 274.03125 849.980469 299.222656 823.882812 312.5 C 788.453125 330.519531 759.992188 294.941406 716.171875 314.96875 C 698.523438 323.039062 701.671875 329.480469 685.210938 337.539062 C 629.660156 364.726562 545.722656 308.890625 548.65625 299.980469 " fill-opacity="1" fill-rule="nonzero"/><path fill="#ffffff" d="M 614.160156 320.5625 C 598.941406 320.5625 581.839844 317.289062 562.96875 310.734375 C 562.382812 310.53125 562.074219 309.894531 562.277344 309.308594 C 562.476562 308.71875 563.117188 308.410156 563.703125 308.617188 C 600.078125 321.25 629.664062 321.554688 651.640625 309.527344 C 661.941406 303.886719 669.339844 296.3125 676.496094 288.992188 C 687.53125 277.695312 697.957031 267.027344 717.570312 264.167969 C 731.378906 262.152344 741.515625 265.347656 750.460938 268.160156 C 760.867188 271.4375 769.847656 274.265625 782.539062 269.246094 C 791.390625 265.746094 795.863281 260.878906 801.523438 254.71875 C 807.097656 248.648438 813.417969 241.773438 825.648438 234.261719 C 837.730469 226.839844 851.191406 221.542969 865.664062 218.515625 C 866.273438 218.382812 866.867188 218.773438 866.992188 219.378906 C 867.121094 219.984375 866.730469 220.582031 866.121094 220.707031 C 851.902344 223.683594 838.683594 228.886719 826.824219 236.167969 C 814.855469 243.519531 808.652344 250.273438 803.175781 256.234375 C 797.554688 262.355469 792.695312 267.640625 783.363281 271.332031 C 769.933594 276.644531 760.148438 273.5625 749.785156 270.300781 C 740.644531 267.425781 731.191406 264.449219 717.898438 266.386719 C 699.03125 269.136719 688.863281 279.542969 678.097656 290.558594 C 670.828125 298 663.3125 305.691406 652.71875 311.492188 C 641.667969 317.539062 628.78125 320.5625 614.160156 320.5625 " fill-opacity="1" fill-rule="nonzero"/><path fill="#5479f7" d="M 531.25 625.097656 C 525.632812 625.097656 520.335938 623.71875 515.398438 620.957031 C 480.394531 601.398438 472.035156 514.890625 463.1875 423.304688 C 462.683594 418.078125 462.175781 412.847656 461.667969 407.636719 C 461.347656 404.347656 463.75 401.417969 467.039062 401.101562 C 470.324219 400.773438 473.257812 403.183594 473.578125 406.472656 C 474.089844 411.6875 474.59375 416.921875 475.101562 422.15625 C 479.242188 465.011719 483.523438 509.324219 490.660156 544.078125 C 498.371094 581.597656 508.371094 603.328125 521.238281 610.519531 C 528.152344 614.382812 536.238281 613.953125 545.953125 609.207031 C 548.921875 607.75 552.503906 608.984375 553.957031 611.949219 C 555.410156 614.917969 554.179688 618.5 551.210938 619.949219 C 544.1875 623.382812 537.519531 625.097656 531.25 625.097656 " fill-opacity="1" fill-rule="nonzero"/><path fill="#000000" d="M 537.609375 638.132812 L 590.109375 638.132812 C 598.164062 638.132812 604.695312 631.605469 604.695312 623.554688 L 604.695312 614.019531 C 604.695312 605.972656 598.164062 599.445312 590.109375 599.445312 L 537.609375 599.445312 C 529.554688 599.445312 523.027344 605.972656 523.027344 614.019531 L 523.027344 623.554688 C 523.027344 631.605469 529.554688 638.132812 537.609375 638.132812 " fill-opacity="1" fill-rule="nonzero"/><path fill="#000000" d="M 461.949219 427.796875 L 471.226562 426.800781 C 477.078125 426.171875 481.3125 420.917969 480.683594 415.070312 L 471.949219 333.796875 C 471.320312 327.949219 466.066406 323.71875 460.210938 324.34375 L 450.9375 325.34375 C 445.082031 325.96875 440.847656 331.222656 441.476562 337.070312 L 450.210938 418.34375 C 450.84375 424.191406 456.097656 428.421875 461.949219 427.796875 " fill-opacity="1" fill-rule="nonzero"/><path fill="#000000" d="M 457.945312 344.238281 C 457.914062 344.238281 457.882812 344.238281 457.851562 344.238281 C 454.132812 344.183594 451.160156 341.128906 451.214844 337.417969 C 451.71875 301.648438 458.480469 268.695312 471.3125 239.476562 C 483.292969 212.199219 500.566406 188.097656 522.652344 167.851562 C 543.265625 148.949219 567.894531 133.535156 595.851562 122.035156 C 622.289062 111.160156 651.167969 103.980469 681.679688 100.707031 C 748.242188 93.554688 818.671875 105.914062 874.917969 134.621094 C 904.496094 149.714844 929.386719 168.71875 948.886719 191.09375 C 969.84375 215.136719 983.984375 242.460938 990.921875 272.296875 C 991.761719 275.917969 989.503906 279.535156 985.886719 280.375 C 982.261719 281.210938 978.644531 278.964844 977.804688 275.34375 C 950.417969 157.527344 806.464844 100.839844 683.117188 114.085938 C 578.882812 125.28125 466.761719 189.882812 464.675781 337.605469 C 464.625 341.289062 461.621094 344.238281 457.945312 344.238281 " fill-opacity="1" fill-rule="nonzero"/><path fill="#ffffff" d="M 534.34375 589.140625 L 974.609375 599.335938 C 987.917969 599.644531 996.859375 588.671875 994.574219 574.832031 L 944.675781 272.164062 C 942.394531 258.324219 929.753906 246.855469 916.445312 246.546875 L 476.179688 236.351562 C 462.871094 236.042969 453.933594 247.011719 456.214844 260.855469 L 506.113281 563.519531 C 508.394531 577.359375 521.035156 588.832031 534.34375 589.140625 " fill-opacity="1" fill-rule="nonzero"/><path fill="#99b9ff" d="M 976.714844 581.160156 C 976.90625 581.167969 977.066406 581.164062 977.210938 581.15625 C 977.230469 580.757812 977.214844 580.210938 977.097656 579.523438 L 927.199219 276.859375 C 926.210938 270.855469 919.839844 264.84375 914.339844 264.71875 L 474.074219 254.523438 C 473.886719 254.519531 473.722656 254.523438 473.582031 254.53125 C 473.558594 254.925781 473.578125 255.472656 473.6875 256.160156 L 523.589844 558.832031 C 524.578125 564.828125 530.949219 570.839844 536.449219 570.96875 L 976.714844 581.160156 " fill-opacity="1" fill-rule="nonzero"/><path fill="#000000" d="M 975.15625 600.464844 C 974.964844 600.464844 974.773438 600.460938 974.585938 600.457031 L 534.316406 590.261719 C 520.515625 589.941406 507.371094 578.027344 505.007812 563.703125 L 455.109375 261.035156 C 453.90625 253.753906 455.605469 247.03125 459.886719 242.105469 C 463.875 237.519531 469.675781 235.066406 476.207031 235.230469 L 525.132812 236.363281 C 525.75 236.375 526.242188 236.890625 526.226562 237.507812 C 526.214844 238.128906 525.710938 238.589844 525.078125 238.605469 L 476.152344 237.472656 C 470.296875 237.332031 465.121094 239.503906 461.582031 243.578125 C 457.746094 247.988281 456.230469 254.0625 457.324219 260.671875 L 507.222656 563.339844 C 509.417969 576.652344 521.59375 587.722656 534.367188 588.015625 L 974.636719 598.214844 C 980.496094 598.34375 985.667969 596.183594 989.207031 592.109375 C 993.042969 587.695312 994.558594 581.625 993.46875 575.015625 L 943.566406 272.347656 C 941.371094 259.03125 929.195312 247.960938 916.421875 247.667969 L 669.027344 241.9375 C 668.40625 241.921875 667.917969 241.410156 667.929688 240.789062 C 667.945312 240.171875 668.460938 239.71875 669.078125 239.695312 L 916.472656 245.425781 C 930.273438 245.746094 943.417969 257.660156 945.78125 271.980469 L 995.679688 574.648438 C 996.882812 581.929688 995.183594 588.652344 990.902344 593.582031 C 987.03125 598.03125 981.457031 600.460938 975.15625 600.464844 " fill-opacity="1" fill-rule="nonzero"/><path fill="#ffffff" d="M 912.261719 431.8125 L 672.140625 431.8125 C 661.851562 431.8125 653.132812 424.234375 651.703125 414.050781 L 638.441406 319.539062 C 636.703125 307.128906 646.34375 296.050781 658.878906 296.050781 L 899 296.050781 C 909.289062 296.050781 918.007812 303.625 919.4375 313.808594 L 932.699219 408.320312 C 934.441406 420.730469 924.796875 431.8125 912.261719 431.8125 " fill-opacity="1" fill-rule="nonzero"/><path fill="#5479f7" d="M 710.75 398.585938 L 705.101562 398.585938 L 691.277344 380.851562 L 694.101562 398.585938 L 688.453125 398.585938 L 684.164062 371.636719 L 689.8125 371.636719 L 703.660156 389.402344 L 700.828125 371.636719 L 706.460938 371.636719 L 710.75 398.585938 " fill-opacity="1" fill-rule="nonzero"/><path fill="#5479f7" d="M 730.324219 386.902344 L 719.476562 386.902344 L 720.621094 394.121094 L 733.351562 394.121094 L 734.0625 398.585938 L 715.683594 398.585938 L 711.394531 371.636719 L 729.738281 371.636719 L 730.449219 376.132812 L 717.757812 376.132812 L 718.785156 382.558594 L 729.628906 382.558594 L 730.324219 386.902344 " fill-opacity="1" fill-rule="nonzero"/><path fill="#5479f7" d="M 752.015625 386.902344 L 741.167969 386.902344 L 742.316406 394.121094 L 755.046875 394.121094 L 755.757812 398.585938 L 737.375 398.585938 L 733.089844 371.636719 L 751.429688 371.636719 L 752.148438 376.132812 L 739.453125 376.132812 L 740.476562 382.558594 L 751.320312 382.558594 L 752.015625 386.902344 " fill-opacity="1" fill-rule="nonzero"/><path fill="#5479f7" d="M 761.148438 376.132812 L 764.011719 394.121094 L 766.742188 394.121094 C 768.949219 394.121094 770.523438 393.414062 771.46875 391.996094 C 772.410156 390.574219 772.683594 388.546875 772.289062 385.90625 L 772.0625 384.480469 C 771.625 381.738281 770.71875 379.664062 769.335938 378.25 C 767.960938 376.839844 766.160156 376.132812 763.9375 376.132812 Z M 759.070312 398.585938 L 754.78125 371.636719 L 763.21875 371.636719 C 765.628906 371.636719 767.871094 372.167969 769.941406 373.238281 C 772.011719 374.304688 773.738281 375.820312 775.121094 377.789062 C 776.5 379.753906 777.390625 381.992188 777.789062 384.5 L 777.984375 385.742188 C 778.386719 388.242188 778.214844 390.472656 777.476562 392.421875 C 776.738281 394.371094 775.5 395.882812 773.765625 396.953125 C 772.027344 398.027344 769.957031 398.570312 767.5625 398.585938 L 759.070312 398.585938 " fill-opacity="1" fill-rule="nonzero"/><path fill="#5479f7" d="M 816.054688 398.585938 L 810.40625 398.585938 L 808.566406 387.035156 L 797.550781 387.035156 L 799.390625 398.585938 L 793.742188 398.585938 L 789.453125 371.636719 L 795.101562 371.636719 L 796.835938 382.558594 L 807.851562 382.558594 L 806.117188 371.636719 L 811.769531 371.636719 L 816.054688 398.585938 " fill-opacity="1" fill-rule="nonzero"/><path fill="#5479f7" d="M 835.625 386.902344 L 824.78125 386.902344 L 825.929688 394.121094 L 838.660156 394.121094 L 839.367188 398.585938 L 820.992188 398.585938 L 816.703125 371.636719 L 835.042969 371.636719 L 835.757812 376.132812 L 823.066406 376.132812 L 824.085938 382.558594 L 834.933594 382.558594 L 835.625 386.902344 " fill-opacity="1" fill-rule="nonzero"/><path fill="#5479f7" d="M 847.621094 394.121094 L 859.617188 394.121094 L 860.328125 398.585938 L 842.683594 398.585938 L 838.394531 371.636719 L 844.042969 371.636719 L 847.621094 394.121094 " fill-opacity="1" fill-rule="nonzero"/><path fill="#5479f7" d="M 866.992188 384.589844 L 872.035156 384.589844 C 873.53125 384.589844 874.613281 384.246094 875.289062 383.554688 C 875.964844 382.867188 876.203125 381.875 875.996094 380.59375 C 875.785156 379.273438 875.222656 378.207031 874.296875 377.394531 C 873.378906 376.574219 872.21875 376.160156 870.820312 376.132812 L 865.644531 376.132812 Z M 867.707031 389.089844 L 869.214844 398.585938 L 863.566406 398.585938 L 859.28125 371.636719 L 869.976562 371.636719 C 872.035156 371.636719 873.90625 372.003906 875.585938 372.742188 C 877.265625 373.488281 878.636719 374.539062 879.691406 375.902344 C 880.75 377.265625 881.417969 378.816406 881.695312 380.558594 C 882.113281 383.199219 881.527344 385.28125 879.929688 386.800781 C 878.335938 388.328125 875.910156 389.089844 872.660156 389.089844 L 867.707031 389.089844 " fill-opacity="1" fill-rule="nonzero"/><path fill="#5479f7" d="M 891.574219 396.003906 C 891.441406 395.175781 891.617188 394.5 892.105469 393.964844 C 892.589844 393.425781 893.28125 393.160156 894.171875 393.160156 C 895.0625 393.160156 895.839844 393.425781 896.492188 393.964844 C 897.148438 394.5 897.542969 395.175781 897.671875 396.003906 C 897.804688 396.816406 897.628906 397.488281 897.15625 398.015625 C 896.683594 398.539062 895.988281 398.804688 895.066406 398.804688 C 894.152344 398.804688 893.375 398.539062 892.730469 398.015625 C 892.089844 397.488281 891.703125 396.816406 891.574219 396.003906 Z M 891.21875 390.328125 C 890.941406 388.597656 890.9375 387.222656 891.199219 386.199219 C 891.460938 385.175781 892.082031 384.164062 893.0625 383.167969 C 894.039062 382.175781 894.667969 381.363281 894.945312 380.738281 C 895.21875 380.117188 895.304688 379.457031 895.195312 378.765625 C 894.863281 376.675781 893.71875 375.632812 891.761719 375.632812 C 890.832031 375.632812 890.132812 375.914062 889.660156 376.476562 C 889.191406 377.039062 889.027344 377.816406 889.160156 378.804688 L 883.695312 378.804688 C 883.347656 376.445312 883.828125 374.597656 885.140625 373.265625 C 886.453125 371.929688 888.429688 371.265625 891.0625 371.265625 C 893.722656 371.265625 895.890625 371.894531 897.5625 373.164062 C 899.230469 374.429688 900.253906 376.214844 900.617188 378.527344 C 900.785156 379.578125 900.707031 380.570312 900.378906 381.503906 C 900.046875 382.433594 899.375 383.46875 898.363281 384.605469 L 897.066406 386.03125 C 896.253906 386.933594 895.878906 387.988281 895.933594 389.199219 L 896.039062 390.328125 L 891.21875 390.328125 " fill-opacity="1" fill-rule="nonzero"/><path fill="#5479f7" d="M 700.824219 348.265625 L 695.175781 348.265625 L 693.34375 336.71875 L 682.324219 336.71875 L 684.160156 348.265625 L 678.507812 348.265625 L 674.230469 321.316406 L 679.878906 321.316406 L 681.613281 332.238281 L 692.628906 332.238281 L 690.894531 321.316406 L 696.546875 321.316406 L 700.824219 348.265625 " fill-opacity="1" fill-rule="nonzero"/><path fill="#5479f7" d="M 711.761719 348.265625 L 706.117188 348.265625 L 701.835938 321.316406 L 707.488281 321.316406 L 711.761719 348.265625 " fill-opacity="1" fill-rule="nonzero"/><path fill="#5479f7" d="M 720.867188 339.992188 L 716.347656 339.992188 L 712.742188 321.316406 L 718.542969 321.316406 Z M 719.066406 342.921875 C 719.988281 342.921875 720.765625 343.183594 721.410156 343.714844 C 722.050781 344.246094 722.441406 344.925781 722.570312 345.75 C 722.699219 346.566406 722.527344 347.238281 722.054688 347.769531 C 721.578125 348.296875 720.882812 348.566406 719.96875 348.566406 C 719.0625 348.566406 718.289062 348.296875 717.644531 347.769531 C 717.003906 347.238281 716.617188 346.566406 716.488281 345.75 C 716.359375 344.9375 716.53125 344.257812 717.003906 343.722656 C 717.476562 343.1875 718.164062 342.921875 719.066406 342.921875 " fill-opacity="1" fill-rule="nonzero"/><path fill="#5479f7" d="M 1038.292969 476.179688 L 1039.132812 476.070312 C 1051.921875 474.421875 1060.953125 462.722656 1059.304688 449.941406 L 1039.121094 293.398438 C 1037.472656 280.617188 1025.769531 271.589844 1012.980469 273.238281 L 1012.136719 273.34375 C 999.347656 274.992188 990.316406 286.691406 991.960938 299.472656 L 1012.148438 456.015625 C 1013.796875 468.796875 1025.5 477.824219 1038.292969 476.179688 " fill-opacity="1" fill-rule="nonzero"/><path fill="#000000" d="M 994.46875 499.5 L 1021.472656 496.019531 C 1031.921875 494.675781 1039.296875 485.121094 1037.953125 474.679688 L 1012.117188 274.3125 C 1010.769531 263.871094 1001.210938 256.496094 990.761719 257.84375 L 963.753906 261.320312 C 953.304688 262.667969 945.929688 272.222656 947.273438 282.664062 L 973.113281 483.03125 C 974.460938 493.472656 984.019531 500.84375 994.46875 499.5 " fill-opacity="1" fill-rule="nonzero"/><path fill="#caddff" d="M 678.035156 597.019531 C 664.230469 573.898438 671.792969 543.972656 694.925781 530.175781 C 718.0625 516.378906 748.003906 523.9375 761.808594 547.058594 C 775.613281 570.179688 768.050781 600.105469 744.917969 613.902344 C 721.78125 627.699219 691.839844 620.140625 678.035156 597.019531 Z M 762.015625 661.019531 L 778.285156 651.316406 L 771.855469 631.65625 C 775.21875 628.734375 778.300781 625.574219 781.070312 622.207031 L 800.890625 628.0625 L 810.128906 611.527344 L 794.71875 597.714844 C 796.144531 593.550781 797.226562 589.277344 797.945312 584.933594 L 818.074219 580.09375 L 817.796875 561.160156 L 797.570312 556.90625 C 796.734375 552.625 795.523438 548.382812 793.949219 544.214844 L 808.953125 529.96875 L 799.242188 513.707031 L 779.574219 520.136719 C 776.648438 516.769531 773.488281 513.691406 770.121094 510.925781 L 775.976562 491.113281 L 759.429688 481.882812 L 745.613281 497.285156 C 741.445312 495.855469 737.171875 494.777344 732.828125 494.058594 L 727.980469 473.941406 L 709.035156 474.21875 L 704.777344 494.433594 C 700.496094 495.269531 696.253906 496.476562 692.082031 498.050781 L 677.828125 483.058594 L 661.554688 492.761719 L 667.988281 512.421875 C 664.625 515.339844 661.542969 518.496094 658.773438 521.867188 L 638.953125 516.015625 L 629.714844 532.546875 L 645.125 546.363281 C 643.699219 550.527344 642.617188 554.796875 641.894531 559.140625 L 621.769531 563.984375 L 622.042969 582.917969 L 642.273438 587.171875 C 643.105469 591.453125 644.320312 595.695312 645.894531 599.859375 L 630.890625 614.109375 L 640.601562 630.371094 L 660.269531 623.9375 C 663.191406 627.300781 666.355469 630.382812 669.722656 633.152344 L 663.867188 652.960938 L 680.410156 662.191406 L 694.230469 646.792969 C 698.398438 648.21875 702.671875 649.296875 707.015625 650.019531 L 711.863281 670.132812 L 730.808594 669.859375 L 735.0625 649.644531 C 739.347656 648.808594 743.589844 647.597656 747.761719 646.023438 L 762.015625 661.019531 " fill-opacity="1" fill-rule="nonzero"/><path fill="#000000" d="M 722.125 515.382812 C 713.820312 515.382812 705.417969 517.550781 697.785156 522.105469 C 686.851562 528.621094 679.117188 539.007812 676 551.34375 C 672.878906 563.679688 674.757812 576.484375 681.28125 587.410156 C 687.800781 598.339844 698.191406 606.070312 710.535156 609.183594 C 722.878906 612.300781 735.691406 610.425781 746.625 603.90625 C 757.558594 597.386719 765.292969 587.003906 768.410156 574.667969 C 771.527344 562.332031 769.652344 549.523438 763.128906 538.597656 C 754.21875 523.675781 738.367188 515.382812 722.125 515.382812 Z M 722.292969 612.898438 C 718.195312 612.898438 714.0625 612.390625 709.988281 611.359375 C 697.058594 608.097656 686.183594 600 679.355469 588.558594 C 672.523438 577.121094 670.558594 563.710938 673.824219 550.792969 C 677.089844 537.878906 685.1875 527.003906 696.632812 520.179688 C 720.261719 506.085938 750.957031 513.835938 765.054688 537.449219 C 771.886719 548.890625 773.847656 562.300781 770.585938 575.21875 C 767.320312 588.132812 759.222656 599.007812 747.773438 605.832031 C 739.945312 610.503906 731.183594 612.898438 722.292969 612.898438 Z M 696.515625 636.636719 C 696.636719 636.636719 696.757812 636.65625 696.878906 636.699219 C 700.96875 638.101562 705.207031 639.167969 709.480469 639.878906 C 709.925781 639.953125 710.285156 640.285156 710.390625 640.722656 L 715.023438 659.964844 L 732.175781 659.71875 L 736.25 640.378906 C 736.34375 639.9375 736.691406 639.597656 737.132812 639.507812 C 741.320312 638.695312 745.53125 637.496094 749.644531 635.941406 C 750.070312 635.78125 750.546875 635.890625 750.855469 636.21875 L 764.496094 650.5625 L 779.226562 641.777344 L 773.070312 622.96875 C 772.929688 622.542969 773.058594 622.070312 773.402344 621.777344 C 776.71875 618.894531 779.777344 615.761719 782.484375 612.460938 C 782.773438 612.113281 783.238281 611.96875 783.671875 612.097656 L 802.632812 617.699219 L 810.996094 602.730469 L 796.25 589.511719 C 795.914062 589.214844 795.792969 588.742188 795.9375 588.316406 C 797.34375 584.226562 798.414062 579.988281 799.121094 575.71875 C 799.195312 575.277344 799.527344 574.917969 799.964844 574.816406 L 819.21875 570.179688 L 818.972656 553.039062 L 799.625 548.96875 C 799.183594 548.875 798.839844 548.527344 798.75 548.085938 C 797.933594 543.894531 796.734375 539.6875 795.183594 535.578125 C 795.023438 535.15625 795.132812 534.679688 795.457031 534.371094 L 809.8125 520.738281 L 801.019531 506.015625 L 782.203125 512.167969 C 781.773438 512.304688 781.304688 512.175781 781.007812 511.839844 C 778.128906 508.523438 774.988281 505.464844 771.691406 502.757812 C 771.34375 502.472656 771.199219 502.003906 771.324219 501.574219 L 776.929688 482.625 L 761.949219 474.265625 L 748.730469 489 C 748.429688 489.335938 747.957031 489.460938 747.53125 489.3125 C 743.433594 487.910156 739.195312 486.839844 734.925781 486.128906 C 734.480469 486.058594 734.125 485.722656 734.019531 485.289062 L 729.382812 466.042969 L 712.234375 466.289062 L 708.15625 485.628906 C 708.066406 486.070312 707.714844 486.414062 707.273438 486.5 C 703.082031 487.316406 698.871094 488.515625 694.761719 490.070312 C 694.339844 490.230469 693.859375 490.117188 693.550781 489.792969 L 679.914062 475.445312 L 665.183594 484.234375 L 671.339844 503.039062 C 671.480469 503.464844 671.347656 503.9375 671.007812 504.234375 C 667.691406 507.117188 664.632812 510.246094 661.925781 513.546875 C 661.640625 513.898438 661.171875 514.035156 660.738281 513.910156 L 641.777344 508.3125 L 633.414062 523.277344 L 648.15625 536.496094 C 648.492188 536.792969 648.617188 537.269531 648.46875 537.691406 C 647.066406 541.785156 645.992188 546.023438 645.285156 550.289062 C 645.210938 550.734375 644.878906 551.09375 644.441406 551.199219 L 625.1875 555.828125 L 625.4375 572.972656 L 644.785156 577.039062 C 645.226562 577.136719 645.570312 577.480469 645.65625 577.925781 C 646.472656 582.109375 647.671875 586.320312 649.226562 590.433594 C 649.386719 590.855469 649.277344 591.328125 648.949219 591.636719 L 634.597656 605.269531 L 643.386719 619.992188 L 662.203125 613.839844 C 662.632812 613.699219 663.105469 613.832031 663.402344 614.171875 C 666.285156 617.492188 669.421875 620.546875 672.71875 623.25 C 673.066406 623.535156 673.210938 624.003906 673.082031 624.433594 L 667.480469 643.386719 L 682.457031 651.746094 L 695.679688 637.011719 C 695.894531 636.769531 696.203125 636.636719 696.515625 636.636719 Z M 714.144531 662.21875 C 713.625 662.21875 713.175781 661.867188 713.054688 661.363281 L 708.378906 641.964844 C 704.480469 641.28125 700.609375 640.304688 696.855469 639.058594 L 683.527344 653.910156 C 683.179688 654.300781 682.605469 654.394531 682.148438 654.140625 L 665.601562 644.90625 C 665.144531 644.652344 664.925781 644.113281 665.074219 643.613281 L 670.71875 624.507812 C 667.71875 622 664.859375 619.210938 662.199219 616.203125 L 643.230469 622.402344 C 642.734375 622.566406 642.1875 622.363281 641.921875 621.914062 L 632.210938 605.648438 C 631.941406 605.203125 632.019531 604.625 632.402344 604.261719 L 646.867188 590.523438 C 645.484375 586.757812 644.386719 582.914062 643.597656 579.082031 L 624.097656 574.984375 C 623.582031 574.875 623.214844 574.421875 623.207031 573.902344 L 622.933594 554.964844 C 622.925781 554.441406 623.28125 553.980469 623.792969 553.859375 L 643.199219 549.191406 C 643.882812 545.292969 644.859375 541.425781 646.109375 537.671875 L 631.25 524.355469 C 630.859375 524 630.761719 523.429688 631.015625 522.96875 L 640.253906 506.433594 C 640.511719 505.980469 641.046875 505.753906 641.550781 505.90625 L 660.664062 511.550781 C 663.179688 508.550781 665.96875 505.691406 668.976562 503.03125 L 662.773438 484.078125 C 662.609375 483.582031 662.8125 483.035156 663.261719 482.765625 L 679.535156 473.0625 C 679.984375 472.792969 680.5625 472.871094 680.921875 473.25 L 694.667969 487.710938 C 698.433594 486.324219 702.277344 485.230469 706.117188 484.445312 L 710.222656 464.953125 C 710.328125 464.4375 710.777344 464.070312 711.300781 464.0625 L 730.246094 463.789062 C 730.253906 463.789062 730.261719 463.789062 730.265625 463.789062 C 730.785156 463.789062 731.234375 464.144531 731.355469 464.648438 L 736.027344 484.042969 C 739.921875 484.726562 743.792969 485.703125 747.554688 486.953125 L 760.878906 472.097656 C 761.226562 471.707031 761.804688 471.613281 762.257812 471.871094 L 778.804688 481.101562 C 779.265625 481.355469 779.484375 481.894531 779.335938 482.394531 L 773.6875 501.5 C 776.6875 504.011719 779.550781 506.804688 782.207031 509.808594 L 801.175781 503.605469 C 801.671875 503.445312 802.21875 503.648438 802.484375 504.097656 L 812.199219 520.359375 C 812.46875 520.808594 812.386719 521.386719 812.007812 521.75 L 797.539062 535.484375 C 798.925781 539.25 800.019531 543.089844 800.8125 546.925781 L 820.3125 551.027344 C 820.828125 551.136719 821.199219 551.585938 821.203125 552.109375 L 821.476562 571.042969 C 821.480469 571.570312 821.125 572.027344 820.617188 572.148438 L 801.210938 576.820312 C 800.527344 580.714844 799.546875 584.585938 798.300781 588.339844 L 813.160156 601.65625 C 813.550781 602.007812 813.644531 602.582031 813.390625 603.042969 L 804.152344 619.574219 C 803.898438 620.03125 803.363281 620.253906 802.855469 620.101562 L 783.742188 614.457031 C 781.230469 617.460938 778.441406 620.316406 775.433594 622.976562 L 781.636719 641.929688 C 781.796875 642.425781 781.59375 642.972656 781.148438 643.242188 L 764.871094 652.945312 C 764.425781 653.21875 763.847656 653.140625 763.484375 652.757812 L 749.742188 638.296875 C 745.96875 639.683594 742.125 640.78125 738.296875 641.566406 L 734.1875 661.054688 C 734.082031 661.570312 733.632812 661.9375 733.105469 661.949219 L 714.160156 662.21875 C 714.15625 662.21875 714.148438 662.21875 714.144531 662.21875 " fill-opacity="1" fill-rule="nonzero"/><path fill="#caddff" d="M 843.199219 513.980469 C 837.035156 503.65625 840.414062 490.289062 850.742188 484.128906 C 861.074219 477.964844 874.445312 481.34375 880.617188 491.667969 C 886.78125 501.996094 883.402344 515.359375 873.070312 521.523438 C 862.738281 527.683594 849.367188 524.308594 843.199219 513.980469 Z M 880.707031 542.5625 L 887.972656 538.230469 L 885.101562 529.449219 C 886.605469 528.148438 887.980469 526.738281 889.214844 525.230469 L 898.070312 527.84375 L 902.195312 520.460938 L 895.3125 514.292969 C 895.949219 512.433594 896.429688 510.527344 896.753906 508.585938 L 905.742188 506.421875 L 905.621094 497.96875 L 896.585938 496.066406 C 896.214844 494.15625 895.671875 492.261719 894.96875 490.398438 L 901.671875 484.035156 L 897.332031 476.769531 L 888.546875 479.644531 C 887.242188 478.140625 885.828125 476.769531 884.328125 475.53125 L 886.941406 466.683594 L 879.554688 462.5625 L 873.378906 469.4375 C 871.519531 468.800781 869.609375 468.316406 867.667969 467.996094 L 865.507812 459.011719 L 857.042969 459.136719 L 855.144531 468.164062 C 853.230469 468.539062 851.335938 469.078125 849.472656 469.78125 L 843.105469 463.085938 L 835.839844 467.421875 L 838.714844 476.199219 C 837.210938 477.503906 835.832031 478.914062 834.597656 480.421875 L 825.742188 477.804688 L 821.617188 485.191406 L 828.5 491.359375 C 827.863281 493.214844 827.382812 495.125 827.058594 497.066406 L 818.074219 499.226562 L 818.195312 507.683594 L 827.226562 509.582031 C 827.597656 511.496094 828.140625 513.390625 828.84375 515.253906 L 822.144531 521.613281 L 826.480469 528.875 L 835.265625 526.003906 C 836.574219 527.507812 837.980469 528.882812 839.488281 530.117188 L 836.871094 538.96875 L 844.261719 543.089844 L 850.429688 536.210938 C 852.292969 536.847656 854.203125 537.328125 856.144531 537.652344 L 858.304688 546.636719 L 866.769531 546.515625 L 868.671875 537.484375 C 870.585938 537.113281 872.476562 536.570312 874.339844 535.867188 L 880.707031 542.5625 " fill-opacity="1" fill-rule="nonzero"/><path fill="#000000" d="M 845.183594 509.375 C 851.023438 519.152344 863.730469 522.359375 873.515625 516.523438 C 878.253906 513.695312 881.609375 509.195312 882.960938 503.847656 C 884.3125 498.5 883.5 492.945312 880.671875 488.207031 C 874.832031 478.429688 862.121094 475.222656 852.339844 481.058594 C 847.597656 483.886719 844.242188 488.382812 842.894531 493.730469 C 841.539062 499.082031 842.355469 504.636719 845.183594 509.375 Z M 862.964844 521.679688 C 855.15625 521.679688 847.539062 517.695312 843.257812 510.523438 C 836.78125 499.683594 840.34375 485.597656 851.1875 479.132812 C 856.445312 475.996094 862.601562 475.09375 868.535156 476.59375 C 874.46875 478.089844 879.460938 481.808594 882.597656 487.058594 C 885.730469 492.3125 886.632812 498.46875 885.132812 504.394531 C 883.640625 510.324219 879.921875 515.316406 874.664062 518.449219 C 870.996094 520.636719 866.957031 521.679688 862.964844 521.679688 Z M 851.453125 531.058594 C 851.574219 531.058594 851.695312 531.074219 851.816406 531.113281 C 853.609375 531.730469 855.472656 532.199219 857.347656 532.511719 C 857.789062 532.585938 858.148438 532.917969 858.25 533.355469 L 860.207031 541.464844 L 866.875 541.371094 L 868.59375 533.21875 C 868.683594 532.777344 869.035156 532.4375 869.476562 532.347656 C 871.3125 531.992188 873.160156 531.464844 874.964844 530.785156 C 875.382812 530.621094 875.863281 530.734375 876.175781 531.058594 L 881.921875 537.109375 L 887.648438 533.691406 L 885.054688 525.765625 C 884.914062 525.335938 885.042969 524.863281 885.386719 524.570312 C 886.839844 523.304688 888.179688 521.933594 889.367188 520.484375 C 889.652344 520.140625 890.121094 519.992188 890.554688 520.121094 L 898.546875 522.480469 L 901.796875 516.664062 L 895.582031 511.089844 C 895.25 510.789062 895.121094 510.320312 895.273438 509.894531 C 895.886719 508.097656 896.359375 506.238281 896.667969 504.367188 C 896.742188 503.925781 897.074219 503.5625 897.511719 503.460938 L 905.625 501.507812 L 905.53125 494.84375 L 897.375 493.128906 C 896.933594 493.035156 896.59375 492.6875 896.503906 492.246094 C 896.148438 490.40625 895.617188 488.566406 894.9375 486.761719 C 894.78125 486.335938 894.886719 485.859375 895.214844 485.550781 L 901.265625 479.804688 L 897.847656 474.082031 L 889.914062 476.675781 C 889.488281 476.816406 889.015625 476.6875 888.71875 476.34375 C 887.457031 474.890625 886.082031 473.550781 884.632812 472.363281 C 884.285156 472.078125 884.140625 471.609375 884.269531 471.179688 L 886.628906 463.191406 L 880.808594 459.945312 L 875.234375 466.15625 C 874.933594 466.488281 874.460938 466.609375 874.039062 466.464844 C 872.234375 465.847656 870.375 465.378906 868.507812 465.070312 C 868.0625 464.996094 867.707031 464.664062 867.597656 464.226562 L 865.644531 456.117188 L 858.976562 456.210938 L 857.261719 464.363281 C 857.167969 464.800781 856.820312 465.144531 856.378906 465.230469 C 854.539062 465.589844 852.695312 466.113281 850.890625 466.796875 C 850.464844 466.957031 849.988281 466.847656 849.679688 466.519531 L 843.929688 460.472656 L 838.203125 463.886719 L 840.800781 471.816406 C 840.9375 472.246094 840.808594 472.714844 840.46875 473.011719 C 839.011719 474.277344 837.671875 475.648438 836.484375 477.097656 C 836.199219 477.441406 835.730469 477.585938 835.300781 477.460938 L 827.308594 475.101562 L 824.054688 480.917969 L 830.269531 486.488281 C 830.605469 486.785156 830.730469 487.261719 830.585938 487.6875 C 829.964844 489.480469 829.496094 491.339844 829.1875 493.214844 C 829.113281 493.65625 828.777344 494.011719 828.339844 494.117188 L 820.226562 496.074219 L 820.320312 502.738281 L 828.476562 504.453125 C 828.917969 504.542969 829.261719 504.894531 829.347656 505.335938 C 829.707031 507.171875 830.230469 509.015625 830.914062 510.820312 C 831.074219 511.242188 830.964844 511.71875 830.636719 512.027344 L 824.585938 517.773438 L 828.003906 523.5 L 835.9375 520.90625 C 836.363281 520.765625 836.835938 520.894531 837.132812 521.234375 C 838.398438 522.691406 839.773438 524.03125 841.21875 525.21875 C 841.566406 525.503906 841.710938 525.972656 841.582031 526.402344 L 839.222656 534.390625 L 845.042969 537.636719 L 850.617188 531.429688 C 850.835938 531.183594 851.140625 531.058594 851.453125 531.058594 Z M 859.328125 543.722656 C 858.808594 543.722656 858.355469 543.367188 858.234375 542.863281 L 856.242188 534.59375 C 854.738281 534.316406 853.25 533.9375 851.796875 533.46875 L 846.117188 539.804688 C 845.765625 540.195312 845.191406 540.285156 844.734375 540.035156 L 837.34375 535.914062 C 836.886719 535.660156 836.667969 535.121094 836.816406 534.613281 L 839.222656 526.472656 C 838.074219 525.484375 836.972656 524.414062 835.933594 523.265625 L 827.851562 525.910156 C 827.351562 526.070312 826.804688 525.867188 826.535156 525.417969 L 822.199219 518.15625 C 821.933594 517.703125 822.011719 517.128906 822.390625 516.769531 L 828.558594 510.910156 C 828.039062 509.453125 827.621094 507.972656 827.296875 506.5 L 818.980469 504.75 C 818.46875 504.640625 818.097656 504.1875 818.089844 503.667969 L 817.96875 495.210938 C 817.960938 494.683594 818.320312 494.226562 818.828125 494.101562 L 827.105469 492.113281 C 827.382812 490.609375 827.757812 489.121094 828.226562 487.667969 L 821.890625 481.988281 C 821.5 481.640625 821.402344 481.0625 821.660156 480.605469 L 825.785156 473.222656 C 826.039062 472.765625 826.582031 472.546875 827.078125 472.695312 L 835.230469 475.101562 C 836.214844 473.953125 837.292969 472.851562 838.4375 471.8125 L 835.792969 463.734375 C 835.628906 463.234375 835.832031 462.6875 836.285156 462.421875 L 843.550781 458.089844 C 844.003906 457.820312 844.578125 457.898438 844.9375 458.277344 L 850.796875 464.441406 C 852.257812 463.921875 853.734375 463.503906 855.214844 463.183594 L 856.964844 454.871094 C 857.074219 454.359375 857.523438 453.988281 858.046875 453.980469 L 866.507812 453.855469 C 866.515625 453.855469 866.519531 453.855469 866.527344 453.855469 C 867.046875 453.855469 867.496094 454.210938 867.617188 454.71875 L 869.609375 462.988281 C 871.109375 463.265625 872.597656 463.644531 874.054688 464.109375 L 879.738281 457.777344 C 880.085938 457.386719 880.660156 457.292969 881.117188 457.546875 L 888.507812 461.667969 C 888.96875 461.921875 889.183594 462.460938 889.035156 462.96875 L 886.628906 471.109375 C 887.78125 472.09375 888.878906 473.167969 889.917969 474.316406 L 898.003906 471.671875 C 898.5 471.511719 899.046875 471.710938 899.316406 472.164062 L 903.652344 479.425781 C 903.917969 479.878906 903.839844 480.453125 903.460938 480.816406 L 897.292969 486.667969 C 897.8125 488.128906 898.234375 489.605469 898.554688 491.082031 L 906.871094 492.832031 C 907.382812 492.941406 907.753906 493.390625 907.765625 493.914062 L 907.882812 502.371094 C 907.890625 502.898438 907.535156 503.355469 907.023438 503.480469 L 898.75 505.46875 C 898.472656 506.96875 898.09375 508.457031 897.625 509.914062 L 903.964844 515.59375 C 904.355469 515.941406 904.449219 516.515625 904.195312 516.976562 L 900.070312 524.359375 C 899.816406 524.816406 899.277344 525.039062 898.773438 524.886719 L 890.625 522.480469 C 889.636719 523.628906 888.5625 524.730469 887.414062 525.765625 L 890.0625 533.847656 C 890.222656 534.347656 890.019531 534.890625 889.566406 535.160156 L 882.300781 539.492188 C 881.851562 539.761719 881.273438 539.683594 880.914062 539.304688 L 875.054688 533.140625 C 873.597656 533.65625 872.117188 534.078125 870.636719 534.398438 L 868.886719 542.710938 C 868.777344 543.222656 868.328125 543.59375 867.804688 543.601562 L 859.34375 543.722656 C 859.335938 543.722656 859.328125 543.722656 859.328125 543.722656 " fill-opacity="1" fill-rule="nonzero"/><path fill="#5479f7" d="M 1038.484375 653.6875 C 1072.546875 622.3125 1054.914062 602.070312 1054.914062 602.070312 C 1054.914062 602.070312 1039.699219 577.433594 986.304688 609.640625 C 932.902344 641.847656 881.21875 629.875 869.53125 625.046875 C 857.839844 620.21875 817 589.871094 793.984375 588.167969 C 781.175781 587.21875 765.847656 596.839844 779.296875 622.855469 C 807.101562 676.648438 882.625 682.785156 882.625 682.785156 C 882.625 682.785156 919.234375 689.65625 956.839844 683 C 956.839844 683 1004.421875 685.070312 1038.484375 653.6875 " fill-opacity="1" fill-rule="nonzero"/><path fill="#ffffff" d="M 950.089844 660.117188 L 938.027344 666.863281 L 944.050781 679.367188 L 954.035156 672.976562 L 950.089844 660.117188 " fill-opacity="1" fill-rule="nonzero"/><path fill="#000000" d="M 939.5 667.324219 L 944.511719 677.738281 L 952.710938 672.492188 L 949.425781 661.773438 Z M 944.050781 680.488281 C 943.949219 680.488281 943.847656 680.476562 943.746094 680.449219 C 943.4375 680.359375 943.179688 680.144531 943.039062 679.855469 L 937.019531 667.347656 C 936.761719 666.8125 936.964844 666.171875 937.484375 665.882812 L 949.542969 659.136719 C 949.839844 658.972656 950.195312 658.949219 950.511719 659.078125 C 950.824219 659.203125 951.0625 659.464844 951.164062 659.789062 L 955.105469 672.648438 C 955.257812 673.128906 955.066406 673.652344 954.640625 673.925781 L 944.660156 680.3125 C 944.472656 680.425781 944.265625 680.488281 944.050781 680.488281 " fill-opacity="1" fill-rule="nonzero"/><path fill="#000000" d="M 942.765625 665.269531 C 941.367188 663.46875 938.640625 663.492188 937.289062 665.324219 L 931.433594 673.261719 L 939.34375 683.441406 L 949.816406 678.632812 C 949.09375 674.113281 945.429688 668.710938 942.765625 665.269531 " fill-opacity="1" fill-rule="nonzero"/><path fill="#ffffff" d="M 943.980469 673.71875 L 940.78125 670.484375 C 939.628906 669.320312 937.832031 669.097656 936.429688 669.945312 L 934.15625 671.324219 L 933.667969 670.265625 C 933.140625 669.121094 931.835938 668.554688 930.640625 668.953125 C 923.347656 671.386719 899.117188 679.734375 891.011719 685.734375 C 881.421875 692.835938 888.230469 708.625 904.949219 707.015625 C 918.203125 705.738281 936.3125 690.96875 943.257812 684.894531 C 944.621094 683.703125 944.277344 681.5 942.617188 680.769531 L 942.597656 680.765625 L 944.367188 678.222656 C 945.339844 676.820312 945.175781 674.929688 943.980469 673.71875 " fill-opacity="1" fill-rule="nonzero"/><path fill="#000000" d="M 931.421875 669.945312 C 931.28125 669.945312 931.136719 669.96875 930.996094 670.019531 C 923.789062 672.421875 899.648438 680.734375 891.679688 686.636719 C 888.078125 689.300781 886.835938 693.53125 888.425781 697.667969 C 890.105469 702.035156 895.410156 706.800781 904.84375 705.898438 C 917.71875 704.65625 935.480469 690.207031 942.515625 684.050781 C 942.871094 683.742188 943.03125 683.300781 942.960938 682.835938 C 942.890625 682.367188 942.597656 681.988281 942.164062 681.796875 C 941.859375 681.660156 941.617188 681.394531 941.527344 681.074219 C 941.4375 680.746094 941.484375 680.398438 941.679688 680.121094 L 943.449219 677.578125 C 944.113281 676.628906 944 675.332031 943.179688 674.503906 L 939.984375 671.273438 C 939.195312 670.472656 937.972656 670.320312 937.011719 670.902344 L 934.738281 672.28125 C 934.464844 672.449219 934.136719 672.488281 933.828125 672.394531 C 933.523438 672.300781 933.273438 672.082031 933.140625 671.796875 L 932.648438 670.738281 C 932.421875 670.246094 931.9375 669.945312 931.421875 669.945312 Z M 902.542969 708.253906 C 893.410156 708.253906 888.132812 703.160156 886.332031 698.476562 C 884.390625 693.425781 885.964844 688.074219 890.34375 684.835938 C 898.574219 678.734375 922.996094 670.324219 930.289062 667.890625 C 931.996094 667.320312 933.851562 668.101562 934.648438 669.714844 L 935.847656 668.988281 C 937.699219 667.867188 940.058594 668.15625 941.578125 669.695312 L 944.777344 672.929688 C 946.355469 674.523438 946.574219 677.019531 945.289062 678.863281 L 944.160156 680.480469 C 944.695312 681.015625 945.0625 681.714844 945.179688 682.492188 C 945.367188 683.714844 944.925781 684.929688 943.996094 685.742188 C 936.792969 692.039062 918.585938 706.828125 905.058594 708.128906 C 904.191406 708.214844 903.347656 708.253906 902.542969 708.253906 " fill-opacity="1" fill-rule="nonzero"/><path fill="#000000" d="M 923.183594 692.09375 C 922.761719 692.09375 922.363281 691.859375 922.167969 691.457031 L 916.753906 680.074219 C 916.484375 679.511719 916.726562 678.84375 917.28125 678.578125 C 917.847656 678.3125 918.515625 678.550781 918.78125 679.109375 L 924.195312 690.492188 C 924.460938 691.050781 924.226562 691.71875 923.664062 691.984375 C 923.507812 692.058594 923.347656 692.09375 923.183594 692.09375 " fill-opacity="1" fill-rule="nonzero"/><path fill="#000000" d="M 898.089844 660.238281 C 897.824219 660.238281 897.558594 660.144531 897.34375 659.953125 C 896.878906 659.546875 896.835938 658.839844 897.246094 658.371094 L 898.222656 657.261719 L 842.863281 614.570312 C 842.375 614.191406 842.28125 613.488281 842.660156 612.996094 C 843.039062 612.507812 843.742188 612.417969 844.234375 612.792969 L 900.542969 656.21875 C 900.789062 656.40625 900.945312 656.691406 900.972656 657 C 901.003906 657.308594 900.902344 657.617188 900.699219 657.847656 L 898.929688 659.855469 C 898.703125 660.105469 898.398438 660.238281 898.089844 660.238281 " fill-opacity="1" fill-rule="nonzero"/><path fill="#ffffff" d="M 896.148438 662.625 L 920.660156 671.417969 L 916.777344 684.746094 L 887.1875 676.683594 L 896.148438 662.625 " fill-opacity="1" fill-rule="nonzero"/><path fill="#000000" d="M 888.949219 676 L 916.011719 683.375 L 919.285156 672.117188 L 896.613281 663.984375 Z M 916.78125 685.867188 C 916.683594 685.867188 916.582031 685.855469 916.484375 685.828125 L 886.890625 677.761719 C 886.550781 677.667969 886.269531 677.417969 886.136719 677.085938 C 886.015625 676.75 886.050781 676.378906 886.242188 676.082031 L 895.199219 662.023438 C 895.480469 661.578125 896.03125 661.394531 896.523438 661.570312 L 921.039062 670.363281 C 921.59375 670.5625 921.898438 671.164062 921.734375 671.730469 L 917.855469 685.058594 C 917.714844 685.546875 917.265625 685.867188 916.78125 685.867188 " fill-opacity="1" fill-rule="nonzero"/><path fill="#000000" d="M 915.726562 670.625 C 916.808594 668.621094 919.5 668.195312 921.136719 669.78125 L 928.21875 676.648438 L 922.09375 687.992188 L 910.972656 684.96875 C 910.933594 680.394531 913.660156 674.460938 915.726562 670.625 " fill-opacity="1" fill-rule="nonzero"/><path fill="#ffffff" d="M 915.917969 679.160156 L 918.542969 675.449219 C 919.484375 674.109375 921.222656 673.589844 922.746094 674.199219 L 925.210938 675.183594 L 925.519531 674.0625 C 925.855469 672.84375 927.042969 672.070312 928.292969 672.269531 C 935.886719 673.46875 961.164062 677.710938 970.148438 682.300781 C 980.773438 687.722656 976.660156 704.421875 959.902344 705.582031 C 946.621094 706.503906 926.328125 694.917969 918.472656 690.066406 C 916.929688 689.117188 916.910156 686.886719 918.425781 685.894531 L 918.445312 685.882812 L 916.277344 683.664062 C 915.089844 682.449219 914.9375 680.554688 915.917969 679.160156 " fill-opacity="1" fill-rule="nonzero"/><path fill="#000000" d="M 916.839844 679.808594 C 916.167969 680.757812 916.269531 682.050781 917.082031 682.882812 L 919.246094 685.101562 C 919.476562 685.339844 919.59375 685.667969 919.554688 686.003906 C 919.523438 686.335938 919.34375 686.632812 919.0625 686.816406 C 918.644531 687.09375 918.421875 687.515625 918.425781 687.984375 C 918.429688 688.457031 918.664062 688.867188 919.0625 689.113281 C 927.019531 694.027344 946.925781 705.355469 959.824219 704.464844 C 969.277344 703.808594 973.726562 698.226562 974.664062 693.644531 C 975.546875 689.296875 973.625 685.332031 969.632812 683.296875 C 960.804688 678.789062 935.625 674.566406 928.117188 673.375 C 927.433594 673.273438 926.785156 673.691406 926.601562 674.355469 L 926.292969 675.480469 C 926.207031 675.789062 926 676.042969 925.714844 676.1875 C 925.429688 676.328125 925.097656 676.34375 924.796875 676.226562 L 922.328125 675.242188 C 921.28125 674.824219 920.105469 675.175781 919.457031 676.089844 Z M 958.378906 706.757812 C 944.867188 706.757812 925.710938 695.855469 917.882812 691.023438 C 916.832031 690.375 916.199219 689.25 916.179688 688.015625 C 916.167969 687.230469 916.410156 686.480469 916.855469 685.867188 L 915.476562 684.449219 C 913.90625 682.847656 913.710938 680.351562 915.003906 678.515625 L 917.625 674.800781 C 918.875 673.027344 921.148438 672.359375 923.160156 673.160156 L 924.464844 673.675781 C 924.980469 671.957031 926.683594 670.882812 928.464844 671.160156 C 936.058594 672.359375 961.53125 676.640625 970.65625 681.300781 C 975.507812 683.773438 977.945312 688.796875 976.859375 694.09375 C 975.769531 699.441406 970.691406 705.957031 959.980469 706.703125 C 959.453125 706.734375 958.921875 706.757812 958.378906 706.757812 " fill-opacity="1" fill-rule="nonzero"/><path fill="#000000" d="M 939.277344 693.878906 C 939.175781 693.878906 939.070312 693.867188 938.96875 693.839844 C 938.371094 693.664062 938.027344 693.042969 938.199219 692.453125 L 941.664062 680.332031 C 941.835938 679.734375 942.457031 679.394531 943.050781 679.5625 C 943.648438 679.734375 943.988281 680.351562 943.820312 680.949219 L 940.355469 693.066406 C 940.214844 693.558594 939.765625 693.878906 939.277344 693.878906 " fill-opacity="1" fill-rule="nonzero"/><path fill="#000000" d="M 958.949219 703.214844 C 958.574219 703.214844 958.207031 703.027344 957.996094 702.6875 C 957.667969 702.164062 957.824219 701.472656 958.351562 701.140625 C 970.351562 693.632812 965.917969 684.5625 965.726562 684.179688 C 965.445312 683.628906 965.664062 682.953125 966.21875 682.671875 C 966.773438 682.390625 967.445312 682.613281 967.726562 683.164062 C 967.78125 683.277344 973.261719 694.460938 959.542969 703.042969 C 959.359375 703.160156 959.152344 703.214844 958.949219 703.214844 " fill-opacity="1" fill-rule="nonzero"/><path fill="#000000" d="M 949.332031 658.230469 C 948.808594 658.230469 948.339844 657.863281 948.230469 657.332031 L 947.378906 653.148438 C 947.296875 652.734375 947.449219 652.3125 947.777344 652.046875 C 947.914062 651.9375 961.640625 640.9375 984.886719 623.851562 C 1008.132812 606.765625 1013.214844 603.273438 1013.265625 603.242188 C 1013.777344 602.894531 1014.472656 603.019531 1014.820312 603.535156 C 1015.171875 604.042969 1015.042969 604.742188 1014.53125 605.09375 C 1014.480469 605.128906 1009.398438 608.617188 986.21875 625.652344 C 965.570312 640.832031 952.457031 651.195312 949.71875 653.375 L 950.429688 656.882812 C 950.554688 657.492188 950.160156 658.082031 949.554688 658.203125 C 949.480469 658.222656 949.40625 658.230469 949.332031 658.230469 " fill-opacity="1" fill-rule="nonzero"/><path fill="#000000" d="M 828.800781 576.164062 C 830.550781 568.332031 841.730469 539.449219 850.15625 518.171875 C 856.882812 501.191406 873.148438 488.945312 892.507812 486.488281 C 906.917969 484.652344 922.542969 484.28125 937.566406 485.464844 C 962.617188 487.4375 984.128906 502.761719 992.414062 524.730469 C 999.875 544.515625 1008.007812 568.804688 1008.191406 581.109375 C 1008.386719 594.21875 1000.464844 606.746094 991.816406 616.472656 C 980.910156 628.742188 965.34375 636.394531 948.535156 637.949219 C 924.527344 640.171875 887.058594 642.402344 870.039062 636.84375 C 843.941406 628.320312 824.5625 595.121094 828.800781 576.164062 " fill-opacity="1" fill-rule="nonzero"/><path fill="#ffffff" d="M 862.589844 537.851562 L 976.042969 537.851562 C 981.191406 537.851562 985.367188 542.023438 985.367188 547.164062 L 985.367188 622.136719 C 985.367188 627.285156 981.191406 631.457031 976.042969 631.457031 L 862.589844 631.457031 C 857.445312 631.457031 853.269531 627.285156 853.269531 622.136719 L 853.269531 547.164062 C 853.269531 542.023438 857.445312 537.851562 862.589844 537.851562 " fill-opacity="1" fill-rule="nonzero"/><path fill="#000000" d="M 862.589844 538.972656 C 858.066406 538.972656 854.390625 542.648438 854.390625 547.164062 L 854.390625 622.136719 C 854.390625 626.65625 858.066406 630.332031 862.589844 630.332031 L 976.042969 630.332031 C 980.566406 630.332031 984.242188 626.65625 984.242188 622.136719 L 984.242188 547.164062 C 984.242188 542.648438 980.566406 538.972656 976.042969 538.972656 Z M 976.042969 632.574219 L 862.589844 632.574219 C 856.832031 632.574219 852.148438 627.890625 852.148438 622.136719 L 852.148438 547.164062 C 852.148438 541.410156 856.832031 536.730469 862.589844 536.730469 L 976.042969 536.730469 C 981.800781 536.730469 986.484375 541.410156 986.484375 547.164062 L 986.484375 622.136719 C 986.484375 627.890625 981.800781 632.574219 976.042969 632.574219 " fill-opacity="1" fill-rule="nonzero"/><path fill="#caddff" d="M 855.074219 631.90625 L 985.492188 631.90625 C 988.734375 631.90625 991.363281 634.53125 991.363281 637.769531 C 991.363281 641.011719 988.734375 643.636719 985.492188 643.636719 L 855.074219 643.636719 C 851.832031 643.636719 849.207031 641.011719 849.207031 637.769531 C 849.207031 634.53125 851.832031 631.90625 855.074219 631.90625 " fill-opacity="1" fill-rule="nonzero"/><path fill="#000000" d="M 855.074219 633.027344 C 852.457031 633.027344 850.328125 635.15625 850.328125 637.769531 C 850.328125 640.386719 852.457031 642.511719 855.074219 642.511719 L 985.492188 642.511719 C 988.109375 642.511719 990.238281 640.386719 990.238281 637.769531 C 990.238281 635.15625 988.109375 633.027344 985.492188 633.027344 Z M 985.492188 644.757812 L 855.074219 644.757812 C 851.222656 644.757812 848.082031 641.625 848.082031 637.769531 C 848.082031 633.917969 851.222656 630.785156 855.074219 630.785156 L 985.492188 630.785156 C 989.347656 630.785156 992.484375 633.917969 992.484375 637.769531 C 992.484375 641.625 989.347656 644.757812 985.492188 644.757812 " fill-opacity="1" fill-rule="nonzero"/><path fill="#ffffff" d="M 909.285156 486.035156 L 908.0625 468.730469 C 907.234375 468.671875 906.660156 468.632812 906.496094 468.632812 C 901.664062 468.578125 900.09375 467.011719 899.675781 463.046875 C 899.417969 460.566406 899.324219 456.882812 900.535156 452.273438 C 900.664062 451.78125 900.636719 451.257812 900.433594 450.792969 L 899.609375 448.855469 C 899.4375 448.222656 899.660156 447.535156 900.167969 447.121094 L 900.609375 446.761719 C 902.183594 445.472656 903.492188 443.882812 904.542969 442.117188 C 905.511719 440.496094 907.152344 437.457031 908.28125 436.917969 C 911.453125 435.40625 924.332031 428.671875 931.535156 440.441406 C 937.148438 449.613281 927.972656 462.242188 924.640625 466.378906 C 923.835938 467.378906 930.082031 486.992188 930.082031 486.992188 L 938.160156 488.945312 C 938.160156 488.945312 931.929688 500.003906 912.996094 495.429688 C 899.511719 492.171875 901.65625 487.15625 901.65625 487.15625 L 909.285156 486.035156 " fill-opacity="1" fill-rule="nonzero"/><path fill="#000000" d="M 902.664062 488.144531 C 902.691406 488.390625 902.777344 488.714844 902.984375 489.09375 C 903.632812 490.285156 905.828125 492.542969 913.257812 494.339844 C 927.398438 497.761719 934.019531 492.257812 936.265625 489.636719 L 929.820312 488.082031 C 929.441406 487.992188 929.132812 487.707031 929.015625 487.335938 C 922.582031 467.148438 923.351562 466.191406 923.765625 465.675781 C 927.507812 461.03125 935.660156 449.335938 930.574219 441.023438 C 924.144531 430.507812 912.828125 435.972656 909.109375 437.765625 L 908.765625 437.933594 C 908.101562 438.25 906.59375 440.839844 905.945312 441.945312 C 905.789062 442.214844 905.644531 442.46875 905.507812 442.695312 C 904.347656 444.640625 902.9375 446.300781 901.316406 447.628906 L 900.878906 447.988281 C 900.726562 448.113281 900.652344 448.316406 900.679688 448.507812 L 901.464844 450.351562 C 901.761719 451.035156 901.8125 451.820312 901.621094 452.558594 C 900.699219 456.066406 900.429688 459.457031 900.792969 462.929688 C 901.128906 466.117188 901.996094 467.460938 906.507812 467.511719 C 906.683594 467.515625 907.277344 467.546875 908.136719 467.609375 C 908.695312 467.648438 909.140625 468.089844 909.183594 468.648438 L 910.402344 485.957031 C 910.445312 486.539062 910.027344 487.058594 909.445312 487.144531 Z M 921.722656 497.675781 C 919.089844 497.675781 916.101562 497.335938 912.734375 496.519531 C 906.289062 494.964844 902.3125 492.769531 900.925781 490 C 900.03125 488.21875 900.5625 486.863281 900.625 486.71875 C 900.777344 486.359375 901.105469 486.105469 901.492188 486.046875 L 908.09375 485.078125 L 907.011719 469.78125 C 906.746094 469.765625 906.5625 469.753906 906.480469 469.753906 C 901.273438 469.695312 899.050781 467.847656 898.558594 463.164062 C 898.167969 459.417969 898.457031 455.761719 899.449219 451.988281 C 899.519531 451.726562 899.503906 451.460938 899.402344 451.230469 L 898.578125 449.296875 C 898.558594 449.25 898.539062 449.199219 898.527344 449.148438 C 898.242188 448.089844 898.605469 446.953125 899.453125 446.253906 L 899.894531 445.890625 C 901.3125 444.734375 902.554688 443.269531 903.578125 441.542969 C 903.707031 441.324219 903.855469 441.082031 904.007812 440.816406 C 905.425781 438.382812 906.605469 436.476562 907.796875 435.910156 L 908.136719 435.746094 C 919.324219 430.347656 927.519531 431.726562 932.492188 439.851562 C 938.238281 449.246094 929.796875 461.714844 925.691406 466.867188 C 925.742188 468.644531 928.328125 477.738281 930.960938 486.050781 L 938.425781 487.851562 C 938.765625 487.9375 939.050781 488.171875 939.191406 488.496094 C 939.332031 488.820312 939.3125 489.1875 939.140625 489.492188 C 938.914062 489.890625 934.355469 497.671875 921.722656 497.675781 " fill-opacity="1" fill-rule="nonzero"/><path fill="#000000" d="M 927.566406 425.476562 C 924.074219 424.722656 920.0625 425.261719 918.367188 424.640625 C 915.636719 423.636719 915.558594 420.363281 911.78125 419.445312 C 907.203125 418.332031 905.292969 420.285156 903.503906 423.007812 C 903.207031 423.457031 902.945312 423.96875 902.730469 424.542969 C 899.855469 432.253906 903.484375 436.011719 905.105469 437.234375 C 905.105469 437.234375 915.398438 442.550781 917.160156 444.070312 C 918.808594 445.492188 920.710938 448.855469 919.515625 453.691406 C 919.359375 454.3125 919.632812 454.960938 920.160156 455.28125 C 920.78125 455.652344 921.582031 455.476562 922.007812 454.859375 C 923.34375 452.921875 926.265625 449.171875 928.347656 450.058594 C 930.960938 451.175781 930.148438 459.003906 924.382812 459.910156 C 922.609375 460.1875 921.171875 461.996094 921.34375 463.847656 C 921.457031 465.058594 922.601562 466.527344 924.296875 466.914062 C 925.328125 467.152344 926.351562 466.734375 927.265625 466.15625 C 931.027344 463.753906 941.640625 453.570312 942.960938 444.441406 C 944.550781 433.441406 932.210938 426.476562 927.566406 425.476562 " fill-opacity="1" fill-rule="nonzero"/><path fill="#000000" d="M 906.761719 469.597656 C 906.203125 469.597656 905.742188 469.152344 905.722656 468.59375 C 905.699219 468.015625 906.148438 467.535156 906.722656 467.511719 C 906.757812 467.511719 910.417969 467.34375 912.914062 465.222656 C 913.351562 464.851562 914.007812 464.902344 914.382812 465.34375 C 914.753906 465.78125 914.703125 466.441406 914.265625 466.8125 C 911.207031 469.402344 906.980469 469.585938 906.800781 469.59375 C 906.785156 469.597656 906.773438 469.597656 906.761719 469.597656 " fill-opacity="1" fill-rule="nonzero"/><path fill="#ffffff" d="M 672.15625 280.007812 L 670.148438 280.007812 L 670.148438 237.121094 L 672.15625 237.121094 C 683.203125 237.121094 692.164062 246.078125 692.164062 257.121094 L 692.164062 260.007812 C 692.164062 271.054688 683.203125 280.007812 672.15625 280.007812 " fill-opacity="1" fill-rule="nonzero"/><path fill="#000000" d="M 671.269531 278.890625 L 672.15625 278.890625 C 682.570312 278.890625 691.042969 270.417969 691.042969 260.007812 L 691.042969 257.121094 C 691.042969 246.710938 682.570312 238.246094 672.15625 238.246094 L 671.269531 238.246094 Z M 672.15625 281.128906 L 670.148438 281.128906 C 669.527344 281.128906 669.023438 280.628906 669.023438 280.007812 L 669.023438 237.121094 C 669.023438 236.503906 669.527344 236.003906 670.148438 236.003906 L 672.15625 236.003906 C 683.804688 236.003906 693.285156 245.476562 693.285156 257.121094 L 693.285156 260.007812 C 693.285156 271.65625 683.804688 281.128906 672.15625 281.128906 " fill-opacity="1" fill-rule="nonzero"/><path fill="#ffffff" d="M 474.394531 280.007812 L 476.402344 280.007812 L 476.402344 237.121094 L 474.394531 237.121094 C 463.34375 237.121094 454.382812 246.078125 454.382812 257.121094 L 454.382812 260.007812 C 454.382812 271.054688 463.34375 280.007812 474.394531 280.007812 " fill-opacity="1" fill-rule="nonzero"/><path fill="#000000" d="M 474.394531 238.246094 C 463.980469 238.246094 455.507812 246.710938 455.507812 257.121094 L 455.507812 260.007812 C 455.507812 270.417969 463.980469 278.890625 474.394531 278.890625 L 475.277344 278.890625 L 475.277344 238.246094 Z M 476.402344 281.128906 L 474.394531 281.128906 C 462.742188 281.128906 453.261719 271.65625 453.261719 260.007812 L 453.261719 257.121094 C 453.261719 245.476562 462.742188 236.003906 474.394531 236.003906 L 476.402344 236.003906 C 477.019531 236.003906 477.523438 236.503906 477.523438 237.121094 L 477.523438 280.007812 C 477.523438 280.628906 477.019531 281.128906 476.402344 281.128906 " fill-opacity="1" fill-rule="nonzero"/><path fill="#ffffff" d="M 469.464844 256.796875 C 469.464844 210.710938 515.941406 163.042969 573.273438 163.042969 C 630.605469 163.042969 677.082031 210.710938 677.082031 256.796875 C 677.082031 302.878906 630.605469 329.921875 573.273438 329.921875 C 515.941406 329.921875 469.464844 302.878906 469.464844 256.796875 " fill-opacity="1" fill-rule="nonzero"/><path fill="#000000" d="M 573.273438 164.164062 C 514.5 164.164062 470.585938 213.070312 470.585938 256.796875 C 470.585938 278.371094 480.929688 296.667969 500.492188 309.707031 C 518.964844 322.023438 544.8125 328.804688 573.273438 328.804688 C 601.734375 328.804688 627.582031 322.023438 646.054688 309.707031 C 665.621094 296.667969 675.960938 278.371094 675.960938 256.796875 C 675.960938 213.070312 632.046875 164.164062 573.273438 164.164062 Z M 573.273438 331.042969 C 544.375 331.042969 518.085938 324.132812 499.246094 311.570312 C 479.03125 298.097656 468.34375 279.152344 468.34375 256.796875 C 468.34375 233.898438 479.554688 210.214844 499.101562 191.824219 C 519.589844 172.539062 545.933594 161.917969 573.273438 161.917969 C 600.617188 161.917969 626.957031 172.539062 647.445312 191.824219 C 666.996094 210.214844 678.203125 233.898438 678.203125 256.796875 C 678.203125 279.152344 667.515625 298.097656 647.300781 311.570312 C 628.460938 324.132812 602.171875 331.042969 573.273438 331.042969 " fill-opacity="1" fill-rule="nonzero"/><path fill="#ffffff" d="M 599.277344 343.769531 L 547.273438 343.769531 C 524.476562 343.769531 506 362.238281 506 385.019531 C 506 400.066406 507.46875 415.078125 510.386719 429.847656 L 517.863281 467.691406 C 523.089844 494.140625 546.300781 513.203125 573.273438 513.203125 C 600.25 513.203125 623.457031 494.140625 628.683594 467.691406 L 636.160156 429.847656 C 639.078125 415.078125 640.546875 400.066406 640.546875 385.019531 C 640.546875 362.238281 622.070312 343.769531 599.277344 343.769531 " fill-opacity="1" fill-rule="nonzero"/><path fill="#000000" d="M 547.273438 344.890625 C 525.132812 344.890625 507.121094 362.890625 507.121094 385.019531 C 507.121094 399.960938 508.589844 414.96875 511.488281 429.628906 L 518.964844 467.472656 C 524.070312 493.320312 546.910156 512.082031 573.273438 512.082031 C 599.636719 512.082031 622.476562 493.320312 627.582031 467.472656 L 635.0625 429.628906 C 637.957031 414.96875 639.425781 399.960938 639.425781 385.019531 C 639.425781 362.890625 621.414062 344.890625 599.277344 344.890625 Z M 573.273438 514.328125 C 545.84375 514.328125 522.078125 494.808594 516.761719 467.90625 L 509.285156 430.0625 C 506.363281 415.261719 504.878906 400.109375 504.878906 385.019531 C 504.878906 361.652344 523.894531 342.648438 547.273438 342.648438 L 599.277344 342.648438 C 622.652344 342.648438 641.667969 361.652344 641.667969 385.019531 C 641.667969 400.109375 640.1875 415.261719 637.261719 430.0625 L 629.785156 467.90625 C 624.472656 494.808594 600.703125 514.328125 573.273438 514.328125 " fill-opacity="1" fill-rule="nonzero"/><path fill="#5479f7" d="M 575.183594 435.160156 L 571.367188 435.160156 C 556.785156 435.160156 544.964844 423.347656 544.964844 408.777344 L 544.964844 343.769531 L 601.582031 343.769531 L 601.582031 408.777344 C 601.582031 423.347656 589.761719 435.160156 575.183594 435.160156 " fill-opacity="1" fill-rule="nonzero"/><path fill="#000000" d="M 601.582031 344.890625 L 544.964844 344.890625 C 544.347656 344.890625 543.84375 344.386719 543.84375 343.769531 C 543.84375 343.152344 544.347656 342.648438 544.964844 342.648438 L 601.582031 342.648438 C 602.203125 342.648438 602.703125 343.152344 602.703125 343.769531 C 602.703125 344.386719 602.203125 344.890625 601.582031 344.890625 " fill-opacity="1" fill-rule="nonzero"/><path fill="#000000" d="M 643.066406 242.964844 L 543.101562 242.964844 C 532.714844 242.964844 524.296875 252.03125 524.296875 263.214844 L 524.296875 276.425781 C 524.296875 284.953125 528.851562 293.996094 536.707031 295.46875 C 564.410156 300.675781 621.753906 300.675781 649.457031 295.46875 C 657.3125 293.996094 661.871094 284.953125 661.871094 276.425781 L 661.871094 263.214844 C 661.871094 252.03125 653.453125 242.964844 643.066406 242.964844 " fill-opacity="1" fill-rule="nonzero"/><path fill="#5479f7" d="M 569.59375 269.550781 C 569.59375 273.300781 566.773438 276.335938 563.292969 276.335938 C 559.816406 276.335938 556.996094 273.300781 556.996094 269.550781 C 556.996094 265.804688 559.816406 262.769531 563.292969 262.769531 C 566.773438 262.769531 569.59375 265.804688 569.59375 269.550781 " fill-opacity="1" fill-rule="nonzero"/><path fill="#5479f7" d="M 636.617188 269.550781 C 636.617188 273.300781 633.796875 276.335938 630.316406 276.335938 C 626.839844 276.335938 624.019531 273.300781 624.019531 269.550781 C 624.019531 265.804688 626.839844 262.769531 630.316406 262.769531 C 633.796875 262.769531 636.617188 265.804688 636.617188 269.550781 " fill-opacity="1" fill-rule="nonzero"/><path fill="#ffffff" d="M 554.421875 399.734375 C 554.136719 399.734375 553.847656 399.625 553.628906 399.40625 C 553.191406 398.96875 553.191406 398.257812 553.628906 397.820312 L 591.332031 360.140625 C 591.769531 359.703125 592.480469 359.703125 592.917969 360.140625 C 593.355469 360.578125 593.355469 361.289062 592.917969 361.726562 L 555.21875 399.40625 C 554.996094 399.625 554.710938 399.734375 554.421875 399.734375 " fill-opacity="1" fill-rule="nonzero"/><path fill="#ffffff" d="M 562.671875 415.484375 C 562.386719 415.484375 562.097656 415.375 561.878906 415.15625 C 561.441406 414.71875 561.441406 414.007812 561.878906 413.570312 L 583.082031 392.375 C 583.523438 391.9375 584.230469 391.9375 584.667969 392.375 C 585.109375 392.816406 585.109375 393.527344 584.667969 393.964844 L 563.464844 415.15625 C 563.246094 415.375 562.960938 415.484375 562.671875 415.484375 " fill-opacity="1" fill-rule="nonzero"/><path fill="#ffffff" d="M 693.035156 698.738281 C 631.777344 698.738281 581.816406 683.59375 581.183594 683.398438 C 580.59375 683.214844 580.261719 682.585938 580.445312 681.996094 C 580.625 681.40625 581.257812 681.078125 581.847656 681.253906 C 582.644531 681.5 662.605469 705.726562 744.128906 692.601562 C 744.742188 692.496094 745.316406 692.917969 745.414062 693.53125 C 745.511719 694.140625 745.101562 694.714844 744.488281 694.8125 C 727.015625 697.628906 709.605469 698.738281 693.035156 698.738281 " fill-opacity="1" fill-rule="nonzero"/></svg>