<svg xmlns="http://www.w3.org/2000/svg" xmlns:xlink="http://www.w3.org/1999/xlink" width="1920" zoomAndPan="magnify" viewBox="0 0 1440 809.999993" height="1080" preserveAspectRatio="xMidYMid meet" version="1.0"><defs><clipPath id="08ef548d15"><path d="M 56.230469 53.816406 L 1384 53.816406 L 1384 756.183594 L 56.230469 756.183594 Z M 56.230469 53.816406 " clip-rule="nonzero"/></clipPath><clipPath id="ec4d725583"><path d="M 81.730469 53.816406 L 1358.269531 53.816406 C 1365.03125 53.816406 1371.519531 56.503906 1376.300781 61.285156 C 1381.082031 66.066406 1383.769531 72.554688 1383.769531 79.316406 L 1383.769531 730.683594 C 1383.769531 737.445312 1381.082031 743.933594 1376.300781 748.714844 C 1371.519531 753.496094 1365.03125 756.183594 1358.269531 756.183594 L 81.730469 756.183594 C 74.96875 756.183594 68.480469 753.496094 63.699219 748.714844 C 58.917969 743.933594 56.230469 737.445312 56.230469 730.683594 L 56.230469 79.316406 C 56.230469 72.554688 58.917969 66.066406 63.699219 61.285156 C 68.480469 56.503906 74.96875 53.816406 81.730469 53.816406 Z M 81.730469 53.816406 " clip-rule="nonzero"/></clipPath><clipPath id="75aed78157"><path d="M 56.230469 53.816406 L 1383.730469 53.816406 L 1383.730469 755.816406 L 56.230469 755.816406 Z M 56.230469 53.816406 " clip-rule="nonzero"/></clipPath><clipPath id="7f7dc69f7e"><path d="M 81.730469 53.816406 L 1358.265625 53.816406 C 1365.027344 53.816406 1371.515625 56.503906 1376.296875 61.285156 C 1381.078125 66.066406 1383.765625 72.554688 1383.765625 79.316406 L 1383.765625 730.679688 C 1383.765625 737.441406 1381.078125 743.929688 1376.296875 748.710938 C 1371.515625 753.492188 1365.027344 756.179688 1358.265625 756.179688 L 81.730469 756.179688 C 74.96875 756.179688 68.480469 753.492188 63.699219 748.710938 C 58.917969 743.929688 56.230469 737.441406 56.230469 730.679688 L 56.230469 79.316406 C 56.230469 72.554688 58.917969 66.066406 63.699219 61.285156 C 68.480469 56.503906 74.96875 53.816406 81.730469 53.816406 Z M 81.730469 53.816406 " clip-rule="nonzero"/></clipPath></defs><rect x="-144" width="1728" fill="#ffffff" y="-80.999999" height="971.999992" fill-opacity="1"/><rect x="-144" width="1728" fill="#ffcbbe" y="-80.999999" height="971.999992" fill-opacity="1"/><g clip-path="url(#08ef548d15)"><g clip-path="url(#ec4d725583)"><path fill="#ffffff" d="M 56.230469 53.816406 L 1384.140625 53.816406 L 1384.140625 756.183594 L 56.230469 756.183594 Z M 56.230469 53.816406 " fill-opacity="1" fill-rule="nonzero"/></g></g><g clip-path="url(#75aed78157)"><g clip-path="url(#7f7dc69f7e)"><path stroke-linecap="butt" transform="matrix(0.75, 0, 0, 0.75, 56.231257, 53.816912)" fill="none" stroke-linejoin="miter" d="M 33.998951 -0.000673923 L 1736.045911 -0.000673923 C 1745.061537 -0.000673923 1753.712579 3.58266 1760.087579 9.95766 C 1766.46258 16.33266 1770.045913 24.983702 1770.045913 33.999328 L 1770.045913 902.483746 C 1770.045913 911.499372 1766.46258 920.150414 1760.087579 926.525414 C 1753.712579 932.900415 1745.061537 936.483748 1736.045911 936.483748 L 33.998951 936.483748 C 24.983325 936.483748 16.332283 932.900415 9.957283 926.525414 C 3.582283 920.150414 -0.00105099 911.499372 -0.00105099 902.483746 L -0.00105099 33.999328 C -0.00105099 24.983702 3.582283 16.33266 9.957283 9.95766 C 16.332283 3.58266 24.983325 -0.000673923 33.998951 -0.000673923 Z M 33.998951 -0.000673923 " stroke="#000000" stroke-width="4" stroke-opacity="1" stroke-miterlimit="4"/></g></g><path fill="#caddff" d="M 987.921875 420.417969 C 941.003906 457.335938 1008.679688 546.363281 981.847656 600.792969 C 945.726562 674.066406 724.789062 712.066406 592.777344 609.90625 C 482.222656 524.351562 461.230469 361.546875 521.832031 304.769531 C 539.972656 287.78125 560.105469 285.261719 588.289062 268.691406 C 614.5 253.28125 617.800781 248.902344 619.933594 245.90625 C 641.011719 216.3125 609.070312 183.75 619.796875 157.40625 C 636.746094 115.78125 752.925781 107.574219 845.65625 134.53125 C 870.664062 141.796875 997.003906 181.574219 1032.152344 282.828125 C 1034.871094 290.664062 1060.417969 366.238281 1022.476562 401.472656 C 1009.324219 413.6875 1000.429688 410.574219 987.921875 420.417969 " fill-opacity="1" fill-rule="nonzero"/><path fill="#000000" d="M 518.039062 463.558594 C 517.605469 463.558594 517.203125 463.273438 517.078125 462.832031 C 501.003906 407.03125 514.097656 362.265625 514.230469 361.820312 C 514.390625 361.292969 514.949219 360.992188 515.480469 361.148438 C 516.007812 361.308594 516.308594 361.867188 516.148438 362.394531 C 516.019531 362.839844 503.101562 407.070312 519.003906 462.277344 C 519.15625 462.8125 518.851562 463.367188 518.320312 463.519531 C 518.226562 463.546875 518.132812 463.558594 518.039062 463.558594 " fill-opacity="1" fill-rule="nonzero"/><path fill="#000000" d="M 501.421875 427.257812 C 500.960938 427.257812 500.542969 426.9375 500.445312 426.460938 C 500.414062 426.328125 497.574219 412.605469 498.308594 393.304688 C 498.988281 375.480469 502.933594 349.085938 517.882812 324.554688 C 518.171875 324.082031 518.789062 323.933594 519.261719 324.21875 C 519.734375 324.507812 519.882812 325.125 519.59375 325.59375 C 491.417969 371.832031 502.292969 425.511719 502.40625 426.050781 C 502.519531 426.59375 502.171875 427.121094 501.632812 427.238281 C 501.5625 427.253906 501.492188 427.257812 501.421875 427.257812 " fill-opacity="1" fill-rule="nonzero"/><path fill="#000000" d="M 1023.761719 287.945312 C 1023.578125 287.945312 1023.390625 287.898438 1023.226562 287.792969 C 1022.757812 287.496094 1022.621094 286.878906 1022.914062 286.40625 L 1025.683594 282.027344 C 1025.980469 281.558594 1026.597656 281.421875 1027.070312 281.714844 C 1027.53125 282.011719 1027.671875 282.628906 1027.378906 283.101562 L 1024.609375 287.484375 C 1024.417969 287.78125 1024.09375 287.945312 1023.761719 287.945312 " fill-opacity="1" fill-rule="nonzero"/><path fill="#000000" d="M 1017.3125 298.152344 C 1017.128906 298.152344 1016.941406 298.101562 1016.777344 297.996094 C 1016.308594 297.703125 1016.167969 297.082031 1016.464844 296.617188 L 1019.238281 292.230469 C 1019.535156 291.765625 1020.152344 291.625 1020.617188 291.921875 C 1021.085938 292.214844 1021.226562 292.835938 1020.929688 293.304688 L 1018.164062 297.6875 C 1017.972656 297.988281 1017.644531 298.152344 1017.3125 298.152344 " fill-opacity="1" fill-rule="nonzero"/><path fill="#000000" d="M 1019.003906 289.019531 C 1018.824219 289.019531 1018.636719 288.96875 1018.472656 288.863281 L 1014.089844 286.097656 C 1013.621094 285.800781 1013.480469 285.179688 1013.777344 284.710938 C 1014.074219 284.246094 1014.691406 284.105469 1015.160156 284.402344 L 1019.542969 287.167969 C 1020.011719 287.46875 1020.148438 288.085938 1019.851562 288.554688 C 1019.660156 288.855469 1019.339844 289.019531 1019.003906 289.019531 " fill-opacity="1" fill-rule="nonzero"/><path fill="#000000" d="M 1029.21875 295.464844 C 1029.035156 295.464844 1028.851562 295.417969 1028.683594 295.3125 L 1024.304688 292.542969 C 1023.835938 292.246094 1023.695312 291.628906 1023.992188 291.160156 C 1024.285156 290.691406 1024.90625 290.554688 1025.371094 290.847656 L 1029.753906 293.617188 C 1030.226562 293.914062 1030.363281 294.53125 1030.070312 295 C 1029.875 295.300781 1029.550781 295.464844 1029.21875 295.464844 " fill-opacity="1" fill-rule="nonzero"/><path fill="#000000" d="M 603.617188 137.695312 C 603.367188 137.695312 603.117188 137.605469 602.925781 137.421875 C 602.523438 137.039062 602.511719 136.398438 602.894531 136.003906 L 606.046875 132.703125 C 606.433594 132.308594 607.066406 132.289062 607.464844 132.671875 C 607.863281 133.054688 607.878906 133.691406 607.496094 134.089844 L 604.34375 137.386719 C 604.144531 137.59375 603.882812 137.695312 603.617188 137.695312 " fill-opacity="1" fill-rule="nonzero"/><path fill="#000000" d="M 592.574219 149.238281 C 592.328125 149.238281 592.078125 149.148438 591.882812 148.960938 C 591.484375 148.578125 591.46875 147.945312 591.851562 147.542969 L 595.003906 144.246094 C 595.390625 143.847656 596.023438 143.832031 596.421875 144.214844 C 596.824219 144.597656 596.835938 145.230469 596.453125 145.632812 L 593.300781 148.929688 C 593.101562 149.136719 592.839844 149.238281 592.574219 149.238281 " fill-opacity="1" fill-rule="nonzero"/><path fill="#000000" d="M 595.671875 137.871094 C 595.417969 137.871094 595.164062 137.777344 594.96875 137.585938 L 591.765625 134.429688 C 591.371094 134.039062 591.367188 133.40625 591.757812 133.011719 C 592.144531 132.617188 592.78125 132.613281 593.171875 133 L 596.375 136.15625 C 596.769531 136.546875 596.773438 137.179688 596.386719 137.574219 C 596.1875 137.773438 595.929688 137.871094 595.671875 137.871094 " fill-opacity="1" fill-rule="nonzero"/><path fill="#000000" d="M 606.878906 148.921875 C 606.625 148.921875 606.371094 148.824219 606.175781 148.632812 L 602.972656 145.476562 C 602.578125 145.085938 602.574219 144.453125 602.960938 144.058594 C 603.351562 143.664062 603.984375 143.660156 604.378906 144.050781 L 607.582031 147.203125 C 607.976562 147.589844 607.980469 148.226562 607.59375 148.621094 C 607.394531 148.820312 607.136719 148.921875 606.878906 148.921875 " fill-opacity="1" fill-rule="nonzero"/><path fill="#000000" d="M 1005.921875 252.074219 C 1005.21875 252.074219 1004.523438 252.226562 1003.863281 252.519531 C 1001.261719 253.691406 1000.078125 256.808594 1001.226562 259.472656 C 1001.78125 260.777344 1002.808594 261.769531 1004.105469 262.273438 C 1005.367188 262.765625 1006.746094 262.730469 1007.984375 262.167969 C 1010.585938 261 1011.765625 257.878906 1010.617188 255.214844 C 1010.058594 253.917969 1009.039062 252.925781 1007.742188 252.421875 C 1007.148438 252.191406 1006.535156 252.074219 1005.921875 252.074219 Z M 1005.925781 264.621094 C 1005.066406 264.621094 1004.207031 264.460938 1003.375 264.140625 C 1001.574219 263.441406 1000.160156 262.066406 999.382812 260.269531 C 997.804688 256.605469 999.449219 252.308594 1003.039062 250.691406 C 1004.769531 249.914062 1006.699219 249.863281 1008.46875 250.550781 C 1010.265625 251.25 1011.683594 252.628906 1012.460938 254.425781 C 1014.039062 258.085938 1012.398438 262.382812 1008.804688 264 C 1007.882812 264.414062 1006.902344 264.621094 1005.925781 264.621094 " fill-opacity="1" fill-rule="nonzero"/><path fill="#99b9ff" d="M 964.308594 663.191406 L 951.246094 664.15625 L 706.574219 663.191406 C 695.464844 663.191406 686.496094 654.207031 686.539062 643.125 L 688.390625 141.253906 C 688.433594 130.175781 697.472656 121.191406 708.578125 121.191406 L 953.027344 118.328125 C 981.125 118.328125 986.386719 130.175781 986.347656 141.253906 L 984.496094 643.125 C 984.453125 654.207031 975.417969 663.191406 964.308594 663.191406 " fill-opacity="1" fill-rule="nonzero"/><path fill="#ffffff" d="M 948.804688 663.191406 L 691.066406 663.191406 C 679.960938 663.191406 670.984375 654.175781 671.023438 643.058594 L 672.679688 139.589844 C 672.71875 128.472656 681.75 119.460938 692.855469 119.460938 L 950.59375 119.460938 C 961.699219 119.460938 970.675781 128.472656 970.636719 139.589844 L 968.980469 643.058594 C 968.941406 654.175781 959.910156 663.191406 948.804688 663.191406 " fill-opacity="1" fill-rule="nonzero"/><path fill="#99b9ff" d="M 685.792969 643.753906 L 687.375 163.03125 C 687.382812 160.464844 689.46875 158.382812 692.035156 158.382812 L 951.152344 158.382812 C 953.71875 158.382812 955.789062 160.464844 955.78125 163.03125 L 954.195312 643.753906 C 954.191406 646.320312 952.105469 648.402344 949.539062 648.402344 L 690.417969 648.402344 C 687.855469 648.402344 685.785156 646.320312 685.792969 643.753906 " fill-opacity="1" fill-rule="nonzero"/><path fill="#caddff" d="M 821.636719 145.066406 C 817.480469 145.066406 814.117188 141.695312 814.132812 137.527344 C 814.144531 133.363281 817.53125 129.984375 821.691406 129.984375 C 825.851562 129.984375 829.210938 133.363281 829.199219 137.527344 C 829.183594 141.695312 825.804688 145.066406 821.636719 145.066406 " fill-opacity="1" fill-rule="nonzero"/><path fill="#000000" d="M 969.84375 381.664062 C 969.839844 381.664062 969.839844 381.664062 969.839844 381.664062 C 969.285156 381.660156 968.839844 381.210938 968.84375 380.660156 L 969.636719 139.589844 C 969.652344 134.472656 967.683594 129.667969 964.078125 126.058594 C 960.480469 122.453125 955.691406 120.464844 950.597656 120.464844 L 692.855469 120.464844 C 682.320312 120.464844 673.714844 129.046875 673.683594 139.597656 L 673.046875 332.375 C 673.046875 332.933594 672.597656 333.378906 672.046875 333.378906 C 672.042969 333.378906 672.042969 333.378906 672.042969 333.378906 C 671.488281 333.375 671.039062 332.925781 671.042969 332.371094 L 671.675781 139.589844 C 671.714844 127.9375 681.21875 118.460938 692.855469 118.460938 L 950.597656 118.460938 C 956.230469 118.460938 961.523438 120.65625 965.496094 124.644531 C 969.480469 128.636719 971.660156 133.949219 971.644531 139.597656 L 970.847656 380.664062 C 970.847656 381.21875 970.394531 381.664062 969.84375 381.664062 " fill-opacity="1" fill-rule="nonzero"/><path fill="#000000" d="M 948.804688 664.195312 C 948.800781 664.195312 948.800781 664.195312 948.796875 664.195312 L 745.605469 663.242188 C 745.054688 663.238281 744.605469 662.785156 744.609375 662.234375 C 744.609375 661.683594 745.058594 661.234375 745.613281 661.234375 L 948.808594 662.191406 C 949.363281 662.191406 949.808594 662.640625 949.804688 663.195312 C 949.804688 663.746094 949.355469 664.195312 948.804688 664.195312 " fill-opacity="1" fill-rule="nonzero"/><path fill="#ffffff" d="M 726.976562 286.65625 L 727.578125 286.65625 L 727.148438 245.703125 L 726.546875 245.703125 C 715.25 245.703125 706.1875 254.839844 706.304688 266.113281 L 706.304688 266.242188 C 706.421875 277.515625 715.679688 286.65625 726.976562 286.65625 " fill-opacity="1" fill-rule="nonzero"/><path fill="#000000" d="M 726.15625 246.710938 C 721.101562 246.808594 716.386719 248.820312 712.84375 252.402344 C 709.21875 256.0625 707.253906 260.929688 707.308594 266.105469 L 707.308594 266.234375 C 707.417969 276.804688 716.019531 285.429688 726.5625 285.644531 Z M 727.578125 287.65625 L 726.976562 287.65625 C 715.148438 287.65625 705.425781 278.054688 705.300781 266.253906 L 705.300781 266.125 C 705.242188 260.410156 707.414062 255.035156 711.417969 250.992188 C 715.433594 246.933594 720.808594 244.699219 726.546875 244.699219 L 727.148438 244.699219 C 727.699219 244.699219 728.144531 245.140625 728.152344 245.695312 L 728.578125 286.644531 C 728.578125 286.914062 728.476562 287.167969 728.289062 287.359375 C 728.101562 287.550781 727.84375 287.65625 727.578125 287.65625 " fill-opacity="1" fill-rule="nonzero"/><path fill="#ffffff" d="M 913.488281 286.65625 L 912.886719 286.65625 L 912.457031 245.703125 L 913.058594 245.703125 C 924.355469 245.703125 933.609375 254.839844 933.730469 266.117188 L 933.730469 266.246094 C 933.847656 277.515625 924.785156 286.65625 913.488281 286.65625 " fill-opacity="1" fill-rule="nonzero"/><path fill="#000000" d="M 913.472656 246.707031 L 913.878906 285.644531 C 918.933594 285.550781 923.648438 283.535156 927.191406 279.953125 C 930.816406 276.292969 932.78125 271.425781 932.726562 266.253906 L 932.726562 266.125 C 932.617188 255.550781 924.015625 246.925781 913.472656 246.707031 Z M 913.492188 287.65625 L 912.886719 287.65625 C 912.335938 287.65625 911.890625 287.210938 911.886719 286.664062 L 911.457031 245.710938 C 911.457031 245.441406 911.558594 245.183594 911.746094 244.992188 C 911.933594 244.804688 912.191406 244.699219 912.457031 244.699219 L 913.0625 244.699219 C 924.890625 244.699219 934.609375 254.296875 934.734375 266.101562 L 934.734375 266.230469 C 934.792969 271.945312 932.621094 277.320312 928.617188 281.363281 C 924.605469 285.421875 919.230469 287.65625 913.492188 287.65625 " fill-opacity="1" fill-rule="nonzero"/><path fill="#ffffff" d="M 919.292969 264.488281 C 918.828125 220.480469 873.902344 174.960938 819.0625 174.960938 C 764.226562 174.960938 720.253906 220.480469 720.710938 264.488281 C 721.171875 308.492188 765.894531 334.320312 820.730469 334.320312 C 875.5625 334.320312 919.75 308.492188 919.292969 264.488281 " fill-opacity="1" fill-rule="nonzero"/><path fill="#000000" d="M 819.0625 175.964844 C 792.625 175.964844 766.566406 186.980469 747.554688 206.1875 C 730.921875 222.996094 721.503906 244.242188 721.714844 264.476562 C 721.929688 285.105469 732.015625 302.597656 750.882812 315.070312 C 768.6875 326.832031 793.496094 333.316406 820.730469 333.316406 C 854.742188 333.316406 884.160156 323.300781 901.441406 305.839844 C 912.785156 294.378906 918.453125 280.46875 918.289062 264.5 C 917.847656 222.707031 875.324219 175.964844 819.0625 175.964844 Z M 820.730469 335.320312 C 793.105469 335.320312 767.90625 328.726562 749.777344 316.742188 C 730.332031 303.886719 719.933594 285.824219 719.710938 264.5 C 719.492188 243.730469 729.125 221.964844 746.132812 204.777344 C 765.515625 185.191406 792.097656 173.957031 819.0625 173.957031 C 845.195312 173.957031 870.472656 184.089844 890.25 202.488281 C 909.113281 220.035156 920.0625 242.628906 920.289062 264.476562 C 920.457031 280.769531 914.4375 295.5625 902.867188 307.25 C 885.210938 325.089844 855.269531 335.320312 820.730469 335.320312 " fill-opacity="1" fill-rule="nonzero"/><path fill="#ffffff" d="M 795.996094 347.542969 L 845.738281 347.542969 C 867.535156 347.542969 885.394531 365.175781 885.625 386.929688 C 885.773438 401.300781 884.519531 415.636719 881.875 429.738281 L 875.105469 465.875 C 870.371094 491.132812 848.359375 509.339844 822.5625 509.339844 C 796.761719 509.339844 774.371094 491.132812 769.109375 465.875 L 761.578125 429.738281 C 758.644531 415.636719 757.085938 401.300781 756.9375 386.929688 C 756.710938 365.175781 774.199219 347.542969 795.996094 347.542969 " fill-opacity="1" fill-rule="nonzero"/><path fill="#000000" d="M 796 348.542969 C 785.710938 348.542969 776.078125 352.542969 768.890625 359.8125 C 761.722656 367.054688 757.832031 376.683594 757.9375 386.921875 C 758.089844 401.191406 759.640625 415.53125 762.5625 429.53125 L 770.089844 465.671875 C 775.238281 490.394531 797.3125 508.335938 822.558594 508.335938 C 847.804688 508.335938 869.488281 490.402344 874.117188 465.691406 L 880.890625 429.550781 C 883.519531 415.550781 884.773438 401.210938 884.621094 386.941406 C 884.398438 365.769531 866.953125 348.542969 845.738281 348.542969 Z M 822.558594 510.339844 C 796.367188 510.339844 773.472656 491.726562 768.128906 466.082031 L 760.601562 429.941406 C 757.65625 415.8125 756.085938 401.34375 755.9375 386.941406 C 755.824219 376.164062 759.917969 366.027344 767.464844 358.398438 C 775.039062 350.75 785.171875 346.539062 796 346.539062 L 845.738281 346.539062 C 868.050781 346.539062 886.390625 364.65625 886.621094 386.921875 C 886.777344 401.320312 885.507812 415.792969 882.863281 429.921875 L 876.089844 466.0625 C 871.28125 491.714844 848.765625 510.339844 822.558594 510.339844 " fill-opacity="1" fill-rule="nonzero"/><path fill="#000000" d="M 847.941406 348.542969 L 793.792969 348.542969 C 793.242188 348.542969 792.792969 348.09375 792.792969 347.539062 C 792.792969 346.984375 793.242188 346.539062 793.792969 346.539062 L 847.941406 346.539062 C 848.496094 346.539062 848.945312 346.984375 848.945312 347.539062 C 848.945312 348.09375 848.496094 348.542969 847.941406 348.542969 " fill-opacity="1" fill-rule="nonzero"/><path fill="#000000" d="M 753.109375 251.28125 L 848.71875 251.28125 C 858.648438 251.28125 866.796875 259.9375 866.90625 270.617188 L 867.039062 283.234375 C 867.125 291.382812 862.859375 300.011719 855.355469 301.417969 C 828.914062 306.386719 774.070312 306.386719 747.519531 301.417969 C 739.992188 300.011719 735.542969 291.382812 735.460938 283.234375 L 735.324219 270.617188 C 735.214844 259.9375 743.175781 251.28125 753.109375 251.28125 " fill-opacity="1" fill-rule="nonzero"/><path fill="#5479f7" d="M 823.644531 276.671875 C 823.683594 280.25 826.414062 283.148438 829.742188 283.148438 C 833.066406 283.148438 835.734375 280.25 835.699219 276.671875 C 835.65625 273.09375 832.933594 270.191406 829.605469 270.191406 C 826.277344 270.191406 823.605469 273.09375 823.644531 276.671875 " fill-opacity="1" fill-rule="nonzero"/><path fill="#5479f7" d="M 759.542969 276.671875 C 759.578125 280.25 762.308594 283.148438 765.636719 283.148438 C 768.960938 283.148438 771.628906 280.25 771.589844 276.671875 C 771.554688 273.09375 768.828125 270.191406 765.5 270.191406 C 762.167969 270.191406 759.503906 273.09375 759.542969 276.671875 " fill-opacity="1" fill-rule="nonzero"/><path fill="#5479f7" d="M 818.445312 444.804688 C 808.714844 444.804688 800.75 436.898438 800.652344 427.148438 L 800.316406 394.777344 C 800.210938 385.023438 808.011719 377.121094 817.738281 377.121094 C 827.464844 377.121094 835.429688 385.023438 835.527344 394.777344 L 835.867188 427.148438 C 835.96875 436.898438 828.167969 444.804688 818.445312 444.804688 " fill-opacity="1" fill-rule="nonzero"/><path fill="#5479f7" d="M 821.285156 453.503906 L 817.707031 453.503906 C 803.886719 453.503906 792.523438 442.230469 792.375 428.371094 L 792.050781 396.796875 C 792.042969 396.242188 792.488281 395.792969 793.042969 395.785156 C 793.046875 395.785156 793.046875 395.785156 793.050781 395.785156 C 793.601562 395.785156 794.046875 396.226562 794.054688 396.777344 L 794.382812 428.347656 C 794.515625 441.113281 804.980469 451.5 817.707031 451.5 L 821.285156 451.5 C 827.046875 451.5 832.441406 449.253906 836.476562 445.175781 C 840.527344 441.082031 842.726562 435.628906 842.667969 429.832031 L 842.320312 396.265625 C 842.3125 395.710938 842.753906 395.257812 843.308594 395.253906 C 843.898438 395.238281 844.316406 395.691406 844.324219 396.246094 L 844.671875 429.808594 C 844.738281 436.152344 842.335938 442.105469 837.898438 446.585938 C 833.488281 451.046875 827.585938 453.503906 821.285156 453.503906 " fill-opacity="1" fill-rule="nonzero"/><path fill="#5479f7" d="M 837.765625 468.832031 L 800.105469 468.832031 C 798.347656 468.832031 796.910156 467.40625 796.890625 465.644531 C 796.875 463.882812 798.28125 462.457031 800.039062 462.457031 L 837.703125 462.457031 C 839.457031 462.457031 840.894531 463.882812 840.914062 465.644531 C 840.933594 467.40625 839.523438 468.832031 837.765625 468.832031 " fill-opacity="1" fill-rule="nonzero"/><path fill="#5479f7" d="M 821.136719 468.589844 L 816.246094 468.589844 L 815.976562 442.839844 L 820.867188 442.839844 L 821.136719 468.589844 " fill-opacity="1" fill-rule="nonzero"/><path fill="#5479f7" d="M 916.445312 384.261719 C 914.34375 384.191406 912.644531 385.773438 912.648438 387.800781 L 912.6875 434.828125 C 912.691406 436.855469 914.390625 438.550781 916.488281 438.625 C 918.585938 438.695312 920.285156 437.113281 920.285156 435.085938 L 920.242188 388.058594 C 920.238281 386.03125 918.542969 384.335938 916.445312 384.261719 " fill-opacity="1" fill-rule="nonzero"/><path fill="#5479f7" d="M 933.59375 369.136719 C 931.496094 369.066406 929.800781 370.652344 929.800781 372.675781 L 929.871094 451.113281 C 929.871094 453.140625 931.570312 454.839844 933.671875 454.910156 C 935.765625 454.980469 937.464844 453.394531 937.464844 451.371094 L 937.394531 372.933594 C 937.394531 370.90625 935.691406 369.207031 933.59375 369.136719 " fill-opacity="1" fill-rule="nonzero"/><path fill="#5479f7" d="M 950.777344 383.757812 C 948.679688 383.683594 946.980469 385.269531 946.984375 387.292969 L 947.027344 437.65625 C 947.027344 439.679688 948.730469 441.378906 950.832031 441.449219 C 952.925781 441.519531 954.625 439.933594 954.625 437.910156 L 954.578125 387.550781 C 954.578125 385.523438 952.878906 383.824219 950.777344 383.757812 " fill-opacity="1" fill-rule="nonzero"/><path fill="#5479f7" d="M 967.949219 389.597656 C 965.855469 389.53125 964.152344 391.113281 964.152344 393.136719 L 964.191406 432.972656 C 964.191406 434.992188 965.894531 436.691406 967.992188 436.761719 C 970.089844 436.835938 971.789062 435.25 971.785156 433.226562 L 971.753906 393.390625 C 971.75 391.371094 970.050781 389.667969 967.949219 389.597656 " fill-opacity="1" fill-rule="nonzero"/><path fill="#5479f7" d="M 900.589844 395.585938 C 898.496094 395.515625 896.800781 396.816406 896.820312 398.5 L 897.09375 431.5 C 897.109375 433.175781 898.820312 434.597656 900.917969 434.667969 C 903.015625 434.738281 904.707031 433.4375 904.691406 431.757812 L 904.414062 398.753906 C 904.398438 397.074219 902.6875 395.660156 900.589844 395.585938 " fill-opacity="1" fill-rule="nonzero"/><path fill="#5479f7" d="M 1015.96875 393.050781 C 1013.871094 392.980469 1012.175781 394.566406 1012.175781 396.585938 L 1012.210938 436.421875 C 1012.210938 438.445312 1013.910156 440.144531 1016.011719 440.214844 C 1018.109375 440.285156 1019.808594 438.703125 1019.804688 436.675781 L 1019.769531 396.84375 C 1019.769531 394.820312 1018.070312 393.121094 1015.96875 393.050781 " fill-opacity="1" fill-rule="nonzero"/><path fill="#5479f7" d="M 1031.082031 402.132812 C 1028.988281 402 1027.285156 402.917969 1027.277344 404.183594 L 1027.121094 429.0625 C 1027.117188 430.328125 1028.808594 431.460938 1030.902344 431.59375 C 1033 431.726562 1034.699219 430.808594 1034.710938 429.546875 L 1034.863281 404.660156 C 1034.871094 403.398438 1033.175781 402.265625 1031.082031 402.132812 " fill-opacity="1" fill-rule="nonzero"/><path fill="#5479f7" d="M 985.125 397.660156 C 983.027344 397.59375 981.328125 399.175781 981.328125 401.199219 L 981.351562 426.066406 C 981.351562 428.089844 983.058594 429.789062 985.152344 429.859375 C 987.25 429.929688 988.949219 428.347656 988.949219 426.324219 L 988.925781 401.457031 C 988.925781 399.429688 987.226562 397.730469 985.125 397.660156 " fill-opacity="1" fill-rule="nonzero"/><path fill="#5479f7" d="M 1000.945312 382.9375 C 998.851562 382.871094 997.148438 384.453125 997.148438 386.476562 L 997.195312 441.988281 C 997.199219 444.007812 998.902344 445.707031 1001 445.78125 C 1003.097656 445.851562 1004.796875 444.265625 1004.792969 442.242188 L 1004.742188 386.730469 C 1004.742188 384.707031 1003.042969 383.007812 1000.945312 382.9375 " fill-opacity="1" fill-rule="nonzero"/><path fill="#5479f7" d="M 725.195312 384.390625 C 723.101562 384.339844 721.417969 385.886719 721.441406 387.851562 L 722.058594 441.644531 C 722.085938 443.605469 723.800781 445.238281 725.898438 445.289062 C 727.996094 445.339844 729.679688 443.792969 729.652344 441.832031 L 729.03125 388.039062 C 729.011719 386.074219 727.292969 384.441406 725.195312 384.390625 " fill-opacity="1" fill-rule="nonzero"/><path fill="#5479f7" d="M 690.964844 391.136719 C 688.871094 391.085938 687.1875 392.636719 687.210938 394.597656 L 687.65625 433.199219 C 687.679688 435.160156 689.398438 436.792969 691.492188 436.84375 C 693.589844 436.894531 695.273438 435.347656 695.25 433.386719 L 694.800781 394.785156 C 694.78125 392.824219 693.0625 391.191406 690.964844 391.136719 " fill-opacity="1" fill-rule="nonzero"/><path fill="#5479f7" d="M 673.890625 397.964844 C 671.792969 397.914062 670.113281 399.460938 670.136719 401.421875 L 670.414062 425.519531 C 670.4375 427.484375 672.152344 429.117188 674.25 429.167969 C 676.347656 429.21875 678.027344 427.671875 678.003906 425.707031 L 677.726562 401.613281 C 677.703125 399.648438 675.988281 398.015625 673.890625 397.964844 " fill-opacity="1" fill-rule="nonzero"/><path fill="#5479f7" d="M 707.972656 396.625 C 705.871094 396.574219 704.191406 398.125 704.214844 400.089844 L 704.492188 424.183594 C 704.515625 426.144531 706.234375 427.78125 708.332031 427.832031 C 710.429688 427.882812 712.109375 426.335938 712.085938 424.375 L 711.808594 400.277344 C 711.785156 398.3125 710.066406 396.679688 707.972656 396.625 " fill-opacity="1" fill-rule="nonzero"/><path fill="#5479f7" d="M 741.210938 391.304688 C 739.113281 391.25 737.417969 393.339844 737.425781 395.960938 L 737.496094 428.164062 C 737.5 430.789062 739.207031 432.957031 741.300781 433.007812 C 743.398438 433.058594 745.09375 430.976562 745.085938 428.351562 L 745.015625 396.144531 C 745.011719 393.523438 743.308594 391.355469 741.210938 391.304688 " fill-opacity="1" fill-rule="nonzero"/><path fill="#99b9ff" d="M 656.558594 382.695312 C 654.464844 382.640625 652.78125 384.1875 652.804688 386.152344 L 653.425781 439.941406 C 653.445312 441.90625 655.167969 443.539062 657.261719 443.589844 C 659.359375 443.644531 661.039062 442.089844 661.019531 440.128906 L 660.398438 386.339844 C 660.375 384.378906 658.65625 382.746094 656.558594 382.695312 " fill-opacity="1" fill-rule="nonzero"/><path fill="#99b9ff" d="M 639.480469 389.378906 C 637.386719 389.324219 635.703125 390.871094 635.726562 392.835938 L 636.183594 432.40625 C 636.207031 434.371094 637.925781 436 640.019531 436.054688 C 642.117188 436.109375 643.800781 434.558594 643.777344 432.59375 L 643.320312 393.023438 C 643.296875 391.0625 641.578125 389.429688 639.480469 389.378906 " fill-opacity="1" fill-rule="nonzero"/><path fill="#99b9ff" d="M 636.265625 174.796875 L 512.625 175.039062 C 506.664062 175.050781 501.84375 179.886719 501.851562 185.851562 L 501.949219 237.019531 C 501.964844 242.980469 506.804688 247.804688 512.765625 247.792969 L 605.34375 247.617188 L 632.371094 268.289062 L 632.332031 247.566406 L 636.40625 247.558594 C 642.367188 247.546875 647.191406 242.703125 647.179688 236.742188 L 647.082031 185.570312 C 647.070312 179.609375 642.226562 174.789062 636.265625 174.796875 " fill-opacity="1" fill-rule="nonzero"/><path fill="#000000" d="M 632.070312 271.117188 C 631.84375 271.117188 631.621094 271.039062 631.4375 270.894531 L 605.234375 249.722656 L 568.078125 248.808594 C 567.523438 248.792969 567.085938 248.332031 567.101562 247.78125 C 567.113281 247.230469 567.550781 246.800781 568.128906 246.800781 L 605.625 247.726562 C 605.84375 247.730469 606.058594 247.808594 606.230469 247.949219 L 631.117188 268.054688 L 631.578125 249.371094 C 631.582031 249.101562 631.695312 248.847656 631.886719 248.667969 C 632.082031 248.484375 632.335938 248.382812 632.605469 248.390625 L 636.675781 248.492188 C 636.757812 248.496094 636.839844 248.496094 636.921875 248.496094 C 642.210938 248.496094 646.574219 244.261719 646.707031 238.945312 L 647.964844 187.789062 C 648.03125 185.171875 647.070312 182.691406 645.269531 180.792969 C 643.464844 178.902344 641.035156 177.820312 638.417969 177.757812 L 514.816406 174.71875 C 512.214844 174.636719 509.714844 175.613281 507.824219 177.410156 C 505.929688 179.214844 504.851562 181.648438 504.785156 184.265625 L 503.527344 235.417969 C 503.460938 238.035156 504.417969 240.515625 506.222656 242.414062 C 508.027344 244.308594 510.457031 245.386719 513.074219 245.449219 L 527.949219 245.8125 C 528.503906 245.828125 528.941406 246.289062 528.925781 246.84375 C 528.914062 247.394531 528.457031 247.828125 527.902344 247.820312 L 513.023438 247.453125 C 509.875 247.378906 506.945312 246.074219 504.769531 243.796875 C 502.597656 241.511719 501.445312 238.519531 501.523438 235.371094 L 502.78125 184.214844 C 502.859375 181.0625 504.160156 178.132812 506.441406 175.960938 C 508.722656 173.789062 511.707031 172.648438 514.863281 172.710938 L 638.46875 175.753906 C 641.617188 175.832031 644.546875 177.132812 646.71875 179.414062 C 648.894531 181.695312 650.046875 184.6875 649.96875 187.835938 L 648.710938 238.992188 C 648.554688 245.398438 643.292969 250.496094 636.921875 250.496094 C 636.824219 250.496094 636.726562 250.496094 636.628906 250.492188 L 633.554688 250.417969 L 633.070312 270.136719 C 633.0625 270.519531 632.835938 270.863281 632.492188 271.023438 C 632.355469 271.085938 632.210938 271.117188 632.070312 271.117188 " fill-opacity="1" fill-rule="nonzero"/><path fill="#000000" d="M 557.066406 248.597656 C 557.058594 248.597656 557.046875 248.597656 557.035156 248.597656 L 545.261719 248.246094 C 544.707031 248.230469 544.273438 247.765625 544.289062 247.210938 C 544.304688 246.660156 544.78125 246.207031 545.320312 246.242188 L 557.097656 246.59375 C 557.648438 246.609375 558.085938 247.070312 558.070312 247.625 C 558.054688 248.167969 557.605469 248.597656 557.066406 248.597656 " fill-opacity="1" fill-rule="nonzero"/><path fill="#5479f7" d="M 569.589844 200.648438 C 569.582031 200.648438 569.574219 200.648438 569.5625 200.648438 L 521.492188 199.46875 C 520.9375 199.453125 520.5 198.992188 520.515625 198.4375 C 520.527344 197.886719 520.960938 197.441406 521.542969 197.460938 L 569.613281 198.644531 C 570.167969 198.65625 570.605469 199.117188 570.589844 199.671875 C 570.578125 200.21875 570.132812 200.648438 569.589844 200.648438 " fill-opacity="1" fill-rule="nonzero"/><path fill="#5479f7" d="M 629.570312 202.140625 C 629.5625 202.140625 629.554688 202.140625 629.542969 202.140625 L 578.609375 200.886719 C 578.058594 200.871094 577.621094 200.414062 577.632812 199.859375 C 577.648438 199.316406 578.09375 198.882812 578.636719 198.882812 C 578.644531 198.882812 578.652344 198.882812 578.660156 198.882812 L 629.59375 200.132812 C 630.148438 200.148438 630.585938 200.609375 630.570312 201.160156 C 630.558594 201.707031 630.109375 202.140625 629.570312 202.140625 " fill-opacity="1" fill-rule="nonzero"/><path fill="#5479f7" d="M 591.949219 225.191406 C 591.941406 225.191406 591.933594 225.191406 591.921875 225.1875 L 521.488281 223.378906 C 520.933594 223.367188 520.496094 222.90625 520.511719 222.351562 C 520.527344 221.808594 520.972656 221.375 521.515625 221.375 C 521.523438 221.375 521.53125 221.375 521.539062 221.375 L 591.976562 223.1875 C 592.527344 223.199219 592.964844 223.660156 592.953125 224.214844 C 592.9375 224.757812 592.492188 225.191406 591.949219 225.191406 " fill-opacity="1" fill-rule="nonzero"/><path fill="#5479f7" d="M 629.566406 226.054688 C 629.558594 226.054688 629.550781 226.054688 629.542969 226.054688 L 600.972656 225.429688 C 600.417969 225.417969 599.980469 224.957031 599.992188 224.402344 C 600.003906 223.855469 600.464844 223.429688 601.015625 223.425781 L 629.585938 224.054688 C 630.140625 224.0625 630.578125 224.523438 630.566406 225.074219 C 630.554688 225.621094 630.109375 226.054688 629.566406 226.054688 " fill-opacity="1" fill-rule="nonzero"/><path fill="#5479f7" d="M 550.796875 212.019531 C 550.789062 212.019531 550.78125 212.019531 550.773438 212.019531 L 521.496094 211.425781 C 520.941406 211.414062 520.5 210.953125 520.511719 210.40625 C 520.523438 209.851562 520.980469 209.421875 521.535156 209.421875 L 550.816406 210.011719 C 551.367188 210.023438 551.808594 210.480469 551.796875 211.035156 C 551.785156 211.582031 551.339844 212.019531 550.796875 212.019531 " fill-opacity="1" fill-rule="nonzero"/><path fill="#5479f7" d="M 629.570312 214.09375 C 629.558594 214.09375 629.550781 214.09375 629.542969 214.09375 L 559.816406 212.25 C 559.261719 212.234375 558.824219 211.773438 558.839844 211.21875 C 558.855469 210.664062 559.339844 210.214844 559.871094 210.242188 L 629.59375 212.089844 C 630.148438 212.101562 630.585938 212.566406 630.570312 213.121094 C 630.554688 213.664062 630.109375 214.09375 629.570312 214.09375 " fill-opacity="1" fill-rule="nonzero"/><path fill="#5479f7" d="M 671.292969 619.414062 C 671.292969 619.414062 642.847656 557.070312 659.164062 476.25 C 659.164062 476.25 703.25 513.191406 687.355469 619.414062 L 671.292969 619.414062 " fill-opacity="1" fill-rule="nonzero"/><path fill="#ffffff" d="M 678.25 613.914062 C 678.230469 613.914062 678.210938 613.914062 678.191406 613.914062 C 677.640625 613.886719 677.214844 613.410156 677.246094 612.859375 C 679.421875 573.023438 661.453125 487.964844 661.273438 487.113281 C 661.15625 486.574219 661.503906 486.039062 662.042969 485.925781 C 662.585938 485.808594 663.117188 486.15625 663.234375 486.695312 C 663.414062 487.554688 681.4375 572.867188 679.25 612.96875 C 679.21875 613.503906 678.777344 613.914062 678.25 613.914062 " fill-opacity="1" fill-rule="nonzero"/><path fill="#caddff" d="M 699.90625 518.054688 C 699.90625 518.054688 663.257812 584.261719 685.304688 612.914062 L 697.09375 612.914062 C 697.09375 612.914062 720.664062 561.160156 699.90625 518.054688 " fill-opacity="1" fill-rule="nonzero"/><path fill="#ffffff" d="M 690.808594 615.671875 C 690.273438 615.671875 689.828125 615.246094 689.808594 614.707031 C 688.746094 587.363281 698.8125 518.601562 698.914062 517.910156 C 698.996094 517.359375 699.503906 516.984375 700.054688 517.0625 C 700.597656 517.144531 700.976562 517.652344 700.898438 518.203125 C 700.796875 518.890625 690.757812 587.46875 691.8125 614.628906 C 691.835938 615.179688 691.402344 615.648438 690.851562 615.667969 C 690.835938 615.671875 690.824219 615.671875 690.808594 615.671875 " fill-opacity="1" fill-rule="nonzero"/><path fill="#99b9ff" d="M 629.9375 542.738281 C 629.9375 542.738281 661.15625 553.390625 672.460938 616.445312 L 660.183594 616.445312 C 660.183594 616.445312 634.554688 581.8125 629.9375 542.738281 " fill-opacity="1" fill-rule="nonzero"/><path fill="#caddff" d="M 665.75 615.671875 C 665.269531 615.671875 664.84375 615.324219 664.761719 614.832031 C 660.121094 586.789062 640.039062 558.546875 639.835938 558.261719 C 639.511719 557.8125 639.613281 557.1875 640.0625 556.863281 C 640.515625 556.542969 641.140625 556.644531 641.460938 557.09375 C 641.667969 557.378906 662.023438 586.003906 666.738281 614.503906 C 666.828125 615.050781 666.460938 615.566406 665.914062 615.65625 C 665.859375 615.664062 665.804688 615.671875 665.75 615.671875 " fill-opacity="1" fill-rule="nonzero"/><path fill="#ffffff" d="M 641.980469 611.441406 L 719.003906 611.441406 L 720.730469 647.871094 C 721.15625 656.800781 714.027344 664.273438 705.085938 664.273438 L 661.09375 664.273438 C 650.515625 664.273438 641.941406 655.691406 641.949219 645.109375 L 641.980469 611.441406 " fill-opacity="1" fill-rule="nonzero"/><path fill="#5479f7" d="M 642.984375 612.441406 L 642.953125 645.113281 C 642.949219 649.960938 644.832031 654.523438 648.261719 657.949219 C 651.6875 661.382812 656.246094 663.273438 661.09375 663.273438 L 705.085938 663.273438 C 709.132812 663.273438 712.902344 661.660156 715.695312 658.730469 C 718.488281 655.800781 719.921875 651.960938 719.730469 647.914062 L 718.046875 612.441406 Z M 705.085938 665.277344 L 661.09375 665.277344 C 655.710938 665.277344 650.648438 663.179688 646.84375 659.367188 C 643.035156 655.558594 640.945312 650.496094 640.949219 645.109375 L 640.980469 611.4375 C 640.980469 610.886719 641.429688 610.4375 641.980469 610.4375 L 719.003906 610.4375 C 719.539062 610.4375 719.980469 610.855469 720.003906 611.394531 L 721.734375 647.820312 C 721.953125 652.417969 720.320312 656.78125 717.144531 660.113281 C 713.972656 663.441406 709.683594 665.277344 705.085938 665.277344 " fill-opacity="1" fill-rule="nonzero"/><path fill="#caddff" d="M 1010.730469 621.859375 L 828.335938 621.859375 C 823.628906 621.859375 819.773438 618.007812 819.773438 613.304688 L 819.773438 541.441406 C 819.773438 536.734375 823.628906 532.882812 828.335938 532.882812 L 871.207031 532.882812 C 871.777344 532.882812 872.246094 532.433594 872.269531 531.863281 L 878.34375 508.636719 L 900.972656 532.640625 C 901.160156 532.800781 901.402344 532.882812 901.652344 532.882812 L 1010.730469 532.882812 C 1015.4375 532.882812 1019.285156 536.734375 1019.285156 541.441406 L 1019.285156 613.304688 C 1019.285156 618.007812 1015.4375 621.859375 1010.730469 621.859375 " fill-opacity="1" fill-rule="nonzero"/><path fill="#5479f7" d="M 998.859375 563.234375 L 955.152344 563.234375 C 954.601562 563.234375 954.152344 562.785156 954.152344 562.230469 C 954.152344 561.679688 954.601562 561.230469 955.152344 561.230469 L 998.859375 561.230469 C 999.414062 561.230469 999.859375 561.679688 999.859375 562.230469 C 999.859375 562.785156 999.414062 563.234375 998.859375 563.234375 " fill-opacity="1" fill-rule="nonzero"/><path fill="#5479f7" d="M 936.417969 563.234375 L 840.097656 563.234375 C 839.546875 563.234375 839.097656 562.785156 839.097656 562.230469 C 839.097656 561.679688 839.546875 561.230469 840.097656 561.230469 L 936.417969 561.230469 C 936.972656 561.230469 937.421875 561.679688 937.421875 562.230469 C 937.421875 562.785156 936.972656 563.234375 936.417969 563.234375 " fill-opacity="1" fill-rule="nonzero"/><path fill="#5479f7" d="M 998.859375 582.59375 L 898.953125 582.59375 C 898.398438 582.59375 897.949219 582.144531 897.949219 581.589844 C 897.949219 581.039062 898.398438 580.585938 898.953125 580.585938 L 998.859375 580.585938 C 999.414062 580.585938 999.859375 581.039062 999.859375 581.589844 C 999.859375 582.144531 999.414062 582.59375 998.859375 582.59375 " fill-opacity="1" fill-rule="nonzero"/><path fill="#5479f7" d="M 879.59375 582.59375 L 840.097656 582.59375 C 839.542969 582.59375 839.097656 582.144531 839.097656 581.589844 C 839.097656 581.039062 839.542969 580.585938 840.097656 580.585938 L 879.59375 580.585938 C 880.148438 580.585938 880.59375 581.039062 880.59375 581.589844 C 880.59375 582.144531 880.148438 582.59375 879.59375 582.59375 " fill-opacity="1" fill-rule="nonzero"/><path fill="#5479f7" d="M 998.859375 599.453125 L 937.746094 599.453125 C 937.191406 599.453125 936.742188 599.003906 936.742188 598.449219 C 936.742188 597.898438 937.191406 597.445312 937.746094 597.445312 L 998.859375 597.445312 C 999.414062 597.445312 999.859375 597.898438 999.859375 598.449219 C 999.859375 599.003906 999.414062 599.453125 998.859375 599.453125 " fill-opacity="1" fill-rule="nonzero"/><path fill="#5479f7" d="M 918.265625 599.453125 L 840.097656 599.453125 C 839.542969 599.453125 839.09375 599.003906 839.09375 598.449219 C 839.09375 597.898438 839.542969 597.449219 840.097656 597.449219 L 918.265625 597.449219 C 918.820312 597.449219 919.269531 597.898438 919.269531 598.449219 C 919.269531 599.003906 918.820312 599.453125 918.265625 599.453125 " fill-opacity="1" fill-rule="nonzero"/><path fill="#000000" d="M 1011.035156 624.273438 C 1011.015625 624.273438 1010.992188 624.273438 1010.964844 624.273438 L 826.449219 622.769531 C 824.191406 622.753906 822.066406 621.847656 820.472656 620.226562 C 818.875 618.601562 818.007812 616.464844 818.027344 614.207031 L 818.625 540.21875 C 818.667969 535.558594 822.472656 531.792969 827.125 531.792969 C 827.148438 531.792969 827.171875 531.792969 827.195312 531.792969 L 865.863281 532.105469 L 871.628906 532.457031 L 877.367188 508.40625 C 877.453125 508.046875 877.734375 507.761719 878.089844 507.667969 C 878.445312 507.574219 878.828125 507.683594 879.078125 507.957031 L 901.621094 532.398438 L 936.425781 532.679688 C 936.980469 532.6875 937.421875 533.140625 937.417969 533.691406 C 937.414062 534.246094 936.972656 534.722656 936.410156 534.6875 L 901.171875 534.398438 C 900.894531 534.398438 900.632812 534.28125 900.445312 534.078125 L 878.882812 510.703125 L 873.386719 533.742188 C 873.273438 534.21875 872.828125 534.535156 872.351562 534.511719 L 865.792969 534.113281 L 827.179688 533.796875 C 823.605469 533.746094 820.660156 536.65625 820.632812 540.234375 L 820.03125 614.222656 C 820.015625 615.945312 820.675781 617.578125 821.898438 618.820312 C 823.121094 620.058594 824.746094 620.75 826.46875 620.765625 L 1010.984375 622.269531 C 1011 622.269531 1011.019531 622.269531 1011.035156 622.269531 C 1014.589844 622.269531 1017.5 619.394531 1017.527344 615.832031 L 1018.136719 541.847656 C 1018.164062 538.265625 1015.273438 535.332031 1011.695312 535.300781 L 945.15625 534.757812 C 944.601562 534.757812 944.15625 534.300781 944.160156 533.746094 C 944.164062 533.195312 944.644531 532.761719 945.171875 532.753906 L 1011.710938 533.296875 C 1016.394531 533.335938 1020.175781 537.179688 1020.140625 541.859375 L 1019.53125 615.851562 C 1019.496094 620.507812 1015.6875 624.273438 1011.035156 624.273438 " fill-opacity="1" fill-rule="nonzero"/><path fill="#ffffff" d="M 559.121094 628.628906 L 560.710938 643.773438 L 570.953125 644.976562 L 570.953125 627.015625 L 559.121094 628.628906 " fill-opacity="1" fill-rule="nonzero"/><path fill="#000000" d="M 561.625 642.875 L 569.953125 643.851562 L 569.953125 628.164062 L 560.21875 629.488281 Z M 570.953125 645.980469 C 570.914062 645.980469 570.875 645.976562 570.835938 645.972656 L 560.59375 644.769531 C 560.128906 644.71875 559.761719 644.347656 559.714844 643.878906 L 558.121094 628.730469 C 558.066406 628.195312 558.449219 627.707031 558.984375 627.632812 L 570.820312 626.023438 C 571.105469 625.984375 571.394531 626.066406 571.613281 626.257812 C 571.832031 626.449219 571.957031 626.726562 571.957031 627.015625 L 571.957031 644.976562 C 571.957031 645.265625 571.832031 645.535156 571.621094 645.726562 C 571.433594 645.890625 571.199219 645.980469 570.953125 645.980469 " fill-opacity="1" fill-rule="nonzero"/><path fill="#5479f7" d="M 572.566406 671.347656 C 568.296875 671.953125 561.296875 672.476562 553.078125 671.34375 C 550.386719 670.96875 548.601562 668.355469 549.25 665.714844 C 551.058594 658.359375 554.175781 644.410156 559.53125 637.945312 L 560.859375 641.453125 L 562.695312 638.152344 C 562.945312 637.695312 563.398438 637.390625 563.910156 637.328125 L 567.933594 636.816406 C 568.773438 636.714844 569.554688 637.265625 569.726562 638.097656 L 570.367188 641.136719 L 571.769531 637.144531 L 576.449219 666.222656 C 576.773438 668.707031 575.050781 671 572.566406 671.347656 " fill-opacity="1" fill-rule="nonzero"/><path fill="#000000" d="M 559.238281 640.011719 C 555.011719 646.28125 552.289062 657.46875 550.613281 664.363281 L 550.222656 665.953125 C 549.980469 666.949219 550.160156 667.960938 550.734375 668.808594 C 551.304688 669.648438 552.207031 670.210938 553.21875 670.347656 C 561.246094 671.460938 568.097656 670.96875 572.425781 670.355469 C 574.351562 670.085938 575.710938 668.289062 575.453125 666.355469 L 571.40625 641.199219 L 571.3125 641.472656 C 571.164062 641.894531 570.746094 642.167969 570.300781 642.140625 C 569.855469 642.109375 569.480469 641.785156 569.386719 641.34375 L 568.746094 638.304688 C 568.679688 637.988281 568.375 637.773438 568.058594 637.8125 L 564.039062 638.320312 C 563.839844 638.347656 563.667969 638.464844 563.570312 638.640625 L 561.734375 641.9375 C 561.542969 642.28125 561.171875 642.480469 560.785156 642.453125 C 560.398438 642.425781 560.058594 642.171875 559.921875 641.808594 Z M 562.882812 673.015625 C 559.871094 673.015625 556.519531 672.828125 552.941406 672.332031 C 551.371094 672.117188 549.964844 671.242188 549.074219 669.929688 C 548.191406 668.628906 547.898438 667.007812 548.277344 665.476562 L 548.664062 663.890625 C 550.519531 656.265625 553.621094 643.507812 558.757812 637.308594 C 558.984375 637.03125 559.339844 636.898438 559.691406 636.957031 C 560.046875 637.015625 560.339844 637.257812 560.464844 637.589844 L 561.03125 639.082031 L 561.816406 637.664062 C 562.222656 636.9375 562.957031 636.4375 563.785156 636.335938 L 567.804688 635.820312 C 569.011719 635.667969 570.160156 636.378906 570.585938 637.484375 L 570.824219 636.8125 C 570.976562 636.378906 571.410156 636.105469 571.859375 636.144531 C 572.316406 636.1875 572.6875 636.535156 572.761719 636.984375 L 577.4375 666.0625 C 577.839844 669.113281 575.714844 671.917969 572.707031 672.339844 C 570.179688 672.695312 566.820312 673.015625 562.882812 673.015625 " fill-opacity="1" fill-rule="nonzero"/><path fill="#000000" d="M 560.699219 668.136719 C 557.9375 668.136719 554.953125 667.894531 551.976562 667.21875 C 551.4375 667.09375 551.097656 666.558594 551.222656 666.019531 C 551.34375 665.480469 551.882812 665.144531 552.421875 665.261719 C 562.363281 667.53125 572.761719 664.617188 572.863281 664.585938 C 573.394531 664.433594 573.953125 664.742188 574.105469 665.273438 C 574.257812 665.808594 573.949219 666.359375 573.417969 666.511719 C 573.097656 666.601562 567.613281 668.136719 560.699219 668.136719 " fill-opacity="1" fill-rule="nonzero"/><path fill="#000000" d="M 558.253906 656.875 C 557.714844 656.875 557.269531 656.449219 557.253906 655.90625 C 557.234375 655.351562 557.667969 654.890625 558.222656 654.871094 L 567.824219 654.554688 C 568.367188 654.511719 568.839844 654.972656 568.859375 655.523438 C 568.878906 656.074219 568.445312 656.539062 567.890625 656.558594 L 558.289062 656.875 C 558.277344 656.875 558.265625 656.875 558.253906 656.875 " fill-opacity="1" fill-rule="nonzero"/><path fill="#ffffff" d="M 607.101562 620.5625 L 608.636719 642.667969 L 620.960938 642.667969 L 621.535156 620.5625 L 607.101562 620.5625 " fill-opacity="1" fill-rule="nonzero"/><path fill="#000000" d="M 609.570312 641.667969 L 619.984375 641.667969 L 620.507812 621.566406 L 608.175781 621.566406 Z M 620.960938 643.671875 L 608.636719 643.671875 C 608.109375 643.671875 607.671875 643.261719 607.636719 642.738281 L 606.101562 620.628906 C 606.082031 620.355469 606.179688 620.082031 606.367188 619.878906 C 606.558594 619.675781 606.824219 619.558594 607.101562 619.558594 L 621.535156 619.558594 C 621.804688 619.558594 622.066406 619.667969 622.253906 619.863281 C 622.441406 620.058594 622.542969 620.316406 622.539062 620.585938 L 621.964844 642.695312 C 621.949219 643.238281 621.503906 643.671875 620.960938 643.671875 " fill-opacity="1" fill-rule="nonzero"/><path fill="#5479f7" d="M 605.414062 655.148438 C 605.386719 657.238281 606.8125 659.074219 608.851562 659.550781 C 615.9375 661.199219 631.898438 664.871094 636.453125 665.550781 C 642.363281 666.429688 649.628906 664.621094 652.75 661.160156 C 655.871094 657.707031 645.757812 649.453125 640.957031 646.449219 C 633.824219 641.988281 626.976562 633.171875 624.101562 632.777344 C 621.230469 632.378906 615.867188 640.714844 615.867188 640.714844 L 607.101562 637.03125 C 607.101562 637.03125 605.574219 644.539062 605.414062 655.148438 " fill-opacity="1" fill-rule="nonzero"/><path fill="#000000" d="M 606.417969 655.164062 C 606.394531 656.777344 607.511719 658.207031 609.078125 658.574219 C 615.84375 660.144531 632.066406 663.882812 636.601562 664.558594 C 642.304688 665.40625 649.214844 663.582031 652.007812 660.488281 C 652.183594 660.296875 652.40625 659.957031 652.3125 659.296875 C 651.855469 656.035156 645.117188 650.234375 640.425781 647.300781 C 636.785156 645.023438 633.320312 641.738281 630.265625 638.839844 C 627.71875 636.421875 625.085938 633.921875 623.964844 633.769531 C 622.613281 633.5625 619.132812 637.492188 616.710938 641.253906 C 616.445312 641.664062 615.925781 641.824219 615.476562 641.636719 L 607.867188 638.4375 C 607.441406 640.960938 606.535156 647.210938 606.417969 655.164062 Z M 639.527344 666.773438 C 638.4375 666.773438 637.359375 666.695312 636.308594 666.539062 C 631.867188 665.878906 617.054688 662.488281 608.625 660.523438 C 606.144531 659.949219 604.375 657.679688 604.414062 655.132812 C 604.570312 644.554688 606.101562 636.90625 606.117188 636.832031 C 606.179688 636.535156 606.367188 636.285156 606.632812 636.144531 C 606.898438 636.003906 607.210938 635.988281 607.488281 636.105469 L 615.484375 639.464844 C 617.222656 636.878906 621.289062 631.378906 624.238281 631.78125 C 625.917969 632.015625 628.039062 633.960938 631.644531 637.382812 C 634.632812 640.21875 638.019531 643.429688 641.488281 645.601562 C 644.597656 647.546875 653.625 654.183594 654.300781 659.019531 C 654.449219 660.109375 654.171875 661.082031 653.492188 661.832031 C 650.78125 664.835938 645.066406 666.773438 639.527344 666.773438 " fill-opacity="1" fill-rule="nonzero"/><path fill="#000000" d="M 639.425781 662.703125 C 626.480469 662.703125 609.234375 655.734375 608.257812 655.335938 C 607.746094 655.125 607.5 654.542969 607.707031 654.027344 C 607.917969 653.515625 608.503906 653.273438 609.015625 653.480469 C 609.328125 653.609375 640.300781 666.125 649.292969 658.003906 C 649.703125 657.632812 650.335938 657.664062 650.707031 658.074219 C 651.078125 658.488281 651.042969 659.121094 650.632812 659.488281 C 648.042969 661.828125 644.003906 662.703125 639.425781 662.703125 " fill-opacity="1" fill-rule="nonzero"/><path fill="#000000" d="M 625.761719 649.324219 C 625.488281 649.324219 625.214844 649.214844 625.015625 648.992188 C 624.644531 648.585938 624.675781 647.949219 625.089844 647.578125 L 631.359375 641.925781 C 631.769531 641.550781 632.402344 641.585938 632.773438 641.996094 C 633.144531 642.410156 633.113281 643.042969 632.699219 643.410156 L 626.433594 649.070312 C 626.242188 649.242188 626 649.324219 625.761719 649.324219 " fill-opacity="1" fill-rule="nonzero"/><path fill="#000000" d="M 555.625 476.441406 C 555.625 476.441406 551.804688 545.550781 549.804688 569.410156 C 547.808594 593.265625 554.480469 631.617188 554.480469 631.617188 L 573.507812 630.613281 C 573.507812 630.613281 574.8125 583.988281 576.222656 571.039062 C 576.222656 571.039062 584.261719 553.484375 586.644531 537.828125 C 589.023438 522.175781 597.140625 497.449219 597.140625 497.449219 C 597.140625 497.449219 603.726562 620.871094 604.363281 630.566406 C 604.363281 630.566406 619.285156 631.230469 624.632812 627.867188 C 624.632812 627.867188 634.109375 582.863281 632.75 558.375 C 631.390625 533.894531 632.882812 473.054688 632.882812 473.054688 L 555.625 476.441406 " fill-opacity="1" fill-rule="nonzero"/><path fill="#ffffff" d="M 572.722656 572.039062 L 566.90625 572.039062 C 566.351562 572.039062 565.902344 571.589844 565.902344 571.035156 C 565.902344 570.480469 566.351562 570.035156 566.90625 570.035156 L 572.722656 570.035156 C 573.273438 570.035156 573.722656 570.480469 573.722656 571.035156 C 573.722656 571.589844 573.273438 572.039062 572.722656 572.039062 " fill-opacity="1" fill-rule="nonzero"/><path fill="#ffffff" d="M 614.148438 607.933594 C 614.144531 607.933594 614.136719 607.933594 614.132812 607.933594 C 613.578125 607.921875 613.136719 607.464844 613.148438 606.914062 C 613.359375 595.390625 625.9375 574.84375 626.472656 573.972656 C 626.765625 573.5 627.382812 573.355469 627.855469 573.644531 C 628.324219 573.933594 628.472656 574.550781 628.183594 575.023438 C 628.054688 575.234375 615.351562 595.976562 615.152344 606.949219 C 615.140625 607.5 614.695312 607.933594 614.148438 607.933594 " fill-opacity="1" fill-rule="nonzero"/><path fill="#ffffff" d="M 638.90625 365.914062 C 640.289062 365.804688 647.089844 379.726562 668.367188 379.144531 C 689.640625 378.558594 706.710938 354.753906 706.710938 354.753906 C 706.710938 354.753906 714.058594 342.363281 719.636719 337.886719 C 725.214844 333.40625 726.089844 332.816406 726.089844 332.816406 C 726.089844 332.816406 727.835938 335.144531 726.089844 337.886719 C 724.339844 340.625 719.515625 345.753906 719.515625 345.753906 C 719.515625 345.753906 724.828125 348.671875 722.433594 354.753906 C 719.675781 361.746094 711.898438 361.183594 711.898438 361.183594 C 711.898438 361.183594 696.125 431.019531 630.929688 397.835938 L 638.90625 365.914062 " fill-opacity="1" fill-rule="nonzero"/><path fill="#000000" d="M 632.097656 397.300781 C 650.976562 406.746094 667.421875 408.304688 680.988281 401.9375 C 703.855469 391.203125 710.855469 361.265625 710.921875 360.964844 C 711.035156 360.480469 711.476562 360.144531 711.972656 360.1875 C 712.257812 360.207031 719.054688 360.59375 721.5 354.386719 C 723.535156 349.226562 719.210938 346.734375 719.027344 346.628906 C 718.757812 346.480469 718.570312 346.214844 718.523438 345.90625 C 718.476562 345.601562 718.570312 345.292969 718.785156 345.066406 C 718.828125 345.015625 723.566406 339.976562 725.242188 337.34375 C 726 336.15625 725.929688 335.070312 725.714844 334.347656 C 724.847656 335.015625 723.222656 336.289062 720.265625 338.664062 C 714.890625 342.980469 707.648438 355.144531 707.574219 355.265625 C 707.558594 355.289062 707.542969 355.3125 707.527344 355.335938 C 706.816406 356.324219 689.917969 379.554688 668.394531 380.144531 C 651.050781 380.621094 643.164062 371.820312 639.792969 368.0625 C 639.691406 367.953125 639.589844 367.835938 639.484375 367.722656 Z M 663.261719 407.785156 C 653.292969 407.785156 642.332031 404.765625 630.476562 398.730469 C 630.058594 398.515625 629.84375 398.042969 629.957031 397.59375 L 637.933594 365.671875 C 638.035156 365.253906 638.398438 364.945312 638.828125 364.914062 C 639.601562 364.851562 640.132812 365.441406 641.285156 366.726562 C 644.472656 370.277344 651.9375 378.597656 668.339844 378.140625 C 688.523438 377.585938 705.144531 355.199219 705.871094 354.203125 C 706.421875 353.285156 713.460938 341.5625 719.007812 337.101562 C 724.554688 332.648438 725.488281 332.007812 725.523438 331.984375 C 725.96875 331.6875 726.566406 331.785156 726.886719 332.210938 C 726.976562 332.332031 729.03125 335.132812 726.933594 338.425781 C 725.574219 340.554688 722.5 343.992188 721.035156 345.582031 C 723.019531 347.195312 725.1875 350.503906 723.363281 355.121094 C 720.9375 361.277344 714.917969 362.097656 712.679688 362.183594 C 711.382812 367.074219 703.464844 393.601562 681.839844 403.753906 C 676.109375 406.441406 669.90625 407.785156 663.261719 407.785156 " fill-opacity="1" fill-rule="nonzero"/><path fill="#5479f7" d="M 533.453125 397.835938 C 533.453125 397.835938 539.839844 356.628906 562.398438 346.488281 C 584.953125 336.347656 615.472656 337.761719 623.886719 342.824219 C 632.300781 347.886719 654.234375 370.78125 654.234375 370.78125 L 634.855469 397.835938 C 634.855469 397.835938 639.285156 470.667969 635.78125 489.898438 C 635.78125 489.898438 614.21875 492.410156 605.074219 488.8125 C 595.929688 485.210938 565.859375 480.164062 551.488281 486.769531 L 554.097656 394.554688 L 533.453125 397.835938 " fill-opacity="1" fill-rule="nonzero"/><path fill="#000000" d="M 571.015625 482.550781 C 584.726562 482.550781 599.511719 485.542969 605.441406 487.878906 C 613.308594 490.976562 631.070312 489.378906 634.921875 488.980469 C 638.128906 469.023438 633.898438 398.613281 633.851562 397.894531 C 633.839844 397.664062 633.90625 397.4375 634.039062 397.25 L 652.9375 370.875 C 649.417969 367.234375 630.820312 348.167969 623.371094 343.679688 C 615.519531 338.957031 585.257812 337.3125 562.808594 347.402344 C 543.292969 356.171875 536.039062 389.453125 534.6875 396.625 L 553.941406 393.566406 C 554.234375 393.515625 554.539062 393.605469 554.761719 393.800781 C 554.984375 394 555.109375 394.285156 555.101562 394.582031 L 552.53125 485.242188 C 557.601562 483.296875 564.175781 482.550781 571.015625 482.550781 Z M 620.585938 491.761719 C 614.804688 491.761719 608.679688 491.308594 604.707031 489.746094 C 595.285156 486.03125 565.5625 481.402344 551.90625 487.675781 C 551.589844 487.824219 551.222656 487.792969 550.933594 487.601562 C 550.644531 487.414062 550.476562 487.085938 550.484375 486.738281 L 553.0625 395.734375 L 533.613281 398.824219 C 533.296875 398.875 532.976562 398.769531 532.746094 398.542969 C 532.519531 398.320312 532.414062 398 532.464844 397.679688 C 532.730469 395.976562 539.195312 355.820312 561.988281 345.574219 C 584.332031 335.53125 615.253906 336.460938 624.402344 341.964844 C 632.835938 347.039062 654.0625 369.148438 654.960938 370.085938 C 655.292969 370.433594 655.332031 370.96875 655.050781 371.359375 L 635.875 398.128906 C 636.246094 404.285156 640.164062 471.433594 636.765625 490.078125 C 636.6875 490.511719 636.335938 490.839844 635.898438 490.890625 C 635.390625 490.953125 628.296875 491.761719 620.585938 491.761719 " fill-opacity="1" fill-rule="nonzero"/><path fill="#000000" d="M 571.300781 468.765625 C 570.824219 468.765625 570.398438 468.425781 570.316406 467.9375 C 570.21875 467.390625 570.582031 466.871094 571.128906 466.777344 C 605.21875 460.75 615.101562 437.238281 615.195312 437 C 615.402344 436.488281 615.988281 436.242188 616.5 436.449219 C 617.011719 436.65625 617.261719 437.242188 617.054688 437.753906 C 616.953125 438 606.648438 462.535156 571.476562 468.75 C 571.417969 468.761719 571.359375 468.765625 571.300781 468.765625 " fill-opacity="1" fill-rule="nonzero"/><path fill="#000000" d="M 633.222656 426.636719 L 589.328125 426.636719 L 603.074219 377.613281 L 646.96875 377.613281 L 633.222656 426.636719 " fill-opacity="1" fill-rule="nonzero"/><path fill="#ffffff" d="M 537.324219 397.992188 L 559.539062 388.066406 C 559.539062 388.066406 556.410156 425.703125 601.355469 408.324219 C 601.355469 408.324219 599.699219 403.488281 599.933594 397.835938 C 600.167969 392.1875 603.550781 397.652344 604.023438 402.246094 C 604.496094 406.835938 615.046875 404.972656 621.386719 403.164062 C 627.730469 401.355469 636.054688 402.539062 621.386719 410.628906 C 606.722656 418.714844 603.511719 415.105469 603.511719 415.105469 C 603.511719 415.105469 584.78125 441.3125 561.480469 435.746094 C 532.820312 428.898438 537.324219 397.992188 537.324219 397.992188 " fill-opacity="1" fill-rule="nonzero"/><path fill="#000000" d="M 538.253906 398.675781 C 538.0625 400.554688 537.613281 407.074219 539.636719 414.089844 C 542.800781 425.066406 550.226562 432.027344 561.714844 434.769531 C 563.84375 435.277344 565.941406 435.507812 567.992188 435.507812 C 587.429688 435.511719 602.53125 414.753906 602.695312 414.523438 C 602.871094 414.277344 603.152344 414.121094 603.457031 414.105469 C 603.765625 414.089844 604.054688 414.210938 604.257812 414.441406 C 604.265625 414.441406 607.550781 417.113281 620.90625 409.75 C 628.671875 405.464844 628.554688 403.894531 628.550781 403.878906 C 628.25 403.386719 625.324219 403.082031 621.664062 404.125 C 618.644531 404.988281 608.496094 407.59375 604.621094 404.96875 C 603.6875 404.339844 603.136719 403.429688 603.023438 402.347656 C 602.777344 399.957031 601.742188 397.621094 601.058594 396.742188 C 601.007812 396.988281 600.957031 397.347656 600.9375 397.878906 C 600.710938 403.277344 602.289062 407.949219 602.304688 408 C 602.480469 408.507812 602.222656 409.0625 601.71875 409.257812 C 586.214844 415.25 574.5625 415.457031 567.09375 409.867188 C 559.269531 404.015625 558.476562 393.664062 558.484375 389.632812 Z M 567.976562 437.511719 C 565.785156 437.511719 563.535156 437.265625 561.246094 436.71875 C 532.03125 429.738281 536.289062 398.167969 536.332031 397.851562 C 536.382812 397.511719 536.601562 397.21875 536.914062 397.078125 L 559.132812 387.148438 C 559.457031 387.003906 559.832031 387.042969 560.117188 387.25 C 560.410156 387.449219 560.570312 387.792969 560.539062 388.148438 C 560.527344 388.28125 559.539062 401.722656 568.304688 408.269531 C 575.050781 413.308594 585.753906 413.125 600.128906 407.71875 C 599.648438 406.011719 598.75 402.160156 598.933594 397.792969 C 598.96875 396.976562 599.070312 394.480469 600.804688 394.425781 C 600.820312 394.425781 600.832031 394.425781 600.847656 394.425781 C 603.066406 394.425781 604.742188 399.429688 605.019531 402.140625 C 605.070312 402.636719 605.300781 403.011719 605.742188 403.308594 C 608.09375 404.898438 615.15625 403.898438 621.113281 402.199219 C 623.871094 401.410156 629.363281 400.589844 630.40625 403.125 C 631.261719 405.195312 628.628906 407.777344 621.875 411.503906 C 610.589844 417.726562 605.664062 417.230469 603.765625 416.429688 C 600.789062 420.246094 586.304688 437.511719 567.976562 437.511719 " fill-opacity="1" fill-rule="nonzero"/><path fill="#000000" d="M 596.621094 327.710938 C 594.703125 329.464844 590.953125 331.609375 588.015625 330.132812 C 585.828125 329.03125 584.609375 326.179688 584.683594 322.914062 C 583.671875 322.992188 582.34375 322.925781 581.398438 322.085938 C 579.941406 320.796875 580.214844 318.425781 580.269531 316.871094 C 580.535156 309.683594 576.355469 308.574219 577.378906 303.695312 C 578.183594 299.863281 581.195312 297.578125 581.757812 297.148438 C 584.601562 294.992188 586.527344 295.691406 591.308594 294.4375 C 599.355469 292.328125 599.613281 288.863281 604.914062 288.847656 C 605.21875 288.847656 612.433594 288.925781 614.882812 293.910156 C 616.875 297.960938 614.546875 302.886719 612.144531 305.476562 C 609.027344 308.828125 606.792969 307.171875 603.667969 309.984375 C 598.179688 314.917969 602.324219 322.488281 596.621094 327.710938 " fill-opacity="1" fill-rule="nonzero"/><path fill="#ffffff" d="M 612.679688 314.878906 L 612.363281 314.605469 C 610.773438 313.234375 609.113281 311.640625 608.691406 309.582031 C 606.894531 300.828125 598.875 297.652344 598.507812 305.6875 C 598.414062 307.714844 591.007812 307.609375 591.886719 309.738281 C 594.175781 315.289062 594.226562 313.796875 590.992188 315.839844 C 590.625 315.855469 590.261719 315.9375 589.921875 316.097656 C 588.261719 316.871094 587.675781 319.121094 588.609375 321.125 C 589.175781 322.34375 590.175781 323.179688 591.242188 323.484375 L 591.242188 332.25 C 591.242188 335.539062 589.253906 338.5 586.210938 339.746094 L 583.25 340.953125 C 583.25 340.953125 597.054688 349.964844 611.070312 340.070312 L 609.199219 339.234375 C 605.90625 337.753906 603.746094 334.527344 603.628906 330.917969 L 603.617188 329.207031 C 604.558594 329.289062 605.46875 329.226562 606.3125 328.980469 C 610.234375 327.839844 611.535156 323.324219 610.867188 317.710938 L 612.464844 316.851562 C 613.207031 316.453125 613.320312 315.429688 612.679688 314.878906 " fill-opacity="1" fill-rule="nonzero"/><path fill="#000000" d="M 585.566406 341.089844 C 589.421875 342.96875 598.964844 346.371094 608.996094 340.238281 L 608.789062 340.148438 C 605.171875 338.523438 602.753906 334.914062 602.628906 330.953125 L 602.613281 329.214844 C 602.609375 328.933594 602.726562 328.664062 602.933594 328.46875 C 603.144531 328.28125 603.425781 328.183594 603.703125 328.210938 C 604.558594 328.28125 605.339844 328.21875 606.035156 328.019531 C 610.4375 326.738281 610.1875 320.464844 609.871094 317.828125 C 609.824219 317.417969 610.03125 317.023438 610.394531 316.828125 L 611.988281 315.972656 C 612.066406 315.929688 612.089844 315.863281 612.09375 315.8125 C 612.101562 315.765625 612.09375 315.695312 612.027344 315.636719 L 611.707031 315.363281 C 610.03125 313.917969 608.199219 312.171875 607.710938 309.785156 C 606.644531 304.59375 603.394531 301.917969 601.558594 302.074219 C 599.851562 302.207031 599.554688 304.679688 599.507812 305.734375 C 599.429688 307.429688 597.34375 308.011719 595.328125 308.578125 C 594.53125 308.800781 593.25 309.160156 592.859375 309.46875 C 593.167969 310.21875 593.433594 310.832031 593.65625 311.339844 C 594.75 313.867188 595.121094 314.71875 592.886719 315.910156 C 592.523438 316.105469 592.074219 316.34375 591.527344 316.6875 C 591.382812 316.785156 591.210938 316.835938 591.035156 316.84375 C 590.785156 316.851562 590.550781 316.90625 590.34375 317.003906 C 589.1875 317.542969 588.820312 319.203125 589.515625 320.703125 C 589.9375 321.605469 590.683594 322.28125 591.515625 322.523438 C 591.945312 322.640625 592.242188 323.035156 592.242188 323.484375 L 592.242188 332.25 C 592.242188 335.960938 590.023438 339.269531 586.589844 340.671875 Z M 596.910156 345.679688 C 588.796875 345.679688 582.792969 341.855469 582.699219 341.792969 C 582.390625 341.589844 582.214844 341.230469 582.25 340.859375 C 582.285156 340.488281 582.523438 340.167969 582.871094 340.027344 L 585.832031 338.816406 C 588.507812 337.722656 590.238281 335.144531 590.238281 332.25 L 590.238281 324.171875 C 589.15625 323.660156 588.253906 322.734375 587.699219 321.550781 C 586.535156 319.046875 587.339844 316.195312 589.496094 315.191406 C 589.863281 315.015625 590.257812 314.910156 590.671875 314.863281 C 591.179688 314.550781 591.597656 314.328125 591.941406 314.140625 C 592.140625 314.035156 592.363281 313.917969 592.496094 313.832031 C 592.414062 313.511719 592.125 312.84375 591.816406 312.140625 C 591.582031 311.59375 591.292969 310.933594 590.957031 310.125 C 590.75 309.621094 590.761719 309.113281 590.984375 308.652344 C 591.515625 307.5625 593.03125 307.140625 594.785156 306.644531 C 595.644531 306.40625 597.230469 305.960938 597.507812 305.597656 C 597.75 300.738281 600.546875 300.140625 601.402344 300.074219 C 604.40625 299.839844 608.429688 303.332031 609.671875 309.378906 C 610.035156 311.152344 611.589844 312.617188 613.019531 313.847656 L 613.335938 314.121094 C 613.886719 314.59375 614.167969 315.3125 614.085938 316.03125 C 614.007812 316.757812 613.578125 317.390625 612.9375 317.738281 L 611.9375 318.277344 C 612.515625 324.542969 610.589844 328.78125 606.59375 329.945312 C 605.976562 330.125 605.320312 330.21875 604.625 330.242188 L 604.632812 330.910156 C 604.734375 334.089844 606.6875 337.007812 609.609375 338.316406 L 611.480469 339.15625 C 611.808594 339.304688 612.03125 339.617188 612.066406 339.972656 C 612.101562 340.332031 611.941406 340.683594 611.648438 340.886719 C 606.523438 344.507812 601.394531 345.679688 596.910156 345.679688 " fill-opacity="1" fill-rule="nonzero"/><path fill="#000000" d="M 603.617188 330.207031 C 603.566406 330.207031 603.515625 330.207031 603.460938 330.195312 C 597.613281 329.300781 594.972656 324.816406 594.863281 324.625 C 594.589844 324.148438 594.753906 323.535156 595.234375 323.257812 C 595.710938 322.984375 596.324219 323.148438 596.601562 323.625 C 596.636719 323.683594 598.910156 327.46875 603.765625 328.214844 C 604.316406 328.300781 604.691406 328.8125 604.605469 329.355469 C 604.53125 329.855469 604.101562 330.207031 603.617188 330.207031 " fill-opacity="1" fill-rule="nonzero"/></svg>