<svg xmlns="http://www.w3.org/2000/svg" xmlns:xlink="http://www.w3.org/1999/xlink" width="1920" zoomAndPan="magnify" viewBox="0 0 1440 809.999993" height="1080" preserveAspectRatio="xMidYMid meet" version="1.0"><defs><clipPath id="8dccb029ee"><path d="M 56.230469 53.816406 L 1384 53.816406 L 1384 756.183594 L 56.230469 756.183594 Z M 56.230469 53.816406 " clip-rule="nonzero"/></clipPath><clipPath id="c08152d9e4"><path d="M 81.730469 53.816406 L 1358.269531 53.816406 C 1365.03125 53.816406 1371.519531 56.503906 1376.300781 61.285156 C 1381.082031 66.066406 1383.769531 72.554688 1383.769531 79.316406 L 1383.769531 730.683594 C 1383.769531 737.445312 1381.082031 743.933594 1376.300781 748.714844 C 1371.519531 753.496094 1365.03125 756.183594 1358.269531 756.183594 L 81.730469 756.183594 C 74.96875 756.183594 68.480469 753.496094 63.699219 748.714844 C 58.917969 743.933594 56.230469 737.445312 56.230469 730.683594 L 56.230469 79.316406 C 56.230469 72.554688 58.917969 66.066406 63.699219 61.285156 C 68.480469 56.503906 74.96875 53.816406 81.730469 53.816406 Z M 81.730469 53.816406 " clip-rule="nonzero"/></clipPath><clipPath id="1d7161c550"><path d="M 56.230469 53.816406 L 1383.730469 53.816406 L 1383.730469 755.816406 L 56.230469 755.816406 Z M 56.230469 53.816406 " clip-rule="nonzero"/></clipPath><clipPath id="4626a81539"><path d="M 81.730469 53.816406 L 1358.265625 53.816406 C 1365.027344 53.816406 1371.515625 56.503906 1376.296875 61.285156 C 1381.078125 66.066406 1383.765625 72.554688 1383.765625 79.316406 L 1383.765625 730.679688 C 1383.765625 737.441406 1381.078125 743.929688 1376.296875 748.710938 C 1371.515625 753.492188 1365.027344 756.179688 1358.265625 756.179688 L 81.730469 756.179688 C 74.96875 756.179688 68.480469 753.492188 63.699219 748.710938 C 58.917969 743.929688 56.230469 737.441406 56.230469 730.679688 L 56.230469 79.316406 C 56.230469 72.554688 58.917969 66.066406 63.699219 61.285156 C 68.480469 56.503906 74.96875 53.816406 81.730469 53.816406 Z M 81.730469 53.816406 " clip-rule="nonzero"/></clipPath></defs><rect x="-144" width="1728" fill="#ffffff" y="-80.999999" height="971.999992" fill-opacity="1"/><rect x="-144" width="1728" fill="#ffcbbe" y="-80.999999" height="971.999992" fill-opacity="1"/><g clip-path="url(#8dccb029ee)"><g clip-path="url(#c08152d9e4)"><path fill="#ffffff" d="M 56.230469 53.816406 L 1384.140625 53.816406 L 1384.140625 756.183594 L 56.230469 756.183594 Z M 56.230469 53.816406 " fill-opacity="1" fill-rule="nonzero"/></g></g><g clip-path="url(#1d7161c550)"><g clip-path="url(#4626a81539)"><path stroke-linecap="butt" transform="matrix(0.75, 0, 0, 0.75, 56.231257, 53.816969)" fill="none" stroke-linejoin="miter" d="M 33.998951 -0.000750723 L 1736.045911 -0.000750723 C 1745.061537 -0.000750723 1753.712579 3.582583 1760.087579 9.957583 C 1766.46258 16.332583 1770.045913 24.983626 1770.045913 33.999251 L 1770.045913 902.48367 C 1770.045913 911.499295 1766.46258 920.150337 1760.087579 926.525338 C 1753.712579 932.900338 1745.061537 936.483671 1736.045911 936.483671 L 33.998951 936.483671 C 24.983325 936.483671 16.332283 932.900338 9.957283 926.525338 C 3.582283 920.150337 -0.00105099 911.499295 -0.00105099 902.48367 L -0.00105099 33.999251 C -0.00105099 24.983626 3.582283 16.332583 9.957283 9.957583 C 16.332283 3.582583 24.983325 -0.000750723 33.998951 -0.000750723 Z M 33.998951 -0.000750723 " stroke="#000000" stroke-width="4" stroke-opacity="1" stroke-miterlimit="4"/></g></g><path fill="#caddff" d="M 598.375 271.40625 C 656.453125 212.953125 639.824219 176.324219 679.5625 149.257812 C 740.710938 107.617188 854.835938 143.445312 922.160156 200.71875 C 1004.621094 270.871094 1047.167969 398.960938 998.703125 514.832031 C 947.089844 638.238281 811.285156 702.296875 690.109375 682.992188 C 581.894531 665.753906 475.519531 580.46875 464.859375 478.183594 C 463.703125 467.09375 458.605469 407.164062 494.375 355.496094 C 523.9375 312.785156 552.339844 317.738281 598.375 271.40625 " fill-opacity="1" fill-rule="nonzero"/><path fill="#99b9ff" d="M 551.402344 208.582031 C 589.925781 201.492188 625.496094 219.34375 630.855469 248.453125 C 633.253906 261.480469 629.191406 274.554688 620.523438 285.660156 L 637.855469 312.316406 L 601.453125 302.421875 C 592.617188 307.847656 582.222656 311.90625 570.804688 314.003906 C 532.285156 321.097656 496.714844 303.242188 491.355469 274.128906 C 485.996094 245.019531 512.882812 215.671875 551.402344 208.582031 " fill-opacity="1" fill-rule="nonzero"/><path fill="#000000" d="M 523.644531 213.839844 C 523.320312 213.839844 523.003906 213.6875 522.808594 213.394531 C 522.5 212.933594 522.621094 212.308594 523.082031 212 C 523.9375 211.425781 524.816406 210.859375 525.6875 210.320312 C 526.160156 210.03125 526.78125 210.175781 527.074219 210.648438 C 527.363281 211.121094 527.21875 211.742188 526.746094 212.03125 C 525.894531 212.558594 525.039062 213.109375 524.207031 213.667969 C 524.035156 213.785156 523.839844 213.839844 523.644531 213.839844 " fill-opacity="1" fill-rule="nonzero"/><path fill="#000000" d="M 559.695312 307.453125 C 527.65625 307.453125 500.664062 290.464844 496.019531 265.210938 C 492.910156 248.316406 500.191406 230.882812 516 217.371094 C 516.425781 217.011719 517.058594 217.058594 517.417969 217.484375 C 517.78125 217.902344 517.730469 218.539062 517.308594 218.898438 C 502.058594 231.929688 495.019531 248.675781 497.996094 264.847656 C 503.246094 293.367188 538.359375 310.898438 576.273438 303.914062 C 579.117188 303.390625 581.949219 302.734375 584.691406 301.960938 C 585.226562 301.808594 585.78125 302.121094 585.929688 302.65625 C 586.082031 303.191406 585.769531 303.746094 585.238281 303.898438 C 582.433594 304.6875 579.542969 305.359375 576.640625 305.894531 C 570.902344 306.949219 565.21875 307.453125 559.695312 307.453125 " fill-opacity="1" fill-rule="nonzero"/><path fill="#000000" d="M 643.507812 304.214844 C 643.421875 304.214844 643.332031 304.207031 643.246094 304.179688 L 607.257812 294.402344 C 604.644531 295.988281 601.894531 297.457031 599.070312 298.773438 C 598.566406 299.011719 597.96875 298.792969 597.734375 298.289062 C 597.496094 297.785156 597.714844 297.1875 598.21875 296.953125 C 601.109375 295.605469 603.921875 294.09375 606.578125 292.460938 C 606.816406 292.316406 607.101562 292.273438 607.367188 292.347656 L 641.226562 301.546875 L 625.332031 277.105469 C 625.097656 276.742188 625.117188 276.273438 625.382812 275.9375 C 634.164062 264.679688 637.765625 251.753906 635.515625 239.535156 C 632.984375 225.773438 623.480469 214.125 608.765625 206.738281 C 593.953125 199.304688 575.652344 197.074219 557.234375 200.46875 C 552.890625 201.265625 548.601562 202.375 544.488281 203.757812 C 543.960938 203.933594 543.390625 203.652344 543.214844 203.125 C 543.035156 202.597656 543.320312 202.027344 543.847656 201.847656 C 548.050781 200.4375 552.433594 199.304688 556.871094 198.488281 C 575.714844 195.023438 594.46875 197.3125 609.667969 204.941406 C 624.960938 212.617188 634.84375 224.773438 637.496094 239.171875 C 639.8125 251.753906 636.230469 265.023438 627.40625 276.605469 L 644.351562 302.664062 C 644.578125 303.011719 644.566406 303.46875 644.320312 303.804688 C 644.128906 304.066406 643.824219 304.214844 643.507812 304.214844 " fill-opacity="1" fill-rule="nonzero"/><path fill="#5479f7" d="M 568.507812 247.457031 C 567.953125 247.457031 567.503906 247.003906 567.5 246.453125 C 567.5 245.894531 567.949219 245.445312 568.503906 245.441406 L 616.960938 245.328125 C 616.964844 245.328125 616.964844 245.328125 616.964844 245.328125 C 617.519531 245.328125 617.96875 245.78125 617.96875 246.332031 C 617.972656 246.886719 617.523438 247.339844 616.96875 247.339844 L 568.507812 247.457031 " fill-opacity="1" fill-rule="nonzero"/><path fill="#5479f7" d="M 512.953125 246.058594 C 512.398438 246.058594 511.949219 245.609375 511.945312 245.058594 C 511.945312 244.5 512.390625 244.050781 512.945312 244.046875 L 559.246094 243.789062 C 559.25 243.789062 559.25 243.789062 559.253906 243.789062 C 559.804688 243.789062 560.253906 244.238281 560.257812 244.789062 C 560.261719 245.34375 559.816406 245.796875 559.257812 245.800781 L 512.957031 246.058594 C 512.957031 246.058594 512.957031 246.058594 512.953125 246.058594 " fill-opacity="1" fill-rule="nonzero"/><path fill="#5479f7" d="M 614.867188 260.058594 C 614.863281 260.058594 614.859375 260.058594 614.855469 260.058594 L 551.546875 259.273438 C 550.988281 259.269531 550.542969 258.8125 550.550781 258.257812 C 550.558594 257.707031 551.007812 257.261719 551.558594 257.261719 C 551.5625 257.261719 551.566406 257.261719 551.570312 257.261719 L 614.882812 258.046875 C 615.4375 258.050781 615.882812 258.507812 615.875 259.0625 C 615.867188 259.613281 615.417969 260.058594 614.867188 260.058594 " fill-opacity="1" fill-rule="nonzero"/><path fill="#5479f7" d="M 539.28125 259.125 C 539.277344 259.125 539.273438 259.125 539.269531 259.125 L 510.84375 258.777344 C 510.289062 258.765625 509.84375 258.3125 509.851562 257.753906 C 509.859375 257.207031 510.308594 256.761719 510.855469 256.761719 C 510.863281 256.761719 510.863281 256.761719 510.871094 256.761719 L 539.292969 257.113281 C 539.851562 257.121094 540.292969 257.578125 540.289062 258.132812 C 540.28125 258.683594 539.832031 259.125 539.28125 259.125 " fill-opacity="1" fill-rule="nonzero"/><path fill="#5479f7" d="M 616.675781 270.808594 C 616.671875 270.808594 616.671875 270.808594 616.667969 270.808594 L 593.472656 270.664062 C 592.914062 270.664062 592.46875 270.210938 592.472656 269.65625 C 592.476562 269.101562 592.925781 268.652344 593.476562 268.652344 C 593.480469 268.652344 593.480469 268.652344 593.484375 268.652344 L 616.679688 268.796875 C 617.234375 268.800781 617.683594 269.253906 617.679688 269.808594 C 617.675781 270.363281 617.226562 270.808594 616.675781 270.808594 " fill-opacity="1" fill-rule="nonzero"/><path fill="#5479f7" d="M 587.949219 270.753906 C 587.941406 270.753906 587.9375 270.753906 587.929688 270.753906 L 512.648438 269.523438 C 512.089844 269.515625 511.648438 269.058594 511.65625 268.503906 C 511.667969 267.945312 512.117188 267.496094 512.679688 267.515625 L 587.964844 268.742188 C 588.519531 268.75 588.960938 269.207031 588.953125 269.765625 C 588.945312 270.316406 588.496094 270.753906 587.949219 270.753906 " fill-opacity="1" fill-rule="nonzero"/><path fill="#5479f7" d="M 934.660156 657.269531 L 685.214844 657.269531 C 674.460938 657.269531 666.847656 648.597656 668.203125 637.90625 L 729.625 153.617188 C 730.980469 142.917969 740.796875 134.25 751.542969 134.25 L 988.46875 131.488281 C 1015.660156 131.488281 1019.351562 142.917969 1017.996094 153.617188 L 956.578125 637.90625 C 955.222656 648.597656 945.40625 657.269531 934.660156 657.269531 " fill-opacity="1" fill-rule="nonzero"/><path fill="#ffffff" d="M 919.644531 657.269531 L 670.199219 657.269531 C 659.453125 657.269531 651.839844 648.554688 653.195312 637.808594 L 714.617188 151.046875 C 715.972656 140.296875 725.785156 131.582031 736.535156 131.582031 L 985.980469 131.582031 C 996.730469 131.582031 1004.347656 140.296875 1002.988281 151.046875 L 941.566406 637.808594 C 940.210938 648.554688 930.394531 657.269531 919.644531 657.269531 " fill-opacity="1" fill-rule="nonzero"/><path fill="#caddff" d="M 667.410156 638.476562 L 726.054688 173.703125 C 726.367188 171.21875 728.636719 169.210938 731.117188 169.210938 L 981.902344 169.210938 C 984.382812 169.210938 986.140625 171.21875 985.828125 173.703125 L 927.179688 638.476562 C 926.871094 640.957031 924.601562 642.96875 922.121094 642.96875 L 671.335938 642.96875 C 668.855469 642.96875 667.09375 640.957031 667.410156 638.476562 " fill-opacity="1" fill-rule="nonzero"/><path fill="#caddff" d="M 858.136719 156.335938 C 854.109375 156.335938 851.253906 153.070312 851.761719 149.042969 C 852.269531 145.019531 855.945312 141.753906 859.972656 141.753906 C 864 141.753906 866.855469 145.019531 866.347656 149.042969 C 865.839844 153.070312 862.164062 156.335938 858.136719 156.335938 " fill-opacity="1" fill-rule="nonzero"/><path fill="#000000" d="M 919.648438 658.273438 L 713.757812 658.273438 C 713.199219 658.273438 712.75 657.824219 712.75 657.269531 C 712.75 656.714844 713.199219 656.265625 713.757812 656.265625 L 919.648438 656.265625 C 929.886719 656.265625 939.277344 647.929688 940.566406 637.683594 L 1001.988281 150.921875 C 1002.609375 145.984375 1001.273438 141.355469 998.21875 137.898438 C 995.203125 134.472656 990.859375 132.589844 985.980469 132.589844 L 736.535156 132.589844 C 726.292969 132.589844 716.90625 140.925781 715.613281 151.171875 L 675.195312 471.464844 C 675.128906 472.015625 674.628906 472.40625 674.074219 472.335938 C 673.523438 472.265625 673.132812 471.761719 673.203125 471.214844 L 713.617188 150.921875 C 715.03125 139.703125 725.3125 130.578125 736.535156 130.578125 L 985.980469 130.578125 C 991.4375 130.578125 996.324219 132.707031 999.730469 136.566406 C 1003.167969 140.46875 1004.683594 145.65625 1003.984375 151.171875 L 942.5625 637.933594 C 941.148438 649.148438 930.867188 658.273438 919.648438 658.273438 " fill-opacity="1" fill-rule="nonzero"/><path fill="#000000" d="M 922.121094 643.976562 L 840.484375 643.976562 C 839.929688 643.976562 839.476562 643.523438 839.476562 642.96875 C 839.476562 642.414062 839.929688 641.964844 840.484375 641.964844 L 922.121094 641.964844 C 924.113281 641.964844 925.933594 640.34375 926.1875 638.351562 L 984.832031 173.574219 C 984.953125 172.660156 984.707031 171.808594 984.152344 171.179688 C 983.601562 170.554688 982.808594 170.214844 981.902344 170.214844 L 731.117188 170.214844 C 729.128906 170.214844 727.304688 171.832031 727.054688 173.828125 L 686.464844 495.496094 C 686.394531 496.050781 685.890625 496.441406 685.339844 496.371094 C 684.792969 496.300781 684.398438 495.800781 684.46875 495.25 L 725.058594 173.574219 C 725.433594 170.609375 728.152344 168.203125 731.117188 168.203125 L 981.902344 168.203125 C 983.390625 168.203125 984.726562 168.785156 985.65625 169.847656 C 986.605469 170.917969 987.019531 172.328125 986.832031 173.828125 L 928.179688 638.601562 C 927.808594 641.566406 925.089844 643.976562 922.121094 643.976562 " fill-opacity="1" fill-rule="nonzero"/><path fill="#000000" d="M 699.929688 448.421875 C 699.929688 448.378906 699.929688 448.335938 699.929688 448.296875 C 700.183594 435.121094 708.34375 421.691406 724.171875 408.382812 C 735.265625 399.054688 746.1875 393.183594 746.644531 392.933594 C 750.308594 390.980469 754.863281 392.363281 756.824219 396.023438 C 758.78125 399.6875 757.398438 404.242188 753.734375 406.199219 C 743.066406 411.921875 715.3125 430.6875 714.964844 448.585938 C 714.964844 448.613281 714.964844 448.640625 714.964844 448.667969 C 714.871094 454.34375 716.550781 458.761719 720.101562 462.171875 C 728.597656 470.332031 745.828125 471.199219 751.75 470.84375 C 755.898438 470.597656 759.457031 473.757812 759.703125 477.902344 C 759.953125 482.042969 756.792969 485.609375 752.648438 485.855469 C 751.511719 485.925781 724.617188 487.355469 709.683594 473.015625 C 703.050781 466.640625 699.765625 458.367188 699.929688 448.421875 " fill-opacity="1" fill-rule="nonzero"/><path fill="#5479f7" d="M 753.230469 502.097656 L 753.960938 457.570312 C 754.03125 453.421875 757.449219 450.109375 761.601562 450.175781 C 765.753906 450.246094 769.0625 453.664062 768.996094 457.820312 L 768.265625 502.34375 C 768.199219 506.496094 764.777344 509.804688 760.625 509.738281 C 756.472656 509.671875 753.164062 506.25 753.230469 502.097656 " fill-opacity="1" fill-rule="nonzero"/><path fill="#5479f7" d="M 692.515625 314.03125 L 708.222656 314.03125 C 708.847656 314.03125 709.355469 313.527344 709.355469 312.90625 L 709.355469 265.945312 C 709.355469 265.320312 708.847656 264.816406 708.222656 264.816406 L 692.515625 264.816406 C 689.210938 264.816406 686.539062 267.488281 686.539062 270.789062 L 686.539062 308.058594 C 686.539062 311.359375 689.210938 314.03125 692.515625 314.03125 " fill-opacity="1" fill-rule="nonzero"/><path fill="#ffffff" d="M 925.996094 314.03125 L 910.101562 314.03125 L 910.101562 269.570312 L 925.996094 269.570312 C 929.816406 269.570312 932.914062 272.667969 932.914062 276.492188 L 932.914062 307.109375 C 932.914062 310.933594 929.816406 314.03125 925.996094 314.03125 " fill-opacity="1" fill-rule="nonzero"/><path fill="#000000" d="M 911.109375 313.027344 L 913.3125 313.027344 C 923.566406 313.027344 931.910156 304.683594 931.910156 294.429688 L 931.910156 289.171875 C 931.910156 278.917969 923.566406 270.578125 913.3125 270.578125 L 911.109375 270.578125 Z M 913.3125 315.035156 L 910.101562 315.035156 C 909.546875 315.035156 909.101562 314.585938 909.101562 314.027344 L 909.101562 269.570312 C 909.101562 269.015625 909.546875 268.5625 910.101562 268.5625 L 913.3125 268.5625 C 924.675781 268.5625 933.921875 277.8125 933.921875 289.171875 L 933.921875 294.429688 C 933.921875 305.792969 924.675781 315.035156 913.3125 315.035156 " fill-opacity="1" fill-rule="nonzero"/><path fill="#ffffff" d="M 917.289062 289.960938 C 917.289062 242.1875 869.132812 192.769531 809.726562 192.769531 C 750.324219 192.769531 702.164062 242.1875 702.164062 289.960938 C 702.164062 337.742188 750.324219 365.777344 809.726562 365.777344 C 869.132812 365.777344 917.289062 337.742188 917.289062 289.960938 " fill-opacity="1" fill-rule="nonzero"/><path fill="#000000" d="M 809.726562 193.773438 C 748.738281 193.773438 703.171875 244.558594 703.171875 289.964844 C 703.171875 312.390625 713.910156 331.402344 734.226562 344.953125 C 753.394531 357.734375 780.207031 364.773438 809.726562 364.773438 C 839.25 364.773438 866.058594 357.734375 885.226562 344.953125 C 905.542969 331.402344 916.285156 312.390625 916.285156 289.964844 C 916.285156 244.558594 870.714844 193.773438 809.726562 193.773438 Z M 809.726562 366.785156 C 779.816406 366.785156 752.601562 359.625 733.113281 346.628906 C 712.207031 332.6875 701.160156 313.09375 701.160156 289.964844 C 701.160156 266.269531 712.757812 241.761719 732.976562 222.71875 C 754.183594 202.761719 781.4375 191.765625 809.726562 191.765625 C 838.019531 191.765625 865.277344 202.761719 886.472656 222.71875 C 906.695312 241.761719 918.292969 266.269531 918.292969 289.964844 C 918.292969 313.09375 907.246094 332.6875 886.34375 346.628906 C 866.851562 359.625 839.640625 366.785156 809.726562 366.785156 " fill-opacity="1" fill-rule="nonzero"/><path fill="#ffffff" d="M 782.785156 380.132812 L 836.671875 380.132812 C 860.289062 380.132812 879.433594 399.277344 879.433594 422.894531 C 879.433594 438.496094 877.914062 454.0625 874.890625 469.371094 L 867.144531 508.605469 C 861.730469 536.023438 837.679688 555.792969 809.730469 555.792969 C 781.777344 555.792969 757.726562 536.023438 752.316406 508.605469 L 744.566406 469.371094 C 741.546875 454.0625 740.023438 438.496094 740.023438 422.894531 C 740.023438 399.277344 759.167969 380.132812 782.785156 380.132812 " fill-opacity="1" fill-rule="nonzero"/><path fill="#000000" d="M 782.785156 381.140625 C 759.761719 381.140625 741.027344 399.867188 741.027344 422.894531 C 741.027344 438.398438 742.554688 453.96875 745.554688 469.175781 L 753.300781 508.410156 C 758.609375 535.28125 782.335938 554.78125 809.726562 554.78125 C 837.117188 554.78125 860.851562 535.28125 866.15625 508.410156 L 873.902344 469.175781 C 876.90625 453.96875 878.425781 438.398438 878.425781 422.894531 C 878.425781 399.867188 859.695312 381.140625 836.671875 381.140625 Z M 809.726562 556.796875 C 781.378906 556.796875 756.820312 536.609375 751.328125 508.800781 L 743.582031 469.566406 C 740.554688 454.230469 739.019531 438.527344 739.019531 422.894531 C 739.019531 398.761719 758.648438 379.128906 782.785156 379.128906 L 836.671875 379.128906 C 860.804688 379.128906 880.4375 398.761719 880.4375 422.894531 C 880.4375 438.527344 878.90625 454.230469 875.875 469.566406 L 868.128906 508.800781 C 862.636719 536.609375 838.078125 556.796875 809.726562 556.796875 " fill-opacity="1" fill-rule="nonzero"/><path fill="#caddff" d="M 806.261719 474.878906 L 813.195312 474.878906 C 827.480469 474.878906 839.058594 463.300781 839.058594 449.015625 L 839.058594 380.132812 L 780.398438 380.132812 L 780.398438 449.015625 C 780.398438 463.300781 791.976562 474.878906 806.261719 474.878906 " fill-opacity="1" fill-rule="nonzero"/><path fill="#000000" d="M 839.058594 381.136719 L 780.398438 381.136719 C 779.84375 381.136719 779.394531 380.6875 779.394531 380.132812 C 779.394531 379.578125 779.84375 379.128906 780.398438 379.128906 L 839.058594 379.128906 C 839.613281 379.128906 840.066406 379.578125 840.066406 380.132812 C 840.066406 380.6875 839.613281 381.136719 839.058594 381.136719 " fill-opacity="1" fill-rule="nonzero"/><path fill="#000000" d="M 737.410156 275.628906 L 840.988281 275.628906 C 851.75 275.628906 860.472656 285.027344 860.472656 296.621094 L 860.472656 310.320312 C 860.472656 319.164062 855.753906 328.53125 847.613281 330.0625 C 818.910156 335.457031 759.492188 335.457031 730.789062 330.0625 C 722.648438 328.53125 717.925781 319.164062 717.925781 310.320312 L 717.925781 296.621094 C 717.925781 285.027344 726.652344 275.628906 737.410156 275.628906 " fill-opacity="1" fill-rule="nonzero"/><path fill="#5479f7" d="M 813.542969 303.1875 C 813.542969 307.078125 816.464844 310.226562 820.070312 310.226562 C 823.671875 310.226562 826.597656 307.078125 826.597656 303.1875 C 826.597656 299.304688 823.671875 296.15625 820.070312 296.15625 C 816.464844 296.15625 813.542969 299.304688 813.542969 303.1875 " fill-opacity="1" fill-rule="nonzero"/><path fill="#5479f7" d="M 744.09375 303.1875 C 744.09375 307.078125 747.015625 310.226562 750.621094 310.226562 C 754.226562 310.226562 757.152344 307.078125 757.152344 303.1875 C 757.152344 299.304688 754.226562 296.15625 750.621094 296.15625 C 747.015625 296.15625 744.09375 299.304688 744.09375 303.1875 " fill-opacity="1" fill-rule="nonzero"/><path fill="#5479f7" d="M 852.464844 344.542969 C 852.042969 344.542969 851.652344 344.273438 851.511719 343.851562 C 851.339844 343.324219 851.625 342.753906 852.152344 342.582031 L 885.226562 331.691406 C 900.304688 326.726562 909.5 311.742188 907.101562 296.050781 L 904.71875 280.496094 C 904.632812 279.949219 905.007812 279.4375 905.558594 279.351562 C 906.113281 279.265625 906.621094 279.644531 906.703125 280.195312 L 909.085938 295.746094 C 911.636719 312.410156 901.867188 328.332031 885.851562 333.605469 L 852.78125 344.492188 C 852.679688 344.527344 852.570312 344.542969 852.464844 344.542969 " fill-opacity="1" fill-rule="nonzero"/><path fill="#5479f7" d="M 921.277344 273.804688 C 920.832031 273.804688 920.425781 273.507812 920.308594 273.058594 C 920.253906 272.851562 914.707031 252.332031 900.136719 232.417969 C 886.738281 214.117188 862.746094 192.582031 824.425781 193.953125 C 823.882812 193.96875 823.402344 193.539062 823.386719 192.980469 C 823.363281 192.429688 823.796875 191.964844 824.355469 191.941406 C 841.65625 191.328125 857.601562 195.195312 871.703125 203.433594 C 882.972656 210.019531 893.097656 219.386719 901.792969 231.285156 C 916.574219 251.496094 922.195312 272.332031 922.25 272.542969 C 922.394531 273.078125 922.070312 273.628906 921.535156 273.773438 C 921.449219 273.796875 921.363281 273.804688 921.277344 273.804688 " fill-opacity="1" fill-rule="nonzero"/><path fill="#99b9ff" d="M 893.074219 297.027344 C 891.296875 283.023438 900.273438 270.355469 913.113281 268.730469 C 914.519531 268.554688 919.738281 268.417969 921.109375 268.511719 C 932.25 269.261719 937.992188 278.675781 939.570312 291.144531 C 941.269531 304.589844 936.148438 317.152344 924.125 319.542969 C 923.625 319.644531 920.066406 319.925781 919.550781 319.925781 C 905.476562 319.972656 894.84375 311.03125 893.074219 297.027344 " fill-opacity="1" fill-rule="nonzero"/><path fill="#5479f7" d="M 898.621094 296.574219 C 897.125 282.535156 906.347656 270.046875 919.214844 268.675781 C 932.082031 267.300781 943.730469 277.566406 945.230469 291.601562 C 946.726562 305.640625 937.503906 318.128906 924.640625 319.5 C 911.769531 320.871094 900.121094 310.609375 898.621094 296.574219 " fill-opacity="1" fill-rule="nonzero"/><path fill="#5479f7" d="M 859.921875 348.4375 L 834.164062 350.886719 C 833.179688 350.976562 832.296875 350.246094 832.207031 349.261719 L 831.453125 341.339844 C 831.355469 340.355469 832.089844 339.472656 833.074219 339.378906 L 858.832031 336.929688 C 859.816406 336.839844 860.699219 337.566406 860.792969 338.550781 L 861.542969 346.476562 C 861.636719 347.460938 860.910156 348.34375 859.921875 348.4375 " fill-opacity="1" fill-rule="nonzero"/><path fill="#99b9ff" d="M 754.3125 531.980469 L 854.605469 531.980469 L 815.648438 426.644531 L 715.359375 426.640625 L 754.3125 531.980469 " fill-opacity="1" fill-rule="nonzero"/><path fill="#000000" d="M 755.011719 530.976562 L 853.160156 530.976562 L 814.949219 427.648438 L 716.804688 427.648438 Z M 854.605469 532.992188 L 754.3125 532.992188 C 753.894531 532.992188 753.515625 532.726562 753.371094 532.332031 L 714.414062 426.992188 C 714.300781 426.683594 714.34375 426.335938 714.53125 426.066406 C 714.71875 425.796875 715.03125 425.636719 715.359375 425.636719 L 815.648438 425.636719 C 816.070312 425.636719 816.445312 425.898438 816.589844 426.296875 L 855.546875 531.636719 C 855.660156 531.941406 855.617188 532.289062 855.425781 532.558594 C 855.242188 532.828125 854.933594 532.992188 854.605469 532.992188 " fill-opacity="1" fill-rule="nonzero"/><path fill="#000000" d="M 878.53125 505.828125 C 893.261719 505.828125 913.195312 503.730469 925.96875 493.933594 C 933.332031 488.289062 937.632812 480.835938 938.753906 471.78125 C 943.78125 431.132812 894.722656 407.867188 892.636719 406.894531 C 888.867188 405.144531 884.398438 406.78125 882.648438 410.550781 C 880.902344 414.3125 882.53125 418.777344 886.292969 420.527344 C 886.707031 420.722656 927.511719 440.167969 923.828125 469.9375 C 923.214844 474.90625 920.921875 478.855469 916.816406 482 C 902.769531 492.769531 865.722656 492.5 855.105469 491.007812 C 850.992188 490.429688 848.976562 493.152344 848.402344 497.265625 C 847.824219 501.375 850.980469 505.308594 855.105469 505.757812 C 861.058594 506.414062 868.039062 505.828125 878.53125 505.828125 " fill-opacity="1" fill-rule="nonzero"/><path fill="#000000" d="M 823.03125 516.058594 L 837.472656 516.058594 C 845.363281 516.058594 851.90625 510.136719 852.6875 502.292969 L 853.191406 497.265625 C 853.621094 492.972656 852.207031 488.679688 849.3125 485.480469 C 846.421875 482.289062 842.285156 480.453125 837.972656 480.453125 L 814.941406 480.453125 C 810.792969 480.453125 807.421875 483.820312 807.421875 487.972656 C 807.421875 492.125 810.792969 495.492188 814.941406 495.492188 L 837.972656 495.492188 C 838.015625 495.492188 838.085938 495.492188 838.164062 495.574219 C 838.238281 495.65625 838.234375 495.726562 838.226562 495.769531 L 837.726562 500.792969 C 837.714844 500.925781 837.605469 501.023438 837.472656 501.023438 L 823.03125 501.023438 C 818.882812 501.023438 815.515625 504.386719 815.515625 508.542969 C 815.515625 512.691406 818.882812 516.058594 823.03125 516.058594 " fill-opacity="1" fill-rule="nonzero"/><path fill="#99b9ff" d="M 658.476562 151.132812 C 667.503906 148.300781 677.121094 153.328125 679.949219 162.359375 C 682.777344 171.390625 677.75 181.003906 668.722656 183.835938 C 659.695312 186.664062 650.078125 181.636719 647.25 172.609375 C 644.421875 163.578125 649.445312 153.964844 658.476562 151.132812 Z M 629.75 174.601562 L 631.738281 180.957031 L 638.984375 180.359375 C 639.710938 181.75 640.535156 183.0625 641.460938 184.28125 L 637.84375 190.578125 L 642.746094 195.078125 L 648.722656 190.941406 C 650.03125 191.769531 651.402344 192.488281 652.828125 193.089844 L 652.839844 200.359375 L 659.335938 201.8125 L 662.441406 195.25 C 663.972656 195.308594 665.519531 195.238281 667.074219 195.042969 L 670.722656 201.332031 L 677.070312 199.34375 L 676.476562 192.097656 C 677.863281 191.371094 679.175781 190.546875 680.398438 189.621094 L 686.691406 193.238281 L 691.195312 188.335938 L 687.058594 182.359375 C 687.886719 181.054688 688.605469 179.679688 689.203125 178.257812 L 696.472656 178.242188 L 697.929688 171.746094 L 691.363281 168.644531 C 691.425781 167.113281 691.359375 165.5625 691.164062 164.007812 L 697.449219 160.359375 L 695.460938 154.011719 L 688.214844 154.605469 C 687.492188 153.214844 686.660156 151.90625 685.734375 150.6875 L 689.355469 144.390625 L 684.453125 139.886719 L 678.476562 144.023438 C 677.171875 143.195312 675.796875 142.480469 674.371094 141.878906 L 674.355469 134.609375 L 667.863281 133.15625 L 664.757812 139.71875 C 663.226562 139.65625 661.679688 139.722656 660.125 139.925781 L 656.476562 133.636719 L 650.128906 135.625 L 650.722656 142.871094 C 649.335938 143.59375 648.023438 144.417969 646.804688 145.347656 L 640.507812 141.730469 L 636.003906 146.625 L 640.140625 152.605469 C 639.3125 153.914062 638.59375 155.289062 637.996094 156.710938 L 630.722656 156.726562 L 629.273438 163.21875 L 635.835938 166.324219 C 635.773438 167.855469 635.839844 169.402344 636.039062 170.957031 L 629.75 174.601562 " fill-opacity="1" fill-rule="nonzero"/><path fill="#caddff" d="M 592.253906 145.777344 C 598.242188 143.898438 604.617188 147.234375 606.496094 153.222656 C 608.371094 159.210938 605.039062 165.585938 599.050781 167.460938 C 593.0625 169.339844 586.6875 166.007812 584.808594 160.019531 C 582.933594 154.03125 586.265625 147.65625 592.253906 145.777344 Z M 573.203125 161.34375 L 574.523438 165.554688 L 579.328125 165.160156 C 579.808594 166.078125 580.355469 166.949219 580.96875 167.757812 L 578.570312 171.933594 L 581.820312 174.921875 L 585.785156 172.175781 C 586.652344 172.726562 587.5625 173.199219 588.507812 173.601562 L 588.515625 178.421875 L 592.824219 179.382812 L 594.882812 175.03125 C 595.898438 175.074219 596.925781 175.027344 597.957031 174.898438 L 600.375 179.066406 L 604.585938 177.746094 L 604.191406 172.941406 C 605.113281 172.464844 605.980469 171.914062 606.792969 171.300781 L 610.964844 173.699219 L 613.953125 170.449219 L 611.207031 166.484375 C 611.757812 165.621094 612.234375 164.710938 612.632812 163.765625 L 617.453125 163.753906 L 618.417969 159.449219 L 614.0625 157.386719 C 614.105469 156.371094 614.0625 155.347656 613.929688 154.3125 L 618.101562 151.898438 L 616.78125 147.683594 L 611.976562 148.082031 C 611.496094 147.15625 610.945312 146.289062 610.332031 145.476562 L 612.730469 141.304688 L 609.484375 138.316406 L 605.519531 141.0625 C 604.652344 140.511719 603.742188 140.035156 602.796875 139.636719 L 602.785156 134.816406 L 598.480469 133.855469 L 596.421875 138.207031 C 595.40625 138.164062 594.378906 138.207031 593.347656 138.339844 L 590.929688 134.171875 L 586.71875 135.488281 L 587.109375 140.296875 C 586.191406 140.777344 585.320312 141.324219 584.511719 141.9375 L 580.335938 139.539062 L 577.351562 142.789062 L 580.09375 146.753906 C 579.546875 147.621094 579.070312 148.53125 578.671875 149.472656 L 573.847656 149.488281 L 572.886719 153.792969 L 577.238281 155.851562 C 577.195312 156.863281 577.242188 157.894531 577.375 158.921875 L 573.203125 161.34375 " fill-opacity="1" fill-rule="nonzero"/><path fill="#000000" d="M 925.980469 196.617188 C 925.929688 196.617188 925.878906 196.613281 925.820312 196.605469 C 925.273438 196.523438 924.898438 196.007812 924.984375 195.457031 L 925.796875 190.304688 C 925.882812 189.757812 926.402344 189.382812 926.945312 189.46875 C 927.492188 189.558594 927.871094 190.070312 927.785156 190.617188 L 926.972656 195.769531 C 926.894531 196.265625 926.464844 196.617188 925.980469 196.617188 " fill-opacity="1" fill-rule="nonzero"/><path fill="#000000" d="M 923.136719 214.648438 C 923.085938 214.648438 923.027344 214.644531 922.980469 214.636719 C 922.429688 214.546875 922.054688 214.035156 922.140625 213.488281 L 922.953125 208.335938 C 923.039062 207.785156 923.558594 207.414062 924.101562 207.496094 C 924.652344 207.585938 925.027344 208.101562 924.941406 208.648438 L 924.132812 213.800781 C 924.050781 214.296875 923.621094 214.648438 923.136719 214.648438 " fill-opacity="1" fill-rule="nonzero"/><path fill="#000000" d="M 918.636719 201.960938 C 918.578125 201.960938 918.519531 201.960938 918.464844 201.949219 L 913.402344 201.074219 C 912.855469 200.980469 912.488281 200.457031 912.582031 199.910156 C 912.675781 199.363281 913.195312 198.996094 913.746094 199.089844 L 918.808594 199.964844 C 919.351562 200.058594 919.722656 200.582031 919.628906 201.132812 C 919.542969 201.617188 919.117188 201.960938 918.636719 201.960938 " fill-opacity="1" fill-rule="nonzero"/><path fill="#000000" d="M 936.359375 205.027344 C 936.296875 205.027344 936.242188 205.023438 936.183594 205.011719 L 931.121094 204.136719 C 930.574219 204.042969 930.207031 203.519531 930.304688 202.972656 C 930.398438 202.425781 930.910156 202.0625 931.46875 202.15625 L 936.527344 203.027344 C 937.074219 203.121094 937.445312 203.644531 937.351562 204.191406 C 937.261719 204.679688 936.839844 205.027344 936.359375 205.027344 " fill-opacity="1" fill-rule="nonzero"/><path fill="#000000" d="M 899.847656 553.042969 C 899.792969 553.042969 899.742188 553.039062 899.6875 553.03125 C 899.136719 552.941406 898.765625 552.429688 898.851562 551.878906 L 899.664062 546.726562 C 899.75 546.179688 900.265625 545.800781 900.816406 545.890625 C 901.359375 545.976562 901.738281 546.492188 901.648438 547.042969 L 900.839844 552.191406 C 900.761719 552.6875 900.332031 553.042969 899.847656 553.042969 " fill-opacity="1" fill-rule="nonzero"/><path fill="#000000" d="M 897 571.074219 C 896.949219 571.074219 896.894531 571.066406 896.84375 571.058594 C 896.292969 570.972656 895.921875 570.457031 896.003906 569.910156 L 896.816406 564.757812 C 896.902344 564.210938 897.417969 563.835938 897.96875 563.921875 C 898.515625 564.011719 898.890625 564.523438 898.804688 565.074219 L 897.992188 570.222656 C 897.914062 570.71875 897.484375 571.074219 897 571.074219 " fill-opacity="1" fill-rule="nonzero"/><path fill="#000000" d="M 892.503906 558.386719 C 892.445312 558.386719 892.386719 558.382812 892.328125 558.371094 L 887.265625 557.496094 C 886.714844 557.402344 886.351562 556.882812 886.445312 556.335938 C 886.539062 555.789062 887.058594 555.421875 887.609375 555.515625 L 892.671875 556.390625 C 893.214844 556.488281 893.585938 557.007812 893.492188 557.550781 C 893.40625 558.042969 892.980469 558.386719 892.503906 558.386719 " fill-opacity="1" fill-rule="nonzero"/><path fill="#000000" d="M 910.222656 561.449219 C 910.164062 561.449219 910.105469 561.445312 910.050781 561.4375 L 904.988281 560.5625 C 904.441406 560.464844 904.074219 559.945312 904.167969 559.398438 C 904.261719 558.847656 904.777344 558.484375 905.332031 558.578125 L 910.394531 559.453125 C 910.941406 559.546875 911.308594 560.070312 911.210938 560.617188 C 911.128906 561.105469 910.703125 561.449219 910.222656 561.449219 " fill-opacity="1" fill-rule="nonzero"/><path fill="#ffffff" d="M 841.6875 579.4375 C 843.328125 579.203125 845.152344 579.335938 847.15625 580.007812 L 870.957031 585.242188 C 870.957031 585.242188 865.699219 591.699219 860.222656 592.066406 C 863.1875 596.675781 864.886719 600.773438 864.886719 600.773438 C 864.886719 600.773438 875.433594 603.390625 877.609375 604.355469 C 879.78125 605.316406 882.90625 606.378906 884.425781 608.648438 C 885.957031 610.921875 885.777344 614.34375 885.777344 614.34375 L 860.519531 612.753906 L 837.851562 593.773438 L 796.253906 614.410156 L 798.101562 588.78125 L 841.6875 579.4375 " fill-opacity="1" fill-rule="nonzero"/><path fill="#000000" d="M 860.910156 611.773438 L 884.753906 613.273438 C 884.683594 612.1875 884.4375 610.464844 883.589844 609.210938 C 882.449219 607.507812 880.078125 606.5 878.167969 605.691406 C 877.832031 605.550781 877.507812 605.410156 877.199219 605.273438 C 875.480469 604.511719 867.550781 602.46875 864.640625 601.75 C 864.332031 601.671875 864.078125 601.453125 863.953125 601.160156 C 863.941406 601.117188 862.25 597.082031 859.375 592.613281 C 859.179688 592.3125 859.164062 591.933594 859.324219 591.617188 C 859.484375 591.296875 859.800781 591.089844 860.152344 591.066406 C 863.714844 590.824219 867.28125 587.660156 869.042969 585.851562 L 846.9375 580.988281 C 846.90625 580.980469 846.867188 580.972656 846.835938 580.960938 C 845.128906 580.390625 843.457031 580.210938 841.863281 580.429688 L 799.046875 589.609375 L 797.382812 612.726562 L 837.402344 592.875 C 837.757812 592.699219 838.183594 592.746094 838.492188 593.003906 Z M 796.253906 615.417969 C 796.054688 615.417969 795.859375 615.363281 795.691406 615.246094 C 795.394531 615.046875 795.222656 614.699219 795.25 614.339844 L 797.097656 588.710938 C 797.132812 588.265625 797.449219 587.894531 797.886719 587.800781 L 841.476562 578.453125 C 841.5 578.449219 841.523438 578.441406 841.546875 578.441406 C 843.441406 578.171875 845.421875 578.371094 847.421875 579.035156 L 871.167969 584.261719 C 871.511719 584.332031 871.789062 584.582031 871.90625 584.910156 C 872.019531 585.242188 871.957031 585.605469 871.734375 585.878906 C 871.53125 586.128906 867.074219 591.539062 861.878906 592.820312 C 863.847656 596.058594 865.136719 598.839844 865.609375 599.917969 C 867.738281 600.449219 876.035156 602.554688 878.015625 603.4375 C 878.3125 603.570312 878.628906 603.703125 878.957031 603.839844 C 881.105469 604.753906 883.78125 605.890625 885.261719 608.089844 C 886.957031 610.609375 886.789062 614.242188 886.78125 614.394531 C 886.769531 614.664062 886.648438 614.914062 886.449219 615.09375 C 886.246094 615.269531 885.984375 615.363281 885.714844 615.347656 L 860.453125 613.757812 C 860.242188 613.746094 860.035156 613.664062 859.871094 613.527344 L 837.707031 594.96875 L 796.699219 615.3125 C 796.558594 615.382812 796.402344 615.417969 796.253906 615.417969 " fill-opacity="1" fill-rule="nonzero"/><path fill="#5479f7" d="M 840.484375 601.121094 C 840.484375 601.121094 825.402344 577.652344 825.375 577.621094 C 824.191406 575.773438 814.269531 578.722656 812.4375 578.828125 C 805.859375 579.207031 799.019531 578.136719 792.464844 577.410156 C 778.464844 575.855469 764.539062 573.605469 750.765625 570.660156 C 739.515625 568.257812 728.199219 565.328125 718.234375 559.585938 C 705.109375 552.027344 698.222656 540.25 692.96875 526.507812 C 688.996094 516.125 684.257812 507.445312 678.332031 497.9375 C 669.5625 483.867188 655 472.320312 642.910156 466.324219 C 624.132812 457.007812 602.292969 452.507812 581.488281 456.660156 C 541.335938 464.671875 513.878906 488.074219 513.878906 488.074219 C 492.03125 505.511719 451.683594 566.324219 466.066406 595.601562 C 483.710938 631.511719 531.273438 610.503906 531.273438 610.503906 C 531.273438 610.503906 535.890625 618.042969 525.96875 640.96875 C 513.914062 668.816406 531.378906 672.542969 531.378906 672.542969 C 571.980469 692.394531 679.53125 687.957031 670.359375 665.792969 C 660.542969 642.066406 660.378906 611.988281 660.378906 611.988281 C 673.949219 625.40625 703.335938 628.242188 703.335938 628.242188 C 703.335938 628.242188 728.148438 630.589844 743.90625 627.910156 C 832.082031 614.832031 840.484375 601.121094 840.484375 601.121094 " fill-opacity="1" fill-rule="nonzero"/><path fill="#000000" d="M 531.878906 592.988281 C 531.464844 592.988281 531.074219 592.726562 530.929688 592.3125 C 517.488281 553.421875 523.730469 522.007812 523.796875 521.695312 C 523.910156 521.152344 524.445312 520.800781 524.984375 520.914062 C 525.527344 521.027344 525.878906 521.558594 525.765625 522.105469 C 525.703125 522.410156 519.582031 553.316406 532.832031 591.65625 C 533.011719 592.179688 532.734375 592.75 532.207031 592.933594 C 532.101562 592.972656 531.988281 592.988281 531.878906 592.988281 " fill-opacity="1" fill-rule="nonzero"/><path fill="#000000" d="M 659.582031 613.203125 C 659.328125 613.203125 659.074219 613.109375 658.875 612.917969 C 637.867188 592.398438 623.238281 544.742188 622.625 542.71875 C 622.464844 542.1875 622.765625 541.628906 623.296875 541.464844 C 623.828125 541.304688 624.390625 541.605469 624.550781 542.136719 C 624.699219 542.625 639.644531 591.324219 660.28125 611.480469 C 660.679688 611.871094 660.6875 612.503906 660.300781 612.902344 C 660.101562 613.105469 659.839844 613.203125 659.582031 613.203125 " fill-opacity="1" fill-rule="nonzero"/><path fill="#ffffff" d="M 604.414062 361.5625 C 612.527344 361.597656 620.007812 365.988281 624.078125 373.003906 C 625.96875 376.253906 627.683594 379.285156 628.027344 380.140625 C 628.820312 382.089844 630.558594 388.640625 636.9375 394.949219 C 637.566406 395.574219 637.65625 396.558594 637.109375 397.257812 L 633.023438 402.484375 C 632.742188 402.84375 632.625 403.304688 632.703125 403.753906 C 633.1875 406.539062 635.621094 416.65625 634.902344 418.480469 C 633.378906 422.351562 624.128906 423.398438 621.386719 423.625 C 620.875 423.667969 620.414062 423.957031 620.164062 424.40625 C 619.277344 426.011719 616.929688 430.605469 615.007812 442.070312 C 612.074219 459.53125 628.722656 462.25 625.332031 463.960938 C 601.679688 475.898438 558.121094 473.183594 560.648438 468.21875 C 562.726562 464.132812 586.625 453.558594 588.847656 424.835938 C 590.234375 406.921875 565.148438 405.449219 583.226562 371.351562 C 587.425781 363.421875 596.523438 361.527344 604.414062 361.5625 " fill-opacity="1" fill-rule="nonzero"/><path fill="#000000" d="M 561.574219 468.617188 C 561.683594 468.742188 562.066406 469.09375 563.289062 469.519531 C 571.792969 472.480469 604.351562 473.15625 624.414062 463.292969 C 624.089844 463.039062 623.640625 462.726562 623.25 462.449219 C 619.566406 459.875 611.898438 454.515625 614.015625 441.902344 C 615.367188 433.84375 617.140625 427.789062 619.285156 423.921875 C 619.695312 423.179688 620.449219 422.695312 621.304688 422.625 C 626.496094 422.191406 632.925781 420.75 633.96875 418.109375 C 634.410156 416.957031 632.925781 409.847656 632.292969 406.816406 C 632.042969 405.613281 631.828125 404.574219 631.710938 403.925781 C 631.585938 403.199219 631.773438 402.445312 632.230469 401.863281 L 636.316406 396.636719 C 636.542969 396.347656 636.503906 395.9375 636.230469 395.667969 C 630.511719 390.007812 628.441406 384.234375 627.445312 381.457031 C 627.308594 381.078125 627.195312 380.761719 627.097656 380.519531 C 626.941406 380.128906 626.226562 378.703125 623.210938 373.507812 C 619.3125 366.796875 612.109375 362.605469 604.410156 362.566406 C 604.339844 362.566406 604.269531 362.566406 604.199219 362.566406 C 597.222656 362.566406 588.160156 364.191406 584.113281 371.820312 C 572.929688 392.921875 578.550781 401 583.988281 408.816406 C 587.132812 413.335938 590.386719 418.011719 589.851562 424.910156 C 588.109375 447.417969 573.523438 458.839844 565.6875 464.976562 C 563.71875 466.519531 562.011719 467.855469 561.574219 468.617188 Z M 581.53125 473.429688 C 570.695312 473.429688 562.160156 472.054688 560.195312 470.082031 C 559.511719 469.398438 559.347656 468.550781 559.75 467.761719 C 560.335938 466.613281 561.972656 465.332031 564.449219 463.394531 C 572.039062 457.449219 586.171875 446.382812 587.847656 424.753906 C 588.324219 418.570312 585.417969 414.390625 582.339844 409.964844 C 576.824219 402.042969 570.578125 393.0625 582.335938 370.878906 C 585.917969 364.121094 593.472656 360.554688 604.191406 360.554688 C 604.269531 360.554688 604.34375 360.554688 604.417969 360.554688 C 612.828125 360.59375 620.695312 365.171875 624.949219 372.5 C 628.484375 378.589844 628.84375 379.472656 628.960938 379.761719 C 629.066406 380.023438 629.191406 380.367188 629.335938 380.78125 C 630.285156 383.414062 632.253906 388.898438 637.644531 394.234375 C 638.640625 395.222656 638.75 396.789062 637.898438 397.878906 L 633.816406 403.101562 C 633.707031 403.242188 633.664062 403.410156 633.695312 403.578125 C 633.800781 404.199219 634.015625 405.21875 634.261719 406.402344 C 635.75 413.539062 636.402344 417.421875 635.839844 418.847656 C 634.152344 423.128906 625.230469 424.316406 621.472656 424.628906 C 621.289062 424.644531 621.128906 424.742188 621.042969 424.894531 C 618.511719 429.464844 616.902344 436.847656 616 442.234375 C 614.089844 453.589844 620.800781 458.28125 624.40625 460.800781 C 625.9375 461.875 626.867188 462.519531 626.792969 463.542969 C 626.765625 463.925781 626.566406 464.460938 625.785156 464.855469 C 613.347656 471.132812 595.523438 473.429688 581.53125 473.429688 " fill-opacity="1" fill-rule="nonzero"/><path fill="#000000" d="M 618.207031 389.175781 L 627.667969 377.332031 C 632.523438 371.257812 630.828125 362.304688 624.105469 358.390625 C 622.246094 357.300781 620.058594 356.167969 617.613281 355.113281 C 593.308594 344.648438 565.464844 361.917969 565.441406 388.378906 C 565.429688 399.207031 572.671875 411.761719 588.058594 422.917969 C 588.058594 422.917969 598.871094 414.390625 598.734375 405.167969 C 598.734375 405.167969 590.886719 395.855469 601.941406 391.148438 C 604.058594 390.246094 606.476562 390.316406 608.539062 391.332031 C 611.867188 392.972656 615.890625 392.078125 618.207031 389.175781 " fill-opacity="1" fill-rule="nonzero"/><path fill="#000000" d="M 603.789062 410.414062 C 600.644531 410.414062 596.628906 409.070312 593.644531 403.429688 C 593.382812 402.9375 593.570312 402.324219 594.0625 402.066406 C 594.554688 401.804688 595.160156 401.996094 595.421875 402.488281 C 600.132812 411.394531 607.53125 407.6875 607.84375 407.527344 C 608.335938 407.269531 608.941406 407.460938 609.199219 407.953125 C 609.457031 408.445312 609.269531 409.050781 608.777344 409.308594 C 608.734375 409.332031 606.613281 410.414062 603.789062 410.414062 " fill-opacity="1" fill-rule="nonzero"/><path fill="#000000" d="M 578.105469 363.261719 C 578.105469 363.261719 569.898438 334.871094 539.960938 340.21875 C 521.269531 343.550781 504.945312 356.113281 495.976562 376.605469 C 489.34375 391.773438 489.617188 405.195312 488.15625 421.09375 C 486.851562 435.3125 474.1875 444.808594 471.320312 458.332031 C 467.820312 474.839844 483.886719 486.746094 499.367188 483.675781 C 516.660156 480.25 532.703125 462.171875 539.785156 447.023438 C 547.101562 431.371094 548.308594 413.984375 552.011719 397.328125 C 553.613281 390.113281 554.824219 380.144531 560.570312 375.148438 C 563.519531 372.582031 573.21875 372.300781 574.898438 369.191406 C 574.902344 369.1875 578.105469 363.261719 578.105469 363.261719 " fill-opacity="1" fill-rule="nonzero"/></svg>