<svg xmlns="http://www.w3.org/2000/svg" xmlns:xlink="http://www.w3.org/1999/xlink" width="1920" zoomAndPan="magnify" viewBox="0 0 1440 809.999993" height="1080" preserveAspectRatio="xMidYMid meet" version="1.0"><defs><clipPath id="5ecd6c9d73"><path d="M 56.230469 53.816406 L 1384 53.816406 L 1384 756.183594 L 56.230469 756.183594 Z M 56.230469 53.816406 " clip-rule="nonzero"/></clipPath><clipPath id="7d484e1455"><path d="M 81.730469 53.816406 L 1358.269531 53.816406 C 1365.03125 53.816406 1371.519531 56.503906 1376.300781 61.285156 C 1381.082031 66.066406 1383.769531 72.554688 1383.769531 79.316406 L 1383.769531 730.683594 C 1383.769531 737.445312 1381.082031 743.933594 1376.300781 748.714844 C 1371.519531 753.496094 1365.03125 756.183594 1358.269531 756.183594 L 81.730469 756.183594 C 74.96875 756.183594 68.480469 753.496094 63.699219 748.714844 C 58.917969 743.933594 56.230469 737.445312 56.230469 730.683594 L 56.230469 79.316406 C 56.230469 72.554688 58.917969 66.066406 63.699219 61.285156 C 68.480469 56.503906 74.96875 53.816406 81.730469 53.816406 Z M 81.730469 53.816406 " clip-rule="nonzero"/></clipPath><clipPath id="eca95b0f16"><path d="M 56.230469 53.816406 L 1383.730469 53.816406 L 1383.730469 755.816406 L 56.230469 755.816406 Z M 56.230469 53.816406 " clip-rule="nonzero"/></clipPath><clipPath id="39ec90e6e5"><path d="M 81.730469 53.816406 L 1358.265625 53.816406 C 1365.027344 53.816406 1371.515625 56.503906 1376.296875 61.285156 C 1381.078125 66.066406 1383.765625 72.554688 1383.765625 79.316406 L 1383.765625 730.679688 C 1383.765625 737.441406 1381.078125 743.929688 1376.296875 748.710938 C 1371.515625 753.492188 1365.027344 756.179688 1358.265625 756.179688 L 81.730469 756.179688 C 74.96875 756.179688 68.480469 753.492188 63.699219 748.710938 C 58.917969 743.929688 56.230469 737.441406 56.230469 730.679688 L 56.230469 79.316406 C 56.230469 72.554688 58.917969 66.066406 63.699219 61.285156 C 68.480469 56.503906 74.96875 53.816406 81.730469 53.816406 Z M 81.730469 53.816406 " clip-rule="nonzero"/></clipPath></defs><rect x="-144" width="1728" fill="#ffffff" y="-80.999999" height="971.999992" fill-opacity="1"/><rect x="-144" width="1728" fill="#ffcbbe" y="-80.999999" height="971.999992" fill-opacity="1"/><g clip-path="url(#5ecd6c9d73)"><g clip-path="url(#7d484e1455)"><path fill="#ffffff" d="M 56.230469 53.816406 L 1384.140625 53.816406 L 1384.140625 756.183594 L 56.230469 756.183594 Z M 56.230469 53.816406 " fill-opacity="1" fill-rule="nonzero"/></g></g><g clip-path="url(#eca95b0f16)"><g clip-path="url(#39ec90e6e5)"><path stroke-linecap="butt" transform="matrix(0.75, 0, 0, 0.75, 56.231257, 53.816969)" fill="none" stroke-linejoin="miter" d="M 33.998951 -0.000750723 L 1736.045911 -0.000750723 C 1745.061537 -0.000750723 1753.712579 3.582583 1760.087579 9.957583 C 1766.46258 16.332583 1770.045913 24.983626 1770.045913 33.999251 L 1770.045913 902.48367 C 1770.045913 911.499295 1766.46258 920.150337 1760.087579 926.525338 C 1753.712579 932.900338 1745.061537 936.483671 1736.045911 936.483671 L 33.998951 936.483671 C 24.983325 936.483671 16.332283 932.900338 9.957283 926.525338 C 3.582283 920.150337 -0.00105099 911.499295 -0.00105099 902.48367 L -0.00105099 33.999251 C -0.00105099 24.983626 3.582283 16.332583 9.957283 9.957583 C 16.332283 3.582583 24.983325 -0.000750723 33.998951 -0.000750723 Z M 33.998951 -0.000750723 " stroke="#000000" stroke-width="4" stroke-opacity="1" stroke-miterlimit="4"/></g></g><path fill="#caddff" d="M 1043.144531 318.871094 C 1011.613281 194.886719 901.328125 106.238281 785.609375 95.402344 C 661.394531 83.765625 556.558594 164.199219 536.890625 204.667969 C 530.363281 218.101562 527.011719 231.285156 527.011719 231.285156 C 519.625 267.296875 538.253906 296.535156 519.808594 393.996094 C 500.195312 497.613281 465.863281 534.710938 487.625 587.523438 C 505.414062 630.699219 546.988281 651.121094 573.5625 664.175781 C 668.421875 710.761719 835.78125 726.523438 951.992188 615.734375 C 960.109375 608 1085.261719 484.488281 1043.144531 318.871094 " fill-opacity="1" fill-rule="nonzero"/><path fill="#5479f7" d="M 585.292969 301.550781 L 559.757812 305.078125 C 556.609375 305.511719 554.003906 307.738281 553.082031 310.789062 L 548.40625 326.257812 L 538.042969 312.328125 C 536.273438 309.949219 533.347656 308.722656 530.410156 309.128906 L 506.925781 312.367188 C 502.476562 312.984375 498.371094 309.871094 497.757812 305.414062 L 490.886719 255.496094 C 490.273438 251.035156 493.382812 246.929688 497.832031 246.316406 L 576.199219 235.496094 C 580.648438 234.882812 584.753906 237.996094 585.367188 242.453125 L 592.238281 292.371094 C 592.851562 296.828125 589.742188 300.9375 585.292969 301.550781 " fill-opacity="1" fill-rule="nonzero"/><path fill="#ffffff" d="M 552.933594 262.371094 C 550.9375 260.691406 548.402344 259.953125 545.789062 260.289062 C 543.835938 260.539062 542.128906 261.386719 540.707031 262.808594 C 539.992188 263.527344 539.371094 264.371094 538.847656 265.335938 C 538.101562 264.539062 537.285156 263.875 536.410156 263.359375 C 534.679688 262.34375 532.8125 261.957031 530.859375 262.207031 C 528.246094 262.542969 525.976562 263.898438 524.472656 266.023438 C 522.980469 268.128906 522.355469 270.816406 522.714844 273.605469 C 523.082031 276.464844 524.484375 278.953125 527.125 281.425781 C 529.492188 283.636719 532.757812 285.769531 536.539062 288.242188 C 537.828125 289.085938 539.292969 290.039062 540.816406 291.066406 C 541.21875 291.332031 541.703125 291.449219 542.1875 291.386719 C 542.667969 291.328125 543.109375 291.089844 543.429688 290.730469 C 544.644531 289.355469 545.820312 288.054688 546.859375 286.914062 C 549.894531 283.566406 552.515625 280.675781 554.246094 277.941406 C 556.179688 274.878906 556.910156 272.121094 556.542969 269.253906 C 556.1875 266.472656 554.90625 264.027344 552.933594 262.371094 " fill-opacity="1" fill-rule="nonzero"/><path fill="#000000" d="M 860.519531 695.304688 L 600.726562 695.304688 C 589.53125 695.304688 581.601562 686.25 583.015625 675.089844 L 646.984375 169.441406 C 648.398438 158.277344 658.617188 149.222656 669.8125 149.222656 L 916.566406 146.339844 C 944.890625 146.339844 948.734375 158.277344 947.320312 169.441406 L 883.351562 675.089844 C 881.9375 686.25 871.714844 695.304688 860.519531 695.304688 " fill-opacity="1" fill-rule="nonzero"/><path fill="#ffffff" d="M 844.882812 695.304688 L 585.09375 695.304688 C 573.898438 695.304688 565.96875 686.226562 567.378906 675.023438 L 631.351562 167.769531 C 632.761719 156.570312 642.984375 147.488281 654.179688 147.488281 L 913.96875 147.488281 C 925.164062 147.488281 933.097656 156.570312 931.683594 167.769531 L 867.710938 675.023438 C 866.300781 686.226562 856.082031 695.304688 844.882812 695.304688 " fill-opacity="1" fill-rule="nonzero"/><path fill="#99b9ff" d="M 582.1875 675.71875 L 643.265625 191.378906 C 643.59375 188.792969 645.953125 186.695312 648.539062 186.695312 L 909.726562 186.695312 C 912.3125 186.695312 914.140625 188.792969 913.816406 191.378906 L 852.738281 675.71875 C 852.410156 678.308594 850.054688 680.402344 847.46875 680.402344 L 586.277344 680.402344 C 583.691406 680.402344 581.859375 678.308594 582.1875 675.71875 " fill-opacity="1" fill-rule="nonzero"/><path fill="#caddff" d="M 780.824219 173.289062 C 776.625 173.289062 773.660156 169.882812 774.1875 165.6875 C 774.714844 161.492188 778.546875 158.089844 782.738281 158.089844 C 786.929688 158.089844 789.902344 161.492188 789.375 165.6875 C 788.847656 169.882812 785.015625 173.289062 780.824219 173.289062 " fill-opacity="1" fill-rule="nonzero"/><path fill="#000000" d="M 844.890625 696.394531 L 585.09375 696.394531 C 579.390625 696.394531 574.292969 694.175781 570.742188 690.140625 C 567.148438 686.066406 565.570312 680.648438 566.296875 674.886719 L 567.121094 668.363281 C 567.195312 667.761719 567.738281 667.339844 568.339844 667.414062 C 568.941406 667.488281 569.363281 668.035156 569.289062 668.636719 L 568.464844 675.15625 C 567.816406 680.289062 569.207031 685.097656 572.378906 688.699219 C 575.511719 692.253906 580.027344 694.210938 585.09375 694.210938 L 844.890625 694.210938 C 855.53125 694.210938 865.289062 685.542969 866.632812 674.886719 L 930.605469 167.632812 C 931.25 162.5 929.859375 157.6875 926.6875 154.089844 C 923.558594 150.535156 919.039062 148.578125 913.976562 148.578125 L 654.179688 148.578125 C 643.535156 148.578125 633.777344 157.246094 632.433594 167.90625 L 609.53125 349.53125 C 609.453125 350.128906 608.910156 350.554688 608.308594 350.476562 C 607.710938 350.398438 607.289062 349.851562 607.363281 349.253906 L 630.269531 167.632812 C 631.746094 155.917969 642.472656 146.394531 654.179688 146.394531 L 913.976562 146.394531 C 919.675781 146.394531 924.773438 148.613281 928.324219 152.644531 C 931.917969 156.722656 933.496094 162.144531 932.769531 167.90625 L 868.800781 675.15625 C 867.324219 686.871094 856.597656 696.394531 844.890625 696.394531 " fill-opacity="1" fill-rule="nonzero"/><path fill="#ffffff" d="M 871.019531 361.515625 C 877.320312 361.515625 881.738281 366.625 880.878906 372.929688 L 870.246094 451.480469 C 869.394531 457.785156 863.597656 462.894531 857.292969 462.894531 L 676.222656 462.894531 C 669.921875 462.894531 665.507812 457.785156 666.359375 451.480469 L 676.996094 372.929688 C 677.851562 366.625 683.648438 361.515625 689.949219 361.515625 L 871.019531 361.515625 " fill-opacity="1" fill-rule="nonzero"/><path fill="#000000" d="M 711.242188 463.984375 L 676.222656 463.984375 C 672.875 463.984375 669.890625 462.679688 667.820312 460.304688 C 665.722656 457.90625 664.820312 454.71875 665.28125 451.332031 L 675.914062 372.785156 C 676.835938 365.96875 683.132812 360.421875 689.949219 360.421875 L 732.640625 360.421875 C 733.246094 360.421875 733.734375 360.914062 733.734375 361.515625 C 733.734375 362.117188 733.246094 362.605469 732.640625 362.605469 L 689.949219 362.605469 C 684.183594 362.605469 678.859375 367.304688 678.078125 373.078125 L 667.441406 451.625 C 667.070312 454.378906 667.789062 456.949219 669.464844 458.867188 C 671.117188 460.761719 673.515625 461.800781 676.222656 461.800781 L 711.242188 461.800781 C 711.847656 461.800781 712.332031 462.292969 712.332031 462.894531 C 712.332031 463.5 711.847656 463.984375 711.242188 463.984375 " fill-opacity="1" fill-rule="nonzero"/><path fill="#000000" d="M 857.292969 463.984375 L 761.902344 463.984375 C 761.300781 463.984375 760.8125 463.5 760.8125 462.894531 C 760.8125 462.292969 761.300781 461.800781 761.902344 461.800781 L 857.292969 461.800781 C 863.058594 461.800781 868.382812 457.105469 869.164062 451.332031 L 879.800781 372.785156 C 880.171875 370.03125 879.457031 367.460938 877.777344 365.539062 C 876.128906 363.648438 873.730469 362.605469 871.019531 362.605469 L 835.542969 362.605469 C 834.9375 362.605469 834.449219 362.117188 834.449219 361.515625 C 834.449219 360.914062 834.9375 360.421875 835.542969 360.421875 L 871.019531 360.421875 C 874.367188 360.421875 877.351562 361.730469 879.425781 364.101562 C 881.519531 366.503906 882.421875 369.691406 881.964844 373.078125 L 871.328125 451.625 C 870.40625 458.445312 864.109375 463.984375 857.292969 463.984375 " fill-opacity="1" fill-rule="nonzero"/><path fill="#99b9ff" d="M 847.597656 394.855469 L 701.28125 396.203125 C 697.132812 396.246094 694.203125 393.878906 694.738281 390.921875 C 695.273438 387.96875 699.070312 385.542969 703.21875 385.503906 L 849.535156 384.148438 C 853.683594 384.113281 856.613281 386.476562 856.082031 389.429688 C 855.542969 392.386719 851.746094 394.816406 847.597656 394.855469 " fill-opacity="1" fill-rule="nonzero"/><path fill="#caddff" d="M 810.660156 418.210938 L 696.25 419.265625 C 693.003906 419.296875 690.710938 416.925781 691.121094 413.972656 C 691.535156 411.015625 694.5 408.597656 697.742188 408.566406 L 812.152344 407.511719 C 815.402344 407.480469 817.695312 409.847656 817.285156 412.804688 C 816.871094 415.757812 813.90625 418.175781 810.660156 418.210938 " fill-opacity="1" fill-rule="nonzero"/><path fill="#caddff" d="M 831.148438 441.03125 L 694.351562 442.296875 C 690.472656 442.332031 687.730469 439.964844 688.230469 437.011719 C 688.726562 434.054688 692.277344 431.632812 696.15625 431.597656 L 832.953125 430.332031 C 836.832031 430.296875 839.570312 432.660156 839.074219 435.617188 C 838.574219 438.574219 835.027344 440.992188 831.148438 441.03125 " fill-opacity="1" fill-rule="nonzero"/><path fill="#ffffff" d="M 950.066406 245.871094 C 955.28125 245.871094 958.9375 250.105469 958.230469 255.324219 L 949.429688 320.34375 C 948.722656 325.566406 943.921875 329.792969 938.703125 329.792969 L 722.984375 329.792969 C 717.773438 329.792969 714.117188 325.566406 714.820312 320.34375 L 723.625 255.324219 C 724.332031 250.105469 729.132812 245.871094 734.347656 245.871094 L 950.066406 245.871094 " fill-opacity="1" fill-rule="nonzero"/><path fill="#000000" d="M 938.699219 330.882812 L 766.664062 330.882812 C 766.0625 330.882812 765.574219 330.398438 765.574219 329.796875 C 765.574219 329.191406 766.0625 328.699219 766.664062 328.699219 L 938.699219 328.699219 C 943.382812 328.699219 947.707031 324.890625 948.34375 320.199219 L 957.148438 255.175781 C 957.449219 252.953125 956.867188 250.878906 955.519531 249.332031 C 954.1875 247.804688 952.253906 246.964844 950.066406 246.964844 L 943.179688 246.964844 C 942.578125 246.964844 942.085938 246.476562 942.085938 245.875 C 942.085938 245.269531 942.578125 244.78125 943.179688 244.78125 L 950.066406 244.78125 C 952.894531 244.78125 955.414062 245.886719 957.160156 247.890625 C 958.933594 249.921875 959.699219 252.613281 959.308594 255.472656 L 950.507812 320.492188 C 949.730469 326.222656 944.4375 330.882812 938.699219 330.882812 " fill-opacity="1" fill-rule="nonzero"/><path fill="#99b9ff" d="M 930.292969 272.347656 L 751.261719 272.347656 C 748.433594 272.347656 746.445312 270.28125 746.832031 267.730469 C 747.214844 265.179688 749.820312 263.113281 752.652344 263.113281 L 931.683594 263.113281 C 934.511719 263.113281 936.5 265.179688 936.113281 267.730469 C 935.730469 270.28125 933.125 272.347656 930.292969 272.347656 " fill-opacity="1" fill-rule="nonzero"/><path fill="#caddff" d="M 896.550781 292.25 L 747.785156 292.25 C 745.394531 292.25 743.714844 290.179688 744.039062 287.628906 C 744.363281 285.078125 746.570312 283.011719 748.960938 283.011719 L 897.726562 283.011719 C 900.125 283.011719 901.800781 285.078125 901.480469 287.628906 C 901.152344 290.179688 898.949219 292.25 896.550781 292.25 " fill-opacity="1" fill-rule="nonzero"/><path fill="#caddff" d="M 887.785156 312.148438 L 744.871094 312.148438 C 742.558594 312.148438 740.941406 310.078125 741.253906 307.527344 C 741.566406 304.976562 743.695312 302.910156 746.003906 302.910156 L 888.917969 302.910156 C 891.230469 302.910156 892.851562 304.976562 892.535156 307.527344 C 892.222656 310.078125 890.09375 312.148438 887.785156 312.148438 " fill-opacity="1" fill-rule="nonzero"/><path fill="#ffffff" d="M 909.246094 511.90625 C 914.984375 511.90625 919.011719 517.351562 918.234375 524.070312 L 908.542969 607.753906 C 907.761719 614.46875 902.480469 619.914062 896.742188 619.914062 L 692.023438 619.914062 C 686.285156 619.914062 682.261719 614.46875 683.039062 607.753906 L 692.726562 524.070312 C 693.503906 517.351562 698.789062 511.90625 704.527344 511.90625 L 909.246094 511.90625 " fill-opacity="1" fill-rule="nonzero"/><path fill="#caddff" d="M 823.289062 538.265625 L 717.714844 538.265625 C 715.714844 538.265625 714.3125 535.871094 714.582031 532.921875 C 714.851562 529.96875 716.695312 527.578125 718.695312 527.578125 L 824.269531 527.578125 C 826.273438 527.578125 827.671875 529.96875 827.402344 532.921875 C 827.132812 535.871094 825.289062 538.265625 823.289062 538.265625 " fill-opacity="1" fill-rule="nonzero"/><path fill="#caddff" d="M 884.128906 561.277344 L 714.976562 561.277344 C 711.914062 561.277344 709.761719 558.882812 710.175781 555.933594 C 710.589844 552.984375 713.417969 550.589844 716.484375 550.589844 L 885.632812 550.589844 C 888.703125 550.589844 890.847656 552.984375 890.433594 555.933594 C 890.019531 558.882812 887.195312 561.277344 884.128906 561.277344 " fill-opacity="1" fill-rule="nonzero"/><path fill="#caddff" d="M 865.296875 584.289062 L 711.238281 584.289062 C 708.179688 584.289062 706.035156 581.898438 706.453125 578.945312 C 706.867188 575.996094 709.679688 573.601562 712.734375 573.601562 L 866.792969 573.601562 C 869.851562 573.601562 871.992188 575.996094 871.582031 578.945312 C 871.167969 581.898438 868.351562 584.289062 865.296875 584.289062 " fill-opacity="1" fill-rule="nonzero"/><path fill="#caddff" d="M 879.089844 605.222656 L 709.609375 605.222656 C 706.257812 605.222656 703.910156 602.828125 704.363281 599.878906 C 704.816406 596.929688 707.902344 594.535156 711.25 594.535156 L 880.734375 594.535156 C 884.082031 594.535156 886.429688 596.929688 885.976562 599.878906 C 885.519531 602.828125 882.4375 605.222656 879.089844 605.222656 " fill-opacity="1" fill-rule="nonzero"/><path fill="#ffffff" d="M 709.25 285.894531 C 709.25 304.96875 693.796875 320.429688 674.738281 320.429688 C 655.675781 320.429688 640.222656 304.96875 640.222656 285.894531 C 640.222656 266.820312 655.675781 251.359375 674.738281 251.359375 C 693.796875 251.359375 709.25 266.820312 709.25 285.894531 " fill-opacity="1" fill-rule="nonzero"/><path fill="#5479f7" d="M 695.304688 313.625 L 695.304688 307.167969 C 695.304688 302.566406 691.539062 298.796875 686.9375 298.796875 L 662.539062 298.796875 C 657.933594 298.796875 654.171875 302.566406 654.171875 307.167969 L 654.171875 313.828125 C 654.171875 317.265625 674.738281 320.441406 674.738281 320.441406 C 674.738281 320.441406 695.304688 317.46875 695.304688 313.625 " fill-opacity="1" fill-rule="nonzero"/><path fill="#000000" d="M 674.734375 252.457031 C 656.308594 252.457031 641.3125 267.457031 641.3125 285.894531 C 641.3125 304.335938 656.308594 319.335938 674.734375 319.335938 C 693.164062 319.335938 708.15625 304.335938 708.15625 285.894531 C 708.15625 267.457031 693.164062 252.457031 674.734375 252.457031 Z M 674.734375 321.519531 C 655.101562 321.519531 639.128906 305.539062 639.128906 285.894531 C 639.128906 266.25 655.101562 250.269531 674.734375 250.269531 C 694.371094 250.269531 710.34375 266.25 710.34375 285.894531 C 710.34375 305.539062 694.371094 321.519531 674.734375 321.519531 " fill-opacity="1" fill-rule="nonzero"/><path fill="#99b9ff" d="M 685.238281 272.652344 C 684.636719 272.652344 684.144531 272.164062 684.144531 271.5625 L 684.144531 266.878906 C 684.144531 266.273438 684.636719 265.785156 685.238281 265.785156 C 685.84375 265.785156 686.332031 266.273438 686.332031 266.878906 L 686.332031 271.5625 C 686.332031 272.164062 685.84375 272.652344 685.238281 272.652344 " fill-opacity="1" fill-rule="nonzero"/><path fill="#99b9ff" d="M 685.320312 263.765625 C 684.832031 263.765625 684.433594 264.164062 684.433594 264.652344 C 684.433594 265.140625 684.832031 265.542969 685.320312 265.542969 C 685.8125 265.542969 686.210938 265.140625 686.210938 264.652344 C 686.210938 264.164062 685.8125 263.765625 685.320312 263.765625 Z M 685.320312 267.726562 C 683.628906 267.726562 682.25 266.347656 682.25 264.652344 C 682.25 262.957031 683.628906 261.582031 685.320312 261.582031 C 687.015625 261.582031 688.394531 262.957031 688.394531 264.652344 C 688.394531 266.347656 687.015625 267.726562 685.320312 267.726562 " fill-opacity="1" fill-rule="nonzero"/><path fill="#99b9ff" d="M 664.070312 272.652344 C 663.464844 272.652344 662.976562 272.164062 662.976562 271.5625 L 662.976562 266.878906 C 662.976562 266.273438 663.464844 265.785156 664.070312 265.785156 C 664.671875 265.785156 665.160156 266.273438 665.160156 266.878906 L 665.160156 271.5625 C 665.160156 272.164062 664.671875 272.652344 664.070312 272.652344 " fill-opacity="1" fill-rule="nonzero"/><path fill="#99b9ff" d="M 664.152344 263.765625 C 663.664062 263.765625 663.265625 264.164062 663.265625 264.652344 C 663.265625 265.140625 663.664062 265.542969 664.152344 265.542969 C 664.640625 265.542969 665.039062 265.140625 665.039062 264.652344 C 665.039062 264.164062 664.640625 263.765625 664.152344 263.765625 Z M 664.152344 267.726562 C 662.457031 267.726562 661.082031 266.347656 661.082031 264.652344 C 661.082031 262.957031 662.457031 261.582031 664.152344 261.582031 C 665.84375 261.582031 667.222656 262.957031 667.222656 264.652344 C 667.222656 266.347656 665.84375 267.726562 664.152344 267.726562 " fill-opacity="1" fill-rule="nonzero"/><path fill="#5479f7" d="M 691.519531 295.300781 L 657.957031 295.300781 C 655.875 295.300781 654.171875 293.597656 654.171875 291.511719 L 654.171875 274.589844 C 654.171875 272.503906 655.875 270.800781 657.957031 270.800781 L 691.515625 270.800781 C 693.601562 270.800781 695.304688 272.503906 695.304688 274.589844 L 695.304688 291.511719 C 695.304688 293.597656 693.601562 295.300781 691.519531 295.300781 " fill-opacity="1" fill-rule="nonzero"/><path fill="#000000" d="M 688.546875 286.59375 L 660.929688 286.59375 C 660.230469 286.59375 659.667969 286.023438 659.667969 285.328125 L 659.667969 277.5 C 659.667969 276.804688 660.230469 276.238281 660.929688 276.238281 L 688.546875 276.238281 C 689.242188 276.238281 689.808594 276.804688 689.808594 277.5 L 689.808594 285.328125 C 689.808594 286.023438 689.242188 286.59375 688.546875 286.59375 " fill-opacity="1" fill-rule="nonzero"/><path fill="#5479f7" d="M 669.402344 281.433594 C 669.402344 282.640625 668.421875 283.621094 667.210938 283.621094 C 666.003906 283.621094 665.023438 282.640625 665.023438 281.433594 C 665.023438 280.21875 666.003906 279.238281 667.210938 279.238281 C 668.421875 279.238281 669.402344 280.21875 669.402344 281.433594 " fill-opacity="1" fill-rule="nonzero"/><path fill="#5479f7" d="M 684.449219 281.433594 C 684.449219 282.640625 683.46875 283.621094 682.261719 283.621094 C 681.050781 283.621094 680.070312 282.640625 680.070312 281.433594 C 680.070312 280.21875 681.050781 279.238281 682.261719 279.238281 C 683.46875 279.238281 684.449219 280.21875 684.449219 281.433594 " fill-opacity="1" fill-rule="nonzero"/><path fill="#ffffff" d="M 679.410156 560.789062 C 679.410156 579.863281 663.957031 595.324219 644.894531 595.324219 C 625.835938 595.324219 610.382812 579.863281 610.382812 560.789062 C 610.382812 541.71875 625.835938 526.257812 644.894531 526.257812 C 663.957031 526.257812 679.410156 541.71875 679.410156 560.789062 " fill-opacity="1" fill-rule="nonzero"/><path fill="#5479f7" d="M 665.460938 588.523438 L 665.460938 582.066406 C 665.460938 577.460938 661.695312 573.695312 657.09375 573.695312 L 632.695312 573.695312 C 628.09375 573.695312 624.328125 577.460938 624.328125 582.066406 L 624.328125 588.722656 C 624.328125 592.164062 644.894531 595.335938 644.894531 595.335938 C 644.894531 595.335938 665.460938 592.363281 665.460938 588.523438 " fill-opacity="1" fill-rule="nonzero"/><path fill="#000000" d="M 644.894531 527.347656 C 626.46875 527.347656 611.472656 542.351562 611.472656 560.789062 C 611.472656 579.230469 626.46875 594.234375 644.894531 594.234375 C 663.324219 594.234375 678.316406 579.230469 678.316406 560.789062 C 678.316406 542.351562 663.324219 527.347656 644.894531 527.347656 Z M 644.894531 596.417969 C 625.261719 596.417969 609.289062 580.433594 609.289062 560.789062 C 609.289062 541.144531 625.261719 525.164062 644.894531 525.164062 C 664.53125 525.164062 680.503906 541.144531 680.503906 560.789062 C 680.503906 580.433594 664.53125 596.417969 644.894531 596.417969 " fill-opacity="1" fill-rule="nonzero"/><path fill="#99b9ff" d="M 655.398438 547.546875 C 654.796875 547.546875 654.304688 547.058594 654.304688 546.457031 L 654.304688 541.773438 C 654.304688 541.171875 654.796875 540.679688 655.398438 540.679688 C 656 540.679688 656.488281 541.171875 656.488281 541.773438 L 656.488281 546.457031 C 656.488281 547.058594 656 547.546875 655.398438 547.546875 " fill-opacity="1" fill-rule="nonzero"/><path fill="#99b9ff" d="M 655.480469 538.664062 C 654.992188 538.664062 654.59375 539.0625 654.59375 539.550781 C 654.59375 540.039062 654.992188 540.441406 655.480469 540.441406 C 655.96875 540.441406 656.367188 540.039062 656.367188 539.550781 C 656.367188 539.0625 655.96875 538.664062 655.480469 538.664062 Z M 655.480469 542.625 C 653.785156 542.625 652.410156 541.246094 652.410156 539.550781 C 652.410156 537.855469 653.785156 536.476562 655.480469 536.476562 C 657.175781 536.476562 658.550781 537.855469 658.550781 539.550781 C 658.550781 541.246094 657.175781 542.625 655.480469 542.625 " fill-opacity="1" fill-rule="nonzero"/><path fill="#99b9ff" d="M 634.226562 547.546875 C 633.625 547.546875 633.136719 547.058594 633.136719 546.457031 L 633.136719 541.773438 C 633.136719 541.171875 633.625 540.679688 634.226562 540.679688 C 634.832031 540.679688 635.320312 541.171875 635.320312 541.773438 L 635.320312 546.457031 C 635.320312 547.058594 634.832031 547.546875 634.226562 547.546875 " fill-opacity="1" fill-rule="nonzero"/><path fill="#99b9ff" d="M 634.308594 538.664062 C 633.820312 538.664062 633.421875 539.0625 633.421875 539.550781 C 633.421875 540.039062 633.820312 540.441406 634.308594 540.441406 C 634.800781 540.441406 635.199219 540.039062 635.199219 539.550781 C 635.199219 539.0625 634.800781 538.664062 634.308594 538.664062 Z M 634.308594 542.625 C 632.617188 542.625 631.238281 541.246094 631.238281 539.550781 C 631.238281 537.855469 632.617188 536.476562 634.308594 536.476562 C 636.003906 536.476562 637.382812 537.855469 637.382812 539.550781 C 637.382812 541.246094 636.003906 542.625 634.308594 542.625 " fill-opacity="1" fill-rule="nonzero"/><path fill="#5479f7" d="M 661.675781 570.199219 L 628.113281 570.199219 C 626.03125 570.199219 624.328125 568.492188 624.328125 566.410156 L 624.328125 549.488281 C 624.328125 547.402344 626.03125 545.699219 628.113281 545.699219 L 661.675781 545.699219 C 663.757812 545.699219 665.460938 547.402344 665.460938 549.488281 L 665.460938 566.410156 C 665.460938 568.492188 663.757812 570.199219 661.675781 570.199219 " fill-opacity="1" fill-rule="nonzero"/><path fill="#000000" d="M 658.703125 561.488281 L 631.085938 561.488281 C 630.390625 561.488281 629.824219 560.925781 629.824219 560.226562 L 629.824219 552.398438 C 629.824219 551.703125 630.390625 551.132812 631.085938 551.132812 L 658.703125 551.132812 C 659.402344 551.132812 659.964844 551.703125 659.964844 552.398438 L 659.964844 560.226562 C 659.964844 560.925781 659.402344 561.488281 658.703125 561.488281 " fill-opacity="1" fill-rule="nonzero"/><path fill="#5479f7" d="M 639.5625 556.328125 C 639.5625 557.535156 638.582031 558.519531 637.371094 558.519531 C 636.164062 558.519531 635.183594 557.535156 635.183594 556.328125 C 635.183594 555.117188 636.164062 554.136719 637.371094 554.136719 C 638.582031 554.136719 639.5625 555.117188 639.5625 556.328125 " fill-opacity="1" fill-rule="nonzero"/><path fill="#5479f7" d="M 654.609375 556.328125 C 654.609375 557.535156 653.628906 558.519531 652.417969 558.519531 C 651.210938 558.519531 650.230469 557.535156 650.230469 556.328125 C 650.230469 555.117188 651.210938 554.136719 652.417969 554.136719 C 653.628906 554.136719 654.609375 555.117188 654.609375 556.328125 " fill-opacity="1" fill-rule="nonzero"/><path fill="#000000" d="M 896.742188 621.007812 L 728.25 621.007812 C 727.640625 621.007812 727.15625 620.515625 727.15625 619.914062 C 727.15625 619.3125 727.640625 618.824219 728.25 618.824219 L 896.742188 618.824219 C 901.933594 618.824219 906.742188 613.800781 907.457031 607.625 L 917.144531 523.941406 C 917.523438 520.675781 916.675781 517.605469 914.820312 515.523438 C 913.351562 513.871094 911.425781 512.996094 909.246094 512.996094 L 906.960938 512.996094 C 906.359375 512.996094 905.867188 512.507812 905.867188 511.90625 C 905.867188 511.304688 906.359375 510.8125 906.960938 510.8125 L 909.246094 510.8125 C 912.023438 510.8125 914.585938 511.96875 916.453125 514.070312 C 918.722656 516.617188 919.765625 520.304688 919.316406 524.195312 L 909.625 607.878906 C 908.789062 615.121094 903.007812 621.007812 896.742188 621.007812 " fill-opacity="1" fill-rule="nonzero"/><path fill="#ffffff" d="M 566.472656 657.519531 L 562.097656 686.210938 L 551.511719 680.828125 L 554.539062 652.199219 L 566.472656 657.519531 " fill-opacity="1" fill-rule="nonzero"/><path fill="#000000" d="M 552.675781 680.195312 L 561.246094 684.554688 L 565.269531 658.179688 L 555.464844 653.808594 Z M 562.097656 687.304688 C 561.929688 687.304688 561.757812 687.265625 561.601562 687.1875 L 551.019531 681.800781 C 550.613281 681.597656 550.378906 681.160156 550.425781 680.710938 L 553.453125 652.085938 C 553.488281 651.738281 553.691406 651.425781 553.992188 651.253906 C 554.292969 651.078125 554.664062 651.058594 554.980469 651.203125 L 566.917969 656.523438 C 567.367188 656.722656 567.628906 657.199219 567.554688 657.6875 L 563.179688 686.378906 C 563.125 686.726562 562.910156 687.027344 562.597656 687.183594 C 562.441406 687.265625 562.269531 687.304688 562.097656 687.304688 " fill-opacity="1" fill-rule="nonzero"/><path fill="#5479f7" d="M 564.828125 675.359375 C 566.035156 678.125 567.183594 683.355469 568.34375 690.171875 C 568.894531 693.402344 566.359375 696.34375 563.042969 696.34375 L 524.101562 696.34375 C 521.417969 696.34375 520.15625 693.078125 522.152344 691.308594 C 529.902344 684.457031 541.769531 676.859375 552.015625 672.394531 L 555.925781 677.917969 C 555.925781 677.917969 564.488281 674.585938 564.828125 675.359375 " fill-opacity="1" fill-rule="nonzero"/><path fill="#000000" d="M 551.640625 673.757812 C 541.902344 678.125 530.449219 685.429688 522.878906 692.125 C 522.300781 692.636719 522.117188 693.367188 522.386719 694.082031 C 522.597656 694.652344 523.164062 695.253906 524.101562 695.253906 L 563.042969 695.253906 C 564.320312 695.253906 565.523438 694.695312 566.34375 693.726562 C 567.136719 692.785156 567.472656 691.558594 567.269531 690.355469 C 566.105469 683.53125 565.054688 678.941406 564.0625 676.375 C 562.726562 676.613281 559.234375 677.800781 556.324219 678.9375 C 555.855469 679.121094 555.324219 678.960938 555.035156 678.550781 Z M 563.042969 697.4375 L 524.101562 697.4375 C 522.410156 697.4375 520.9375 696.425781 520.34375 694.859375 C 519.757812 693.308594 520.183594 691.59375 521.429688 690.492188 C 529.367188 683.46875 541.484375 675.792969 551.582031 671.394531 C 552.054688 671.1875 552.609375 671.339844 552.90625 671.761719 L 556.328125 676.59375 C 565.089844 673.234375 565.429688 674.015625 565.828125 674.917969 C 566.976562 677.546875 568.117188 682.332031 569.421875 689.988281 C 569.734375 691.828125 569.21875 693.699219 568.011719 695.136719 C 566.777344 696.597656 564.964844 697.4375 563.042969 697.4375 " fill-opacity="1" fill-rule="nonzero"/><path fill="#000000" d="M 562.621094 693 L 527.796875 693 C 527.195312 693 526.707031 692.511719 526.707031 691.910156 C 526.707031 691.304688 527.195312 690.816406 527.796875 690.816406 L 562.621094 690.816406 C 563.222656 690.816406 563.710938 691.304688 563.710938 691.910156 C 563.710938 692.511719 563.222656 693 562.621094 693 " fill-opacity="1" fill-rule="nonzero"/><path fill="#000000" d="M 547.195312 685.851562 C 546.820312 685.851562 546.457031 685.65625 546.253906 685.308594 L 542.253906 678.53125 C 541.949219 678.011719 542.121094 677.34375 542.640625 677.035156 C 543.160156 676.730469 543.832031 676.902344 544.136719 677.421875 L 548.132812 684.203125 C 548.441406 684.71875 548.269531 685.390625 547.746094 685.699219 C 547.574219 685.800781 547.382812 685.851562 547.195312 685.851562 " fill-opacity="1" fill-rule="nonzero"/><path fill="#000000" d="M 541.335938 686.839844 C 540.953125 686.839844 540.582031 686.632812 540.382812 686.277344 L 537.792969 681.636719 C 537.496094 681.109375 537.6875 680.441406 538.210938 680.148438 C 538.738281 679.855469 539.40625 680.042969 539.699219 680.566406 L 542.289062 685.210938 C 542.582031 685.738281 542.394531 686.402344 541.867188 686.695312 C 541.699219 686.792969 541.515625 686.839844 541.335938 686.839844 " fill-opacity="1" fill-rule="nonzero"/><path fill="#5479f7" d="M 570.835938 596.300781 C 573.726562 595.4375 579.054688 594.925781 585.957031 594.59375 C 589.230469 594.4375 591.84375 597.308594 591.445312 600.605469 L 586.753906 639.28125 C 586.429688 641.949219 583.035156 642.808594 581.523438 640.613281 C 575.65625 632.09375 569.550781 619.386719 566.355469 608.671875 L 572.304688 605.453125 C 572.304688 605.453125 570.03125 596.546875 570.835938 596.300781 " fill-opacity="1" fill-rule="nonzero"/><path fill="#000000" d="M 570.835938 596.304688 L 570.84375 596.304688 Z M 567.660156 609.207031 C 570.820312 619.40625 576.6875 631.667969 582.421875 639.992188 C 582.859375 640.625 583.5625 640.894531 584.300781 640.714844 C 584.890625 640.570312 585.558594 640.082031 585.671875 639.148438 L 590.359375 600.472656 C 590.515625 599.203125 590.109375 597.941406 589.246094 597.011719 C 588.40625 596.109375 587.234375 595.640625 586.011719 595.6875 C 579.101562 596.019531 574.421875 596.507812 571.753906 597.183594 C 571.832031 598.542969 572.589844 602.152344 573.363281 605.183594 C 573.488281 605.664062 573.265625 606.175781 572.824219 606.414062 Z M 583.867188 642.953125 C 582.589844 642.953125 581.378906 642.328125 580.625 641.230469 C 574.613281 632.503906 568.457031 619.542969 565.308594 608.980469 C 565.160156 608.488281 565.378906 607.957031 565.835938 607.710938 L 571.039062 604.894531 C 568.761719 595.785156 569.578125 595.539062 570.523438 595.257812 C 573.265625 594.433594 578.15625 593.878906 585.90625 593.5 C 587.769531 593.410156 589.566406 594.148438 590.84375 595.519531 C 592.144531 596.925781 592.761719 598.828125 592.527344 600.734375 L 587.835938 639.414062 C 587.632812 641.09375 586.449219 642.433594 584.824219 642.835938 C 584.503906 642.914062 584.183594 642.953125 583.867188 642.953125 " fill-opacity="1" fill-rule="nonzero"/><path fill="#000000" d="M 582.796875 636.171875 C 582.753906 636.171875 582.710938 636.167969 582.664062 636.160156 C 582.066406 636.089844 581.640625 635.542969 581.714844 634.945312 L 585.90625 600.359375 C 585.980469 599.757812 586.527344 599.339844 587.121094 599.40625 C 587.722656 599.480469 588.148438 600.023438 588.074219 600.621094 L 583.878906 635.207031 C 583.8125 635.761719 583.339844 636.171875 582.796875 636.171875 " fill-opacity="1" fill-rule="nonzero"/><path fill="#000000" d="M 570.828125 619.195312 C 570.410156 619.195312 570.007812 618.953125 569.828125 618.539062 C 569.585938 617.988281 569.839844 617.34375 570.390625 617.101562 L 577.597656 613.949219 C 578.152344 613.707031 578.792969 613.960938 579.035156 614.511719 C 579.277344 615.0625 579.027344 615.710938 578.472656 615.949219 L 571.265625 619.101562 C 571.125 619.167969 570.976562 619.195312 570.828125 619.195312 " fill-opacity="1" fill-rule="nonzero"/><path fill="#000000" d="M 573.394531 623.996094 C 572.964844 623.996094 572.558594 623.738281 572.382812 623.316406 C 572.152344 622.757812 572.421875 622.121094 572.980469 621.890625 L 577.898438 619.878906 C 578.457031 619.648438 579.09375 619.917969 579.320312 620.472656 C 579.550781 621.035156 579.28125 621.667969 578.726562 621.898438 L 573.808594 623.914062 C 573.671875 623.96875 573.53125 623.996094 573.394531 623.996094 " fill-opacity="1" fill-rule="nonzero"/><path fill="#000000" d="M 542.734375 474.253906 C 542.734375 474.253906 510.753906 517.4375 500.679688 545.835938 C 498.765625 551.234375 500.242188 557.25 504.441406 561.144531 C 516.15625 572 541.210938 594.957031 557.292969 607.773438 L 562.097656 595.566406 C 562.097656 595.566406 556.292969 567.304688 534.515625 554.574219 L 561.539062 514.253906 L 567.488281 482.875 L 542.734375 474.253906 " fill-opacity="1" fill-rule="nonzero"/><path fill="#000000" d="M 573.152344 481.71875 C 582.703125 483.453125 589.171875 492.429688 587.796875 502.042969 C 584.789062 523.054688 580.023438 557.210938 579.121094 568.726562 C 577.78125 585.792969 581.230469 604.78125 581.890625 618.71875 C 582.550781 632.65625 566.746094 665.058594 566.746094 665.058594 L 551.511719 664.007812 L 548.6875 505.382812 L 544.589844 476.328125 L 573.152344 481.71875 " fill-opacity="1" fill-rule="nonzero"/><path fill="#caddff" d="M 549.707031 606.894531 C 549.113281 606.894531 548.625 606.414062 548.613281 605.816406 L 548.210938 580.722656 C 548.203125 580.113281 548.683594 579.621094 549.285156 579.609375 C 549.859375 579.589844 550.386719 580.082031 550.394531 580.683594 L 550.800781 605.785156 C 550.808594 606.386719 550.328125 606.886719 549.722656 606.894531 C 549.71875 606.894531 549.710938 606.894531 549.707031 606.894531 " fill-opacity="1" fill-rule="nonzero"/><path fill="#caddff" d="M 548.46875 537.613281 C 547.867188 537.613281 547.378906 537.128906 547.375 536.527344 L 547.3125 525.09375 C 547.289062 520.808594 545.195312 516.753906 541.714844 514.253906 L 540.925781 513.6875 C 540.4375 513.335938 540.324219 512.652344 540.675781 512.164062 C 541.027344 511.671875 541.710938 511.5625 542.199219 511.910156 L 542.988281 512.480469 C 547.035156 515.386719 549.464844 520.101562 549.496094 525.085938 L 549.558594 536.515625 C 549.5625 537.117188 549.078125 537.609375 548.476562 537.613281 C 548.472656 537.613281 548.472656 537.613281 548.46875 537.613281 " fill-opacity="1" fill-rule="nonzero"/><path fill="#000000" d="M 545.132812 363.335938 C 550.765625 357.234375 559.140625 355.953125 565.433594 357.675781 C 573.402344 359.847656 577.417969 366.746094 580.25 371.609375 C 585.257812 380.199219 582.839844 383.316406 586.773438 388.308594 C 593.746094 397.152344 604.671875 391.625 613.167969 398.085938 C 626.125 407.941406 627.886719 441.386719 610.351562 454.121094 C 598.660156 462.613281 582.75 457.703125 578.425781 456.363281 C 565.289062 452.308594 548.945312 440.992188 546.601562 425.644531 C 544.660156 412.957031 553.015625 402.402344 546.027344 391.765625 C 544.242188 389.058594 542.769531 388.324219 541.445312 384.9375 C 539.300781 379.4375 538.816406 370.179688 545.132812 363.335938 " fill-opacity="1" fill-rule="nonzero"/><path fill="#000000" d="M 562.121094 364.839844 C 559.128906 362.410156 561.019531 355.246094 562.9375 351.378906 C 563.652344 349.933594 566.867188 343.453125 571.089844 343.703125 C 575.429688 343.964844 579.582031 351.25 578.035156 357.023438 C 576.097656 364.238281 565.625 367.683594 562.121094 364.839844 " fill-opacity="1" fill-rule="nonzero"/><path fill="#99b9ff" d="M 507.382812 424.570312 L 496.226562 424.644531 L 482.714844 400.894531 L 493.691406 400.800781 L 507.382812 424.570312 " fill-opacity="1" fill-rule="nonzero"/><path fill="#000000" d="M 484.582031 401.96875 L 496.859375 423.546875 L 505.5 423.492188 L 493.066406 401.898438 Z M 496.226562 425.738281 C 495.835938 425.738281 495.472656 425.527344 495.277344 425.183594 L 481.765625 401.433594 C 481.574219 401.09375 481.574219 400.683594 481.769531 400.347656 C 481.960938 400.011719 482.316406 399.804688 482.707031 399.800781 L 493.683594 399.710938 C 493.6875 399.710938 493.691406 399.710938 493.691406 399.710938 C 494.082031 399.710938 494.445312 399.917969 494.640625 400.257812 L 508.328125 424.023438 C 508.523438 424.363281 508.523438 424.777344 508.328125 425.117188 C 508.136719 425.453125 507.777344 425.660156 507.390625 425.664062 L 496.234375 425.738281 C 496.230469 425.738281 496.230469 425.738281 496.226562 425.738281 " fill-opacity="1" fill-rule="nonzero"/><path fill="#ffffff" d="M 550.054688 410.191406 C 542.867188 410.398438 535.179688 427.882812 518.050781 439.171875 C 516.277344 440.339844 514.277344 441.054688 512.628906 439.714844 C 507.109375 435.226562 495.804688 425.449219 493.984375 419.230469 C 493.617188 417.980469 492.980469 410.484375 490.441406 407.371094 C 488.847656 405.421875 487.449219 407.71875 487.449219 407.71875 C 487.449219 407.71875 479.964844 417.910156 488.144531 424.261719 C 489.371094 425.214844 490.351562 426.449219 491.035156 427.847656 C 494.078125 434.105469 503.816406 450.605469 508.199219 455.730469 C 513.914062 462.410156 516.03125 462.179688 521.765625 459.128906 L 547.996094 443.664062 C 547.996094 443.664062 554.902344 410.058594 550.054688 410.191406 " fill-opacity="1" fill-rule="nonzero"/><path fill="#000000" d="M 550.054688 410.191406 L 550.0625 410.191406 Z M 489.097656 407.679688 C 489.097656 407.679688 489.09375 407.679688 489.09375 407.679688 C 488.902344 407.691406 488.550781 408.019531 488.378906 408.292969 C 488.367188 408.3125 488.347656 408.34375 488.332031 408.363281 C 488.054688 408.746094 481.578125 417.78125 488.8125 423.398438 C 490.148438 424.433594 491.253906 425.808594 492.015625 427.371094 C 494.894531 433.292969 504.589844 449.832031 509.027344 455.019531 C 514.476562 461.386719 516.0625 460.929688 521.253906 458.167969 L 547.023438 442.96875 C 549.914062 428.75 551.789062 412.828125 550.035156 411.285156 C 546.992188 411.417969 543.398438 415.628906 538.851562 420.953125 C 533.785156 426.882812 527.484375 434.261719 518.652344 440.085938 C 515.980469 441.847656 513.71875 442.007812 511.941406 440.5625 C 505.644531 435.445312 494.800781 425.90625 492.9375 419.539062 C 492.835938 419.199219 492.746094 418.632812 492.605469 417.777344 C 492.210938 415.335938 491.386719 410.257812 489.59375 408.058594 C 489.363281 407.777344 489.183594 407.679688 489.097656 407.679688 Z M 515.898438 462.277344 C 513.242188 462.277344 510.898438 460.566406 507.367188 456.441406 C 502.832031 451.136719 492.972656 434.332031 490.050781 428.324219 C 489.4375 427.0625 488.546875 425.953125 487.476562 425.125 C 480.359375 419.597656 483.746094 410.941406 486.546875 407.101562 C 486.734375 406.8125 487.597656 405.59375 488.941406 405.5 C 489.542969 405.460938 490.429688 405.628906 491.285156 406.679688 C 493.449219 409.328125 494.304688 414.597656 494.761719 417.429688 C 494.871094 418.085938 494.96875 418.714844 495.03125 418.921875 C 496.796875 424.941406 508.40625 434.875 513.316406 438.867188 C 513.933594 439.367188 515.035156 439.851562 517.449219 438.257812 C 526.023438 432.609375 532.214844 425.359375 537.191406 419.535156 C 542.308594 413.542969 546.003906 409.214844 550.023438 409.101562 C 550.679688 409.089844 551.265625 409.363281 551.703125 409.886719 C 555.027344 413.851562 550.089844 438.902344 549.066406 443.882812 C 549.003906 444.1875 548.816406 444.445312 548.550781 444.605469 L 522.320312 460.070312 C 519.707031 461.460938 517.726562 462.277344 515.898438 462.277344 " fill-opacity="1" fill-rule="nonzero"/><path fill="#5479f7" d="M 591.589844 409.40625 C 591.589844 409.40625 572.046875 398.707031 549.410156 407.808594 C 547.933594 408.402344 547.015625 409.882812 547.160156 411.472656 C 547.351562 413.617188 547.070312 416.921875 544.578125 420.40625 C 534.949219 433.867188 540.710938 439.492188 539.050781 446.1875 C 535.6875 459.78125 532.378906 468.335938 525.347656 486.378906 C 522.695312 493.175781 533.496094 493.1875 542.6875 491.714844 C 551.878906 490.25 574.445312 490.261719 583.898438 495.46875 C 593.351562 500.671875 594.324219 487.933594 593.261719 479.4375 C 592.195312 470.949219 591.589844 409.40625 591.589844 409.40625 " fill-opacity="1" fill-rule="nonzero"/><path fill="#ffffff" d="M 586.070312 460.179688 L 564.46875 447.292969 C 561.808594 445.710938 558.578125 445.414062 555.675781 446.492188 L 545.550781 450.253906 C 543.929688 450.859375 544.253906 453.230469 545.976562 453.394531 C 546.578125 453.449219 547.28125 453.402344 548.085938 453.195312 C 550.40625 452.601562 553.570312 452.652344 555.847656 454.515625 C 557.074219 455.519531 558.539062 455.441406 559.628906 455.15625 C 560.664062 454.886719 561.753906 455.292969 562.382812 456.160156 C 566.714844 462.132812 582.394531 482.367188 596.46875 482.851562 C 609.890625 483.316406 605.550781 439.242188 601.132812 418.472656 C 600.273438 414.433594 595.789062 411.03125 591.933594 409.558594 L 586.992188 407.671875 L 589.519531 458.105469 C 589.613281 459.925781 587.636719 461.117188 586.070312 460.179688 " fill-opacity="1" fill-rule="nonzero"/><path fill="#000000" d="M 560.285156 453.980469 C 561.445312 453.980469 562.550781 454.53125 563.265625 455.519531 C 567.644531 461.558594 582.980469 481.296875 596.503906 481.761719 C 597.953125 481.804688 599.175781 481.226562 600.230469 479.964844 C 607.230469 471.609375 604.273438 438.46875 600.0625 418.699219 C 599.289062 415.058594 595.105469 411.9375 591.542969 410.582031 L 588.164062 409.289062 L 590.609375 458.046875 C 590.675781 459.292969 590.046875 460.46875 588.980469 461.113281 C 587.914062 461.753906 586.582031 461.757812 585.511719 461.121094 L 563.90625 448.234375 C 561.523438 446.808594 558.664062 446.546875 556.058594 447.515625 L 545.933594 451.28125 C 545.589844 451.40625 545.574219 451.683594 545.59375 451.839844 C 545.609375 451.964844 545.691406 452.265625 546.082031 452.304688 C 546.605469 452.351562 547.191406 452.300781 547.816406 452.136719 C 549.039062 451.824219 553.285156 451.011719 556.539062 453.671875 C 557.253906 454.253906 558.203125 454.398438 559.355469 454.097656 C 559.664062 454.019531 559.976562 453.980469 560.285156 453.980469 Z M 596.679688 483.949219 C 596.597656 483.949219 596.515625 483.945312 596.429688 483.945312 C 581.914062 483.441406 566.023438 463.039062 561.496094 456.800781 C 561.132812 456.296875 560.492188 456.058594 559.90625 456.214844 C 558.070312 456.695312 556.425781 456.398438 555.15625 455.363281 C 552.695312 453.347656 549.332031 454.007812 548.355469 454.253906 C 547.488281 454.476562 546.652344 454.554688 545.875 454.480469 C 544.582031 454.359375 543.597656 453.410156 543.429688 452.125 C 543.261719 450.847656 543.960938 449.683594 545.171875 449.230469 L 555.296875 445.46875 C 558.523438 444.269531 562.070312 444.59375 565.023438 446.355469 L 586.628906 459.242188 C 587.011719 459.472656 587.472656 459.472656 587.855469 459.242188 C 588.238281 459.011719 588.453125 458.605469 588.429688 458.15625 L 585.898438 407.726562 C 585.882812 407.359375 586.050781 407.007812 586.347656 406.789062 C 586.648438 406.570312 587.035156 406.523438 587.378906 406.652344 L 592.324219 408.539062 C 596.554688 410.152344 601.25 413.78125 602.199219 418.246094 C 605.675781 434.578125 610.175781 471.5 601.902344 481.371094 C 600.46875 483.085938 598.710938 483.949219 596.679688 483.949219 " fill-opacity="1" fill-rule="nonzero"/><path fill="#ffffff" d="M 556.914062 394.503906 C 555.589844 395.164062 553.972656 394.9375 552.921875 393.890625 C 551.683594 392.65625 550.691406 391.34375 549.882812 390.015625 L 548.347656 390.046875 C 547.855469 390.058594 547.445312 389.675781 547.425781 389.183594 L 547.160156 383.183594 C 543.628906 377.417969 546.410156 374.328125 546.410156 374.328125 C 548.164062 371.273438 554.179688 369.574219 558.3125 375.308594 C 559.742188 377.292969 561.988281 375.816406 563.203125 374.75 C 563.707031 374.3125 564.105469 373.777344 564.425781 373.191406 C 565.25 371.675781 567.316406 368.523438 568.953125 371.488281 C 572.46875 377.859375 567.402344 382.863281 567.402344 382.863281 L 571.101562 398.636719 C 571.957031 402.273438 574.554688 405.253906 578.042969 406.589844 L 581.597656 407.953125 C 581.597656 407.953125 576.046875 426.152344 560.320312 425.8125 C 548.320312 425.558594 553.496094 409.328125 553.496094 409.328125 L 555.070312 408.632812 C 559.199219 406.816406 561.457031 402.324219 560.460938 397.921875 L 559.402344 393.253906 L 556.914062 394.503906 " fill-opacity="1" fill-rule="nonzero"/><path fill="#000000" d="M 557.757812 396.238281 C 557.351562 396.238281 556.964844 396.011719 556.777344 395.621094 C 556.511719 395.078125 556.738281 394.425781 557.28125 394.164062 C 561.117188 392.292969 561.609375 387.242188 561.617188 387.195312 C 561.667969 386.589844 562.203125 386.148438 562.800781 386.203125 C 563.402344 386.253906 563.84375 386.785156 563.792969 387.382812 C 563.769531 387.644531 563.171875 393.722656 558.234375 396.125 C 558.082031 396.203125 557.917969 396.238281 557.757812 396.238281 " fill-opacity="1" fill-rule="nonzero"/><path fill="#000000" d="M 501.414062 391.003906 C 501.1875 391.003906 500.957031 390.9375 500.761719 390.792969 C 500.28125 390.429688 500.179688 389.746094 500.539062 389.261719 L 532.183594 346.769531 C 532.542969 346.285156 533.226562 346.1875 533.710938 346.546875 C 534.195312 346.90625 534.292969 347.589844 533.933594 348.074219 L 502.292969 390.566406 C 502.078125 390.855469 501.746094 391.003906 501.414062 391.003906 " fill-opacity="1" fill-rule="nonzero"/><path fill="#000000" d="M 492.179688 387.613281 C 492.0625 387.613281 491.9375 387.589844 491.820312 387.550781 C 491.25 387.351562 490.949219 386.730469 491.148438 386.160156 L 500.1875 360.359375 C 500.386719 359.792969 501.007812 359.492188 501.578125 359.691406 C 502.148438 359.890625 502.445312 360.515625 502.246094 361.082031 L 493.210938 386.878906 C 493.054688 387.332031 492.632812 387.613281 492.179688 387.613281 " fill-opacity="1" fill-rule="nonzero"/><path fill="#000000" d="M 506.5 398.003906 C 506.136719 398.003906 505.78125 397.824219 505.574219 397.492188 C 505.253906 396.980469 505.40625 396.308594 505.917969 395.984375 L 529.039062 381.425781 C 529.546875 381.101562 530.222656 381.253906 530.542969 381.765625 C 530.867188 382.277344 530.710938 382.949219 530.203125 383.273438 L 507.082031 397.835938 C 506.902344 397.949219 506.699219 398.003906 506.5 398.003906 " fill-opacity="1" fill-rule="nonzero"/><path fill="#000000" d="M 760.136719 180.914062 C 759.53125 180.914062 759.042969 180.429688 759.042969 179.824219 L 759.042969 174.175781 C 759.042969 173.570312 759.53125 173.078125 760.136719 173.078125 C 760.738281 173.078125 761.226562 173.570312 761.226562 174.175781 L 761.226562 179.824219 C 761.226562 180.429688 760.738281 180.914062 760.136719 180.914062 " fill-opacity="1" fill-rule="nonzero"/><path fill="#000000" d="M 760.132812 194.078125 C 759.527344 194.078125 759.046875 193.585938 759.046875 192.984375 L 759.046875 187.339844 C 759.046875 186.730469 759.527344 186.246094 760.132812 186.246094 C 760.742188 186.246094 761.226562 186.730469 761.226562 187.339844 L 761.226562 192.984375 C 761.226562 193.585938 760.742188 194.078125 760.132812 194.078125 " fill-opacity="1" fill-rule="nonzero"/><path fill="#000000" d="M 756.382812 184.675781 L 750.734375 184.675781 C 750.128906 184.675781 749.640625 184.183594 749.640625 183.585938 C 749.640625 182.980469 750.128906 182.488281 750.734375 182.488281 L 756.382812 182.488281 C 756.980469 182.488281 757.46875 182.980469 757.46875 183.585938 C 757.46875 184.183594 756.980469 184.675781 756.382812 184.675781 " fill-opacity="1" fill-rule="nonzero"/><path fill="#000000" d="M 769.53125 184.675781 L 763.886719 184.675781 C 763.285156 184.675781 762.792969 184.183594 762.792969 183.585938 C 762.792969 182.980469 763.285156 182.488281 763.886719 182.488281 L 769.53125 182.488281 C 770.136719 182.488281 770.625 182.980469 770.625 183.585938 C 770.625 184.183594 770.136719 184.675781 769.53125 184.675781 " fill-opacity="1" fill-rule="nonzero"/><path fill="#000000" d="M 721.667969 467.253906 C 721.066406 467.253906 720.578125 466.761719 720.578125 466.160156 L 720.578125 460.511719 C 720.578125 459.910156 721.066406 459.417969 721.667969 459.417969 C 722.273438 459.417969 722.761719 459.910156 722.761719 460.511719 L 722.761719 466.160156 C 722.761719 466.761719 722.273438 467.253906 721.667969 467.253906 " fill-opacity="1" fill-rule="nonzero"/><path fill="#000000" d="M 721.667969 480.414062 C 721.066406 480.414062 720.578125 479.925781 720.578125 479.324219 L 720.578125 473.671875 C 720.578125 473.070312 721.066406 472.578125 721.667969 472.578125 C 722.273438 472.578125 722.761719 473.070312 722.761719 473.671875 L 722.761719 479.324219 C 722.761719 479.925781 722.273438 480.414062 721.667969 480.414062 " fill-opacity="1" fill-rule="nonzero"/><path fill="#000000" d="M 717.914062 471.011719 L 712.273438 471.011719 C 711.667969 471.011719 711.179688 470.519531 711.179688 469.917969 C 711.179688 469.3125 711.667969 468.828125 712.273438 468.828125 L 717.914062 468.828125 C 718.519531 468.828125 719.007812 469.3125 719.007812 469.917969 C 719.007812 470.519531 718.519531 471.011719 717.914062 471.011719 " fill-opacity="1" fill-rule="nonzero"/><path fill="#000000" d="M 731.070312 471.011719 L 725.421875 471.011719 C 724.820312 471.011719 724.332031 470.519531 724.332031 469.917969 C 724.332031 469.3125 724.820312 468.828125 725.421875 468.828125 L 731.070312 468.828125 C 731.671875 468.828125 732.160156 469.3125 732.160156 469.917969 C 732.160156 470.519531 731.671875 471.011719 731.070312 471.011719 " fill-opacity="1" fill-rule="nonzero"/><path fill="#000000" d="M 1010.683594 149.738281 C 1010.082031 149.738281 1009.59375 149.246094 1009.59375 148.644531 L 1009.59375 142.992188 C 1009.59375 142.394531 1010.082031 141.902344 1010.683594 141.902344 C 1011.285156 141.902344 1011.777344 142.394531 1011.777344 142.992188 L 1011.777344 148.644531 C 1011.777344 149.246094 1011.285156 149.738281 1010.683594 149.738281 " fill-opacity="1" fill-rule="nonzero"/><path fill="#000000" d="M 1010.683594 162.898438 C 1010.082031 162.898438 1009.597656 162.410156 1009.597656 161.804688 L 1009.597656 156.15625 C 1009.597656 155.550781 1010.082031 155.0625 1010.683594 155.0625 C 1011.289062 155.0625 1011.777344 155.550781 1011.777344 156.15625 L 1011.777344 161.804688 C 1011.777344 162.410156 1011.289062 162.898438 1010.683594 162.898438 " fill-opacity="1" fill-rule="nonzero"/><path fill="#000000" d="M 1006.929688 153.496094 L 1001.285156 153.496094 C 1000.679688 153.496094 1000.191406 153.003906 1000.191406 152.398438 C 1000.191406 151.792969 1000.679688 151.308594 1001.285156 151.308594 L 1006.929688 151.308594 C 1007.535156 151.308594 1008.023438 151.792969 1008.023438 152.398438 C 1008.023438 153.003906 1007.535156 153.496094 1006.929688 153.496094 " fill-opacity="1" fill-rule="nonzero"/><path fill="#000000" d="M 1020.085938 153.496094 L 1014.4375 153.496094 C 1013.835938 153.496094 1013.34375 153.003906 1013.34375 152.398438 C 1013.34375 151.792969 1013.835938 151.308594 1014.4375 151.308594 L 1020.085938 151.308594 C 1020.6875 151.308594 1021.175781 151.792969 1021.175781 152.398438 C 1021.175781 153.003906 1020.6875 153.496094 1020.085938 153.496094 " fill-opacity="1" fill-rule="nonzero"/><path fill="#ffffff" d="M 504.457031 555.40625 L 504.460938 555.40625 Z M 507.5625 555.828125 C 506.65625 555.828125 505.753906 556.019531 504.902344 556.402344 C 501.546875 557.910156 500.023438 561.925781 501.503906 565.359375 C 502.226562 567.03125 503.542969 568.3125 505.214844 568.964844 C 506.84375 569.597656 508.625 569.550781 510.226562 568.832031 C 513.578125 567.324219 515.105469 563.304688 513.625 559.875 C 512.902344 558.203125 511.585938 556.921875 509.914062 556.269531 C 509.152344 555.976562 508.355469 555.828125 507.5625 555.828125 Z M 507.566406 571.59375 C 506.503906 571.59375 505.441406 571.394531 504.421875 571 C 502.203125 570.136719 500.453125 568.4375 499.496094 566.226562 C 497.546875 561.703125 499.570312 556.402344 504.007812 554.410156 C 506.144531 553.445312 508.523438 553.386719 510.707031 554.234375 C 512.925781 555.097656 514.675781 556.792969 515.628906 559.011719 C 517.578125 563.535156 515.554688 568.832031 511.121094 570.824219 C 509.984375 571.335938 508.777344 571.59375 507.566406 571.59375 " fill-opacity="1" fill-rule="nonzero"/><path fill="#000000" d="M 521.460938 197.988281 C 521.34375 197.988281 521.222656 197.972656 521.101562 197.929688 C 520.535156 197.730469 520.234375 197.109375 520.433594 196.542969 C 523.929688 186.507812 531.214844 171.4375 546.082031 156.636719 C 560.671875 142.113281 578.894531 131.554688 600.234375 125.257812 C 600.8125 125.085938 601.417969 125.421875 601.589844 126 C 601.761719 126.578125 601.429688 127.183594 600.851562 127.355469 C 545.003906 143.832031 526.753906 185.023438 522.492188 197.257812 C 522.335938 197.707031 521.914062 197.988281 521.460938 197.988281 " fill-opacity="1" fill-rule="nonzero"/><path fill="#000000" d="M 506.277344 195.164062 C 506.167969 195.164062 506.058594 195.148438 505.953125 195.113281 C 505.375 194.933594 505.054688 194.324219 505.234375 193.746094 C 505.285156 193.578125 510.523438 177.082031 525.511719 158.589844 C 539.335938 141.535156 564.53125 119.207031 606.078125 109.660156 C 606.667969 109.523438 607.25 109.890625 607.386719 110.476562 C 607.519531 111.066406 607.152344 111.652344 606.566406 111.789062 C 565.671875 121.183594 540.875 143.132812 527.269531 159.886719 C 512.515625 178.066406 507.367188 194.234375 507.320312 194.398438 C 507.171875 194.863281 506.742188 195.164062 506.277344 195.164062 " fill-opacity="1" fill-rule="nonzero"/><path fill="#000000" d="M 944.925781 647.800781 C 944.574219 647.800781 944.222656 647.628906 944.019531 647.308594 C 943.683594 646.808594 943.820312 646.128906 944.320312 645.796875 C 966.90625 630.824219 994.753906 599.53125 1012.03125 569.691406 C 1012.335938 569.171875 1013.003906 568.996094 1013.523438 569.296875 C 1014.046875 569.59375 1014.222656 570.265625 1013.917969 570.789062 C 996.492188 600.882812 968.367188 632.480469 945.53125 647.617188 C 945.34375 647.738281 945.136719 647.800781 944.925781 647.800781 " fill-opacity="1" fill-rule="nonzero"/><path fill="#000000" d="M 927.910156 675.316406 C 927.503906 675.316406 927.113281 675.085938 926.925781 674.691406 C 926.667969 674.148438 926.898438 673.496094 927.445312 673.234375 C 964.804688 655.359375 991.105469 625.4375 1006.589844 603.480469 C 1023.378906 579.683594 1031.410156 559.898438 1031.488281 559.699219 C 1031.710938 559.140625 1032.347656 558.871094 1032.90625 559.09375 C 1033.46875 559.324219 1033.742188 559.957031 1033.511719 560.519531 C 1033.4375 560.714844 1025.308594 580.738281 1008.375 604.742188 C 992.738281 626.90625 966.171875 657.125 928.382812 675.207031 C 928.234375 675.277344 928.070312 675.316406 927.910156 675.316406 " fill-opacity="1" fill-rule="nonzero"/><path fill="#5479f7" d="M 913.445312 166.304688 C 907.886719 154.546875 912.898438 140.515625 924.644531 134.949219 C 936.390625 129.386719 950.425781 134.402344 955.988281 146.15625 C 961.546875 157.910156 956.527344 171.949219 944.78125 177.511719 C 933.035156 183.078125 919.007812 178.058594 913.445312 166.304688 Z M 963.089844 192.898438 C 963.554688 192.59375 963.746094 192.007812 963.542969 191.488281 L 960.710938 183.964844 C 960.542969 183.527344 960.660156 183.039062 960.996094 182.703125 C 962.113281 181.59375 963.160156 180.425781 964.117188 179.203125 C 964.40625 178.832031 964.875 178.667969 965.328125 178.777344 L 973.125 180.707031 C 973.664062 180.839844 974.222656 180.585938 974.472656 180.089844 L 977.628906 173.792969 C 977.878906 173.292969 977.75 172.695312 977.320312 172.339844 L 971.097656 167.242188 C 970.734375 166.949219 970.59375 166.464844 970.710938 166.015625 C 971.121094 164.507812 971.433594 162.976562 971.65625 161.425781 C 971.722656 160.960938 972.046875 160.578125 972.492188 160.449219 L 980.222656 158.21875 C 980.757812 158.0625 981.113281 157.558594 981.082031 157.007812 L 980.667969 149.980469 C 980.636719 149.425781 980.222656 148.964844 979.675781 148.875 L 971.75 147.574219 C 971.289062 147.5 970.921875 147.160156 970.804688 146.703125 C 970.40625 145.207031 969.90625 143.722656 969.316406 142.257812 C 969.140625 141.824219 969.226562 141.328125 969.550781 140.988281 L 975.132812 135.195312 C 975.515625 134.792969 975.574219 134.179688 975.265625 133.714844 L 971.394531 127.839844 C 971.09375 127.378906 970.503906 127.1875 969.984375 127.382812 L 962.460938 130.222656 C 962.019531 130.386719 961.535156 130.273438 961.203125 129.9375 C 960.089844 128.820312 958.921875 127.777344 957.699219 126.816406 C 957.332031 126.53125 957.164062 126.058594 957.277344 125.605469 L 959.207031 117.808594 C 959.34375 117.269531 959.085938 116.710938 958.585938 116.460938 L 952.292969 113.308594 C 951.796875 113.0625 951.199219 113.191406 950.84375 113.617188 L 945.738281 119.84375 C 945.445312 120.207031 944.964844 120.351562 944.515625 120.226562 C 943.007812 119.820312 941.472656 119.503906 939.921875 119.285156 C 939.460938 119.222656 939.074219 118.898438 938.949219 118.449219 L 936.71875 110.71875 C 936.566406 110.183594 936.058594 109.828125 935.507812 109.863281 L 928.480469 110.277344 C 927.929688 110.3125 927.472656 110.722656 927.382812 111.269531 L 926.078125 119.195312 C 926 119.660156 925.65625 120.027344 925.207031 120.148438 C 923.707031 120.546875 922.21875 121.042969 920.753906 121.636719 C 920.320312 121.8125 919.824219 121.722656 919.488281 121.398438 L 913.691406 115.820312 C 913.292969 115.4375 912.683594 115.382812 912.222656 115.6875 L 906.339844 119.558594 C 905.875 119.863281 905.6875 120.449219 905.878906 120.972656 L 908.71875 128.496094 C 908.882812 128.933594 908.769531 129.425781 908.433594 129.753906 C 907.3125 130.863281 906.269531 132.03125 905.316406 133.257812 C 905.023438 133.625 904.554688 133.796875 904.101562 133.679688 L 896.300781 131.753906 C 895.765625 131.621094 895.203125 131.878906 894.960938 132.375 L 891.796875 138.667969 C 891.554688 139.164062 891.683594 139.769531 892.109375 140.121094 L 898.332031 145.21875 C 898.695312 145.515625 898.839844 145.996094 898.714844 146.449219 C 898.304688 147.957031 897.992188 149.488281 897.773438 151.035156 C 897.707031 151.5 897.386719 151.882812 896.933594 152.011719 L 889.199219 154.246094 C 888.667969 154.398438 888.316406 154.898438 888.34375 155.457031 L 888.757812 162.480469 C 888.792969 163.035156 889.203125 163.492188 889.757812 163.582031 L 897.675781 164.882812 C 898.140625 164.960938 898.507812 165.300781 898.625 165.753906 C 899.023438 167.257812 899.519531 168.738281 900.117188 170.203125 C 900.285156 170.636719 900.199219 171.132812 899.875 171.46875 L 894.300781 177.265625 C 893.914062 177.664062 893.855469 178.28125 894.160156 178.742188 L 898.03125 184.621094 C 898.339844 185.085938 898.925781 185.273438 899.445312 185.078125 L 906.972656 182.238281 C 907.40625 182.070312 907.898438 182.1875 908.230469 182.519531 C 909.335938 183.640625 910.503906 184.6875 911.730469 185.640625 C 912.097656 185.929688 912.265625 186.398438 912.152344 186.855469 L 910.222656 194.648438 C 910.089844 195.1875 910.347656 195.75 910.84375 196 L 917.136719 199.152344 C 917.628906 199.402344 918.234375 199.273438 918.585938 198.839844 L 923.683594 192.617188 C 923.984375 192.253906 924.464844 192.109375 924.914062 192.230469 C 926.421875 192.640625 927.957031 192.953125 929.503906 193.171875 C 929.964844 193.242188 930.351562 193.5625 930.480469 194.011719 L 932.710938 201.742188 C 932.863281 202.273438 933.363281 202.628906 933.921875 202.601562 L 940.949219 202.179688 C 941.503906 202.152344 941.960938 201.734375 942.050781 201.1875 L 943.351562 193.261719 C 943.425781 192.800781 943.769531 192.433594 944.222656 192.316406 C 945.722656 191.917969 947.210938 191.421875 948.675781 190.824219 C 949.105469 190.648438 949.605469 190.738281 949.941406 191.0625 L 955.734375 196.640625 C 956.132812 197.019531 956.746094 197.082031 957.210938 196.773438 L 963.089844 192.898438 " fill-opacity="1" fill-rule="nonzero"/><path fill="#5479f7" d="M 978.082031 223.953125 C 972.957031 215.675781 975.5 204.808594 983.769531 199.675781 C 992.039062 194.542969 1002.902344 197.085938 1008.03125 205.359375 C 1013.164062 213.636719 1010.621094 224.507812 1002.347656 229.640625 C 994.078125 234.773438 983.214844 232.226562 978.082031 223.953125 Z M 1017.277344 239.539062 C 1017.589844 239.273438 1017.683594 238.820312 1017.492188 238.449219 L 1014.746094 233.09375 C 1014.585938 232.78125 1014.628906 232.40625 1014.847656 232.132812 C 1015.589844 231.210938 1016.269531 230.253906 1016.875 229.261719 C 1017.0625 228.964844 1017.398438 228.796875 1017.742188 228.84375 L 1023.710938 229.617188 C 1024.125 229.671875 1024.515625 229.429688 1024.660156 229.042969 L 1026.476562 224.089844 C 1026.621094 223.703125 1026.46875 223.265625 1026.125 223.039062 L 1021.0625 219.769531 C 1020.765625 219.582031 1020.617188 219.238281 1020.675781 218.890625 C 1020.851562 217.734375 1020.953125 216.566406 1020.984375 215.394531 C 1020.996094 215.046875 1021.203125 214.734375 1021.527344 214.597656 L 1027.089844 212.285156 C 1027.476562 212.121094 1027.695312 211.71875 1027.628906 211.308594 L 1026.726562 206.117188 C 1026.652344 205.707031 1026.304688 205.398438 1025.890625 205.378906 L 1019.882812 205.085938 C 1019.535156 205.0625 1019.234375 204.84375 1019.109375 204.515625 C 1018.6875 203.433594 1018.191406 202.371094 1017.625 201.332031 C 1017.457031 201.023438 1017.480469 200.648438 1017.695312 200.367188 L 1021.355469 195.585938 C 1021.609375 195.253906 1021.597656 194.789062 1021.332031 194.472656 L 1017.953125 190.425781 C 1017.6875 190.109375 1017.234375 190.015625 1016.863281 190.203125 L 1011.503906 192.957031 C 1011.199219 193.117188 1010.816406 193.074219 1010.546875 192.855469 C 1009.625 192.113281 1008.667969 191.433594 1007.679688 190.828125 C 1007.378906 190.644531 1007.214844 190.308594 1007.257812 189.960938 L 1008.035156 183.996094 C 1008.089844 183.582031 1007.851562 183.1875 1007.460938 183.046875 L 1002.507812 181.234375 C 1002.121094 181.089844 1001.683594 181.234375 1001.460938 181.585938 L 998.191406 186.652344 C 997.996094 186.941406 997.65625 187.09375 997.308594 187.039062 C 996.152344 186.859375 994.988281 186.761719 993.816406 186.726562 C 993.464844 186.71875 993.152344 186.511719 993.015625 186.183594 L 990.707031 180.621094 C 990.546875 180.238281 990.140625 180.015625 989.730469 180.089844 L 984.539062 180.992188 C 984.128906 181.066406 983.820312 181.414062 983.804688 181.828125 L 983.5 187.835938 C 983.484375 188.183594 983.265625 188.484375 982.9375 188.613281 C 981.855469 189.035156 980.789062 189.53125 979.75 190.097656 C 979.445312 190.265625 979.0625 190.242188 978.785156 190.027344 L 974.003906 186.371094 C 973.675781 186.117188 973.214844 186.128906 972.894531 186.394531 L 968.847656 189.773438 C 968.53125 190.039062 968.4375 190.492188 968.628906 190.863281 L 971.375 196.21875 C 971.535156 196.535156 971.488281 196.910156 971.265625 197.179688 C 970.53125 198.101562 969.847656 199.058594 969.238281 200.050781 C 969.058594 200.351562 968.722656 200.515625 968.371094 200.472656 L 962.410156 199.695312 C 962 199.640625 961.605469 199.882812 961.460938 200.269531 L 959.644531 205.222656 C 959.503906 205.613281 959.648438 206.050781 959.996094 206.273438 L 965.058594 209.542969 C 965.351562 209.730469 965.503906 210.078125 965.449219 210.421875 C 965.273438 211.578125 965.167969 212.75 965.136719 213.917969 C 965.125 214.269531 964.917969 214.578125 964.597656 214.710938 L 959.027344 217.03125 C 958.640625 217.1875 958.425781 217.59375 958.492188 218.003906 L 959.394531 223.195312 C 959.46875 223.605469 959.8125 223.914062 960.226562 223.933594 L 966.230469 224.226562 C 966.582031 224.25 966.886719 224.46875 967.015625 224.796875 C 967.4375 225.882812 967.929688 226.941406 968.496094 227.980469 C 968.664062 228.289062 968.640625 228.664062 968.425781 228.941406 L 964.765625 233.726562 C 964.511719 234.058594 964.523438 234.519531 964.789062 234.839844 L 968.167969 238.886719 C 968.433594 239.203125 968.886719 239.296875 969.25 239.105469 L 974.613281 236.355469 C 974.929688 236.195312 975.296875 236.238281 975.574219 236.457031 C 976.496094 237.199219 977.457031 237.878906 978.441406 238.488281 C 978.742188 238.667969 978.90625 239.007812 978.863281 239.355469 L 978.082031 245.316406 C 978.03125 245.730469 978.269531 246.125 978.660156 246.265625 L 983.605469 248.082031 C 984 248.222656 984.433594 248.078125 984.660156 247.726562 L 987.929688 242.664062 C 988.121094 242.371094 988.464844 242.222656 988.8125 242.273438 C 989.96875 242.449219 991.136719 242.554688 992.308594 242.585938 C 992.652344 242.597656 992.96875 242.800781 993.101562 243.128906 L 995.414062 248.691406 C 995.574219 249.074219 995.976562 249.296875 996.390625 249.222656 L 1001.582031 248.320312 C 1001.988281 248.246094 1002.296875 247.902344 1002.316406 247.488281 L 1002.617188 241.480469 C 1002.632812 241.128906 1002.855469 240.832031 1003.1875 240.699219 C 1004.273438 240.277344 1005.332031 239.78125 1006.371094 239.214844 C 1006.683594 239.046875 1007.054688 239.070312 1007.332031 239.285156 L 1012.117188 242.945312 C 1012.445312 243.199219 1012.90625 243.1875 1013.226562 242.917969 L 1017.277344 239.539062 " fill-opacity="1" fill-rule="nonzero"/><path fill="#5479f7" d="M 979.914062 293.4375 C 979.613281 293.4375 979.3125 293.3125 979.09375 293.070312 C 977.472656 291.230469 975.988281 289.632812 974.671875 288.328125 C 974.242188 287.902344 974.238281 287.210938 974.65625 286.78125 C 975.085938 286.351562 975.777344 286.347656 976.210938 286.773438 C 977.558594 288.113281 979.082031 289.746094 980.738281 291.625 C 981.132812 292.082031 981.089844 292.769531 980.632812 293.167969 C 980.425781 293.351562 980.175781 293.4375 979.914062 293.4375 Z M 989.050781 304.796875 C 988.722656 304.796875 988.394531 304.640625 988.179688 304.355469 C 986.867188 302.589844 985.523438 300.847656 984.199219 299.183594 C 983.820312 298.710938 983.902344 298.027344 984.371094 297.652344 C 984.84375 297.273438 985.53125 297.351562 985.90625 297.824219 C 987.246094 299.507812 988.601562 301.261719 989.929688 303.050781 C 990.289062 303.53125 990.191406 304.214844 989.707031 304.578125 C 989.511719 304.722656 989.28125 304.796875 989.050781 304.796875 Z M 997.382812 316.753906 C 997.027344 316.753906 996.675781 316.578125 996.464844 316.257812 C 995.285156 314.441406 994.0625 312.621094 992.832031 310.835938 C 992.488281 310.335938 992.609375 309.660156 993.109375 309.316406 C 993.601562 308.96875 994.28125 309.09375 994.625 309.59375 C 995.871094 311.394531 997.105469 313.230469 998.300781 315.066406 C 998.628906 315.574219 998.484375 316.246094 997.976562 316.578125 C 997.796875 316.695312 997.585938 316.753906 997.382812 316.753906 Z M 1004.929688 329.21875 C 1004.546875 329.21875 1004.175781 329.015625 1003.976562 328.65625 C 1002.921875 326.785156 1001.820312 324.886719 1000.699219 323.019531 C 1000.386719 322.503906 1000.554688 321.828125 1001.070312 321.519531 C 1001.585938 321.210938 1002.253906 321.375 1002.570312 321.890625 C 1003.703125 323.78125 1004.816406 325.699219 1005.875 327.59375 C 1006.175781 328.117188 1005.988281 328.785156 1005.460938 329.078125 C 1005.296875 329.175781 1005.113281 329.21875 1004.929688 329.21875 Z M 1011.613281 342.164062 C 1011.203125 342.164062 1010.8125 341.933594 1010.621094 341.539062 C 1009.714844 339.601562 1008.746094 337.632812 1007.75 335.683594 C 1007.472656 335.148438 1007.683594 334.488281 1008.222656 334.21875 C 1008.761719 333.9375 1009.414062 334.152344 1009.691406 334.683594 C 1010.699219 336.65625 1011.679688 338.652344 1012.601562 340.601562 C 1012.859375 341.152344 1012.621094 341.800781 1012.078125 342.0625 C 1011.929688 342.128906 1011.769531 342.164062 1011.613281 342.164062 Z M 1017.28125 355.578125 C 1016.84375 355.578125 1016.429688 355.308594 1016.261719 354.867188 C 1015.515625 352.863281 1014.707031 350.828125 1013.867188 348.8125 C 1013.632812 348.257812 1013.894531 347.621094 1014.449219 347.386719 C 1015.007812 347.152344 1015.648438 347.414062 1015.875 347.972656 C 1016.730469 350.011719 1017.546875 352.074219 1018.304688 354.101562 C 1018.519531 354.667969 1018.234375 355.296875 1017.667969 355.507812 C 1017.539062 355.554688 1017.410156 355.578125 1017.28125 355.578125 Z M 1021.722656 369.449219 C 1021.238281 369.449219 1020.792969 369.125 1020.667969 368.632812 C 1020.128906 366.582031 1019.515625 364.476562 1018.855469 362.386719 C 1018.671875 361.8125 1018.988281 361.195312 1019.566406 361.015625 C 1020.144531 360.839844 1020.753906 361.15625 1020.9375 361.734375 C 1021.605469 363.855469 1022.226562 365.992188 1022.777344 368.074219 C 1022.929688 368.660156 1022.585938 369.257812 1022 369.410156 C 1021.910156 369.4375 1021.816406 369.449219 1021.722656 369.449219 Z M 1024.625 383.714844 C 1024.089844 383.714844 1023.625 383.320312 1023.546875 382.773438 L 1023.464844 382.238281 C 1023.191406 380.308594 1022.851562 378.335938 1022.460938 376.371094 C 1022.34375 375.78125 1022.726562 375.203125 1023.316406 375.085938 C 1023.914062 374.972656 1024.484375 375.355469 1024.601562 375.949219 C 1024.996094 377.945312 1025.34375 379.960938 1025.625 381.925781 L 1025.707031 382.46875 C 1025.792969 383.066406 1025.375 383.617188 1024.78125 383.703125 C 1024.726562 383.710938 1024.675781 383.714844 1024.625 383.714844 Z M 1025.992188 398.210938 C 1025.414062 398.210938 1024.933594 397.753906 1024.90625 397.175781 C 1024.796875 394.996094 1024.640625 392.8125 1024.453125 390.679688 C 1024.402344 390.074219 1024.84375 389.542969 1025.445312 389.492188 C 1026.042969 389.441406 1026.574219 389.882812 1026.628906 390.480469 C 1026.824219 392.648438 1026.976562 394.859375 1027.082031 397.066406 C 1027.113281 397.664062 1026.648438 398.179688 1026.042969 398.207031 C 1026.027344 398.210938 1026.007812 398.210938 1025.992188 398.210938 Z M 1026.09375 412.769531 C 1026.082031 412.769531 1026.070312 412.769531 1026.058594 412.769531 C 1025.453125 412.75 1024.980469 412.242188 1025 411.640625 C 1025.074219 409.613281 1025.105469 407.5625 1025.105469 405.546875 L 1025.105469 405.125 C 1025.105469 404.519531 1025.597656 404.03125 1026.203125 404.03125 C 1026.800781 404.03125 1027.289062 404.519531 1027.289062 405.125 L 1027.292969 405.542969 C 1027.292969 407.589844 1027.253906 409.664062 1027.1875 411.71875 C 1027.164062 412.304688 1026.679688 412.769531 1026.09375 412.769531 Z M 1025.015625 427.292969 C 1024.972656 427.292969 1024.929688 427.292969 1024.886719 427.285156 C 1024.292969 427.21875 1023.859375 426.675781 1023.929688 426.074219 C 1024.171875 423.9375 1024.382812 421.753906 1024.554688 419.589844 C 1024.597656 418.988281 1025.128906 418.542969 1025.726562 418.585938 C 1026.332031 418.636719 1026.777344 419.160156 1026.730469 419.761719 C 1026.554688 421.949219 1026.347656 424.15625 1026.097656 426.328125 C 1026.03125 426.882812 1025.5625 427.292969 1025.015625 427.292969 Z M 1022.824219 441.695312 C 1022.757812 441.695312 1022.683594 441.6875 1022.617188 441.675781 C 1022.023438 441.558594 1021.636719 440.988281 1021.75 440.394531 C 1022.152344 438.273438 1022.527344 436.113281 1022.863281 433.976562 C 1022.953125 433.378906 1023.519531 432.976562 1024.109375 433.0625 C 1024.707031 433.152344 1025.113281 433.714844 1025.023438 434.3125 C 1024.683594 436.476562 1024.304688 438.660156 1023.894531 440.804688 C 1023.796875 441.328125 1023.339844 441.695312 1022.824219 441.695312 Z M 1019.585938 455.878906 C 1019.496094 455.878906 1019.40625 455.867188 1019.308594 455.84375 C 1018.726562 455.6875 1018.378906 455.089844 1018.535156 454.503906 C 1019.089844 452.417969 1019.621094 450.292969 1020.105469 448.191406 C 1020.238281 447.605469 1020.828125 447.238281 1021.417969 447.375 C 1022 447.515625 1022.367188 448.097656 1022.234375 448.6875 C 1021.742188 450.808594 1021.207031 452.957031 1020.648438 455.066406 C 1020.511719 455.558594 1020.070312 455.878906 1019.585938 455.878906 Z M 1015.359375 469.789062 C 1015.242188 469.789062 1015.125 469.773438 1015.003906 469.730469 C 1014.433594 469.535156 1014.132812 468.914062 1014.324219 468.339844 C 1015.027344 466.300781 1015.707031 464.21875 1016.339844 462.152344 C 1016.515625 461.578125 1017.128906 461.253906 1017.703125 461.429688 C 1018.28125 461.609375 1018.609375 462.21875 1018.429688 462.796875 C 1017.78125 464.882812 1017.097656 466.988281 1016.390625 469.050781 C 1016.234375 469.503906 1015.816406 469.789062 1015.359375 469.789062 Z M 1010.167969 483.371094 C 1010.027344 483.371094 1009.882812 483.347656 1009.742188 483.289062 C 1009.183594 483.050781 1008.925781 482.410156 1009.160156 481.855469 C 1010.003906 479.859375 1010.824219 477.832031 1011.601562 475.820312 C 1011.820312 475.257812 1012.453125 474.980469 1013.015625 475.195312 C 1013.574219 475.410156 1013.855469 476.046875 1013.636719 476.609375 C 1012.855469 478.636719 1012.023438 480.691406 1011.171875 482.703125 C 1010.996094 483.121094 1010.589844 483.371094 1010.167969 483.371094 Z M 1004.039062 496.566406 C 1003.875 496.566406 1003.703125 496.527344 1003.542969 496.445312 C 1003.007812 496.175781 1002.792969 495.515625 1003.066406 494.976562 C 1004.039062 493.0625 1005 491.097656 1005.921875 489.128906 C 1006.179688 488.582031 1006.828125 488.34375 1007.375 488.601562 C 1007.917969 488.859375 1008.152344 489.507812 1007.898438 490.054688 C 1006.964844 492.042969 1005.996094 494.035156 1005.011719 495.96875 C 1004.816406 496.347656 1004.433594 496.566406 1004.039062 496.566406 Z M 997.003906 509.296875 C 996.808594 509.296875 996.613281 509.25 996.4375 509.144531 C 995.921875 508.832031 995.753906 508.160156 996.066406 507.644531 C 997.167969 505.804688 998.265625 503.90625 999.328125 502.003906 C 999.621094 501.476562 1000.289062 501.292969 1000.808594 501.582031 C 1001.335938 501.878906 1001.527344 502.542969 1001.230469 503.070312 C 1000.160156 504.992188 999.054688 506.910156 997.9375 508.769531 C 997.730469 509.109375 997.367188 509.296875 997.003906 509.296875 Z M 989.074219 521.5 C 988.855469 521.5 988.636719 521.433594 988.449219 521.296875 C 987.953125 520.953125 987.835938 520.269531 988.183594 519.777344 C 989.425781 518.007812 990.652344 516.195312 991.835938 514.386719 C 992.167969 513.882812 992.84375 513.746094 993.347656 514.070312 C 993.851562 514.40625 993.992188 515.078125 993.664062 515.585938 C 992.464844 517.414062 991.222656 519.25 989.96875 521.035156 C 989.753906 521.339844 989.414062 521.5 989.074219 521.5 Z M 980.277344 533.085938 C 980.03125 533.085938 979.789062 533.003906 979.585938 532.835938 C 979.117188 532.453125 979.050781 531.765625 979.4375 531.300781 C 980.804688 529.625 982.164062 527.910156 983.476562 526.199219 C 983.839844 525.714844 984.523438 525.628906 985.003906 525.992188 C 985.484375 526.359375 985.578125 527.042969 985.210938 527.523438 C 983.882812 529.253906 982.511719 530.992188 981.121094 532.683594 C 980.90625 532.949219 980.59375 533.085938 980.277344 533.085938 Z M 970.636719 543.980469 C 970.367188 543.980469 970.097656 543.878906 969.882812 543.679688 C 969.449219 543.257812 969.433594 542.570312 969.851562 542.132812 C 971.34375 540.574219 972.824219 538.964844 974.261719 537.351562 C 974.660156 536.898438 975.355469 536.859375 975.808594 537.261719 C 976.257812 537.664062 976.296875 538.351562 975.894531 538.804688 C 974.441406 540.433594 972.9375 542.066406 971.433594 543.640625 C 971.214844 543.863281 970.925781 543.980469 970.636719 543.980469 Z M 960.195312 554.089844 C 959.890625 554.089844 959.59375 553.96875 959.378906 553.726562 C 958.976562 553.277344 959.015625 552.582031 959.460938 552.183594 C 961.066406 550.75 962.671875 549.261719 964.234375 547.761719 C 964.667969 547.34375 965.359375 547.363281 965.78125 547.796875 C 966.199219 548.230469 966.183594 548.921875 965.746094 549.335938 C 964.164062 550.859375 962.539062 552.363281 960.914062 553.8125 C 960.710938 553.996094 960.449219 554.089844 960.195312 554.089844 Z M 948.980469 563.335938 C 948.644531 563.335938 948.320312 563.183594 948.105469 562.902344 C 947.738281 562.417969 947.835938 561.734375 948.316406 561.371094 C 950.042969 560.0625 951.753906 558.710938 953.421875 557.351562 C 953.890625 556.96875 954.574219 557.039062 954.957031 557.507812 C 955.339844 557.972656 955.273438 558.660156 954.804688 559.042969 C 953.117188 560.417969 951.378906 561.789062 949.636719 563.109375 C 949.4375 563.261719 949.203125 563.335938 948.980469 563.335938 Z M 937.046875 571.617188 C 936.683594 571.617188 936.332031 571.4375 936.125 571.109375 C 935.800781 570.601562 935.949219 569.925781 936.460938 569.601562 C 938.273438 568.453125 940.101562 567.246094 941.875 566.023438 C 942.375 565.679688 943.054688 565.804688 943.394531 566.304688 C 943.738281 566.796875 943.613281 567.480469 943.117188 567.824219 C 941.3125 569.0625 939.472656 570.28125 937.628906 571.445312 C 937.449219 571.5625 937.246094 571.617188 937.046875 571.617188 " fill-opacity="1" fill-rule="nonzero"/><path fill="#ffffff" d="M 1082.59375 412.355469 C 1082.59375 447.863281 1053.828125 476.644531 1018.339844 476.644531 C 982.855469 476.644531 954.085938 447.863281 954.085938 412.355469 C 954.085938 376.847656 982.855469 348.0625 1018.339844 348.0625 C 1053.828125 348.0625 1082.59375 376.847656 1082.59375 412.355469 " fill-opacity="1" fill-rule="nonzero"/><path fill="#000000" d="M 1018.339844 349.160156 C 983.511719 349.160156 955.171875 377.511719 955.171875 412.359375 C 955.171875 447.203125 983.511719 475.554688 1018.339844 475.554688 C 1053.164062 475.554688 1081.5 447.203125 1081.5 412.359375 C 1081.5 377.511719 1053.164062 349.160156 1018.339844 349.160156 Z M 1018.339844 477.738281 C 982.304688 477.738281 952.988281 448.40625 952.988281 412.359375 C 952.988281 376.304688 982.304688 346.976562 1018.339844 346.976562 C 1054.367188 346.976562 1083.679688 376.304688 1083.679688 412.359375 C 1083.679688 448.40625 1054.367188 477.738281 1018.339844 477.738281 " fill-opacity="1" fill-rule="nonzero"/><path fill="#000000" d="M 1019.644531 424.777344 C 1019.179688 424.777344 1018.742188 424.476562 1018.605469 424.003906 C 1018.421875 423.425781 1018.753906 422.816406 1019.324219 422.640625 L 1052.929688 412.363281 L 1019.328125 402.203125 C 1018.753906 402.027344 1018.421875 401.417969 1018.601562 400.839844 C 1018.773438 400.265625 1019.382812 399.9375 1019.960938 400.113281 L 1057 411.3125 C 1057.460938 411.449219 1057.773438 411.871094 1057.777344 412.351562 C 1057.777344 412.835938 1057.464844 413.257812 1057 413.402344 L 1019.964844 424.730469 C 1019.855469 424.761719 1019.75 424.777344 1019.644531 424.777344 " fill-opacity="1" fill-rule="nonzero"/><path fill="#000000" d="M 1019.644531 447.253906 C 1019.351562 447.253906 1019.054688 447.136719 1018.839844 446.898438 C 1018.433594 446.453125 1018.464844 445.761719 1018.90625 445.355469 L 1055.070312 412.351562 L 1018.902344 378.71875 C 1018.460938 378.308594 1018.4375 377.621094 1018.84375 377.175781 C 1019.253906 376.734375 1019.945312 376.710938 1020.390625 377.121094 L 1057.425781 411.554688 C 1057.652344 411.761719 1057.777344 412.058594 1057.777344 412.359375 C 1057.773438 412.664062 1057.648438 412.957031 1057.417969 413.164062 L 1020.378906 446.96875 C 1020.171875 447.160156 1019.910156 447.253906 1019.644531 447.253906 " fill-opacity="1" fill-rule="nonzero"/><path fill="#000000" d="M 1008.363281 418.800781 C 1008.15625 418.800781 1007.945312 418.738281 1007.757812 418.613281 L 982.03125 401.308594 C 981.535156 400.96875 981.402344 400.289062 981.738281 399.785156 C 982.074219 399.289062 982.753906 399.160156 983.25 399.492188 L 1008.976562 416.800781 C 1009.472656 417.136719 1009.605469 417.816406 1009.269531 418.320312 C 1009.0625 418.632812 1008.714844 418.800781 1008.363281 418.800781 " fill-opacity="1" fill-rule="nonzero"/><path fill="#000000" d="M 984.792969 402.089844 C 984.453125 402.089844 984.125 401.933594 983.910156 401.636719 C 983.554688 401.148438 983.667969 400.464844 984.152344 400.113281 L 1011.839844 380.082031 C 1012.332031 379.730469 1013.011719 379.839844 1013.367188 380.324219 C 1013.71875 380.8125 1013.609375 381.5 1013.121094 381.851562 L 985.433594 401.886719 C 985.242188 402.023438 985.015625 402.089844 984.792969 402.089844 " fill-opacity="1" fill-rule="nonzero"/><path fill="#000000" d="M 1012.789062 445.183594 C 1012.570312 445.183594 1012.347656 445.117188 1012.15625 444.980469 L 984.160156 424.960938 C 983.777344 424.6875 983.609375 424.191406 983.757812 423.738281 C 983.898438 423.289062 984.320312 422.980469 984.796875 422.980469 L 1012.480469 422.980469 C 1013.085938 422.980469 1013.574219 423.46875 1013.574219 424.070312 C 1013.574219 424.675781 1013.085938 425.164062 1012.480469 425.164062 L 988.203125 425.164062 L 1013.421875 443.203125 C 1013.914062 443.550781 1014.03125 444.234375 1013.679688 444.726562 C 1013.460938 445.023438 1013.128906 445.183594 1012.789062 445.183594 " fill-opacity="1" fill-rule="nonzero"/><path fill="#000000" d="M 1012.480469 402.25 L 983.195312 402.25 C 982.59375 402.25 982.101562 401.761719 982.101562 401.15625 C 982.101562 400.554688 982.59375 400.0625 983.195312 400.0625 L 1012.480469 400.0625 C 1013.085938 400.0625 1013.574219 400.554688 1013.574219 401.15625 C 1013.574219 401.761719 1013.085938 402.25 1012.480469 402.25 " fill-opacity="1" fill-rule="nonzero"/><path fill="#5479f7" d="M 976.03125 401.15625 C 976.03125 397.199219 979.238281 393.988281 983.195312 393.988281 C 987.148438 393.988281 990.359375 397.199219 990.359375 401.15625 C 990.359375 405.113281 987.148438 408.324219 983.195312 408.324219 C 979.238281 408.324219 976.03125 405.113281 976.03125 401.15625 " fill-opacity="1" fill-rule="nonzero"/><path fill="#000000" d="M 983.191406 395.082031 C 979.84375 395.082031 977.117188 397.808594 977.117188 401.15625 C 977.117188 404.511719 979.84375 407.238281 983.191406 407.238281 C 986.539062 407.238281 989.265625 404.511719 989.265625 401.15625 C 989.265625 397.808594 986.539062 395.082031 983.191406 395.082031 Z M 983.191406 409.417969 C 978.644531 409.417969 974.9375 405.710938 974.9375 401.15625 C 974.9375 396.605469 978.644531 392.898438 983.191406 392.898438 C 987.742188 392.898438 991.449219 396.605469 991.449219 401.15625 C 991.449219 405.710938 987.742188 409.417969 983.191406 409.417969 " fill-opacity="1" fill-rule="nonzero"/><path fill="#caddff" d="M 1012.476562 401.15625 C 1012.476562 397.199219 1015.6875 393.992188 1019.644531 393.992188 C 1023.597656 393.992188 1026.804688 397.199219 1026.804688 401.15625 C 1026.804688 405.117188 1023.597656 408.324219 1019.644531 408.324219 C 1015.6875 408.324219 1012.476562 405.117188 1012.476562 401.15625 " fill-opacity="1" fill-rule="nonzero"/><path fill="#000000" d="M 1019.644531 395.078125 C 1016.300781 395.078125 1013.578125 397.804688 1013.578125 401.15625 C 1013.578125 404.507812 1016.300781 407.230469 1019.644531 407.230469 C 1022.992188 407.230469 1025.71875 404.507812 1025.71875 401.15625 C 1025.71875 397.804688 1022.992188 395.078125 1019.644531 395.078125 Z M 1019.644531 409.417969 C 1015.09375 409.417969 1011.390625 405.710938 1011.390625 401.15625 C 1011.390625 396.601562 1015.09375 392.898438 1019.644531 392.898438 C 1024.199219 392.898438 1027.902344 396.601562 1027.902344 401.15625 C 1027.902344 405.710938 1024.199219 409.417969 1019.644531 409.417969 " fill-opacity="1" fill-rule="nonzero"/><path fill="#caddff" d="M 1012.476562 377.921875 C 1012.476562 373.964844 1015.6875 370.757812 1019.644531 370.757812 C 1023.597656 370.757812 1026.804688 373.964844 1026.804688 377.921875 C 1026.804688 381.878906 1023.597656 385.089844 1019.644531 385.089844 C 1015.6875 385.089844 1012.476562 381.878906 1012.476562 377.921875 " fill-opacity="1" fill-rule="nonzero"/><path fill="#000000" d="M 1019.644531 371.84375 C 1016.300781 371.84375 1013.578125 374.566406 1013.578125 377.921875 C 1013.578125 381.269531 1016.300781 383.996094 1019.644531 383.996094 C 1022.992188 383.996094 1025.71875 381.269531 1025.71875 377.921875 C 1025.71875 374.566406 1022.992188 371.84375 1019.644531 371.84375 Z M 1019.644531 386.179688 C 1015.09375 386.179688 1011.390625 382.472656 1011.390625 377.921875 C 1011.390625 373.367188 1015.09375 369.660156 1019.644531 369.660156 C 1024.199219 369.660156 1027.902344 373.367188 1027.902344 377.921875 C 1027.902344 382.472656 1024.199219 386.179688 1019.644531 386.179688 " fill-opacity="1" fill-rule="nonzero"/><path fill="#caddff" d="M 1012.476562 446.164062 C 1012.476562 442.203125 1015.6875 438.996094 1019.644531 438.996094 C 1023.597656 438.996094 1026.804688 442.203125 1026.804688 446.164062 C 1026.804688 450.121094 1023.597656 453.332031 1019.644531 453.332031 C 1015.6875 453.332031 1012.476562 450.121094 1012.476562 446.164062 " fill-opacity="1" fill-rule="nonzero"/><path fill="#000000" d="M 1019.644531 440.085938 C 1016.300781 440.085938 1013.578125 442.8125 1013.578125 446.164062 C 1013.578125 449.511719 1016.300781 452.234375 1019.644531 452.234375 C 1022.992188 452.234375 1025.71875 449.511719 1025.71875 446.164062 C 1025.71875 442.8125 1022.992188 440.085938 1019.644531 440.085938 Z M 1019.644531 454.417969 C 1015.09375 454.417969 1011.390625 450.714844 1011.390625 446.164062 C 1011.390625 441.605469 1015.09375 437.902344 1019.644531 437.902344 C 1024.199219 437.902344 1027.902344 441.605469 1027.902344 446.164062 C 1027.902344 450.714844 1024.199219 454.417969 1019.644531 454.417969 " fill-opacity="1" fill-rule="nonzero"/><path fill="#000000" d="M 982.652344 425.0625 C 982.308594 425.0625 981.96875 424.902344 981.757812 424.601562 C 981.410156 424.113281 981.523438 423.429688 982.011719 423.082031 L 1007.738281 404.804688 C 1008.226562 404.457031 1008.910156 404.566406 1009.257812 405.066406 C 1009.605469 405.554688 1009.492188 406.238281 1009 406.589844 L 983.28125 424.859375 C 983.085938 425 982.867188 425.0625 982.652344 425.0625 " fill-opacity="1" fill-rule="nonzero"/><path fill="#caddff" d="M 1012.476562 423.6875 C 1012.476562 419.730469 1015.6875 416.519531 1019.644531 416.519531 C 1023.597656 416.519531 1026.804688 419.730469 1026.804688 423.6875 C 1026.804688 427.648438 1023.597656 430.851562 1019.644531 430.851562 C 1015.6875 430.851562 1012.476562 427.648438 1012.476562 423.6875 " fill-opacity="1" fill-rule="nonzero"/><path fill="#000000" d="M 1019.644531 417.609375 C 1016.300781 417.609375 1013.578125 420.335938 1013.578125 423.683594 C 1013.578125 427.035156 1016.300781 429.757812 1019.644531 429.757812 C 1022.992188 429.757812 1025.71875 427.035156 1025.71875 423.683594 C 1025.71875 420.335938 1022.992188 417.609375 1019.644531 417.609375 Z M 1019.644531 431.945312 C 1015.09375 431.945312 1011.390625 428.238281 1011.390625 423.683594 C 1011.390625 419.128906 1015.09375 415.425781 1019.644531 415.425781 C 1024.199219 415.425781 1027.902344 419.128906 1027.902344 423.683594 C 1027.902344 428.238281 1024.199219 431.945312 1019.644531 431.945312 " fill-opacity="1" fill-rule="nonzero"/><path fill="#ffffff" d="M 1049.519531 412.359375 C 1049.519531 408.398438 1052.726562 405.191406 1056.679688 405.191406 C 1060.636719 405.191406 1063.84375 408.398438 1063.84375 412.359375 C 1063.84375 416.316406 1060.636719 419.527344 1056.679688 419.527344 C 1052.726562 419.527344 1049.519531 416.316406 1049.519531 412.359375 " fill-opacity="1" fill-rule="nonzero"/><path fill="#000000" d="M 1056.683594 406.28125 C 1053.335938 406.28125 1050.609375 409.007812 1050.609375 412.355469 C 1050.609375 415.707031 1053.335938 418.429688 1056.683594 418.429688 C 1060.03125 418.429688 1062.753906 415.707031 1062.753906 412.355469 C 1062.753906 409.007812 1060.03125 406.28125 1056.683594 406.28125 Z M 1056.683594 420.613281 C 1052.128906 420.613281 1048.425781 416.910156 1048.425781 412.355469 C 1048.425781 407.804688 1052.128906 404.097656 1056.683594 404.097656 C 1061.230469 404.097656 1064.9375 407.804688 1064.9375 412.355469 C 1064.9375 416.910156 1061.230469 420.613281 1056.683594 420.613281 " fill-opacity="1" fill-rule="nonzero"/><path fill="#5479f7" d="M 976.03125 423.683594 C 976.03125 419.726562 979.238281 416.519531 983.195312 416.519531 C 987.148438 416.519531 990.359375 419.726562 990.359375 423.683594 C 990.359375 427.644531 987.148438 430.851562 983.195312 430.851562 C 979.238281 430.851562 976.03125 427.644531 976.03125 423.683594 " fill-opacity="1" fill-rule="nonzero"/><path fill="#000000" d="M 983.191406 417.613281 C 979.84375 417.613281 977.117188 420.339844 977.117188 423.6875 C 977.117188 427.039062 979.84375 429.761719 983.191406 429.761719 C 986.539062 429.761719 989.265625 427.039062 989.265625 423.6875 C 989.265625 420.339844 986.539062 417.613281 983.191406 417.613281 Z M 983.191406 431.945312 C 978.644531 431.945312 974.9375 428.238281 974.9375 423.6875 C 974.9375 419.132812 978.644531 415.425781 983.191406 415.425781 C 987.742188 415.425781 991.449219 419.132812 991.449219 423.6875 C 991.449219 428.238281 987.742188 431.945312 983.191406 431.945312 " fill-opacity="1" fill-rule="nonzero"/></svg>