<svg xmlns="http://www.w3.org/2000/svg" xmlns:xlink="http://www.w3.org/1999/xlink" width="1920" zoomAndPan="magnify" viewBox="0 0 1440 809.999993" height="1080" preserveAspectRatio="xMidYMid meet" version="1.0"><defs><clipPath id="d7d147bf6e"><path d="M 56.230469 53.816406 L 1384 53.816406 L 1384 756.183594 L 56.230469 756.183594 Z M 56.230469 53.816406 " clip-rule="nonzero"/></clipPath><clipPath id="41ea40cdfa"><path d="M 81.730469 53.816406 L 1358.269531 53.816406 C 1365.03125 53.816406 1371.519531 56.503906 1376.300781 61.285156 C 1381.082031 66.066406 1383.769531 72.554688 1383.769531 79.316406 L 1383.769531 730.683594 C 1383.769531 737.445312 1381.082031 743.933594 1376.300781 748.714844 C 1371.519531 753.496094 1365.03125 756.183594 1358.269531 756.183594 L 81.730469 756.183594 C 74.96875 756.183594 68.480469 753.496094 63.699219 748.714844 C 58.917969 743.933594 56.230469 737.445312 56.230469 730.683594 L 56.230469 79.316406 C 56.230469 72.554688 58.917969 66.066406 63.699219 61.285156 C 68.480469 56.503906 74.96875 53.816406 81.730469 53.816406 Z M 81.730469 53.816406 " clip-rule="nonzero"/></clipPath><clipPath id="ec972c9c04"><path d="M 56.230469 53.816406 L 1383.730469 53.816406 L 1383.730469 755.816406 L 56.230469 755.816406 Z M 56.230469 53.816406 " clip-rule="nonzero"/></clipPath><clipPath id="bd64cbfbdc"><path d="M 81.730469 53.816406 L 1358.265625 53.816406 C 1365.027344 53.816406 1371.515625 56.503906 1376.296875 61.285156 C 1381.078125 66.066406 1383.765625 72.554688 1383.765625 79.316406 L 1383.765625 730.679688 C 1383.765625 737.441406 1381.078125 743.929688 1376.296875 748.710938 C 1371.515625 753.492188 1365.027344 756.179688 1358.265625 756.179688 L 81.730469 756.179688 C 74.96875 756.179688 68.480469 753.492188 63.699219 748.710938 C 58.917969 743.929688 56.230469 737.441406 56.230469 730.679688 L 56.230469 79.316406 C 56.230469 72.554688 58.917969 66.066406 63.699219 61.285156 C 68.480469 56.503906 74.96875 53.816406 81.730469 53.816406 Z M 81.730469 53.816406 " clip-rule="nonzero"/></clipPath><clipPath id="890633fc3e"><path d="M 666 221 L 1052.289062 221 L 1052.289062 542 L 666 542 Z M 666 221 " clip-rule="nonzero"/></clipPath><clipPath id="bfe4f11a42"><path d="M 787 107.578125 L 882 107.578125 L 882 193 L 787 193 Z M 787 107.578125 " clip-rule="nonzero"/></clipPath></defs><rect x="-144" width="1728" fill="#ffffff" y="-80.999999" height="971.999992" fill-opacity="1"/><rect x="-144" width="1728" fill="#ffcbbe" y="-80.999999" height="971.999992" fill-opacity="1"/><g clip-path="url(#d7d147bf6e)"><g clip-path="url(#41ea40cdfa)"><path fill="#ffffff" d="M 56.230469 53.816406 L 1384.140625 53.816406 L 1384.140625 756.183594 L 56.230469 756.183594 Z M 56.230469 53.816406 " fill-opacity="1" fill-rule="nonzero"/></g></g><g clip-path="url(#ec972c9c04)"><g clip-path="url(#bd64cbfbdc)"><path stroke-linecap="butt" transform="matrix(0.75, 0, 0, 0.75, 56.231257, 53.816969)" fill="none" stroke-linejoin="miter" d="M 33.998951 -0.000750723 L 1736.045911 -0.000750723 C 1745.061537 -0.000750723 1753.712579 3.582583 1760.087579 9.957583 C 1766.46258 16.332583 1770.045913 24.983626 1770.045913 33.999251 L 1770.045913 902.48367 C 1770.045913 911.499295 1766.46258 920.150337 1760.087579 926.525338 C 1753.712579 932.900338 1745.061537 936.483671 1736.045911 936.483671 L 33.998951 936.483671 C 24.983325 936.483671 16.332283 932.900338 9.957283 926.525338 C 3.582283 920.150337 -0.00105099 911.499295 -0.00105099 902.48367 L -0.00105099 33.999251 C -0.00105099 24.983626 3.582283 16.332583 9.957283 9.957583 C 16.332283 3.582583 24.983325 -0.000750723 33.998951 -0.000750723 Z M 33.998951 -0.000750723 " stroke="#000000" stroke-width="4" stroke-opacity="1" stroke-miterlimit="4"/></g></g><path fill="#caddff" d="M 812.484375 114.609375 C 787.871094 119.933594 763.691406 127.609375 738.417969 131.425781 C 698.785156 137.414062 664.878906 119.011719 626.367188 123.460938 C 589.09375 127.765625 555.375 154.710938 534.234375 184.753906 C 503.171875 228.921875 493.511719 281.824219 480.3125 333.050781 C 461.703125 405.277344 454.640625 480 466.535156 554.148438 C 472.726562 592.746094 489.898438 626.992188 527.316406 650.511719 C 569.914062 677.285156 784.078125 702.320312 841.640625 698.621094 C 902.089844 694.738281 974.199219 673.960938 1016.976562 624.851562 C 1051.722656 584.960938 1049.480469 546.980469 1048.445312 498.546875 C 1047.039062 433.085938 1049.304688 367.613281 1047.886719 302.152344 C 1046.605469 242.742188 1018.0625 179.851562 966.726562 143.757812 C 933.25 120.21875 905.359375 110.4375 864.628906 109.007812 C 846.707031 108.378906 829.492188 110.929688 812.484375 114.609375 " fill-opacity="1" fill-rule="nonzero"/><g clip-path="url(#890633fc3e)"><path fill="#99b9ff" d="M 1037.785156 541.832031 L 686.785156 493.023438 C 677.972656 491.898438 671.367188 484.394531 671.367188 475.515625 L 666.554688 230.691406 C 666.554688 230.691406 674.554688 224.925781 679.089844 222.714844 C 681.394531 221.589844 684.054688 221.097656 686.820312 221.449219 L 1036.773438 266.078125 C 1045.589844 267.203125 1052.191406 274.699219 1052.191406 283.585938 L 1052.191406 524.042969 C 1052.191406 528.347656 1050.226562 532.140625 1047.183594 534.640625 C 1044.386719 536.945312 1037.785156 541.832031 1037.785156 541.832031 " fill-opacity="1" fill-rule="nonzero"/></g><path fill="#caddff" d="M 1027.074219 545.085938 L 677.117188 500.457031 C 668.304688 499.332031 661.699219 491.835938 661.699219 482.953125 L 661.699219 242.492188 C 661.699219 234.226562 668.953125 227.839844 677.152344 228.886719 L 1027.109375 273.511719 C 1035.921875 274.636719 1042.523438 282.136719 1042.523438 291.023438 L 1042.523438 531.484375 C 1042.523438 539.746094 1035.269531 546.128906 1027.074219 545.085938 " fill-opacity="1" fill-rule="nonzero"/><path fill="#000000" d="M 1042.523438 357.640625 C 1041.929688 357.640625 1041.453125 357.160156 1041.453125 356.570312 L 1041.453125 291.023438 C 1041.453125 282.699219 1035.226562 275.628906 1026.96875 274.578125 L 966.40625 266.855469 C 965.820312 266.777344 965.40625 266.246094 965.484375 265.65625 C 965.558594 265.070312 966.085938 264.65625 966.675781 264.734375 L 1027.242188 272.457031 C 1036.566406 273.644531 1043.589844 281.628906 1043.589844 291.023438 L 1043.589844 356.570312 C 1043.589844 357.160156 1043.109375 357.640625 1042.523438 357.640625 " fill-opacity="1" fill-rule="nonzero"/><path fill="#000000" d="M 661.703125 296.746094 C 661.109375 296.746094 660.632812 296.265625 660.632812 295.675781 L 660.632812 242.488281 C 660.632812 238.242188 662.460938 234.199219 665.644531 231.394531 C 668.832031 228.585938 673.078125 227.289062 677.285156 227.824219 L 952.03125 262.863281 C 952.621094 262.9375 953.03125 263.472656 952.957031 264.058594 C 952.882812 264.644531 952.34375 265.054688 951.761719 264.980469 L 677.019531 229.949219 C 673.40625 229.484375 669.785156 230.597656 667.058594 232.996094 C 664.335938 235.402344 662.769531 238.859375 662.769531 242.488281 L 662.769531 295.675781 C 662.769531 296.265625 662.292969 296.746094 661.703125 296.746094 " fill-opacity="1" fill-rule="nonzero"/><path fill="#ffffff" d="M 1019.636719 535.175781 L 685.480469 492.5625 C 679.070312 491.746094 674.269531 486.289062 674.269531 479.832031 L 674.269531 247.886719 C 674.269531 242.367188 679.113281 238.101562 684.589844 238.800781 L 1018.742188 281.414062 C 1025.148438 282.230469 1029.953125 287.683594 1029.953125 294.144531 L 1029.953125 526.089844 C 1029.953125 531.609375 1025.105469 535.875 1019.636719 535.175781 " fill-opacity="1" fill-rule="nonzero"/><path fill="#99b9ff" d="M 822.910156 686.703125 L 462.992188 640.285156 C 460.175781 639.925781 458.589844 637.566406 458.625 635.210938 C 458.648438 633.582031 458.78125 622.125 458.78125 622.125 L 649.085938 513.332031 C 658.621094 507.886719 670.957031 505.785156 681.847656 507.179688 L 1037.21875 553.023438 C 1039.359375 553.296875 1041.191406 554.683594 1042.042969 556.667969 L 1042.613281 558.007812 C 1042.613281 558.007812 1042.308594 567.558594 1042.429688 569.792969 C 1042.527344 571.535156 1041.746094 573.339844 1039.914062 574.382812 L 854.386719 680.457031 C 844.847656 685.902344 833.804688 688.09375 822.910156 686.703125 " fill-opacity="1" fill-rule="nonzero"/><path fill="#ffffff" d="M 822.90625 673.953125 L 464.28125 627.625 C 459.519531 627.015625 458.269531 620.703125 462.433594 618.324219 L 646.96875 512.929688 C 656.503906 507.484375 667.550781 505.292969 678.445312 506.6875 L 1037.070312 553.011719 C 1041.832031 553.625 1043.082031 559.9375 1038.914062 562.320312 L 854.386719 667.710938 C 844.847656 673.15625 833.800781 675.347656 822.90625 673.953125 " fill-opacity="1" fill-rule="nonzero"/><path fill="#000000" d="M 823.042969 672.894531 C 833.640625 674.246094 844.578125 672.078125 853.851562 666.78125 L 1038.390625 561.386719 C 1040.203125 560.351562 1040.5625 558.550781 1040.296875 557.210938 C 1040.027344 555.867188 1039.007812 554.335938 1036.9375 554.070312 L 678.308594 507.746094 C 667.710938 506.390625 656.773438 508.558594 647.5 513.855469 L 462.96875 619.25 C 461.15625 620.285156 460.792969 622.085938 461.058594 623.429688 C 461.324219 624.773438 462.347656 626.300781 464.417969 626.566406 L 823.046875 672.894531 Z M 829.25 675.425781 C 827.089844 675.425781 824.925781 675.289062 822.777344 675.011719 C 822.769531 675.011719 822.769531 675.011719 822.769531 675.011719 L 464.144531 628.683594 C 461.511719 628.347656 459.476562 626.445312 458.960938 623.84375 C 458.445312 621.242188 459.601562 618.710938 461.90625 617.390625 L 646.441406 512 C 656.113281 506.472656 667.53125 504.210938 678.582031 505.628906 L 1037.210938 551.953125 C 1039.84375 552.289062 1041.878906 554.1875 1042.394531 556.792969 C 1042.910156 559.398438 1041.757812 561.929688 1039.449219 563.246094 L 854.917969 668.636719 C 847.125 673.085938 838.203125 675.425781 829.25 675.425781 " fill-opacity="1" fill-rule="nonzero"/><path fill="#99b9ff" d="M 893.125 615.449219 L 582.148438 574.984375 C 577.847656 574.433594 576.71875 568.734375 580.480469 566.582031 L 653.601562 525.246094 C 662.210938 520.324219 672.191406 518.347656 682.03125 519.605469 L 993.003906 560.070312 C 997.308594 560.621094 998.4375 566.324219 994.671875 568.472656 L 921.550781 609.8125 C 912.941406 614.730469 902.960938 616.710938 893.125 615.449219 " fill-opacity="1" fill-rule="nonzero"/><path fill="#caddff" d="M 739.125 486.019531 L 994.046875 513.691406 C 995.324219 513.828125 996.476562 512.902344 996.613281 511.625 L 997.730469 501.375 C 997.867188 500.09375 996.941406 498.949219 995.664062 498.808594 L 740.742188 471.136719 C 739.460938 471 738.308594 471.925781 738.175781 473.203125 L 737.058594 483.453125 C 736.921875 484.730469 737.847656 485.882812 739.125 486.019531 " fill-opacity="1" fill-rule="nonzero"/><path fill="#caddff" d="M 768.191406 459.660156 L 992.195312 483.972656 C 994.742188 484.246094 997.027344 482.410156 997.304688 479.863281 L 997.921875 474.203125 C 998.195312 471.65625 996.355469 469.367188 993.808594 469.09375 L 769.800781 444.777344 C 767.261719 444.503906 764.972656 446.339844 764.699219 448.886719 L 764.082031 454.546875 C 763.804688 457.09375 765.644531 459.386719 768.191406 459.660156 " fill-opacity="1" fill-rule="nonzero"/><path fill="#caddff" d="M 706.597656 425.277344 L 995.660156 456.652344 C 996.9375 456.789062 998.085938 455.863281 998.226562 454.585938 L 999.339844 444.339844 C 999.480469 443.058594 998.554688 441.910156 997.273438 441.769531 L 708.210938 410.394531 C 706.929688 410.257812 705.785156 411.179688 705.644531 412.460938 L 704.53125 422.707031 C 704.394531 423.988281 705.316406 425.136719 706.597656 425.277344 " fill-opacity="1" fill-rule="nonzero"/><path fill="#caddff" d="M 746.796875 376.714844 L 997.523438 400 C 1000.074219 400.238281 1002.328125 398.363281 1002.566406 395.8125 L 1003.09375 390.144531 C 1003.332031 387.59375 1001.457031 385.332031 998.90625 385.097656 L 748.179688 361.8125 C 745.632812 361.574219 743.371094 363.449219 743.136719 366 L 742.609375 371.667969 C 742.371094 374.214844 744.246094 376.476562 746.796875 376.714844 " fill-opacity="1" fill-rule="nonzero"/><path fill="#caddff" d="M 771.722656 349.726562 L 996.082031 370.566406 C 998.628906 370.800781 1000.890625 368.929688 1001.128906 366.378906 L 1001.652344 360.710938 C 1001.886719 358.160156 1000.015625 355.898438 997.460938 355.664062 L 773.105469 334.824219 C 770.5625 334.585938 768.300781 336.460938 768.066406 339.015625 L 767.539062 344.679688 C 767.300781 347.234375 769.179688 349.492188 771.722656 349.726562 " fill-opacity="1" fill-rule="nonzero"/><path fill="#caddff" d="M 709.769531 316.601562 L 994.691406 343.0625 C 997.242188 343.300781 999.496094 341.425781 999.734375 338.878906 L 1000.265625 333.207031 C 1000.5 330.65625 998.625 328.398438 996.074219 328.160156 L 711.152344 301.699219 C 708.601562 301.460938 706.34375 303.335938 706.105469 305.882812 L 705.578125 311.554688 C 705.339844 314.105469 707.21875 316.363281 709.769531 316.601562 " fill-opacity="1" fill-rule="nonzero"/><path fill="#000000" d="M 585.066406 422.753906 C 585.363281 438.863281 588.0625 460.617188 599.035156 474.390625 C 605.359375 482.328125 613.597656 486.878906 623.523438 487.921875 C 668.078125 492.59375 692.53125 438.476562 693.546875 436.171875 C 695.386719 432.015625 693.503906 427.164062 689.351562 425.328125 C 685.199219 423.492188 680.347656 425.367188 678.507812 429.515625 C 678.308594 429.96875 657.863281 474.988281 625.238281 471.566406 C 619.785156 470.992188 615.425781 468.5625 611.898438 464.144531 C 599.839844 449 600.871094 415.472656 602.289062 403.832031 C 602.835938 399.324219 599.625 395.222656 595.117188 394.675781 C 590.605469 394.121094 586.507812 397.335938 585.957031 401.84375 C 585.859375 402.671875 584.855469 411.28125 585.066406 422.753906 " fill-opacity="1" fill-rule="nonzero"/><path fill="#000000" d="M 576.023438 372.9375 L 576.316406 388.726562 C 576.476562 397.355469 583.082031 404.390625 591.683594 405.089844 L 597.191406 405.535156 C 601.890625 405.917969 606.558594 404.285156 609.996094 401.054688 C 613.433594 397.828125 615.355469 393.269531 615.269531 388.554688 L 614.800781 363.367188 C 614.714844 358.824219 610.96875 355.214844 606.425781 355.300781 C 601.882812 355.382812 598.269531 359.128906 598.355469 363.671875 L 598.820312 388.859375 C 598.824219 388.90625 598.824219 388.980469 598.734375 389.066406 C 598.644531 389.152344 598.570312 389.144531 598.523438 389.140625 L 593.019531 388.695312 C 592.875 388.679688 592.765625 388.566406 592.761719 388.421875 L 592.46875 372.632812 C 592.386719 368.09375 588.636719 364.480469 584.09375 364.5625 C 579.554688 364.648438 575.941406 368.398438 576.023438 372.9375 " fill-opacity="1" fill-rule="nonzero"/><path fill="#000000" d="M 938.617188 439.636719 C 938.316406 455.753906 935.308594 477.496094 922.894531 491.242188 C 915.738281 499.167969 906.402344 503.699219 895.148438 504.714844 C 844.605469 509.277344 816.730469 455.097656 815.566406 452.789062 C 813.46875 448.628906 815.597656 443.777344 820.300781 441.953125 C 825.007812 440.128906 830.519531 442.011719 832.617188 446.167969 C 832.84375 446.621094 856.148438 491.695312 893.164062 488.351562 C 899.339844 487.796875 904.289062 485.378906 908.273438 480.964844 C 921.921875 465.851562 920.664062 432.316406 919.027344 420.671875 C 918.394531 416.160156 922.027344 412.074219 927.144531 411.535156 C 932.257812 410.996094 936.917969 414.214844 937.550781 418.730469 C 937.664062 419.558594 938.824219 428.167969 938.617188 439.636719 " fill-opacity="1" fill-rule="nonzero"/><path fill="#000000" d="M 951.859375 388.335938 L 951.566406 404.125 C 951.402344 412.75 943.929688 419.769531 934.171875 420.445312 L 927.929688 420.878906 C 922.597656 421.25 917.296875 419.605469 913.386719 416.367188 C 909.476562 413.128906 907.285156 408.566406 907.375 403.851562 L 907.839844 378.667969 C 907.925781 374.125 912.171875 370.523438 917.324219 370.613281 C 922.472656 370.714844 926.585938 374.46875 926.5 379.011719 L 926.035156 404.199219 C 926.035156 404.242188 926.035156 404.320312 926.132812 404.40625 C 926.238281 404.492188 926.324219 404.484375 926.378906 404.480469 L 932.617188 404.046875 C 932.78125 404.035156 932.902344 403.921875 932.90625 403.777344 L 933.203125 387.988281 C 933.285156 383.445312 937.53125 379.84375 942.683594 379.9375 C 947.839844 380.03125 951.945312 383.792969 951.859375 388.335938 " fill-opacity="1" fill-rule="nonzero"/><path fill="#ffffff" d="M 883.164062 323.117188 L 865.785156 323.117188 L 865.785156 274.484375 L 883.164062 274.484375 C 887.34375 274.484375 890.734375 277.875 890.734375 282.054688 L 890.734375 315.546875 C 890.734375 319.726562 887.34375 323.117188 883.164062 323.117188 " fill-opacity="1" fill-rule="nonzero"/><path fill="#000000" d="M 866.851562 322.042969 L 872 322.042969 C 881.746094 322.042969 889.667969 314.121094 889.667969 304.378906 L 889.667969 293.21875 C 889.667969 283.476562 881.746094 275.550781 872 275.550781 L 866.851562 275.550781 Z M 872 324.179688 L 865.785156 324.179688 C 865.195312 324.179688 864.714844 323.703125 864.714844 323.113281 L 864.714844 274.480469 C 864.714844 273.890625 865.195312 273.414062 865.785156 273.414062 L 872 273.414062 C 882.921875 273.414062 891.808594 282.296875 891.808594 293.21875 L 891.808594 304.378906 C 891.808594 315.296875 882.921875 324.179688 872 324.179688 " fill-opacity="1" fill-rule="nonzero"/><path fill="#ffffff" d="M 628.820312 323.109375 L 646.203125 323.109375 L 646.203125 274.480469 L 628.820312 274.480469 C 624.640625 274.480469 621.25 277.871094 621.25 282.050781 L 621.25 315.542969 C 621.25 319.722656 624.640625 323.109375 628.820312 323.109375 " fill-opacity="1" fill-rule="nonzero"/><path fill="#000000" d="M 639.984375 275.550781 C 630.246094 275.550781 622.316406 283.476562 622.316406 293.21875 L 622.316406 304.378906 C 622.316406 314.121094 630.246094 322.046875 639.984375 322.046875 L 645.132812 322.046875 L 645.132812 275.550781 Z M 646.203125 324.183594 L 639.984375 324.183594 C 629.066406 324.183594 620.179688 315.296875 620.179688 304.378906 L 620.179688 293.21875 C 620.179688 282.300781 629.066406 273.414062 639.984375 273.414062 L 646.203125 273.414062 C 646.792969 273.414062 647.269531 273.894531 647.269531 274.484375 L 647.269531 323.113281 C 647.269531 323.703125 646.792969 324.183594 646.203125 324.183594 " fill-opacity="1" fill-rule="nonzero"/><path fill="#ffffff" d="M 638.34375 296.785156 C 638.34375 244.535156 691.015625 190.476562 755.992188 190.476562 C 820.96875 190.476562 873.644531 244.535156 873.644531 296.785156 C 873.644531 349.046875 820.96875 379.714844 755.992188 379.714844 C 691.015625 379.714844 638.34375 349.046875 638.34375 296.785156 " fill-opacity="1" fill-rule="nonzero"/><path fill="#000000" d="M 755.992188 191.546875 C 689.269531 191.546875 639.410156 247.109375 639.410156 296.789062 C 639.410156 321.328125 651.164062 342.132812 673.394531 356.960938 C 694.363281 370.949219 723.699219 378.644531 755.992188 378.644531 C 788.289062 378.644531 817.621094 370.949219 838.589844 356.960938 C 860.820312 342.132812 872.574219 321.328125 872.574219 296.789062 C 872.574219 247.109375 822.71875 191.546875 755.992188 191.546875 Z M 755.992188 380.785156 C 723.28125 380.785156 693.523438 372.957031 672.207031 358.738281 C 649.351562 343.496094 637.273438 322.074219 637.273438 296.789062 C 637.273438 270.882812 649.957031 244.078125 672.070312 223.257812 C 695.25 201.429688 725.058594 189.410156 755.992188 189.410156 C 786.925781 189.410156 816.734375 201.429688 839.917969 223.257812 C 862.03125 244.078125 874.714844 270.882812 874.714844 296.789062 C 874.714844 322.074219 862.636719 343.496094 839.777344 358.738281 C 818.460938 372.957031 788.703125 380.785156 755.992188 380.785156 " fill-opacity="1" fill-rule="nonzero"/><path fill="#ffffff" d="M 785.464844 395.414062 L 726.523438 395.414062 C 700.691406 395.414062 679.75 416.355469 679.75 442.1875 C 679.75 459.253906 681.414062 476.28125 684.722656 493.023438 L 693.195312 535.9375 C 699.117188 565.929688 725.417969 587.546875 755.992188 587.546875 C 786.566406 587.546875 812.871094 565.929688 818.792969 535.9375 L 827.265625 493.023438 C 830.570312 476.28125 832.238281 459.253906 832.238281 442.1875 C 832.238281 416.355469 811.292969 395.414062 785.464844 395.414062 " fill-opacity="1" fill-rule="nonzero"/><path fill="#000000" d="M 726.523438 396.484375 C 701.320312 396.484375 680.820312 416.988281 680.820312 442.1875 C 680.820312 459.144531 682.484375 476.179688 685.769531 492.816406 L 694.242188 535.730469 C 700.050781 565.136719 726.019531 586.480469 755.992188 586.480469 C 785.964844 586.480469 811.933594 565.136719 817.746094 535.730469 L 826.21875 492.816406 C 829.5 476.175781 831.167969 459.144531 831.167969 442.1875 C 831.167969 416.988281 810.664062 396.484375 785.464844 396.484375 Z M 755.992188 588.617188 C 725 588.617188 698.148438 566.546875 692.144531 536.144531 L 683.671875 493.230469 C 680.359375 476.457031 678.679688 459.285156 678.679688 442.1875 C 678.679688 415.808594 700.144531 394.34375 726.523438 394.34375 L 785.464844 394.34375 C 811.84375 394.34375 833.308594 415.808594 833.308594 442.1875 C 833.308594 459.285156 831.625 476.457031 828.316406 493.230469 L 819.839844 536.144531 C 813.839844 566.546875 786.988281 588.617188 755.992188 588.617188 " fill-opacity="1" fill-rule="nonzero"/><path fill="#5479f7" d="M 763.355469 499.046875 L 748.632812 499.046875 C 734.980469 499.046875 723.910156 487.980469 723.910156 474.332031 L 723.910156 395.414062 L 788.074219 395.414062 L 788.074219 474.332031 C 788.074219 487.980469 777.007812 499.046875 763.355469 499.046875 " fill-opacity="1" fill-rule="nonzero"/><path fill="#000000" d="M 788.074219 396.484375 L 723.910156 396.484375 C 723.320312 396.484375 722.84375 396.003906 722.84375 395.414062 C 722.84375 394.824219 723.320312 394.34375 723.910156 394.34375 L 788.074219 394.34375 C 788.664062 394.34375 789.144531 394.824219 789.144531 395.414062 C 789.144531 396.003906 788.664062 396.484375 788.074219 396.484375 " fill-opacity="1" fill-rule="nonzero"/><path fill="#000000" d="M 826.015625 278.839844 L 712.722656 278.839844 C 700.953125 278.839844 691.414062 289.121094 691.414062 301.804688 L 691.414062 316.785156 C 691.414062 326.457031 696.574219 336.710938 705.480469 338.382812 C 736.878906 344.28125 801.867188 344.28125 833.261719 338.382812 C 842.164062 336.710938 847.328125 326.457031 847.328125 316.785156 L 847.328125 301.804688 C 847.328125 289.121094 837.789062 278.839844 826.015625 278.839844 " fill-opacity="1" fill-rule="nonzero"/><path fill="#5479f7" d="M 742.753906 308.984375 C 742.753906 313.238281 739.554688 316.683594 735.609375 316.683594 C 731.667969 316.683594 728.46875 313.238281 728.46875 308.984375 C 728.46875 304.738281 731.667969 301.296875 735.609375 301.296875 C 739.554688 301.296875 742.753906 304.738281 742.753906 308.984375 " fill-opacity="1" fill-rule="nonzero"/><path fill="#5479f7" d="M 818.714844 308.984375 C 818.714844 313.238281 815.515625 316.683594 811.574219 316.683594 C 807.628906 316.683594 804.433594 313.238281 804.433594 308.984375 C 804.433594 304.738281 807.628906 301.296875 811.574219 301.296875 C 815.515625 301.296875 818.714844 304.738281 818.714844 308.984375 " fill-opacity="1" fill-rule="nonzero"/><g clip-path="url(#bfe4f11a42)"><path fill="#5479f7" d="M 870.199219 176.21875 L 845.648438 174.601562 C 842.625 174.40625 839.761719 175.984375 838.316406 178.652344 L 830.976562 192.195312 L 823.960938 177.203125 C 822.765625 174.640625 820.265625 172.933594 817.441406 172.746094 L 794.863281 171.261719 C 790.585938 170.980469 787.347656 167.285156 787.632812 163.007812 L 790.78125 115.089844 C 791.066406 110.808594 794.761719 107.570312 799.039062 107.851562 L 874.375 112.808594 C 878.648438 113.089844 881.890625 116.789062 881.609375 121.0625 L 878.453125 168.984375 C 878.171875 173.261719 874.476562 176.503906 870.199219 176.21875 " fill-opacity="1" fill-rule="nonzero"/></g><path fill="#000000" d="M 864.132812 132.238281 C 864.113281 132.238281 864.085938 132.238281 864.066406 132.238281 L 809.867188 128.8125 C 809.273438 128.773438 808.832031 128.265625 808.867188 127.675781 C 808.902344 127.089844 809.394531 126.644531 810.003906 126.679688 L 864.199219 130.105469 C 864.785156 130.140625 865.234375 130.652344 865.203125 131.238281 C 865.164062 131.808594 864.695312 132.238281 864.132812 132.238281 " fill-opacity="1" fill-rule="nonzero"/><path fill="#000000" d="M 847.988281 143.964844 C 847.96875 143.964844 847.945312 143.964844 847.921875 143.960938 L 807.753906 141.425781 C 807.164062 141.386719 806.722656 140.878906 806.753906 140.289062 C 806.792969 139.703125 807.285156 139.253906 807.890625 139.289062 L 848.058594 141.828125 C 848.648438 141.863281 849.09375 142.375 849.054688 142.960938 C 849.019531 143.53125 848.546875 143.964844 847.988281 143.964844 " fill-opacity="1" fill-rule="nonzero"/><path fill="#000000" d="M 862.671875 157.957031 C 862.648438 157.957031 862.625 157.957031 862.601562 157.957031 L 808.40625 154.53125 C 807.8125 154.492188 807.363281 153.984375 807.40625 153.394531 C 807.441406 152.804688 807.941406 152.355469 808.539062 152.390625 L 862.738281 155.820312 C 863.324219 155.855469 863.773438 156.363281 863.738281 156.957031 C 863.699219 157.519531 863.230469 157.957031 862.671875 157.957031 " fill-opacity="1" fill-rule="nonzero"/><path fill="#5479f7" d="M 510.457031 325.734375 C 486.328125 301.910156 485.972656 262.917969 509.664062 238.652344 C 533.355469 214.382812 572.125 214.023438 596.253906 237.851562 C 620.382812 261.679688 620.742188 300.667969 597.050781 324.9375 C 573.359375 349.207031 534.589844 349.5625 510.457031 325.734375 " fill-opacity="1" fill-rule="nonzero"/><path fill="#ffffff" d="M 594.84375 278.5 L 553.25 321.105469 C 551.046875 323.363281 547.441406 323.394531 545.199219 321.183594 L 515.941406 292.292969 C 513.699219 290.078125 513.664062 286.453125 515.867188 284.195312 L 557.460938 241.589844 C 559.664062 239.335938 563.269531 239.300781 565.511719 241.511719 L 594.769531 270.40625 C 597.011719 272.617188 597.046875 276.246094 594.84375 278.5 " fill-opacity="1" fill-rule="nonzero"/><path fill="#000000" d="M 561.523438 240.949219 C 561.507812 240.949219 561.496094 240.949219 561.480469 240.949219 C 560.246094 240.960938 559.089844 241.453125 558.226562 242.339844 L 516.632812 284.949219 C 514.84375 286.777344 514.867188 289.734375 516.691406 291.535156 L 545.949219 320.421875 C 546.832031 321.296875 547.976562 321.769531 549.226562 321.753906 C 550.460938 321.742188 551.617188 321.25 552.484375 320.363281 L 594.078125 277.753906 C 595.867188 275.921875 595.839844 272.96875 594.015625 271.167969 L 564.757812 242.28125 C 563.886719 241.417969 562.742188 240.949219 561.523438 240.949219 Z M 549.183594 323.890625 C 547.398438 323.890625 545.71875 323.203125 544.445312 321.945312 L 515.1875 293.054688 C 512.53125 290.433594 512.492188 286.125 515.101562 283.453125 L 556.695312 240.84375 C 557.960938 239.546875 559.652344 238.828125 561.460938 238.808594 C 563.253906 238.792969 564.972656 239.484375 566.261719 240.757812 L 595.519531 269.644531 C 598.175781 272.269531 598.214844 276.578125 595.605469 279.25 L 554.011719 321.855469 C 552.746094 323.15625 551.054688 323.878906 549.246094 323.890625 C 549.226562 323.890625 549.203125 323.890625 549.183594 323.890625 " fill-opacity="1" fill-rule="nonzero"/><path fill="#000000" d="M 530.65625 289.675781 C 530.164062 289.675781 529.722656 289.335938 529.613281 288.832031 C 529.488281 288.253906 529.851562 287.6875 530.429688 287.5625 L 556.976562 281.75 C 557.554688 281.625 558.125 281.988281 558.25 282.566406 C 558.375 283.144531 558.011719 283.714844 557.433594 283.839844 L 530.886719 289.648438 C 530.808594 289.664062 530.734375 289.675781 530.65625 289.675781 " fill-opacity="1" fill-rule="nonzero"/><path fill="#000000" d="M 557.316406 283.753906 C 557.25 283.753906 557.179688 283.746094 557.109375 283.730469 C 556.53125 283.617188 556.152344 283.054688 556.265625 282.476562 L 561.554688 255.671875 C 561.671875 255.089844 562.238281 254.71875 562.8125 254.828125 C 563.390625 254.945312 563.769531 255.503906 563.652344 256.085938 L 558.367188 282.886719 C 558.265625 283.398438 557.816406 283.753906 557.316406 283.753906 " fill-opacity="1" fill-rule="nonzero"/><path fill="#5479f7" d="M 922.492188 350.488281 C 905.730469 333.933594 905.480469 306.847656 921.941406 289.992188 C 938.394531 273.132812 965.328125 272.886719 982.085938 289.433594 C 998.847656 305.988281 999.097656 333.070312 982.640625 349.929688 C 966.183594 366.789062 939.253906 367.035156 922.492188 350.488281 " fill-opacity="1" fill-rule="nonzero"/><path fill="#ffffff" d="M 944.242188 342.21875 C 944.242188 340.359375 944.917969 338.835938 946.257812 337.636719 C 947.605469 336.445312 949.289062 335.84375 951.300781 335.84375 C 953.3125 335.84375 954.992188 336.445312 956.335938 337.636719 C 957.679688 338.835938 958.355469 340.359375 958.355469 342.21875 C 958.355469 344.082031 957.679688 345.613281 956.335938 346.804688 C 954.992188 348 953.3125 348.597656 951.300781 348.597656 C 949.289062 348.597656 947.605469 348 946.257812 346.804688 C 944.917969 345.613281 944.242188 344.082031 944.242188 342.21875 Z M 945.792969 330.75 C 945.792969 327.082031 946.207031 324.183594 947.035156 322.054688 C 947.863281 319.929688 949.210938 318.085938 951.070312 316.527344 C 952.929688 314.96875 954.351562 313.542969 955.316406 312.242188 C 956.285156 310.953125 956.769531 309.527344 956.769531 307.960938 C 956.769531 304.167969 955.132812 302.269531 951.867188 302.269531 C 950.355469 302.269531 949.136719 302.820312 948.203125 303.925781 C 947.273438 305.035156 946.785156 306.53125 946.734375 308.417969 L 933.980469 308.417969 C 934.03125 303.386719 935.617188 299.46875 938.738281 296.664062 C 941.851562 293.859375 946.230469 292.460938 951.867188 292.460938 C 957.472656 292.460938 961.816406 293.753906 964.902344 296.34375 C 967.980469 298.933594 969.523438 302.617188 969.523438 307.398438 C 969.523438 309.488281 969.105469 311.382812 968.277344 313.097656 C 967.449219 314.804688 966.113281 316.554688 964.277344 318.339844 L 959.9375 322.378906 C 958.703125 323.558594 957.847656 324.773438 957.375 326.015625 C 956.898438 327.261719 956.632812 328.839844 956.582031 330.75 L 945.792969 330.75 " fill-opacity="1" fill-rule="nonzero"/><path fill="#000000" d="M 946.875 329.679688 L 955.5625 329.679688 C 955.679688 328.105469 955.949219 326.746094 956.378906 325.632812 C 956.914062 324.246094 957.859375 322.890625 959.203125 321.601562 L 963.550781 317.554688 C 965.273438 315.878906 966.542969 314.214844 967.316406 312.625 C 968.074219 311.066406 968.457031 309.3125 968.457031 307.394531 C 968.457031 302.90625 967.066406 299.558594 964.214844 297.15625 C 961.347656 294.746094 957.191406 293.523438 951.867188 293.523438 C 946.535156 293.523438 942.355469 294.847656 939.449219 297.457031 C 936.765625 299.875 935.332031 303.117188 935.089844 307.34375 L 945.738281 307.34375 C 945.9375 305.6875 946.484375 304.308594 947.386719 303.238281 C 948.527344 301.882812 950.035156 301.195312 951.867188 301.195312 C 954.101562 301.195312 957.84375 302.074219 957.84375 307.964844 C 957.84375 309.75 957.28125 311.40625 956.175781 312.886719 C 955.164062 314.242188 953.679688 315.742188 951.761719 317.347656 C 950.046875 318.785156 948.792969 320.496094 948.035156 322.441406 C 947.339844 324.222656 946.949219 326.660156 946.875 329.679688 Z M 956.585938 331.820312 L 945.792969 331.820312 C 945.199219 331.820312 944.726562 331.339844 944.726562 330.75 C 944.726562 326.960938 945.167969 323.902344 946.042969 321.664062 C 946.933594 319.382812 948.398438 317.378906 950.386719 315.703125 C 952.175781 314.207031 953.546875 312.828125 954.460938 311.605469 C 955.296875 310.488281 955.703125 309.296875 955.703125 307.964844 C 955.703125 303.859375 953.652344 303.335938 951.867188 303.335938 C 950.679688 303.335938 949.75 303.753906 949.027344 304.613281 C 948.257812 305.523438 947.847656 306.8125 947.804688 308.441406 C 947.789062 309.023438 947.316406 309.484375 946.734375 309.484375 L 933.984375 309.484375 C 933.699219 309.484375 933.425781 309.367188 933.226562 309.167969 C 933.023438 308.964844 932.910156 308.691406 932.914062 308.40625 C 932.96875 303.085938 934.683594 298.863281 938.023438 295.867188 C 941.332031 292.894531 945.988281 291.386719 951.867188 291.386719 C 957.710938 291.386719 962.328125 292.777344 965.589844 295.523438 C 968.910156 298.316406 970.59375 302.308594 970.59375 307.394531 C 970.59375 309.636719 970.140625 311.707031 969.242188 313.558594 C 968.363281 315.375 966.941406 317.238281 965.023438 319.101562 L 960.667969 323.15625 C 959.570312 324.210938 958.789062 325.308594 958.375 326.394531 C 957.941406 327.527344 957.703125 328.996094 957.652344 330.777344 C 957.640625 331.355469 957.160156 331.820312 956.585938 331.820312 Z M 951.300781 336.910156 C 949.542969 336.910156 948.125 337.410156 946.976562 338.433594 C 945.859375 339.425781 945.316406 340.664062 945.316406 342.21875 C 945.316406 343.773438 945.859375 345.011719 946.976562 346.003906 C 948.125 347.027344 949.539062 347.527344 951.300781 347.527344 C 953.058594 347.527344 954.472656 347.027344 955.628906 346.003906 C 956.746094 345.011719 957.289062 343.773438 957.289062 342.21875 C 957.289062 340.664062 956.746094 339.425781 955.628906 338.433594 C 954.472656 337.410156 953.058594 336.910156 951.300781 336.910156 Z M 951.300781 349.664062 C 949.03125 349.664062 947.09375 348.96875 945.554688 347.601562 C 943.976562 346.203125 943.175781 344.390625 943.175781 342.21875 C 943.175781 340.046875 943.976562 338.238281 945.554688 336.835938 C 947.09375 335.46875 949.03125 334.773438 951.300781 334.773438 C 953.574219 334.773438 955.507812 335.46875 957.050781 336.835938 C 958.628906 338.238281 959.421875 340.050781 959.421875 342.21875 C 959.421875 344.390625 958.628906 346.203125 957.050781 347.601562 C 955.507812 348.96875 953.574219 349.664062 951.300781 349.664062 " fill-opacity="1" fill-rule="nonzero"/><path fill="#5479f7" d="M 613.492188 153.679688 C 612.140625 136.679688 624.820312 121.722656 641.816406 120.277344 C 658.808594 118.828125 673.679688 131.4375 675.035156 148.433594 C 676.382812 165.4375 663.699219 180.394531 646.707031 181.835938 C 629.710938 183.285156 614.839844 170.679688 613.492188 153.679688 " fill-opacity="1" fill-rule="nonzero"/><path fill="#ffffff" d="M 652.433594 135.417969 L 656.59375 135.082031 C 657.070312 135.042969 657.488281 135.398438 657.527344 135.875 L 659.792969 163.914062 C 659.832031 164.390625 659.476562 164.808594 659 164.84375 L 654.839844 165.183594 C 654.363281 165.222656 653.945312 164.863281 653.90625 164.390625 L 651.640625 136.351562 C 651.601562 135.875 651.957031 135.457031 652.433594 135.417969 " fill-opacity="1" fill-rule="nonzero"/><path fill="#ffffff" d="M 641.675781 144.996094 L 645.835938 144.664062 C 646.3125 144.621094 646.730469 144.976562 646.769531 145.453125 L 648.335938 164.84375 C 648.375 165.316406 648.019531 165.738281 647.542969 165.773438 L 643.382812 166.109375 C 642.90625 166.148438 642.488281 165.792969 642.449219 165.316406 L 640.882812 145.929688 C 640.84375 145.453125 641.199219 145.035156 641.675781 144.996094 " fill-opacity="1" fill-rule="nonzero"/><path fill="#ffffff" d="M 631.113281 156.972656 L 635.273438 156.632812 C 635.75 156.59375 636.167969 156.949219 636.207031 157.425781 L 636.878906 165.765625 C 636.917969 166.242188 636.5625 166.664062 636.085938 166.699219 L 631.925781 167.035156 C 631.449219 167.074219 631.03125 166.71875 630.992188 166.242188 L 630.320312 157.898438 C 630.28125 157.421875 630.636719 157.007812 631.113281 156.972656 " fill-opacity="1" fill-rule="nonzero"/><path fill="#000000" d="M 493.75 364.730469 C 493.160156 364.730469 492.679688 364.253906 492.679688 363.660156 L 492.679688 358.132812 C 492.679688 357.542969 493.160156 357.066406 493.75 357.066406 C 494.339844 357.066406 494.816406 357.542969 494.816406 358.132812 L 494.816406 363.660156 C 494.816406 364.253906 494.339844 364.730469 493.75 364.730469 " fill-opacity="1" fill-rule="nonzero"/><path fill="#000000" d="M 493.75 377.613281 C 493.160156 377.613281 492.679688 377.136719 492.679688 376.542969 L 492.679688 371.011719 C 492.679688 370.421875 493.160156 369.945312 493.75 369.945312 C 494.339844 369.945312 494.816406 370.421875 494.816406 371.011719 L 494.816406 376.542969 C 494.816406 377.136719 494.339844 377.613281 493.75 377.613281 " fill-opacity="1" fill-rule="nonzero"/><path fill="#000000" d="M 490.074219 368.40625 L 484.542969 368.40625 C 483.953125 368.40625 483.472656 367.929688 483.472656 367.335938 C 483.472656 366.746094 483.953125 366.269531 484.542969 366.269531 L 490.074219 366.269531 C 490.664062 366.269531 491.140625 366.746094 491.140625 367.335938 C 491.140625 367.929688 490.664062 368.40625 490.074219 368.40625 " fill-opacity="1" fill-rule="nonzero"/><path fill="#000000" d="M 502.953125 368.40625 L 497.425781 368.40625 C 496.835938 368.40625 496.355469 367.929688 496.355469 367.335938 C 496.355469 366.746094 496.835938 366.269531 497.425781 366.269531 L 502.953125 366.269531 C 503.542969 366.269531 504.023438 366.746094 504.023438 367.335938 C 504.023438 367.929688 503.542969 368.40625 502.953125 368.40625 " fill-opacity="1" fill-rule="nonzero"/><path fill="#000000" d="M 552.976562 491.351562 C 552.386719 491.351562 551.90625 490.871094 551.90625 490.28125 L 551.90625 484.75 C 551.90625 484.15625 552.386719 483.679688 552.976562 483.679688 C 553.566406 483.679688 554.046875 484.15625 554.046875 484.75 L 554.046875 490.28125 C 554.046875 490.871094 553.566406 491.351562 552.976562 491.351562 " fill-opacity="1" fill-rule="nonzero"/><path fill="#000000" d="M 552.976562 504.226562 C 552.386719 504.226562 551.90625 503.75 551.90625 503.160156 L 551.90625 497.632812 C 551.90625 497.039062 552.386719 496.5625 552.976562 496.5625 C 553.566406 496.5625 554.046875 497.039062 554.046875 497.632812 L 554.046875 503.160156 C 554.046875 503.75 553.566406 504.226562 552.976562 504.226562 " fill-opacity="1" fill-rule="nonzero"/><path fill="#000000" d="M 549.300781 495.027344 L 543.769531 495.027344 C 543.179688 495.027344 542.699219 494.546875 542.699219 493.957031 C 542.699219 493.367188 543.179688 492.886719 543.769531 492.886719 L 549.300781 492.886719 C 549.890625 492.886719 550.367188 493.367188 550.367188 493.957031 C 550.367188 494.546875 549.890625 495.027344 549.300781 495.027344 " fill-opacity="1" fill-rule="nonzero"/><path fill="#000000" d="M 562.179688 495.027344 L 556.652344 495.027344 C 556.0625 495.027344 555.582031 494.546875 555.582031 493.957031 C 555.582031 493.367188 556.0625 492.886719 556.652344 492.886719 L 562.179688 492.886719 C 562.773438 492.886719 563.25 493.367188 563.25 493.957031 C 563.25 494.546875 562.773438 495.027344 562.179688 495.027344 " fill-opacity="1" fill-rule="nonzero"/><path fill="#000000" d="M 926.417969 167.410156 C 925.828125 167.410156 925.355469 166.933594 925.355469 166.34375 L 925.355469 160.8125 C 925.355469 160.222656 925.828125 159.742188 926.417969 159.742188 C 927.011719 159.742188 927.488281 160.222656 927.488281 160.8125 L 927.488281 166.34375 C 927.488281 166.933594 927.011719 167.410156 926.417969 167.410156 " fill-opacity="1" fill-rule="nonzero"/><path fill="#000000" d="M 926.417969 180.292969 C 925.828125 180.292969 925.351562 179.8125 925.351562 179.222656 L 925.351562 173.695312 C 925.351562 173.105469 925.828125 172.625 926.417969 172.625 C 927.011719 172.625 927.488281 173.105469 927.488281 173.695312 L 927.488281 179.222656 C 927.488281 179.8125 927.011719 180.292969 926.417969 180.292969 " fill-opacity="1" fill-rule="nonzero"/><path fill="#000000" d="M 922.742188 171.085938 L 917.214844 171.085938 C 916.628906 171.085938 916.148438 170.605469 916.148438 170.015625 C 916.148438 169.425781 916.628906 168.945312 917.214844 168.945312 L 922.742188 168.945312 C 923.335938 168.945312 923.8125 169.425781 923.8125 170.015625 C 923.8125 170.605469 923.335938 171.085938 922.742188 171.085938 " fill-opacity="1" fill-rule="nonzero"/><path fill="#000000" d="M 935.625 171.085938 L 930.097656 171.085938 C 929.507812 171.085938 929.027344 170.605469 929.027344 170.015625 C 929.027344 169.425781 929.507812 168.945312 930.097656 168.945312 L 935.625 168.945312 C 936.21875 168.945312 936.695312 169.425781 936.695312 170.015625 C 936.695312 170.605469 936.21875 171.085938 935.625 171.085938 " fill-opacity="1" fill-rule="nonzero"/><path fill="#ffffff" d="M 503.507812 402.480469 C 503.507812 405.273438 501.242188 407.539062 498.449219 407.539062 C 495.65625 407.539062 493.390625 405.273438 493.390625 402.480469 C 493.390625 399.6875 495.65625 397.421875 498.449219 397.421875 C 501.242188 397.421875 503.507812 399.6875 503.507812 402.480469 " fill-opacity="1" fill-rule="nonzero"/><path fill="#ffffff" d="M 1003.113281 234.628906 C 1003.113281 237.421875 1000.847656 239.683594 998.054688 239.683594 C 995.261719 239.683594 993 237.421875 993 234.628906 C 993 231.835938 995.261719 229.570312 998.054688 229.570312 C 1000.847656 229.570312 1003.113281 231.835938 1003.113281 234.628906 " fill-opacity="1" fill-rule="nonzero"/><path fill="#ffffff" d="M 590.757812 174.113281 C 590.757812 176.910156 588.492188 179.175781 585.699219 179.175781 C 582.90625 179.175781 580.640625 176.910156 580.640625 174.113281 C 580.640625 171.320312 582.90625 169.058594 585.699219 169.058594 C 588.492188 169.058594 590.757812 171.320312 590.757812 174.113281 " fill-opacity="1" fill-rule="nonzero"/><path fill="#5479f7" d="M 497.980469 445.300781 C 497.433594 445.300781 496.96875 444.882812 496.917969 444.328125 C 496.65625 441.492188 496.429688 438.613281 496.246094 435.777344 C 496.207031 435.1875 496.652344 434.675781 497.242188 434.636719 C 497.851562 434.601562 498.339844 435.046875 498.378906 435.636719 C 498.5625 438.457031 498.789062 441.316406 499.046875 444.132812 C 499.101562 444.722656 498.667969 445.242188 498.082031 445.296875 C 498.046875 445.300781 498.011719 445.300781 497.980469 445.300781 Z M 500.007812 462.289062 C 499.484375 462.289062 499.03125 461.90625 498.949219 461.375 C 498.539062 458.570312 498.15625 455.707031 497.820312 452.863281 C 497.75 452.277344 498.167969 451.746094 498.753906 451.675781 C 499.339844 451.605469 499.871094 452.023438 499.941406 452.609375 C 500.277344 455.433594 500.65625 458.277344 501.066406 461.066406 C 501.152344 461.648438 500.75 462.191406 500.164062 462.277344 C 500.113281 462.285156 500.058594 462.289062 500.007812 462.289062 Z M 962.914062 464.878906 C 962.332031 464.878906 961.851562 464.410156 961.847656 463.824219 C 961.804688 460.859375 961.636719 458.023438 961.347656 455.390625 C 961.289062 454.800781 961.710938 454.273438 962.296875 454.210938 C 962.882812 454.144531 963.410156 454.570312 963.472656 455.160156 C 963.773438 457.859375 963.941406 460.761719 963.984375 463.792969 C 963.992188 464.382812 963.519531 464.871094 962.929688 464.878906 C 962.921875 464.878906 962.914062 464.878906 962.914062 464.878906 Z M 502.976562 479.152344 C 502.480469 479.152344 502.035156 478.800781 501.929688 478.296875 C 501.359375 475.527344 500.816406 472.6875 500.320312 469.855469 C 500.214844 469.273438 500.605469 468.722656 501.1875 468.617188 C 501.773438 468.515625 502.320312 468.90625 502.425781 469.484375 C 502.917969 472.296875 503.457031 475.117188 504.023438 477.863281 C 504.144531 478.445312 503.773438 479.007812 503.195312 479.128906 C 503.121094 479.144531 503.046875 479.152344 502.976562 479.152344 Z M 961.976562 481.957031 C 961.941406 481.957031 961.898438 481.953125 961.851562 481.953125 C 961.269531 481.882812 960.847656 481.355469 960.914062 480.765625 C 961.246094 477.859375 961.492188 475.015625 961.644531 472.300781 C 961.679688 471.710938 962.175781 471.261719 962.777344 471.292969 C 963.363281 471.328125 963.816406 471.832031 963.78125 472.421875 C 963.625 475.175781 963.375 478.066406 963.035156 481.007812 C 962.976562 481.550781 962.511719 481.957031 961.976562 481.957031 Z M 506.933594 495.8125 C 506.460938 495.8125 506.03125 495.5 505.902344 495.023438 C 505.160156 492.285156 504.449219 489.480469 503.789062 486.691406 C 503.652344 486.113281 504.007812 485.539062 504.582031 485.398438 C 505.160156 485.265625 505.734375 485.621094 505.871094 486.195312 C 506.527344 488.964844 507.230469 491.75 507.96875 494.464844 C 508.121094 495.035156 507.785156 495.621094 507.214844 495.777344 C 507.121094 495.800781 507.027344 495.8125 506.933594 495.8125 Z M 959.265625 498.855469 C 959.195312 498.855469 959.125 498.847656 959.050781 498.832031 C 958.472656 498.714844 958.101562 498.152344 958.21875 497.570312 C 958.796875 494.75 959.308594 491.929688 959.75 489.195312 C 959.839844 488.613281 960.394531 488.21875 960.976562 488.3125 C 961.558594 488.40625 961.953125 488.953125 961.859375 489.535156 C 961.410156 492.296875 960.894531 495.148438 960.316406 498 C 960.210938 498.503906 959.765625 498.855469 959.265625 498.855469 Z M 511.933594 512.199219 C 511.488281 512.199219 511.074219 511.921875 510.921875 511.476562 C 510.003906 508.792969 509.117188 506.035156 508.277344 503.289062 C 508.105469 502.726562 508.421875 502.128906 508.988281 501.957031 C 509.550781 501.78125 510.148438 502.101562 510.320312 502.667969 C 511.152344 505.390625 512.035156 508.125 512.945312 510.785156 C 513.136719 511.34375 512.835938 511.953125 512.28125 512.140625 C 512.164062 512.183594 512.050781 512.199219 511.933594 512.199219 Z M 955.25 515.492188 C 955.152344 515.492188 955.058594 515.484375 954.960938 515.453125 C 954.394531 515.296875 954.0625 514.707031 954.214844 514.136719 C 954.980469 511.390625 955.703125 508.613281 956.367188 505.890625 C 956.503906 505.316406 957.078125 504.960938 957.65625 505.101562 C 958.230469 505.242188 958.585938 505.816406 958.445312 506.390625 C 957.777344 509.144531 957.050781 511.941406 956.277344 514.710938 C 956.144531 515.183594 955.71875 515.492188 955.25 515.492188 Z M 518.035156 528.210938 C 517.621094 528.210938 517.222656 527.964844 517.050781 527.554688 C 515.945312 524.941406 514.863281 522.253906 513.84375 519.570312 C 513.632812 519.019531 513.910156 518.398438 514.460938 518.191406 C 515.015625 517.980469 515.632812 518.257812 515.84375 518.808594 C 516.855469 521.464844 517.925781 524.128906 519.019531 526.722656 C 519.25 527.269531 518.996094 527.898438 518.453125 528.128906 C 518.316406 528.183594 518.175781 528.210938 518.035156 528.210938 Z M 950.121094 531.828125 C 950.003906 531.828125 949.886719 531.8125 949.777344 531.769531 C 949.21875 531.578125 948.917969 530.964844 949.117188 530.410156 C 950.050781 527.734375 950.957031 525.011719 951.800781 522.316406 C 951.972656 521.75 952.574219 521.4375 953.136719 521.617188 C 953.703125 521.792969 954.015625 522.394531 953.839844 522.957031 C 952.988281 525.671875 952.078125 528.417969 951.136719 531.113281 C 950.976562 531.554688 950.566406 531.828125 950.121094 531.828125 Z M 525.300781 543.722656 C 524.914062 543.722656 524.539062 543.511719 524.351562 543.148438 C 523.046875 540.621094 521.769531 538.023438 520.550781 535.421875 C 520.300781 534.886719 520.53125 534.25 521.066406 534 C 521.601562 533.75 522.238281 533.980469 522.488281 534.515625 C 523.691406 537.09375 524.957031 539.664062 526.25 542.164062 C 526.519531 542.691406 526.316406 543.335938 525.792969 543.605469 C 525.636719 543.6875 525.464844 543.722656 525.300781 543.722656 Z M 943.949219 547.789062 C 943.808594 547.789062 943.667969 547.761719 943.53125 547.703125 C 942.984375 547.472656 942.734375 546.84375 942.96875 546.300781 C 944.0625 543.726562 945.144531 541.074219 946.175781 538.40625 C 946.390625 537.855469 947.007812 537.582031 947.554688 537.792969 C 948.109375 538.007812 948.382812 538.625 948.171875 539.175781 C 947.128906 541.867188 946.039062 544.542969 944.933594 547.140625 C 944.757812 547.546875 944.363281 547.789062 943.949219 547.789062 Z M 784.378906 556.992188 C 783.972656 556.992188 783.578125 556.753906 783.402344 556.359375 C 783.160156 555.820312 783.402344 555.1875 783.941406 554.945312 C 785.132812 554.410156 786.410156 554.007812 787.742188 553.746094 C 789.40625 553.417969 791.121094 553.328125 792.820312 553.484375 C 793.40625 553.535156 793.839844 554.058594 793.789062 554.644531 C 793.734375 555.234375 793.203125 555.664062 792.625 555.613281 C 791.125 555.476562 789.621094 555.554688 788.152344 555.84375 C 786.984375 556.074219 785.859375 556.425781 784.816406 556.898438 C 784.671875 556.957031 784.527344 556.992188 784.378906 556.992188 Z M 533.785156 558.597656 C 533.429688 558.597656 533.082031 558.421875 532.878906 558.097656 C 531.371094 555.703125 529.882812 553.214844 528.457031 550.710938 C 528.164062 550.199219 528.34375 549.546875 528.855469 549.253906 C 529.367188 548.960938 530.023438 549.140625 530.316406 549.652344 C 531.726562 552.132812 533.199219 554.589844 534.6875 556.960938 C 535.003906 557.460938 534.851562 558.121094 534.351562 558.4375 C 534.175781 558.546875 533.980469 558.597656 533.785156 558.597656 Z M 936.644531 563.269531 C 936.472656 563.269531 936.308594 563.226562 936.148438 563.144531 C 935.625 562.875 935.421875 562.226562 935.695312 561.703125 C 936.976562 559.25 938.253906 556.683594 939.480469 554.074219 C 939.734375 553.542969 940.367188 553.3125 940.902344 553.566406 C 941.4375 553.816406 941.667969 554.453125 941.414062 554.988281 C 940.175781 557.625 938.886719 560.214844 937.589844 562.691406 C 937.398438 563.058594 937.027344 563.269531 936.644531 563.269531 Z M 807.480469 563.539062 C 807.199219 563.539062 806.925781 563.429688 806.714844 563.214844 C 804.65625 561.105469 802.484375 559.390625 800.253906 558.121094 C 799.738281 557.828125 799.558594 557.179688 799.851562 556.664062 C 800.144531 556.152344 800.796875 555.96875 801.308594 556.261719 C 803.71875 557.628906 806.050781 559.46875 808.246094 561.722656 C 808.660156 562.144531 808.648438 562.820312 808.226562 563.234375 C 808.019531 563.433594 807.75 563.539062 807.480469 563.539062 Z M 774.335938 570.101562 C 774.25 570.101562 774.160156 570.09375 774.074219 570.070312 C 773.5 569.925781 773.152344 569.34375 773.300781 568.769531 C 774.082031 565.683594 775.324219 562.957031 776.996094 560.664062 C 777.339844 560.191406 778.007812 560.082031 778.488281 560.433594 C 778.964844 560.78125 779.066406 561.449219 778.722656 561.925781 C 777.21875 563.996094 776.085938 566.476562 775.371094 569.292969 C 775.25 569.78125 774.8125 570.101562 774.335938 570.101562 Z M 543.523438 572.667969 C 543.203125 572.667969 542.882812 572.523438 542.671875 572.246094 C 540.953125 569.988281 539.25 567.648438 537.617188 565.285156 C 537.28125 564.800781 537.398438 564.136719 537.886719 563.796875 C 538.371094 563.464844 539.039062 563.582031 539.375 564.070312 C 540.988281 566.402344 542.671875 568.71875 544.375 570.953125 C 544.734375 571.421875 544.644531 572.089844 544.171875 572.449219 C 543.976562 572.597656 543.75 572.667969 543.523438 572.667969 Z M 816.601562 577.886719 C 816.175781 577.886719 815.769531 577.625 815.605469 577.199219 C 814.625 574.65625 813.363281 572.152344 811.851562 569.761719 C 811.53125 569.261719 811.683594 568.605469 812.179688 568.285156 C 812.675781 567.972656 813.335938 568.117188 813.652344 568.617188 C 815.246094 571.128906 816.570312 573.757812 817.601562 576.4375 C 817.816406 576.988281 817.539062 577.601562 816.984375 577.816406 C 816.859375 577.863281 816.734375 577.886719 816.601562 577.886719 Z M 927.972656 578.019531 C 927.769531 578.019531 927.5625 577.960938 927.378906 577.839844 C 926.886719 577.511719 926.753906 576.847656 927.078125 576.355469 C 928.585938 574.097656 930.101562 571.671875 931.578125 569.148438 C 931.875 568.640625 932.53125 568.46875 933.042969 568.765625 C 933.550781 569.066406 933.71875 569.71875 933.421875 570.230469 C 931.921875 572.789062 930.386719 575.25 928.863281 577.542969 C 928.65625 577.851562 928.316406 578.019531 927.972656 578.019531 Z M 554.535156 585.746094 C 554.246094 585.746094 553.960938 585.628906 553.75 585.402344 C 551.820312 583.324219 549.902344 581.160156 548.054688 578.960938 C 547.671875 578.507812 547.730469 577.835938 548.183594 577.453125 C 548.636719 577.074219 549.308594 577.132812 549.691406 577.582031 C 551.515625 579.753906 553.410156 581.894531 555.316406 583.945312 C 555.71875 584.378906 555.695312 585.054688 555.261719 585.457031 C 555.054688 585.648438 554.792969 585.746094 554.535156 585.746094 Z M 775.035156 586.964844 C 774.589844 586.964844 774.175781 586.6875 774.023438 586.246094 C 773.09375 583.570312 772.535156 580.566406 772.410156 577.558594 C 772.386719 576.96875 772.847656 576.472656 773.4375 576.445312 C 774.0625 576.429688 774.523438 576.882812 774.550781 577.472656 C 774.664062 580.269531 775.179688 583.0625 776.039062 585.546875 C 776.238281 586.105469 775.945312 586.714844 775.386719 586.90625 C 775.269531 586.945312 775.148438 586.964844 775.035156 586.964844 Z M 917.386719 591.441406 C 917.117188 591.441406 916.851562 591.339844 916.644531 591.136719 C 916.21875 590.730469 916.207031 590.054688 916.613281 589.628906 C 918.4375 587.734375 920.296875 585.585938 922.128906 583.234375 C 922.496094 582.773438 923.164062 582.6875 923.632812 583.050781 C 924.097656 583.417969 924.179688 584.089844 923.816406 584.550781 C 921.9375 586.960938 920.03125 589.167969 918.152344 591.113281 C 917.941406 591.328125 917.667969 591.441406 917.386719 591.441406 Z M 818.746094 594.707031 C 818.710938 594.707031 818.675781 594.703125 818.644531 594.699219 C 818.050781 594.644531 817.625 594.125 817.679688 593.535156 C 817.792969 592.339844 817.84375 591.117188 817.84375 589.894531 C 817.84375 588.363281 817.757812 586.792969 817.585938 585.21875 C 817.515625 584.632812 817.941406 584.105469 818.527344 584.039062 C 819.113281 583.976562 819.644531 584.394531 819.710938 584.984375 C 819.890625 586.636719 819.984375 588.285156 819.984375 589.894531 C 819.984375 591.179688 819.925781 592.472656 819.808594 593.738281 C 819.757812 594.292969 819.289062 594.707031 818.746094 594.707031 Z M 566.78125 597.632812 C 566.53125 597.632812 566.28125 597.542969 566.078125 597.367188 C 563.941406 595.496094 561.816406 593.539062 559.761719 591.546875 C 559.335938 591.136719 559.328125 590.457031 559.738281 590.03125 C 560.152344 589.609375 560.828125 589.601562 561.253906 590.011719 C 563.28125 591.980469 565.375 593.914062 567.488281 595.757812 C 567.929688 596.144531 567.976562 596.820312 567.585938 597.265625 C 567.375 597.507812 567.078125 597.632812 566.78125 597.632812 Z M 784.675781 600.871094 C 784.421875 600.871094 784.160156 600.777344 783.957031 600.59375 C 781.703125 598.542969 779.738281 596.34375 778.121094 594.054688 C 777.78125 593.574219 777.894531 592.90625 778.375 592.566406 C 778.859375 592.222656 779.527344 592.335938 779.867188 592.820312 C 781.398438 594.980469 783.253906 597.0625 785.398438 599.011719 C 785.835938 599.40625 785.863281 600.085938 785.46875 600.523438 C 785.257812 600.753906 784.96875 600.871094 784.675781 600.871094 Z M 904.339844 602.46875 C 904.015625 602.46875 903.691406 602.320312 903.480469 602.039062 C 903.128906 601.566406 903.226562 600.894531 903.695312 600.542969 C 905.84375 598.941406 908.09375 597.175781 910.375 595.289062 C 910.835938 594.914062 911.507812 594.980469 911.878906 595.433594 C 912.257812 595.890625 912.191406 596.566406 911.742188 596.941406 C 909.429688 598.847656 907.152344 600.640625 904.976562 602.257812 C 904.78125 602.402344 904.558594 602.46875 904.339844 602.46875 Z M 580.226562 608.179688 C 580.015625 608.179688 579.800781 608.113281 579.613281 607.984375 C 577.277344 606.347656 574.949219 604.617188 572.703125 602.855469 C 572.238281 602.492188 572.15625 601.816406 572.523438 601.355469 C 572.886719 600.890625 573.558594 600.808594 574.023438 601.171875 C 576.242188 602.914062 578.535156 604.613281 580.839844 606.234375 C 581.324219 606.570312 581.441406 607.238281 581.101562 607.722656 C 580.894531 608.019531 580.5625 608.179688 580.226562 608.179688 Z M 798.929688 610.226562 C 798.773438 610.226562 798.617188 610.191406 798.464844 610.117188 C 795.75 608.808594 793.203125 607.382812 790.890625 605.886719 C 790.390625 605.566406 790.25 604.902344 790.570312 604.410156 C 790.890625 603.910156 791.554688 603.769531 792.050781 604.089844 C 794.292969 605.539062 796.765625 606.921875 799.398438 608.195312 C 799.929688 608.449219 800.148438 609.089844 799.890625 609.621094 C 799.707031 610.003906 799.328125 610.226562 798.929688 610.226562 Z M 813.402344 610.789062 C 813.214844 610.789062 813.015625 610.738281 812.847656 610.632812 C 812.339844 610.324219 812.179688 609.664062 812.488281 609.164062 C 813.941406 606.773438 815.117188 604.246094 815.984375 601.648438 C 816.167969 601.085938 816.773438 600.78125 817.332031 600.96875 C 817.894531 601.152344 818.195312 601.761719 818.011719 602.320312 C 817.097656 605.074219 815.851562 607.75 814.3125 610.273438 C 814.113281 610.605469 813.757812 610.789062 813.402344 610.789062 Z M 889.957031 611.691406 C 889.574219 611.691406 889.207031 611.488281 889.015625 611.125 C 888.734375 610.601562 888.933594 609.957031 889.460938 609.679688 C 891.84375 608.410156 894.296875 606.96875 896.742188 605.386719 C 897.234375 605.070312 897.898438 605.207031 898.21875 605.707031 C 898.539062 606.199219 898.398438 606.863281 897.902344 607.183594 C 895.402344 608.796875 892.898438 610.273438 890.457031 611.570312 C 890.300781 611.652344 890.128906 611.691406 889.957031 611.691406 Z M 814.949219 616.191406 C 814.855469 616.191406 814.757812 616.175781 814.664062 616.152344 C 811.824219 615.355469 809.058594 614.460938 806.4375 613.492188 C 805.882812 613.285156 805.605469 612.675781 805.808594 612.121094 C 806.011719 611.566406 806.625 611.28125 807.175781 611.484375 C 809.746094 612.433594 812.457031 613.308594 815.238281 614.09375 C 815.804688 614.25 816.140625 614.839844 815.980469 615.410156 C 815.847656 615.882812 815.417969 616.191406 814.949219 616.191406 Z M 594.726562 617.214844 C 594.554688 617.214844 594.375 617.171875 594.214844 617.082031 C 591.710938 615.703125 589.214844 614.238281 586.789062 612.726562 C 586.289062 612.417969 586.136719 611.761719 586.449219 611.257812 C 586.761719 610.753906 587.421875 610.601562 587.921875 610.917969 C 590.3125 612.402344 592.777344 613.851562 595.242188 615.207031 C 595.761719 615.492188 595.949219 616.140625 595.664062 616.660156 C 595.46875 617.011719 595.105469 617.214844 594.726562 617.214844 Z M 874.128906 618.074219 C 873.664062 618.074219 873.234375 617.765625 873.101562 617.292969 C 872.945312 616.726562 873.277344 616.136719 873.847656 615.976562 C 876.519531 615.226562 879.207031 614.3125 881.8125 613.253906 C 882.363281 613.035156 882.988281 613.296875 883.210938 613.84375 C 883.425781 614.390625 883.167969 615.015625 882.617188 615.238281 C 879.933594 616.324219 877.175781 617.265625 874.417969 618.035156 C 874.324219 618.0625 874.226562 618.074219 874.128906 618.074219 Z M 831.703125 619.660156 C 831.652344 619.660156 831.609375 619.65625 831.558594 619.648438 C 828.738281 619.265625 825.878906 618.773438 823.046875 618.191406 C 822.46875 618.070312 822.097656 617.503906 822.21875 616.925781 C 822.339844 616.347656 822.90625 615.976562 823.484375 616.097656 C 826.261719 616.667969 829.078125 617.152344 831.84375 617.527344 C 832.433594 617.609375 832.839844 618.148438 832.761719 618.734375 C 832.6875 619.269531 832.230469 619.660156 831.703125 619.660156 Z M 857.289062 620.84375 C 856.726562 620.84375 856.261719 620.410156 856.222656 619.84375 C 856.1875 619.253906 856.636719 618.746094 857.226562 618.707031 C 860.101562 618.53125 862.925781 618.214844 865.613281 617.78125 C 866.191406 617.683594 866.746094 618.082031 866.839844 618.664062 C 866.933594 619.246094 866.539062 619.796875 865.957031 619.890625 C 863.195312 620.339844 860.300781 620.660156 857.359375 620.84375 C 857.335938 620.84375 857.3125 620.84375 857.289062 620.84375 Z M 848.746094 621.019531 C 848.742188 621.019531 848.734375 621.019531 848.726562 621.019531 C 845.992188 620.96875 843.09375 620.820312 840.117188 620.570312 C 839.527344 620.527344 839.089844 620.007812 839.140625 619.421875 C 839.1875 618.832031 839.710938 618.394531 840.292969 618.441406 C 843.222656 618.683594 846.074219 618.832031 848.765625 618.878906 C 849.355469 618.894531 849.824219 619.378906 849.8125 619.96875 C 849.804688 620.554688 849.328125 621.019531 848.746094 621.019531 Z M 801.839844 623.246094 C 801.511719 623.246094 801.191406 623.097656 800.980469 622.820312 C 800.628906 622.347656 800.722656 621.675781 801.199219 621.320312 C 803.492188 619.613281 805.589844 617.742188 807.441406 615.769531 C 807.84375 615.339844 808.519531 615.316406 808.953125 615.71875 C 809.382812 616.121094 809.40625 616.800781 809 617.230469 C 807.0625 619.296875 804.867188 621.25 802.480469 623.035156 C 802.289062 623.179688 802.0625 623.246094 801.839844 623.246094 Z M 610.117188 624.640625 C 609.976562 624.640625 609.839844 624.613281 609.703125 624.554688 C 607.0625 623.449219 604.425781 622.261719 601.859375 621.027344 C 601.328125 620.765625 601.105469 620.128906 601.363281 619.597656 C 601.617188 619.066406 602.257812 618.839844 602.789062 619.097656 C 605.320312 620.320312 607.925781 621.492188 610.53125 622.585938 C 611.074219 622.8125 611.332031 623.4375 611.101562 623.980469 C 610.929688 624.394531 610.535156 624.640625 610.117188 624.640625 Z M 626.199219 630.421875 C 626.097656 630.421875 625.992188 630.40625 625.886719 630.378906 C 623.144531 629.542969 620.394531 628.632812 617.71875 627.671875 C 617.164062 627.472656 616.875 626.859375 617.074219 626.300781 C 617.273438 625.75 617.890625 625.460938 618.445312 625.660156 C 621.085938 626.613281 623.800781 627.507812 626.507812 628.328125 C 627.074219 628.5 627.394531 629.101562 627.222656 629.664062 C 627.082031 630.125 626.65625 630.421875 626.199219 630.421875 Z M 786.808594 631.300781 C 786.371094 631.300781 785.960938 631.035156 785.804688 630.605469 C 785.601562 630.050781 785.882812 629.433594 786.4375 629.230469 C 789.101562 628.246094 791.679688 627.089844 794.109375 625.796875 C 794.628906 625.519531 795.277344 625.71875 795.554688 626.238281 C 795.835938 626.757812 795.636719 627.40625 795.113281 627.6875 C 792.605469 629.023438 789.933594 630.21875 787.179688 631.238281 C 787.054688 631.28125 786.929688 631.300781 786.808594 631.300781 Z M 642.742188 634.742188 C 642.667969 634.742188 642.589844 634.734375 642.511719 634.714844 C 639.710938 634.09375 636.902344 633.414062 634.160156 632.699219 C 633.589844 632.546875 633.246094 631.964844 633.394531 631.394531 C 633.542969 630.824219 634.125 630.480469 634.699219 630.628906 C 637.414062 631.335938 640.199219 632.011719 642.976562 632.628906 C 643.550781 632.757812 643.914062 633.328125 643.785156 633.90625 C 643.675781 634.402344 643.234375 634.742188 642.742188 634.742188 Z M 770.222656 635.390625 C 769.714844 635.390625 769.261719 635.027344 769.171875 634.511719 C 769.066406 633.929688 769.457031 633.375 770.035156 633.273438 C 772.027344 632.914062 774.050781 632.535156 776.039062 632.144531 C 776.820312 631.992188 777.601562 631.828125 778.375 631.644531 C 778.949219 631.511719 779.527344 631.867188 779.660156 632.445312 C 779.792969 633.019531 779.4375 633.59375 778.859375 633.730469 C 778.0625 633.914062 777.257812 634.085938 776.457031 634.242188 C 774.445312 634.636719 772.414062 635.015625 770.417969 635.375 C 770.347656 635.386719 770.285156 635.390625 770.222656 635.390625 Z M 659.550781 637.894531 C 659.496094 637.894531 659.445312 637.890625 659.386719 637.882812 C 656.550781 637.445312 653.703125 636.960938 650.921875 636.4375 C 650.34375 636.328125 649.960938 635.769531 650.070312 635.191406 C 650.179688 634.609375 650.734375 634.230469 651.316406 634.335938 C 654.074219 634.855469 656.898438 635.335938 659.714844 635.769531 C 660.296875 635.859375 660.695312 636.402344 660.605469 636.988281 C 660.527344 637.515625 660.070312 637.894531 659.550781 637.894531 Z M 753.320312 638.039062 C 752.792969 638.039062 752.335938 637.648438 752.261719 637.109375 C 752.1875 636.527344 752.597656 635.988281 753.183594 635.910156 C 755.984375 635.535156 758.824219 635.121094 761.625 634.6875 C 762.207031 634.59375 762.753906 634.992188 762.847656 635.578125 C 762.9375 636.160156 762.539062 636.703125 761.953125 636.800781 C 759.140625 637.238281 756.28125 637.65625 753.464844 638.03125 C 753.414062 638.035156 753.367188 638.039062 753.320312 638.039062 Z M 736.316406 639.921875 C 735.769531 639.921875 735.304688 639.503906 735.253906 638.945312 C 735.207031 638.359375 735.640625 637.839844 736.226562 637.785156 C 739.042969 637.539062 741.894531 637.257812 744.714844 636.945312 C 745.292969 636.878906 745.832031 637.300781 745.894531 637.890625 C 745.964844 638.476562 745.539062 639.007812 744.949219 639.070312 C 742.117188 639.382812 739.246094 639.671875 736.414062 639.917969 C 736.386719 639.921875 736.351562 639.921875 736.316406 639.921875 Z M 676.527344 639.976562 C 676.492188 639.976562 676.460938 639.972656 676.429688 639.972656 C 673.570312 639.707031 670.699219 639.402344 667.890625 639.058594 C 667.304688 638.984375 666.890625 638.453125 666.960938 637.863281 C 667.03125 637.277344 667.558594 636.859375 668.152344 636.933594 C 670.9375 637.273438 673.785156 637.582031 676.625 637.84375 C 677.210938 637.898438 677.648438 638.417969 677.59375 639.007812 C 677.539062 639.558594 677.074219 639.976562 676.527344 639.976562 Z M 719.25 641.011719 C 718.679688 641.011719 718.203125 640.5625 718.179688 639.984375 C 718.15625 639.394531 718.617188 638.898438 719.207031 638.871094 C 722.023438 638.761719 724.890625 638.613281 727.722656 638.433594 C 728.304688 638.390625 728.824219 638.839844 728.859375 639.429688 C 728.894531 640.019531 728.449219 640.527344 727.859375 640.566406 C 725.011719 640.746094 722.128906 640.898438 719.292969 641.011719 C 719.28125 641.011719 719.261719 641.011719 719.25 641.011719 Z M 693.597656 641.070312 C 693.585938 641.070312 693.570312 641.070312 693.554688 641.070312 C 690.695312 640.96875 687.808594 640.820312 684.984375 640.640625 C 684.394531 640.605469 683.949219 640.09375 683.988281 639.503906 C 684.023438 638.914062 684.527344 638.46875 685.121094 638.507812 C 687.925781 638.6875 690.792969 638.832031 693.632812 638.933594 C 694.226562 638.953125 694.6875 639.449219 694.664062 640.039062 C 694.644531 640.617188 694.167969 641.070312 693.597656 641.070312 Z M 705.542969 641.289062 C 704.40625 641.289062 703.269531 641.28125 702.136719 641.269531 C 701.546875 641.265625 701.074219 640.777344 701.078125 640.1875 C 701.085938 639.601562 701.5625 639.132812 702.144531 639.132812 C 702.152344 639.132812 702.15625 639.132812 702.160156 639.132812 C 704.996094 639.160156 707.84375 639.152344 710.683594 639.109375 C 710.691406 639.109375 710.695312 639.109375 710.699219 639.109375 C 711.28125 639.109375 711.757812 639.578125 711.769531 640.164062 C 711.777344 640.753906 711.304688 641.238281 710.714844 641.25 C 708.992188 641.273438 707.265625 641.289062 705.542969 641.289062 " fill-opacity="1" fill-rule="nonzero"/><path fill="#000000" d="M 1034.445312 190.585938 C 1034.082031 190.585938 1033.734375 190.40625 1033.53125 190.078125 C 1019.707031 167.503906 1002.59375 149.21875 982.667969 135.726562 C 982.175781 135.390625 982.046875 134.726562 982.378906 134.238281 C 982.714844 133.75 983.378906 133.625 983.867188 133.953125 C 1004.050781 147.621094 1021.371094 166.128906 1035.355469 188.960938 C 1035.664062 189.464844 1035.503906 190.125 1035 190.429688 C 1034.828125 190.535156 1034.632812 190.585938 1034.445312 190.585938 " fill-opacity="1" fill-rule="nonzero"/><path fill="#000000" d="M 1047.886719 197.136719 C 1047.480469 197.136719 1047.085938 196.902344 1046.910156 196.503906 C 1029.398438 157.230469 1000.832031 133.886719 979.957031 121.21875 C 979.453125 120.914062 979.292969 120.257812 979.597656 119.75 C 979.902344 119.246094 980.5625 119.085938 981.066406 119.390625 C 1002.207031 132.21875 1031.125 155.855469 1048.859375 195.632812 C 1049.101562 196.171875 1048.855469 196.800781 1048.320312 197.042969 C 1048.179688 197.109375 1048.03125 197.136719 1047.886719 197.136719 " fill-opacity="1" fill-rule="nonzero"/><path fill="#000000" d="M 497.859375 206.019531 C 497.714844 206.019531 497.570312 205.988281 497.429688 205.925781 C 496.890625 205.6875 496.644531 205.058594 496.878906 204.519531 C 510.769531 172.867188 534.433594 146.894531 567.21875 127.328125 C 567.722656 127.027344 568.378906 127.191406 568.683594 127.703125 C 568.984375 128.210938 568.820312 128.863281 568.3125 129.167969 C 535.921875 148.496094 512.546875 174.136719 498.839844 205.378906 C 498.664062 205.78125 498.269531 206.019531 497.859375 206.019531 " fill-opacity="1" fill-rule="nonzero"/><path fill="#000000" d="M 485.425781 207.1875 C 485.308594 207.1875 485.191406 207.171875 485.078125 207.128906 C 484.519531 206.933594 484.222656 206.328125 484.417969 205.773438 C 484.578125 205.304688 501.109375 158.726562 548.867188 127.449219 C 549.359375 127.128906 550.023438 127.265625 550.347656 127.761719 C 550.667969 128.253906 550.53125 128.914062 550.039062 129.238281 C 502.917969 160.101562 486.59375 206.011719 486.4375 206.46875 C 486.285156 206.910156 485.867188 207.1875 485.425781 207.1875 " fill-opacity="1" fill-rule="nonzero"/></svg>