<svg xmlns="http://www.w3.org/2000/svg" xmlns:xlink="http://www.w3.org/1999/xlink" width="1920" zoomAndPan="magnify" viewBox="0 0 1440 809.999993" height="1080" preserveAspectRatio="xMidYMid meet" version="1.0"><defs><clipPath id="fadeebb339"><path d="M 56.230469 53.816406 L 1384 53.816406 L 1384 756.183594 L 56.230469 756.183594 Z M 56.230469 53.816406 " clip-rule="nonzero"/></clipPath><clipPath id="390cfe36d5"><path d="M 81.730469 53.816406 L 1358.269531 53.816406 C 1365.03125 53.816406 1371.519531 56.503906 1376.300781 61.285156 C 1381.082031 66.066406 1383.769531 72.554688 1383.769531 79.316406 L 1383.769531 730.683594 C 1383.769531 737.445312 1381.082031 743.933594 1376.300781 748.714844 C 1371.519531 753.496094 1365.03125 756.183594 1358.269531 756.183594 L 81.730469 756.183594 C 74.96875 756.183594 68.480469 753.496094 63.699219 748.714844 C 58.917969 743.933594 56.230469 737.445312 56.230469 730.683594 L 56.230469 79.316406 C 56.230469 72.554688 58.917969 66.066406 63.699219 61.285156 C 68.480469 56.503906 74.96875 53.816406 81.730469 53.816406 Z M 81.730469 53.816406 " clip-rule="nonzero"/></clipPath><clipPath id="ccb0ff45c6"><path d="M 56.230469 53.816406 L 1383.730469 53.816406 L 1383.730469 755.816406 L 56.230469 755.816406 Z M 56.230469 53.816406 " clip-rule="nonzero"/></clipPath><clipPath id="35207c10eb"><path d="M 81.730469 53.816406 L 1358.265625 53.816406 C 1365.027344 53.816406 1371.515625 56.503906 1376.296875 61.285156 C 1381.078125 66.066406 1383.765625 72.554688 1383.765625 79.316406 L 1383.765625 730.679688 C 1383.765625 737.441406 1381.078125 743.929688 1376.296875 748.710938 C 1371.515625 753.492188 1365.027344 756.179688 1358.265625 756.179688 L 81.730469 756.179688 C 74.96875 756.179688 68.480469 753.492188 63.699219 748.710938 C 58.917969 743.929688 56.230469 737.441406 56.230469 730.679688 L 56.230469 79.316406 C 56.230469 72.554688 58.917969 66.066406 63.699219 61.285156 C 68.480469 56.503906 74.96875 53.816406 81.730469 53.816406 Z M 81.730469 53.816406 " clip-rule="nonzero"/></clipPath></defs><rect x="-144" width="1728" fill="#ffffff" y="-80.999999" height="971.999992" fill-opacity="1"/><rect x="-144" width="1728" fill="#ffcbbe" y="-80.999999" height="971.999992" fill-opacity="1"/><g clip-path="url(#fadeebb339)"><g clip-path="url(#390cfe36d5)"><path fill="#ffffff" d="M 56.230469 53.816406 L 1384.140625 53.816406 L 1384.140625 756.183594 L 56.230469 756.183594 Z M 56.230469 53.816406 " fill-opacity="1" fill-rule="nonzero"/></g></g><g clip-path="url(#ccb0ff45c6)"><g clip-path="url(#35207c10eb)"><path stroke-linecap="butt" transform="matrix(0.75, 0, 0, 0.75, 56.231257, 53.816931)" fill="none" stroke-linejoin="miter" d="M 33.998951 -0.000699523 L 1736.045911 -0.000699523 C 1745.061537 -0.000699523 1753.712579 3.582634 1760.087579 9.957634 C 1766.46258 16.332635 1770.045913 24.983677 1770.045913 33.999302 L 1770.045913 902.483721 C 1770.045913 911.499346 1766.46258 920.150388 1760.087579 926.525389 C 1753.712579 932.900389 1745.061537 936.483723 1736.045911 936.483723 L 33.998951 936.483723 C 24.983325 936.483723 16.332283 932.900389 9.957283 926.525389 C 3.582283 920.150388 -0.00105099 911.499346 -0.00105099 902.483721 L -0.00105099 33.999302 C -0.00105099 24.983677 3.582283 16.332635 9.957283 9.957634 C 16.332283 3.582634 24.983325 -0.000699523 33.998951 -0.000699523 Z M 33.998951 -0.000699523 " stroke="#000000" stroke-width="4" stroke-opacity="1" stroke-miterlimit="4"/></g></g><path fill="#caddff" d="M 1002.347656 424.316406 C 956.195312 460.640625 1022.769531 548.230469 996.375 601.78125 C 960.839844 673.875 743.496094 711.261719 613.632812 610.75 C 504.878906 526.574219 484.226562 366.394531 543.84375 310.535156 C 561.683594 293.816406 581.492188 291.339844 609.214844 275.039062 C 635.003906 259.875 638.246094 255.566406 640.347656 252.617188 C 661.082031 223.503906 629.660156 191.464844 640.214844 165.546875 C 656.886719 124.59375 771.175781 116.519531 862.398438 143.039062 C 887 150.191406 1011.28125 189.324219 1045.859375 288.945312 C 1048.535156 296.65625 1073.667969 371.011719 1036.34375 405.675781 C 1023.40625 417.695312 1014.65625 414.632812 1002.347656 424.316406 " fill-opacity="1" fill-rule="nonzero"/><path fill="#000000" d="M 540.113281 466.761719 C 539.683594 466.761719 539.289062 466.480469 539.164062 466.046875 C 523.351562 411.144531 536.230469 367.101562 536.363281 366.664062 C 536.519531 366.140625 537.070312 365.847656 537.59375 366.003906 C 538.113281 366.160156 538.410156 366.707031 538.253906 367.230469 C 538.121094 367.664062 525.417969 411.179688 541.058594 465.5 C 541.210938 466.027344 540.910156 466.570312 540.386719 466.722656 C 540.292969 466.75 540.203125 466.761719 540.113281 466.761719 " fill-opacity="1" fill-rule="nonzero"/><path fill="#000000" d="M 523.765625 431.046875 C 523.308594 431.046875 522.898438 430.726562 522.800781 430.261719 C 522.773438 430.128906 519.976562 416.628906 520.699219 397.640625 C 521.367188 380.101562 525.25 354.132812 539.957031 329.996094 C 540.242188 329.53125 540.847656 329.386719 541.3125 329.667969 C 541.777344 329.953125 541.925781 330.5625 541.640625 331.023438 C 513.921875 376.515625 524.617188 429.328125 524.730469 429.855469 C 524.84375 430.390625 524.503906 430.910156 523.96875 431.027344 C 523.902344 431.039062 523.832031 431.046875 523.765625 431.046875 " fill-opacity="1" fill-rule="nonzero"/><path fill="#000000" d="M 1037.605469 293.980469 C 1037.425781 293.980469 1037.238281 293.933594 1037.082031 293.828125 C 1036.617188 293.535156 1036.484375 292.929688 1036.773438 292.46875 L 1039.496094 288.15625 C 1039.789062 287.695312 1040.398438 287.5625 1040.859375 287.851562 C 1041.316406 288.140625 1041.453125 288.75 1041.164062 289.214844 L 1038.441406 293.523438 C 1038.25 293.816406 1037.933594 293.980469 1037.605469 293.980469 " fill-opacity="1" fill-rule="nonzero"/><path fill="#000000" d="M 1031.261719 304.023438 C 1031.082031 304.023438 1030.898438 303.972656 1030.734375 303.871094 C 1030.273438 303.578125 1030.136719 302.96875 1030.429688 302.511719 L 1033.15625 298.195312 C 1033.445312 297.738281 1034.054688 297.601562 1034.511719 297.890625 C 1034.976562 298.183594 1035.113281 298.792969 1034.820312 299.25 L 1032.097656 303.566406 C 1031.910156 303.859375 1031.589844 304.023438 1031.261719 304.023438 " fill-opacity="1" fill-rule="nonzero"/><path fill="#000000" d="M 1032.925781 295.035156 C 1032.75 295.035156 1032.566406 294.984375 1032.402344 294.882812 L 1028.09375 292.160156 C 1027.632812 291.871094 1027.492188 291.257812 1027.785156 290.796875 C 1028.078125 290.339844 1028.683594 290.203125 1029.144531 290.492188 L 1033.453125 293.214844 C 1033.914062 293.511719 1034.054688 294.117188 1033.761719 294.578125 C 1033.574219 294.875 1033.257812 295.035156 1032.925781 295.035156 " fill-opacity="1" fill-rule="nonzero"/><path fill="#000000" d="M 1042.972656 301.378906 C 1042.792969 301.378906 1042.613281 301.332031 1042.445312 301.226562 L 1038.140625 298.503906 C 1037.679688 298.210938 1037.539062 297.605469 1037.835938 297.140625 C 1038.121094 296.679688 1038.734375 296.546875 1039.191406 296.835938 L 1043.5 299.5625 C 1043.964844 299.851562 1044.101562 300.460938 1043.8125 300.921875 C 1043.621094 301.214844 1043.304688 301.378906 1042.972656 301.378906 " fill-opacity="1" fill-rule="nonzero"/><path fill="#000000" d="M 624.296875 146.152344 C 624.050781 146.152344 623.804688 146.0625 623.613281 145.882812 C 623.222656 145.507812 623.207031 144.878906 623.585938 144.488281 L 626.6875 141.242188 C 627.066406 140.851562 627.6875 140.835938 628.082031 141.210938 C 628.476562 141.585938 628.488281 142.214844 628.113281 142.605469 L 625.011719 145.851562 C 624.816406 146.050781 624.554688 146.152344 624.296875 146.152344 " fill-opacity="1" fill-rule="nonzero"/><path fill="#000000" d="M 613.433594 157.511719 C 613.1875 157.511719 612.945312 157.417969 612.753906 157.238281 C 612.359375 156.859375 612.34375 156.238281 612.722656 155.839844 L 615.824219 152.597656 C 616.203125 152.207031 616.824219 152.191406 617.21875 152.566406 C 617.613281 152.941406 617.625 153.566406 617.25 153.960938 L 614.148438 157.207031 C 613.953125 157.40625 613.691406 157.511719 613.433594 157.511719 " fill-opacity="1" fill-rule="nonzero"/><path fill="#000000" d="M 616.480469 146.328125 C 616.230469 146.328125 615.980469 146.234375 615.789062 146.042969 L 612.640625 142.941406 C 612.25 142.558594 612.246094 141.933594 612.628906 141.546875 C 613.011719 141.15625 613.636719 141.152344 614.023438 141.535156 L 617.171875 144.640625 C 617.558594 145.023438 617.566406 145.644531 617.183594 146.03125 C 616.988281 146.230469 616.734375 146.328125 616.480469 146.328125 " fill-opacity="1" fill-rule="nonzero"/><path fill="#000000" d="M 627.503906 157.195312 C 627.253906 157.195312 627.003906 157.101562 626.8125 156.910156 L 623.664062 153.808594 C 623.273438 153.425781 623.269531 152.800781 623.652344 152.414062 C 624.035156 152.023438 624.660156 152.019531 625.046875 152.40625 L 628.195312 155.507812 C 628.585938 155.890625 628.589844 156.511719 628.207031 156.902344 C 628.015625 157.097656 627.757812 157.195312 627.503906 157.195312 " fill-opacity="1" fill-rule="nonzero"/><path fill="#000000" d="M 1020.058594 258.6875 C 1019.367188 258.6875 1018.679688 258.835938 1018.03125 259.125 C 1015.472656 260.277344 1014.308594 263.34375 1015.4375 265.96875 C 1015.984375 267.246094 1016.992188 268.226562 1018.269531 268.71875 C 1019.511719 269.203125 1020.867188 269.171875 1022.085938 268.617188 C 1024.644531 267.46875 1025.804688 264.398438 1024.675781 261.777344 C 1024.128906 260.5 1023.125 259.523438 1021.847656 259.027344 C 1021.265625 258.800781 1020.660156 258.6875 1020.058594 258.6875 Z M 1020.058594 271.03125 C 1019.214844 271.03125 1018.367188 270.875 1017.550781 270.558594 C 1015.78125 269.867188 1014.386719 268.515625 1013.625 266.75 C 1012.070312 263.144531 1013.6875 258.917969 1017.21875 257.328125 C 1018.921875 256.5625 1020.824219 256.511719 1022.558594 257.1875 C 1024.332031 257.875 1025.726562 259.230469 1026.488281 261 C 1028.039062 264.601562 1026.429688 268.828125 1022.894531 270.421875 C 1021.988281 270.828125 1021.023438 271.03125 1020.058594 271.03125 " fill-opacity="1" fill-rule="nonzero"/><path fill="#99b9ff" d="M 979.121094 663.175781 L 966.269531 664.121094 L 725.578125 663.175781 C 714.652344 663.175781 705.828125 654.335938 705.867188 643.429688 L 707.691406 149.652344 C 707.730469 138.753906 716.625 129.914062 727.550781 129.914062 L 968.023438 127.097656 C 995.664062 127.097656 1000.839844 138.753906 1000.800781 149.652344 L 998.976562 643.429688 C 998.9375 654.335938 990.046875 663.175781 979.121094 663.175781 " fill-opacity="1" fill-rule="nonzero"/><path fill="#ffffff" d="M 963.867188 663.175781 L 710.324219 663.175781 C 699.398438 663.175781 690.570312 654.304688 690.605469 643.367188 L 692.234375 148.019531 C 692.273438 137.082031 701.160156 128.210938 712.082031 128.210938 L 965.628906 128.210938 C 976.554688 128.210938 985.382812 137.082031 985.347656 148.019531 L 983.714844 643.367188 C 983.679688 654.304688 974.792969 663.175781 963.867188 663.175781 " fill-opacity="1" fill-rule="nonzero"/><path fill="#99b9ff" d="M 705.132812 644.050781 L 706.691406 171.082031 C 706.699219 168.554688 708.75 166.507812 711.273438 166.507812 L 966.179688 166.507812 C 968.703125 166.507812 970.738281 168.554688 970.734375 171.082031 L 969.171875 644.050781 C 969.167969 646.574219 967.113281 648.625 964.59375 648.625 L 709.6875 648.625 C 707.164062 648.625 705.125 646.574219 705.132812 644.050781 " fill-opacity="1" fill-rule="nonzero"/><path fill="#caddff" d="M 838.769531 153.40625 C 834.679688 153.40625 831.371094 150.085938 831.386719 145.988281 C 831.398438 141.890625 834.730469 138.566406 838.824219 138.566406 C 842.914062 138.566406 846.222656 141.890625 846.210938 145.988281 C 846.195312 150.085938 842.867188 153.40625 838.769531 153.40625 " fill-opacity="1" fill-rule="nonzero"/><path fill="#000000" d="M 984.566406 386.1875 C 984.5625 386.1875 984.5625 386.1875 984.5625 386.1875 C 984.015625 386.183594 983.578125 385.742188 983.582031 385.199219 L 984.363281 148.015625 C 984.375 142.984375 982.4375 138.257812 978.894531 134.703125 C 975.355469 131.15625 970.640625 129.199219 965.632812 129.199219 L 712.082031 129.199219 C 701.71875 129.199219 693.253906 137.644531 693.222656 148.023438 L 692.597656 337.695312 C 692.59375 338.242188 692.15625 338.679688 691.609375 338.679688 C 691.609375 338.679688 691.609375 338.679688 691.605469 338.679688 C 691.0625 338.675781 690.621094 338.234375 690.625 337.691406 L 691.25 148.015625 C 691.289062 136.550781 700.632812 127.226562 712.082031 127.226562 L 965.632812 127.226562 C 971.171875 127.226562 976.378906 129.386719 980.285156 133.3125 C 984.207031 137.238281 986.351562 142.464844 986.335938 148.023438 L 985.550781 385.203125 C 985.550781 385.746094 985.109375 386.1875 984.566406 386.1875 " fill-opacity="1" fill-rule="nonzero"/><path fill="#000000" d="M 963.867188 664.160156 C 963.867188 664.160156 963.867188 664.160156 963.863281 664.160156 L 763.972656 663.222656 C 763.429688 663.21875 762.992188 662.773438 762.992188 662.234375 C 762.992188 661.6875 763.4375 661.25 763.980469 661.25 L 963.871094 662.1875 C 964.417969 662.1875 964.855469 662.632812 964.851562 663.179688 C 964.851562 663.71875 964.410156 664.160156 963.867188 664.160156 " fill-opacity="1" fill-rule="nonzero"/><path fill="#ffffff" d="M 745.648438 292.710938 L 746.242188 292.710938 L 745.816406 252.417969 L 745.222656 252.417969 C 734.109375 252.417969 725.199219 261.410156 725.3125 272.5 L 725.3125 272.625 C 725.429688 283.71875 734.535156 292.710938 745.648438 292.710938 " fill-opacity="1" fill-rule="nonzero"/><path fill="#000000" d="M 744.84375 253.410156 C 739.871094 253.503906 735.234375 255.484375 731.746094 259.007812 C 728.179688 262.609375 726.246094 267.398438 726.300781 272.488281 L 726.300781 272.617188 C 726.410156 283.015625 734.867188 291.503906 745.242188 291.71875 Z M 746.242188 293.695312 L 745.648438 293.695312 C 734.011719 293.695312 724.449219 284.25 724.328125 272.636719 L 724.328125 272.507812 C 724.269531 266.886719 726.40625 261.601562 730.34375 257.621094 C 734.292969 253.628906 739.578125 251.433594 745.226562 251.433594 L 745.816406 251.433594 C 746.359375 251.433594 746.796875 251.867188 746.804688 252.410156 L 747.226562 292.699219 C 747.226562 292.964844 747.125 293.214844 746.941406 293.402344 C 746.757812 293.589844 746.503906 293.695312 746.242188 293.695312 " fill-opacity="1" fill-rule="nonzero"/><path fill="#ffffff" d="M 929.125 292.710938 L 928.53125 292.710938 L 928.113281 252.417969 L 928.703125 252.417969 C 939.820312 252.417969 948.917969 261.410156 949.039062 272.5 L 949.039062 272.628906 C 949.152344 283.71875 940.238281 292.710938 929.125 292.710938 " fill-opacity="1" fill-rule="nonzero"/><path fill="#000000" d="M 929.113281 253.40625 L 929.511719 291.71875 C 934.484375 291.621094 939.121094 289.640625 942.609375 286.117188 C 946.175781 282.511719 948.105469 277.726562 948.054688 272.636719 L 948.054688 272.511719 C 947.945312 262.109375 939.484375 253.621094 929.113281 253.40625 Z M 929.128906 293.695312 L 928.535156 293.695312 C 927.996094 293.695312 927.554688 293.257812 927.550781 292.71875 L 927.128906 252.425781 C 927.128906 252.164062 927.230469 251.910156 927.414062 251.71875 C 927.597656 251.53125 927.851562 251.429688 928.113281 251.429688 L 928.707031 251.429688 C 940.34375 251.429688 949.90625 260.875 950.027344 272.488281 L 950.027344 272.613281 C 950.085938 278.238281 947.949219 283.527344 944.007812 287.503906 C 940.0625 291.496094 934.777344 293.695312 929.128906 293.695312 " fill-opacity="1" fill-rule="nonzero"/><path fill="#ffffff" d="M 934.835938 270.898438 C 934.378906 227.601562 890.183594 182.816406 836.238281 182.816406 C 782.292969 182.816406 739.035156 227.601562 739.488281 270.898438 C 739.941406 314.195312 783.933594 339.605469 837.878906 339.605469 C 891.820312 339.605469 935.285156 314.195312 934.835938 270.898438 " fill-opacity="1" fill-rule="nonzero"/><path fill="#000000" d="M 836.234375 183.804688 C 810.230469 183.804688 784.597656 194.640625 765.894531 213.539062 C 749.53125 230.078125 740.265625 250.980469 740.472656 270.890625 C 740.683594 291.183594 750.605469 308.394531 769.167969 320.667969 C 786.683594 332.242188 811.085938 338.621094 837.878906 338.621094 C 871.335938 338.621094 900.277344 328.765625 917.277344 311.585938 C 928.433594 300.308594 934.011719 286.625 933.847656 270.910156 C 933.414062 229.792969 891.582031 183.804688 836.234375 183.804688 Z M 837.878906 340.589844 C 810.703125 340.589844 785.914062 334.101562 768.078125 322.3125 C 748.949219 309.664062 738.722656 291.890625 738.5 270.910156 C 738.285156 250.476562 747.761719 229.0625 764.492188 212.152344 C 783.5625 192.882812 809.710938 181.832031 836.234375 181.832031 C 861.941406 181.832031 886.808594 191.800781 906.265625 209.902344 C 924.820312 227.164062 935.59375 249.394531 935.816406 270.890625 C 935.984375 286.917969 930.0625 301.472656 918.675781 312.972656 C 901.308594 330.523438 871.855469 340.589844 837.878906 340.589844 " fill-opacity="1" fill-rule="nonzero"/><path fill="#ffffff" d="M 813.546875 352.613281 L 862.480469 352.613281 C 883.921875 352.613281 901.492188 369.964844 901.714844 391.367188 C 901.863281 405.503906 900.628906 419.609375 898.027344 433.484375 L 891.367188 469.039062 C 886.710938 493.890625 865.058594 511.800781 839.679688 511.800781 C 814.296875 511.800781 792.269531 493.890625 787.097656 469.039062 L 779.6875 433.484375 C 776.800781 419.609375 775.269531 405.503906 775.125 391.367188 C 774.898438 369.964844 792.101562 352.613281 813.546875 352.613281 " fill-opacity="1" fill-rule="nonzero"/><path fill="#000000" d="M 813.546875 353.597656 C 803.425781 353.597656 793.953125 357.535156 786.882812 364.6875 C 779.828125 371.8125 776.003906 381.285156 776.109375 391.359375 C 776.253906 405.398438 777.785156 419.507812 780.65625 433.28125 L 788.0625 468.839844 C 793.125 493.164062 814.839844 510.816406 839.679688 510.816406 C 864.511719 510.816406 885.84375 493.171875 890.398438 468.859375 L 897.058594 433.300781 C 899.644531 419.527344 900.878906 405.417969 900.730469 391.378906 C 900.511719 370.546875 883.351562 353.597656 862.476562 353.597656 Z M 839.679688 512.789062 C 813.910156 512.789062 791.386719 494.472656 786.128906 469.242188 L 778.726562 433.683594 C 775.828125 419.78125 774.285156 405.550781 774.136719 391.378906 C 774.027344 380.773438 778.054688 370.800781 785.476562 363.296875 C 792.929688 355.769531 802.894531 351.628906 813.546875 351.628906 L 862.476562 351.628906 C 884.429688 351.628906 902.472656 369.453125 902.699219 391.359375 C 902.847656 405.527344 901.601562 419.765625 899 433.667969 L 892.335938 469.222656 C 887.605469 494.464844 865.457031 512.789062 839.679688 512.789062 " fill-opacity="1" fill-rule="nonzero"/><path fill="#000000" d="M 864.648438 353.597656 L 811.378906 353.597656 C 810.835938 353.597656 810.394531 353.15625 810.394531 352.613281 C 810.394531 352.066406 810.835938 351.625 811.378906 351.625 L 864.648438 351.625 C 865.195312 351.625 865.632812 352.066406 865.632812 352.613281 C 865.632812 353.15625 865.195312 353.597656 864.648438 353.597656 " fill-opacity="1" fill-rule="nonzero"/><path fill="#000000" d="M 771.355469 257.90625 L 865.414062 257.90625 C 875.179688 257.90625 883.195312 266.421875 883.300781 276.933594 L 883.429688 289.34375 C 883.515625 297.359375 879.320312 305.851562 871.941406 307.234375 C 845.925781 312.125 791.976562 312.125 765.855469 307.234375 C 758.453125 305.851562 754.078125 297.359375 753.992188 289.34375 L 753.859375 276.933594 C 753.753906 266.421875 761.585938 257.90625 771.355469 257.90625 " fill-opacity="1" fill-rule="nonzero"/><path fill="#5479f7" d="M 840.746094 282.886719 C 840.785156 286.40625 843.46875 289.257812 846.742188 289.257812 C 850.011719 289.257812 852.636719 286.40625 852.601562 282.886719 C 852.5625 279.367188 849.882812 276.511719 846.605469 276.511719 C 843.332031 276.511719 840.707031 279.367188 840.746094 282.886719 " fill-opacity="1" fill-rule="nonzero"/><path fill="#5479f7" d="M 777.6875 282.886719 C 777.71875 286.40625 780.40625 289.257812 783.679688 289.257812 C 786.949219 289.257812 789.574219 286.40625 789.539062 282.886719 C 789.503906 279.367188 786.820312 276.511719 783.546875 276.511719 C 780.269531 276.511719 777.644531 279.367188 777.6875 282.886719 " fill-opacity="1" fill-rule="nonzero"/><path fill="#5479f7" d="M 835.628906 448.308594 C 826.058594 448.308594 818.222656 440.53125 818.125 430.9375 L 817.792969 399.085938 C 817.691406 389.492188 825.367188 381.714844 834.933594 381.714844 C 844.5 381.714844 852.335938 389.492188 852.4375 399.085938 L 852.769531 430.9375 C 852.867188 440.53125 845.191406 448.308594 835.628906 448.308594 " fill-opacity="1" fill-rule="nonzero"/><path fill="#5479f7" d="M 838.421875 456.867188 L 834.90625 456.867188 C 821.308594 456.867188 810.128906 445.773438 809.984375 432.140625 L 809.664062 401.074219 C 809.65625 400.53125 810.097656 400.085938 810.640625 400.078125 C 810.644531 400.078125 810.644531 400.078125 810.648438 400.078125 C 811.1875 400.078125 811.628906 400.515625 811.636719 401.054688 L 811.957031 432.117188 C 812.089844 444.679688 822.382812 454.894531 834.90625 454.894531 L 838.421875 454.894531 C 844.089844 454.894531 849.398438 452.6875 853.367188 448.675781 C 857.355469 444.644531 859.515625 439.28125 859.457031 433.574219 L 859.113281 400.554688 C 859.109375 400.007812 859.542969 399.5625 860.089844 399.554688 C 860.667969 399.542969 861.082031 399.988281 861.085938 400.53125 L 861.429688 433.554688 C 861.496094 439.792969 859.128906 445.65625 854.769531 450.0625 C 850.425781 454.449219 844.621094 456.867188 838.421875 456.867188 " fill-opacity="1" fill-rule="nonzero"/><path fill="#5479f7" d="M 854.636719 471.949219 L 817.589844 471.949219 C 815.859375 471.949219 814.445312 470.546875 814.425781 468.8125 C 814.410156 467.082031 815.796875 465.675781 817.523438 465.675781 L 854.574219 465.675781 C 856.300781 465.675781 857.714844 467.082031 857.734375 468.8125 C 857.75 470.546875 856.367188 471.949219 854.636719 471.949219 " fill-opacity="1" fill-rule="nonzero"/><path fill="#5479f7" d="M 838.277344 471.710938 L 833.464844 471.710938 L 833.199219 446.375 L 838.011719 446.375 L 838.277344 471.710938 " fill-opacity="1" fill-rule="nonzero"/><path fill="#5479f7" d="M 932.035156 388.742188 C 929.96875 388.675781 928.296875 390.230469 928.300781 392.226562 L 928.335938 438.492188 C 928.339844 440.488281 930.011719 442.15625 932.078125 442.226562 C 934.140625 442.296875 935.8125 440.742188 935.8125 438.746094 L 935.773438 392.476562 C 935.769531 390.484375 934.097656 388.816406 932.035156 388.742188 " fill-opacity="1" fill-rule="nonzero"/><path fill="#5479f7" d="M 948.90625 373.863281 C 946.84375 373.792969 945.171875 375.351562 945.171875 377.34375 L 945.242188 454.515625 C 945.242188 456.511719 946.914062 458.183594 948.980469 458.25 C 951.042969 458.320312 952.714844 456.761719 952.714844 454.769531 L 952.644531 377.59375 C 952.644531 375.601562 950.96875 373.929688 948.90625 373.863281 " fill-opacity="1" fill-rule="nonzero"/><path fill="#5479f7" d="M 965.808594 388.246094 C 963.746094 388.171875 962.074219 389.730469 962.078125 391.726562 L 962.121094 441.273438 C 962.121094 443.265625 963.796875 444.9375 965.863281 445.007812 C 967.921875 445.078125 969.59375 443.519531 969.59375 441.523438 L 969.550781 391.976562 C 969.550781 389.984375 967.875 388.3125 965.808594 388.246094 " fill-opacity="1" fill-rule="nonzero"/><path fill="#5479f7" d="M 982.699219 393.992188 C 980.640625 393.925781 978.96875 395.484375 978.96875 397.476562 L 979.007812 436.667969 C 979.007812 438.65625 980.679688 440.328125 982.742188 440.394531 C 984.808594 440.46875 986.480469 438.910156 986.476562 436.917969 L 986.445312 397.726562 C 986.441406 395.734375 984.769531 394.0625 982.699219 393.992188 " fill-opacity="1" fill-rule="nonzero"/><path fill="#5479f7" d="M 916.4375 399.882812 C 914.378906 399.816406 912.710938 401.097656 912.726562 402.75 L 913 435.21875 C 913.015625 436.867188 914.699219 438.265625 916.761719 438.335938 C 918.824219 438.40625 920.488281 437.125 920.472656 435.472656 L 920.199219 403 C 920.183594 401.347656 918.5 399.957031 916.4375 399.882812 " fill-opacity="1" fill-rule="nonzero"/><path fill="#5479f7" d="M 1029.941406 397.390625 C 1027.878906 397.320312 1026.210938 398.878906 1026.210938 400.871094 L 1026.242188 440.058594 C 1026.242188 442.050781 1027.917969 443.726562 1029.980469 443.792969 C 1032.042969 443.859375 1033.71875 442.304688 1033.714844 440.3125 L 1033.679688 401.125 C 1033.679688 399.128906 1032.007812 397.457031 1029.941406 397.390625 " fill-opacity="1" fill-rule="nonzero"/><path fill="#5479f7" d="M 1044.808594 406.324219 C 1042.746094 406.195312 1041.074219 407.097656 1041.066406 408.339844 L 1040.914062 432.820312 C 1040.910156 434.066406 1042.570312 435.183594 1044.632812 435.3125 C 1046.695312 435.441406 1048.367188 434.539062 1048.378906 433.296875 L 1048.527344 408.8125 C 1048.535156 407.570312 1046.867188 406.457031 1044.808594 406.324219 " fill-opacity="1" fill-rule="nonzero"/><path fill="#5479f7" d="M 999.597656 401.925781 C 997.535156 401.859375 995.863281 403.414062 995.863281 405.40625 L 995.886719 429.871094 C 995.886719 431.863281 997.5625 433.535156 999.625 433.605469 C 1001.691406 433.675781 1003.359375 432.117188 1003.359375 430.125 L 1003.339844 405.660156 C 1003.335938 403.667969 1001.664062 401.996094 999.597656 401.925781 " fill-opacity="1" fill-rule="nonzero"/><path fill="#5479f7" d="M 1015.160156 387.441406 C 1013.101562 387.371094 1011.425781 388.929688 1011.425781 390.921875 L 1011.472656 445.535156 C 1011.476562 447.527344 1013.152344 449.199219 1015.214844 449.269531 C 1017.277344 449.335938 1018.949219 447.78125 1018.945312 445.785156 L 1018.898438 391.171875 C 1018.898438 389.179688 1017.222656 387.511719 1015.160156 387.441406 " fill-opacity="1" fill-rule="nonzero"/><path fill="#5479f7" d="M 743.898438 388.871094 C 741.835938 388.820312 740.183594 390.34375 740.203125 392.273438 L 740.8125 445.199219 C 740.835938 447.128906 742.527344 448.734375 744.589844 448.785156 C 746.652344 448.835938 748.304688 447.316406 748.28125 445.382812 L 747.671875 392.457031 C 747.652344 390.527344 745.960938 388.921875 743.898438 388.871094 " fill-opacity="1" fill-rule="nonzero"/><path fill="#5479f7" d="M 710.222656 395.507812 C 708.160156 395.453125 706.507812 396.980469 706.53125 398.910156 L 706.96875 436.890625 C 706.992188 438.820312 708.679688 440.425781 710.742188 440.476562 C 712.804688 440.527344 714.460938 439.003906 714.4375 437.074219 L 714 399.097656 C 713.976562 397.164062 712.285156 395.558594 710.222656 395.507812 " fill-opacity="1" fill-rule="nonzero"/><path fill="#5479f7" d="M 693.425781 402.226562 C 691.363281 402.175781 689.710938 403.695312 689.734375 405.628906 L 690.007812 429.335938 C 690.027344 431.265625 691.71875 432.871094 693.78125 432.921875 C 695.84375 432.972656 697.496094 431.453125 697.472656 429.519531 L 697.199219 405.8125 C 697.179688 403.882812 695.488281 402.273438 693.425781 402.226562 " fill-opacity="1" fill-rule="nonzero"/><path fill="#5479f7" d="M 726.953125 400.90625 C 724.886719 400.859375 723.234375 402.382812 723.257812 404.3125 L 723.53125 428.019531 C 723.554688 429.949219 725.242188 431.558594 727.308594 431.609375 C 729.371094 431.660156 731.023438 430.136719 731 428.207031 L 730.726562 404.5 C 730.703125 402.566406 729.015625 400.960938 726.953125 400.90625 " fill-opacity="1" fill-rule="nonzero"/><path fill="#5479f7" d="M 759.652344 395.671875 C 757.589844 395.617188 755.921875 397.671875 755.925781 400.253906 L 755.996094 431.9375 C 756 434.515625 757.679688 436.652344 759.742188 436.699219 C 761.804688 436.753906 763.472656 434.703125 763.464844 432.121094 L 763.394531 400.433594 C 763.390625 397.855469 761.714844 395.71875 759.652344 395.671875 " fill-opacity="1" fill-rule="nonzero"/><path fill="#99b9ff" d="M 676.378906 387.199219 C 674.316406 387.144531 672.660156 388.671875 672.683594 390.601562 L 673.292969 443.523438 C 673.316406 445.457031 675.007812 447.0625 677.070312 447.113281 C 679.132812 447.164062 680.785156 445.640625 680.761719 443.710938 L 680.152344 390.785156 C 680.128906 388.855469 678.441406 387.25 676.378906 387.199219 " fill-opacity="1" fill-rule="nonzero"/><path fill="#99b9ff" d="M 659.578125 393.777344 C 657.515625 393.722656 655.863281 395.246094 655.882812 397.175781 L 656.332031 436.113281 C 656.355469 438.042969 658.046875 439.648438 660.109375 439.699219 C 662.167969 439.753906 663.824219 438.226562 663.800781 436.296875 L 663.351562 397.363281 C 663.328125 395.433594 661.640625 393.824219 659.578125 393.777344 " fill-opacity="1" fill-rule="nonzero"/><path fill="#99b9ff" d="M 656.414062 182.65625 L 534.785156 182.890625 C 528.921875 182.902344 524.175781 187.664062 524.1875 193.53125 L 524.285156 243.875 C 524.296875 249.742188 529.058594 254.484375 534.921875 254.476562 L 625.996094 254.300781 L 652.582031 274.640625 L 652.542969 254.25 L 656.550781 254.242188 C 662.417969 254.234375 667.160156 249.46875 667.148438 243.601562 L 667.054688 193.253906 C 667.042969 187.390625 662.277344 182.648438 656.414062 182.65625 " fill-opacity="1" fill-rule="nonzero"/><path fill="#000000" d="M 652.285156 277.421875 C 652.0625 277.421875 651.84375 277.34375 651.664062 277.203125 L 625.886719 256.375 L 589.335938 255.472656 C 588.789062 255.457031 588.359375 255.003906 588.375 254.460938 C 588.386719 253.921875 588.816406 253.5 589.382812 253.5 L 626.269531 254.410156 C 626.488281 254.414062 626.699219 254.492188 626.867188 254.628906 L 651.351562 274.410156 L 651.800781 256.027344 C 651.808594 255.761719 651.917969 255.511719 652.105469 255.335938 C 652.296875 255.152344 652.546875 255.054688 652.8125 255.0625 L 656.820312 255.160156 C 656.898438 255.164062 656.980469 255.164062 657.058594 255.164062 C 662.261719 255.164062 666.554688 251 666.683594 245.769531 L 667.921875 195.4375 C 667.988281 192.863281 667.042969 190.421875 665.269531 188.554688 C 663.496094 186.695312 661.105469 185.632812 658.53125 185.570312 L 536.9375 182.578125 C 534.378906 182.5 531.921875 183.457031 530.058594 185.226562 C 528.195312 187.003906 527.136719 189.398438 527.074219 191.972656 L 525.832031 242.300781 C 525.769531 244.875 526.710938 247.316406 528.488281 249.179688 C 530.261719 251.046875 532.652344 252.105469 535.226562 252.167969 L 549.859375 252.527344 C 550.40625 252.539062 550.835938 252.996094 550.820312 253.539062 C 550.808594 254.082031 550.359375 254.507812 549.8125 254.5 L 535.175781 254.140625 C 532.078125 254.066406 529.195312 252.785156 527.058594 250.542969 C 524.921875 248.296875 523.785156 245.351562 523.863281 242.253906 L 525.101562 191.921875 C 525.175781 188.820312 526.457031 185.941406 528.699219 183.800781 C 530.945312 181.664062 533.878906 180.542969 536.988281 180.605469 L 658.578125 183.597656 C 661.679688 183.675781 664.5625 184.953125 666.699219 187.199219 C 668.835938 189.441406 669.972656 192.386719 669.894531 195.484375 L 668.65625 245.816406 C 668.5 252.117188 663.328125 257.136719 657.058594 257.136719 C 656.960938 257.136719 656.867188 257.136719 656.769531 257.132812 L 653.75 257.058594 L 653.269531 276.457031 C 653.261719 276.832031 653.039062 277.171875 652.699219 277.332031 C 652.566406 277.390625 652.425781 277.421875 652.285156 277.421875 " fill-opacity="1" fill-rule="nonzero"/><path fill="#000000" d="M 578.503906 255.265625 C 578.496094 255.265625 578.484375 255.265625 578.472656 255.265625 L 566.890625 254.917969 C 566.34375 254.902344 565.917969 254.449219 565.933594 253.902344 C 565.949219 253.359375 566.417969 252.914062 566.949219 252.949219 L 578.53125 253.296875 C 579.078125 253.3125 579.503906 253.765625 579.488281 254.308594 C 579.472656 254.84375 579.035156 255.265625 578.503906 255.265625 " fill-opacity="1" fill-rule="nonzero"/><path fill="#5479f7" d="M 590.820312 208.089844 C 590.8125 208.089844 590.804688 208.089844 590.796875 208.089844 L 543.507812 206.929688 C 542.964844 206.914062 542.53125 206.460938 542.546875 205.914062 C 542.558594 205.371094 542.984375 204.933594 543.554688 204.957031 L 590.847656 206.121094 C 591.390625 206.128906 591.820312 206.582031 591.808594 207.128906 C 591.792969 207.664062 591.355469 208.089844 590.820312 208.089844 " fill-opacity="1" fill-rule="nonzero"/><path fill="#5479f7" d="M 649.828125 209.558594 C 649.816406 209.558594 649.808594 209.558594 649.800781 209.558594 L 599.695312 208.324219 C 599.152344 208.308594 598.722656 207.859375 598.734375 207.3125 C 598.75 206.777344 599.1875 206.351562 599.71875 206.351562 C 599.726562 206.351562 599.738281 206.351562 599.746094 206.351562 L 649.847656 207.585938 C 650.394531 207.597656 650.824219 208.054688 650.8125 208.59375 C 650.796875 209.132812 650.359375 209.558594 649.828125 209.558594 " fill-opacity="1" fill-rule="nonzero"/><path fill="#5479f7" d="M 612.816406 232.238281 C 612.808594 232.238281 612.800781 232.238281 612.792969 232.234375 L 543.503906 230.453125 C 542.957031 230.441406 542.527344 229.988281 542.542969 229.445312 C 542.558594 228.90625 542.996094 228.484375 543.527344 228.484375 C 543.535156 228.484375 543.546875 228.484375 543.554688 228.484375 L 612.84375 230.265625 C 613.386719 230.277344 613.816406 230.730469 613.804688 231.277344 C 613.789062 231.8125 613.351562 232.238281 612.816406 232.238281 " fill-opacity="1" fill-rule="nonzero"/><path fill="#5479f7" d="M 649.824219 233.085938 C 649.816406 233.085938 649.808594 233.085938 649.800781 233.085938 L 621.695312 232.472656 C 621.148438 232.460938 620.71875 232.007812 620.730469 231.460938 C 620.742188 230.921875 621.195312 230.507812 621.738281 230.5 L 649.84375 231.117188 C 650.386719 231.128906 650.820312 231.578125 650.808594 232.125 C 650.796875 232.660156 650.359375 233.085938 649.824219 233.085938 " fill-opacity="1" fill-rule="nonzero"/><path fill="#5479f7" d="M 572.332031 219.277344 C 572.328125 219.277344 572.320312 219.277344 572.3125 219.277344 L 543.511719 218.695312 C 542.964844 218.683594 542.53125 218.230469 542.542969 217.6875 C 542.554688 217.144531 543.003906 216.722656 543.550781 216.722656 L 572.351562 217.304688 C 572.898438 217.316406 573.328125 217.765625 573.320312 218.308594 C 573.308594 218.847656 572.867188 219.277344 572.332031 219.277344 " fill-opacity="1" fill-rule="nonzero"/><path fill="#5479f7" d="M 649.828125 221.320312 C 649.816406 221.320312 649.808594 221.320312 649.800781 221.320312 L 581.207031 219.503906 C 580.664062 219.488281 580.234375 219.035156 580.246094 218.488281 C 580.261719 217.945312 580.738281 217.503906 581.261719 217.53125 L 649.851562 219.347656 C 650.394531 219.359375 650.824219 219.816406 650.8125 220.363281 C 650.796875 220.894531 650.359375 221.320312 649.828125 221.320312 " fill-opacity="1" fill-rule="nonzero"/><path fill="#5479f7" d="M 690.871094 620.101562 C 690.871094 620.101562 662.886719 558.765625 678.9375 479.246094 C 678.9375 479.246094 722.308594 515.589844 706.671875 620.101562 L 690.871094 620.101562 " fill-opacity="1" fill-rule="nonzero"/><path fill="#ffffff" d="M 697.714844 614.691406 C 697.695312 614.691406 697.675781 614.691406 697.65625 614.691406 C 697.113281 614.664062 696.699219 614.195312 696.726562 613.652344 C 698.867188 574.457031 681.191406 490.773438 681.011719 489.933594 C 680.898438 489.402344 681.238281 488.878906 681.773438 488.765625 C 682.304688 488.648438 682.828125 488.992188 682.941406 489.523438 C 683.121094 490.367188 700.851562 574.304688 698.699219 613.761719 C 698.667969 614.285156 698.234375 614.691406 697.714844 614.691406 " fill-opacity="1" fill-rule="nonzero"/><path fill="#caddff" d="M 719.019531 520.378906 C 719.019531 520.378906 682.96875 585.519531 704.65625 613.707031 L 716.253906 613.707031 C 716.253906 613.707031 739.4375 562.789062 719.019531 520.378906 " fill-opacity="1" fill-rule="nonzero"/><path fill="#ffffff" d="M 710.070312 616.417969 C 709.542969 616.417969 709.105469 616.003906 709.085938 615.472656 C 708.042969 588.566406 717.945312 520.914062 718.042969 520.234375 C 718.125 519.695312 718.625 519.324219 719.164062 519.402344 C 719.699219 519.484375 720.074219 519.984375 719.996094 520.523438 C 719.894531 521.199219 710.019531 588.671875 711.058594 615.394531 C 711.078125 615.9375 710.652344 616.394531 710.109375 616.417969 C 710.097656 616.417969 710.085938 616.417969 710.070312 616.417969 " fill-opacity="1" fill-rule="nonzero"/><path fill="#99b9ff" d="M 650.1875 544.664062 C 650.1875 544.664062 680.898438 555.140625 692.019531 617.179688 L 679.941406 617.179688 C 679.941406 617.179688 654.730469 583.109375 650.1875 544.664062 " fill-opacity="1" fill-rule="nonzero"/><path fill="#caddff" d="M 685.417969 616.417969 C 684.945312 616.417969 684.527344 616.078125 684.445312 615.59375 C 679.878906 588.003906 660.125 560.214844 659.925781 559.9375 C 659.605469 559.496094 659.707031 558.878906 660.152344 558.558594 C 660.59375 558.242188 661.210938 558.34375 661.527344 558.789062 C 661.730469 559.070312 681.753906 587.230469 686.390625 615.273438 C 686.480469 615.808594 686.117188 616.316406 685.578125 616.40625 C 685.523438 616.414062 685.472656 616.417969 685.417969 616.417969 " fill-opacity="1" fill-rule="nonzero"/><path fill="#ffffff" d="M 662.035156 612.257812 L 737.804688 612.257812 L 739.503906 648.097656 C 739.921875 656.882812 732.910156 664.238281 724.113281 664.238281 L 680.839844 664.238281 C 670.433594 664.238281 661.996094 655.792969 662.003906 645.382812 L 662.035156 612.257812 " fill-opacity="1" fill-rule="nonzero"/><path fill="#5479f7" d="M 663.023438 613.238281 L 662.992188 645.386719 C 662.988281 650.15625 664.84375 654.644531 668.214844 658.015625 C 671.585938 661.394531 676.070312 663.253906 680.839844 663.253906 L 724.113281 663.253906 C 728.097656 663.253906 731.804688 661.664062 734.550781 658.78125 C 737.300781 655.902344 738.710938 652.125 738.523438 648.144531 L 736.863281 613.238281 Z M 724.113281 665.226562 L 680.839844 665.226562 C 675.542969 665.226562 670.5625 663.160156 666.816406 659.410156 C 663.074219 655.664062 661.015625 650.679688 661.019531 645.382812 L 661.050781 612.253906 C 661.050781 611.710938 661.492188 611.269531 662.035156 611.269531 L 737.804688 611.269531 C 738.332031 611.269531 738.765625 611.683594 738.789062 612.210938 L 740.492188 648.050781 C 740.707031 652.574219 739.101562 656.867188 735.976562 660.144531 C 732.855469 663.417969 728.640625 665.226562 724.113281 665.226562 " fill-opacity="1" fill-rule="nonzero"/><path fill="#caddff" d="M 1024.785156 622.507812 L 845.359375 622.507812 C 840.726562 622.507812 836.9375 618.71875 836.9375 614.089844 L 836.9375 543.386719 C 836.9375 538.757812 840.726562 534.96875 845.359375 534.96875 L 887.53125 534.96875 C 888.097656 534.96875 888.558594 534.523438 888.582031 533.964844 L 894.554688 511.109375 L 916.8125 534.726562 C 917 534.882812 917.234375 534.96875 917.484375 534.96875 L 1024.785156 534.96875 C 1029.417969 534.96875 1033.203125 538.757812 1033.203125 543.386719 L 1033.203125 614.089844 C 1033.203125 618.71875 1029.417969 622.507812 1024.785156 622.507812 " fill-opacity="1" fill-rule="nonzero"/><path fill="#5479f7" d="M 1013.109375 564.828125 L 970.113281 564.828125 C 969.570312 564.828125 969.128906 564.386719 969.128906 563.84375 C 969.128906 563.300781 969.570312 562.855469 970.113281 562.855469 L 1013.109375 562.855469 C 1013.652344 562.855469 1014.09375 563.300781 1014.09375 563.84375 C 1014.09375 564.386719 1013.652344 564.828125 1013.109375 564.828125 " fill-opacity="1" fill-rule="nonzero"/><path fill="#5479f7" d="M 951.683594 564.828125 L 856.929688 564.828125 C 856.386719 564.828125 855.945312 564.386719 855.945312 563.84375 C 855.945312 563.300781 856.386719 562.855469 856.929688 562.855469 L 951.683594 562.855469 C 952.230469 562.855469 952.667969 563.300781 952.667969 563.84375 C 952.667969 564.386719 952.230469 564.828125 951.683594 564.828125 " fill-opacity="1" fill-rule="nonzero"/><path fill="#5479f7" d="M 1013.109375 583.875 L 914.828125 583.875 C 914.28125 583.875 913.839844 583.433594 913.839844 582.886719 C 913.839844 582.34375 914.28125 581.902344 914.828125 581.902344 L 1013.109375 581.902344 C 1013.652344 581.902344 1014.09375 582.34375 1014.09375 582.886719 C 1014.09375 583.433594 1013.652344 583.875 1013.109375 583.875 " fill-opacity="1" fill-rule="nonzero"/><path fill="#5479f7" d="M 895.78125 583.875 L 856.929688 583.875 C 856.386719 583.875 855.945312 583.433594 855.945312 582.886719 C 855.945312 582.34375 856.386719 581.902344 856.929688 581.902344 L 895.78125 581.902344 C 896.328125 581.902344 896.769531 582.34375 896.769531 582.886719 C 896.769531 583.433594 896.328125 583.875 895.78125 583.875 " fill-opacity="1" fill-rule="nonzero"/><path fill="#5479f7" d="M 1013.109375 600.460938 L 952.988281 600.460938 C 952.441406 600.460938 952.003906 600.019531 952.003906 599.472656 C 952.003906 598.933594 952.441406 598.488281 952.988281 598.488281 L 1013.109375 598.488281 C 1013.652344 598.488281 1014.09375 598.933594 1014.09375 599.472656 C 1014.09375 600.019531 1013.652344 600.460938 1013.109375 600.460938 " fill-opacity="1" fill-rule="nonzero"/><path fill="#5479f7" d="M 933.824219 600.460938 L 856.929688 600.460938 C 856.386719 600.460938 855.941406 600.019531 855.941406 599.476562 C 855.941406 598.933594 856.386719 598.488281 856.929688 598.488281 L 933.824219 598.488281 C 934.371094 598.488281 934.8125 598.933594 934.8125 599.476562 C 934.8125 600.019531 934.371094 600.460938 933.824219 600.460938 " fill-opacity="1" fill-rule="nonzero"/><path fill="#000000" d="M 1025.089844 624.882812 C 1025.070312 624.882812 1025.046875 624.882812 1025.019531 624.882812 L 843.503906 623.402344 C 841.28125 623.386719 839.191406 622.496094 837.625 620.902344 C 836.050781 619.304688 835.199219 617.199219 835.21875 614.976562 L 835.808594 542.183594 C 835.851562 537.597656 839.589844 533.894531 844.167969 533.894531 C 844.191406 533.894531 844.214844 533.894531 844.238281 533.894531 L 882.273438 534.203125 L 887.949219 534.546875 L 893.59375 510.882812 C 893.679688 510.53125 893.953125 510.25 894.304688 510.15625 C 894.65625 510.066406 895.027344 510.175781 895.277344 510.441406 L 917.453125 534.492188 L 951.691406 534.769531 C 952.234375 534.773438 952.671875 535.21875 952.667969 535.761719 C 952.664062 536.308594 952.226562 536.777344 951.675781 536.742188 L 917.007812 536.457031 C 916.738281 536.457031 916.480469 536.339844 916.296875 536.140625 L 895.082031 513.144531 L 889.679688 535.8125 C 889.566406 536.277344 889.128906 536.59375 888.660156 536.570312 L 882.207031 536.175781 L 844.222656 535.863281 C 840.707031 535.8125 837.808594 538.675781 837.78125 542.199219 L 837.1875 614.992188 C 837.171875 616.691406 837.824219 618.296875 839.027344 619.519531 C 840.226562 620.738281 841.828125 621.417969 843.523438 621.429688 L 1025.039062 622.910156 C 1025.054688 622.910156 1025.074219 622.910156 1025.089844 622.910156 C 1028.585938 622.910156 1031.445312 620.082031 1031.472656 616.578125 L 1032.070312 543.785156 C 1032.097656 540.261719 1029.257812 537.375 1025.738281 537.347656 L 960.28125 536.8125 C 959.734375 536.808594 959.296875 536.363281 959.300781 535.816406 C 959.304688 535.277344 959.777344 534.847656 960.292969 534.839844 L 1025.75 535.375 C 1030.359375 535.410156 1034.078125 539.191406 1034.042969 543.800781 L 1033.445312 616.59375 C 1033.410156 621.179688 1029.664062 624.882812 1025.089844 624.882812 " fill-opacity="1" fill-rule="nonzero"/><path fill="#ffffff" d="M 580.523438 629.167969 L 582.085938 644.070312 L 592.164062 645.253906 L 592.164062 627.582031 L 580.523438 629.167969 " fill-opacity="1" fill-rule="nonzero"/><path fill="#000000" d="M 582.984375 643.183594 L 591.179688 644.144531 L 591.179688 628.710938 L 581.601562 630.015625 Z M 592.164062 646.238281 C 592.125 646.238281 592.089844 646.234375 592.050781 646.234375 L 581.972656 645.050781 C 581.511719 644.996094 581.152344 644.632812 581.105469 644.171875 L 579.542969 629.269531 C 579.484375 628.742188 579.863281 628.261719 580.390625 628.1875 L 592.03125 626.605469 C 592.3125 626.566406 592.597656 626.648438 592.8125 626.835938 C 593.027344 627.023438 593.152344 627.296875 593.152344 627.582031 L 593.152344 645.253906 C 593.152344 645.535156 593.03125 645.800781 592.820312 645.988281 C 592.636719 646.148438 592.40625 646.238281 592.164062 646.238281 " fill-opacity="1" fill-rule="nonzero"/><path fill="#5479f7" d="M 593.75 671.199219 C 589.550781 671.792969 582.664062 672.308594 574.582031 671.191406 C 571.929688 670.824219 570.175781 668.253906 570.8125 665.65625 C 572.59375 658.417969 575.660156 644.695312 580.925781 638.335938 L 582.234375 641.785156 L 584.039062 638.535156 C 584.285156 638.089844 584.730469 637.789062 585.234375 637.726562 L 589.191406 637.226562 C 590.015625 637.121094 590.785156 637.667969 590.957031 638.484375 L 591.585938 641.476562 L 592.964844 637.546875 L 597.570312 666.152344 C 597.890625 668.601562 596.191406 670.855469 593.75 671.199219 " fill-opacity="1" fill-rule="nonzero"/><path fill="#000000" d="M 580.640625 640.367188 C 576.480469 646.535156 573.804688 657.542969 572.152344 664.328125 L 571.769531 665.890625 C 571.53125 666.871094 571.710938 667.863281 572.273438 668.699219 C 572.835938 669.523438 573.722656 670.078125 574.714844 670.214844 C 582.617188 671.308594 589.351562 670.824219 593.613281 670.222656 C 595.507812 669.957031 596.84375 668.191406 596.59375 666.285156 L 592.609375 641.539062 L 592.515625 641.804688 C 592.371094 642.21875 591.960938 642.488281 591.523438 642.460938 C 591.082031 642.429688 590.714844 642.113281 590.621094 641.675781 L 589.992188 638.6875 C 589.929688 638.375 589.628906 638.164062 589.316406 638.203125 L 585.359375 638.703125 C 585.167969 638.730469 584.996094 638.847656 584.902344 639.015625 L 583.09375 642.265625 C 582.90625 642.601562 582.542969 642.792969 582.160156 642.769531 C 581.777344 642.742188 581.445312 642.496094 581.3125 642.132812 Z M 584.222656 672.839844 C 581.261719 672.839844 577.964844 672.65625 574.445312 672.167969 C 572.902344 671.957031 571.515625 671.09375 570.640625 669.804688 C 569.773438 668.523438 569.484375 666.925781 569.855469 665.421875 L 570.238281 663.859375 C 572.0625 656.359375 575.113281 643.808594 580.164062 637.707031 C 580.390625 637.433594 580.738281 637.304688 581.085938 637.363281 C 581.433594 637.417969 581.722656 637.660156 581.847656 637.984375 L 582.402344 639.453125 L 583.175781 638.058594 C 583.574219 637.339844 584.296875 636.851562 585.109375 636.75 L 589.066406 636.246094 C 590.253906 636.09375 591.382812 636.792969 591.804688 637.882812 L 592.035156 637.21875 C 592.1875 636.792969 592.613281 636.527344 593.054688 636.5625 C 593.503906 636.605469 593.867188 636.945312 593.941406 637.390625 L 598.542969 666 C 598.9375 669 596.847656 671.757812 593.886719 672.175781 C 591.402344 672.523438 588.097656 672.839844 584.222656 672.839844 " fill-opacity="1" fill-rule="nonzero"/><path fill="#000000" d="M 582.074219 668.039062 C 579.359375 668.039062 576.421875 667.800781 573.496094 667.136719 C 572.964844 667.011719 572.632812 666.484375 572.753906 665.953125 C 572.875 665.425781 573.402344 665.09375 573.933594 665.210938 C 583.710938 667.441406 593.941406 664.574219 594.042969 664.546875 C 594.566406 664.394531 595.113281 664.699219 595.265625 665.222656 C 595.414062 665.746094 595.109375 666.292969 594.585938 666.441406 C 594.273438 666.53125 588.878906 668.039062 582.074219 668.039062 " fill-opacity="1" fill-rule="nonzero"/><path fill="#000000" d="M 579.671875 656.960938 C 579.140625 656.960938 578.703125 656.539062 578.6875 656.007812 C 578.667969 655.460938 579.09375 655.003906 579.640625 654.988281 L 589.085938 654.675781 C 589.617188 654.632812 590.085938 655.085938 590.105469 655.628906 C 590.121094 656.171875 589.695312 656.628906 589.152344 656.648438 L 579.703125 656.960938 C 579.691406 656.960938 579.683594 656.960938 579.671875 656.960938 " fill-opacity="1" fill-rule="nonzero"/><path fill="#ffffff" d="M 627.722656 621.230469 L 629.234375 642.980469 L 641.359375 642.980469 L 641.921875 621.230469 L 627.722656 621.230469 " fill-opacity="1" fill-rule="nonzero"/><path fill="#000000" d="M 630.152344 641.996094 L 640.398438 641.996094 L 640.910156 622.21875 L 628.78125 622.21875 Z M 641.359375 643.96875 L 629.234375 643.96875 C 628.714844 643.96875 628.285156 643.566406 628.25 643.050781 L 626.738281 621.296875 C 626.722656 621.027344 626.816406 620.757812 627.003906 620.558594 C 627.1875 620.359375 627.449219 620.246094 627.722656 620.246094 L 641.921875 620.246094 C 642.1875 620.246094 642.445312 620.351562 642.628906 620.542969 C 642.8125 620.734375 642.914062 620.988281 642.910156 621.253906 L 642.34375 643.007812 C 642.332031 643.542969 641.894531 643.96875 641.359375 643.96875 " fill-opacity="1" fill-rule="nonzero"/><path fill="#5479f7" d="M 626.066406 655.261719 C 626.035156 657.316406 627.441406 659.121094 629.445312 659.589844 C 636.414062 661.214844 652.117188 664.824219 656.601562 665.492188 C 662.414062 666.359375 669.558594 664.578125 672.628906 661.175781 C 675.703125 657.777344 665.75 649.65625 661.027344 646.699219 C 654.011719 642.3125 647.273438 633.636719 644.449219 633.25 C 641.621094 632.855469 636.347656 641.058594 636.347656 641.058594 L 627.722656 637.433594 C 627.722656 637.433594 626.21875 644.824219 626.066406 655.261719 " fill-opacity="1" fill-rule="nonzero"/><path fill="#000000" d="M 627.050781 655.277344 C 627.027344 656.859375 628.128906 658.269531 629.667969 658.628906 C 636.324219 660.175781 652.285156 663.855469 656.742188 664.519531 C 662.355469 665.351562 669.148438 663.554688 671.898438 660.511719 C 672.070312 660.324219 672.289062 659.992188 672.199219 659.34375 C 671.75 656.132812 665.121094 650.425781 660.503906 647.539062 C 656.921875 645.296875 653.515625 642.066406 650.511719 639.214844 C 648.007812 636.835938 645.414062 634.378906 644.3125 634.226562 C 642.984375 634.023438 639.558594 637.886719 637.175781 641.589844 C 636.914062 641.992188 636.40625 642.152344 635.964844 641.964844 L 628.476562 638.820312 C 628.058594 641.300781 627.167969 647.453125 627.050781 655.277344 Z M 659.625 666.695312 C 658.550781 666.695312 657.488281 666.621094 656.453125 666.46875 C 652.085938 665.816406 637.515625 662.480469 629.222656 660.550781 C 626.785156 659.984375 625.042969 657.75 625.078125 655.246094 C 625.234375 644.839844 626.742188 637.3125 626.757812 637.238281 C 626.816406 636.949219 627 636.703125 627.261719 636.5625 C 627.523438 636.425781 627.832031 636.410156 628.105469 636.527344 L 635.972656 639.832031 C 637.679688 637.285156 641.683594 631.875 644.582031 632.269531 C 646.234375 632.5 648.320312 634.414062 651.867188 637.78125 C 654.804688 640.570312 658.136719 643.730469 661.550781 645.867188 C 664.609375 647.78125 673.488281 654.308594 674.152344 659.070312 C 674.300781 660.140625 674.027344 661.097656 673.359375 661.835938 C 670.695312 664.789062 665.070312 666.695312 659.625 666.695312 " fill-opacity="1" fill-rule="nonzero"/><path fill="#000000" d="M 659.523438 662.691406 C 646.789062 662.691406 629.820312 655.835938 628.859375 655.445312 C 628.355469 655.238281 628.113281 654.664062 628.320312 654.160156 C 628.527344 653.65625 629.101562 653.414062 629.605469 653.621094 C 629.914062 653.746094 660.382812 666.058594 669.226562 658.066406 C 669.632812 657.703125 670.253906 657.734375 670.617188 658.140625 C 670.984375 658.542969 670.953125 659.167969 670.546875 659.53125 C 668 661.832031 664.023438 662.691406 659.523438 662.691406 " fill-opacity="1" fill-rule="nonzero"/><path fill="#000000" d="M 646.078125 649.53125 C 645.808594 649.53125 645.542969 649.421875 645.347656 649.203125 C 644.980469 648.800781 645.015625 648.175781 645.417969 647.8125 L 651.585938 642.25 C 651.992188 641.882812 652.613281 641.914062 652.980469 642.320312 C 653.34375 642.726562 653.3125 643.347656 652.90625 643.710938 L 646.738281 649.277344 C 646.550781 649.449219 646.316406 649.53125 646.078125 649.53125 " fill-opacity="1" fill-rule="nonzero"/><path fill="#000000" d="M 577.085938 479.433594 C 577.085938 479.433594 573.328125 547.429688 571.359375 570.902344 C 569.394531 594.375 575.957031 632.105469 575.957031 632.105469 L 594.675781 631.121094 C 594.675781 631.121094 595.957031 585.246094 597.347656 572.507812 C 597.347656 572.507812 605.253906 555.238281 607.597656 539.832031 C 609.941406 524.429688 617.921875 500.105469 617.921875 500.105469 C 617.921875 500.105469 624.40625 621.535156 625.03125 631.074219 C 625.03125 631.074219 639.707031 631.726562 644.96875 628.417969 C 644.96875 628.417969 654.292969 584.140625 652.953125 560.050781 C 651.617188 535.960938 653.085938 476.101562 653.085938 476.101562 L 577.085938 479.433594 " fill-opacity="1" fill-rule="nonzero"/><path fill="#ffffff" d="M 593.902344 573.488281 L 588.179688 573.488281 C 587.636719 573.488281 587.195312 573.050781 587.195312 572.503906 C 587.195312 571.960938 587.636719 571.519531 588.179688 571.519531 L 593.902344 571.519531 C 594.445312 571.519531 594.886719 571.960938 594.886719 572.503906 C 594.886719 573.050781 594.445312 573.488281 593.902344 573.488281 " fill-opacity="1" fill-rule="nonzero"/><path fill="#ffffff" d="M 634.65625 608.804688 C 634.652344 608.804688 634.644531 608.804688 634.640625 608.804688 C 634.09375 608.796875 633.660156 608.34375 633.671875 607.800781 C 633.878906 596.464844 646.253906 576.25 646.78125 575.394531 C 647.066406 574.929688 647.675781 574.785156 648.140625 575.070312 C 648.601562 575.355469 648.746094 575.960938 648.460938 576.429688 C 648.335938 576.632812 635.839844 597.039062 635.644531 607.839844 C 635.632812 608.378906 635.195312 608.804688 634.65625 608.804688 " fill-opacity="1" fill-rule="nonzero"/><path fill="#ffffff" d="M 659.011719 370.691406 C 660.371094 370.582031 667.0625 384.28125 687.992188 383.707031 C 708.921875 383.132812 725.714844 359.710938 725.714844 359.710938 C 725.714844 359.710938 732.941406 347.519531 738.429688 343.113281 C 743.914062 338.707031 744.773438 338.125 744.773438 338.125 C 744.773438 338.125 746.496094 340.417969 744.773438 343.113281 C 743.054688 345.808594 738.308594 350.855469 738.308594 350.855469 C 738.308594 350.855469 743.535156 353.726562 741.179688 359.710938 C 738.464844 366.589844 730.816406 366.039062 730.816406 366.039062 C 730.816406 366.039062 715.300781 434.746094 651.164062 402.097656 L 659.011719 370.691406 " fill-opacity="1" fill-rule="nonzero"/><path fill="#000000" d="M 652.3125 401.574219 C 670.886719 410.863281 687.0625 412.398438 700.40625 406.132812 C 722.902344 395.570312 729.789062 366.117188 729.855469 365.820312 C 729.964844 365.34375 730.398438 365.011719 730.886719 365.054688 C 731.171875 365.078125 737.855469 365.453125 740.261719 359.347656 C 742.265625 354.273438 738.011719 351.820312 737.828125 351.71875 C 737.5625 351.570312 737.378906 351.308594 737.332031 351.007812 C 737.289062 350.707031 737.378906 350.402344 737.589844 350.179688 C 737.632812 350.128906 742.292969 345.171875 743.941406 342.582031 C 744.6875 341.410156 744.617188 340.347656 744.410156 339.632812 C 743.554688 340.292969 741.957031 341.542969 739.046875 343.882812 C 733.761719 348.128906 726.632812 360.09375 726.5625 360.214844 C 726.546875 360.238281 726.53125 360.261719 726.515625 360.285156 C 725.816406 361.257812 709.195312 384.113281 688.019531 384.691406 C 670.957031 385.160156 663.199219 376.503906 659.882812 372.804688 C 659.785156 372.695312 659.683594 372.582031 659.582031 372.46875 Z M 682.96875 411.886719 C 673.164062 411.886719 662.378906 408.914062 650.71875 402.976562 C 650.308594 402.769531 650.097656 402.300781 650.210938 401.859375 L 658.054688 370.449219 C 658.15625 370.039062 658.511719 369.738281 658.933594 369.707031 C 659.695312 369.644531 660.21875 370.222656 661.351562 371.488281 C 664.484375 374.984375 671.832031 383.167969 687.964844 382.722656 C 707.824219 382.175781 724.171875 360.148438 724.886719 359.167969 C 725.429688 358.265625 732.355469 346.730469 737.808594 342.34375 C 743.265625 337.960938 744.183594 337.332031 744.222656 337.308594 C 744.65625 337.015625 745.246094 337.113281 745.5625 337.53125 C 745.648438 337.648438 747.667969 340.40625 745.609375 343.644531 C 744.269531 345.742188 741.246094 349.121094 739.804688 350.6875 C 741.757812 352.273438 743.886719 355.527344 742.09375 360.074219 C 739.707031 366.128906 733.789062 366.933594 731.585938 367.019531 C 730.308594 371.832031 722.519531 397.933594 701.246094 407.917969 C 695.609375 410.566406 689.507812 411.886719 682.96875 411.886719 " fill-opacity="1" fill-rule="nonzero"/><path fill="#5479f7" d="M 555.273438 402.097656 C 555.273438 402.097656 561.554688 361.554688 583.746094 351.578125 C 605.9375 341.601562 635.957031 342.992188 644.238281 347.972656 C 652.515625 352.957031 674.09375 375.476562 674.09375 375.476562 L 655.023438 402.097656 C 655.023438 402.097656 659.382812 473.753906 655.9375 492.675781 C 655.9375 492.675781 634.726562 495.148438 625.730469 491.605469 C 616.734375 488.0625 587.152344 483.097656 573.015625 489.59375 L 575.582031 398.871094 L 555.273438 402.097656 " fill-opacity="1" fill-rule="nonzero"/><path fill="#000000" d="M 592.226562 485.445312 C 605.710938 485.445312 620.257812 488.390625 626.089844 490.6875 C 633.828125 493.734375 651.300781 492.164062 655.089844 491.773438 C 658.246094 472.136719 654.082031 402.863281 654.039062 402.15625 C 654.027344 401.929688 654.089844 401.707031 654.222656 401.523438 L 672.8125 375.570312 C 669.351562 371.992188 651.058594 353.230469 643.726562 348.816406 C 636.003906 344.167969 606.234375 342.550781 584.152344 352.476562 C 564.953125 361.105469 557.816406 393.851562 556.488281 400.90625 L 575.429688 397.894531 C 575.71875 397.847656 576.015625 397.933594 576.234375 398.128906 C 576.453125 398.320312 576.578125 398.605469 576.570312 398.898438 L 574.042969 488.09375 C 579.027344 486.179688 585.496094 485.445312 592.226562 485.445312 Z M 640.988281 494.507812 C 635.304688 494.507812 629.277344 494.0625 625.367188 492.523438 C 616.097656 488.871094 586.859375 484.316406 573.425781 490.488281 C 573.117188 490.632812 572.753906 490.605469 572.46875 490.417969 C 572.183594 490.230469 572.019531 489.90625 572.027344 489.566406 L 574.5625 400.027344 L 555.429688 403.070312 C 555.117188 403.121094 554.800781 403.019531 554.578125 402.792969 C 554.355469 402.574219 554.253906 402.257812 554.300781 401.945312 C 554.5625 400.269531 560.921875 360.757812 583.34375 350.679688 C 605.324219 340.796875 635.746094 341.714844 644.746094 347.125 C 653.039062 352.121094 673.917969 373.871094 674.804688 374.792969 C 675.132812 375.136719 675.167969 375.664062 674.894531 376.050781 L 656.03125 402.386719 C 656.394531 408.441406 660.25 474.507812 656.90625 492.851562 C 656.828125 493.277344 656.480469 493.601562 656.050781 493.652344 C 655.550781 493.710938 648.574219 494.507812 640.988281 494.507812 " fill-opacity="1" fill-rule="nonzero"/><path fill="#000000" d="M 592.503906 471.882812 C 592.035156 471.882812 591.617188 471.546875 591.535156 471.066406 C 591.441406 470.53125 591.796875 470.019531 592.335938 469.925781 C 625.871094 463.996094 635.59375 440.863281 635.6875 440.632812 C 635.890625 440.128906 636.464844 439.882812 636.96875 440.085938 C 637.476562 440.292969 637.71875 440.867188 637.515625 441.371094 C 637.417969 441.613281 627.277344 465.75 592.679688 471.867188 C 592.621094 471.878906 592.5625 471.882812 592.503906 471.882812 " fill-opacity="1" fill-rule="nonzero"/><path fill="#000000" d="M 653.417969 430.4375 L 610.238281 430.4375 L 623.761719 382.199219 L 666.945312 382.199219 L 653.417969 430.4375 " fill-opacity="1" fill-rule="nonzero"/><path fill="#ffffff" d="M 559.082031 402.253906 L 580.9375 392.484375 C 580.9375 392.484375 577.859375 429.515625 622.074219 412.414062 C 622.074219 412.414062 620.441406 407.65625 620.671875 402.097656 C 620.902344 396.539062 624.230469 401.917969 624.695312 406.433594 C 625.160156 410.953125 635.539062 409.121094 641.777344 407.339844 C 648.015625 405.558594 656.207031 406.722656 641.777344 414.683594 C 627.351562 422.640625 624.191406 419.089844 624.191406 419.089844 C 624.191406 419.089844 605.765625 444.871094 582.84375 439.394531 C 554.648438 432.660156 559.082031 402.253906 559.082031 402.253906 " fill-opacity="1" fill-rule="nonzero"/><path fill="#000000" d="M 559.996094 402.925781 C 559.808594 404.773438 559.367188 411.1875 561.355469 418.089844 C 564.46875 428.890625 571.777344 435.734375 583.074219 438.433594 C 585.171875 438.9375 587.234375 439.164062 589.25 439.164062 C 608.371094 439.167969 623.226562 418.742188 623.390625 418.515625 C 623.5625 418.273438 623.839844 418.121094 624.136719 418.105469 C 624.441406 418.089844 624.726562 418.210938 624.925781 418.433594 C 624.933594 418.433594 628.164062 421.066406 641.300781 413.820312 C 648.941406 409.601562 648.828125 408.058594 648.824219 408.042969 C 648.527344 407.558594 645.648438 407.261719 642.050781 408.285156 C 639.078125 409.132812 629.097656 411.695312 625.28125 409.117188 C 624.367188 408.496094 623.824219 407.601562 623.714844 406.535156 C 623.472656 404.183594 622.449219 401.886719 621.777344 401.019531 C 621.726562 401.261719 621.679688 401.617188 621.660156 402.136719 C 621.4375 407.453125 622.988281 412.046875 623.007812 412.097656 C 623.175781 412.597656 622.921875 413.144531 622.429688 413.335938 C 607.175781 419.230469 595.714844 419.433594 588.367188 413.933594 C 580.667969 408.179688 579.890625 397.992188 579.898438 394.027344 Z M 589.234375 441.136719 C 587.078125 441.136719 584.867188 440.890625 582.617188 440.355469 C 553.875 433.484375 558.0625 402.425781 558.105469 402.109375 C 558.15625 401.777344 558.371094 401.488281 558.679688 401.351562 L 580.535156 391.582031 C 580.851562 391.4375 581.222656 391.476562 581.503906 391.679688 C 581.789062 391.878906 581.949219 392.21875 581.917969 392.566406 C 581.90625 392.695312 580.933594 405.921875 589.558594 412.363281 C 596.195312 417.320312 606.722656 417.140625 620.863281 411.820312 C 620.390625 410.140625 619.511719 406.351562 619.6875 402.054688 C 619.722656 401.25 619.824219 398.796875 621.527344 398.742188 C 621.542969 398.742188 621.558594 398.742188 621.570312 398.742188 C 623.753906 398.742188 625.402344 403.667969 625.675781 406.332031 C 625.726562 406.824219 625.953125 407.1875 626.386719 407.484375 C 628.699219 409.046875 635.648438 408.0625 641.507812 406.390625 C 644.222656 405.617188 649.625 404.808594 650.652344 407.300781 C 651.492188 409.335938 648.902344 411.878906 642.253906 415.546875 C 631.152344 421.667969 626.308594 421.179688 624.441406 420.390625 C 621.515625 424.144531 607.265625 441.136719 589.234375 441.136719 " fill-opacity="1" fill-rule="nonzero"/><path fill="#000000" d="M 617.414062 333.101562 C 615.527344 334.832031 611.835938 336.941406 608.949219 335.484375 C 606.796875 334.402344 605.597656 331.597656 605.671875 328.382812 C 604.675781 328.460938 603.371094 328.394531 602.4375 327.570312 C 601.003906 326.300781 601.273438 323.96875 601.328125 322.4375 C 601.589844 315.367188 597.480469 314.277344 598.484375 309.476562 C 599.273438 305.703125 602.238281 303.457031 602.792969 303.035156 C 605.589844 300.914062 607.484375 301.597656 612.1875 300.367188 C 620.105469 298.292969 620.355469 294.882812 625.570312 294.867188 C 625.871094 294.867188 632.96875 294.941406 635.378906 299.847656 C 637.335938 303.832031 635.050781 308.679688 632.683594 311.226562 C 629.621094 314.523438 627.421875 312.894531 624.34375 315.664062 C 618.949219 320.515625 623.023438 327.964844 617.414062 333.101562 " fill-opacity="1" fill-rule="nonzero"/><path fill="#ffffff" d="M 633.210938 320.476562 L 632.902344 320.210938 C 631.335938 318.859375 629.703125 317.292969 629.289062 315.265625 C 627.519531 306.65625 619.632812 303.53125 619.269531 311.433594 C 619.175781 313.429688 611.890625 313.328125 612.753906 315.421875 C 615.007812 320.882812 615.058594 319.414062 611.878906 321.425781 C 611.515625 321.441406 611.160156 321.519531 610.820312 321.679688 C 609.191406 322.4375 608.613281 324.652344 609.53125 326.625 C 610.089844 327.824219 611.070312 328.644531 612.121094 328.945312 L 612.121094 337.570312 C 612.121094 340.804688 610.164062 343.71875 607.171875 344.941406 L 604.257812 346.132812 C 604.257812 346.132812 617.84375 355 631.628906 345.265625 L 629.789062 344.4375 C 626.546875 342.984375 624.421875 339.8125 624.308594 336.261719 L 624.292969 334.574219 C 625.222656 334.65625 626.121094 334.59375 626.949219 334.351562 C 630.804688 333.230469 632.085938 328.789062 631.429688 323.261719 L 633 322.421875 C 633.730469 322.027344 633.84375 321.019531 633.210938 320.476562 " fill-opacity="1" fill-rule="nonzero"/><path fill="#000000" d="M 606.539062 346.265625 C 610.332031 348.117188 619.71875 351.460938 629.585938 345.429688 L 629.386719 345.339844 C 625.824219 343.742188 623.445312 340.191406 623.324219 336.292969 L 623.308594 334.582031 C 623.304688 334.304688 623.421875 334.042969 623.625 333.851562 C 623.828125 333.664062 624.105469 333.566406 624.378906 333.59375 C 625.222656 333.664062 625.992188 333.601562 626.671875 333.40625 C 631.007812 332.144531 630.757812 325.976562 630.449219 323.378906 C 630.402344 322.976562 630.605469 322.585938 630.964844 322.394531 L 632.53125 321.554688 C 632.609375 321.511719 632.628906 321.445312 632.636719 321.398438 C 632.640625 321.351562 632.632812 321.28125 632.566406 321.226562 L 632.257812 320.953125 C 630.605469 319.535156 628.804688 317.816406 628.324219 315.464844 C 627.273438 310.359375 624.078125 307.726562 622.273438 307.878906 C 620.59375 308.011719 620.300781 310.441406 620.253906 311.484375 C 620.175781 313.148438 618.125 313.722656 616.140625 314.28125 C 615.359375 314.5 614.097656 314.851562 613.710938 315.15625 C 614.019531 315.894531 614.28125 316.496094 614.496094 316.996094 C 615.574219 319.480469 615.9375 320.320312 613.738281 321.492188 C 613.382812 321.683594 612.941406 321.921875 612.40625 322.257812 C 612.257812 322.351562 612.089844 322.402344 611.917969 322.410156 C 611.671875 322.421875 611.441406 322.472656 611.238281 322.570312 C 610.101562 323.097656 609.738281 324.730469 610.425781 326.207031 C 610.839844 327.09375 611.574219 327.761719 612.390625 328 C 612.816406 328.117188 613.109375 328.503906 613.109375 328.945312 L 613.109375 337.570312 C 613.109375 341.222656 610.925781 344.476562 607.546875 345.855469 Z M 617.699219 350.78125 C 609.71875 350.78125 603.8125 347.019531 603.71875 346.957031 C 603.414062 346.757812 603.242188 346.40625 603.277344 346.039062 C 603.3125 345.675781 603.546875 345.359375 603.886719 345.21875 L 606.800781 344.027344 C 609.433594 342.953125 611.136719 340.417969 611.136719 337.570312 L 611.136719 329.621094 C 610.070312 329.117188 609.183594 328.207031 608.636719 327.042969 C 607.492188 324.582031 608.285156 321.773438 610.40625 320.785156 C 610.765625 320.613281 611.152344 320.507812 611.558594 320.464844 C 612.058594 320.15625 612.472656 319.9375 612.808594 319.753906 C 613.007812 319.648438 613.226562 319.535156 613.355469 319.449219 C 613.273438 319.132812 612.988281 318.476562 612.6875 317.785156 C 612.457031 317.246094 612.171875 316.59375 611.84375 315.800781 C 611.640625 315.304688 611.648438 314.804688 611.871094 314.351562 C 612.390625 313.28125 613.882812 312.867188 615.609375 312.378906 C 616.453125 312.144531 618.011719 311.707031 618.285156 311.34375 C 618.523438 306.566406 621.277344 305.980469 622.117188 305.914062 C 625.074219 305.683594 629.03125 309.117188 630.253906 315.066406 C 630.613281 316.8125 632.140625 318.25 633.542969 319.460938 L 633.855469 319.734375 C 634.398438 320.199219 634.675781 320.902344 634.597656 321.613281 C 634.519531 322.324219 634.097656 322.949219 633.464844 323.289062 L 632.480469 323.820312 C 633.050781 329.988281 631.152344 334.15625 627.222656 335.300781 C 626.617188 335.476562 625.96875 335.570312 625.289062 335.59375 L 625.296875 336.25 C 625.394531 339.378906 627.316406 342.25 630.191406 343.539062 L 632.03125 344.363281 C 632.355469 344.511719 632.574219 344.816406 632.609375 345.167969 C 632.644531 345.519531 632.488281 345.867188 632.195312 346.070312 C 627.152344 349.628906 622.109375 350.78125 617.699219 350.78125 " fill-opacity="1" fill-rule="nonzero"/><path fill="#000000" d="M 624.296875 335.558594 C 624.246094 335.558594 624.195312 335.558594 624.144531 335.546875 C 618.390625 334.667969 615.792969 330.257812 615.6875 330.070312 C 615.414062 329.597656 615.578125 328.992188 616.046875 328.722656 C 616.519531 328.453125 617.121094 328.613281 617.394531 329.082031 C 617.429688 329.140625 619.667969 332.867188 624.441406 333.601562 C 624.980469 333.683594 625.351562 334.1875 625.269531 334.722656 C 625.195312 335.210938 624.773438 335.558594 624.296875 335.558594 " fill-opacity="1" fill-rule="nonzero"/></svg>