<svg xmlns="http://www.w3.org/2000/svg" xmlns:xlink="http://www.w3.org/1999/xlink" width="1920" zoomAndPan="magnify" viewBox="0 0 1440 809.999993" height="1080" preserveAspectRatio="xMidYMid meet" version="1.0"><defs><filter x="0%" y="0%" width="100%" height="100%" id="45e07fb731"><feColorMatrix values="0 0 0 0 1 0 0 0 0 1 0 0 0 0 1 0 0 0 1 0" color-interpolation-filters="sRGB"/></filter><mask id="753e89e198"><g filter="url(#45e07fb731)"><rect x="-144" width="1728" fill="#000000" y="-80.999999" height="971.999992" fill-opacity="0.12"/></g></mask><clipPath id="be2f4578b7"><path d="M 541 10 L 543 10 L 543 384 L 541 384 Z M 541 10 " clip-rule="nonzero"/></clipPath><clipPath id="2c96388843"><path d="M 455 3.277344 L 543 3.277344 L 543 470 L 455 470 Z M 455 3.277344 " clip-rule="nonzero"/></clipPath><clipPath id="92901a9b29"><path d="M 383 5 L 543 5 L 543 542 L 383 542 Z M 383 5 " clip-rule="nonzero"/></clipPath><clipPath id="3ff2d2ab0b"><path d="M 320 17 L 543 17 L 543 577 L 320 577 Z M 320 17 " clip-rule="nonzero"/></clipPath><clipPath id="75366e76c1"><path d="M 263 36 L 543 36 L 543 577 L 263 577 Z M 263 36 " clip-rule="nonzero"/></clipPath><clipPath id="c7385df157"><path d="M 213 61 L 543 61 L 543 577 L 213 577 Z M 213 61 " clip-rule="nonzero"/></clipPath><clipPath id="1c090f71b9"><path d="M 167 92 L 543 92 L 543 577 L 167 577 Z M 167 92 " clip-rule="nonzero"/></clipPath><clipPath id="8cfdb0df3c"><path d="M 127 128 L 543 128 L 543 577 L 127 577 Z M 127 128 " clip-rule="nonzero"/></clipPath><clipPath id="1faf4b03d3"><path d="M 91 168 L 543 168 L 543 577 L 91 577 Z M 91 168 " clip-rule="nonzero"/></clipPath><clipPath id="bf92ab55f3"><path d="M 60 214 L 543 214 L 543 577 L 60 577 Z M 60 214 " clip-rule="nonzero"/></clipPath><clipPath id="b0d9210786"><path d="M 35 264 L 543 264 L 543 577 L 35 577 Z M 35 264 " clip-rule="nonzero"/></clipPath><clipPath id="06df3d806b"><path d="M 16 321 L 543 321 L 543 577 L 16 577 Z M 16 321 " clip-rule="nonzero"/></clipPath><clipPath id="dc15de8caf"><path d="M 4 384 L 541 384 L 541 577 L 4 577 Z M 4 384 " clip-rule="nonzero"/></clipPath><clipPath id="f9b4da353f"><path d="M 2.273438 456 L 469 456 L 469 577 L 2.273438 577 Z M 2.273438 456 " clip-rule="nonzero"/></clipPath><clipPath id="f1249b4c8e"><path d="M 9 541 L 383 541 L 383 577 L 9 577 Z M 9 541 " clip-rule="nonzero"/></clipPath><clipPath id="819c865ac0"><rect x="0" width="543" y="0" height="577"/></clipPath><clipPath id="938235e244"><path d="M 1072 555 L 1403.175781 555 L 1403.175781 798 L 1072 798 Z M 1072 555 " clip-rule="nonzero"/></clipPath><clipPath id="57df10f9e9"><path d="M 799.789062 357.015625 L 1395.84375 357.015625 L 1395.84375 810 L 799.789062 810 Z M 799.789062 357.015625 " clip-rule="nonzero"/></clipPath><clipPath id="8cc33e0b32"><path d="M 0 720.472656 L 138 720.472656 L 138 810 L 0 810 Z M 0 720.472656 " clip-rule="nonzero"/></clipPath><clipPath id="e81bee6532"><path d="M 0 720.472656 C -75.917969 720.472656 -137.457031 775.519531 -137.457031 843.425781 C -137.457031 911.328125 -75.917969 966.375 0 966.375 C 75.917969 966.375 137.457031 911.328125 137.457031 843.425781 C 137.457031 775.519531 75.917969 720.472656 0 720.472656 Z M 0 720.472656 " clip-rule="nonzero"/></clipPath><clipPath id="70923b435a"><path d="M 1209.460938 0 L 1440 0 L 1440 155.945312 L 1209.460938 155.945312 Z M 1209.460938 0 " clip-rule="nonzero"/></clipPath><clipPath id="3fdbb18860"><path d="M 1402.527344 -230.191406 C 1295.898438 -230.191406 1209.460938 -143.75 1209.460938 -37.125 C 1209.460938 69.503906 1295.898438 155.945312 1402.527344 155.945312 C 1509.15625 155.945312 1595.59375 69.503906 1595.59375 -37.125 C 1595.59375 -143.75 1509.15625 -230.191406 1402.527344 -230.191406 Z M 1402.527344 -230.191406 " clip-rule="nonzero"/></clipPath><clipPath id="5bc7cf0291"><path d="M 1209.460938 40.984375 L 1373.882812 40.984375 L 1373.882812 205.40625 L 1209.460938 205.40625 Z M 1209.460938 40.984375 " clip-rule="nonzero"/></clipPath><clipPath id="7457f840da"><path d="M 1291.671875 40.984375 C 1246.269531 40.984375 1209.460938 77.789062 1209.460938 123.195312 C 1209.460938 168.597656 1246.269531 205.40625 1291.671875 205.40625 C 1337.074219 205.40625 1373.882812 168.597656 1373.882812 123.195312 C 1373.882812 77.789062 1337.074219 40.984375 1291.671875 40.984375 Z M 1291.671875 40.984375 " clip-rule="nonzero"/></clipPath></defs><rect x="-144" width="1728" fill="#ffffff" y="-80.999999" height="971.999992" fill-opacity="1"/><rect x="-144" width="1728" fill="#ffffff" y="-80.999999" height="971.999992" fill-opacity="1"/><path fill="#193658" d="M 277.496094 436.6875 C 279.613281 436.6875 281.730469 436.738281 283.84375 436.84375 C 285.957031 436.945312 288.066406 437.101562 290.175781 437.308594 C 292.28125 437.515625 294.382812 437.777344 296.476562 438.085938 C 298.570312 438.398438 300.652344 438.757812 302.730469 439.171875 C 304.804688 439.585938 306.871094 440.050781 308.921875 440.5625 C 310.976562 441.078125 313.015625 441.640625 315.042969 442.257812 C 317.066406 442.871094 319.078125 443.535156 321.070312 444.246094 C 323.0625 444.960938 325.039062 445.722656 326.992188 446.53125 C 328.949219 447.34375 330.882812 448.199219 332.796875 449.105469 C 334.710938 450.011719 336.601562 450.960938 338.46875 451.960938 C 340.332031 452.957031 342.175781 454 343.992188 455.089844 C 345.804688 456.175781 347.59375 457.308594 349.355469 458.484375 C 351.113281 459.660156 352.84375 460.878906 354.542969 462.140625 C 356.246094 463.402344 357.914062 464.703125 359.550781 466.046875 C 361.183594 467.386719 362.789062 468.769531 364.355469 470.191406 C 365.925781 471.613281 367.457031 473.074219 368.953125 474.570312 C 370.449219 476.066406 371.910156 477.597656 373.332031 479.167969 C 374.753906 480.734375 376.132812 482.339844 377.476562 483.972656 C 378.820312 485.609375 380.121094 487.277344 381.382812 488.980469 C 382.644531 490.679688 383.863281 492.410156 385.039062 494.167969 C 386.214844 495.929688 387.347656 497.71875 388.433594 499.53125 C 389.523438 501.347656 390.566406 503.191406 391.5625 505.054688 C 392.5625 506.921875 393.511719 508.8125 394.417969 510.726562 C 395.324219 512.640625 396.179688 514.574219 396.992188 516.53125 C 397.800781 518.484375 398.5625 520.460938 399.277344 522.453125 C 399.988281 524.445312 400.652344 526.457031 401.265625 528.480469 C 401.882812 530.507812 402.445312 532.546875 402.960938 534.601562 C 403.472656 536.652344 403.9375 538.71875 404.351562 540.792969 C 404.765625 542.871094 405.125 544.953125 405.4375 547.046875 C 405.746094 549.140625 406.007812 551.242188 406.214844 553.347656 C 406.421875 555.457031 406.578125 557.566406 406.679688 559.679688 C 406.785156 561.792969 406.835938 563.910156 406.835938 566.027344 C 406.835938 568.144531 406.785156 570.257812 406.679688 572.371094 C 406.578125 574.488281 406.421875 576.597656 406.214844 578.703125 C 406.007812 580.8125 405.746094 582.910156 405.4375 585.003906 C 405.125 587.097656 404.765625 589.183594 404.351562 591.257812 C 403.9375 593.335938 403.472656 595.398438 402.960938 597.453125 C 402.445312 599.507812 401.882812 601.546875 401.265625 603.570312 C 400.652344 605.597656 399.988281 607.605469 399.277344 609.601562 C 398.5625 611.59375 397.800781 613.566406 396.992188 615.523438 C 396.179688 617.476562 395.324219 619.414062 394.417969 621.328125 C 393.511719 623.238281 392.5625 625.128906 391.5625 626.996094 C 390.566406 628.863281 389.523438 630.703125 388.433594 632.519531 C 387.347656 634.335938 386.214844 636.125 385.039062 637.882812 C 383.863281 639.644531 382.644531 641.375 381.382812 643.074219 C 380.121094 644.773438 378.820312 646.441406 377.476562 648.078125 C 376.132812 649.714844 374.753906 651.316406 373.332031 652.886719 C 371.910156 654.453125 370.449219 655.988281 368.953125 657.484375 C 367.457031 658.980469 365.925781 660.4375 364.355469 661.859375 C 362.789062 663.28125 361.183594 664.664062 359.550781 666.007812 C 357.914062 667.351562 356.246094 668.652344 354.542969 669.914062 C 352.84375 671.175781 351.113281 672.390625 349.355469 673.570312 C 347.59375 674.746094 345.804688 675.875 343.992188 676.964844 C 342.175781 678.054688 340.332031 679.097656 338.46875 680.09375 C 336.601562 681.089844 334.710938 682.042969 332.796875 682.949219 C 330.882812 683.851562 328.949219 684.710938 326.992188 685.519531 C 325.039062 686.332031 323.0625 687.09375 321.070312 687.804688 C 319.078125 688.519531 317.066406 689.183594 315.042969 689.796875 C 313.015625 690.410156 310.976562 690.976562 308.921875 691.488281 C 306.871094 692.003906 304.804688 692.46875 302.730469 692.882812 C 300.652344 693.292969 298.570312 693.65625 296.476562 693.964844 C 294.382812 694.277344 292.28125 694.535156 290.175781 694.742188 C 288.066406 694.949219 285.957031 695.105469 283.84375 695.210938 C 281.730469 695.3125 279.613281 695.367188 277.496094 695.367188 Z M 277.496094 436.6875 " fill-opacity="1" fill-rule="nonzero"/><path fill="#75adf9" d="M 277.496094 695.367188 C 273.261719 695.367188 269.035156 695.160156 264.820312 694.742188 C 260.605469 694.328125 256.417969 693.707031 252.265625 692.882812 C 248.109375 692.054688 244.003906 691.027344 239.953125 689.796875 C 235.898438 688.566406 231.914062 687.140625 228 685.519531 C 224.085938 683.898438 220.261719 682.089844 216.527344 680.09375 C 212.789062 678.097656 209.160156 675.921875 205.640625 673.570312 C 202.117188 671.214844 198.71875 668.695312 195.445312 666.007812 C 192.171875 663.320312 189.035156 660.480469 186.039062 657.484375 L 277.496094 566.027344 Z M 277.496094 695.367188 " fill-opacity="1" fill-rule="nonzero"/><path fill="#193658" d="M 186.039062 657.484375 C 183.042969 654.488281 180.203125 651.351562 177.515625 648.078125 C 174.828125 644.804688 172.308594 641.40625 169.953125 637.882812 C 167.601562 634.363281 165.425781 630.734375 163.429688 626.996094 C 161.433594 623.261719 159.625 619.4375 158.003906 615.523438 C 156.382812 611.609375 154.957031 607.625 153.726562 603.570312 C 152.496094 599.519531 151.46875 595.414062 150.640625 591.257812 C 149.816406 587.105469 149.195312 582.917969 148.78125 578.703125 C 148.363281 574.488281 148.15625 570.261719 148.15625 566.027344 L 277.496094 566.027344 Z M 186.039062 657.484375 " fill-opacity="1" fill-rule="nonzero"/><path fill="#3b6fb7" d="M 148.15625 566.027344 C 148.15625 561.789062 148.363281 557.566406 148.78125 553.347656 C 149.195312 549.132812 149.816406 544.949219 150.640625 540.792969 C 151.46875 536.640625 152.496094 532.535156 153.726562 528.480469 C 154.957031 524.425781 156.382812 520.445312 158.003906 516.53125 C 159.625 512.617188 161.433594 508.792969 163.429688 505.054688 C 165.425781 501.320312 167.601562 497.691406 169.953125 494.167969 C 172.308594 490.648438 174.828125 487.25 177.515625 483.972656 C 180.203125 480.699219 183.042969 477.566406 186.039062 474.570312 L 277.496094 566.027344 Z M 148.15625 566.027344 " fill-opacity="1" fill-rule="nonzero"/><path fill="#193658" d="M 186.039062 474.570312 C 189.035156 471.574219 192.167969 468.734375 195.441406 466.046875 C 198.71875 463.359375 202.113281 460.839844 205.636719 458.488281 C 209.160156 456.132812 212.785156 453.957031 216.523438 451.960938 C 220.257812 449.964844 224.082031 448.15625 227.996094 446.535156 C 231.90625 444.914062 235.890625 443.488281 239.945312 442.257812 C 243.996094 441.027344 248.101562 440 252.253906 439.175781 C 256.410156 438.347656 260.59375 437.726562 264.808594 437.3125 C 269.023438 436.894531 273.25 436.6875 277.484375 436.6875 L 277.496094 566.027344 Z M 186.039062 474.570312 " fill-opacity="1" fill-rule="nonzero"/><path fill="#193658" d="M 641.972656 442.523438 C 646.210938 442.523438 650.4375 442.730469 654.652344 443.144531 C 658.867188 443.558594 663.054688 444.179688 667.207031 445.007812 C 671.363281 445.832031 675.464844 446.859375 679.519531 448.089844 C 683.574219 449.320312 687.558594 450.746094 691.46875 452.367188 C 695.382812 453.988281 699.207031 455.796875 702.945312 457.792969 C 706.679688 459.789062 710.308594 461.964844 713.832031 464.320312 C 717.355469 466.671875 720.753906 469.191406 724.027344 471.878906 C 727.300781 474.566406 730.4375 477.410156 733.429688 480.402344 L 641.972656 571.859375 Z M 641.972656 442.523438 " fill-opacity="1" fill-rule="nonzero"/><path fill="#75adf9" d="M 733.429688 480.402344 C 736.425781 483.398438 739.269531 486.535156 741.957031 489.808594 C 744.644531 493.082031 747.164062 496.480469 749.515625 500.003906 C 751.871094 503.527344 754.046875 507.15625 756.042969 510.890625 C 758.039062 514.625 759.847656 518.453125 761.46875 522.363281 C 763.089844 526.277344 764.515625 530.261719 765.746094 534.316406 C 766.972656 538.371094 768.003906 542.472656 768.828125 546.628906 C 769.65625 550.78125 770.277344 554.96875 770.691406 559.183594 C 771.105469 563.398438 771.3125 567.625 771.3125 571.859375 L 641.972656 571.859375 Z M 733.429688 480.402344 " fill-opacity="1" fill-rule="nonzero"/><path fill="#5388d0" d="M 771.3125 571.859375 C 771.3125 576.097656 771.105469 580.324219 770.691406 584.539062 C 770.277344 588.753906 769.65625 592.9375 768.828125 597.09375 C 768.003906 601.25 766.972656 605.351562 765.746094 609.40625 C 764.515625 613.460938 763.089844 617.445312 761.46875 621.355469 C 759.847656 625.269531 758.039062 629.09375 756.042969 632.832031 C 754.046875 636.566406 751.871094 640.195312 749.515625 643.71875 C 747.164062 647.242188 744.644531 650.640625 741.957031 653.914062 C 739.269531 657.1875 736.425781 660.324219 733.429688 663.316406 L 641.972656 571.859375 Z M 771.3125 571.859375 " fill-opacity="1" fill-rule="nonzero"/><path fill="#3b6fb7" d="M 733.429688 663.316406 C 730.4375 666.3125 727.300781 669.15625 724.027344 671.84375 C 720.753906 674.53125 717.355469 677.050781 713.832031 679.402344 C 710.308594 681.757812 706.679688 683.933594 702.945312 685.929688 C 699.207031 687.925781 695.382812 689.734375 691.46875 691.355469 C 687.558594 692.976562 683.574219 694.402344 679.519531 695.632812 C 675.464844 696.859375 671.363281 697.890625 667.207031 698.714844 C 663.054688 699.542969 658.867188 700.164062 654.652344 700.578125 C 650.4375 700.992188 646.210938 701.199219 641.972656 701.199219 L 641.972656 571.859375 Z M 733.429688 663.316406 " fill-opacity="1" fill-rule="nonzero"/><path fill="#193658" d="M 641.972656 701.199219 C 639.859375 701.199219 637.742188 701.148438 635.628906 701.046875 C 633.515625 700.941406 631.402344 700.785156 629.296875 700.578125 C 627.191406 700.371094 625.089844 700.113281 622.996094 699.800781 C 620.902344 699.492188 618.816406 699.128906 616.742188 698.71875 C 614.664062 698.304688 612.601562 697.839844 610.546875 697.328125 C 608.492188 696.8125 606.453125 696.246094 604.429688 695.632812 C 602.402344 695.019531 600.394531 694.355469 598.402344 693.640625 C 596.40625 692.929688 594.433594 692.167969 592.476562 691.359375 C 590.523438 690.546875 588.585938 689.691406 586.675781 688.785156 C 584.761719 687.878906 582.871094 686.929688 581.003906 685.929688 C 579.136719 684.933594 577.296875 683.890625 575.480469 682.804688 C 573.664062 681.714844 571.875 680.582031 570.117188 679.40625 C 568.355469 678.230469 566.625 677.011719 564.925781 675.75 C 563.226562 674.492188 561.558594 673.1875 559.921875 671.847656 C 558.285156 670.503906 556.683594 669.121094 555.113281 667.699219 C 553.546875 666.277344 552.011719 664.820312 550.515625 663.324219 C 549.019531 661.824219 547.558594 660.292969 546.136719 658.726562 C 544.714844 657.15625 543.335938 655.554688 541.992188 653.917969 C 540.648438 652.28125 539.347656 650.613281 538.085938 648.914062 C 536.824219 647.214844 535.605469 645.484375 534.429688 643.722656 C 533.253906 641.964844 532.121094 640.175781 531.03125 638.359375 C 529.945312 636.546875 528.902344 634.703125 527.902344 632.835938 C 526.90625 630.96875 525.953125 629.082031 525.050781 627.167969 C 524.144531 625.253906 523.285156 623.320312 522.476562 621.363281 C 521.667969 619.40625 520.90625 617.433594 520.191406 615.441406 C 519.476562 613.449219 518.8125 611.4375 518.199219 609.414062 C 517.585938 607.386719 517.019531 605.347656 516.507812 603.292969 C 515.992188 601.242188 515.527344 599.175781 515.113281 597.101562 C 514.703125 595.023438 514.339844 592.9375 514.027344 590.84375 C 513.71875 588.75 513.460938 586.652344 513.25 584.546875 C 513.042969 582.4375 512.886719 580.328125 512.785156 578.214844 C 512.679688 576.101562 512.628906 573.984375 512.628906 571.867188 C 512.628906 569.75 512.679688 567.636719 512.785156 565.519531 C 512.886719 563.40625 513.042969 561.296875 513.25 559.191406 C 513.457031 557.082031 513.71875 554.984375 514.027344 552.890625 C 514.335938 550.796875 514.699219 548.710938 515.113281 546.632812 C 515.523438 544.558594 515.988281 542.492188 516.503906 540.441406 C 517.015625 538.386719 517.582031 536.347656 518.195312 534.320312 C 518.808594 532.296875 519.472656 530.285156 520.1875 528.292969 C 520.898438 526.300781 521.660156 524.328125 522.472656 522.371094 C 523.28125 520.414062 524.140625 518.480469 525.042969 516.566406 C 525.949219 514.652344 526.898438 512.761719 527.898438 510.898438 C 528.894531 509.03125 529.9375 507.1875 531.027344 505.371094 C 532.113281 503.558594 533.246094 501.769531 534.421875 500.007812 C 535.597656 498.25 536.816406 496.519531 538.078125 494.820312 C 539.339844 493.117188 540.640625 491.449219 541.984375 489.8125 C 543.324219 488.175781 544.707031 486.574219 546.128906 485.007812 C 547.550781 483.4375 549.011719 481.90625 550.507812 480.410156 C 552.003906 478.910156 553.535156 477.453125 555.105469 476.03125 C 556.671875 474.609375 558.273438 473.226562 559.910156 471.882812 C 561.546875 470.542969 563.214844 469.238281 564.914062 467.976562 C 566.617188 466.71875 568.34375 465.5 570.105469 464.324219 C 571.867188 463.148438 573.652344 462.015625 575.46875 460.925781 C 577.285156 459.835938 579.125 458.792969 580.992188 457.796875 C 582.859375 456.800781 584.75 455.847656 586.664062 454.941406 C 588.574219 454.039062 590.511719 453.179688 592.464844 452.371094 C 594.421875 451.558594 596.394531 450.796875 598.390625 450.085938 C 600.382812 449.371094 602.390625 448.707031 604.417969 448.09375 C 606.441406 447.476562 608.480469 446.914062 610.535156 446.398438 C 612.589844 445.886719 614.652344 445.421875 616.730469 445.007812 C 618.804688 444.59375 620.890625 444.234375 622.984375 443.921875 C 625.078125 443.613281 627.175781 443.351562 629.285156 443.144531 C 631.390625 442.9375 633.5 442.78125 635.613281 442.675781 C 637.730469 442.574219 639.84375 442.523438 641.960938 442.523438 L 641.972656 571.859375 Z M 641.972656 701.199219 " fill-opacity="1" fill-rule="nonzero"/><g mask="url(#753e89e198)"><g transform="matrix(1, 0, 0, 1, 897, 233)"><g clip-path="url(#819c865ac0)"><g clip-path="url(#be2f4578b7)"><path fill="#193658" d="M 541.011719 10.382812 L 914.613281 383.980469 C 911.773438 366.582031 907.511719 349.535156 902.539062 332.488281 L 592.152344 22.101562 C 575.105469 17.128906 558.058594 13.222656 541.011719 10.382812 Z M 541.011719 10.382812 " fill-opacity="1" fill-rule="nonzero"/></g><g clip-path="url(#2c96388843)"><path fill="#193658" d="M 455.425781 3.632812 L 921.359375 469.570312 C 921.714844 456.074219 921.003906 442.578125 920.296875 429.085938 L 495.910156 4.699219 C 482.414062 3.632812 468.921875 3.277344 455.425781 3.632812 Z M 455.425781 3.632812 " fill-opacity="1" fill-rule="nonzero"/></g><g clip-path="url(#92901a9b29)"><path fill="#193658" d="M 383.332031 10.382812 L 914.613281 541.660156 C 916.746094 530.296875 918.164062 518.578125 919.230469 506.859375 L 418.136719 5.410156 C 406.417969 6.832031 394.699219 8.25 383.332031 10.382812 Z M 383.332031 10.382812 " fill-opacity="1" fill-rule="nonzero"/></g><g clip-path="url(#3ff2d2ab0b)"><path fill="#193658" d="M 320.121094 25.652344 L 898.988281 604.519531 C 902.183594 594.222656 905.023438 584.277344 907.867188 573.980469 L 350.660156 17.128906 C 340.363281 19.613281 330.0625 22.457031 320.121094 25.652344 Z M 320.121094 25.652344 " fill-opacity="1" fill-rule="nonzero"/></g><g clip-path="url(#75366e76c1)"><path fill="#193658" d="M 263.652344 48.378906 L 876.257812 660.988281 C 880.519531 652.109375 884.425781 642.875 888.332031 633.640625 L 291 36.304688 C 281.765625 39.859375 272.886719 43.765625 263.652344 48.378906 Z M 263.652344 48.378906 " fill-opacity="1" fill-rule="nonzero"/></g><g clip-path="url(#c7385df157)"><path fill="#193658" d="M 213.222656 76.4375 L 848.203125 711.414062 C 853.53125 703.246094 858.503906 695.078125 863.117188 686.910156 L 237.726562 61.519531 C 229.558594 66.136719 221.390625 71.109375 213.222656 76.4375 Z M 213.222656 76.4375 " fill-opacity="1" fill-rule="nonzero"/></g><g clip-path="url(#1c090f71b9)"><path fill="#193658" d="M 167.765625 109.820312 L 814.820312 756.871094 C 820.859375 749.769531 826.539062 742.3125 832.222656 734.855469 L 189.785156 92.417969 C 182.328125 98.097656 175.226562 103.78125 167.765625 109.820312 Z M 167.765625 109.820312 " fill-opacity="1" fill-rule="nonzero"/></g><g clip-path="url(#8cfdb0df3c)"><path fill="#193658" d="M 136.871094 137.875 C 133.675781 141.070312 130.476562 144.621094 127.28125 147.816406 L 776.820312 797.359375 C 780.019531 794.160156 783.570312 790.964844 786.765625 787.769531 C 789.960938 784.574219 793.15625 781.023438 796.355469 777.824219 L 146.8125 128.285156 C 143.617188 131.480469 140.066406 134.679688 136.871094 137.875 Z M 136.871094 137.875 " fill-opacity="1" fill-rule="nonzero"/></g><g clip-path="url(#1faf4b03d3)"><path fill="#193658" d="M 91.414062 190.789062 L 733.851562 833.226562 C 741.308594 827.542969 748.765625 821.863281 755.867188 815.824219 L 108.816406 168.769531 C 102.777344 176.230469 97.09375 183.332031 91.414062 190.789062 Z M 91.414062 190.789062 " fill-opacity="1" fill-rule="nonzero"/></g><g clip-path="url(#bf92ab55f3)"><path fill="#193658" d="M 60.515625 238.734375 L 685.90625 864.125 C 694.074219 859.507812 702.242188 854.535156 710.410156 849.207031 L 75.433594 214.226562 C 70.105469 222.394531 65.132812 230.566406 60.515625 238.734375 Z M 60.515625 238.734375 " fill-opacity="1" fill-rule="nonzero"/></g><g clip-path="url(#b0d9210786)"><path fill="#193658" d="M 35.300781 292.003906 L 632.636719 889.335938 C 641.871094 885.785156 651.105469 881.523438 659.980469 877.261719 L 47.019531 264.65625 C 42.761719 273.890625 38.851562 282.769531 35.300781 292.003906 Z M 35.300781 292.003906 " fill-opacity="1" fill-rule="nonzero"/></g><g clip-path="url(#06df3d806b)"><path fill="#193658" d="M 16.125 351.664062 L 573.328125 908.871094 C 583.628906 906.382812 593.925781 903.542969 603.871094 899.992188 L 24.648438 321.125 C 21.453125 331.066406 18.609375 341.367188 16.125 351.664062 Z M 16.125 351.664062 " fill-opacity="1" fill-rule="nonzero"/></g><g clip-path="url(#dc15de8caf)"><path fill="#193658" d="M 4.40625 418.785156 L 505.855469 920.234375 C 517.574219 919.167969 528.9375 917.394531 540.65625 915.617188 L 9.023438 384.335938 C 7.246094 395.703125 5.472656 407.421875 4.40625 418.785156 Z M 4.40625 418.785156 " fill-opacity="1" fill-rule="nonzero"/></g><g clip-path="url(#f9b4da353f)"><path fill="#193658" d="M 3.695312 496.914062 L 428.078125 921.300781 C 441.574219 922.363281 455.070312 922.71875 468.566406 922.363281 L 2.273438 456.074219 C 2.273438 469.570312 2.628906 483.417969 3.695312 496.914062 Z M 3.695312 496.914062 " fill-opacity="1" fill-rule="nonzero"/></g><g clip-path="url(#f1249b4c8e)"><path fill="#193658" d="M 21.097656 592.800781 L 331.839844 903.542969 C 348.886719 908.515625 365.929688 912.421875 382.976562 915.617188 L 9.023438 541.660156 C 12.21875 559.0625 16.125 576.109375 21.097656 592.800781 Z M 21.097656 592.800781 " fill-opacity="1" fill-rule="nonzero"/></g></g></g></g><path fill="#ffffff" d="M 1257.691406 598.960938 L 1199.277344 598.742188 L 1193.007812 549.496094 C 1193.007812 549.496094 1190.769531 550.617188 1176.449219 555.984375 C 1162.121094 561.363281 1152.046875 559.347656 1146.226562 531.140625 C 1140.40625 502.941406 1132.578125 463.097656 1132.578125 463.097656 L 1135.933594 435.796875 L 1153.390625 413.632812 L 1239.5625 407.59375 L 1246.722656 511 L 1257.691406 598.960938 " fill-opacity="1" fill-rule="nonzero"/><g clip-path="url(#938235e244)"><path fill="#193658" d="M 1120.152344 718.035156 L 1072.140625 688.15625 C 1072.140625 688.15625 1086.578125 661.628906 1095.980469 644.171875 C 1105.378906 626.714844 1116.792969 607.242188 1131.90625 601.871094 C 1147.011719 596.5 1179.910156 582.398438 1179.910156 582.398438 L 1188.308594 559.902344 L 1208.449219 568.636719 L 1215.503906 590.457031 L 1222.21875 568.96875 L 1259.148438 555.203125 C 1259.148438 555.203125 1264.179688 570.3125 1274.257812 574.679688 C 1284.328125 579.042969 1289.699219 581.054688 1317.5625 591.128906 C 1345.429688 601.199219 1375.644531 609.59375 1385.046875 638.128906 C 1394.445312 666.667969 1403.175781 692.519531 1403.175781 692.519531 L 1385.382812 701.25 L 1343.082031 797.605469 L 1127.808594 797.605469 L 1120.152344 718.035156 " fill-opacity="1" fill-rule="nonzero"/></g><path fill="#ffffff" d="M 1385.382812 701.25 L 1371.957031 797.269531 L 1247.734375 797.269531 L 1189.988281 766.046875 L 1190.179688 762.550781 C 1187.273438 785.078125 1137.277344 783.839844 1137.277344 783.839844 L 1121.160156 790.890625 L 1097.65625 790.890625 L 1097.929688 790.554688 L 1097.226562 790.554688 L 1101.691406 797.9375 L 898.230469 797.9375 L 823.027344 665.664062 L 1021.78125 665.664062 L 1072.601562 749.792969 L 1083.554688 695.207031 L 1120.492188 717.699219 L 1121.96875 734.5625 L 1114.832031 770.410156 C 1123.097656 762.101562 1133.035156 755.59375 1144.054688 751.414062 L 1153.933594 747.671875 C 1167.433594 742.550781 1182.046875 741.070312 1196.300781 743.359375 L 1322.601562 763.695312 L 1324.277344 727.769531 L 1352.585938 715.484375 L 1385.382812 701.25 " fill-opacity="1" fill-rule="nonzero"/><g clip-path="url(#57df10f9e9)"><path fill="#000000" d="M 1145.78125 489.738281 C 1153.183594 489.738281 1159.207031 495.761719 1159.207031 503.167969 C 1159.207031 510.566406 1153.183594 516.59375 1145.78125 516.59375 C 1145.226562 516.59375 1144.6875 516.546875 1144.144531 516.480469 C 1142.441406 508.0625 1140.695312 499.386719 1139.125 491.519531 C 1141.09375 490.390625 1143.359375 489.738281 1145.78125 489.738281 Z M 1127.875 501.820312 C 1128.546875 534.054688 1134.8125 552.40625 1148.019531 562.699219 L 1157.109375 556.511719 C 1157.613281 556.878906 1158.125 557.222656 1158.652344 557.511719 C 1163.207031 560.023438 1168.792969 559.816406 1176.761719 556.824219 C 1186.351562 553.230469 1190.539062 551.535156 1192.273438 550.800781 L 1193.851562 562.632812 C 1193.914062 563.082031 1194.296875 563.410156 1194.742188 563.410156 C 1194.78125 563.410156 1194.824219 563.410156 1194.863281 563.40625 C 1195.355469 563.335938 1195.699219 562.882812 1195.632812 562.390625 L 1193.894531 549.378906 C 1193.855469 549.09375 1193.683594 548.839844 1193.425781 548.707031 C 1193.171875 548.570312 1192.867188 548.566406 1192.605469 548.691406 C 1192.515625 548.738281 1190.121094 549.898438 1176.128906 555.148438 C 1168.695312 557.933594 1163.574219 558.171875 1159.519531 555.941406 C 1153.933594 552.855469 1149.992188 544.917969 1147.105469 530.960938 C 1146.28125 526.945312 1145.40625 522.683594 1144.523438 518.324219 C 1144.9375 518.359375 1145.359375 518.390625 1145.78125 518.390625 C 1154.175781 518.390625 1161.003906 511.558594 1161.003906 503.167969 C 1161.003906 494.773438 1154.175781 487.941406 1145.78125 487.941406 C 1143.246094 487.941406 1140.859375 488.574219 1138.757812 489.671875 C 1136.765625 479.675781 1135.089844 471.203125 1134.179688 466.613281 C 1139.082031 459.957031 1145.296875 449.28125 1146.226562 436.910156 C 1146.226562 436.910156 1160.105469 474.960938 1218.078125 480.78125 C 1218.078125 480.78125 1232.179688 539.199219 1228.371094 556.433594 C 1228.371094 556.433594 1238.152344 554.34375 1250.171875 549.277344 L 1251.125 557.671875 C 1251.179688 558.164062 1251.625 558.507812 1252.117188 558.464844 C 1252.609375 558.40625 1252.96875 557.960938 1252.910156 557.46875 L 1251.894531 548.53125 C 1262.765625 543.773438 1275.121094 536.625 1283.65625 526.441406 C 1302.230469 504.285156 1276.042969 463.996094 1276.042969 463.996094 C 1276.042969 463.996094 1280.972656 437.582031 1266.644531 412.964844 C 1263.734375 407.964844 1260.507812 403.085938 1256.847656 398.605469 C 1264.101562 395.03125 1269.109375 387.582031 1269.109375 378.945312 C 1269.109375 366.828125 1259.289062 357.007812 1247.171875 357.007812 C 1235.359375 357.007812 1225.753906 366.355469 1225.285156 378.050781 C 1214.472656 375.707031 1201.488281 376.523438 1185.621094 382.074219 C 1140.855469 397.746094 1131.234375 415.425781 1129.664062 442.730469 C 1128.097656 470.039062 1128.097656 473.847656 1128.097656 473.847656 C 1128.097656 473.847656 1128.167969 473.777344 1128.203125 473.738281 C 1127.835938 480.636719 1127.625 489.875 1127.875 501.820312 Z M 1140.03125 484.289062 C 1140.402344 484.085938 1149.199219 479.382812 1157.285156 485.433594 L 1156.210938 486.875 C 1149.035156 481.503906 1140.976562 485.820312 1140.898438 485.863281 Z M 1171 483.019531 L 1169.800781 481.679688 C 1170.101562 481.410156 1177.316406 475.082031 1189.136719 480.644531 L 1188.371094 482.265625 C 1177.675781 477.238281 1171.269531 482.78125 1171 483.019531 Z M 1180.441406 532.691406 C 1180.503906 532.007812 1180.351562 531.457031 1180.0625 531.292969 C 1179.757812 531.121094 1179.050781 531.214844 1177.972656 531.980469 C 1172.226562 536.125 1165.886719 536.398438 1165.621094 536.40625 L 1165.554688 534.609375 C 1165.617188 534.609375 1171.632812 534.339844 1176.925781 530.527344 C 1178.90625 529.101562 1180.207031 529.3125 1180.949219 529.726562 C 1181.890625 530.265625 1182.359375 531.402344 1182.234375 532.847656 C 1181.984375 535.714844 1179.355469 539.652344 1174.171875 541.503906 L 1173.570312 539.808594 C 1178.003906 538.222656 1180.238281 535.011719 1180.441406 532.691406 Z M 1163.007812 509.777344 L 1160.511719 528.503906 L 1168.109375 526.035156 L 1168.664062 527.746094 L 1158.351562 531.09375 L 1161.226562 509.539062 Z M 1146.898438 507.074219 C 1146.898438 505.902344 1147.851562 504.949219 1149.023438 504.949219 C 1150.199219 504.949219 1151.148438 505.902344 1151.148438 507.074219 C 1151.148438 508.25 1150.199219 509.199219 1149.023438 509.199219 C 1147.851562 509.199219 1146.898438 508.25 1146.898438 507.074219 Z M 1181.355469 504.167969 C 1181.355469 505.339844 1180.402344 506.292969 1179.230469 506.292969 C 1178.054688 506.292969 1177.105469 505.339844 1177.105469 504.167969 C 1177.105469 502.992188 1178.054688 502.042969 1179.230469 502.042969 C 1180.402344 502.042969 1181.355469 502.992188 1181.355469 504.167969 Z M 1180.699219 512.785156 C 1173.292969 512.785156 1167.269531 506.765625 1167.269531 499.359375 C 1167.269531 491.957031 1173.292969 485.9375 1180.699219 485.9375 C 1188.097656 485.9375 1194.121094 491.957031 1194.121094 499.359375 C 1194.121094 506.765625 1188.097656 512.785156 1180.699219 512.785156 Z M 1195.917969 499.359375 C 1195.917969 490.964844 1189.089844 484.140625 1180.699219 484.140625 C 1172.304688 484.140625 1165.472656 490.964844 1165.472656 499.359375 C 1165.472656 507.75 1172.304688 514.582031 1180.699219 514.582031 C 1189.089844 514.582031 1195.917969 507.75 1195.917969 499.359375 Z M 1255.742188 663.644531 L 1292.203125 666.214844 C 1292.035156 671.664062 1290.230469 701.765625 1271.558594 701.765625 C 1267.613281 701.765625 1264.339844 700.324219 1261.828125 697.476562 C 1253.859375 688.46875 1255.316406 668.050781 1255.742188 663.644531 Z M 1271.558594 703.5625 C 1280.816406 703.5625 1287.636719 696.894531 1291.289062 684.269531 C 1293.984375 674.9375 1294.019531 665.765625 1294.019531 665.382812 L 1294.019531 664.542969 L 1254.152344 661.730469 L 1254.046875 662.578125 C 1253.914062 663.605469 1251.03125 687.980469 1260.476562 698.664062 C 1263.351562 701.917969 1267.078125 703.5625 1271.558594 703.5625 Z M 1209.183594 569.152344 L 1192.304688 592.847656 L 1179.375 583.117188 L 1180.453125 581.679688 L 1191.914062 590.300781 L 1207.722656 568.109375 Z M 1238.488281 592.855469 L 1221.488281 569.496094 L 1222.941406 568.441406 L 1238.847656 590.296875 L 1266.320312 568.929688 L 1267.421875 570.351562 Z M 1208.847656 713.878906 C 1210.472656 713.878906 1211.800781 715.207031 1211.800781 716.839844 C 1211.800781 718.472656 1210.472656 719.800781 1208.847656 719.800781 C 1207.214844 719.800781 1205.886719 718.472656 1205.886719 716.839844 C 1205.886719 715.207031 1207.214844 713.878906 1208.847656 713.878906 Z M 1208.847656 721.597656 C 1211.46875 721.597656 1213.597656 719.460938 1213.597656 716.839844 C 1213.597656 714.214844 1211.46875 712.082031 1208.847656 712.082031 C 1206.21875 712.082031 1204.089844 714.214844 1204.089844 716.839844 C 1204.089844 719.460938 1206.21875 721.597656 1208.847656 721.597656 Z M 1218.039062 640.871094 C 1219.882812 640.871094 1221.382812 642.375 1221.382812 644.21875 C 1221.382812 646.066406 1219.882812 647.566406 1218.039062 647.566406 C 1216.1875 647.566406 1214.691406 646.066406 1214.691406 644.21875 C 1214.691406 642.375 1216.1875 640.871094 1218.039062 640.871094 Z M 1218.039062 649.363281 C 1220.875 649.363281 1223.183594 647.054688 1223.183594 644.21875 C 1223.183594 641.386719 1220.875 639.074219 1218.039062 639.074219 C 1215.203125 639.074219 1212.894531 641.386719 1212.894531 644.21875 C 1212.894531 647.054688 1215.203125 649.363281 1218.039062 649.363281 Z M 942.574219 738.449219 C 942.574219 729.5 949.824219 722.242188 958.78125 722.242188 C 967.734375 722.242188 974.988281 729.5 974.988281 738.449219 C 974.988281 747.402344 967.734375 754.65625 958.78125 754.65625 C 949.824219 754.65625 942.574219 747.402344 942.574219 738.449219 Z M 1021.273438 666.5625 L 1071.503906 750.222656 L 1071.378906 750.851562 L 1071.953125 750.972656 L 1072.085938 751.199219 L 1100.085938 797.039062 L 898.757812 797.039062 L 824.570312 666.5625 Z M 1084.183594 696.640625 L 1119.628906 718.230469 L 1121.066406 734.507812 L 1113.664062 770.316406 C 1111.847656 772.175781 1110.082031 774.09375 1108.4375 776.128906 L 1097.601562 789.527344 L 1073.628906 750.265625 L 1073.40625 749.898438 Z M 1144.371094 752.257812 L 1154.25 748.511719 C 1167.589844 743.453125 1182.082031 741.988281 1196.15625 744.246094 L 1322.460938 764.582031 C 1322.710938 764.617188 1322.96875 764.554688 1323.167969 764.390625 C 1323.363281 764.230469 1323.484375 763.996094 1323.5 763.738281 L 1325.152344 728.375 L 1384.269531 702.710938 L 1371.171875 796.367188 L 1247.960938 796.367188 L 1190.515625 765.308594 C 1191.03125 763.628906 1191.269531 761.851562 1191.21875 759.980469 C 1191.203125 759.484375 1190.738281 759.117188 1190.296875 759.105469 C 1189.800781 759.117188 1189.40625 759.53125 1189.421875 760.027344 C 1189.539062 764.226562 1188.023438 767.929688 1184.925781 771.03125 C 1172.324219 783.660156 1137.652344 782.960938 1137.296875 782.941406 C 1137.179688 782.933594 1137.035156 782.964844 1136.914062 783.015625 L 1120.972656 789.992188 L 1099.539062 789.992188 L 1109.835938 777.257812 C 1118.921875 766.023438 1130.863281 757.375 1144.371094 752.257812 Z M 1124.9375 790.214844 L 1137.457031 784.742188 C 1140.621094 784.800781 1173.414062 785.105469 1186.195312 772.304688 C 1187.8125 770.683594 1189.039062 768.914062 1189.882812 767.007812 L 1246.601562 797.679688 L 1202.523438 797.679688 L 1202.523438 790.214844 Z M 1372.746094 797.679688 C 1372.796875 797.589844 1372.828125 797.496094 1372.84375 797.394531 L 1386.273438 701.375 C 1386.316406 701.050781 1386.1875 700.734375 1385.925781 700.53125 C 1385.664062 700.335938 1385.328125 700.296875 1385.027344 700.425781 L 1325.105469 726.4375 L 1322.015625 672.21875 L 1320.226562 672.320312 L 1323.378906 727.78125 L 1321.75 762.648438 L 1196.441406 742.472656 C 1182.050781 740.15625 1167.246094 741.664062 1153.617188 746.832031 L 1143.734375 750.574219 C 1133.402344 754.492188 1123.96875 760.429688 1115.984375 767.980469 L 1122.851562 734.742188 L 1122.875 734.609375 L 1121.402344 717.832031 L 1147.0625 652.234375 L 1145.390625 651.578125 L 1120.039062 716.375 L 1082.933594 693.773438 L 1072.035156 747.613281 L 1022.289062 664.765625 L 821.484375 664.765625 L 897.050781 797.679688 L 799.789062 797.679688 L 799.789062 810.023438 L 1395.621094 810.023438 L 1395.621094 797.679688 L 1372.746094 797.679688 " fill-opacity="1" fill-rule="nonzero"/></g><g clip-path="url(#8cc33e0b32)"><g clip-path="url(#e81bee6532)"><path fill="#7b4d42" d="M -137.457031 720.472656 L 137.261719 720.472656 L 137.261719 966.375 L -137.457031 966.375 Z M -137.457031 720.472656 " fill-opacity="1" fill-rule="nonzero"/></g></g><g clip-path="url(#70923b435a)"><g clip-path="url(#3fdbb18860)"><path fill="#7b4d42" d="M 1209.460938 -230.191406 L 1595.59375 -230.191406 L 1595.59375 155.945312 L 1209.460938 155.945312 Z M 1209.460938 -230.191406 " fill-opacity="1" fill-rule="nonzero"/></g></g><g clip-path="url(#5bc7cf0291)"><g clip-path="url(#7457f840da)"><path fill="#ffffff" d="M 1209.460938 40.984375 L 1373.882812 40.984375 L 1373.882812 205.40625 L 1209.460938 205.40625 Z M 1209.460938 40.984375 " fill-opacity="1" fill-rule="nonzero"/></g></g></svg>