<svg width="393" height="418" viewBox="0 0 393 418" fill="none" xmlns="http://www.w3.org/2000/svg">
<path d="M251.102 197.424C223.416 188.493 216.778 160.547 216.778 160.547C217.708 159.219 218.615 157.875 219.5 156.517L220.396 142.099C205.933 138.101 214.143 120.491 214.143 120.491C207.511 110.798 201.976 100.399 197.639 89.4844C189.609 90.2667 181.917 93.1083 175.307 97.7342C180.835 116.188 190.17 138.972 210.008 169.327C201.472 179.984 187.538 196.832 180.826 205.595L127.32 181.64L115.123 206.867L175.18 237.618C179.328 239.559 184.023 239.992 188.456 238.842C192.889 237.693 196.783 235.034 199.466 231.323L212.609 213.202C217.884 221.284 221.925 227.92 236.564 234.045C252.137 227.038 258.88 218.551 264.721 206.867C259.667 204.535 255.058 201.339 251.102 197.424Z" fill="#FF6635"/>
<path d="M251.826 306.438L249.657 294.57L300.355 285.215L302.525 297.08L251.826 306.438Z" fill="#FF6635"/>
<path d="M296.189 296.442L288.234 287.426L331.066 249.656L339.018 258.672L296.189 296.442Z" fill="#FF6635"/>
<path d="M101.469 116.057C99.6698 116.006 97.9242 116.671 96.6159 117.907C95.3077 119.144 94.544 120.849 94.493 122.648C94.4419 124.447 95.1076 126.192 96.3436 127.501C97.5797 128.809 99.2848 129.573 101.084 129.624C102.883 129.675 104.629 129.009 105.937 127.773C107.245 126.537 108.009 124.832 108.06 123.033C108.111 121.234 107.445 119.488 106.209 118.18C104.973 116.872 103.268 116.108 101.469 116.057Z" fill="#FF6635"/>
<path d="M106.998 84.8373C108.814 82.0807 109.924 78.9203 110.232 75.634C110.539 72.3478 110.035 69.0362 108.763 65.9905C107.491 62.9449 105.49 60.2583 102.937 58.1671C100.383 56.0759 97.3547 54.644 94.118 53.9974C90.8814 53.3507 87.5354 53.5092 84.3743 54.4587C81.2132 55.4082 78.3337 57.1198 75.9891 59.443C73.6445 61.7661 71.9065 64.6297 70.9279 67.7819C69.9493 70.9342 69.7601 74.2785 70.3769 77.521C70.4284 77.8658 70.4978 78.2061 70.5896 78.5419L80.3707 76.7151C79.9661 75.3817 79.8381 73.9797 79.9944 72.5951C80.1507 71.2105 80.5881 69.8724 81.2797 68.6627C81.9714 67.4531 82.9027 66.3974 84.0167 65.5604C85.1307 64.7233 86.4038 64.1226 87.7581 63.7949C89.1125 63.4671 90.5194 63.4194 91.8929 63.6546C93.2663 63.8898 94.5772 64.4029 95.7454 65.1625C96.9135 65.9221 97.9143 66.9123 98.6863 68.0723C99.4583 69.2322 99.9854 70.5376 100.235 71.9085C101.131 76.7912 98.4777 80.5389 95.1733 84.6694C93.0039 87.2558 91.8149 90.5239 91.8152 93.8997C91.8286 98.9414 92.4286 103.967 93.6062 108.87L103.681 106.956C102.6 102.446 102.128 97.8118 102.277 93.1766C102.915 89.9416 105.254 87.4745 106.998 84.8373Z" fill="#FF6635"/>
<path fill-rule="evenodd" clip-rule="evenodd" d="M81.1506 1.92065C97.4846 -0.0765096 114.054 2.41007 129.082 9.11375C157.998 21.9955 175.76 47.1188 181.059 74.5636C181.059 74.5636 181.189 78.262 181.469 81.112C179.703 82.1776 176.226 79.2157 173.188 76.6255C170.448 74.2905 168.063 72.2599 167.616 73.7666C167.186 75.2151 168.22 76.7665 169.863 79.2292C172.069 82.5336 175.366 87.4767 177.69 96.0131L175.451 97.8332C176.13 100.547 177.735 105.109 179.622 110.482L180.397 112.692C176.64 128.936 168.323 144.406 155.182 157.057C143.957 167.914 130.119 175.687 115.007 179.624C114.671 179.713 112.383 178.227 109.663 176.46C105.945 174.042 101.418 171.103 99.9628 170.942C97.6547 170.684 103.113 177.725 105.47 180.77C105.685 181.043 105.873 181.285 106.025 181.486C94.1324 183.345 81.9885 182.816 70.3021 179.931C58.6157 177.046 47.6209 171.862 37.9592 164.682C28.2976 157.503 20.1625 148.471 14.0288 138.113C7.89502 127.756 3.88538 116.281 2.23381 104.358C0.582238 92.4341 1.32181 80.3012 4.40938 68.6666C7.49696 57.0321 12.8707 46.129 20.217 36.5934C27.5634 27.0578 36.7352 19.0808 47.1974 13.1278C57.6596 7.17479 69.2026 3.36497 81.1529 1.92065H81.1506ZM83.5371 21.3239C96.315 19.7611 109.277 21.7059 121.034 26.9499C167.358 47.5867 177.081 108.387 141.451 142.682C133.368 150.502 123.539 156.288 112.779 159.561C102.018 162.833 90.6327 163.499 79.5636 161.504C68.4945 159.509 58.0588 154.909 49.1181 148.085C40.1774 141.26 32.9882 132.407 28.144 122.256C23.2998 112.105 20.9396 100.948 21.2583 89.7049C21.577 78.4619 24.5654 67.456 29.9768 57.5958C35.3882 47.7356 43.0674 39.304 52.3803 32.9971C61.6933 26.6903 72.3728 22.6891 83.5371 21.3239Z" fill="#FFD647"/>
<path d="M339.146 275.133L344.336 267.264L336.339 260.968L332.13 264.754L339.146 275.133Z" fill="#FFD647"/>
<path d="M366.625 284.67L359.909 300.118C357.883 304.824 354.392 308.75 349.955 311.312L383.474 337.444L403.21 313.116L366.625 284.67Z" fill="#FFD647"/>
<path d="M331.279 166.928C336.865 167.708 342.535 166.291 347.097 162.975C351.658 159.658 354.755 154.701 355.735 149.147C348.852 146.933 341.595 146.12 334.392 146.755C327.189 147.391 320.186 149.463 313.797 152.848C315.171 156.553 317.521 159.817 320.599 162.296C323.676 164.774 327.367 166.375 331.279 166.928Z" fill="#FFD647"/>
<path d="M203.124 158.42L172.16 134.347C167.709 143.783 161.266 152.143 153.276 158.853L193.126 190.285L210.056 169.316L203.124 158.42Z" fill="#FFD647"/>
<path d="M227.963 192.277L212.657 213.375C213.734 215.354 214.987 217.232 216.4 218.988L227.963 192.277Z" fill="#FFD647"/>
<path d="M220.139 146.51L226.219 142.216C224.292 142.342 222.357 142.3 220.436 142.089L220.139 146.51Z" fill="#FFD647"/>
<path d="M260.587 168.672C261.034 165.242 260.256 161.765 258.388 158.854C256.52 155.943 253.684 153.786 250.38 152.763C250.803 151.549 250.934 150.252 250.763 148.977C247.956 128.477 243.702 115.844 236.684 108.615C231.919 103.636 222.181 104.446 216.396 111.718C210.651 119 212.095 128.607 212.057 129.404C212.64 122.248 215.98 115.598 221.373 110.858C222.882 109.619 224.657 108.745 226.56 108.306C226.262 114.774 231.409 125.023 237.619 122.47C241.772 120.776 242.271 128.291 234.089 128.291C231.877 146.027 232.558 166.35 240.724 182.906L242.043 185.413C246.057 192.724 251.795 198.944 258.76 203.533C263.385 203.775 267.917 202.169 271.358 199.07C274.8 195.971 276.87 191.632 277.113 187.007C277.354 182.382 275.748 177.851 272.649 174.41C269.55 170.969 265.211 168.899 260.587 168.656V168.672Z" fill="#FFD647"/>
<path d="M339.146 275.133L344.336 267.264L336.339 260.969L332.13 264.754L339.146 275.133Z" stroke="#120071" stroke-width="0.769171" stroke-linejoin="round"/>
<path d="M366.625 284.671L359.909 300.118C357.883 304.824 354.392 308.75 349.955 311.312L383.474 337.445L403.21 313.116L366.625 284.671Z" stroke="#120071" stroke-width="0.769171"/>
<path d="M203.124 158.421L172.16 134.348C167.709 143.784 161.266 152.144 153.276 158.853L193.126 190.285L210.056 169.317L203.124 158.421Z" stroke="#120071" stroke-width="0.769171"/>
<path d="M213.503 119.587C207.08 110.196 201.77 100.091 197.68 89.474C189.648 90.2533 181.955 93.0993 175.351 97.735C180.88 116.193 190.194 138.95 210.051 169.319" stroke="#120071" stroke-width="0.769171" stroke-linecap="round" stroke-linejoin="round"/>
<path d="M182.156 84.8796C180.963 78.6745 180.506 72.3504 180.795 66.0383C180.668 62.7767 180.893 59.5109 181.466 56.2975C183.033 47.4835 185.18 48.3432 185.89 56.8505C187.625 77.6888 192.606 84.5819 194.438 89.9414" stroke="#120071" stroke-width="0.769171" stroke-linecap="round" stroke-linejoin="round"/>
<path d="M181.09 58.9773C179.664 55.9694 177.817 53.1802 175.603 50.6939C174.932 50.0491 173.365 49.9842 175.306 55.3729C175.722 56.5236 177.385 61.4981 177.9 63.2846C179.094 66.8487 180.06 70.485 180.793 74.1717" stroke="#120071" stroke-width="0.769171" stroke-linecap="round" stroke-linejoin="round"/>
<path d="M181.39 79.9034C181.092 84.1145 174.589 77.602 171.522 75.1394C168.761 72.923 164.806 71.5148 170.373 79.5631C173.673 84.6979 176.169 90.3065 177.775 96.1948" stroke="#120071" stroke-width="0.769171" stroke-linecap="round" stroke-linejoin="round"/>
<path d="M342.166 279.557L332.13 264.754" stroke="#120071" stroke-width="0.769171" stroke-linecap="round" stroke-linejoin="round"/>
<path d="M220.492 141.979C220.492 141.979 220.022 147.871 219.554 156.506C218.616 157.838 217.694 159.181 216.79 160.536" stroke="#120071" stroke-width="0.769171" stroke-linecap="round" stroke-linejoin="round"/>
<path d="M226.221 142.345L220.156 146.459" stroke="#120071" stroke-width="0.769171" stroke-linecap="round" stroke-linejoin="round"/>
<path d="M290.362 285.513L256.377 248.04" stroke="#120071" stroke-width="0.769171" stroke-linecap="round" stroke-linejoin="round"/>
<path d="M227.921 192.235L216.396 218.945" stroke="#120071" stroke-width="0.769171" stroke-linecap="round" stroke-linejoin="round"/>
<path d="M315.54 263.308C302.336 242.086 283.16 225.234 260.418 214.864" stroke="#120071" stroke-width="0.769171" stroke-linecap="round" stroke-linejoin="round"/>
<path d="M253.194 293.919L236.683 234.003" stroke="#120071" stroke-width="0.769171" stroke-linecap="round" stroke-linejoin="round"/>
<path d="M301.504 291.762L302.525 297.079L251.826 306.437L249.657 294.57L288.235 287.469" stroke="#120071" stroke-width="0.769171" stroke-linecap="round" stroke-linejoin="round"/>
<path d="M258.717 203.592C263.273 203.713 267.697 202.051 271.046 198.959C274.396 195.868 276.406 191.591 276.65 187.04C276.893 182.488 275.351 178.021 272.351 174.59C269.351 171.159 265.13 169.034 260.586 168.668C261.034 165.238 260.255 161.761 258.388 158.85C256.52 155.939 253.684 153.782 250.38 152.759C251.757 148.767 247.499 123.682 239.831 112.484C232.635 101.975 222.118 104.436 216.353 111.714C210.588 118.992 212.052 128.601 212.014 129.4" stroke="#120071" stroke-width="0.769171" stroke-linecap="round" stroke-linejoin="round"/>
<path d="M339.146 275.133L368.113 231.068C373.641 222.178 373.428 219.37 375.895 213.247C387.465 206.952 413.708 199.551 426.681 197.849C417.153 212.737 394.824 221.54 386.019 240.001L359.861 300.057C358.316 303.614 355.931 306.744 352.912 309.179C349.893 311.613 346.328 313.28 342.524 314.036C338.72 314.792 334.789 314.616 331.068 313.522C327.347 312.429 323.946 310.45 321.155 307.756L303.12 290.361" stroke="#120071" stroke-width="0.769171" stroke-linecap="round" stroke-linejoin="round"/>
<path d="M296.189 296.442L288.235 287.427L331.067 249.657L339.019 258.672L296.189 296.442Z" stroke="#120071" stroke-width="0.769171" stroke-linecap="round" stroke-linejoin="round"/>
<path d="M105.421 185.003C110.057 184.535 102.349 177.183 101.082 174.929C99.3693 171.873 97.5537 168.334 105.548 173.951C112.025 178.039 118.743 181.731 125.666 185.008" stroke="#120071" stroke-width="0.769171" stroke-linecap="round" stroke-linejoin="round"/>
<path d="M259.993 304.907L263.521 317.582C265.823 325.727 271.209 332.654 278.536 336.892C285.852 341.145 352.672 373.215 352.672 373.215C370.495 383.29 377.767 406.136 391.974 416.685C391.166 403.627 385.551 376.916 380.064 364.97C374.209 362.127 371.359 362.116 363.221 356.295L299.377 311.421L295.721 298.32" stroke="#120071" stroke-width="0.769171" stroke-linecap="round" stroke-linejoin="round"/>
<path d="M227.921 192.235C225.498 195.383 210.971 215.484 199.466 231.366C196.78 235.073 192.886 237.729 188.454 238.877C184.022 240.025 179.329 239.594 175.18 237.657L115.124 206.91L127.287 181.688L180.793 205.591" stroke="#120071" stroke-width="0.769171" stroke-linecap="round" stroke-linejoin="round"/>
<path d="M251.103 197.425C255.086 201.327 259.694 204.536 264.735 206.919C259.093 219.904 249.44 228.311 236.598 234.089C221.919 227.943 217.9 221.37 212.601 213.253" stroke="#120071" stroke-width="0.769171" stroke-linecap="round" stroke-linejoin="round"/>
<path d="M328.6 251.783C302.25 216.465 274.328 210.875 264.735 206.919" stroke="#120071" stroke-width="0.769171" stroke-linecap="round" stroke-linejoin="round"/>
<path d="M216.778 160.547C216.778 160.547 223.414 188.491 251.103 197.424C246.833 193.214 243.309 188.309 240.681 182.919C232.494 166.386 231.834 146.042 234.046 128.307H235.152C241.868 127.924 241.742 120.774 237.576 122.486C231.364 125.032 226.221 114.787 226.519 108.324C224.617 108.767 222.842 109.639 221.329 110.874C218.184 113.628 215.717 117.071 214.122 120.936C212.526 124.8 211.844 128.981 212.13 133.152C212.923 138.558 216.646 142.879 226.221 142.351" stroke="#120071" stroke-width="0.769171" stroke-linecap="round" stroke-linejoin="round"/>
<path d="M216.778 160.547C212.78 166.592 181.603 203.549 177.435 210.313" stroke="#120071" stroke-width="0.769171" stroke-linecap="round" stroke-linejoin="round"/>
<path d="M89.559 189.853C87.5173 190.108 83.3085 190.961 82.0727 191.214C76.4601 192.369 77.1832 193.851 78.0765 193.937C81.6898 194.279 87.5598 194.237 90.9202 194.66C96.3223 195.342 106.744 196.319 110.827 198.743" stroke="#120071" stroke-width="0.769171" stroke-linecap="round" stroke-linejoin="round"/>
<path d="M90.6224 194.616C89.7269 194.957 88.921 195.254 88.5382 195.425C83.1786 197.466 84.1592 198.839 85.0502 198.783C88.668 198.57 94.4529 197.509 97.8536 197.379C101.943 197.303 106.031 197.616 110.062 198.315" stroke="#120071" stroke-width="0.769171" stroke-linecap="round" stroke-linejoin="round"/>
<path d="M245.998 72.4186C245.933 73.5129 245.544 74.5631 244.88 75.4357C244.216 76.3083 243.308 76.9639 242.271 77.3192C241.496 77.5855 240.672 77.6766 239.858 77.5861C239.044 77.4956 238.26 77.2257 237.562 76.7958C236.865 76.3659 236.272 75.7868 235.825 75.1001C235.379 74.4133 235.09 73.6361 234.98 72.8244C234.869 72.0126 234.941 71.1865 235.188 70.4056C235.435 69.6247 235.853 68.9083 236.41 68.3081C236.968 67.7079 237.652 67.2388 238.412 66.9345C239.173 66.6303 239.991 66.4985 240.809 66.5486C242.273 66.6448 243.64 67.3157 244.612 68.4151C245.584 69.5146 246.083 70.9535 245.998 72.4186Z" stroke="#120071" stroke-width="0.769171" stroke-linecap="round" stroke-linejoin="round"/>
<path d="M393.038 206.229C394.274 194.244 391.477 182.188 385.089 171.971C378.702 161.754 369.089 153.96 357.773 149.822C348.368 146.385 338.195 145.623 328.384 147.621C318.573 149.619 309.507 154.298 302.196 161.139C294.885 167.981 289.614 176.715 286.969 186.372C284.324 196.029 284.409 206.231 287.214 215.842" stroke="#120071" stroke-width="0.769171" stroke-linecap="round" stroke-linejoin="round"/>
<path d="M335.488 254.671C341.575 255.103 347.689 254.483 353.566 252.842" stroke="#120071" stroke-width="0.769171" stroke-linecap="round" stroke-linejoin="round"/>
<path d="M337.317 123.756C334.13 123.317 330.884 123.589 327.815 124.554C324.745 125.518 321.927 127.151 319.564 129.335C317.2 131.519 315.35 134.199 314.146 137.183C312.943 140.167 312.415 143.381 312.602 146.594C312.855 150.89 314.375 155.015 316.971 158.448C319.567 161.881 323.122 164.468 327.187 165.881C331.252 167.295 335.645 167.473 339.811 166.392C343.977 165.31 347.729 163.019 350.593 159.807C353.457 156.593 355.303 152.603 355.899 148.34C356.688 142.617 355.175 136.814 351.692 132.206C348.208 127.597 343.039 124.558 337.317 123.756Z" stroke="#120071" stroke-width="0.769171" stroke-linecap="round" stroke-linejoin="round"/>
<path d="M176.501 58.8498C171.077 45.015 162.337 32.7249 151.049 23.0601C139.761 13.3954 126.271 6.65215 111.766 3.42336C97.2609 0.194563 82.1847 0.579139 67.8631 4.54327C53.5414 8.5074 40.4132 15.9296 29.6327 26.1573C18.8523 36.385 10.7499 49.1048 6.03809 63.1981C1.32629 77.2914 0.149409 92.3266 2.61093 106.981C5.07245 121.636 11.097 135.462 20.1547 147.242C29.2125 159.023 41.026 168.397 54.5563 174.542C70.6788 181.734 88.5246 184.155 105.98 181.518" stroke="#120071" stroke-width="0.769171" stroke-linecap="round" stroke-linejoin="round"/>
<path d="M180.329 112.526C177.573 124.443 172.428 135.676 165.204 145.546C157.98 155.416 148.829 163.718 138.303 169.948C131.03 174.242 123.183 177.479 114.998 179.561" stroke="#120071" stroke-width="0.769171" stroke-linecap="round" stroke-linejoin="round"/>
<path d="M121.034 26.9502C109.278 21.7062 96.3157 19.7611 83.538 21.3235C70.7604 22.8859 58.649 27.8969 48.5027 35.8191C38.3564 43.7413 30.5578 54.2759 25.9433 66.2933C21.3288 78.3106 20.0725 91.3573 22.3089 104.034C24.5454 116.711 30.1904 128.541 38.6385 138.253C47.0866 147.966 58.0192 155.196 70.2639 159.168C82.5086 163.14 95.6035 163.704 108.144 160.8C120.685 157.896 132.199 151.633 141.451 142.682C177.081 108.387 167.358 47.587 121.034 26.9502Z" stroke="#120071" stroke-width="0.769171" stroke-linecap="round" stroke-linejoin="round"/>
<path d="M56.4683 240.511L75.3544 255.481L94.621 225.921" stroke="#120071" stroke-width="0.769171" stroke-linecap="round" stroke-linejoin="round"/>
<path d="M320 64.5899L338.886 79.5605L358.153 50" stroke="#120071" stroke-width="0.769171" stroke-linecap="round" stroke-linejoin="round"/>
<path d="M221.841 253.654L203.465 255.991" stroke="#120071" stroke-width="0.769171" stroke-linecap="round" stroke-linejoin="round"/>
<path d="M126.376 320.038L108 322.375" stroke="#120071" stroke-width="0.769171" stroke-linecap="round" stroke-linejoin="round"/>
<path d="M213.801 264.032L211.461 245.616" stroke="#120071" stroke-width="0.769171" stroke-linecap="round" stroke-linejoin="round"/>
<path d="M118.336 330.416L115.997 312" stroke="#120071" stroke-width="0.769171" stroke-linecap="round" stroke-linejoin="round"/>
<path d="M108.062 123.033C108.025 124.375 107.59 125.676 106.813 126.771C106.036 127.866 104.952 128.705 103.697 129.184C102.443 129.663 101.075 129.759 99.7658 129.46C98.457 129.161 97.2661 128.48 96.3439 127.505C95.4217 126.529 94.8096 125.302 94.585 123.978C94.3603 122.654 94.5332 121.294 95.0818 120.068C95.6305 118.843 96.5301 117.808 97.6671 117.094C98.804 116.38 100.127 116.019 101.469 116.057C103.267 116.113 104.97 116.878 106.205 118.185C107.44 119.492 108.108 121.235 108.062 123.033Z" stroke="#120071" stroke-width="0.769171" stroke-linecap="round" stroke-linejoin="round"/>
<path d="M106.956 84.8375C108.772 82.0809 109.882 78.9205 110.19 75.6343C110.497 72.348 109.993 69.0365 108.721 65.9908C107.449 62.9451 105.448 60.2586 102.895 58.1673C100.341 56.0761 97.3127 54.6442 94.076 53.9976C90.8394 53.351 87.4934 53.5094 84.3323 54.459C81.1712 55.4085 78.2917 57.1201 75.9471 59.4432C73.6025 61.7664 71.8645 64.6299 70.8859 67.7822C69.9073 70.9344 69.7181 74.2788 70.3349 77.5213C70.3842 77.866 70.4558 78.2063 70.5476 78.5421L80.331 76.7153C79.9235 75.3812 79.793 73.9778 79.9475 72.5914C80.1021 71.205 80.5384 69.8648 81.2297 68.6532C81.9209 67.4415 82.8526 66.384 83.9674 65.5454C85.0823 64.7069 86.3567 64.1051 87.7126 63.777C89.0684 63.4489 90.4771 63.4014 91.8519 63.6374C93.2268 63.8734 94.5389 64.388 95.7077 65.1495C96.8765 65.9111 97.8773 66.9035 98.6486 68.0658C99.42 69.2281 99.9456 70.5359 100.193 71.9087C101.089 76.7914 98.4357 80.5391 95.1313 84.6696C92.9619 87.2561 91.7729 90.5241 91.7732 93.9C91.724 95.7134 91.8046 97.529 92.0105 99.3334C92.259 101.706 93.6023 108.87 93.6023 108.87L103.677 106.956C103.549 106.956 102.315 98.9618 102.23 98.0685C101.996 96.4464 101.996 94.799 102.23 93.1768C102.873 89.9419 105.212 87.4747 106.956 84.8375Z" stroke="#120071" stroke-width="0.769171" stroke-linecap="round" stroke-linejoin="round"/>
<path d="M117.205 202.571C111.25 198.638 104.942 195.266 98.3641 192.497C93.083 190.566 87.6005 189.239 82.0212 188.541C73.8117 187.533 72.8737 185.324 81.8085 184.117C85.0962 183.719 88.4098 183.577 91.7195 183.692C97.9947 183.772 104.243 184.542 110.35 185.989" stroke="#120071" stroke-width="0.769171" stroke-linecap="round" stroke-linejoin="round"/>
</svg>
