<svg width="148" height="136" viewBox="0 0 148 136" fill="none" xmlns="http://www.w3.org/2000/svg">
<path d="M129.427 69.9497H137.819" stroke="#141220" stroke-width="0.769171" stroke-linecap="round" stroke-linejoin="round"/>
<path d="M133.623 74.1455V65.7529" stroke="#141220" stroke-width="0.769171" stroke-linecap="round" stroke-linejoin="round"/>
<path d="M14.3662 111.665L20.3005 117.599" stroke="#141220" stroke-width="0.769171" stroke-linecap="round" stroke-linejoin="round"/>
<path d="M14.3662 117.599L20.3005 111.665" stroke="#141220" stroke-width="0.769171" stroke-linecap="round" stroke-linejoin="round"/>
<path d="M20.6997 27.7651L23.7266 30.792" stroke="#141220" stroke-width="0.769171" stroke-linecap="round" stroke-linejoin="round"/>
<path d="M20.6997 30.792L23.7266 27.7651" stroke="#141220" stroke-width="0.769171" stroke-linecap="round" stroke-linejoin="round"/>
<path d="M101.723 3.00421L104.317 7.28391L107.368 0.890381" stroke="#141220" stroke-width="0.769171" stroke-linecap="round" stroke-linejoin="round"/>
<path d="M142.129 52.7981H146.706" stroke="#141220" stroke-width="0.769171" stroke-linecap="round" stroke-linejoin="round"/>
<path d="M144.417 55.0867V50.5093" stroke="#141220" stroke-width="0.769171" stroke-linecap="round" stroke-linejoin="round"/>
<path d="M29.3321 52.7979H1.29443V91.0695L5.21672 86.5992H29.3321V52.7979Z" stroke="#141220" stroke-width="0.769171" stroke-linecap="round" stroke-linejoin="round"/>
<path d="M9.85547 69.9497H29.3322" stroke="#141220" stroke-width="0.769171" stroke-linecap="round" stroke-linejoin="round"/>
<path d="M9.85547 74.7881H29.3322" stroke="#141220" stroke-width="0.769171" stroke-linecap="round" stroke-linejoin="round"/>
<path d="M9.83691 64.9177H29.332" stroke="#141220" stroke-width="0.769171" stroke-linecap="round" stroke-linejoin="round"/>
<path d="M114.24 117.848C116.651 117.4 118.83 116.123 120.398 114.237C121.965 112.351 122.824 109.976 122.823 107.524V21.1188C122.824 19.7401 122.552 18.3749 122.025 17.1012C121.497 15.8274 120.724 14.6701 119.749 13.6952C118.774 12.7203 117.617 11.9471 116.343 11.4196C115.069 10.892 113.704 10.6206 112.326 10.6209H43.77C42.3912 10.6204 41.0258 10.8917 39.7519 11.4191C38.478 11.9465 37.3204 12.7198 36.3454 13.6946C35.3704 14.6695 34.597 15.827 34.0694 17.1008C33.5418 18.3747 33.2703 19.74 33.2705 21.1188V107.524C33.2709 109.6 33.887 111.63 35.0408 113.357C36.1946 115.083 37.8344 116.428 39.7528 117.223C41.0264 117.751 42.3914 118.022 43.77 118.022H66.4596" stroke="#141220" stroke-width="0.769171" stroke-linecap="round" stroke-linejoin="round"/>
<path d="M33.2704 107.524V21.1186C33.2705 19.7399 33.5422 18.3747 34.0699 17.1009C34.5976 15.8272 35.371 14.6699 36.3459 13.6951C37.3209 12.7202 38.4783 11.947 39.7521 11.4195C41.0259 10.892 42.3912 10.6205 43.7699 10.6206H39.83C37.0458 10.6206 34.3756 11.7266 32.4068 13.6954C30.4381 15.6641 29.332 18.3343 29.332 21.1186V107.524C29.332 110.308 30.4381 112.978 32.4068 114.947C34.3756 116.916 37.0458 118.022 39.83 118.022H43.7699C42.3912 118.022 41.0259 117.751 39.7521 117.223C38.4783 116.696 37.3209 115.923 36.3462 114.947C34.3774 112.978 33.2711 110.308 33.2704 107.524Z" fill="#FFD647"/>
<path d="M33.2704 107.524V21.1186C33.2705 19.7399 33.5422 18.3747 34.0699 17.1009C34.5976 15.8272 35.371 14.6699 36.3459 13.6951C37.3209 12.7202 38.4783 11.947 39.7521 11.4195C41.0259 10.892 42.3912 10.6205 43.7699 10.6206H39.83C37.0458 10.6206 34.3756 11.7266 32.4068 13.6954C30.4381 15.6641 29.332 18.3343 29.332 21.1186V107.524C29.332 110.308 30.4381 112.978 32.4068 114.947C34.3756 116.916 37.0458 118.022 39.83 118.022H43.7699C42.3912 118.022 41.0259 117.751 39.7521 117.223C38.4783 116.696 37.3209 115.923 36.3462 114.947C34.3774 112.978 33.2711 110.308 33.2704 107.524Z" stroke="#141220" stroke-width="0.769171" stroke-linecap="round" stroke-linejoin="round"/>
<path d="M122.823 23.6045H33.2705V68.2069H122.823V23.6045Z" stroke="#141220" stroke-width="0.769171" stroke-linecap="round" stroke-linejoin="round"/>
<path d="M33.2705 68.2075V105.036H66.4596V86.8363H114.24V105.036H122.823V68.2075H33.2705ZM49.4839 93.9423C47.5314 93.942 45.6228 93.3628 43.9994 92.2781C42.3759 91.1934 41.1104 89.6518 40.3628 87.8481C39.8045 86.4993 39.5522 85.0436 39.624 83.5857C39.6958 82.1278 40.0899 80.7039 40.778 79.4166C41.466 78.1292 42.4309 77.0104 43.6032 76.1407C44.7755 75.271 46.126 74.672 47.5576 74.3868C48.9098 74.1166 50.3035 74.1327 51.6491 74.434C52.9947 74.7352 54.2623 75.315 55.3701 76.136C56.478 76.9569 57.4017 78.0008 58.0816 79.2004C58.7615 80.4 59.1826 81.7287 59.3178 83.101C59.453 84.4732 59.2992 85.8586 58.8664 87.1678C58.4336 88.477 57.7314 89.6811 56.805 90.7024C55.8786 91.7237 54.7485 92.5397 53.4876 93.0977C52.2266 93.6557 50.8628 93.9435 49.4839 93.9423ZM70.3222 81.1813C69.4553 81.183 68.6188 80.8618 67.9759 80.2803C67.333 79.6987 66.9297 78.8986 66.8446 78.0359C66.7596 77.1732 66.9989 76.3097 67.5159 75.6138C68.0329 74.9179 68.7905 74.4396 69.641 74.272C70.1181 74.1779 70.6096 74.1847 71.084 74.2919C71.5583 74.3991 72.0049 74.6042 72.3953 74.8942C72.7856 75.1842 73.111 75.5527 73.3505 75.9758C73.59 76.399 73.7384 76.8676 73.7861 77.3516C73.8338 77.8355 73.7798 78.3241 73.6275 78.7859C73.4753 79.2477 73.2281 79.6726 72.9019 80.0332C72.5757 80.3938 72.1777 80.6823 71.7334 80.88C71.2892 81.0777 70.8085 81.1804 70.3222 81.1813ZM79.3898 81.1813C78.8739 81.1817 78.3643 81.0675 77.8979 80.8471C77.4315 80.6267 77.0198 80.3055 76.6925 79.9067C76.3652 79.5079 76.1306 79.0415 76.0054 78.541C75.8802 78.0405 75.8677 77.5185 75.9688 77.0126C76.103 76.3358 76.4351 75.7141 76.923 75.2262C77.4109 74.7383 78.0326 74.4062 78.7094 74.272C79.2153 74.1709 79.7373 74.1834 80.2378 74.3086C80.7383 74.4338 81.2047 74.6684 81.6035 74.9957C82.0023 75.323 82.3235 75.7347 82.5439 76.2011C82.7643 76.6675 82.8785 77.1771 82.8781 77.693C82.8783 78.1511 82.7882 78.6048 82.613 79.0281C82.4377 79.4514 82.1808 79.8361 81.8568 80.16C81.5329 80.484 81.1482 80.741 80.7249 80.9162C80.3016 81.0914 79.8479 81.1815 79.3898 81.1813ZM88.4122 81.1446C87.8963 81.1449 87.3867 81.0308 86.9203 80.8104C86.4539 80.59 86.0422 80.2688 85.7149 79.87C85.3876 79.4712 85.153 79.0047 85.0278 78.5042C84.9027 78.0038 84.8901 77.4817 84.9912 76.9758C85.1254 76.2991 85.4575 75.6773 85.9454 75.1894C86.4333 74.7016 87.055 74.3695 87.7318 74.2352C88.2377 74.1342 88.7597 74.1467 89.2602 74.2719C89.7607 74.397 90.2271 74.6317 90.6259 74.959C91.0247 75.2862 91.3459 75.6979 91.5663 76.1644C91.7867 76.6308 91.9009 77.1403 91.9005 77.6562C91.9006 78.1143 91.8105 78.568 91.6352 78.9913C91.4599 79.4145 91.203 79.7991 90.879 80.1231C90.5551 80.447 90.1705 80.704 89.7472 80.8792C89.3239 81.0545 88.8703 81.1447 88.4122 81.1446ZM97.5195 81.1813C97.0036 81.1817 96.4941 81.0675 96.0277 80.8471C95.5612 80.6267 95.1495 80.3055 94.8223 79.9067C94.495 79.5079 94.2603 79.0415 94.1352 78.541C94.01 78.0405 93.9975 77.5185 94.0985 77.0126C94.2328 76.3358 94.5649 75.7141 95.0527 75.2262C95.5406 74.7383 96.1624 74.4062 96.8392 74.272C97.3451 74.1709 97.8671 74.1834 98.3676 74.3086C98.868 74.4338 99.3345 74.6684 99.7333 74.9957C100.132 75.323 100.453 75.7347 100.674 76.2011C100.894 76.6675 101.008 77.1771 101.008 77.693C101.008 78.3831 100.803 79.0577 100.419 79.6315C100.035 80.2053 99.4904 80.6525 98.8527 80.9165C98.4291 81.0919 97.975 81.1819 97.5165 81.1813H97.5195ZM106.837 81.1446C106.321 81.1449 105.812 81.0308 105.345 80.8104C104.879 80.59 104.467 80.2688 104.14 79.87C103.813 79.4712 103.578 79.0047 103.453 78.5042C103.328 78.0038 103.315 77.4817 103.416 76.9758C103.551 76.2991 103.883 75.6773 104.371 75.1894C104.858 74.7016 105.48 74.3695 106.157 74.2352C106.663 74.1342 107.185 74.1467 107.685 74.2719C108.186 74.397 108.652 74.6317 109.051 74.959C109.45 75.2862 109.771 75.6979 109.992 76.1644C110.212 76.6308 110.326 77.1403 110.326 77.6562C110.326 78.1147 110.236 78.5688 110.06 78.9923C109.885 79.4158 109.627 79.8006 109.302 80.1244C108.647 80.7781 107.759 81.145 106.833 81.1446H106.837Z" fill="#FF6635"/>
<path d="M114.24 105.037H122.823V68.2075H33.2705V105.037H66.4596" stroke="#141220" stroke-width="0.769171" stroke-linecap="round" stroke-linejoin="round"/>
<path d="M69.7935 17.1128H85.7291" stroke="#141220" stroke-width="0.769171" stroke-linecap="round" stroke-linejoin="round"/>
<path d="M49.484 49.0202C54.9354 49.0202 59.3551 44.6004 59.3551 39.149C59.3551 33.6976 54.9354 29.2778 49.484 29.2778C44.0325 29.2778 39.6128 33.6976 39.6128 39.149C39.6128 44.6004 44.0325 49.0202 49.484 49.0202Z" stroke="#141220" stroke-width="0.769171" stroke-linecap="round" stroke-linejoin="round"/>
<path d="M40.1621 42.3724C40.8198 44.281 42.0475 45.9418 43.6794 47.1303C45.3113 48.3187 47.2686 48.9776 49.287 49.018C51.3054 49.0583 53.2875 48.478 54.9655 47.3557C56.6435 46.2333 57.9366 44.6229 58.67 42.742C53.1925 40.208 45.8003 40.2203 40.1621 42.3724Z" fill="#FFD647"/>
<path d="M40.1621 42.3724C40.8198 44.281 42.0475 45.9418 43.6794 47.1303C45.3113 48.3187 47.2686 48.9776 49.287 49.018C51.3054 49.0583 53.2875 48.478 54.9655 47.3557C56.6435 46.2333 57.9366 44.6229 58.67 42.742C53.1925 40.208 45.8003 40.2203 40.1621 42.3724Z" stroke="#141220" stroke-width="0.769171" stroke-linecap="round" stroke-linejoin="round"/>
<path d="M49.4155 38.7339C49.6966 38.7339 49.975 38.6785 50.2347 38.5709C50.4944 38.4633 50.7304 38.3057 50.9292 38.1069C51.1279 37.9081 51.2856 37.6721 51.3932 37.4124C51.5008 37.1527 51.5561 36.8744 51.5561 36.5933C51.5561 36.3121 51.5008 36.0338 51.3932 35.7741C51.2856 35.5144 51.1279 35.2784 50.9292 35.0796C50.7304 34.8808 50.4944 34.7232 50.2347 34.6156C49.975 34.508 49.6966 34.4526 49.4155 34.4526C48.8478 34.4526 48.3033 34.6782 47.9019 35.0796C47.5004 35.481 47.2749 36.0255 47.2749 36.5933C47.2749 37.161 47.5004 37.7055 47.9019 38.1069C48.3033 38.5083 48.8478 38.7339 49.4155 38.7339Z" fill="#FFD647"/>
<path d="M49.4155 38.7339C49.6966 38.7339 49.975 38.6785 50.2347 38.5709C50.4944 38.4633 50.7304 38.3057 50.9292 38.1069C51.1279 37.9081 51.2856 37.6721 51.3932 37.4124C51.5008 37.1527 51.5561 36.8744 51.5561 36.5933C51.5561 36.3121 51.5008 36.0338 51.3932 35.7741C51.2856 35.5144 51.1279 35.2784 50.9292 35.0796C50.7304 34.8808 50.4944 34.7232 50.2347 34.6156C49.975 34.508 49.6966 34.4526 49.4155 34.4526C48.8478 34.4526 48.3033 34.6782 47.9019 35.0796C47.5004 35.481 47.2749 36.0255 47.2749 36.5933C47.2749 37.161 47.5004 37.7055 47.9019 38.1069C48.3033 38.5083 48.8478 38.7339 49.4155 38.7339Z" stroke="#141220" stroke-width="0.769171" stroke-linecap="round" stroke-linejoin="round"/>
<path d="M70.3218 36.2555C70.7799 36.2555 71.2336 36.1653 71.6568 35.99C72.08 35.8147 72.4646 35.5577 72.7885 35.2338C73.1124 34.9099 73.3694 34.5253 73.5447 34.1021C73.72 33.6789 73.8102 33.2253 73.8102 32.7672C73.8102 32.3091 73.72 31.8555 73.5447 31.4322C73.3694 31.009 73.1124 30.6244 72.7885 30.3005C72.4646 29.9766 72.08 29.7196 71.6568 29.5443C71.2336 29.369 70.7799 29.2788 70.3218 29.2788C69.3967 29.2788 68.5094 29.6463 67.8552 30.3005C67.201 30.9547 66.8335 31.842 66.8335 32.7672C66.8335 33.6923 67.201 34.5796 67.8552 35.2338C68.5094 35.888 69.3967 36.2555 70.3218 36.2555Z" fill="#FFD647"/>
<path d="M70.3218 36.2555C70.7799 36.2555 71.2336 36.1653 71.6568 35.99C72.08 35.8147 72.4646 35.5577 72.7885 35.2338C73.1124 34.9099 73.3694 34.5253 73.5447 34.1021C73.72 33.6789 73.8102 33.2253 73.8102 32.7672C73.8102 32.3091 73.72 31.8555 73.5447 31.4322C73.3694 31.009 73.1124 30.6244 72.7885 30.3005C72.4646 29.9766 72.08 29.7196 71.6568 29.5443C71.2336 29.369 70.7799 29.2788 70.3218 29.2788C69.3967 29.2788 68.5094 29.6463 67.8552 30.3005C67.201 30.9547 66.8335 31.842 66.8335 32.7672C66.8335 33.6923 67.201 34.5796 67.8552 35.2338C68.5094 35.888 69.3967 36.2555 70.3218 36.2555Z" stroke="#141220" stroke-width="0.769171" stroke-linecap="round" stroke-linejoin="round"/>
<path d="M79.3897 36.2555C79.8478 36.2555 80.3014 36.1653 80.7247 35.99C81.1479 35.8147 81.5324 35.5577 81.8564 35.2338C82.1803 34.9099 82.4372 34.5253 82.6125 34.1021C82.7878 33.6789 82.8781 33.2253 82.8781 32.7672C82.8781 32.3091 82.7878 31.8555 82.6125 31.4322C82.4372 31.009 82.1803 30.6244 81.8564 30.3005C81.5324 29.9766 81.1479 29.7196 80.7247 29.5443C80.3014 29.369 79.8478 29.2788 79.3897 29.2788C78.4645 29.2788 77.5773 29.6463 76.9231 30.3005C76.2689 30.9547 75.9014 31.842 75.9014 32.7672C75.9014 33.6923 76.2689 34.5796 76.9231 35.2338C77.5773 35.888 78.4645 36.2555 79.3897 36.2555Z" fill="#FFD647"/>
<path d="M79.3897 36.2555C79.8478 36.2555 80.3014 36.1653 80.7247 35.99C81.1479 35.8147 81.5324 35.5577 81.8564 35.2338C82.1803 34.9099 82.4372 34.5253 82.6125 34.1021C82.7878 33.6789 82.8781 33.2253 82.8781 32.7672C82.8781 32.3091 82.7878 31.8555 82.6125 31.4322C82.4372 31.009 82.1803 30.6244 81.8564 30.3005C81.5324 29.9766 81.1479 29.7196 80.7247 29.5443C80.3014 29.369 79.8478 29.2788 79.3897 29.2788C78.4645 29.2788 77.5773 29.6463 76.9231 30.3005C76.2689 30.9547 75.9014 31.842 75.9014 32.7672C75.9014 33.6923 76.2689 34.5796 76.9231 35.2338C77.5773 35.888 78.4645 36.2555 79.3897 36.2555Z" stroke="#141220" stroke-width="0.769171" stroke-linecap="round" stroke-linejoin="round"/>
<path d="M88.4122 36.2179C88.8703 36.2179 89.3239 36.1277 89.7471 35.9524C90.1703 35.7771 90.5549 35.5201 90.8788 35.1962C91.2027 34.8723 91.4597 34.4877 91.635 34.0645C91.8103 33.6413 91.9005 33.1877 91.9005 32.7296C91.9005 32.2715 91.8103 31.8179 91.635 31.3946C91.4597 30.9714 91.2027 30.5869 90.8788 30.2629C90.5549 29.939 90.1703 29.6821 89.7471 29.5067C89.3239 29.3314 88.8703 29.2412 88.4122 29.2412C87.487 29.2412 86.5997 29.6087 85.9455 30.2629C85.2913 30.9171 84.9238 31.8044 84.9238 32.7296C84.9238 33.6547 85.2913 34.542 85.9455 35.1962C86.5997 35.8504 87.487 36.2179 88.4122 36.2179Z" fill="#FFD647"/>
<path d="M88.4122 36.2179C88.8703 36.2179 89.3239 36.1277 89.7471 35.9524C90.1703 35.7771 90.5549 35.5201 90.8788 35.1962C91.2027 34.8723 91.4597 34.4877 91.635 34.0645C91.8103 33.6413 91.9005 33.1877 91.9005 32.7296C91.9005 32.2715 91.8103 31.8179 91.635 31.3946C91.4597 30.9714 91.2027 30.5869 90.8788 30.2629C90.5549 29.939 90.1703 29.6821 89.7471 29.5067C89.3239 29.3314 88.8703 29.2412 88.4122 29.2412C87.487 29.2412 86.5997 29.6087 85.9455 30.2629C85.2913 30.9171 84.9238 31.8044 84.9238 32.7296C84.9238 33.6547 85.2913 34.542 85.9455 35.1962C86.5997 35.8504 87.487 36.2179 88.4122 36.2179Z" stroke="#141220" stroke-width="0.769171" stroke-linecap="round" stroke-linejoin="round"/>
<path d="M97.5162 36.2555C97.9743 36.2555 98.4279 36.1653 98.8511 35.99C99.2743 35.8147 99.6589 35.5577 99.9828 35.2338C100.307 34.9099 100.564 34.5253 100.739 34.1021C100.914 33.6789 101.005 33.2253 101.005 32.7672C101.005 32.3091 100.914 31.8555 100.739 31.4322C100.564 31.009 100.307 30.6244 99.9828 30.3005C99.6589 29.9766 99.2743 29.7196 98.8511 29.5443C98.4279 29.369 97.9743 29.2788 97.5162 29.2788C96.591 29.2788 95.7037 29.6463 95.0495 30.3005C94.3954 30.9547 94.0278 31.842 94.0278 32.7672C94.0278 33.6923 94.3954 34.5796 95.0495 35.2338C95.7037 35.888 96.591 36.2555 97.5162 36.2555Z" stroke="#141220" stroke-width="0.769171" stroke-linecap="round" stroke-linejoin="round"/>
<path d="M106.834 36.2179C107.292 36.2179 107.746 36.1277 108.169 35.9524C108.592 35.7771 108.977 35.5201 109.301 35.1962C109.625 34.8723 109.882 34.4877 110.057 34.0645C110.232 33.6413 110.322 33.1877 110.322 32.7296C110.322 32.2715 110.232 31.8179 110.057 31.3946C109.882 30.9714 109.625 30.5869 109.301 30.2629C108.977 29.939 108.592 29.6821 108.169 29.5067C107.746 29.3314 107.292 29.2412 106.834 29.2412C105.909 29.2412 105.022 29.6087 104.367 30.2629C103.713 30.9171 103.346 31.8044 103.346 32.7296C103.346 33.6547 103.713 34.542 104.367 35.1962C105.022 35.8504 105.909 36.2179 106.834 36.2179Z" stroke="#141220" stroke-width="0.769171" stroke-linecap="round" stroke-linejoin="round"/>
<path d="M49.4835 74.2007C47.531 74.2011 45.6224 74.7802 43.9989 75.8649C42.3755 76.9497 41.11 78.4913 40.3623 80.295C39.8039 81.6437 39.5515 83.0994 39.6233 84.5574C39.695 86.0153 40.0891 87.4393 40.7772 88.7267C41.4652 90.014 42.4302 91.1328 43.6026 92.0025C44.7749 92.8722 46.1255 93.4712 47.5572 93.7563C48.9088 94.0252 50.3018 94.0082 51.6464 93.7063C52.9911 93.4044 54.2577 92.8243 55.3646 92.0034C56.4716 91.1825 57.3944 90.1389 58.0737 88.9398C58.753 87.7407 59.1738 86.4127 59.3089 85.0412C59.444 83.6697 59.2904 82.2851 58.8581 80.9765C58.4258 79.6679 57.7244 78.4644 56.7989 77.4432C55.8734 76.4221 54.7443 75.6061 53.4844 75.0476C52.2245 74.4891 50.8616 74.2006 49.4835 74.2007Z" stroke="#141220" stroke-width="0.769171" stroke-linecap="round" stroke-linejoin="round"/>
<path d="M47.1948 84.071H51.7722" stroke="#141220" stroke-width="0.769171" stroke-linecap="round" stroke-linejoin="round"/>
<path d="M49.4839 86.3602V81.782" stroke="#141220" stroke-width="0.769171" stroke-linecap="round" stroke-linejoin="round"/>
<path d="M70.3218 81.1813C71.247 81.1813 72.1343 80.8138 72.7885 80.1596C73.4427 79.5054 73.8102 78.6181 73.8102 77.6929C73.8102 76.7678 73.4427 75.8805 72.7885 75.2263C72.1343 74.5721 71.247 74.2046 70.3218 74.2046C69.3967 74.2046 68.5094 74.5721 67.8552 75.2263C67.201 75.8805 66.8335 76.7678 66.8335 77.6929C66.8335 78.6181 67.201 79.5054 67.8552 80.1596C68.5094 80.8138 69.3967 81.1813 70.3218 81.1813Z" stroke="#141220" stroke-width="0.769171" stroke-linecap="round" stroke-linejoin="round"/>
<path d="M79.3896 81.1811C80.3149 81.1811 81.2023 80.8135 81.8565 80.1593C82.5108 79.505 82.8783 78.6176 82.8783 77.6924C82.8783 76.7671 82.5108 75.8797 81.8565 75.2254C81.2023 74.5712 80.3149 74.2036 79.3896 74.2036C78.4643 74.2036 77.577 74.5712 76.9227 75.2254C76.2684 75.8797 75.9009 76.7671 75.9009 77.6924C75.9009 78.6176 76.2684 79.505 76.9227 80.1593C77.577 80.8135 78.4643 81.1811 79.3896 81.1811Z" stroke="#141220" stroke-width="0.769171" stroke-linecap="round" stroke-linejoin="round"/>
<path d="M88.4118 74.1677C87.896 74.1674 87.3864 74.2815 86.92 74.5019C86.4535 74.7223 86.0418 75.0435 85.7146 75.4423C85.3873 75.8411 85.1526 76.3076 85.0275 76.8081C84.9023 77.3085 84.8898 77.8305 84.9908 78.3364C85.1251 79.0132 85.4572 79.635 85.9451 80.1229C86.4329 80.6107 87.0547 80.9428 87.7315 81.0771C88.2374 81.1781 88.7594 81.1656 89.2599 81.0404C89.7603 80.9153 90.2268 80.6806 90.6256 80.3533C91.0244 80.0261 91.3456 79.6144 91.566 79.1479C91.7864 78.6815 91.9006 78.172 91.9002 77.6561C91.8996 76.7311 91.5319 75.8442 90.8778 75.1901C90.2237 74.536 89.3368 74.1683 88.4118 74.1677Z" stroke="#141220" stroke-width="0.769171" stroke-linecap="round" stroke-linejoin="round"/>
<path d="M97.5166 81.1811C98.4418 81.1811 99.3292 80.8135 99.9835 80.1593C100.638 79.505 101.005 78.6176 101.005 77.6924C101.005 76.7671 100.638 75.8797 99.9835 75.2254C99.3292 74.5712 98.4418 74.2036 97.5166 74.2036C96.5913 74.2036 95.7039 74.5712 95.0497 75.2254C94.3954 75.8797 94.0278 76.7671 94.0278 77.6924C94.0278 78.6176 94.3954 79.505 95.0497 80.1593C95.7039 80.8135 96.5913 81.1811 97.5166 81.1811Z" stroke="#141220" stroke-width="0.769171" stroke-linecap="round" stroke-linejoin="round"/>
<path d="M106.833 74.1677C106.317 74.1674 105.807 74.2815 105.341 74.5019C104.874 74.7223 104.463 75.0435 104.135 75.4423C103.808 75.8411 103.574 76.3076 103.448 76.8081C103.323 77.3085 103.311 77.8305 103.412 78.3364C103.546 79.0132 103.878 79.635 104.366 80.1229C104.854 80.6107 105.476 80.9428 106.152 81.0771C106.658 81.1781 107.18 81.1656 107.681 81.0404C108.181 80.9153 108.648 80.6806 109.046 80.3533C109.445 80.0261 109.766 79.6144 109.987 79.1479C110.207 78.6815 110.321 78.172 110.321 77.6561C110.321 77.198 110.231 76.7443 110.056 76.321C109.88 75.8977 109.624 75.5132 109.3 75.1892C108.976 74.8653 108.591 74.6083 108.168 74.4331C107.745 74.2578 107.291 74.1676 106.833 74.1677Z" stroke="#141220" stroke-width="0.769171" stroke-linecap="round" stroke-linejoin="round"/>
<path d="M68.0332 77.6929H72.6114" stroke="#141220" stroke-width="0.769171" stroke-linecap="round" stroke-linejoin="round"/>
<path d="M70.3218 79.982V75.4045" stroke="#141220" stroke-width="0.769171" stroke-linecap="round" stroke-linejoin="round"/>
<path d="M77.1006 77.6929H81.6788" stroke="#141220" stroke-width="0.769171" stroke-linecap="round" stroke-linejoin="round"/>
<path d="M79.3896 79.982V75.4045" stroke="#141220" stroke-width="0.769171" stroke-linecap="round" stroke-linejoin="round"/>
<path d="M86.123 77.6929H90.7005" stroke="#141220" stroke-width="0.769171" stroke-linecap="round" stroke-linejoin="round"/>
<path d="M88.4121 79.982V75.4045" stroke="#141220" stroke-width="0.769171" stroke-linecap="round" stroke-linejoin="round"/>
<path d="M95.2271 77.6929H99.8045" stroke="#141220" stroke-width="0.769171" stroke-linecap="round" stroke-linejoin="round"/>
<path d="M97.5166 79.982V75.4045" stroke="#141220" stroke-width="0.769171" stroke-linecap="round" stroke-linejoin="round"/>
<path d="M104.545 77.6929H109.123" stroke="#141220" stroke-width="0.769171" stroke-linecap="round" stroke-linejoin="round"/>
<path d="M106.834 79.982V75.4045" stroke="#141220" stroke-width="0.769171" stroke-linecap="round" stroke-linejoin="round"/>
<path d="M66.4595 41.4873V58.4898H109.31L114.24 64.1096V41.4873H66.4595Z" stroke="#141220" stroke-width="0.769171" stroke-linecap="round" stroke-linejoin="round"/>
<path d="M73.8105 48.1094H107.088" stroke="#141220" stroke-width="0.769171" stroke-linecap="round" stroke-linejoin="round"/>
<path d="M73.8105 52.2251H107.088" stroke="#141220" stroke-width="0.769171" stroke-linecap="round" stroke-linejoin="round"/>
<path d="M66.4595 86.8379V129.325H109.31L114.24 134.945V86.8379H66.4595Z" stroke="#141220" stroke-width="0.769171" stroke-linecap="round" stroke-linejoin="round"/>
<path d="M90.7006 90.114L96.4397 101.743L109.273 103.607L99.987 112.66L102.179 125.441L90.7006 119.406L79.2222 125.441L81.4149 112.66L72.1284 103.607L84.9614 101.743L90.7006 90.114Z" fill="#FFD647"/>
<path d="M90.7006 90.114L96.4397 101.743L109.273 103.607L99.987 112.66L102.179 125.441L90.7006 119.406L79.2222 125.441L81.4149 112.66L72.1284 103.607L84.9614 101.743L90.7006 90.114Z" stroke="#141220" stroke-width="0.769171" stroke-linecap="round" stroke-linejoin="round"/>
<path d="M140.34 120.927L145.602 118.716L131.511 104.625V124.636L137.144 122.27V117.729L140.34 120.927Z" stroke="#141220" stroke-width="0.769171" stroke-linecap="round" stroke-linejoin="round"/>
</svg>
