<svg width="148" height="143" viewBox="0 0 148 143" fill="none" xmlns="http://www.w3.org/2000/svg">
<path d="M93.8481 111.669V93.8467" stroke="#141220" stroke-width="0.769171" stroke-linecap="round" stroke-linejoin="round"/>
<path d="M66.6479 67.6736H15.1147V129.882H74.1833" stroke="#141220" stroke-width="0.769171" stroke-linecap="round" stroke-linejoin="round"/>
<path d="M31.1997 75.9597C28.6022 75.9604 26.0633 76.731 23.9038 78.1743C21.7442 79.6176 20.061 81.6687 19.067 84.0683C18.0736 86.4681 17.814 89.1085 18.321 91.6557C18.828 94.203 20.0789 96.5428 21.9154 98.3793C23.7519 100.216 26.0917 101.467 28.6389 101.974C31.1862 102.481 33.8266 102.221 36.2263 101.228C39.0346 100.066 41.3528 97.9655 42.7859 95.2854C44.219 92.6053 44.6782 89.5111 44.0852 86.5303C43.4923 83.5495 41.8838 80.8667 39.5341 78.9391C37.1844 77.0115 34.2389 75.9586 31.1997 75.9597Z" stroke="#141220" stroke-width="0.769171" stroke-linecap="round" stroke-linejoin="round"/>
<path d="M40.5757 98.2894C39.3536 97.0423 37.8949 96.0515 36.285 95.3753C34.6752 94.699 32.9466 94.3508 31.2004 94.3511C29.4543 94.3508 27.7257 94.699 26.1158 95.3753C24.506 96.0515 23.0473 97.0423 21.8252 98.2894C23.048 99.5355 24.5069 100.525 26.1166 101.201C27.7263 101.877 29.4546 102.225 31.2004 102.226C32.9463 102.225 34.6746 101.877 36.2844 101.201C37.8941 100.526 39.353 99.5357 40.5757 98.2894Z" stroke="#141220" stroke-width="0.769171" stroke-linecap="round" stroke-linejoin="round"/>
<path d="M30.7473 91.5441C31.2364 91.5441 31.7056 91.3498 32.0515 91.0039C32.3974 90.658 32.5917 90.1888 32.5917 89.6997C32.5917 89.2105 32.3974 88.7413 32.0515 88.3954C31.7056 88.0495 31.2364 87.8552 30.7473 87.8552C30.2581 87.8552 29.789 88.0495 29.4431 88.3954C29.0972 88.7413 28.9028 89.2105 28.9028 89.6997C28.9028 90.1888 29.0972 90.658 29.4431 91.0039C29.789 91.3498 30.2581 91.5441 30.7473 91.5441Z" stroke="#141220" stroke-width="0.769171" stroke-linecap="round" stroke-linejoin="round"/>
<path d="M93.8483 15.0077V1.36963H15.1147V63.5783H65.49" stroke="#141220" stroke-width="0.769171" stroke-linecap="round" stroke-linejoin="round"/>
<path d="M51.6035 18.8796H65.4031" stroke="#141220" stroke-width="0.769171" stroke-linecap="round" stroke-linejoin="round"/>
<path d="M51.6035 22.9954H65.4031" stroke="#141220" stroke-width="0.769171" stroke-linecap="round" stroke-linejoin="round"/>
<path d="M51.6035 27.1472H65.4031" stroke="#141220" stroke-width="0.769171" stroke-linecap="round" stroke-linejoin="round"/>
<path d="M31.1997 10.176C27.7162 10.1758 24.3753 11.5594 21.912 14.0225C19.4487 16.4855 18.0647 19.8263 18.0645 23.3098C18.0643 26.7933 19.4479 30.1342 21.9109 32.5975C24.374 35.0608 27.7147 36.4448 31.1982 36.445C34.6817 36.4452 38.0226 35.0616 40.4859 32.5986C42.9493 30.1355 44.3333 26.7948 44.3335 23.3113C44.3337 19.8278 42.9501 16.4869 40.487 14.0236C38.0239 11.5602 34.6832 10.1762 31.1997 10.176Z" stroke="#141220" stroke-width="0.769171" stroke-linecap="round" stroke-linejoin="round"/>
<path d="M40.5757 32.5074C39.3536 31.2601 37.8949 30.2692 36.2851 29.5928C34.6752 28.9163 32.9466 28.5679 31.2004 28.5679C29.4542 28.5679 27.7256 28.9163 26.1158 29.5928C24.5059 30.2692 23.0473 31.2601 21.8252 32.5074C23.048 33.7534 24.5069 34.7432 26.1166 35.4189C27.7263 36.0946 29.4546 36.4426 31.2004 36.4426C32.9462 36.4426 34.6745 36.0946 36.2843 35.4189C37.894 34.7432 39.3529 33.7534 40.5757 32.5074Z" stroke="#141220" stroke-width="0.769171" stroke-linecap="round" stroke-linejoin="round"/>
<path d="M30.7473 25.7626C31.2364 25.7626 31.7056 25.5683 32.0515 25.2224C32.3974 24.8765 32.5917 24.4073 32.5917 23.9182C32.5917 23.429 32.3974 22.9599 32.0515 22.614C31.7056 22.2681 31.2364 22.0737 30.7473 22.0737C30.2581 22.0737 29.789 22.2681 29.4431 22.614C29.0972 22.9599 28.9028 23.429 28.9028 23.9182C28.9028 24.4073 29.0972 24.8765 29.4431 25.2224C29.789 25.5683 30.2581 25.7626 30.7473 25.7626Z" stroke="#141220" stroke-width="0.769171" stroke-linecap="round" stroke-linejoin="round"/>
<path d="M39.7939 119.308C44.4976 123.833 51.6779 119.21 47.8827 112.826L39.7939 119.308Z" fill="#FF6635"/>
<path d="M39.7939 119.308C44.4976 123.833 51.6779 119.21 47.8827 112.826L39.7939 119.308Z" stroke="#141220" stroke-width="0.769171" stroke-linecap="round" stroke-linejoin="round"/>
<path d="M47.9902 112.74C52.6993 117.315 59.9293 112.664 56.0866 106.253L47.9902 112.74Z" fill="#FF6635"/>
<path d="M47.9902 112.74C52.6993 117.315 59.9293 112.664 56.0866 106.253L47.9902 112.74Z" stroke="#141220" stroke-width="0.769171" stroke-linecap="round" stroke-linejoin="round"/>
<path d="M69.1367 73.4761L26.6825 107.496C25.3071 108.562 24.2825 110.016 23.7408 111.67C23.1992 113.323 23.1652 115.102 23.6434 116.775C23.9615 117.886 24.4974 118.923 25.2199 119.825C25.9424 120.726 26.8371 121.476 27.852 122.028C28.8666 122.581 29.9812 122.926 31.1307 123.044C32.2802 123.161 33.4415 123.049 34.547 122.712C35.6528 122.377 36.6807 121.824 37.5708 121.087L80.2936 86.8517C75.6662 83.2368 71.8627 78.6769 69.1367 73.4761Z" fill="#FFD647"/>
<path d="M69.1367 73.4761L26.6825 107.496C25.3071 108.562 24.2825 110.016 23.7408 111.67C23.1992 113.323 23.1652 115.102 23.6434 116.775C23.9615 117.886 24.4974 118.923 25.2199 119.825C25.9424 120.726 26.8371 121.476 27.852 122.028C28.8666 122.581 29.9812 122.926 31.1307 123.044C32.2802 123.161 33.4415 123.049 34.547 122.712C35.6528 122.377 36.6807 121.824 37.5708 121.087L80.2936 86.8517C75.6662 83.2368 71.8627 78.6769 69.1367 73.4761Z" stroke="#141220" stroke-width="0.769171" stroke-linecap="round" stroke-linejoin="round"/>
<path d="M98.1164 117.647L76.708 133.22C79.0805 136.365 81.5801 139.681 83.8401 142.463L104.904 127.717C102.701 124.32 100.439 120.963 98.1164 117.647Z" stroke="#141220" stroke-width="0.769171" stroke-linecap="round" stroke-linejoin="round"/>
<path d="M80.0225 93.2695C73.7316 84.851 65.1936 77.7335 60.9499 76.8464C56.7061 75.9594 52.9905 76.7492 51.5486 80.6294C50.2048 80.9139 48.9459 81.5081 47.8722 82.3648C46.7986 83.2216 45.9397 84.3171 45.364 85.5643C41.3759 85.8306 37.7873 87.1117 36.3791 91.9409C32.1385 92.5356 28.8368 95.9298 28.2399 98.8541C27.7577 101.177 27.9491 103.589 28.7917 105.807L35.4293 100.489C37.7253 102.173 44.3752 107.185 46.4278 109.16C51.9382 114.461 59.9366 124.663 67.8523 122.308C69.4404 123.571 72.9035 128.177 76.7079 133.222L98.1163 117.647C91.3088 107.913 85.2153 100.222 80.0225 93.2695Z" fill="#FF6635"/>
<path d="M80.0225 93.2695C73.7323 84.851 65.1935 77.7335 60.9498 76.8464C56.7061 75.9594 52.9904 76.7492 51.5485 80.6294C50.2047 80.9139 48.9458 81.5081 47.8722 82.3648C46.7985 83.2216 45.9396 84.3171 45.3639 85.5643C41.3758 85.8314 37.7872 87.1125 36.379 91.9409C32.1384 92.5364 28.8176 95.9268 28.2398 98.8541C27.7506 101.177 27.9422 103.591 28.7916 105.807L35.4293 100.489C37.7252 102.173 44.3751 107.185 46.4277 109.16C51.9381 114.462 59.9365 124.662 67.8523 122.308C69.4403 123.571 72.9034 128.177 76.7078 133.222L98.1163 117.647C91.3087 107.913 85.2152 100.221 80.0225 93.2695Z" stroke="#141220" stroke-width="0.769171" stroke-linecap="round" stroke-linejoin="round"/>
<path d="M36.3794 91.9411C39.7116 91.3955 43.565 92.0253 49.6716 97.5984" stroke="#141220" stroke-width="0.769171" stroke-linecap="round" stroke-linejoin="round"/>
<path d="M51.5488 80.6296C56.9061 79.5436 60.8093 83.0786 63.9104 86.2662" stroke="#141220" stroke-width="0.769171" stroke-linecap="round" stroke-linejoin="round"/>
<path d="M57.1717 91.3243C55.7994 89.4989 54.0136 88.025 51.961 87.0237C49.9084 86.0224 47.6476 85.5223 45.3643 85.5645" stroke="#141220" stroke-width="0.769171" stroke-linecap="round" stroke-linejoin="round"/>
<path d="M105.587 95.5464C128.296 95.5464 146.706 77.1365 146.706 54.427C146.706 31.7175 128.296 13.3076 105.587 13.3076C82.8772 13.3076 64.4673 31.7175 64.4673 54.427C64.4673 77.1365 82.8772 95.5464 105.587 95.5464Z" stroke="#141220" stroke-width="0.769171" stroke-linecap="round" stroke-linejoin="round"/>
<path d="M105.587 16.6062C95.5571 16.6067 85.9378 20.5917 78.8457 27.6846C71.7536 34.7774 67.7695 44.3971 67.77 54.4274C67.7705 64.4577 71.7555 74.077 78.8484 81.1691C85.9412 88.2613 95.5609 92.2453 105.591 92.2448C115.622 92.2443 125.241 88.2593 132.333 81.1664C139.425 74.0736 143.409 64.4539 143.409 54.4236C143.408 44.3933 139.423 34.774 132.33 27.6819C125.237 20.5897 115.618 16.6057 105.587 16.6062Z" stroke="#141220" stroke-width="0.769171" stroke-linecap="round" stroke-linejoin="round"/>
<path d="M90.6285 39.109C93.3259 37.2259 96.3715 35.899 99.5874 35.2059L100.302 35.2105C100.708 34.2768 100.916 33.2681 100.914 32.2502C101.021 30.1861 101.263 28.1312 101.638 26.0993C101.638 26.0993 95.4294 24.8235 93.4878 24.8235C91.7702 24.8227 90.1053 25.4172 88.7767 26.5057C87.4481 27.5943 86.5377 29.1097 86.2006 30.7939C85.8635 32.4781 86.1205 34.2271 86.9278 35.7432C87.7352 37.2592 89.0429 38.4487 90.6285 39.109Z" fill="#FFD647"/>
<path d="M90.6285 39.109C93.3259 37.2259 96.3715 35.899 99.5874 35.2059L100.302 35.2105C100.708 34.2768 100.916 33.2681 100.914 32.2502C101.021 30.1861 101.263 28.1312 101.638 26.0993C101.638 26.0993 95.4294 24.8235 93.4878 24.8235C91.7702 24.8227 90.1053 25.4172 88.7767 26.5057C87.4481 27.5943 86.5377 29.1097 86.2006 30.7939C85.8635 32.4781 86.1205 34.2271 86.9278 35.7432C87.7352 37.2592 89.0429 38.4487 90.6285 39.109Z" stroke="#141220" stroke-width="0.769171" stroke-linecap="round" stroke-linejoin="round"/>
<path d="M102.49 27.5437C103.629 27.5437 104.722 27.0911 105.528 26.2855C106.333 25.4799 106.786 24.3872 106.786 23.2479C106.786 22.1086 106.333 21.016 105.528 20.2103C104.722 19.4047 103.629 18.9521 102.49 18.9521C101.351 18.9521 100.258 19.4047 99.4525 20.2103C98.6469 21.016 98.1943 22.1086 98.1943 23.2479C98.1943 24.3872 98.6469 25.4799 99.4525 26.2855C100.258 27.0911 101.351 27.5437 102.49 27.5437Z" fill="#FFD647"/>
<path d="M102.49 27.5437C103.629 27.5437 104.722 27.0911 105.528 26.2855C106.333 25.4799 106.786 24.3872 106.786 23.2479C106.786 22.1086 106.333 21.016 105.528 20.2103C104.722 19.4047 103.629 18.9521 102.49 18.9521C101.351 18.9521 100.258 19.4047 99.4525 20.2103C98.6469 21.016 98.1943 22.1086 98.1943 23.2479C98.1943 24.3872 98.6469 25.4799 99.4525 26.2855C100.258 27.0911 101.351 27.5437 102.49 27.5437Z" stroke="#141220" stroke-width="0.769171" stroke-linecap="round" stroke-linejoin="round"/>
<path d="M116.408 40.9094C114.069 38.1168 109.201 36.6848 105.138 35.2407L99.5875 35.2078C92.623 36.6711 86.6275 41.3503 84.307 46.0149C83.1613 48.5801 82.4625 51.3222 82.2406 54.1228C81.3988 61.1155 81.3804 73.8276 82.1824 84.1281C88.1652 88.8477 95.435 91.6483 103.038 92.1623C110.641 92.6764 118.221 90.88 124.785 87.0088C122.991 73.8567 120.468 56.6767 118.343 45.9874C117.987 44.1889 117.584 42.3138 116.408 40.9094Z" stroke="#141220" stroke-width="0.769171" stroke-linecap="round" stroke-linejoin="round"/>
<path d="M103.366 40.4453C106.761 63.1678 104.969 45.5148 108.783 92.1132" stroke="#141220" stroke-width="0.769171" stroke-linecap="round" stroke-linejoin="round"/>
<path d="M96.979 35.9163C97.1397 38.5222 97.1543 41.1342 97.0203 43.7417C97.0203 43.7417 100.796 44.5912 101.966 44.8216C99.8773 46.5298 99.1763 46.9645 97.6877 48.2786C101.165 55.5736 104.185 63.3738 107.002 70.0268" stroke="#141220" stroke-width="0.769171" stroke-linecap="round" stroke-linejoin="round"/>
<path d="M108.166 36.3003C108.524 38.7549 109.204 41.1516 110.189 43.4285C109.08 43.6734 107.093 44.2314 105.985 44.4755C107.508 45.671 109.109 46.764 110.777 47.7473C110.777 47.7473 108.35 63.7272 107.002 70.0259" stroke="#141220" stroke-width="0.769171" stroke-linecap="round" stroke-linejoin="round"/>
<path d="M90.5552 63.728C90.5552 72.7114 90.445 87.6 90.8613 89.2669" stroke="#141220" stroke-width="0.769171" stroke-linecap="round" stroke-linejoin="round"/>
<path d="M115.658 63.0049C113.79 69.4711 112.917 70.4905 114.037 77.1267C114.879 81.695 115.315 86.3291 115.338 90.9745" stroke="#141220" stroke-width="0.769171" stroke-linecap="round" stroke-linejoin="round"/>
<path d="M96.6631 55.8306H90.542V61.0202H96.6631V55.8306Z" stroke="#141220" stroke-width="0.769171" stroke-linecap="round" stroke-linejoin="round"/>
<path d="M93.7456 53.7209V57.9409" stroke="#141220" stroke-width="0.769171" stroke-linecap="round" stroke-linejoin="round"/>
<path d="M105.032 21.5183C104.825 21.1664 104.506 20.8941 104.126 20.7452C103.746 20.5962 103.327 20.5793 102.936 20.6971C102.546 20.8148 102.206 21.0602 101.971 21.394C101.736 21.7279 101.62 22.1309 101.642 22.5385C101.71 23.4852 101.712 23.2433 101.65 23.6528C101.179 23.2755 100.641 23.1638 100.433 23.4117C100.144 23.7538 100.651 24.6133 101.455 24.9324C101.028 27.6929 100.138 33.24 99.5874 35.2077C100.151 36.6618 101.807 40.4295 103.366 40.4456C104.799 40.033 104.916 36.795 105.138 35.2413C105.053 32.9293 104.711 30.0532 104.561 27.4756C104.759 27.4389 104.952 27.3822 105.137 27.3057C106.879 26.6031 105.693 22.579 105.032 21.5183Z" fill="#FF6635"/>
<path d="M105.032 21.5183C104.825 21.1664 104.506 20.8941 104.126 20.7452C103.746 20.5962 103.327 20.5793 102.936 20.6971C102.546 20.8148 102.206 21.0602 101.971 21.394C101.736 21.7279 101.62 22.1309 101.642 22.5385C101.71 23.4852 101.712 23.2433 101.65 23.6528C101.179 23.2755 100.641 23.1638 100.433 23.4117C100.144 23.7538 100.651 24.6133 101.455 24.9324C101.028 27.6929 100.138 33.24 99.5874 35.2077C100.151 36.6618 101.807 40.4295 103.366 40.4456C104.799 40.033 104.916 36.795 105.138 35.2413C105.053 32.9293 104.711 30.0532 104.561 27.4756C104.759 27.4389 104.952 27.3822 105.137 27.3057C106.879 26.6031 105.693 22.579 105.032 21.5183Z" stroke="#141220" stroke-width="0.769171" stroke-linecap="round" stroke-linejoin="round"/>
<path d="M101.699 23.3269C101.649 23.5155 101.631 23.711 101.645 23.9055C101.678 24.3999 101.809 29.4403 104.652 28.8189C104.616 28.3597 104.587 27.9104 104.561 27.475C102.374 27.8699 101.843 24.8407 101.699 23.3269Z" fill="#FFD647"/>
<path d="M101.699 23.3269C101.649 23.5155 101.631 23.711 101.645 23.9055C101.678 24.3999 101.809 29.4403 104.652 28.8189C104.616 28.3597 104.587 27.9104 104.561 27.475C102.374 27.8699 101.843 24.8407 101.699 23.3269Z" stroke="#141220" stroke-width="0.769171" stroke-linecap="round" stroke-linejoin="round"/>
<path d="M111.57 105.64H119.745" stroke="#141220" stroke-width="0.769171" stroke-linecap="round" stroke-linejoin="round"/>
<path d="M115.658 109.726V101.552" stroke="#141220" stroke-width="0.769171" stroke-linecap="round" stroke-linejoin="round"/>
<path d="M128.928 97.5981H133.387" stroke="#141220" stroke-width="0.769171" stroke-linecap="round" stroke-linejoin="round"/>
<path d="M131.158 99.8277V95.3689" stroke="#141220" stroke-width="0.769171" stroke-linecap="round" stroke-linejoin="round"/>
<path d="M1.29443 91.8003L7.07417 97.58" stroke="#141220" stroke-width="0.769171" stroke-linecap="round" stroke-linejoin="round"/>
<path d="M1.29443 97.58L7.07417 91.8003" stroke="#141220" stroke-width="0.769171" stroke-linecap="round" stroke-linejoin="round"/>
<path d="M8.28418 73.9543L11.2322 76.9024" stroke="#141220" stroke-width="0.769171" stroke-linecap="round" stroke-linejoin="round"/>
<path d="M8.28418 76.9024L11.2322 73.9543" stroke="#141220" stroke-width="0.769171" stroke-linecap="round" stroke-linejoin="round"/>
<path d="M116.996 30.9149L119.523 35.0836L122.494 28.8562" stroke="#141220" stroke-width="0.769171" stroke-linecap="round" stroke-linejoin="round"/>
</svg>
