<svg width="138" height="147" viewBox="0 0 138 147" fill="none" xmlns="http://www.w3.org/2000/svg">
<path d="M64.7327 16.0583L28.5972 32.9116L33.5412 43.5266L69.6913 26.6734L64.7327 16.0583Z" fill="#FF6635"/>
<path d="M49.7227 66.3577L38.875 71.418L44.1175 82.6553L54.9652 77.5949L49.7227 66.3577Z" fill="#FF6635"/>
<path d="M106.873 13.2083L82.6621 66.3563L86.6609 68.1594L110.872 15.0259L106.873 13.2083Z" fill="#FF6635"/>
<path d="M120.658 19.432L96.4324 72.5655L92.4336 70.7624L116.645 17.6289L120.658 19.432Z" fill="#FF6635"/>
<path d="M112.661 6.83911L109.287 14.2987L118.477 18.443L121.836 10.9833L112.661 6.83911Z" fill="#FFD647"/>
<path d="M48.5049 20.0714C48.2273 19.5286 47.7961 19.0795 47.2651 18.78C46.734 18.4804 46.1266 18.3438 45.5185 18.387C44.9103 18.4301 44.3283 18.6513 43.8449 19.0229C43.3615 19.3944 42.9982 19.9 42.8 20.4766C42.6019 21.0531 42.5777 21.6753 42.7306 22.2655C42.8835 22.8557 43.2066 23.3879 43.6598 23.7958C44.1129 24.2037 44.676 24.4692 45.279 24.5594C45.882 24.6496 46.4982 24.5604 47.0508 24.3029C47.4244 24.1208 47.7584 23.8669 48.0338 23.5556C48.3091 23.2443 48.5204 22.8818 48.6554 22.4887C48.7905 22.0957 48.8467 21.6799 48.8209 21.2651C48.7951 20.8503 48.6877 20.4447 48.5049 20.0714Z" fill="#FFD647"/>
<path d="M9.19922 75.43C9.12918 75.2845 9.01733 75.1633 8.878 75.0818C8.73866 75.0002 8.57817 74.9621 8.41705 74.9723C8.2966 74.9792 8.17918 75.0128 8.0733 75.0707C7.96742 75.1285 7.87572 75.2092 7.80482 75.3068C7.73392 75.4044 7.68561 75.5166 7.66337 75.6352C7.64113 75.7538 7.64552 75.8758 7.67622 75.9925C7.71994 76.1621 7.81721 76.3132 7.95358 76.4231C8.08994 76.5331 8.25814 76.5962 8.4332 76.603C8.60826 76.6098 8.78083 76.5599 8.92531 76.4608C9.06979 76.3617 9.17846 76.2187 9.23519 76.053C9.30589 75.8487 9.29296 75.6248 9.19922 75.43Z" fill="#FFD647"/>
<path d="M86.719 79.7925L84.1597 81.7119L83.8398 78.4983L86.719 79.7925Z" fill="#FFD647"/>
<path d="M131.52 64.2625L135.184 72.1292" stroke="#141220" stroke-width="0.769171" stroke-linecap="round" stroke-linejoin="round"/>
<path d="M137.293 66.3706L129.412 70.0204" stroke="#141220" stroke-width="0.769171" stroke-linecap="round" stroke-linejoin="round"/>
<path d="M85.4389 144.617C85.5121 144.932 85.49 145.262 85.3755 145.564C85.2611 145.866 85.0594 146.128 84.796 146.316C84.5992 146.455 84.3739 146.55 84.1362 146.593C83.8985 146.635 83.6543 146.625 83.4212 146.562C83.188 146.499 82.9716 146.386 82.7875 146.229C82.6034 146.073 82.4561 145.878 82.3562 145.658C82.2637 145.45 82.2155 145.226 82.2149 144.998C82.2142 144.771 82.261 144.546 82.3523 144.337C82.4436 144.129 82.5774 143.942 82.745 143.789C82.9127 143.635 83.1106 143.518 83.3261 143.445C83.5416 143.372 83.7699 143.346 83.9964 143.366C84.2229 143.387 84.4426 143.454 84.6414 143.565C84.8403 143.675 85.014 143.825 85.1513 144.007C85.2886 144.188 85.3866 144.396 85.4389 144.617Z" stroke="#141220" stroke-width="0.769171" stroke-linecap="round" stroke-linejoin="round"/>
<path d="M71.6395 2.14245C71.6929 2.37401 71.6763 2.6162 71.5919 2.8383C71.5074 3.06041 71.3588 3.2524 71.165 3.38993C71.0205 3.49315 70.8548 3.56294 70.68 3.59428C70.5052 3.62561 70.3256 3.61771 70.1542 3.57112C69.9828 3.52454 69.8239 3.44045 69.689 3.32493C69.5541 3.20942 69.4466 3.06536 69.3742 2.90319C69.3011 2.74131 69.265 2.56522 69.2683 2.38766C69.2716 2.21009 69.3143 2.03548 69.3933 1.87643C69.4723 1.71738 69.5857 1.57786 69.7252 1.46795C69.8647 1.35805 70.0268 1.2805 70.2 1.2409C70.5102 1.1724 70.8349 1.22851 71.1042 1.39714C71.3735 1.56577 71.5657 1.83343 71.6395 2.14245Z" stroke="#141220" stroke-width="0.769171" stroke-linecap="round" stroke-linejoin="round"/>
<path d="M67.2192 21.3657L82.4002 14.2842L94.5276 40.2983" stroke="#141220" stroke-width="0.769171" stroke-linecap="round" stroke-linejoin="round"/>
<path d="M102.932 58.3151L125.049 105.763L58.5381 136.78L15.8735 45.3008L31.0691 38.2192" stroke="#141220" stroke-width="0.769171" stroke-linecap="round" stroke-linejoin="round"/>
<path d="M69.6913 26.6734L33.5412 43.5266L28.5972 32.9116L64.7327 16.0583L69.6913 26.6734Z" stroke="#141220" stroke-width="0.769171" stroke-linecap="round" stroke-linejoin="round"/>
<path d="M48.5048 20.0715C48.7438 20.633 48.8122 21.2524 48.7015 21.8524C48.5909 22.4525 48.306 23.0068 47.8824 23.446C47.4589 23.8853 46.9154 24.1901 46.3197 24.3226C45.724 24.455 45.1026 24.4092 44.5328 24.1908C43.963 23.9724 43.4701 23.5912 43.1156 23.0945C42.761 22.5979 42.5605 22.0079 42.539 21.398C42.5176 20.7882 42.6761 20.1855 42.9948 19.6652C43.3136 19.1449 43.7785 18.7299 44.3315 18.472C45.097 18.1308 45.9667 18.1076 46.7494 18.4076C47.532 18.7076 48.1634 19.3061 48.5048 20.0715Z" stroke="#141220" stroke-width="0.769171" stroke-linecap="round" stroke-linejoin="round"/>
<path d="M83.6794 40.2108L34.9221 62.9387L29.7891 51.9455L78.5464 29.2031L83.6794 40.2108Z" stroke="#141220" stroke-width="0.769171" stroke-linecap="round" stroke-linejoin="round"/>
<path d="M54.9607 77.5965L44.1123 82.6569L38.8774 71.4165L49.7259 66.3562L54.9607 77.5965Z" stroke="#141220" stroke-width="0.769171" stroke-linecap="round" stroke-linejoin="round"/>
<path d="M89.1908 52.0331L83.6216 64.2477L64.18 73.3068L58.9307 62.0665L87.6204 48.6741L89.1908 52.0331Z" stroke="#141220" stroke-width="0.769171" stroke-linecap="round" stroke-linejoin="round"/>
<path d="M64.1064 97.1976L53.2594 102.258L48.0093 91.0031L58.8578 85.9573L64.1071 97.1976H64.1064Z" stroke="#141220" stroke-width="0.769171" stroke-linecap="round" stroke-linejoin="round"/>
<path d="M97.5812 70.05L102.002 79.5309L73.312 92.8942L68.0771 81.6539L83.4472 74.4851" stroke="#141220" stroke-width="0.769171" stroke-linecap="round" stroke-linejoin="round"/>
<path d="M73.2394 116.801L62.3917 121.846L57.1416 110.605L68.0046 105.545L73.2394 116.801Z" stroke="#141220" stroke-width="0.769171" stroke-linecap="round" stroke-linejoin="round"/>
<path d="M111.148 99.1178L82.4583 112.496L77.209 101.255L105.899 87.8774L111.148 99.1178Z" stroke="#141220" stroke-width="0.769171" stroke-linecap="round" stroke-linejoin="round"/>
<path d="M37.8018 73.598L48.5194 77.9458L51.1949 65.0332" stroke="#141220" stroke-width="0.769171" stroke-linecap="round" stroke-linejoin="round"/>
<path d="M59.7594 83.3984L52.3579 104.818" stroke="#141220" stroke-width="0.769171" stroke-linecap="round" stroke-linejoin="round"/>
<path d="M66.623 98.1871L45.4946 90.0295" stroke="#141220" stroke-width="0.769171" stroke-linecap="round" stroke-linejoin="round"/>
<path d="M68.8912 102.986L61.4897 124.406" stroke="#141220" stroke-width="0.769171" stroke-linecap="round" stroke-linejoin="round"/>
<path d="M75.7693 117.775L54.6265 109.616" stroke="#141220" stroke-width="0.769171" stroke-linecap="round" stroke-linejoin="round"/>
<path d="M120.658 19.4319L96.4321 72.5653L82.6616 66.3563L106.873 13.2083L120.658 19.4319Z" stroke="#141220" stroke-width="0.769171" stroke-linecap="round" stroke-linejoin="round"/>
<path d="M121.836 10.9833L118.477 18.443L109.287 14.2987L112.66 6.83911L121.836 10.9833Z" stroke="#141220" stroke-width="0.769171" stroke-linecap="round" stroke-linejoin="round"/>
<path d="M96.4321 72.5653L84.1594 81.7117L82.6616 66.3562" stroke="#141220" stroke-width="0.769171" stroke-linecap="round" stroke-linejoin="round"/>
<path d="M83.8394 78.4983L86.7185 79.7925" stroke="#141220" stroke-width="0.769171" stroke-linecap="round" stroke-linejoin="round"/>
<path d="M110.872 15.0115L86.6606 68.1595" stroke="#141220" stroke-width="0.769171" stroke-linecap="round" stroke-linejoin="round"/>
<path d="M116.645 17.6289L92.4336 70.7624" stroke="#141220" stroke-width="0.769171" stroke-linecap="round" stroke-linejoin="round"/>
<path d="M6.95971 72.6961C6.52347 71.7655 6.55255 70.9221 6.95971 68.8282C7.82682 64.3694 5.23237 62.8089 3.09175 63.7388C2.74801 63.8855 2.43672 64.0989 2.17584 64.3666C1.91497 64.6343 1.70967 64.951 1.57179 65.2984C1.4339 65.6458 1.36616 66.0171 1.37247 66.3908C1.37878 66.7645 1.45902 67.1333 1.60855 67.4758C1.6805 67.6389 1.76851 67.795 1.87029 67.9412" stroke="#141220" stroke-width="0.769171" stroke-linecap="round" stroke-linejoin="round"/>
<path d="M9.19911 75.4301C9.24579 75.5265 9.27302 75.6312 9.27925 75.7382C9.28548 75.8451 9.27058 75.9523 9.2354 76.0535C9.20022 76.1547 9.14546 76.2479 9.07423 76.328C9.003 76.408 8.91671 76.4732 8.82027 76.5199C8.72384 76.5666 8.61915 76.5938 8.5122 76.6001C8.40524 76.6063 8.2981 76.5914 8.1969 76.5562C8.0957 76.521 8.00242 76.4663 7.92239 76.395C7.84235 76.3238 7.77713 76.2375 7.73045 76.1411C7.63617 75.9463 7.62311 75.7221 7.69416 75.5177C7.7652 75.3133 7.91453 75.1455 8.10929 75.0512C8.30404 74.957 8.52827 74.9439 8.73266 75.015C8.93704 75.086 9.10483 75.2353 9.19911 75.4301Z" stroke="#141220" stroke-width="0.769171" stroke-linejoin="round"/>
</svg>
