<svg width="259" height="217" viewBox="0 0 259 217" fill="none" xmlns="http://www.w3.org/2000/svg">
<path d="M81.1869 190.689C80.467 193.379 78.9657 195.795 76.8728 197.631C74.7798 199.468 72.1893 200.643 69.4287 201.007C66.6682 201.371 63.8616 200.908 61.364 199.678C58.8664 198.447 56.7898 196.503 55.397 194.092C54.0042 191.681 53.3577 188.911 53.5392 186.132C53.7207 183.353 54.7221 180.691 56.4168 178.482C58.1114 176.272 60.4232 174.615 63.0598 173.72C65.6963 172.824 68.5392 172.731 71.2289 173.451C74.8295 174.426 77.898 176.786 79.7638 180.016C81.6297 183.246 82.1413 187.083 81.1869 190.689Z" fill="#FFEFEB"/>
<path d="M145.987 69.3394L113.009 60.4878C112.522 60.3574 112.066 60.1323 111.666 59.8252C111.267 59.5181 110.932 59.1352 110.68 58.6983C110.429 58.2615 110.266 57.7794 110.201 57.2795C110.136 56.7797 110.171 56.272 110.303 55.7855L116.189 33.8959C116.32 33.4093 116.545 32.9531 116.852 32.5536C117.159 32.1541 117.542 31.8191 117.979 31.5677C118.416 31.3164 118.898 31.1535 119.398 31.0886C119.897 31.0237 120.405 31.0579 120.891 31.1893L153.869 40.0408C154.851 40.3055 155.688 40.9496 156.196 41.8315C156.704 42.7133 156.84 43.7607 156.575 44.7432L150.715 66.6313C150.446 67.6165 149.797 68.4546 148.911 68.9622C148.024 69.4698 146.973 69.6054 145.987 69.3394Z" fill="#FFEFEB"/>
<path d="M97.6632 13.8419C97.1731 14.4288 96.8848 15.1578 96.8409 15.9212C96.7969 16.6845 96.9996 17.4418 97.419 18.0811C97.8384 18.7205 98.4523 19.208 99.17 19.4717C99.8878 19.7353 100.671 19.7612 101.405 19.5454C102.138 19.3297 102.783 18.8837 103.244 18.2734C103.704 17.6631 103.957 16.9209 103.963 16.1563C103.97 15.3917 103.73 14.6453 103.28 14.0273C102.829 13.4093 102.192 12.9525 101.462 12.7244C100.79 12.5127 100.069 12.506 99.3928 12.705C98.7162 12.904 98.1142 13.2997 97.6632 13.8419Z" fill="#FF9178"/>
<path d="M145.803 224.718L144.489 229.579C143.922 231.697 142.943 233.682 141.609 235.421C140.275 237.16 138.611 238.619 136.712 239.715C134.814 240.811 132.718 241.522 130.545 241.808C128.371 242.093 126.163 241.947 124.046 241.378L42.8764 219.62C37.5559 218.194 33.0195 214.714 30.2651 209.944C27.5106 205.174 26.7636 199.505 28.1884 194.184L76.7473 12.8178C77.8452 8.73077 80.5216 5.24721 84.1877 3.13337C87.8539 1.01952 92.2096 0.448508 96.2967 1.54593L101.079 2.83355C97.8005 1.96074 94.3093 2.42517 91.3727 4.12479C88.4361 5.82442 86.2942 8.62024 85.4176 11.8981L36.2793 195.34C35.8325 196.966 35.7132 198.664 35.9282 200.336C36.1432 202.007 36.6883 203.62 37.5318 205.079C38.3752 206.539 39.5003 207.816 40.8416 208.837C42.1829 209.858 43.7138 210.603 45.3451 211.027L130.168 233.757C133.44 234.63 136.924 234.169 139.856 232.474C142.788 230.779 144.927 227.989 145.803 224.718Z" fill="#FF9178"/>
<path fill-rule="evenodd" clip-rule="evenodd" d="M191.236 183.882C199.753 173.286 203.927 159.851 202.914 146.294C201.902 132.737 195.779 120.071 185.783 110.857C175.787 101.643 162.665 96.5695 149.071 96.6624C135.476 96.7553 122.425 102.008 112.556 111.357C102.687 120.707 96.737 133.456 95.9099 147.025C95.0829 160.594 99.4403 173.972 108.101 184.45C116.761 194.929 129.078 201.728 142.561 203.471C156.043 205.214 169.684 201.772 180.725 193.84L245.341 261.53C245.994 262.229 246.779 262.792 247.651 263.186C248.522 263.58 249.463 263.798 250.42 263.827C251.86 263.868 253.28 263.478 254.497 262.707C255.714 261.936 256.673 260.819 257.251 259.499C257.829 258.18 258 256.717 257.741 255.3C257.483 253.882 256.807 252.575 255.8 251.544V251.545L191.236 183.882ZM105.321 163.686C108.048 172.647 113.433 180.57 120.762 186.404V186.405C129.663 193.478 140.855 197.028 152.206 196.378C163.557 195.729 174.271 190.925 182.307 182.882C187.252 177.925 191.006 171.91 193.288 165.29C195.569 158.67 196.317 151.619 195.477 144.667C194.636 137.716 192.228 131.047 188.434 125.162C184.64 119.277 179.56 114.33 173.576 110.694C167.591 107.06 160.86 104.831 153.889 104.177C146.917 103.523 139.889 104.46 133.333 106.918C126.776 109.376 120.864 113.29 116.04 118.366C111.217 123.441 107.609 129.545 105.489 136.218C102.652 145.146 102.594 154.724 105.321 163.686Z" fill="#FF9178"/>
<path d="M235.434 55.703C235.441 56.4703 235.161 57.2124 234.648 57.7833C234.135 58.3541 233.427 58.7125 232.664 58.7877C231.9 58.863 231.136 58.6498 230.522 58.19C229.908 57.7302 229.488 57.0571 229.345 56.3033C229.261 55.8823 229.266 55.4483 229.36 55.0294C229.453 54.6104 229.634 54.2158 229.89 53.8709C230.145 53.526 230.47 53.2384 230.844 53.0267C231.217 52.815 231.631 52.6839 232.058 52.6418C232.485 52.5997 232.917 52.6475 233.324 52.7822C233.732 52.9169 234.107 53.1355 234.425 53.4238C234.743 53.7122 234.997 54.064 235.171 54.4566C235.345 54.8491 235.434 55.2737 235.434 55.703Z" stroke="#7C4D42" stroke-width="0.769171" stroke-linecap="round" stroke-linejoin="round"/>
<path d="M145.803 224.717L194.967 41.1974C195.401 39.5777 195.511 37.8884 195.291 36.2261C195.071 34.5638 194.526 32.9611 193.687 31.5097C192.847 30.0583 191.73 28.7865 190.398 27.7672C189.067 26.7478 187.548 26.0008 185.928 25.569L101.103 2.83301" stroke="#7C4D42" stroke-width="0.769171" stroke-linecap="round" stroke-linejoin="round"/>
<path d="M28.1868 194.183C26.7651 199.504 27.5136 205.172 30.2679 209.941C33.0222 214.71 37.5571 218.191 42.8762 219.619L124.02 241.377C127.208 242.235 130.58 242.128 133.707 241.068C136.834 240.008 139.576 238.043 141.586 235.423C142.919 233.683 143.897 231.697 144.463 229.578L145.776 224.717C144.899 227.986 142.761 230.773 139.831 232.467C136.901 234.162 133.419 234.626 130.148 233.757L44.0905 210.632C41.1113 209.523 38.6566 207.336 37.2116 204.505C35.7665 201.673 35.4362 198.403 36.286 195.34L85.4174 11.8973C86.2992 8.61775 88.4457 5.82173 91.3861 4.12247C94.3265 2.42321 97.8208 1.95943 101.103 2.83283L96.3228 1.54659C92.2356 0.449556 87.8801 1.02074 84.2141 3.13453C80.548 5.24832 77.8716 8.73163 76.7734 12.8185L28.1868 194.183Z" stroke="#7C4D42" stroke-width="0.769171" stroke-linecap="round" stroke-linejoin="round"/>
<path d="M81.1864 190.688C80.4665 193.378 78.9652 195.794 76.8723 197.63C74.7794 199.467 72.1888 200.642 69.4282 201.006C66.6677 201.37 63.8611 200.907 61.3635 199.677C58.8659 198.446 56.7894 196.502 55.3966 194.091C54.0037 191.68 53.3572 188.91 53.5387 186.131C53.7203 183.352 54.7217 180.69 56.4163 178.481C58.111 176.271 60.4227 174.614 63.0593 173.719C65.6958 172.823 68.5387 172.73 71.2284 173.45C74.829 174.425 77.8975 176.785 79.7634 180.015C81.6292 183.245 82.1408 187.082 81.1864 190.688Z" stroke="#7C4D42" stroke-width="0.769171" stroke-linecap="round" stroke-linejoin="round"/>
<path d="M69.3369 180.623L65.8682 193.447" stroke="#7C4D42" stroke-width="0.769171" stroke-linecap="round" stroke-linejoin="round"/>
<path d="M74.0146 188.769L61.1909 185.301" stroke="#7C4D42" stroke-width="0.769171" stroke-linecap="round" stroke-linejoin="round"/>
<path d="M179.542 134.375L125.438 165.513" stroke="#7C4D42" stroke-width="0.769171" stroke-linecap="round" stroke-linejoin="round"/>
<path d="M168.06 176.998L136.921 122.893" stroke="#7C4D42" stroke-width="0.769171" stroke-linecap="round" stroke-linejoin="round"/>
<path d="M83.394 65.1348L169.348 88.1543" stroke="#7C4D42" stroke-width="0.769171" stroke-linecap="round" stroke-linejoin="round"/>
<path d="M156.603 44.7445C156.735 44.258 156.769 43.7504 156.704 43.2507C156.639 42.7509 156.476 42.2689 156.225 41.8322C155.973 41.3954 155.638 41.0125 155.239 40.7054C154.839 40.3982 154.383 40.1728 153.897 40.0421L120.919 31.1906C120.433 31.059 119.925 31.0246 119.425 31.0895C118.925 31.1543 118.443 31.3171 118.007 31.5685C117.57 31.8199 117.187 32.155 116.88 32.5546C116.573 32.9542 116.347 33.4105 116.217 33.8972L110.329 55.7812C110.197 56.2677 110.163 56.7754 110.228 57.2753C110.292 57.7751 110.455 58.2573 110.707 58.6941C110.958 59.1309 111.293 59.5139 111.693 59.8209C112.093 60.128 112.549 60.3532 113.036 60.4836L145.987 69.3351C146.969 69.5998 148.017 69.4633 148.899 68.9557C149.78 68.4481 150.425 67.611 150.689 66.6285L156.603 44.7445Z" stroke="#7C4D42" stroke-width="0.769171" stroke-linecap="round" stroke-linejoin="round"/>
<path d="M118.229 31.4434L133.452 50.2625L156.078 41.6185" stroke="#7C4D42" stroke-width="0.769171" stroke-linecap="round" stroke-linejoin="round"/>
<path d="M190.033 59.5908C199.256 61.2505 205.14 64.4522 206.456 69.2334C210.606 84.2921 167.829 109.253 110.888 124.943C53.9462 140.628 4.42745 141.153 0.278298 126.096C-2.0314 117.72 10.1865 106.259 31.3139 95.0661" stroke="#7C4D42" stroke-width="0.769171" stroke-linecap="round" stroke-linejoin="round"/>
<path d="M222.034 141.786L248.415 139.447" stroke="#7C4D42" stroke-width="0.769171" stroke-linecap="round" stroke-linejoin="round"/>
<path d="M220.982 177.496L243.685 191.161" stroke="#7C4D42" stroke-width="0.769171" stroke-linecap="round" stroke-linejoin="round"/>
<path d="M213.967 113.065L233.595 95.2764" stroke="#7C4D42" stroke-width="0.769171" stroke-linecap="round" stroke-linejoin="round"/>
<path d="M47.3159 92.0957C36.0994 97.7552 27.7651 106.864 21.5387 116.822C21.3881 117.067 21.1818 117.273 20.9365 117.424C20.6912 117.574 20.4139 117.664 20.1271 117.687C19.8404 117.711 19.5522 117.666 19.286 117.556C19.0199 117.447 18.7833 117.276 18.5955 117.058C16.644 114.834 15.492 113.563 13.5239 111.36C19.016 105.5 24.45 99.4038 31.3141 95.0679C23.7723 98.1106 15.7312 101.27 8.97779 106.261C6.98067 104.029 5.79678 102.686 3.82732 100.452C3.63842 100.239 3.50093 99.9863 3.42544 99.7121C3.34996 99.4379 3.33851 99.1499 3.39197 98.8706C3.44544 98.5912 3.56239 98.3279 3.73379 98.1009C3.9052 97.874 4.12648 97.6894 4.38054 97.5616C17.4674 91.1216 31.9548 88.0506 46.529 88.6271C46.9348 88.6414 47.3244 88.7895 47.6372 89.0484C47.9499 89.3073 48.1682 89.6624 48.2581 90.0584C48.3479 90.4544 48.3042 90.8689 48.1338 91.2374C47.9634 91.606 47.6758 91.9077 47.3159 92.0957Z" stroke="#7C4D42" stroke-width="0.769171" stroke-linecap="round" stroke-linejoin="round"/>
<path d="M21.0918 39.068L26.3999 36.0986" stroke="#7C4D42" stroke-width="0.769171" stroke-linecap="round" stroke-linejoin="round"/>
<path d="M35.8325 30.8444L41.1407 27.875" stroke="#7C4D42" stroke-width="0.769171" stroke-linecap="round" stroke-linejoin="round"/>
<path d="M25.5063 23.4336L28.4758 28.7417" stroke="#7C4D42" stroke-width="0.769171" stroke-linecap="round" stroke-linejoin="round"/>
<path d="M33.7563 38.1748L36.7258 43.5092" stroke="#7C4D42" stroke-width="0.769171" stroke-linecap="round" stroke-linejoin="round"/>
<path d="M20.0669 30.3184L25.9269 32.0001" stroke="#7C4D42" stroke-width="0.769171" stroke-linecap="round" stroke-linejoin="round"/>
<path d="M36.3052 34.9424L42.1652 36.5979" stroke="#7C4D42" stroke-width="0.769171" stroke-linecap="round" stroke-linejoin="round"/>
<path d="M34.2556 22.4082L32.6001 28.2682" stroke="#7C4D42" stroke-width="0.769171" stroke-linecap="round" stroke-linejoin="round"/>
<path d="M29.6584 38.6738L27.9766 44.5075" stroke="#7C4D42" stroke-width="0.769171" stroke-linecap="round" stroke-linejoin="round"/>
<path d="M191.236 183.883C197.591 175.977 201.573 166.431 202.721 156.353C203.869 146.275 202.135 136.078 197.72 126.946C193.305 117.814 186.391 110.122 177.78 104.761C169.169 99.4012 159.214 96.5932 149.071 96.6634C140.636 96.7215 132.334 98.7683 124.84 102.638C117.345 106.507 110.868 112.09 105.937 118.933C101.005 125.775 97.7568 133.685 96.4562 142.019C95.1557 150.353 95.8394 158.876 98.4517 166.896C101.064 174.916 105.532 182.206 111.491 188.175C117.45 194.144 124.734 198.623 132.75 201.249C140.765 203.874 149.287 204.571 157.623 203.284C165.959 201.997 173.874 198.761 180.725 193.841L245.341 261.53C245.993 262.229 246.778 262.793 247.65 263.187C248.522 263.581 249.463 263.799 250.419 263.827C251.86 263.868 253.279 263.479 254.496 262.707C255.714 261.936 256.673 260.819 257.251 259.5C257.829 258.18 257.999 256.718 257.741 255.3C257.482 253.883 256.806 252.575 255.799 251.544M191.236 183.883L255.799 251.546V251.544M191.236 183.883L255.799 251.544M120.761 186.404C113.433 180.57 108.049 172.648 105.322 163.687C102.595 154.726 102.653 145.148 105.489 136.221C108.325 127.293 113.805 119.438 121.204 113.693C128.603 107.949 137.571 104.587 146.923 104.052C156.275 103.517 165.568 105.834 173.574 110.697C181.58 115.56 187.92 122.739 191.756 131.285C195.592 139.83 196.742 149.339 195.055 158.553C193.367 167.767 188.922 176.251 182.307 182.883C174.271 190.925 163.556 195.729 152.206 196.379C140.855 197.028 129.662 193.478 120.761 186.405V186.404Z" stroke="#7C4D42" stroke-width="0.769171" stroke-linejoin="round"/>
</svg>
