<svg width="290" height="290" viewBox="0 0 290 290" fill="none" xmlns="http://www.w3.org/2000/svg">
<path d="M104.811 262.143L108.038 282.062H235.716L217.324 186.599" stroke="#120071" stroke-width="0.769171" stroke-linecap="round" stroke-linejoin="round"/>
<path d="M210.377 150.548L201.463 104.286" stroke="#120071" stroke-width="0.769171" stroke-linecap="round" stroke-linejoin="round"/>
<path d="M130.304 244.385C130.785 244.198 131.228 244.012 131.63 243.825C148.375 236.158 157.734 222.149 156.013 203.814C154.137 183.848 154.115 175.222 149.145 169.966C145.866 166.496 140.536 165.11 138.086 161.012C133.839 153.908 133.524 127.565 132.471 110.963C126.221 110.885 51.0684 110.531 50.4624 104.36L51.3713 121.947" stroke="#120071" stroke-width="0.769171" stroke-linecap="round" stroke-linejoin="round"/>
<path d="M156.163 98.2308L151.402 100.972L146.104 97.9134C139.691 97.759 121.47 97.6855 119.269 97.7013L110.067 103.016L101.441 98.0389C71.7805 98.9291 50.4624 101.389 50.4624 104.286C50.4624 110.201 120.126 110.89 125.963 110.89C140.134 111.269 154.316 110.888 168.446 109.747C178.019 108.899 201.464 106.82 201.464 104.286C201.464 101.574 182.829 99.2509 156.163 98.2308Z" fill="#DF4C6F"/>
<path d="M146.107 97.9193C139.694 97.7649 121.473 97.6913 119.271 97.7072" stroke="#120071" stroke-width="0.769171" stroke-linecap="round" stroke-linejoin="round"/>
<path d="M101.441 98.0386C71.7805 98.9288 50.4624 101.389 50.4624 104.286C50.4624 110.201 120.126 110.889 125.963 110.889C140.134 111.269 154.316 110.888 168.446 109.746C178.019 108.898 201.464 106.819 201.464 104.286C201.464 101.578 182.829 99.2505 156.161 98.2261" stroke="#120071" stroke-width="0.769171" stroke-linecap="round" stroke-linejoin="round"/>
<path d="M111.909 101.956L110.066 103.02L108.311 102.01C89.236 102.298 73.7207 103.099 73.7207 104.39C73.7207 107.709 178.241 107.684 178.241 104.39C178.241 102.406 141.765 101.597 111.909 101.956Z" fill="#3F5053"/>
<path d="M108.311 102.007C89.236 102.295 73.7207 103.096 73.7207 104.387C73.7207 107.706 178.241 107.681 178.241 104.387C178.241 102.408 141.765 101.599 111.909 101.958" stroke="#120071" stroke-width="0.769171" stroke-linecap="round" stroke-linejoin="round"/>
<path d="M175.661 172.792C175.661 160.663 182.559 150.43 191.977 147.276L181.777 150.017C170.775 152.438 163.454 163.807 163.454 176.083C163.454 193.033 176.686 205.515 190.617 202.024L202.026 198.919C188.282 201.751 175.661 189.308 175.661 172.792Z" fill="#DF4C6F"/>
<path d="M175.661 172.792C175.661 160.663 182.559 150.43 191.977 147.276L181.777 150.017C170.775 152.438 163.454 163.807 163.454 176.083C163.454 193.033 176.686 205.515 190.617 202.024L202.026 198.919C188.282 201.751 175.661 189.308 175.661 172.792Z" stroke="#120071" stroke-width="0.769171" stroke-linecap="round" stroke-linejoin="round"/>
<path d="M198.132 146.269C185.725 146.269 175.662 158.144 175.662 172.792C175.662 187.44 185.722 199.316 198.132 199.316C210.543 199.316 220.605 187.44 220.605 172.792C220.605 158.144 210.543 146.269 198.132 146.269Z" stroke="#120071" stroke-width="0.769171" stroke-linecap="round" stroke-linejoin="round"/>
<path d="M198.132 183.161C202.606 183.161 206.232 178.519 206.232 172.792C206.232 167.066 202.606 162.423 198.132 162.423C193.658 162.423 190.033 167.066 190.033 172.792C190.033 178.519 193.658 183.161 198.132 183.161Z" fill="#DF4C6F"/>
<path d="M198.132 183.161C202.606 183.161 206.232 178.519 206.232 172.792C206.232 167.066 202.606 162.423 198.132 162.423C193.658 162.423 190.033 167.066 190.033 172.792C190.033 178.519 193.658 183.161 198.132 183.161Z" stroke="#120071" stroke-width="0.769171" stroke-linecap="round" stroke-linejoin="round"/>
<path d="M192.123 165.857C188.44 171.087 189.815 179.324 194.781 182.223C198.464 176.995 197.092 168.758 192.123 165.857Z" fill="#3F5053"/>
<path d="M192.123 165.857C188.44 171.087 189.815 179.324 194.781 182.223C198.464 176.995 197.092 168.758 192.123 165.857Z" stroke="#120071" stroke-width="0.769171" stroke-linecap="round" stroke-linejoin="round"/>
<path d="M156.015 203.814C154.139 183.848 154.118 175.222 149.148 169.966C145.868 166.496 140.539 165.11 138.089 161.012C133.841 153.908 133.527 127.565 132.474 110.963C126.224 110.884 51.0722 110.531 50.4648 104.36L51.3738 121.947C84.7763 122.794 113.91 122.492 113.904 122.716C115.058 139.127 115.231 167.297 119.646 174.677C122.099 178.774 127.425 180.159 130.705 183.622C135.675 188.878 135.703 197.505 137.572 217.47C138.658 227.037 136.059 236.658 130.304 244.377C130.784 244.19 131.227 244.004 131.63 243.818C148.374 236.158 157.733 222.149 156.015 203.814Z" fill="#3F5053"/>
<path d="M137.573 217.477C135.697 197.512 135.676 188.884 130.706 183.628C127.426 180.166 122.097 178.773 119.647 174.683C115.232 167.301 115.066 139.134 113.905 122.723C113.905 122.458 73.3634 122.927 33.0876 121.374C33.0876 121.374 23.4212 122.949 22.9609 123.018C23.2278 127.626 104.831 127.534 104.828 127.703C105.983 144.116 106.156 172.284 110.569 179.664C113.022 183.762 118.348 185.146 121.629 188.617C126.647 193.925 126.636 202.602 128.497 222.466C129.918 237.635 123.88 249.83 112.137 257.944C128.635 251.279 139.365 236.615 137.573 217.477Z" fill="#DF4C6F"/>
<path d="M137.573 217.477C135.697 197.512 135.676 188.884 130.706 183.628C127.426 180.166 122.097 178.773 119.647 174.683C115.232 167.301 115.066 139.134 113.905 122.723C113.905 122.458 73.3634 122.927 33.0876 121.374C33.0876 121.374 23.4212 122.949 22.9609 123.018C23.2278 127.626 104.831 127.534 104.828 127.703C105.983 144.116 106.156 172.284 110.569 179.664C113.022 183.762 118.348 185.146 121.629 188.617C126.647 193.925 126.636 202.602 128.497 222.466C129.918 237.635 123.88 249.83 112.137 257.944C128.635 251.279 139.365 236.615 137.573 217.477Z" stroke="#120071" stroke-width="0.769171" stroke-linecap="round" stroke-linejoin="round"/>
<path d="M128.497 222.459C126.621 202.495 126.597 193.866 121.629 188.61C118.348 185.148 113.019 183.755 110.569 179.656C106.156 172.275 105.99 144.109 104.828 127.696C104.828 127.552 22.9609 127.596 22.9609 123.011C25.441 171.452 26.5837 189.394 27.1449 232.796C27.6066 268.406 81.0143 273.049 104.108 262.469C120.854 254.804 130.214 240.799 128.497 222.459Z" stroke="#120071" stroke-width="0.769171" stroke-linecap="round" stroke-linejoin="round"/>
<path d="M26.5835 174.432C27.1695 175.2 27.9053 175.843 28.7464 176.319C29.5876 176.795 30.5166 177.096 31.4773 177.203C32.4377 177.312 33.4102 177.225 34.336 176.947C35.2617 176.669 36.1214 176.206 36.8631 175.586" stroke="#120071" stroke-width="0.769171" stroke-linecap="round" stroke-linejoin="round"/>
<path d="M66.4868 180.144C69.5166 184.85 77.596 184.857 80.6431 180.157" stroke="#120071" stroke-width="0.769171" stroke-linecap="round" stroke-linejoin="round"/>
<path d="M45.6421 172.275C41.0589 180.641 36.9225 189.245 33.2503 198.05C31.4094 202.467 29.9031 208.159 33.2893 211.544C35.1364 213.085 37.4281 213.995 39.8292 214.141C44.5297 214.816 49.298 214.868 54.0115 214.295" stroke="#120071" stroke-width="0.769171" stroke-linecap="round" stroke-linejoin="round"/>
<path d="M25.0137 163.179C30.108 163.467 35.1389 163.179 40.7396 163.179" stroke="#120071" stroke-width="0.769171" stroke-linecap="round" stroke-linejoin="round"/>
<path d="M61.9248 164.394C71.2075 164.971 80.5031 165.09 89.8117 164.754" stroke="#120071" stroke-width="0.769171" stroke-linecap="round" stroke-linejoin="round"/>
<path d="M44.8271 223.651C47.3981 225.195 50.302 226.1 53.2949 226.289C56.2879 226.478 59.2827 225.947 62.0276 224.739" stroke="#120071" stroke-width="0.769171" stroke-linecap="round" stroke-linejoin="round"/>
<path d="M130.1 35.3193L113.036 45.1719V64.8755L130.1 74.7281L147.165 64.8755V45.1719L130.1 35.3193Z" fill="#DF4C6F"/>
<path d="M130.1 35.3193L113.036 45.1719V64.8755L130.1 74.7281L147.165 64.8755V45.1719L130.1 35.3193Z" stroke="#120071" stroke-width="0.769171" stroke-linecap="round" stroke-linejoin="round"/>
<path d="M110.067 16.6489L100.096 22.4055V33.9186L110.067 39.6752L120.037 33.9186V22.4055L110.067 16.6489Z" stroke="#120071" stroke-width="0.769171" stroke-linecap="round" stroke-linejoin="round"/>
<path d="M110.067 68.7205L95.2148 77.2947V94.4447L110.067 103.019L124.918 94.4447V77.2947L110.067 68.7205Z" stroke="#120071" stroke-width="0.769171" stroke-linecap="round" stroke-linejoin="round"/>
<path d="M130.008 8.42676L125.197 11.2041V16.7586L130.008 19.5388L134.82 16.7601V11.2041L130.008 8.42676Z" stroke="#120071" stroke-width="0.769171" stroke-linecap="round" stroke-linejoin="round"/>
<path d="M151.405 70.0999L138.035 77.82V93.2589L151.405 100.978L164.775 93.2589V77.82L151.405 70.0999Z" stroke="#120071" stroke-width="0.769171" stroke-linecap="round" stroke-linejoin="round"/>
<path d="M166.379 7.93872C165.855 7.93816 165.338 8.05389 164.864 8.27756C164.391 8.50124 163.973 8.82727 163.64 9.23213C163.308 9.63698 163.07 10.1106 162.943 10.6187C162.816 11.1268 162.803 11.6567 162.906 12.1703C163.043 12.8567 163.381 13.4872 163.876 13.9822C164.371 14.4772 165.001 14.8146 165.688 14.9519C166.172 15.0482 166.672 15.0419 167.154 14.9335C167.636 14.8252 168.09 14.6171 168.487 14.3227C168.884 14.0283 169.214 13.6541 169.458 13.2242C169.702 12.7943 169.852 12.3181 169.901 11.8264C169.949 11.3347 169.894 10.8383 169.739 10.3691C169.584 9.89992 169.333 9.46836 169.001 9.10218C168.67 8.736 168.265 8.4433 167.813 8.24293C167.362 8.04255 166.873 7.93893 166.379 7.93872Z" fill="#DF4C6F"/>
<path d="M166.379 7.93872C165.855 7.93816 165.338 8.05389 164.864 8.27756C164.391 8.50124 163.973 8.82727 163.64 9.23213C163.308 9.63698 163.07 10.1106 162.943 10.6187C162.816 11.1268 162.803 11.6567 162.906 12.1703C163.043 12.8567 163.381 13.4872 163.876 13.9822C164.371 14.4772 165.001 14.8146 165.688 14.9519C166.172 15.0482 166.672 15.0419 167.154 14.9335C167.636 14.8252 168.09 14.6171 168.487 14.3227C168.884 14.0283 169.214 13.6541 169.458 13.2242C169.702 12.7943 169.852 12.3181 169.901 11.8264C169.949 11.3347 169.894 10.8383 169.739 10.3691C169.584 9.89992 169.333 9.46836 169.001 9.10218C168.67 8.736 168.265 8.4433 167.813 8.24293C167.362 8.04255 166.873 7.93893 166.379 7.93872Z" stroke="#120071" stroke-width="0.769171" stroke-linecap="round" stroke-linejoin="round"/>
<path d="M151.404 16.6489L141.434 22.4055V33.9186L151.404 39.6795L161.375 33.923V22.4098L151.404 16.6489ZM151.404 33.0415C150.111 33.0415 148.87 32.5275 147.955 31.6127C147.04 30.6979 146.527 29.4572 146.527 28.1635C146.527 26.8698 147.04 25.6291 147.955 24.7143C148.87 23.7995 150.111 23.2856 151.404 23.2856C152.698 23.2856 153.939 23.7995 154.854 24.7143C155.768 25.6291 156.282 26.8698 156.282 28.1635C156.282 29.4572 155.768 30.6979 154.854 31.6127C153.939 32.5275 152.698 33.0415 151.404 33.0415Z" fill="#3F5053"/>
<path d="M151.404 16.6489L141.434 22.4055V33.9186L151.404 39.6752L161.375 33.9186V22.4055L151.404 16.6489Z" stroke="#120071" stroke-width="0.769171" stroke-linecap="round" stroke-linejoin="round"/>
<path d="M151.404 23.2822C150.756 23.2711 150.113 23.389 149.511 23.6292C148.91 23.8694 148.362 24.227 147.9 24.6811C147.438 25.1352 147.071 25.6768 146.82 26.2743C146.57 26.8717 146.441 27.513 146.441 28.1609C146.441 28.8087 146.57 29.45 146.82 30.0475C147.071 30.6449 147.438 31.1865 147.9 31.6407C148.362 32.0948 148.91 32.4524 149.511 32.6925C150.113 32.9327 150.756 33.0507 151.404 33.0395C152.684 33.0175 153.903 32.4939 154.8 31.5813C155.697 30.6688 156.2 29.4404 156.2 28.1609C156.2 26.8813 155.697 25.653 154.8 24.7404C153.903 23.8279 152.684 23.3042 151.404 23.2822Z" stroke="#120071" stroke-width="0.769171" stroke-linecap="round" stroke-linejoin="round"/>
<path d="M93.6971 38.5251L79.4038 46.7777V63.277L93.6971 71.5295L107.992 63.277V46.7705L93.6971 38.5251ZM93.6971 58.5707C92.9379 58.5699 92.1991 58.3251 91.5896 57.8724C90.9802 57.4197 90.5323 56.7831 90.3123 56.0565C90.0922 55.3299 90.1115 54.5518 90.3674 53.837C90.6232 53.1222 91.1021 52.5086 91.7333 52.0867C92.3644 51.6648 93.1145 51.457 93.8728 51.4939C94.6311 51.5308 95.3575 51.8104 95.9447 52.2916C96.532 52.7728 96.949 53.43 97.1342 54.1663C97.3195 54.9025 97.2632 55.6788 96.9736 56.3806C96.7049 57.0279 96.25 57.5809 95.6668 57.9695C95.0835 58.3581 94.398 58.5648 93.6971 58.5635V58.5707Z" fill="#3F5053"/>
<path d="M93.6971 38.5178L79.4038 46.7704V63.2769L93.6971 71.5294L107.992 63.2769V46.7718L93.6971 38.5193V38.5178Z" stroke="#120071" stroke-width="0.769171" stroke-linecap="round" stroke-linejoin="round"/>
<path d="M93.6977 51.4842C93.2268 51.4757 92.759 51.5612 92.3216 51.7358C91.8842 51.9103 91.486 52.1704 91.1504 52.5007C90.8147 52.831 90.5483 53.225 90.3668 53.6595C90.1853 54.094 90.0923 54.5604 90.0933 55.0314C90.0942 55.5023 90.1891 55.9683 90.3724 56.4021C90.5557 56.8359 90.8237 57.2288 91.1607 57.5577C91.4977 57.8867 91.8969 58.1451 92.335 58.3178C92.7731 58.4906 93.2413 58.5742 93.7121 58.5638C94.6385 58.5433 95.52 58.1604 96.1673 57.4972C96.8146 56.8341 97.1762 55.9436 97.1743 55.0169C97.1724 54.0903 96.8072 53.2012 96.1572 52.5408C95.5072 51.8803 94.6242 51.5009 93.6977 51.4842Z" stroke="#120071" stroke-width="0.769171" stroke-linecap="round" stroke-linejoin="round"/>
<path d="M82.9228 25.8286C82.2291 25.8286 81.5638 26.1042 81.0732 26.5947C80.5827 27.0853 80.3071 27.7506 80.3071 28.4443C80.3071 29.138 80.5827 29.8034 81.0732 30.2939C81.5638 30.7844 82.2291 31.06 82.9228 31.06C83.6166 31.06 84.2819 30.7844 84.7724 30.2939C85.263 29.8034 85.5385 29.138 85.5385 28.4443C85.5385 27.7506 85.263 27.0853 84.7724 26.5947C84.2819 26.1042 83.6166 25.8286 82.9228 25.8286Z" stroke="#120071" stroke-width="0.769171" stroke-linecap="round" stroke-linejoin="round"/>
<path d="M80.6433 105.646L33.0874 60.3138L58.2389 44.5777L46.8585 22.1531L82.9229 28.4478" stroke="#120071" stroke-width="0.769171" stroke-linecap="round" stroke-linejoin="round"/>
<path d="M166.379 51.4836C165.855 51.4831 165.338 51.5988 164.864 51.8225C164.391 52.0462 163.973 52.3722 163.64 52.7771C163.308 53.1819 163.07 53.6555 162.943 54.1636C162.816 54.6717 162.803 55.2017 162.906 55.7152C163.043 56.4017 163.381 57.0321 163.876 57.5271C164.371 58.0221 165.001 58.3595 165.688 58.4969C166.172 58.5931 166.672 58.5868 167.154 58.4785C167.636 58.3701 168.09 58.162 168.487 57.8676C168.884 57.5732 169.214 57.199 169.458 56.7691C169.702 56.3392 169.852 55.8631 169.901 55.3714C169.949 54.8796 169.894 54.3832 169.739 53.914C169.584 53.4448 169.333 53.0133 169.001 52.6471C168.67 52.2809 168.265 51.9882 167.813 51.7879C167.362 51.5875 166.873 51.4838 166.379 51.4836Z" fill="#3F5053"/>
<path d="M166.379 41.3271L154.517 48.1759V61.8719L166.379 68.7206L178.241 61.8719V48.1773L166.379 41.3286V41.3271Z" stroke="#120071" stroke-width="0.769171" stroke-linecap="round" stroke-linejoin="round"/>
<path d="M166.379 51.4836C165.855 51.4831 165.338 51.5988 164.864 51.8225C164.391 52.0462 163.973 52.3722 163.64 52.7771C163.308 53.1819 163.07 53.6555 162.943 54.1636C162.816 54.6717 162.803 55.2017 162.906 55.7152C163.043 56.4017 163.381 57.0321 163.876 57.5271C164.371 58.0221 165.001 58.3595 165.688 58.4969C166.172 58.5931 166.672 58.5868 167.154 58.4785C167.636 58.3701 168.09 58.162 168.487 57.8676C168.884 57.5732 169.214 57.199 169.458 56.7691C169.702 56.3392 169.852 55.8631 169.901 55.3714C169.949 54.8796 169.894 54.3832 169.739 53.914C169.584 53.4448 169.333 53.0133 169.001 52.6471C168.67 52.2809 168.265 51.9882 167.813 51.7879C167.362 51.5875 166.873 51.4838 166.379 51.4836Z" stroke="#120071" stroke-width="0.769171" stroke-linecap="round" stroke-linejoin="round"/>
<path d="M174.068 105.258L215.931 69.2729L187.062 60.9771L194.694 21.1572L168.649 52.3076" stroke="#120071" stroke-width="0.769171" stroke-linecap="round" stroke-linejoin="round"/>
<path d="M262.492 85.8689H277.094" stroke="#120071" stroke-width="0.769171" stroke-linecap="round" stroke-linejoin="round"/>
<path d="M269.794 93.1709V78.5688" stroke="#120071" stroke-width="0.769171" stroke-linecap="round" stroke-linejoin="round"/>
<path d="M258.337 247.513L268.661 257.838" stroke="#120071" stroke-width="0.769171" stroke-linecap="round" stroke-linejoin="round"/>
<path d="M258.337 257.838L268.661 247.513" stroke="#120071" stroke-width="0.769171" stroke-linecap="round" stroke-linejoin="round"/>
<path d="M12.9062 264.828L18.1723 270.094" stroke="#120071" stroke-width="0.769171" stroke-linecap="round" stroke-linejoin="round"/>
<path d="M12.9062 270.094L18.1723 264.828" stroke="#120071" stroke-width="0.769171" stroke-linecap="round" stroke-linejoin="round"/>
<path d="M238.244 129.035H246.208" stroke="#120071" stroke-width="0.769171" stroke-linecap="round" stroke-linejoin="round"/>
<path d="M242.226 133.017V125.053" stroke="#120071" stroke-width="0.769171" stroke-linecap="round" stroke-linejoin="round"/>
<path d="M199.324 49.5999L203.839 57.0445L209.146 45.9209" stroke="#120071" stroke-width="0.769171" stroke-linecap="round" stroke-linejoin="round"/>
</svg>
