<svg width="301" height="146" viewBox="0 0 301 146" fill="none" xmlns="http://www.w3.org/2000/svg">
<path fill-rule="evenodd" clip-rule="evenodd" d="M150.5 47.7298C204.738 47.7298 248.706 91.552 248.706 145.609H223.622C223.622 105.359 190.884 72.7298 150.5 72.7298C110.116 72.7298 77.3776 105.359 77.3776 145.609H52.2942C52.2942 91.552 96.2625 47.7298 150.5 47.7298Z" fill="white"/>
<path fill-rule="evenodd" clip-rule="evenodd" d="M150.5 3.35938C229.324 3.35938 293.224 67.0469 293.224 145.609H268.141C268.141 80.854 215.471 28.3594 150.5 28.3594C85.5288 28.3594 32.8592 80.854 32.8592 145.609H7.77588C7.77589 67.0468 71.6757 3.35937 150.5 3.35938Z" fill="white"/>
<path fill-rule="evenodd" clip-rule="evenodd" d="M150.5 90.0835C181.268 90.0835 206.211 114.943 206.211 145.609H181.128C181.128 128.75 167.415 115.083 150.5 115.083C133.585 115.083 119.872 128.75 119.872 145.609H94.7891C94.7891 114.943 119.732 90.0835 150.5 90.0835Z" fill="white"/>
</svg>
