<svg width="162" height="307" viewBox="0 0 162 307" fill="none" xmlns="http://www.w3.org/2000/svg">
<path d="M50.6465 243.387L77.9371 290.615L92.431 282.255L64.5423 233.991C66.8574 232.136 69.0907 230.183 71.236 228.138L111.085 267.953L122.919 256.129L82.3924 215.637C84.1008 213.379 85.7183 211.049 87.2395 208.652L137.233 237.491L145.601 223.009L95.0294 193.837C96.1008 191.32 97.075 188.752 97.9472 186.138L154.599 201.305L158.931 185.153L101.926 169.892C102.349 167.247 102.671 164.569 102.888 161.861L162 161.861L162 145.139L102.888 145.139C102.671 142.431 102.349 139.753 101.926 137.108L158.931 121.847L154.599 105.695L97.9472 120.862C97.0749 118.248 96.1008 115.68 95.0294 113.163L145.601 83.9907L137.233 69.5093L87.2395 98.3484C85.7182 95.9512 84.1007 93.621 82.3924 91.3632L122.919 50.8711L111.085 39.0471L71.236 78.862C69.0907 76.8174 66.8573 74.8642 64.5423 73.0087L92.431 24.7455L77.9371 16.3846L50.6465 63.6127C47.9289 62.0808 45.1349 60.6684 42.2716 59.3826L56.2138 7.39432L40.048 3.06642L26.4471 53.7823C23.2676 52.9427 20.028 52.2509 16.7361 51.7146L16.7361 -6.34969e-06L1.52588e-05 -7.08124e-06L1.83939e-06 307L16.7361 307L16.7361 255.285C20.028 254.749 23.2676 254.057 26.447 253.218L40.048 303.934L56.2138 299.606L42.2716 247.617C45.1349 246.332 47.9289 244.919 50.6465 243.387Z" fill="#7667D8"/>
</svg>
