<svg width="255" height="266" viewBox="0 0 255 266" fill="none" xmlns="http://www.w3.org/2000/svg">
<path d="M153.033 31.0333C153.033 48.1726 139.139 62.0667 122 62.0667C104.861 62.0667 90.9667 48.1726 90.9667 31.0333C90.9667 13.8941 104.861 0 122 0C139.139 0 153.033 13.8941 153.033 31.0333Z" fill="#FF8D4D"/>
<path d="M185.951 213.252C181.449 208.75 181.449 201.452 185.951 196.951C190.452 192.449 197.75 192.449 202.252 196.951C206.753 201.452 206.753 208.75 202.252 213.252C197.75 217.753 190.452 217.753 185.951 213.252Z" fill="#FF8D4D"/>
<path d="M153.033 234.967C153.033 252.106 139.139 266 122 266C104.861 266 90.9667 252.106 90.9667 234.967C90.9667 217.827 104.861 203.933 122 203.933C139.139 203.933 153.033 217.827 153.033 234.967Z" fill="#FF8D4D"/>
<path d="M223.967 164.033C206.827 164.033 192.933 150.139 192.933 133C192.933 115.861 206.827 101.967 223.967 101.967C241.106 101.967 255 115.861 255 133C255 150.139 241.106 164.033 223.967 164.033Z" fill="#FF8D4D"/>
<path d="M20.0333 164.033C2.8941 164.033 -11 150.139 -11 133C-11 115.861 2.8941 101.967 20.0333 101.967C37.1726 101.967 51.0667 115.861 51.0667 133C51.0667 150.139 37.1726 164.033 20.0333 164.033Z" fill="#FF8D4D"/>
<path d="M41.7481 69.0493C37.2467 64.5478 37.2467 57.2496 41.7481 52.7481C46.2495 48.2467 53.5478 48.2467 58.0493 52.7481C62.5507 57.2496 62.5507 64.5478 58.0493 69.0493C53.5478 73.5507 46.2495 73.5507 41.7481 69.0493Z" fill="#FF8D4D"/>
<path d="M58.0493 213.252C62.5507 208.75 62.5507 201.452 58.0493 196.951C53.5478 192.449 46.2495 192.449 41.7481 196.951C37.2467 201.452 37.2467 208.75 41.7481 213.252C46.2495 217.753 53.5478 217.753 58.0493 213.252Z" fill="#FF8D4D"/>
<path d="M202.252 69.0493C206.753 64.5478 206.753 57.2496 202.252 52.7481C197.75 48.2467 190.452 48.2467 185.951 52.7481C181.449 57.2496 181.449 64.5478 185.951 69.0493C190.452 73.5507 197.75 73.5507 202.252 69.0493Z" fill="#FF8D4D"/>
<path fill-rule="evenodd" clip-rule="evenodd" d="M177.868 26.6363C182.203 28.9134 183.871 34.2738 181.594 38.6091L172.936 55.0935C170.659 59.4288 165.298 61.0973 160.963 58.8201C156.628 56.543 154.959 51.1826 157.236 46.8474L165.895 30.363C168.172 26.0277 173.532 24.3592 177.868 26.6363Z" fill="#FF8D4D"/>
<path fill-rule="evenodd" clip-rule="evenodd" d="M83.0369 207.18C87.3722 209.457 89.0407 214.817 86.7636 219.153L78.1051 235.637C75.828 239.972 70.4676 241.641 66.1323 239.364C61.797 237.087 60.1286 231.726 62.4057 227.391L71.0641 210.906C73.3412 206.571 78.7016 204.903 83.0369 207.18Z" fill="#FF8D4D"/>
<path fill-rule="evenodd" clip-rule="evenodd" d="M66.1323 26.6363C61.797 28.9134 60.1285 34.2738 62.4057 38.6091L71.0641 55.0935C73.3412 59.4288 78.7016 61.0973 83.0369 58.8201C87.3722 56.543 89.0407 51.1826 86.7635 46.8474L78.1051 30.363C75.828 26.0277 70.4676 24.3592 66.1323 26.6363Z" fill="#FF8D4D"/>
<path fill-rule="evenodd" clip-rule="evenodd" d="M160.963 207.18C156.628 209.457 154.959 214.817 157.236 219.153L165.895 235.637C168.172 239.972 173.532 241.641 177.868 239.364C182.203 237.087 183.871 231.726 181.594 227.391L172.936 210.906C170.659 206.571 165.298 204.903 160.963 207.18Z" fill="#FF8D4D"/>
<path fill-rule="evenodd" clip-rule="evenodd" d="M47.5443 94.5666C45.2982 98.918 39.9498 100.625 35.5984 98.3785L19.0527 89.8378C14.7013 87.5916 12.9947 82.2432 15.2408 77.8919C17.487 73.5405 22.8353 71.8338 27.1867 74.08L43.7324 82.6207C48.0838 84.8669 49.7905 90.2152 47.5443 94.5666Z" fill="#FF8D4D"/>
<path fill-rule="evenodd" clip-rule="evenodd" d="M227.963 76.3756C225.655 72.0567 220.283 70.4264 215.964 72.7344L199.541 81.5101C195.222 83.8181 193.592 89.1902 195.9 93.5092C198.208 97.8281 203.58 99.4583 207.899 97.1504L224.322 88.3746C228.64 86.0667 230.271 80.6945 227.963 76.3756Z" fill="#FF8D4D"/>
<path fill-rule="evenodd" clip-rule="evenodd" d="M47.5443 171.433C45.2982 167.082 39.9498 165.375 35.5984 167.621L19.0527 176.162C14.7013 178.408 12.9947 183.757 15.2408 188.108C17.487 192.459 22.8353 194.166 27.1867 191.92L43.7324 183.379C48.0838 181.133 49.7905 175.785 47.5443 171.433Z" fill="#FF8D4D"/>
<path fill-rule="evenodd" clip-rule="evenodd" d="M227.963 189.624C225.655 193.943 220.283 195.573 215.964 193.266L199.541 184.49C195.222 182.182 193.592 176.81 195.9 172.491C198.208 168.172 203.58 166.542 207.899 168.85L224.322 177.625C228.64 179.933 230.271 185.305 227.963 189.624Z" fill="#FF8D4D"/>
</svg>
