<svg width="32" height="32" viewBox="0 0 32 32" fill="none" xmlns="http://www.w3.org/2000/svg">
<path d="M31.7 9.59995C31.7 9.59995 31.4 7.39995 30.4 6.39995C29.2 5.09995 27.8 5.09995 27.2 4.99995C22.7 4.69995 16 4.69995 16 4.69995C16 4.69995 9.3 4.69995 4.8 4.99995C4.2 5.09995 2.8 5.09995 1.6 6.39995C0.6 7.39995 0.3 9.59995 0.3 9.59995C0.3 9.59995 0 12.2 0 14.8V17.2C0 19.8 0.3 22.4 0.3 22.4C0.3 22.4 0.6 24.6 1.6 25.6C2.8 26.9 4.4 26.7999 5.1 27C7.7 27.2 16 27.2999 16 27.2999C16 27.2999 22.7 27.2999 27.2 27C27.8 26.9 29.2 26.9 30.4 25.6C31.4 24.6 31.7 22.4 31.7 22.4C31.7 22.4 32 19.8 32 17.2V14.8C32 12.2 31.7 9.59995 31.7 9.59995ZM12.7 20.2V11.2L21.3 15.7L12.7 20.2Z" fill="#5F5A59"/>
</svg>
