<svg width="112" height="20" viewBox="0 0 112 20" fill="none" xmlns="http://www.w3.org/2000/svg">
<path d="M9.04894 2.92705C9.3483 2.00574 10.6517 2.00574 10.9511 2.92705L12.0206 6.21885C12.1545 6.63087 12.5385 6.90983 12.9717 6.90983H16.4329C17.4016 6.90983 17.8044 8.14945 17.0207 8.71885L14.2205 10.7533C13.87 11.0079 13.7234 11.4593 13.8572 11.8713L14.9268 15.1631C15.2261 16.0844 14.1717 16.8506 13.388 16.2812L10.5878 14.2467C10.2373 13.9921 9.7627 13.9921 9.41221 14.2467L6.61204 16.2812C5.82833 16.8506 4.77385 16.0844 5.0732 15.1631L6.14277 11.8713C6.27665 11.4593 6.12999 11.0079 5.7795 10.7533L2.97933 8.71885C2.19562 8.14945 2.59839 6.90983 3.56712 6.90983H7.02832C7.46154 6.90983 7.8455 6.63087 7.97937 6.21885L9.04894 2.92705Z" fill="#FFC047"/>
<path d="M32.0489 2.92705C32.3483 2.00574 33.6517 2.00574 33.9511 2.92705L35.0206 6.21885C35.1545 6.63087 35.5385 6.90983 35.9717 6.90983H39.4329C40.4016 6.90983 40.8044 8.14945 40.0207 8.71885L37.2205 10.7533C36.87 11.0079 36.7234 11.4593 36.8572 11.8713L37.9268 15.1631C38.2261 16.0844 37.1717 16.8506 36.388 16.2812L33.5878 14.2467C33.2373 13.9921 32.7627 13.9921 32.4122 14.2467L29.612 16.2812C28.8283 16.8506 27.7739 16.0844 28.0732 15.1631L29.1428 11.8713C29.2766 11.4593 29.13 11.0079 28.7795 10.7533L25.9793 8.71885C25.1956 8.14945 25.5984 6.90983 26.5671 6.90983H30.0283C30.4615 6.90983 30.8455 6.63087 30.9794 6.21885L32.0489 2.92705Z" fill="#FFC047"/>
<path d="M55.0489 2.92705C55.3483 2.00574 56.6517 2.00574 56.9511 2.92705L58.0206 6.21885C58.1545 6.63087 58.5385 6.90983 58.9717 6.90983H62.4329C63.4016 6.90983 63.8044 8.14945 63.0207 8.71885L60.2205 10.7533C59.87 11.0079 59.7234 11.4593 59.8572 11.8713L60.9268 15.1631C61.2261 16.0844 60.1717 16.8506 59.388 16.2812L56.5878 14.2467C56.2373 13.9921 55.7627 13.9921 55.4122 14.2467L52.612 16.2812C51.8283 16.8506 50.7739 16.0844 51.0732 15.1631L52.1428 11.8713C52.2766 11.4593 52.13 11.0079 51.7795 10.7533L48.9793 8.71885C48.1956 8.14945 48.5984 6.90983 49.5671 6.90983H53.0283C53.4615 6.90983 53.8455 6.63087 53.9794 6.21885L55.0489 2.92705Z" fill="#FFC047"/>
<path d="M78.0489 2.92705C78.3483 2.00574 79.6517 2.00574 79.9511 2.92705L81.0206 6.21885C81.1545 6.63087 81.5385 6.90983 81.9717 6.90983H85.4329C86.4016 6.90983 86.8044 8.14945 86.0207 8.71885L83.2205 10.7533C82.87 11.0079 82.7234 11.4593 82.8572 11.8713L83.9268 15.1631C84.2261 16.0844 83.1717 16.8506 82.388 16.2812L79.5878 14.2467C79.2373 13.9921 78.7627 13.9921 78.4122 14.2467L75.612 16.2812C74.8283 16.8506 73.7739 16.0844 74.0732 15.1631L75.1428 11.8713C75.2766 11.4593 75.13 11.0079 74.7795 10.7533L71.9793 8.71885C71.1956 8.14945 71.5984 6.90983 72.5671 6.90983H76.0283C76.4615 6.90983 76.8455 6.63087 76.9794 6.21885L78.0489 2.92705Z" fill="#FFC047"/>
<path d="M101.049 2.92705C101.348 2.00574 102.652 2.00574 102.951 2.92705L104.021 6.21885C104.155 6.63087 104.538 6.90983 104.972 6.90983H108.433C109.402 6.90983 109.804 8.14945 109.021 8.71885L106.22 10.7533C105.87 11.0079 105.723 11.4593 105.857 11.8713L106.927 15.1631C107.226 16.0844 106.172 16.8506 105.388 16.2812L102.588 14.2467C102.237 13.9921 101.763 13.9921 101.412 14.2467L98.612 16.2812C97.8283 16.8506 96.7739 16.0844 97.0732 15.1631L98.1428 11.8713C98.2766 11.4593 98.13 11.0079 97.7795 10.7533L94.9793 8.71885C94.1956 8.14945 94.5984 6.90983 95.5671 6.90983H99.0283C99.4615 6.90983 99.8455 6.63087 99.9794 6.21885L101.049 2.92705Z" fill="#FFC047"/>
</svg>
