<svg width="567" height="611" viewBox="0 0 567 611" fill="none" xmlns="http://www.w3.org/2000/svg">
<path d="M538.117 270.566C531.216 270.566 528.618 236.914 535.522 236.376C498.195 240.355 459.869 246.471 433.816 242.324C424.669 253.622 417.206 266.19 411.662 279.634C408.142 266.979 406.861 253.805 407.878 240.707C402.922 240.303 348.837 204.382 326.064 191.041C321.126 194.385 316.918 198.7 313.697 203.723C310.475 208.746 308.307 214.373 307.324 220.262L387.138 268.898L393.423 259.83C391.954 263.451 391.132 267.302 390.995 271.208C390.765 279.062 393.302 290.553 402.755 310.724C411.981 313.496 427.033 309.223 438.504 302.581C437.985 295.361 441.503 286.525 444.155 279.135C442.118 277.641 439.979 276.29 437.755 275.093C471.58 277.324 503.409 274.798 538.117 270.566Z" fill="#FFD647"/>
<path d="M256.923 323.641C239.393 322.267 221.804 321.785 204.225 322.197C205.323 318.455 205.979 314.598 206.185 310.704C191.77 314.458 177.816 314.574 159.253 311.92V311.689C150.628 317.404 143.099 337.666 148.506 352.561L133.536 384.229L90.8705 356.963C78.0123 364.991 71.5543 375.271 66.8262 391.038L120.62 427.94C124.228 430.422 128.321 432.109 132.627 432.891C136.934 433.674 141.357 433.533 145.605 432.479C149.854 431.426 153.831 429.484 157.276 426.781C160.721 424.077 163.555 420.673 165.592 416.794L182.775 384.05L161.089 367.459C164.269 369.319 167.684 370.742 171.243 371.69C188.945 376.599 214.831 374.636 232.241 372.499C227.121 392.901 223.118 413.569 220.251 434.409C231.229 441.807 244.616 444.72 257.669 442.552C267.422 415.176 275.661 387.283 282.351 358.999C283.35 354.975 283.461 350.781 282.678 346.708C281.895 342.636 280.236 338.784 277.816 335.419C275.396 332.054 272.273 329.258 268.665 327.224C265.057 325.19 261.05 323.967 256.923 323.641Z" fill="#FFD647"/>
<path d="M509.406 144.492C508.753 143.83 507.918 143.379 507.007 143.197C506.096 143.014 505.152 143.109 504.295 143.468C503.726 143.705 503.209 144.053 502.775 144.492L501.561 145.708L500.347 144.492C499.459 143.652 498.279 143.192 497.058 143.21C495.837 143.227 494.67 143.721 493.807 144.586C492.944 145.452 492.451 146.62 492.434 147.843C492.417 149.067 492.877 150.248 493.716 151.137L501.606 158.992L509.391 151.137C510.051 150.483 510.503 149.647 510.687 148.736C510.871 147.824 510.78 146.878 510.425 146.018C510.189 145.447 509.843 144.929 509.406 144.492Z" fill="#FFD647"/>
<path d="M198.972 96.3863C198.319 95.7244 197.484 95.2732 196.573 95.0907C195.663 94.9081 194.718 95.0026 193.862 95.3619C193.292 95.5991 192.775 95.9474 192.341 96.3863L191.127 97.6022L189.913 96.3863C189.026 95.5463 187.846 95.0862 186.624 95.1038C185.403 95.1213 184.237 95.6152 183.373 96.4805C182.51 97.3457 182.017 98.5141 182 99.7373C181.983 100.961 182.443 102.142 183.282 103.031L191.173 110.886L198.957 103.031C199.618 102.377 200.069 101.541 200.253 100.63C200.438 99.718 200.347 98.7719 199.992 97.9123C199.756 97.3413 199.409 96.8227 198.972 96.3863Z" fill="#FFD647"/>
<path d="M333.972 308.386C333.319 307.724 332.484 307.273 331.573 307.091C330.663 306.908 329.718 307.003 328.862 307.362C328.292 307.599 327.775 307.947 327.341 308.386L326.127 309.602L324.913 308.386C324.026 307.546 322.846 307.086 321.624 307.104C320.403 307.121 319.237 307.615 318.373 308.48C317.51 309.346 317.017 310.514 317 311.737C316.983 312.961 317.443 314.142 318.282 315.031L326.173 322.886L333.957 315.031C334.618 314.377 335.069 313.541 335.253 312.63C335.438 311.718 335.347 310.772 334.992 309.912C334.756 309.341 334.409 308.823 333.972 308.386Z" fill="#FFD647"/>
<path d="M560.972 54.3863C560.319 53.7244 559.484 53.2732 558.573 53.0907C557.663 52.9081 556.718 53.0026 555.862 53.3619C555.292 53.5991 554.775 53.9474 554.341 54.3863L553.127 55.6022L551.913 54.3863C551.026 53.5463 549.846 53.0862 548.624 53.1038C547.403 53.1213 546.237 53.6152 545.373 54.4805C544.51 55.3457 544.017 56.5141 544 57.7373C543.983 58.9606 544.443 60.1422 545.282 61.0312L553.173 68.8858L560.957 61.0312C561.618 60.3775 562.069 59.5414 562.253 58.6297C562.438 57.718 562.347 56.7719 561.992 55.9123C561.756 55.3413 561.409 54.8227 560.972 54.3863Z" fill="#FFD647"/>
<path d="M179.258 482.342L171.244 481.129L167.669 473.91L164.094 481.129L156.082 482.342L161.906 487.944L160.522 495.914L167.669 492.16L174.819 495.914L173.435 487.944L179.258 482.342Z" fill="#FFD647"/>
<path d="M559.176 455.432L551.162 454.219L547.587 447L544.012 454.219L536 455.432L541.824 461.034L540.44 469.005L547.587 465.25L554.737 469.005L553.353 461.034L559.176 455.432Z" fill="#FFD647"/>
<path d="M457.176 8.43216L449.162 7.21931L445.587 0L442.012 7.21931L434 8.43216L439.824 14.0344L438.44 22.0046L445.587 18.2505L452.737 22.0046L451.353 14.0344L457.176 8.43216Z" fill="#FFD647"/>
<path d="M420.093 229.202L414.023 234.977C414.585 233.375 414.934 231.703 415.061 230.01C416.763 229.929 418.451 229.657 420.093 229.202Z" fill="#FF6635"/>
<path d="M445.347 275.475C444.943 276.63 444.539 277.843 444.078 279.123C442.041 277.628 439.902 276.278 437.678 275.08C440.272 275.187 442.809 275.36 445.347 275.475Z" fill="#FF6635"/>
<path d="M492.281 179.605C482.837 171.75 457.226 193.812 457.226 193.812C461.951 170.479 427.358 190.468 415.711 201.84C421.708 197.046 426.493 207.439 425.974 213.33C425.974 214.719 426.724 215.008 428.857 213.507C433.297 210.272 436.469 217.954 428.108 221.531C427.546 222.139 427.134 222.869 426.894 223.659C425.362 228.018 425.261 232.753 426.606 237.174C465.411 229.216 501.679 187.401 492.281 179.605Z" fill="#FF6635"/>
<path d="M425.628 356.789L421.015 360.774L416.979 343.62L425.628 356.789Z" fill="#FF6635"/>
<path d="M298.954 88.0098C294.332 88.0098 289.814 89.3825 285.971 91.9544C282.128 94.5263 279.133 98.1818 277.365 102.459C275.596 106.736 275.133 111.442 276.035 115.982C276.937 120.522 279.162 124.693 282.43 127.966C285.698 131.24 289.862 133.469 294.395 134.372C298.928 135.275 303.626 134.811 307.896 133.04C312.166 131.268 315.815 128.268 318.383 124.419C320.951 120.57 322.321 116.045 322.321 111.416C322.329 106.784 320.963 102.254 318.396 98.4021C315.828 94.5497 312.176 91.5483 307.903 89.7789C305.065 88.6051 302.024 88.0039 298.954 88.0098ZM299.53 125.666C299.53 125.819 299.469 125.966 299.361 126.074C299.253 126.183 299.106 126.243 298.954 126.243C298.877 126.248 298.8 126.236 298.728 126.208C298.656 126.181 298.59 126.139 298.536 126.084C298.482 126.03 298.439 125.964 298.412 125.892C298.384 125.82 298.373 125.743 298.377 125.666V107.531C298.378 107.378 298.439 107.232 298.547 107.123C298.655 107.015 298.801 106.954 298.954 106.953C299.03 106.949 299.107 106.961 299.179 106.988C299.251 107.016 299.317 107.058 299.371 107.113C299.425 107.167 299.468 107.233 299.495 107.305C299.523 107.377 299.535 107.454 299.53 107.531V125.666ZM297.339 98.7552C297.357 98.3309 297.538 97.93 297.845 97.6363C298.151 97.3425 298.558 97.1785 298.982 97.1785C299.406 97.1785 299.814 97.3425 300.12 97.6363C300.426 97.93 300.607 98.3309 300.626 98.7552C300.607 99.1796 300.426 99.5804 300.12 99.8742C299.814 100.168 299.406 100.332 298.982 100.332C298.558 100.332 298.151 100.168 297.845 99.8742C297.538 99.5804 297.357 99.1796 297.339 98.7552Z" fill="#FF6635"/>
<path d="M160.748 367.241L182.774 384.048L187.906 374.345C178.428 374.101 169.135 371.67 160.748 367.241Z" fill="#FF6635"/>
<path d="M179.777 239.956L172.857 235.281C174.845 235.521 176.851 235.597 178.854 235.512C179.012 237.02 179.321 238.509 179.777 239.956Z" fill="#FF6635"/>
<path d="M393.34 259.824C391.871 263.444 391.049 267.296 390.912 271.201L387.049 268.833L393.34 259.824Z" fill="#FF6635"/>
<path d="M209.299 260.228C209.815 262.745 210.179 265.292 210.394 267.852C211.49 267.332 212.701 266.697 213.912 266.062L209.299 260.228Z" fill="#FF6635"/>
<path d="M225.037 439.143C223.714 442.955 222.039 446.767 220.889 450.114C221.784 453.957 223.179 457.665 225.037 461.145C230.861 471.945 236.685 493.141 241.297 498.455C243.834 490.889 246.544 471.89 248.332 461.203C239.332 455.279 231.446 447.812 225.037 439.143Z" fill="#FF6635"/>
<path d="M71.5543 352.398C67.6209 352.226 63.6825 352.595 59.8493 353.496C47.856 356.268 25.8904 356.268 19.6055 359.329C26.1787 363.834 43.7621 371.515 53.5643 376.02C61.6674 368.861 70.9815 363.209 81.0683 359.329C77.6663 357.019 74.4373 354.42 71.5543 352.398Z" fill="#FF6635"/>
<path d="M174.01 203.06C172.108 199.941 167.941 200.114 168.36 202.482C165.768 200.172 161.271 201.266 161.787 203.926C158.676 201.385 155.043 203.406 155.79 205.832C153.083 203.753 150.142 205.832 151.065 208.315C147.201 206.641 143.973 209.531 148.528 214.091C150.488 216.055 159.019 222.405 163.805 230.433C164.099 229.278 164.071 228.064 163.726 226.924C163.38 225.784 162.729 224.76 161.844 223.964C157.116 220.383 160.345 216.112 163.343 219.055C165.996 221.654 165.134 217.839 163.228 214.434C163.623 214.776 164.097 215.013 164.607 215.123C165.117 215.233 165.646 215.212 166.146 215.063C166.646 214.913 167.101 214.64 167.467 214.268C167.834 213.897 168.101 213.438 168.244 212.936C168.623 213.222 169.058 213.422 169.522 213.522C169.985 213.622 170.464 213.62 170.926 213.516C171.389 213.411 171.823 213.207 172.198 212.917C172.573 212.628 172.881 212.259 173.1 211.838C175.224 213.337 178.116 212.416 178.232 210.164C176.951 207.963 175.51 205.537 174.01 203.06Z" fill="#FF6635"/>
<path d="M159.029 280.209L154.823 285.638C154.246 283.388 153.669 281.191 153.035 279.057C154.987 279.403 159.029 280.209 159.029 280.209Z" fill="#FF6635"/>
<path d="M100.209 265.945C100.189 266.452 99.9738 266.932 99.6087 267.284C99.2435 267.635 98.7565 267.832 98.2499 267.832C97.7434 267.832 97.2564 267.635 96.8912 267.284C96.526 266.932 96.3109 266.452 96.291 265.945C96.3109 265.438 96.526 264.959 96.8912 264.607C97.2564 264.255 97.7434 264.059 98.2499 264.059C98.7565 264.059 99.2435 264.255 99.6087 264.607C99.9738 264.959 100.189 265.438 100.209 265.945Z" fill="#FF6635"/>
<path d="M126.501 248.62C126.501 248.877 126.45 249.133 126.352 249.371C126.253 249.609 126.109 249.826 125.927 250.008C125.745 250.19 125.529 250.335 125.291 250.434C125.053 250.532 124.798 250.583 124.541 250.583C124.283 250.583 124.028 250.532 123.79 250.434C123.552 250.335 123.336 250.19 123.154 250.008C122.972 249.826 122.828 249.609 122.729 249.371C122.631 249.133 122.58 248.877 122.58 248.62C122.58 248.099 122.787 247.599 123.154 247.231C123.522 246.863 124.021 246.656 124.541 246.656C125.06 246.656 125.559 246.863 125.927 247.231C126.294 247.599 126.501 248.099 126.501 248.62Z" fill="#FF6635"/>
<path d="M151.699 267.91C151.699 268.431 151.493 268.931 151.125 269.299C150.757 269.668 150.258 269.875 149.737 269.875C149.217 269.875 148.718 269.668 148.35 269.299C147.982 268.931 147.775 268.431 147.775 267.91C147.775 267.389 147.982 266.889 148.35 266.52C148.718 266.152 149.217 265.945 149.737 265.945C150.258 265.945 150.757 266.152 151.125 266.52C151.493 266.889 151.699 267.389 151.699 267.91Z" fill="#FF6635"/>
<path d="M186.061 273.396C186.061 273.918 185.854 274.417 185.486 274.786C185.118 275.155 184.619 275.362 184.099 275.362C183.578 275.362 183.079 275.155 182.711 274.786C182.343 274.417 182.137 273.918 182.137 273.396C182.137 272.875 182.343 272.375 182.711 272.007C183.079 271.638 183.578 271.431 184.099 271.431C184.619 271.431 185.118 271.638 185.486 272.007C185.854 272.375 186.061 272.875 186.061 273.396Z" fill="#FF6635"/>
<path d="M203.942 243.364C203.942 243.886 203.735 244.385 203.367 244.754C202.999 245.122 202.5 245.33 201.98 245.33C201.459 245.33 200.96 245.122 200.592 244.754C200.224 244.385 200.018 243.886 200.018 243.364C200.018 242.843 200.224 242.343 200.592 241.975C200.96 241.606 201.459 241.399 201.98 241.399C202.5 241.399 202.999 241.606 203.367 241.975C203.735 242.343 203.942 242.843 203.942 243.364Z" fill="#FF6635"/>
<path d="M237.376 242.96C237.376 243.218 237.325 243.473 237.227 243.712C237.128 243.95 236.984 244.166 236.802 244.349C236.62 244.531 236.404 244.676 236.166 244.774C235.928 244.873 235.673 244.924 235.416 244.924C235.158 244.924 234.903 244.873 234.665 244.774C234.427 244.676 234.211 244.531 234.029 244.349C233.847 244.166 233.703 243.95 233.604 243.712C233.506 243.473 233.455 243.218 233.455 242.96C233.455 242.439 233.662 241.94 234.029 241.572C234.397 241.203 234.896 240.996 235.416 240.996C235.935 240.996 236.434 241.203 236.802 241.572C237.169 241.94 237.376 242.439 237.376 242.96Z" fill="#FF6635"/>
<path d="M248.677 216.338C248.677 216.858 248.47 217.358 248.103 217.726C247.735 218.094 247.236 218.301 246.716 218.301C246.196 218.301 245.698 218.094 245.33 217.726C244.962 217.358 244.756 216.858 244.756 216.338C244.756 215.817 244.962 215.317 245.33 214.949C245.698 214.581 246.196 214.374 246.716 214.374C247.236 214.374 247.735 214.581 248.103 214.949C248.47 215.317 248.677 215.817 248.677 216.338Z" fill="#FF6635"/>
<path d="M171.589 300.365C171.589 300.623 171.538 300.878 171.44 301.116C171.341 301.355 171.197 301.571 171.015 301.754C170.833 301.936 170.616 302.081 170.379 302.179C170.141 302.278 169.886 302.329 169.628 302.329C169.371 302.329 169.116 302.278 168.878 302.179C168.64 302.081 168.424 301.936 168.242 301.754C168.06 301.571 167.916 301.355 167.817 301.116C167.719 300.878 167.668 300.623 167.668 300.365C167.668 299.844 167.875 299.345 168.242 298.977C168.61 298.608 169.108 298.401 169.628 298.401C170.148 298.401 170.647 298.608 171.015 298.977C171.382 299.345 171.589 299.844 171.589 300.365Z" fill="#FF6635"/>
<path d="M201.975 298.402C201.975 298.923 201.768 299.423 201.4 299.791C201.032 300.16 200.533 300.367 200.013 300.367C199.492 300.367 198.993 300.16 198.625 299.791C198.257 299.423 198.051 298.923 198.051 298.402C198.051 297.88 198.257 297.381 198.625 297.012C198.993 296.643 199.492 296.436 200.013 296.436C200.533 296.436 201.032 296.643 201.4 297.012C201.768 297.381 201.975 297.88 201.975 298.402Z" fill="#FF6635"/>
<path d="M539.098 239.725C537.079 239.841 533.505 240.014 532.697 240.072C534.196 235.281 536.855 235.22 539.098 239.725Z" fill="#FF6635"/>
<path d="M540.943 267.447C539.501 271.374 537.137 271.548 535.119 267.909C536.791 267.806 538.809 267.62 540.943 267.447Z" fill="#FF6635"/>
<path d="M328.822 201.844C328.832 202.109 328.789 202.372 328.695 202.62C328.601 202.868 328.459 203.093 328.275 203.284C328.092 203.475 327.872 203.627 327.629 203.731C327.386 203.835 327.124 203.888 326.86 203.888C326.596 203.888 326.334 203.835 326.091 203.731C325.848 203.627 325.628 203.475 325.445 203.284C325.261 203.093 325.119 202.868 325.025 202.62C324.931 202.372 324.888 202.109 324.898 201.844C324.918 201.336 325.133 200.856 325.499 200.504C325.865 200.151 326.353 199.955 326.86 199.955C327.367 199.955 327.855 200.151 328.221 200.504C328.587 200.856 328.802 201.336 328.822 201.844Z" fill="#FF6635"/>
<path d="M525.605 247.291C525.605 247.812 525.399 248.311 525.032 248.679C524.664 249.047 524.166 249.253 523.646 249.253C523.127 249.253 522.629 249.047 522.261 248.679C521.894 248.311 521.688 247.812 521.688 247.291C521.688 246.771 521.894 246.272 522.261 245.904C522.629 245.536 523.127 245.329 523.646 245.329C524.166 245.329 524.664 245.536 525.032 245.904C525.399 246.272 525.605 246.771 525.605 247.291Z" fill="#FF6635"/>
<path d="M479.538 376.771C479.52 373.452 479.328 370.136 478.961 366.837L495.625 351.359L479.538 376.771Z" fill="#FF6635"/>
<path d="M317.405 455.315C294.881 458.132 272.012 455.701 250.58 448.211" stroke="#120071" stroke-width="0.769171" stroke-linecap="round" stroke-linejoin="round"/>
<path d="M432.894 367.814C418.997 400.412 393.755 426.846 361.859 442.199" stroke="#120071" stroke-width="0.769171" stroke-linecap="round" stroke-linejoin="round"/>
<path d="M442.119 284.541C443.397 291.441 444.146 298.432 444.368 305.448" stroke="#120071" stroke-width="0.769171" stroke-linecap="round" stroke-linejoin="round"/>
<path d="M321.73 166.727C355.383 172.025 386.101 189.015 408.503 214.721" stroke="#120071" stroke-width="0.769171" stroke-linecap="round" stroke-linejoin="round"/>
<path d="M286.73 165.456C293.292 164.928 299.882 164.831 306.456 165.167C307.61 165.228 308.82 165.283 309.974 165.398" stroke="#120071" stroke-width="0.769171" stroke-linecap="round" stroke-linejoin="round"/>
<path d="M183.871 221.418C205.341 193.654 236.092 174.583 270.474 167.709" stroke="#120071" stroke-width="0.769171" stroke-linecap="round" stroke-linejoin="round"/>
<path d="M153.603 317.864C153.367 312.977 153.386 308.08 153.66 303.195C153.937 297.991 154.477 292.808 155.275 287.659" stroke="#120071" stroke-width="0.769171" stroke-linecap="round" stroke-linejoin="round"/>
<path d="M220.541 433.542C203.849 422.822 189.51 408.813 178.395 392.366" stroke="#120071" stroke-width="0.769171" stroke-linecap="round" stroke-linejoin="round"/>
<path d="M415.077 229.966C416.754 229.915 418.419 229.663 420.036 229.215L414.039 234.932" stroke="#120071" stroke-width="0.769171" stroke-linecap="round" stroke-linejoin="round"/>
<path d="M565.334 245.617L576.693 240.419C583.897 237.127 583.976 233.616 575.367 236.376C574.845 236.543 562.047 240.355 560.029 240.65C558.472 240.878 555.781 241.109 555.477 240.072C554.321 236.121 559.119 225.445 555.765 224.363C553.577 223.661 549.839 230.549 547.462 235.51C545.799 238.981 542.91 239.553 539.102 239.726" stroke="#120071" stroke-width="0.769171" stroke-linecap="round" stroke-linejoin="round"/>
<path d="M563.258 245.847C563.258 245.847 580.556 243.719 581.709 243.537C590.698 242.227 590.07 245.625 582.401 247.753C575.078 249.784 566.256 252.313 566.256 252.313" stroke="#120071" stroke-width="0.769171" stroke-linecap="round" stroke-linejoin="round"/>
<path d="M563.258 252.259C568.933 252.429 574.611 252.274 580.268 251.796C589.317 251.088 588.337 254.107 580.671 256.013C575.942 257.307 571.124 258.253 566.256 258.843" stroke="#120071" stroke-width="0.769171" stroke-linecap="round" stroke-linejoin="round"/>
<path d="M540.943 267.448C540.943 267.448 553.456 266.628 555.877 266.409C560.545 265.983 565.34 265.239 570.004 264.618C571.914 264.36 573.817 264.056 575.713 263.706C583.791 262.187 584.993 259.183 575.828 259.433C570.908 259.55 565.993 259.085 561.182 258.047" stroke="#120071" stroke-width="0.769171" stroke-linecap="round" stroke-linejoin="round"/>
<path d="M562.911 243.076C563.787 250.27 562.223 257.55 558.471 263.746" stroke="#120071" stroke-width="0.769171" stroke-linecap="round" stroke-linejoin="round"/>
<path d="M556.107 242.96C554.755 246.545 552.673 249.809 549.993 252.543C547.312 255.278 544.093 257.423 540.539 258.843" stroke="#120071" stroke-width="0.769171" stroke-linecap="round" stroke-linejoin="round"/>
<path d="M445.384 275.5C444.98 276.655 444.576 277.868 444.115 279.148C441.117 277.126 438.574 275.819 437.715 275.105C440.31 275.211 442.847 275.385 445.384 275.5Z" stroke="#120071" stroke-width="0.769171" stroke-linecap="round" stroke-linejoin="round"/>
<path d="M387.057 268.892L393.342 259.824C391.708 263.397 390.86 267.279 390.853 271.208" stroke="#120071" stroke-width="0.769171" stroke-linecap="round" stroke-linejoin="round"/>
<path d="M407.878 240.707C409.963 240.707 412.658 238.914 414.048 234.932C414.607 233.328 414.955 231.658 415.086 229.965C409.666 230.023 402.704 227.229 410.588 209.465C412.285 205.647 415.578 199.808 419.668 200.701C423.647 201.574 426.378 208.629 426.041 213.164C425.905 215.113 427.255 214.636 428.855 213.496C433.322 210.298 436.466 217.94 428.105 221.521C427.55 222.131 427.134 222.858 426.891 223.648C424.733 232.767 424.658 240.279 433.81 242.361" stroke="#120071" stroke-width="0.769171" stroke-linecap="round" stroke-linejoin="round"/>
<path d="M415.768 201.845C427.415 190.467 462.011 170.484 457.283 193.817C457.283 193.817 482.878 171.757 492.337 179.609C501.745 187.409 465.525 229.217 426.723 237.187" stroke="#120071" stroke-width="0.769171" stroke-linecap="round" stroke-linejoin="round"/>
<path d="M538.117 270.566C531.292 270.566 528.615 236.913 535.522 236.375C498.498 240.327 460.103 246.513 433.816 242.324C424.669 253.622 417.206 266.189 411.662 279.633C408.142 266.979 406.861 253.804 407.878 240.707C402.922 240.302 348.837 204.382 326.064 191.041C321.126 194.385 316.918 198.699 313.697 203.723C310.475 208.746 308.307 214.373 307.324 220.262L390.862 271.207C390.841 272.141 390.862 273.119 390.913 274.165C391.341 281.91 394.3 292.941 402.631 310.702C412.934 313.782 428.902 308.113 438.495 302.559C437.888 294.118 442.798 283.47 445.393 275.505C476.411 276.925 506.034 274.463 538.117 270.566Z" stroke="#120071" stroke-width="0.769171" stroke-linecap="round" stroke-linejoin="round"/>
<path d="M402.679 310.703L352.864 364.123C343.866 373.749 337.303 385.394 333.724 398.083L315.1 463.282C320.24 467.829 326.403 471.062 333.062 472.703C339.721 474.344 346.678 474.345 353.337 472.705L372.456 403.333C429.033 353.73 419.34 362.208 425.616 356.785L456.464 403.852C458.278 406.611 460.666 408.943 463.465 410.689C466.264 412.435 469.407 413.553 472.679 413.966C475.95 414.379 479.273 414.077 482.416 413.079C485.559 412.08 488.449 410.41 490.884 408.184L549.176 354.879C547.644 348.26 544.576 342.095 540.222 336.885C535.867 331.674 530.348 327.565 524.112 324.89L478.949 366.838C478.949 366.838 471.165 315.381 438.417 302.56" stroke="#120071" stroke-width="0.769171" stroke-linecap="round" stroke-linejoin="round"/>
<path d="M421.015 360.774L416.979 343.621L425.628 356.789" stroke="#120071" stroke-width="0.769171" stroke-linecap="round" stroke-linejoin="round"/>
<path d="M318.733 466.055C316.459 478.304 312.982 490.299 308.354 501.863C303.962 511.791 300.521 520.682 301.78 522.193C306.193 527.479 321.203 504.644 332.34 498.802C334.994 497.483 337.365 495.659 339.32 493.431C343.232 488.804 341.047 483.439 345.602 473.794" stroke="#120071" stroke-width="0.769171" stroke-linecap="round" stroke-linejoin="round"/>
<path d="M546.824 347.779C556.371 339.638 566.382 332.061 576.807 325.084C585.857 319.074 593.525 313.417 593.295 311.512C592.478 304.696 567.469 315.74 555.011 314.688C552.05 314.378 549.056 314.633 546.189 315.439C540.423 317.184 539.674 322.658 530.621 328.376" stroke="#120071" stroke-width="0.769171" stroke-linecap="round" stroke-linejoin="round"/>
<path d="M306.104 184.457C306.104 171.69 316.015 147.889 319.884 145.937C320.038 145.867 320.213 145.861 320.372 145.919C320.531 145.977 320.661 146.095 320.734 146.247C320.783 146.348 320.804 146.46 320.795 146.573C319.469 160.209 310.637 183.499 322.946 193.308" stroke="#120071" stroke-width="0.769171" stroke-linecap="round" stroke-linejoin="round"/>
<path d="M308.814 214.432C304.374 211.428 298.11 206.224 298.32 201.148C298.899 187.117 298.811 180.53 298.839 174.985C298.86 170.885 302.08 170.766 304.259 177.873C306.17 184.107 308.179 192.889 308.179 192.889" stroke="#120071" stroke-width="0.769171" stroke-linecap="round" stroke-linejoin="round"/>
<path d="M318.098 162.741C319.312 160.72 320.626 158.638 321.154 157.777C325.008 151.497 326.556 153.035 326.228 154.197C324.944 158.738 321.846 165.571 320.808 169.787C319.26 175.991 316.626 184.652 321.536 192.02" stroke="#120071" stroke-width="0.769171" stroke-linecap="round" stroke-linejoin="round"/>
<path d="M259.229 368.118C259.229 368.118 247.755 370.602 232.244 372.508" stroke="#120071" stroke-width="0.769171" stroke-linecap="round" stroke-linejoin="round"/>
<path d="M153.43 318.154C154.928 315.653 156.906 313.474 159.25 311.744V311.975C177.817 314.631 191.771 314.516 206.186 310.759C205.981 314.653 205.323 318.51 204.225 322.252C221.804 321.849 239.393 322.33 256.924 323.696C261.047 324.014 265.05 325.23 268.655 327.259C272.26 329.289 275.379 332.082 277.794 335.444C280.209 338.806 281.863 342.656 282.64 346.724C283.416 350.792 283.298 354.982 282.291 358.999C275.613 387.29 267.376 415.189 257.616 442.567C244.561 444.735 231.174 441.822 220.194 434.424C223.063 413.584 227.067 392.916 232.187 372.514C214.777 374.642 188.894 376.596 171.189 371.705C160.698 368.808 152.146 362.759 148.428 352.473C144.183 340.8 148.007 326.641 153.43 318.154Z" stroke="#120071" stroke-width="0.769171" stroke-linecap="round" stroke-linejoin="round"/>
<path d="M204.282 322.312C201.399 322.37 198.573 322.485 195.748 322.601" stroke="#120071" stroke-width="0.769171" stroke-linecap="round" stroke-linejoin="round"/>
<path d="M187.858 374.344L165.583 416.794C162.514 422.641 157.661 427.356 151.732 430.251C145.803 433.145 139.106 434.07 132.617 432.889C128.311 432.107 124.219 430.421 120.611 427.94L66.8262 391.038C71.5604 375.253 78.0274 364.966 90.916 356.935L133.478 384.229L148.47 352.464" stroke="#120071" stroke-width="0.769171" stroke-linecap="round" stroke-linejoin="round"/>
<path d="M160.807 367.241L182.775 384.048" stroke="#120071" stroke-width="0.769171" stroke-linecap="round" stroke-linejoin="round"/>
<path d="M179.777 239.957L172.857 235.221C174.85 235.444 176.858 235.502 178.86 235.394" stroke="#120071" stroke-width="0.769171" stroke-linecap="round" stroke-linejoin="round"/>
<path d="M192.693 241.401C191.655 242.036 190.617 242.617 189.579 243.249C188.452 244.136 187.057 244.613 185.624 244.603C184.19 244.592 182.803 244.095 181.689 243.191C179.921 240.972 178.931 238.232 178.869 235.394C188.144 234.85 188.711 228.604 178.229 210.101C178.119 210.639 177.869 211.138 177.503 211.548C177.138 211.958 176.671 212.263 176.15 212.433C175.628 212.603 175.071 212.632 174.535 212.517C173.999 212.401 173.503 212.145 173.097 211.776C172.89 212.208 172.588 212.588 172.213 212.886C171.839 213.185 171.402 213.395 170.935 213.501C170.467 213.606 169.983 213.605 169.516 213.496C169.05 213.387 168.614 213.174 168.242 212.873C168.098 213.375 167.831 213.833 167.464 214.205C167.098 214.576 166.644 214.849 166.144 214.999C165.644 215.149 165.115 215.17 164.605 215.061C164.095 214.952 163.62 214.716 163.225 214.375C165.186 217.779 165.993 221.591 163.341 218.992C160.342 216.049 157.113 220.378 161.844 223.904C162.73 224.699 163.381 225.723 163.727 226.862C164.072 228.002 164.099 229.215 163.805 230.37C166.54 234.366 167.634 239.265 166.858 244.048C166.339 246.48 162.879 248.38 158.664 247.283C163.693 256.332 174.041 264.67 184.104 261.107C195.178 257.201 192.693 241.401 192.693 241.401Z" stroke="#120071" stroke-width="0.769171" stroke-linecap="round" stroke-linejoin="round"/>
<path d="M264.334 193.941C278.576 183.153 279.137 160.343 279.137 143.986C279.137 143.466 279.884 142.77 280.288 143.074C283.89 145.421 288.682 169.742 287.529 182.539" stroke="#120071" stroke-width="0.769171" stroke-linecap="round" stroke-linejoin="round"/>
<path d="M280.676 213.334C284.761 211.686 288.146 208.664 290.247 204.787C294.638 194.999 296.175 184.167 294.681 173.541C293.898 168.927 291.507 169.325 289.434 176.314C287.586 182.551 284.706 190.926 284.706 190.926" stroke="#120071" stroke-width="0.769171" stroke-linecap="round" stroke-linejoin="round"/>
<path d="M264.094 193.789C268.063 188.925 271.799 180.292 271.626 175.736C271.16 170.627 270.273 165.566 268.974 160.604C268.713 159.388 270.227 157.771 274.624 166.076" stroke="#120071" stroke-width="0.769171" stroke-linecap="round" stroke-linejoin="round"/>
<path d="M210.394 267.852C210.179 265.292 209.813 262.746 209.299 260.229L213.845 265.983" stroke="#120071" stroke-width="0.769171" stroke-linecap="round" stroke-linejoin="round"/>
<path d="M206.243 310.761H206.3C208.78 296.092 211.49 281.249 210.394 267.853C233.419 255.755 262.683 232.303 280.8 216.338C282.855 214.281 275.659 205.167 273.681 202.83C271.65 200.432 263.712 191.601 260.91 193.006C239.746 211.23 216.926 227.432 192.75 241.401" stroke="#120071" stroke-width="0.769171" stroke-linecap="round" stroke-linejoin="round"/>
<path d="M251.792 443.303C250.306 449.198 249.17 455.177 248.39 461.207C239.368 455.288 231.478 447.796 225.096 439.087C225.326 438.582 225.521 438.062 225.672 437.527" stroke="#120071" stroke-width="0.769171" stroke-linecap="round" stroke-linejoin="round"/>
<path d="M225.037 461.133C223.179 457.653 221.784 453.944 220.888 450.101C219.907 452.424 219.392 454.917 219.371 457.439C220.096 461.035 221.36 464.5 223.119 467.717C229.058 478.806 234.997 502.023 239.264 501.734C239.898 501.676 240.59 500.464 241.282 498.442C236.742 493.141 230.918 471.945 225.037 461.133Z" stroke="#120071" stroke-width="0.769171" stroke-linecap="round" stroke-linejoin="round"/>
<path d="M225.037 439.144C223.714 442.956 222.039 446.767 220.889 450.114C221.784 453.957 223.179 457.666 225.037 461.145C230.861 471.945 236.685 493.141 241.297 498.455C243.834 490.889 246.544 471.891 248.332 461.203C239.332 455.28 231.446 447.812 225.037 439.144Z" stroke="#120071" stroke-width="0.769171" stroke-linecap="round" stroke-linejoin="round"/>
<path d="M69.3057 383.702C64.2178 380.826 58.9612 378.261 53.5645 376.021C61.6451 368.875 70.9415 363.241 81.0107 359.387C82.5676 360.427 82.7982 360.831 84.2974 361.697" stroke="#120071" stroke-width="0.769171" stroke-linecap="round" stroke-linejoin="round"/>
<path d="M64.9231 349.049C61.2675 348.774 57.5915 349.068 54.0253 349.918C41.8013 352.745 17.8177 352.283 17.0013 356.499C16.886 357.134 17.8662 358.116 19.5961 359.329C25.881 356.268 47.8465 356.268 59.8975 353.554C63.7301 352.649 67.6692 352.281 71.6026 352.459C69.6295 350.881 67.3571 349.721 64.9231 349.049Z" stroke="#120071" stroke-width="0.769171" stroke-linecap="round" stroke-linejoin="round"/>
<path d="M71.5543 352.399C67.6209 352.226 63.6825 352.596 59.8493 353.496C47.856 356.268 25.8904 356.268 19.6055 359.329C26.1787 363.834 43.7621 371.516 53.5643 376.021C61.6674 368.861 70.9815 363.209 81.0683 359.329C77.6663 357.019 74.4373 354.42 71.5543 352.399Z" stroke="#120071" stroke-width="0.769171" stroke-linecap="round" stroke-linejoin="round"/>
<path d="M34.9439 269.758C32.3272 270.628 29.6967 271.456 27.0535 272.241C21.7457 273.846 19.7883 272.877 25.0931 269.238C30.1086 265.827 35.6429 263.252 41.4807 261.614" stroke="#120071" stroke-width="0.769171" stroke-linecap="round" stroke-linejoin="round"/>
<path d="M46.7605 254.915C45.1593 256.481 43.7103 258.196 42.433 260.037C40.1405 263.477 38.5901 267.358 37.8809 271.433" stroke="#120071" stroke-width="0.769171" stroke-linecap="round" stroke-linejoin="round"/>
<path d="M32.9253 264.791C13.7245 271.549 11.3149 268.397 27.39 261.037C33.5922 258.378 40.0492 256.359 46.6606 255.013" stroke="#120071" stroke-width="0.769171" stroke-linecap="round" stroke-linejoin="round"/>
<path d="M70.5288 269.87C62.4958 269.42 45.3555 272.421 32.9252 276.558C27.5051 278.348 24.6069 277.166 30.6188 272.63C33.1516 270.734 35.8658 269.094 38.7215 267.733" stroke="#120071" stroke-width="0.769171" stroke-linecap="round" stroke-linejoin="round"/>
<path d="M37.2477 257.34C30.7928 258.842 16.0803 259.395 38.9775 251.969C42.5525 250.811 46.8679 249.841 50.9132 248.966C51.1417 247.46 50.8788 245.921 50.1636 244.576C47.7358 240.503 48.5552 238.85 52.5277 241.284C57.5695 244.721 63.5557 246.498 69.6528 246.367" stroke="#120071" stroke-width="0.769171" stroke-linecap="round" stroke-linejoin="round"/>
<path d="M50.9117 248.961C50.8865 250.486 51.1759 251.999 51.7615 253.407C52.3471 254.815 53.2165 256.086 54.3151 257.142C55.4138 258.198 56.7182 259.015 58.1466 259.542C59.575 260.07 61.0968 260.297 62.6167 260.208" stroke="#120071" stroke-width="0.769171" stroke-linecap="round" stroke-linejoin="round"/>
<path d="M178.221 210.159C178.105 212.411 175.222 213.335 173.089 211.834C172.87 212.255 172.563 212.623 172.187 212.913C171.812 213.203 171.378 213.408 170.916 213.512C170.453 213.617 169.974 213.619 169.51 213.518C169.047 213.418 168.611 213.217 168.233 212.931C168.089 213.432 167.821 213.889 167.454 214.26C167.087 214.631 166.633 214.903 166.134 215.053C165.634 215.202 165.106 215.223 164.596 215.114C164.086 215.005 163.612 214.77 163.217 214.429C165.12 217.837 165.985 221.652 163.332 219.05C160.334 216.107 157.117 220.366 161.833 223.959C162.72 224.754 163.371 225.778 163.717 226.918C164.063 228.059 164.089 229.273 163.793 230.428C159.011 222.403 150.477 216.05 148.517 214.086C143.964 209.526 147.19 206.636 151.054 208.31C150.143 205.827 153.072 203.751 155.779 205.827C155.029 203.395 158.665 201.38 161.775 203.921C161.256 201.264 165.754 200.167 168.349 202.477C167.945 200.109 172.106 199.93 173.999 203.055C175.517 205.532 178.221 210.159 178.221 210.159Z" stroke="#120071" stroke-width="0.769171" stroke-linecap="round" stroke-linejoin="round"/>
<path d="M154.814 285.638L159.029 280.209C156.956 279.808 154.996 279.4 153.035 279.057" stroke="#120071" stroke-width="0.769171" stroke-linecap="round" stroke-linejoin="round"/>
<path d="M158.676 247.291C157.926 247.003 121.652 237.531 70.6896 242.428C67.9258 252.765 68.2423 263.687 71.6 273.847C98.8504 271.627 126.278 273.381 153.025 279.054C156.274 289.692 158.361 300.651 159.25 311.74" stroke="#120071" stroke-width="0.769171" stroke-linecap="round" stroke-linejoin="round"/>
<path d="M122.984 181.108C123.119 182.672 122.788 184.242 122.033 185.618C121.277 186.995 120.132 188.116 118.74 188.84C117.349 189.564 115.774 189.859 114.216 189.687C112.657 189.515 111.184 188.884 109.984 187.874C108.783 186.863 107.908 185.519 107.47 184.011C107.032 182.503 107.05 180.899 107.522 179.401C107.994 177.903 108.898 176.579 110.122 175.597C111.345 174.614 112.831 174.016 114.393 173.879C116.488 173.703 118.567 174.364 120.177 175.718C121.787 177.073 122.796 179.01 122.984 181.108Z" stroke="#120071" stroke-width="0.769171" stroke-linecap="round" stroke-linejoin="round"/>
<path d="M439.063 456.471H414.096" stroke="#120071" stroke-width="0.769171" stroke-linecap="round" stroke-linejoin="round"/>
<path d="M426.58 469V443.937" stroke="#120071" stroke-width="0.769171" stroke-linecap="round" stroke-linejoin="round"/>
<path d="M88.9262 241.227C86.1039 251.772 86.632 262.93 90.4254 273.165" stroke="#120071" stroke-width="0.769171" stroke-linecap="round" stroke-linejoin="round"/>
<path d="M250.07 202.131C258.737 207.936 265.792 215.847 270.576 225.126" stroke="#120071" stroke-width="0.769171" stroke-linecap="round" stroke-linejoin="round"/>
<path d="M539.098 239.726C537.079 239.841 533.505 240.014 532.697 240.072C534.196 235.282 536.855 235.221 539.098 239.726Z" stroke="#120071" stroke-width="0.769171" stroke-linecap="round" stroke-linejoin="round"/>
<path d="M540.943 267.448C539.501 271.375 537.137 271.548 535.119 267.91C536.791 267.806 538.809 267.621 540.943 267.448Z" stroke="#120071" stroke-width="0.769171" stroke-linecap="round" stroke-linejoin="round"/>
<path d="M430.01 306.715C453.362 323.129 459.75 343.392 469.562 379.364C469.906 380.619 470.565 381.765 471.476 382.694C472.387 383.622 473.519 384.302 474.766 384.668C476.014 385.032 477.333 385.071 478.6 384.781C479.866 384.491 481.038 383.882 482.004 383.012L536.854 333.227" stroke="#120071" stroke-width="0.769171" stroke-linecap="round" stroke-linejoin="round"/>
<path d="M339.316 473.736L359.206 397.39L417.671 346.508" stroke="#120071" stroke-width="0.769171" stroke-linecap="round" stroke-linejoin="round"/>
<path d="M190.214 319.944C188.006 323.685 185.029 326.913 181.479 329.412C177.93 331.912 173.891 333.626 169.629 334.441" stroke="#120071" stroke-width="0.769171" stroke-linecap="round" stroke-linejoin="round"/>
<path d="M223.365 414.713C229.201 418.93 235.85 421.884 242.889 423.387C249.927 424.889 257.201 424.907 264.246 423.44" stroke="#120071" stroke-width="0.769171" stroke-linecap="round" stroke-linejoin="round"/>
<path d="M106.437 366.901C95.1385 374.525 87.9249 386.885 83.5488 402.466" stroke="#120071" stroke-width="0.769171" stroke-linecap="round" stroke-linejoin="round"/>
<path d="M495.626 351.359L479.541 376.771C479.524 373.452 479.331 370.136 478.965 366.838" stroke="#120071" stroke-width="0.769171" stroke-linecap="round" stroke-linejoin="round"/>
<path d="M264.354 193.942C272.614 187.704 274.626 178.439 274.914 170.01C274.324 164.115 273.322 158.268 271.916 152.513C271.734 151.358 273.358 149.972 276.644 156.614L278.547 160.76" stroke="#120071" stroke-width="0.769171" stroke-linecap="round" stroke-linejoin="round"/>
<path d="M298.955 88.0102C294.334 88.0102 289.816 89.3829 285.973 91.9548C282.13 94.5267 279.135 98.1821 277.367 102.459C275.598 106.736 275.135 111.442 276.037 115.982C276.939 120.523 279.164 124.693 282.432 127.967C285.7 131.24 289.864 133.469 294.397 134.372C298.93 135.275 303.628 134.812 307.898 133.04C312.168 131.269 315.817 128.269 318.385 124.42C320.953 120.571 322.323 116.045 322.323 111.416C322.331 106.784 320.965 102.255 318.397 98.4025C315.83 94.5501 312.178 91.5487 307.905 89.7793C305.067 88.6055 302.026 88.0043 298.955 88.0102Z" stroke="#120071" stroke-width="0.769171" stroke-linejoin="round"/>
<path d="M296.68 98.7033C296.68 99.3079 296.919 99.8878 297.346 100.315C297.773 100.743 298.352 100.983 298.956 100.983C299.559 100.983 300.138 100.743 300.565 100.315C300.992 99.8878 301.232 99.3079 301.232 98.7033C301.232 98.0986 300.992 97.5187 300.565 97.0912C300.138 96.6637 299.559 96.4235 298.956 96.4235C298.352 96.4235 297.773 96.6637 297.346 97.0912C296.919 97.5187 296.68 98.0986 296.68 98.7033Z" stroke="#120071" stroke-width="0.769171" stroke-linejoin="round"/>
<path d="M298.93 107.158V125.968" stroke="#120071" stroke-width="0.769171" stroke-linecap="round" stroke-linejoin="round"/>
</svg>
