<svg width="229" height="229" viewBox="0 0 229 229" fill="none" xmlns="http://www.w3.org/2000/svg">
<path d="M108.85 20.6967C100.354 20.9337 93.6539 27.4185 93.8909 35.1792C94.1506 44.2136 103.445 50.4181 112.762 48.3857L112.264 42.5275C112.155 41.5566 112.239 40.5738 112.511 39.6353C112.783 38.6969 113.237 37.8212 113.847 37.0583C114.457 36.2954 115.212 35.6603 116.068 35.1893C116.924 34.7183 117.864 34.4207 118.835 34.3133L124.607 33.8166C124.132 26.2951 117.171 20.4586 108.85 20.6967Z" fill="#FF6635"/>
<path fill-rule="evenodd" clip-rule="evenodd" d="M100.807 172.416L170.062 166.58C171.954 166.419 173.704 165.513 174.929 164.062C176.153 162.611 176.75 160.733 176.59 158.841L172.57 111.611C172.408 109.72 171.503 107.969 170.052 106.745C168.601 105.521 166.723 104.923 164.832 105.083L127.828 108.197C127.174 109.194 126.748 109.713 125.766 110.485C124.176 111.701 122.203 112.306 120.205 112.191C118.208 112.076 116.317 111.248 114.878 109.858L114.372 109.356L102.829 110.327C106.657 123.918 107.06 133.346 107.34 146.811C107.573 150.769 107.032 154.734 105.745 158.484L100.807 172.416ZM141.14 141.679L148.123 144.943L146.869 130.114L140.535 134.523C140.314 133.126 139.57 131.865 138.455 130.995C137.34 130.124 135.936 129.71 134.527 129.834L121.016 131.002C120.281 131.061 119.565 131.267 118.91 131.606C118.255 131.945 117.673 132.41 117.2 132.976C116.725 133.54 116.367 134.193 116.147 134.897C115.926 135.601 115.848 136.342 115.916 137.076L116.456 143.342C116.517 144.077 116.722 144.793 117.061 145.448C117.4 146.103 117.865 146.684 118.43 147.158C118.995 147.632 119.648 147.99 120.352 148.211C121.056 148.431 121.796 148.51 122.53 148.443L136.018 147.319C137.426 147.198 138.737 146.55 139.687 145.503C140.637 144.457 141.156 143.09 141.14 141.677V141.679Z" fill="#FF6635"/>
<path d="M191.895 111.806C191.953 112.322 191.908 112.844 191.764 113.343C191.62 113.842 191.379 114.308 191.054 114.713C190.729 115.118 190.327 115.455 189.871 115.704C189.415 115.953 188.914 116.108 188.397 116.162C187.619 116.244 186.835 116.092 186.143 115.725C185.452 115.359 184.886 114.795 184.517 114.105C184.272 113.647 184.12 113.144 184.07 112.627L183.444 106.703C183.345 105.67 183.658 104.641 184.314 103.837C184.971 103.034 185.918 102.522 186.949 102.414C187.981 102.305 189.014 102.609 189.823 103.259C190.631 103.908 191.151 104.851 191.268 105.882L191.895 111.806Z" fill="#FF6635"/>
<path d="M148.537 40.4097C148.872 41.1958 149.126 42.0149 149.294 42.8523C149.942 41.4909 150.325 40.0178 150.42 38.5128C149.82 39.1716 149.192 39.8045 148.537 40.4097Z" fill="#FFD647"/>
<path d="M89.7637 70.1311C89.9494 71.153 90.2991 72.1385 90.8004 73.0488C92.466 73.0488 94.3037 72.8335 94.7571 72.1636C94.8221 72.0496 94.887 71.9255 94.9508 71.7956C94.3242 73.0306 92.057 71.7774 89.7637 70.1311Z" fill="#FFD647"/>
<path d="M32.5478 118.204C28.5261 112.432 2.95626 133.508 6.62928 138.825L7.25588 139.386C12.5752 142.348 35.6808 122.744 32.5478 118.204Z" fill="#FFD647"/>
<path d="M76.2967 192.604C71.0424 195.103 87.2919 224.415 92.2466 220.251C95.211 215.949 80.4471 190.616 76.2967 192.604Z" fill="#FFD647"/>
<path d="M26.8638 136.534C26.7624 136.907 26.7334 137.296 26.7783 137.68C26.9948 139.063 28.7663 139.128 29.9557 138.803C29.1228 137.809 28.0621 137.03 26.8638 136.534Z" fill="#FFD647"/>
<path d="M38.3379 125.25C39.1582 126.267 40.0012 127.282 40.7589 128.212C40.8853 127.85 40.9651 127.472 40.997 127.089C41.0192 126.764 40.9565 126.438 40.8151 126.145C40.6737 125.851 40.4584 125.599 40.1902 125.414C39.9221 125.228 39.6104 125.116 39.2857 125.087C38.9609 125.058 38.6343 125.115 38.3379 125.25Z" fill="#FFD647"/>
<path d="M77.6799 81.4612C77.4401 81.4867 77.2132 81.5828 77.028 81.7373C76.8428 81.8918 76.7076 82.0978 76.6395 82.3292C76.5714 82.5605 76.5734 82.8069 76.6454 83.0371C76.7173 83.2673 76.856 83.471 77.0437 83.6224C77.2315 83.7738 77.4599 83.8661 77.7002 83.8876C77.9404 83.9091 78.1816 83.8588 78.3933 83.7432C78.6049 83.6276 78.7775 83.4518 78.8892 83.238C79.001 83.0243 79.0468 82.7822 79.0208 82.5424C79.006 82.3825 78.9593 82.2271 78.8833 82.0856C78.8074 81.9441 78.7039 81.8192 78.5789 81.7184C78.4538 81.6176 78.3099 81.5429 78.1554 81.4987C78.001 81.4545 77.8393 81.4418 77.6799 81.4612Z" fill="#FFD647"/>
<path d="M69.0332 91.5084C68.8696 91.5197 68.7099 91.564 68.5637 91.6385C68.4176 91.713 68.288 91.8163 68.1827 91.9421C68.0774 92.0678 67.9986 92.2136 67.951 92.3706C67.9033 92.5276 67.8879 92.6925 67.9055 92.8556C67.9232 93.0187 67.9735 93.1766 68.0536 93.3197C68.1337 93.4629 68.2419 93.5884 68.3717 93.6888C68.5014 93.7891 68.6501 93.8623 68.8088 93.9038C68.9675 93.9454 69.133 93.9544 69.2953 93.9305C69.607 93.8845 69.8889 93.7196 70.0817 93.4703C70.2745 93.221 70.3633 92.9067 70.3294 92.5934C70.2955 92.2801 70.1416 91.992 69.8999 91.7898C69.6583 91.5875 69.3476 91.4866 69.0332 91.5084Z" fill="#FFD647"/>
<path d="M74.1591 104.781C73.9963 104.793 73.8376 104.838 73.6924 104.913C73.5473 104.987 73.4186 105.091 73.314 105.216C73.2095 105.341 73.1312 105.486 73.0838 105.643C73.0364 105.799 73.0208 105.963 73.0381 106.125C73.0553 106.288 73.105 106.445 73.1842 106.588C73.2634 106.731 73.3704 106.856 73.499 106.957C73.6275 107.057 73.775 107.131 73.9326 107.174C74.0903 107.216 74.2548 107.227 74.4166 107.204C74.7304 107.161 75.015 106.997 75.2103 106.748C75.4055 106.498 75.4959 106.183 75.4625 105.868C75.429 105.553 75.2742 105.263 75.031 105.06C74.7877 104.858 74.475 104.757 74.1591 104.781Z" fill="#FFD647"/>
<path d="M62.9168 89.2174C62.7573 89.2337 62.6025 89.2813 62.4614 89.3575C62.3202 89.4337 62.1956 89.5371 62.0945 89.6616C61.9934 89.7862 61.9179 89.9295 61.8724 90.0832C61.8269 90.237 61.8121 90.3983 61.8291 90.5578C61.846 90.7173 61.8943 90.8719 61.9712 91.0127C62.0481 91.1534 62.152 91.2777 62.277 91.3782C62.402 91.4787 62.5456 91.5535 62.6996 91.5984C62.8536 91.6432 63.0149 91.6572 63.1743 91.6395C63.4944 91.6041 63.7874 91.4432 63.9893 91.1923C64.1911 90.9413 64.2853 90.6206 64.2512 90.3003C64.2172 89.9801 64.0577 89.6864 63.8076 89.4834C63.5575 89.2805 63.2373 89.1848 62.9168 89.2174Z" fill="#FFD647"/>
<path d="M87.9691 86.2132C87.8049 86.2235 87.6445 86.2669 87.4975 86.3408C87.3505 86.4147 87.22 86.5177 87.1138 86.6434C87.0076 86.7691 86.928 86.915 86.8798 87.0723C86.8315 87.2296 86.8156 87.3951 86.833 87.5587C86.8504 87.7223 86.9007 87.8807 86.981 88.0244C87.0612 88.168 87.1697 88.2939 87.3 88.3945C87.4302 88.4951 87.5794 88.5683 87.7387 88.6097C87.8979 88.6511 88.0639 88.6598 88.2266 88.6353C88.5372 88.5885 88.8178 88.4237 89.0099 88.1751C89.2019 87.9265 89.2906 87.6134 89.2574 87.301C89.2242 86.9886 89.0717 86.7011 88.8317 86.4984C88.5916 86.2958 88.2827 86.1936 87.9691 86.2132Z" fill="#FFD647"/>
<path d="M80.9239 96.0703C80.7617 96.0832 80.6037 96.1285 80.4593 96.2035C80.3149 96.2785 80.1869 96.3817 80.0831 96.507C79.9792 96.6323 79.9015 96.7771 79.8545 96.9329C79.8076 97.0887 79.7923 97.2524 79.8097 97.4142C79.827 97.576 79.8767 97.7327 79.9556 97.875C80.0345 98.0174 80.1412 98.1424 80.2693 98.2428C80.3974 98.3432 80.5443 98.4169 80.7013 98.4596C80.8584 98.5022 81.0224 98.513 81.1837 98.4912C81.4981 98.4487 81.7834 98.2853 81.9791 98.0356C82.1748 97.786 82.2654 97.4698 82.2316 97.1544C82.1977 96.839 82.0421 96.5492 81.7979 96.3467C81.5537 96.1443 81.2402 96.0451 80.9239 96.0703Z" fill="#FFD647"/>
<path d="M93.5686 100.652C93.406 100.665 93.2476 100.71 93.1027 100.785C92.9578 100.859 92.8294 100.963 92.7251 101.088C92.6208 101.213 92.5428 101.358 92.4956 101.515C92.4483 101.671 92.4329 101.835 92.4502 101.997C92.4676 102.159 92.5172 102.316 92.5963 102.459C92.6754 102.601 92.7823 102.727 92.9107 102.827C93.0391 102.928 93.1864 103.002 93.3438 103.044C93.5013 103.087 93.6657 103.097 93.8273 103.075C94.1415 103.032 94.4266 102.869 94.6221 102.619C94.8176 102.369 94.9082 102.053 94.8745 101.738C94.8409 101.423 94.6857 101.133 94.4419 100.93C94.198 100.727 93.8848 100.628 93.5686 100.652Z" fill="#FFD647"/>
<path d="M98.8197 79.6851C98.5798 79.7104 98.3528 79.8063 98.1674 79.9607C97.982 80.1151 97.8466 80.321 97.7784 80.5524C97.7101 80.7837 97.712 81.0302 97.7838 81.2605C97.8557 81.4908 97.9943 81.6946 98.182 81.8461C98.3697 81.9975 98.5982 82.0899 98.8385 82.1115C99.0787 82.1331 99.32 82.0829 99.5317 81.9673C99.7435 81.8517 99.9162 81.6758 100.028 81.462C100.14 81.2482 100.185 81.0061 100.159 80.7663C100.145 80.6064 100.098 80.4511 100.022 80.3096C99.9466 80.168 99.8432 80.0432 99.7182 79.9423C99.5933 79.8415 99.4494 79.7668 99.295 79.7226C99.1407 79.6784 98.9791 79.6657 98.8197 79.6851Z" fill="#FFD647"/>
<path d="M110.147 100.133C109.985 100.145 109.826 100.19 109.681 100.265C109.536 100.339 109.407 100.442 109.302 100.568C109.198 100.693 109.119 100.838 109.072 100.995C109.025 101.151 109.009 101.315 109.026 101.477C109.044 101.64 109.093 101.797 109.172 101.94C109.252 102.082 109.359 102.208 109.487 102.309C109.616 102.409 109.763 102.483 109.921 102.525C110.079 102.568 110.243 102.578 110.405 102.556C110.719 102.513 111.003 102.349 111.199 102.1C111.394 101.85 111.484 101.535 111.451 101.22C111.417 100.905 111.263 100.615 111.019 100.412C110.776 100.209 110.463 100.109 110.147 100.133Z" fill="#FFD647"/>
<path d="M110.189 88.7844C110.348 88.7676 110.503 88.7197 110.643 88.6432C110.784 88.5668 110.908 88.4633 111.008 88.3389C111.108 88.2144 111.183 88.0714 111.228 87.9179C111.273 87.7644 111.288 87.6036 111.271 87.4446C111.221 87.136 111.055 86.8581 110.807 86.6682C110.559 86.4784 110.247 86.3911 109.937 86.4244C109.626 86.4578 109.34 86.6092 109.138 86.8474C108.935 87.0856 108.832 87.3923 108.85 87.7044C108.866 87.8634 108.914 88.0175 108.991 88.1579C109.067 88.2984 109.171 88.4223 109.295 88.5226C109.42 88.623 109.563 88.6978 109.716 88.7427C109.87 88.7876 110.03 88.8018 110.189 88.7844Z" fill="#FFD647"/>
<path d="M123.398 102.705C123.159 102.731 122.933 102.827 122.748 102.982C122.563 103.136 122.428 103.341 122.359 103.571C122.308 103.744 122.295 103.926 122.323 104.104C122.35 104.283 122.417 104.453 122.519 104.602C122.62 104.751 122.753 104.876 122.909 104.967C123.064 105.058 123.238 105.114 123.418 105.13C123.588 105.146 123.76 105.127 123.922 105.073C124.084 105.019 124.233 104.932 124.359 104.816C124.485 104.701 124.586 104.56 124.654 104.404C124.722 104.247 124.757 104.078 124.756 103.907C124.754 103.736 124.717 103.567 124.646 103.412C124.575 103.256 124.473 103.117 124.345 103.004C124.217 102.89 124.066 102.805 123.903 102.754C123.74 102.703 123.568 102.686 123.398 102.705Z" fill="#FFD647"/>
<path d="M124.911 89.8235C124.672 89.8497 124.446 89.9459 124.261 90.1001C124.076 90.2544 123.941 90.4597 123.872 90.6905C123.822 90.863 123.811 91.0444 123.84 91.2217C123.868 91.399 123.935 91.5678 124.036 91.716C124.138 91.8643 124.271 91.9883 124.426 92.0791C124.58 92.1699 124.754 92.2253 124.932 92.2413C125.111 92.2573 125.291 92.2336 125.46 92.1717C125.629 92.1099 125.781 92.0115 125.907 91.8836C126.034 91.7557 126.13 91.6015 126.189 91.4321C126.249 91.2627 126.27 91.0822 126.251 90.9036C126.216 90.5828 126.056 90.2887 125.806 90.0855C125.554 89.8835 125.232 89.7894 124.911 89.8235Z" fill="#FFD647"/>
<path d="M135.72 85.5C135.708 85.3372 135.663 85.1785 135.588 85.0334C135.513 84.8882 135.41 84.7595 135.285 84.655C135.159 84.5504 135.014 84.4721 134.858 84.4247C134.702 84.3773 134.538 84.3618 134.375 84.379C134.213 84.3963 134.056 84.446 133.913 84.5251C133.77 84.6043 133.645 84.7113 133.544 84.8399C133.444 84.9685 133.37 85.116 133.327 85.2736C133.285 85.4312 133.274 85.5958 133.297 85.7575C133.34 86.0713 133.503 86.356 133.753 86.5512C134.002 86.7464 134.318 86.8369 134.633 86.8034C134.948 86.7699 135.238 86.6152 135.44 86.3719C135.643 86.1286 135.743 85.8159 135.72 85.5Z" fill="#FFD647"/>
<path d="M171.795 17.8645C171.663 16.1885 170.938 14.6146 169.749 13.4254C168.561 12.2362 166.988 11.5097 165.312 11.3763C163.636 11.2435 161.967 11.7129 160.606 12.7C159.245 13.6871 158.281 15.1273 157.887 16.7617C155.934 15.8532 153.781 15.4629 151.633 15.6282C149.486 15.7936 147.417 16.509 145.626 17.7058C143.836 18.9025 142.383 20.5401 141.409 22.4609C140.435 24.3817 139.972 26.5211 140.064 28.6728C142.668 27.9671 145.343 27.5608 148.039 27.4618C148.185 28.347 148.387 29.2219 148.644 30.0821C148.882 30.6221 149.249 30.6654 149.897 29.6708C151.347 27.5745 154.286 30.8169 150.849 33.3245C152.332 35.892 154.217 38.2055 156.431 40.1772C159.403 39.2203 161.915 37.1941 163.478 34.4913C165.042 31.7884 165.546 28.6014 164.894 25.5478C165.05 25.5478 165.205 25.5398 165.36 25.5216C166.285 25.4417 167.186 25.1802 168.01 24.7521C168.835 24.324 169.566 23.7377 170.164 23.0266C170.762 22.3155 171.213 21.4936 171.493 20.6079C171.773 19.7221 171.876 18.7899 171.795 17.8645Z" fill="#FFD647"/>
<path d="M80.1895 131.757L80.4276 140.529L83.515 137.741C82.1686 135.888 81.0519 133.879 80.1895 131.757Z" fill="#FFD647"/>
<path d="M100.031 91.7031L103.1 96.07L103.274 101.668L100.031 91.7031Z" fill="#FFD647"/>
<path d="M94.7365 62.1118C95.1126 62.0429 95.4518 61.8425 95.6936 61.5464C95.9353 61.2502 96.0638 60.8777 96.056 60.4955C96.0482 60.1133 95.9046 59.7463 95.6509 59.4603C95.3973 59.1743 95.0501 58.9878 94.6716 58.9344C94.9644 58.7204 95.1767 58.4141 95.2742 58.0648C95.3717 57.7154 95.3487 57.3434 95.2089 57.0088C95.0691 56.6741 94.8207 56.3963 94.5038 56.22C94.1868 56.0437 93.8197 55.9794 93.4617 56.0372C93.6451 55.7327 93.723 55.3761 93.6831 55.0228C93.6433 54.6695 93.4881 54.3392 93.2415 54.0831C92.9948 53.827 92.6706 53.6595 92.3191 53.6064C91.9676 53.5532 91.6083 53.6176 91.2971 53.7894C91.3728 53.4264 91.3216 53.0484 91.1519 52.7187C90.9822 52.389 90.7044 52.1276 90.365 51.9782C90.0256 51.8288 89.6452 51.8006 89.2874 51.8983C88.9297 51.9959 88.6164 52.2135 88.3999 52.5146C88.3649 52.1249 88.1952 51.7597 87.9198 51.4818C87.6444 51.204 87.2807 51.0309 86.8914 50.9924C86.5021 50.9539 86.1116 51.0525 85.7872 51.2711C85.4628 51.4897 85.2248 51.8146 85.1142 52.1899C84.9614 51.8532 84.6978 51.5791 84.3675 51.4131C84.0371 51.2471 83.6598 51.1992 83.2985 51.2776C82.9371 51.3559 82.6135 51.5556 82.3815 51.8435C82.1495 52.1314 82.0231 52.49 82.0234 52.8598C81.7536 52.6278 81.4152 52.491 81.06 52.4703C80.7049 52.4496 80.3528 52.5462 80.058 52.7452C79.7632 52.9443 79.5419 53.2347 79.4283 53.5718C79.3147 53.9089 79.315 54.2739 79.4292 54.6108C79.0932 54.4868 78.7254 54.4782 78.384 54.5864C78.0425 54.6946 77.7468 54.9135 77.5435 55.2084C77.3403 55.5034 77.241 55.8576 77.2615 56.2152C77.282 56.5729 77.421 56.9135 77.6565 57.1833C77.2751 57.1624 76.8985 57.2769 76.5933 57.5067C76.2881 57.7365 76.0739 58.0667 75.9886 58.4391C75.9033 58.8115 75.9523 59.202 76.127 59.5418C76.3017 59.8815 76.5908 60.1486 76.9433 60.2958C76.5687 60.3684 76.2319 60.5716 75.9931 60.8693C75.7543 61.167 75.6289 61.5398 75.6393 61.9213C75.6497 62.3028 75.7952 62.6682 76.0498 62.9524C76.3045 63.2366 76.6519 63.4212 77.0299 63.4733C76.7433 63.6907 76.5377 63.9978 76.4457 64.3456C76.3538 64.6935 76.3809 65.062 76.5226 65.3927C76.6644 65.7234 76.9127 65.9971 77.228 66.1704C77.5433 66.3436 77.9075 66.4064 78.2626 66.3488C78.0834 66.6548 78.0099 67.0112 78.0534 67.3632C78.0969 67.7151 78.255 68.043 78.5032 68.2961C78.7515 68.5493 79.0762 68.7138 79.4272 68.7642C79.7782 68.8146 80.136 68.7481 80.4455 68.5749C80.374 68.9367 80.4285 69.3121 80.6 69.6386C80.7715 69.9651 81.0496 70.2231 81.3881 70.3695C81.7265 70.516 82.1049 70.5422 82.4604 70.4437C82.8158 70.3452 83.1267 70.1279 83.3415 69.8281C83.3606 70.0979 83.4462 70.3587 83.5907 70.5873C83.7353 70.8159 83.9342 71.0051 84.1698 71.1379C84.4054 71.2708 84.6702 71.3431 84.9406 71.3486C85.2109 71.354 85.4785 71.2923 85.7192 71.1691C85.9129 70.931 88.5674 67.6669 89.5016 66.4775C87.2116 63.8845 89.1131 62.1984 90.3446 63.9062C90.994 64.8358 91.9396 64.5761 91.3814 61.8088C92.0976 61.4973 92.784 61.1213 93.4321 60.6855C93.8878 62.4354 94.2296 63.9278 94.5132 65.181C94.8419 65.0957 95.1356 64.9094 95.353 64.6485C95.5704 64.3876 95.7005 64.0652 95.7252 63.7265C95.7498 63.3878 95.6677 63.0499 95.4904 62.7603C95.313 62.4706 95.0494 62.2439 94.7365 62.1118Z" fill="#FFD647"/>
<path d="M94.5191 65.181C94.2388 63.9277 93.8925 62.4364 93.4391 60.6854C92.791 61.1212 92.1046 61.4972 91.3884 61.8087C91.9512 64.576 91.0067 64.8301 90.3516 63.9061C89.1326 62.1881 87.2175 63.8845 89.5086 66.4774C88.2574 68.0494 86.9962 69.6132 85.725 71.169C85.4844 71.2926 85.2168 71.3545 84.9463 71.3492C84.6758 71.3439 84.4108 71.2715 84.1752 71.1386C83.9395 71.0057 83.7406 70.8164 83.5961 70.5877C83.4516 70.359 83.3661 70.0979 83.3474 69.8281C83.132 70.1266 82.8211 70.3427 82.4661 70.4405C82.1112 70.5382 81.7335 70.5118 81.3956 70.3656C81.0577 70.2194 80.7799 69.9621 80.6082 69.6365C80.4364 69.3108 80.3811 68.9363 80.4513 68.5749C80.1419 68.748 79.784 68.8145 79.433 68.7641C79.082 68.7137 78.7573 68.5493 78.5091 68.2961C78.2608 68.0429 78.1027 67.715 78.0593 67.3631C78.0158 67.0112 78.0893 66.6547 78.2685 66.3487C77.9133 66.4064 77.5491 66.3436 77.2338 66.1703C76.9185 65.9971 76.6702 65.7233 76.5285 65.3926C76.3867 65.062 76.3597 64.6934 76.4516 64.3455C76.5435 63.9977 76.7492 63.6906 77.0358 63.4732C76.6577 63.4211 76.3104 63.2366 76.0557 62.9523C75.801 62.6681 75.6555 62.3027 75.6451 61.9212C75.6347 61.5397 75.7601 61.1669 75.9989 60.8692C76.2378 60.5715 76.5745 60.3683 76.9492 60.2957C76.5967 60.1485 76.3076 59.8814 76.1329 59.5417C75.9582 59.2019 75.9091 58.8114 75.9945 58.439C76.0798 58.0666 76.294 57.7364 76.5992 57.5066C76.9044 57.2768 77.2809 57.1623 77.6624 57.1832C77.4257 56.9137 77.2858 56.5728 77.2648 56.2147C77.2438 55.8566 77.343 55.5017 77.5465 55.2064C77.7501 54.911 78.0464 54.692 78.3885 54.5841C78.7306 54.4762 79.0989 54.4856 79.4351 54.6108C79.3241 54.2748 79.326 53.9118 79.4405 53.577C79.5549 53.2423 79.7757 52.9541 80.0691 52.7564C80.3625 52.5587 80.7125 52.4624 81.0658 52.4821C81.419 52.5017 81.7561 52.6363 82.0258 52.8654C82.0255 52.4957 82.1519 52.137 82.3839 51.8491C82.6159 51.5612 82.9396 51.3615 83.3009 51.2832C83.6622 51.2048 84.0395 51.2527 84.3699 51.4187C84.7003 51.5847 84.9638 51.8588 85.1167 52.1955C85.2272 51.8202 85.4652 51.4953 85.7896 51.2767C86.114 51.0581 86.5046 50.9595 86.8939 50.998C87.2832 51.0365 87.6469 51.2096 87.9222 51.4874C88.1976 51.7653 88.3674 52.1306 88.4023 52.5202C88.6194 52.2204 88.9327 52.004 89.2899 51.9071C89.6472 51.8102 90.0269 51.8387 90.3657 51.9878C90.7045 52.1369 90.982 52.3975 91.1519 52.7264C91.3218 53.0553 91.3739 53.4324 91.2995 53.795C91.6108 53.6232 91.97 53.5589 92.3215 53.612C92.6731 53.6651 92.9973 53.8327 93.2439 54.0887C93.4905 54.3448 93.6458 54.6751 93.6856 55.0284C93.7254 55.3817 93.6476 55.7383 93.4641 56.0428C93.8222 55.985 94.1892 56.0494 94.5062 56.2256C94.8232 56.4019 95.0716 56.6797 95.2113 57.0144C95.3511 57.3491 95.3741 57.721 95.2766 58.0704C95.1791 58.4197 94.9669 58.726 94.674 58.94C95.0538 58.9919 95.4025 59.1777 95.6574 59.4638C95.9123 59.75 96.0567 60.1178 96.0645 60.501C96.0723 60.8841 95.9431 61.2575 95.7001 61.5539C95.4571 61.8502 95.1163 62.0501 94.739 62.1174C95.0487 62.2513 95.3091 62.4782 95.4841 62.7666C95.6592 63.055 95.7402 63.3907 95.7161 63.7272C95.6919 64.0637 95.5638 64.3844 95.3493 64.6449C95.1349 64.9053 94.8447 65.0927 94.5191 65.181Z" stroke="#141220" stroke-width="1.145" stroke-linecap="round" stroke-linejoin="round"/>
<path d="M94.7773 56.3186L100.571 55.8435C101.262 55.783 101.959 55.8598 102.621 56.0697C103.283 56.2795 103.896 56.6182 104.427 57.0662C104.957 57.5143 105.394 58.0628 105.711 58.6802C106.029 59.2976 106.221 59.9718 106.277 60.6638L107.855 79.6202" stroke="#141220" stroke-width="1.145" stroke-linecap="round" stroke-linejoin="round"/>
<path d="M103.488 101.365L104.375 101.3C105.148 101.292 105.904 101.067 106.557 100.652" stroke="#141220" stroke-width="1.145" stroke-linecap="round" stroke-linejoin="round"/>
<path d="M63.3694 104.733L51.7409 105.728C50.3454 105.844 48.9607 105.402 47.8909 104.499C46.8211 103.595 46.1537 102.304 46.0354 100.909L43.0733 65.9773C42.9559 64.5814 43.3978 63.196 44.3018 62.1259C45.2057 61.0557 46.4977 60.3884 47.8935 60.2707L76.3264 57.8748" stroke="#141220" stroke-width="1.145" stroke-linecap="round" stroke-linejoin="round"/>
<path d="M100.809 172.416L170.064 166.58C171.956 166.419 173.706 165.513 174.93 164.062C176.155 162.611 176.752 160.733 176.592 158.841L172.572 111.611C172.41 109.72 171.505 107.969 170.054 106.745C168.603 105.521 166.725 104.923 164.834 105.083L127.83 108.197" stroke="#141220" stroke-width="1.145" stroke-linecap="round" stroke-linejoin="round"/>
<path d="M102.861 110.314L114.361 109.342" stroke="#141220" stroke-width="1.145" stroke-linecap="round" stroke-linejoin="round"/>
<path d="M140.17 32.4723L118.813 34.3099C116.857 34.5283 115.067 35.5129 113.836 37.0482C112.604 38.5835 112.031 40.5444 112.242 42.5013L116.522 91.7636" stroke="#141220" stroke-width="1.145" stroke-linecap="round" stroke-linejoin="round"/>
<path d="M131.955 98.9877L196.737 93.3894C198.174 93.2595 199.54 92.699 200.654 91.7812C201.768 90.8633 202.58 89.6307 202.983 88.2444" stroke="#141220" stroke-width="1.145" stroke-linecap="round" stroke-linejoin="round"/>
<path d="M200.911 57.3781L198.987 35.0062C198.858 33.0407 197.955 31.2065 196.476 29.9056C194.997 28.6048 193.063 27.9435 191.097 28.0669L165.008 30.3158" stroke="#141220" stroke-width="1.145" stroke-linecap="round" stroke-linejoin="round"/>
<path d="M177.197 63.8843C174.971 67.3853 170.281 77.6103 167.557 84.2454C172.786 86.2894 177.192 90.0058 180.089 94.8156" stroke="#141220" stroke-width="1.145" stroke-linecap="round" stroke-linejoin="round"/>
<path d="M142.377 75.0813C143.168 79.1523 144.2 83.1727 145.468 87.1212C144.278 91.5951 143.803 95.5723 143.242 98.0149" stroke="#141220" stroke-width="1.145" stroke-linecap="round" stroke-linejoin="round"/>
<path d="M144.45 58.4375C142.817 60.9544 141.864 63.851 141.684 66.8454" stroke="#141220" stroke-width="1.145" stroke-linecap="round" stroke-linejoin="round"/>
<path d="M167.536 84.2671C161.441 88.6556 149.919 90.9888 145.467 87.121" stroke="#141220" stroke-width="1.145" stroke-linecap="round" stroke-linejoin="round"/>
<path d="M164.77 85.9316C168.021 88.4743 170.627 91.7474 172.376 95.4856" stroke="#141220" stroke-width="1.145" stroke-linecap="round" stroke-linejoin="round"/>
<path d="M149.304 42.8271C149.942 41.4714 150.32 40.0074 150.416 38.5127C149.816 39.1718 149.188 39.8047 148.533 40.4096" stroke="#141220" stroke-width="1.145" stroke-linecap="round" stroke-linejoin="round"/>
<path d="M174.108 69.6777L181.847 82.7543C187.834 93.6059 200.303 97.0192 208.131 80.8096C211.826 73.1571 213.578 68.0132 216.82 62.6951C211.518 61.1836 206.69 58.3415 202.796 54.4388C199.197 59.8553 195.996 65.5259 193.219 71.406C177.548 38.097 175.624 43.97 165.184 43.3924C161.999 43.3046 158.931 42.173 156.451 40.1716" stroke="#141220" stroke-width="1.145" stroke-linecap="round" stroke-linejoin="round"/>
<path d="M133.621 69.9363C136.712 59.431 143.636 54.5754 146.676 51.2613C148.107 49.8898 149.059 48.0953 149.394 46.1419C149.729 44.1885 149.428 42.1793 148.535 40.4097C143.088 45.2083 140.084 41.3826 140.084 28.6752" stroke="#141220" stroke-width="1.145" stroke-linecap="round" stroke-linejoin="round"/>
<path d="M166.497 43.4358C162.165 46.9176 158.254 50.8941 154.846 55.2843C154.312 55.9496 153.614 56.465 152.821 56.78C152.028 57.095 151.167 57.1988 150.322 57.0814C149.477 56.9639 148.677 56.6292 148 56.1099C147.323 55.5906 146.792 54.9046 146.459 54.1188C146.199 53.5127 145.954 52.8999 145.725 52.2811" stroke="#141220" stroke-width="1.145" stroke-linecap="round" stroke-linejoin="round"/>
<path d="M193.214 71.4059L190.643 77.1991" stroke="#141220" stroke-width="1.145" stroke-linecap="round" stroke-linejoin="round"/>
<path d="M85.7203 71.1691C82.6989 75.0426 80.5605 74.7885 74.8698 77.3291C63.2834 82.4957 67.2606 103.203 67.2606 103.203" stroke="#141220" stroke-width="1.145" stroke-linecap="round" stroke-linejoin="round"/>
<path d="M94.5182 65.1808C95.4627 69.559 95.3772 71.2349 94.7563 72.1406C94.3006 72.8117 92.4653 73.027 90.8008 73.027" stroke="#141220" stroke-width="1.145" stroke-linecap="round" stroke-linejoin="round"/>
<path d="M94.9554 71.7774C94.3504 73.0306 92.0559 71.7774 89.7637 70.1129C90.1966 72.1021 90.4985 74.4854 92.1197 74.5868C106.491 75.488 108.008 77.116 120.48 98.5116" stroke="#141220" stroke-width="1.145" stroke-linecap="round" stroke-linejoin="round"/>
<path d="M118.944 95.8538C119.484 94.3409 122.835 87.4449 124.781 81.2199C129.042 80.7607 133.324 81.8761 136.821 84.354C135.48 90.7089 131.59 100.351 128.238 107.437C127.669 108.635 126.822 109.68 125.769 110.486C124.715 111.292 123.485 111.835 122.18 112.071C120.875 112.308 119.532 112.231 118.263 111.846C116.994 111.461 115.834 110.779 114.88 109.858C109.284 104.355 104.312 98.2525 100.053 91.6602" stroke="#141220" stroke-width="1.145" stroke-linecap="round" stroke-linejoin="round"/>
<path d="M100.072 91.6599L103.271 101.668" stroke="#141220" stroke-width="1.145" stroke-linecap="round" stroke-linejoin="round"/>
<path d="M76.4492 109.84C82.869 111.89 93.8494 111.114 102.432 108.78C103.728 106.229 103.188 96.1569 103.188 96.1569" stroke="#141220" stroke-width="1.145" stroke-linecap="round" stroke-linejoin="round"/>
<path d="M76.3831 109.341C73.617 113.319 68.1803 113.466 65.6831 109.32C62.5364 104.079 61.1875 96.6101 60.5176 88.3093C60.5176 88.3093 65.4165 86.7417 67.4672 87.3558" stroke="#141220" stroke-width="1.145" stroke-linecap="round" stroke-linejoin="round"/>
<path d="M83.5116 137.741L60.6863 157.952C59.1764 159.28 57.2365 160.016 55.2256 160.024C53.2148 160.032 51.2693 159.311 49.7492 157.994L27.293 138.566" stroke="#141220" stroke-width="1.145" stroke-linecap="round" stroke-linejoin="round"/>
<path d="M57.4685 141.657L40.4785 125.64" stroke="#141220" stroke-width="1.145" stroke-linecap="round" stroke-linejoin="round"/>
<path d="M72.9038 88.1589C72.9038 88.1589 76.6634 103.311 76.4276 110.228C71.8542 112.828 68.3203 116.929 66.4248 121.836C63.6643 129.295 54.1035 138.371 54.1035 138.371" stroke="#141220" stroke-width="1.145" stroke-linecap="round" stroke-linejoin="round"/>
<path d="M102.431 108.78C106.667 123.197 107.088 132.819 107.38 146.779C107.613 150.737 107.071 154.702 105.785 158.452L95.8857 186.293C89.8312 185.657 84.0111 183.606 78.8957 180.306L88.796 151.946C88.9867 147.102 87.3615 142.361 84.2389 138.653C81.1475 134.887 79.2109 130.308 78.6621 125.467" stroke="#141220" stroke-width="1.145" stroke-linecap="round" stroke-linejoin="round"/>
<path d="M80.75 75.0164C80.75 75.0164 84.2077 78.8204 92.4219 74.6051" stroke="#141220" stroke-width="1.145" stroke-linecap="round" stroke-linejoin="round"/>
<path d="M62.2249 87.8126C62.1573 84.5146 61.7882 81.2297 61.1221 77.9989C60.4846 75.5123 59.5709 73.1049 58.3981 70.8215C56.6778 67.4674 57.236 66.5594 59.9987 69.6116C62.7269 73.0363 64.9739 76.818 66.6772 80.8516" stroke="#141220" stroke-width="1.145" stroke-linecap="round" stroke-linejoin="round"/>
<path d="M65.7188 78.7154C67.0916 80.2717 67.913 75.5255 68.4291 74.475C69.1423 73.027 70.0241 71.4503 69.9637 75.9026C69.9466 77.1341 70.0936 79.1016 70.2884 81.0464" stroke="#141220" stroke-width="1.145" stroke-linecap="round" stroke-linejoin="round"/>
<path d="M59.8265 74.0003C59.1999 73.3087 57.7758 71.9268 57.3622 71.536C55.4733 69.7291 55.0973 70.366 55.3115 70.7385C56.1318 72.1763 57.6698 74.391 58.3876 75.7513C59.536 77.9547 61.8669 82.1495 61.9968 84.3107" stroke="#141220" stroke-width="1.145" stroke-linecap="round" stroke-linejoin="round"/>
<path d="M58.3139 75.6213C57.9459 75.3627 57.6417 75.1497 57.4708 75.038C55.2811 73.6105 55.0498 74.2599 55.3062 74.5823C56.3441 75.8788 58.2284 77.7996 59.1547 79.0346C60.2421 80.5561 61.1828 82.1773 61.9641 83.8765" stroke="#141220" stroke-width="1.145" stroke-linecap="round" stroke-linejoin="round"/>
<path d="M135.806 83.6407C136.965 80.1834 138.427 76.8347 140.173 73.6333C141.651 71.2169 143.398 68.9761 145.381 66.9538C148.293 63.9917 148.002 62.825 144.085 65.1378C140.09 67.8662 136.483 71.1238 133.363 74.8216" stroke="#141220" stroke-width="1.145" stroke-linecap="round" stroke-linejoin="round"/>
<path d="M135.18 72.7706C133 74.3963 133.804 68.8435 133.6 67.5368C133.326 65.7846 132.93 63.8193 131.525 68.553C131.136 69.8484 129.557 73.8632 126.58 81.1101" stroke="#141220" stroke-width="1.145" stroke-linecap="round" stroke-linejoin="round"/>
<path d="M142.827 69.828C143.714 69.2879 145.659 68.315 146.221 68.0347C148.815 66.7371 148.985 67.5562 148.664 67.8616C147.334 69.125 144.991 70.9547 143.8 72.1623C141.879 74.1116 138.05 77.7824 137.186 80.0313" stroke="#141220" stroke-width="1.145" stroke-linecap="round" stroke-linejoin="round"/>
<path d="M143.911 72.0553C144.386 71.9037 144.776 71.775 144.992 71.7135C147.763 70.8647 147.801 71.6896 147.413 71.9516C145.893 72.9769 143.287 74.3976 141.9 75.4093C140.26 76.663 138.741 78.067 137.361 79.603" stroke="#141220" stroke-width="1.145" stroke-linecap="round" stroke-linejoin="round"/>
<path d="M32.5466 118.204C28.6993 112.677 5.11514 131.743 6.31365 138.055C6.49936 139.032 7.3447 139.907 9.31678 139.639C16.8964 138.613 35.3891 122.294 32.5466 118.204Z" stroke="#141220" stroke-width="1.145" stroke-linecap="round" stroke-linejoin="round"/>
<path d="M32.5469 118.204C33.7351 119.717 37.8206 124.602 40.7383 128.229" stroke="#141220" stroke-width="1.145" stroke-linecap="round" stroke-linejoin="round"/>
<path d="M93.5024 185.991C92.5909 189.427 87.4756 196.969 91.4049 206.633C93.418 211.583 94.5824 218.8 91.8607 220.616" stroke="#141220" stroke-width="1.145" stroke-linecap="round" stroke-linejoin="round"/>
<path d="M75.6035 193.254C77.3331 189.355 79.0337 185.443 80.7052 181.519" stroke="#141220" stroke-width="1.145" stroke-linecap="round" stroke-linejoin="round"/>
<path d="M76.2958 192.605C71.463 194.902 84.3641 218.529 90.2815 220.684C91.9164 221.28 92.6968 220.115 92.633 218.379C92.3641 211.161 80.0315 190.832 76.2958 192.605Z" stroke="#141220" stroke-width="1.145" stroke-linecap="round" stroke-linejoin="round"/>
<path d="M38.3191 125.25C38.6157 125.116 38.9418 125.061 39.2659 125.09C39.59 125.119 39.9012 125.231 40.1693 125.415C40.4374 125.6 40.6528 125.852 40.7945 126.145C40.9361 126.438 40.999 126.763 40.977 127.088C40.6193 131.645 32.1534 139.451 28.347 138.991C27.2078 138.852 26.4855 138.047 26.866 136.513" stroke="#141220" stroke-width="1.145" stroke-linecap="round" stroke-linejoin="round"/>
<path d="M94.5371 178.245L101.171 157.263C102.322 153.984 102.807 150.508 102.597 147.039C101.678 132.018 100.566 120.409 97.8638 109.839" stroke="#141220" stroke-width="1.145" stroke-linecap="round" stroke-linejoin="round"/>
<path d="M81.5898 172.567C86.4967 176.3 92.4396 178.422 98.6015 178.641" stroke="#141220" stroke-width="1.145" stroke-linecap="round" stroke-linejoin="round"/>
<path d="M33.6934 144.1C40.2431 142.002 43.9184 137.264 46.1229 131.087" stroke="#141220" stroke-width="1.145" stroke-linecap="round" stroke-linejoin="round"/>
<path d="M80.1862 131.757L61.7914 148.055C60.2784 149.403 58.3249 150.151 56.2987 150.159C54.2724 150.167 52.3131 149.434 50.7895 148.098L41.084 139.581" stroke="#141220" stroke-width="1.145" stroke-linecap="round" stroke-linejoin="round"/>
<path d="M83.2984 115.588C83.0182 115.632 82.6069 121.08 83.3417 123.284C84.7474 125.227 86.5442 126.854 88.6166 128.061C89.8019 126.086 91.2249 124.264 92.8535 122.636C92.6371 119.89 92.3773 118.442 92.0754 115.545C89.1655 115.961 86.2123 115.976 83.2984 115.588Z" stroke="#141220" stroke-width="1.145" stroke-linecap="round" stroke-linejoin="round"/>
<path d="M71.0442 114.487C72.1538 114.502 73.2434 114.784 74.2217 115.308C72.2325 116.28 70.2228 121.232 70.2228 121.232L65.791 123.351" stroke="#141220" stroke-width="1.145" stroke-linecap="round" stroke-linejoin="round"/>
<path d="M211.676 43.8652C215.094 44.9453 216.994 46.6963 219.195 49.5069" stroke="#141220" stroke-width="1.145" stroke-linecap="round" stroke-linejoin="round"/>
<path d="M210.832 45.4683C212.025 46.6787 212.952 48.1245 213.555 49.7134C214.158 51.3023 214.423 52.9994 214.333 54.6964" stroke="#141220" stroke-width="1.145" stroke-linecap="round" stroke-linejoin="round"/>
<path d="M217.403 47.3697C218.73 45.6224 219.839 43.7208 220.707 41.7063C222.302 37.9672 223.28 39.0051 222.393 42.5494C222.187 43.3773 221.956 44.1991 221.702 45.0136C221.071 47.0092 220.466 49.0126 219.886 51.0233C219.274 53.1606 215.215 62.1985 215.215 62.1985C211.411 61.1822 207.455 58.4161 204.364 55.8652C204.429 55.7353 206.073 52.7106 206.136 52.6012C206.471 51.9967 206.613 51.3043 206.544 50.6167C206.474 49.9292 206.196 49.2792 205.747 48.7539C204.184 46.8786 202.091 44.0828 202.785 43.3275C203.862 42.1575 207.259 46.1142 209.075 46.3546C209.723 46.44 210.243 44.4736 210.35 43.7604C210.546 42.4639 211.228 38.0527 211.28 37.622C211.75 33.614 213.182 34.2931 213.161 37.8373C213.139 41.2096 213.139 43.3924 213.139 43.3924" stroke="#141220" stroke-width="1.145" stroke-linecap="round" stroke-linejoin="round"/>
<path d="M212.865 44.2569C212.865 44.2569 215.222 36.8653 215.372 36.3674C216.544 32.4996 217.773 33.3848 217.188 36.8641C216.627 40.1942 216.02 44.2569 216.02 44.2569" stroke="#141220" stroke-width="1.145" stroke-linecap="round" stroke-linejoin="round"/>
<path d="M215.441 45.4463C216.569 43.1856 217.565 40.8614 218.424 38.4854C219.825 34.6802 220.855 35.652 220.197 39.1131C219.836 41.2649 219.323 43.3885 218.662 45.468" stroke="#141220" stroke-width="1.145" stroke-linecap="round" stroke-linejoin="round"/>
<path d="M191.895 111.806C191.953 112.322 191.908 112.844 191.764 113.343C191.62 113.842 191.379 114.308 191.054 114.713C190.729 115.118 190.327 115.455 189.871 115.704C189.415 115.953 188.914 116.108 188.397 116.162C187.619 116.244 186.835 116.092 186.143 115.725C185.452 115.359 184.886 114.795 184.517 114.105C184.272 113.647 184.12 113.144 184.07 112.627L183.444 106.703C183.345 105.67 183.658 104.641 184.314 103.837C184.971 103.034 185.918 102.522 186.949 102.414C187.981 102.305 189.014 102.609 189.823 103.259C190.631 103.908 191.151 104.851 191.268 105.882L191.895 111.806Z" stroke="#141220" stroke-width="1.145" stroke-linecap="round" stroke-linejoin="round"/>
<path d="M180.873 110.249L181.175 113.167C181.365 114.979 182.266 116.64 183.68 117.788C185.095 118.935 186.907 119.473 188.718 119.285C190.529 119.094 192.191 118.193 193.34 116.78C194.487 115.365 195.025 113.552 194.836 111.741L194.534 108.823" stroke="#141220" stroke-width="1.145" stroke-linecap="round" stroke-linejoin="round"/>
<path d="M188.719 119.285L189.302 124.732" stroke="#141220" stroke-width="1.145" stroke-linecap="round" stroke-linejoin="round"/>
<path d="M186.383 125.035L192.198 124.429" stroke="#141220" stroke-width="1.145" stroke-linecap="round" stroke-linejoin="round"/>
<path d="M141.144 141.679L148.127 144.943L146.872 130.114L140.539 134.523" stroke="#141220" stroke-width="1.145" stroke-linecap="round" stroke-linejoin="round"/>
<path d="M134.529 129.834C135.938 129.71 137.341 130.125 138.456 130.996C139.571 131.866 140.315 133.126 140.537 134.523L141.121 141.245C141.218 142.35 140.985 143.459 140.451 144.432C139.918 145.405 139.108 146.198 138.123 146.71C137.469 147.049 136.754 147.256 136.02 147.319L122.532 148.442C121.798 148.51 121.057 148.431 120.353 148.211C119.649 147.99 118.996 147.632 118.432 147.158C117.867 146.683 117.402 146.102 117.063 145.447C116.724 144.792 116.518 144.077 116.458 143.342L115.918 137.076C115.851 136.342 115.93 135.601 116.15 134.898C116.37 134.194 116.728 133.541 117.202 132.976C117.675 132.41 118.257 131.944 118.912 131.605C119.567 131.267 120.283 131.061 121.018 131.001L134.529 129.834Z" stroke="#141220" stroke-width="1.145" stroke-linecap="round" stroke-linejoin="round"/>
<path d="M171.792 17.8647C171.692 16.6163 171.262 15.4169 170.546 14.3895C169.83 13.3621 168.853 12.5436 167.716 12.018C166.58 11.4924 165.324 11.2786 164.077 11.3985C162.83 11.5184 161.638 11.9677 160.622 12.7003C159.261 13.6804 158.294 15.1129 157.893 16.7413C159.667 17.5602 161.226 18.7818 162.446 20.309C163.666 21.8363 164.512 23.627 164.918 25.5388C165.884 25.5165 166.834 25.2965 167.711 24.8924C168.588 24.4884 169.372 23.9089 170.016 23.1897C170.661 22.4706 171.15 21.627 171.456 20.7111C171.761 19.7952 171.875 18.8265 171.792 17.8647Z" stroke="#141220" stroke-width="1.145" stroke-linecap="round" stroke-linejoin="round"/>
<path d="M165.115 27.0951C164.913 24.6524 163.999 22.3224 162.488 20.3927C160.977 18.463 158.934 17.0179 156.611 16.2357C154.288 15.4536 151.787 15.3686 149.416 15.9913C147.046 16.614 144.909 17.9172 143.271 19.7399C141.073 22.1831 139.922 25.3902 140.062 28.673C142.666 27.9673 145.342 27.5609 148.037 27.4619C148.183 28.3471 148.385 29.2221 148.642 30.0823C148.88 30.6223 149.247 30.6656 149.895 29.671C151.345 27.5747 154.284 30.8171 150.847 33.3246C152.33 35.8921 154.215 38.2057 156.429 40.1774C159.144 39.3017 161.481 37.5309 163.059 35.1546C164.637 32.7782 165.362 29.9368 165.115 27.0951Z" stroke="#141220" stroke-width="1.145" stroke-linecap="round" stroke-linejoin="round"/>
<path d="M20.377 100.047L24.8942 99.5929" stroke="#141220" stroke-width="1.145" stroke-linecap="round" stroke-linejoin="round"/>
<path d="M32.8926 98.7714L37.4109 98.318" stroke="#141220" stroke-width="1.145" stroke-linecap="round" stroke-linejoin="round"/>
<path d="M28.0293 90.6655L28.4839 95.1839" stroke="#141220" stroke-width="1.145" stroke-linecap="round" stroke-linejoin="round"/>
<path d="M29.3047 103.182L29.7581 107.699" stroke="#141220" stroke-width="1.145" stroke-linecap="round" stroke-linejoin="round"/>
<path d="M22.2578 93.7789L25.7805 96.6317" stroke="#141220" stroke-width="1.145" stroke-linecap="round" stroke-linejoin="round"/>
<path d="M32.0059 101.712L35.5296 104.586" stroke="#141220" stroke-width="1.145" stroke-linecap="round" stroke-linejoin="round"/>
<path d="M34.2992 92.5463L31.4453 96.07" stroke="#141220" stroke-width="1.145" stroke-linecap="round" stroke-linejoin="round"/>
<path d="M26.3646 102.295L23.4902 105.819" stroke="#141220" stroke-width="1.145" stroke-linecap="round" stroke-linejoin="round"/>
<path d="M125.038 48.2991L122.418 41.901C124.02 39.5193 124.795 36.6772 124.623 33.8121C124.148 26.2929 117.165 20.4541 108.844 20.6922C100.348 20.9292 93.648 27.4139 93.885 35.1747C94.1208 43.3672 101.785 49.2322 110.157 48.7389C113.156 48.5498 116.048 47.5522 118.526 45.852L125.038 48.2991Z" stroke="#141220" stroke-width="1.145" stroke-linecap="round" stroke-linejoin="round"/>
<path d="M75.2376 45.0352C74.8379 45.4181 74.3337 45.6738 73.7887 45.7701C73.2437 45.8664 72.6824 45.7989 72.1758 45.5762C71.6692 45.3534 71.24 44.9854 70.9425 44.5187C70.645 44.052 70.4926 43.5076 70.5046 42.9543C70.5165 42.401 70.6923 41.8637 71.0096 41.4103C71.327 40.9568 71.7717 40.6077 72.2875 40.4071C72.8032 40.2064 73.3669 40.1632 73.9073 40.2829C74.4476 40.4027 74.9403 40.6799 75.323 41.0797C75.8345 41.6165 76.1126 42.3339 76.0966 43.0751C76.0805 43.8163 75.7717 44.5211 75.2376 45.0352Z" stroke="#141220" stroke-width="1.145" stroke-linecap="round" stroke-linejoin="round"/>
<path d="M190.838 8.15894L191.811 19.9618" stroke="#141220" stroke-width="1.145" stroke-linecap="round" stroke-linejoin="round"/>
<path d="M197.235 13.5627L185.434 14.5573" stroke="#141220" stroke-width="1.145" stroke-linecap="round" stroke-linejoin="round"/>
<path d="M29.9507 138.803C29.1278 137.795 28.0662 137.008 26.8621 136.513C24.7659 135.756 22.7095 136.425 20.2669 137.118C15.3452 138.485 10.0692 141.454 7.30078 139.405" stroke="#141220" stroke-width="1.145" stroke-linecap="round" stroke-linejoin="round"/>
<path d="M80.4237 140.533L80.1855 131.757" stroke="#141220" stroke-width="1.145" stroke-linecap="round" stroke-linejoin="round"/>
</svg>
