<svg width="164" height="164" viewBox="0 0 164 164" fill="none" xmlns="http://www.w3.org/2000/svg">
<path d="M144.674 72.6234C142.819 72.6234 142.12 63.5906 143.977 63.4462C133.941 64.5142 123.637 66.1558 116.633 65.0429C114.173 68.0754 112.167 71.4487 110.676 75.0572C109.73 71.6605 109.386 68.1243 109.659 64.6088C108.327 64.5003 93.7857 54.8588 87.6632 51.2778C86.3356 52.1754 85.2044 53.3335 84.3383 54.6818C83.4722 56.0302 82.8893 57.5405 82.625 59.1211L104.083 72.1755L105.773 69.7416C105.378 70.7135 105.157 71.7472 105.12 72.7956C105.058 74.9039 105.74 77.988 108.282 83.4023C110.762 84.1464 114.809 82.9992 117.893 81.2165C117.754 79.2787 118.699 76.9069 119.412 74.9234C118.865 74.5223 118.29 74.1597 117.692 73.8383C126.786 74.4372 135.343 73.7591 144.674 72.6234Z" fill="#FFD647"/>
<path d="M69.0748 86.8693C64.3617 86.5004 59.6329 86.371 54.9067 86.4818C55.202 85.4774 55.3783 84.442 55.4337 83.3969C51.5582 84.4045 47.8067 84.4355 42.8158 83.7232V83.6612C40.4971 85.1951 38.4728 90.6339 39.9267 94.6318L35.9019 103.132L24.4312 95.8132C20.9742 97.968 19.238 100.727 17.9668 104.959L32.4294 114.864C33.3995 115.531 34.4997 115.983 35.6575 116.193C36.8154 116.403 38.0046 116.366 39.1467 116.083C40.2889 115.8 41.3583 115.279 42.2845 114.553C43.2107 113.828 43.9727 112.914 44.5203 111.873L49.1399 103.084L43.3095 98.6305C44.1645 99.1297 45.0827 99.5117 46.0395 99.7663C50.7986 101.084 57.7582 100.557 62.4391 99.9833C61.0624 105.46 59.9862 111.007 59.2154 116.601C62.167 118.586 65.7661 119.368 69.2755 118.787C71.8974 111.438 74.1126 103.952 75.9112 96.3599C76.1797 95.2796 76.2097 94.1539 75.9991 93.0609C75.7885 91.9679 75.3424 90.9338 74.6919 90.0307C74.0413 89.1275 73.2018 88.3768 72.2317 87.8309C71.2617 87.285 70.1844 86.9568 69.0748 86.8693Z" fill="#FFD647"/>
<path d="M136.956 38.7835C136.78 38.6058 136.556 38.4847 136.311 38.4357C136.066 38.3867 135.812 38.4121 135.582 38.5085C135.428 38.5722 135.29 38.6657 135.173 38.7835L134.846 39.1098L134.52 38.7835C134.281 38.558 133.964 38.4345 133.636 38.4392C133.308 38.4439 132.994 38.5765 132.762 38.8088C132.53 39.041 132.397 39.3546 132.393 39.6829C132.388 40.0113 132.512 40.3284 132.737 40.567L134.859 42.6753L136.951 40.567C137.129 40.3916 137.25 40.1672 137.3 39.9225C137.35 39.6777 137.325 39.4238 137.23 39.1931C137.166 39.0398 137.073 38.9006 136.956 38.7835Z" fill="#FFD647"/>
<path d="M53.4946 25.8713C53.3192 25.6936 53.0946 25.5725 52.8497 25.5235C52.6049 25.4745 52.351 25.4998 52.1207 25.5963C51.9675 25.66 51.8286 25.7534 51.7119 25.8713L51.3855 26.1976L51.0592 25.8713C50.8205 25.6458 50.5032 25.5223 50.1749 25.527C49.8466 25.5317 49.533 25.6643 49.3009 25.8965C49.0688 26.1288 48.9363 26.4424 48.9318 26.7707C48.9272 27.099 49.0508 27.4162 49.2764 27.6548L51.3978 29.7631L53.4905 27.6548C53.6682 27.4794 53.7895 27.255 53.8391 27.0102C53.8886 26.7655 53.8642 26.5116 53.7688 26.2808C53.7053 26.1276 53.6121 25.9884 53.4946 25.8713Z" fill="#FFD647"/>
<path d="M89.7895 82.7747C89.6141 82.597 89.3895 82.4759 89.1446 82.4269C88.8998 82.3779 88.6459 82.4033 88.4156 82.4997C88.2625 82.5634 88.1235 82.6569 88.0068 82.7747L87.6805 83.1011L87.3541 82.7747C87.1154 82.5492 86.7982 82.4257 86.4698 82.4304C86.1415 82.4352 85.8279 82.5677 85.5958 82.8C85.3637 83.0322 85.2313 83.3458 85.2267 83.6741C85.2221 84.0025 85.3458 84.3196 85.5713 84.5583L87.6927 86.6665L89.7855 84.5583C89.9631 84.3828 90.0845 84.1584 90.134 83.9137C90.1836 83.669 90.1591 83.415 90.0637 83.1843C90.0002 83.031 89.907 82.8918 89.7895 82.7747Z" fill="#FFD647"/>
<path d="M150.819 14.5979C150.643 14.4203 150.419 14.2992 150.174 14.2502C149.929 14.2012 149.675 14.2265 149.445 14.323C149.292 14.3866 149.153 14.4801 149.036 14.5979L148.71 14.9243L148.383 14.5979C148.145 14.3725 147.827 14.249 147.499 14.2537C147.171 14.2584 146.857 14.391 146.625 14.6232C146.393 14.8554 146.261 15.1691 146.256 15.4974C146.251 15.8257 146.375 16.1429 146.601 16.3815L148.722 18.4898L150.815 16.3815C150.992 16.206 151.114 15.9816 151.163 15.7369C151.213 15.4922 151.188 15.2383 151.093 15.0075C151.03 14.8543 150.936 14.7151 150.819 14.5979Z" fill="#FFD647"/>
<path d="M48.1939 129.467L46.0391 129.141L45.078 127.203L44.1169 129.141L41.9629 129.467L43.5286 130.97L43.1566 133.11L45.078 132.102L47.0003 133.11L46.6282 130.97L48.1939 129.467Z" fill="#FFD647"/>
<path d="M150.336 122.244L148.182 121.918L147.221 119.98L146.259 121.918L144.105 122.244L145.671 123.747L145.299 125.887L147.221 124.879L149.143 125.887L148.771 123.747L150.336 122.244Z" fill="#FFD647"/>
<path d="M122.913 2.2633L120.758 1.93775L119.797 0L118.836 1.93775L116.682 2.2633L118.247 3.767L117.875 5.9063L119.797 4.89865L121.719 5.9063L121.347 3.767L122.913 2.2633Z" fill="#FFD647"/>
<path d="M112.942 61.5206L111.311 63.0708C111.461 62.6409 111.555 62.1921 111.59 61.7377C112.047 61.7157 112.501 61.6429 112.942 61.5206Z" fill="#FF6635"/>
<path d="M119.734 73.941C119.625 74.2511 119.517 74.5766 119.393 74.9201C118.845 74.5189 118.27 74.1563 117.672 73.835C118.369 73.8635 119.052 73.91 119.734 73.941Z" fill="#FF6635"/>
<path d="M132.352 48.2081C129.813 46.0998 122.927 52.0216 122.927 52.0216C124.197 45.7587 114.897 51.1241 111.766 54.1764C113.378 52.8897 114.665 55.6793 114.525 57.2605C114.525 57.6334 114.727 57.7109 115.3 57.3078C116.494 56.4397 117.346 58.5015 115.099 59.4618C114.948 59.625 114.837 59.8208 114.772 60.0329C114.36 61.2029 114.333 62.4739 114.695 63.6604C125.128 61.5244 134.878 50.3009 132.352 48.2081Z" fill="#FF6635"/>
<path d="M114.431 95.7665L113.191 96.8362L112.105 92.2321L114.431 95.7665Z" fill="#FF6635"/>
<path d="M80.3742 23.6229C79.1317 23.6229 77.917 23.9914 76.8839 24.6817C75.8508 25.372 75.0455 26.3532 74.57 27.5012C74.0945 28.6491 73.9701 29.9123 74.2125 31.131C74.4549 32.3497 75.0533 33.4691 75.9319 34.3477C76.8105 35.2263 77.9299 35.8247 79.1486 36.0671C80.3673 36.3095 81.6304 36.1851 82.7784 35.7096C83.9264 35.2341 84.9076 34.4288 85.5979 33.3957C86.2882 32.3626 86.6567 31.1479 86.6567 29.9054C86.6588 28.6622 86.2914 27.4464 85.6013 26.4124C84.9111 25.3783 83.9292 24.5727 82.7803 24.0978C82.0173 23.7827 81.1997 23.6214 80.3742 23.6229ZM80.5292 33.7303C80.5292 33.7714 80.5129 33.8108 80.4838 33.8399C80.4548 33.869 80.4153 33.8853 80.3742 33.8853C80.3536 33.8865 80.3329 33.8833 80.3135 33.8759C80.2942 33.8686 80.2766 33.8572 80.262 33.8426C80.2473 33.8279 80.236 33.8103 80.2286 33.791C80.2212 33.7717 80.218 33.751 80.2192 33.7303V28.8626C80.2194 28.8216 80.2358 28.7823 80.2648 28.7533C80.2939 28.7242 80.3332 28.7078 80.3742 28.7076C80.3949 28.7064 80.4156 28.7096 80.4349 28.717C80.4543 28.7244 80.4718 28.7358 80.4865 28.7504C80.5011 28.765 80.5125 28.7826 80.5199 28.8019C80.5272 28.8213 80.5304 28.842 80.5292 28.8626V33.7303ZM79.9402 26.5071C79.9451 26.3933 79.9938 26.2857 80.0761 26.2068C80.1584 26.1279 80.268 26.0839 80.382 26.0839C80.496 26.0839 80.6056 26.1279 80.6879 26.2068C80.7702 26.2857 80.8189 26.3933 80.8238 26.5071C80.8189 26.621 80.7702 26.7286 80.6879 26.8075C80.6056 26.8863 80.496 26.9304 80.382 26.9304C80.268 26.9304 80.1584 26.8863 80.0761 26.8075C79.9938 26.7286 79.9451 26.621 79.9402 26.5071Z" fill="#FF6635"/>
<path d="M43.2188 98.572L49.1406 103.083L50.5202 100.479C47.9721 100.413 45.4735 99.7609 43.2188 98.572Z" fill="#FF6635"/>
<path d="M48.3329 64.4072L46.4727 63.1523C47.0071 63.2168 47.5464 63.2372 48.0849 63.2143C48.1273 63.619 48.2105 64.0188 48.3329 64.4072Z" fill="#FF6635"/>
<path d="M105.752 69.74C105.357 70.7118 105.136 71.7455 105.099 72.7939L104.061 72.1583L105.752 69.74Z" fill="#FF6635"/>
<path d="M56.2715 69.8485C56.4102 70.5241 56.5081 71.2078 56.566 71.8948C56.8606 71.7553 57.1861 71.5847 57.5117 71.4142L56.2715 69.8485Z" fill="#FF6635"/>
<path d="M60.5021 117.872C60.1463 118.895 59.6959 119.918 59.3867 120.816C59.6274 121.848 60.0024 122.843 60.5021 123.777C62.0678 126.676 63.6335 132.365 64.8736 133.791C65.5557 131.761 66.2843 126.661 66.7649 123.793C64.3453 122.203 62.2252 120.198 60.5021 117.872Z" fill="#FF6635"/>
<path d="M19.2381 94.5881C18.1806 94.5418 17.1217 94.6409 16.0911 94.8826C12.8667 95.6267 6.96121 95.6267 5.27148 96.4483C7.03872 97.6575 11.766 99.7193 14.4014 100.928C16.5799 99.0068 19.0841 97.4897 21.7959 96.4483C20.8813 95.8283 20.0132 95.1307 19.2381 94.5881Z" fill="#FF6635"/>
<path d="M46.7843 54.5038C46.2728 53.6667 45.1525 53.7132 45.2651 54.3488C44.5683 53.7287 43.3592 54.0224 43.4979 54.7363C42.6616 54.0543 41.685 54.5968 41.8857 55.2479C41.1579 54.6898 40.3673 55.2479 40.6153 55.9145C39.5767 55.4649 38.7085 56.2409 39.9332 57.4647C40.4603 57.9918 42.7538 59.6962 44.0405 61.851C44.1195 61.5411 44.1122 61.2154 44.0192 60.9093C43.9263 60.6033 43.7514 60.3285 43.5134 60.1148C42.2422 59.1536 43.1103 58.0073 43.9164 58.7971C44.6295 59.4947 44.3978 58.4707 43.8854 57.5569C43.9915 57.6487 44.119 57.7122 44.2561 57.7417C44.3933 57.7712 44.5356 57.7656 44.67 57.7255C44.8045 57.6854 44.9266 57.6121 45.0252 57.5123C45.1238 57.4126 45.1956 57.2896 45.2341 57.1547C45.3358 57.2315 45.4529 57.2852 45.5775 57.312C45.702 57.3389 45.8309 57.3383 45.9552 57.3103C46.0794 57.2822 46.1961 57.2274 46.297 57.1497C46.398 57.0719 46.4807 56.9731 46.5396 56.8601C47.1107 57.2624 47.8882 57.0152 47.9192 56.4106C47.5749 55.8199 47.1874 55.1688 46.7843 54.5038Z" fill="#FF6635"/>
<path d="M42.7559 75.2114L41.6251 76.6686C41.4701 76.0649 41.3151 75.475 41.1445 74.9022C41.6692 74.9952 42.7559 75.2114 42.7559 75.2114Z" fill="#FF6635"/>
<path d="M26.942 71.383C26.9366 71.5191 26.8788 71.6479 26.7806 71.7423C26.6824 71.8367 26.5515 71.8894 26.4153 71.8894C26.2791 71.8894 26.1482 71.8367 26.05 71.7423C25.9519 71.6479 25.894 71.5191 25.8887 71.383C25.894 71.247 25.9519 71.1182 26.05 71.0238C26.1482 70.9294 26.2791 70.8767 26.4153 70.8767C26.5515 70.8767 26.6824 70.9294 26.7806 71.0238C26.8788 71.1182 26.9366 71.247 26.942 71.383Z" fill="#FF6635"/>
<path d="M34.0112 66.7326C34.0112 66.8019 33.9975 66.8704 33.9711 66.9343C33.9446 66.9983 33.9057 67.0564 33.8568 67.1053C33.8079 67.1543 33.7497 67.1931 33.6858 67.2196C33.6219 67.2461 33.5533 67.2597 33.4841 67.2597C33.4149 67.2597 33.3463 67.2461 33.2824 67.2196C33.2185 67.1931 33.1603 67.1543 33.1114 67.1053C33.0625 67.0564 33.0236 66.9983 32.9972 66.9343C32.9707 66.8704 32.957 66.8019 32.957 66.7326C32.957 66.5928 33.0126 66.4588 33.1114 66.3599C33.2103 66.2611 33.3443 66.2056 33.4841 66.2056C33.6239 66.2056 33.758 66.2611 33.8568 66.3599C33.9556 66.4588 34.0112 66.5928 34.0112 66.7326Z" fill="#FF6635"/>
<path d="M40.7854 71.9103C40.7854 72.0502 40.7299 72.1844 40.6309 72.2833C40.532 72.3822 40.3978 72.4378 40.2579 72.4378C40.1181 72.4378 39.9839 72.3822 39.885 72.2833C39.786 72.1844 39.7305 72.0502 39.7305 71.9103C39.7305 71.7704 39.786 71.6362 39.885 71.5373C39.9839 71.4384 40.1181 71.3828 40.2579 71.3828C40.3978 71.3828 40.532 71.4384 40.6309 71.5373C40.7299 71.6362 40.7854 71.7704 40.7854 71.9103Z" fill="#FF6635"/>
<path d="M50.0237 73.3829C50.0237 73.5228 49.9681 73.657 49.8692 73.7559C49.7703 73.8548 49.6361 73.9104 49.4962 73.9104C49.3563 73.9104 49.2222 73.8548 49.1232 73.7559C49.0243 73.657 48.9688 73.5228 48.9688 73.3829C48.9688 73.243 49.0243 73.1089 49.1232 73.01C49.2222 72.911 49.3563 72.8555 49.4962 72.8555C49.6361 72.8555 49.7703 72.911 49.8692 73.01C49.9681 73.1089 50.0237 73.243 50.0237 73.3829Z" fill="#FF6635"/>
<path d="M54.8304 65.322C54.8304 65.4619 54.7748 65.5961 54.6759 65.695C54.5769 65.7939 54.4428 65.8495 54.3029 65.8495C54.163 65.8495 54.0288 65.7939 53.9299 65.695C53.831 65.5961 53.7754 65.4619 53.7754 65.322C53.7754 65.1821 53.831 65.048 53.9299 64.9491C54.0288 64.8501 54.163 64.7946 54.3029 64.7946C54.4428 64.7946 54.5769 64.8501 54.6759 64.9491C54.7748 65.048 54.8304 65.1821 54.8304 65.322Z" fill="#FF6635"/>
<path d="M63.8198 65.2136C63.8198 65.2828 63.8061 65.3513 63.7796 65.4153C63.7532 65.4792 63.7143 65.5373 63.6654 65.5863C63.6164 65.6352 63.5583 65.6741 63.4944 65.7005C63.4305 65.727 63.3619 65.7407 63.2927 65.7407C63.2235 65.7407 63.1549 65.727 63.091 65.7005C63.027 65.6741 62.9689 65.6352 62.92 65.5863C62.8711 65.5373 62.8322 65.4792 62.8057 65.4153C62.7793 65.3513 62.7656 65.2828 62.7656 65.2136C62.7656 65.0738 62.8212 64.9397 62.92 64.8409C63.0188 64.7421 63.1529 64.6865 63.2927 64.6865C63.4325 64.6865 63.5665 64.7421 63.6654 64.8409C63.7642 64.9397 63.8198 65.0738 63.8198 65.2136Z" fill="#FF6635"/>
<path d="M66.8588 58.0677C66.8588 58.2075 66.8033 58.3416 66.7045 58.4404C66.6056 58.5393 66.4715 58.5948 66.3318 58.5948C66.192 58.5948 66.0579 58.5393 65.9591 58.4404C65.8602 58.3416 65.8047 58.2075 65.8047 58.0677C65.8047 57.9279 65.8602 57.7939 65.9591 57.695C66.0579 57.5962 66.192 57.5406 66.3318 57.5406C66.4715 57.5406 66.6056 57.5962 66.7045 57.695C66.8033 57.7939 66.8588 57.9279 66.8588 58.0677Z" fill="#FF6635"/>
<path d="M46.1323 80.6217C46.1323 80.6909 46.1186 80.7594 46.0921 80.8234C46.0657 80.8873 46.0268 80.9454 45.9779 80.9944C45.9289 81.0433 45.8708 81.0821 45.8069 81.1086C45.7429 81.1351 45.6744 81.1487 45.6052 81.1487C45.536 81.1487 45.4674 81.1351 45.4035 81.1086C45.3395 81.0821 45.2814 81.0433 45.2325 80.9944C45.1836 80.9454 45.1447 80.8873 45.1182 80.8234C45.0918 80.7594 45.0781 80.6909 45.0781 80.6217C45.0781 80.4819 45.1337 80.3478 45.2325 80.249C45.3313 80.1501 45.4654 80.0946 45.6052 80.0946C45.745 80.0946 45.879 80.1501 45.9779 80.249C46.0767 80.3478 46.1323 80.4819 46.1323 80.6217Z" fill="#FF6635"/>
<path d="M54.303 80.0947C54.303 80.2346 54.2474 80.3688 54.1485 80.4677C54.0496 80.5666 53.9154 80.6222 53.7755 80.6222C53.6356 80.6222 53.5015 80.5666 53.4025 80.4677C53.3036 80.3688 53.248 80.2346 53.248 80.0947C53.248 79.9548 53.3036 79.8207 53.4025 79.7218C53.5015 79.6228 53.6356 79.5673 53.7755 79.5673C53.9154 79.5673 54.0496 79.6228 54.1485 79.7218C54.2474 79.8207 54.303 79.9548 54.303 80.0947Z" fill="#FF6635"/>
<path d="M144.938 64.3451C144.395 64.3761 143.434 64.4227 143.217 64.4382C143.62 63.1523 144.335 63.136 144.938 64.3451Z" fill="#FF6635"/>
<path d="M145.435 71.7861C145.047 72.8403 144.412 72.8868 143.869 71.9101C144.319 71.8824 144.861 71.8326 145.435 71.7861Z" fill="#FF6635"/>
<path d="M88.405 54.1774C88.4078 54.2484 88.3962 54.3193 88.3709 54.3857C88.3457 54.4522 88.3073 54.5128 88.258 54.564C88.2088 54.6153 88.1497 54.656 88.0843 54.6839C88.0189 54.7117 87.9486 54.7261 87.8775 54.7261C87.8064 54.7261 87.7361 54.7117 87.6707 54.6839C87.6053 54.656 87.5462 54.6153 87.497 54.564C87.4477 54.5128 87.4093 54.4522 87.3841 54.3857C87.3588 54.3193 87.3472 54.2484 87.35 54.1774C87.3554 54.0411 87.4133 53.9122 87.5116 53.8176C87.61 53.7231 87.7411 53.6703 87.8775 53.6703C88.0139 53.6703 88.145 53.7231 88.2434 53.8176C88.3417 53.9122 88.3996 54.0411 88.405 54.1774Z" fill="#FF6635"/>
<path d="M141.311 66.376C141.311 66.5157 141.256 66.6497 141.157 66.7484C141.058 66.8472 140.924 66.9027 140.784 66.9027C140.645 66.9027 140.511 66.8472 140.412 66.7484C140.313 66.6497 140.258 66.5157 140.258 66.376C140.258 66.2363 140.313 66.1024 140.412 66.0036C140.511 65.9049 140.645 65.8494 140.784 65.8494C140.924 65.8494 141.058 65.9049 141.157 66.0036C141.256 66.1024 141.311 66.2363 141.311 66.376Z" fill="#FF6635"/>
<path d="M128.925 101.13C128.92 100.239 128.868 99.3491 128.77 98.4636L133.25 94.3091L128.925 101.13Z" fill="#FF6635"/>
<path d="M85.3353 122.212C79.2796 122.968 73.1311 122.316 67.3691 120.305" stroke="#120071" stroke-width="0.5" stroke-linecap="round" stroke-linejoin="round"/>
<path d="M116.383 98.7258C112.647 107.476 105.86 114.571 97.2852 118.692" stroke="#120071" stroke-width="0.5" stroke-linecap="round" stroke-linejoin="round"/>
<path d="M118.863 76.3743C119.207 78.2264 119.408 80.1029 119.468 81.986" stroke="#120071" stroke-width="0.5" stroke-linecap="round" stroke-linejoin="round"/>
<path d="M86.498 44.7516C95.5456 46.1736 103.804 50.7341 109.827 57.6338" stroke="#120071" stroke-width="0.5" stroke-linecap="round" stroke-linejoin="round"/>
<path d="M77.0879 44.4112C78.8521 44.2686 80.6237 44.2426 82.3912 44.3332C82.7013 44.3497 83.0268 44.3644 83.3369 44.3956" stroke="#120071" stroke-width="0.5" stroke-linecap="round" stroke-linejoin="round"/>
<path d="M49.4336 59.4313C55.2058 51.9792 63.4732 46.8604 72.7169 45.0151" stroke="#120071" stroke-width="0.5" stroke-linecap="round" stroke-linejoin="round"/>
<path d="M41.2959 85.3188C41.2325 84.0069 41.2377 82.6926 41.3114 81.3812C41.3856 79.9844 41.5308 78.5933 41.7454 77.2112" stroke="#120071" stroke-width="0.5" stroke-linecap="round" stroke-linejoin="round"/>
<path d="M59.2922 116.368C54.8045 113.491 50.9493 109.731 47.9609 105.316" stroke="#120071" stroke-width="0.5" stroke-linecap="round" stroke-linejoin="round"/>
<path d="M111.593 61.7257C112.044 61.7121 112.492 61.6444 112.927 61.5242L111.314 63.0589" stroke="#120071" stroke-width="0.5" stroke-linecap="round" stroke-linejoin="round"/>
<path d="M151.99 65.9266L155.044 64.5314C156.981 63.6478 157.002 62.7054 154.688 63.4463C154.547 63.4912 151.107 64.5143 150.564 64.5934C150.145 64.6546 149.422 64.7166 149.34 64.4384C149.029 63.3777 150.319 60.5123 149.418 60.2218C148.829 60.0334 147.824 61.8822 147.185 63.2137C146.738 64.1455 145.961 64.2989 144.938 64.3454" stroke="#120071" stroke-width="0.5" stroke-linecap="round" stroke-linejoin="round"/>
<path d="M151.432 65.9885C151.432 65.9885 156.082 65.4174 156.392 65.3684C158.809 65.0168 158.64 65.929 156.578 66.5001C154.61 67.0451 152.238 67.7239 152.238 67.7239" stroke="#120071" stroke-width="0.5" stroke-linecap="round" stroke-linejoin="round"/>
<path d="M151.432 67.7094C152.957 67.755 154.484 67.7134 156.005 67.5853C158.438 67.3952 158.174 68.2054 156.113 68.717C154.842 69.0645 153.546 69.3183 152.238 69.4766" stroke="#120071" stroke-width="0.5" stroke-linecap="round" stroke-linejoin="round"/>
<path d="M145.434 71.7865C145.434 71.7865 148.798 71.5662 149.449 71.5075C150.703 71.3933 151.993 71.1934 153.247 71.0269C153.76 70.9576 154.272 70.876 154.781 70.7821C156.953 70.3742 157.276 69.5681 154.812 69.635C153.49 69.6665 152.168 69.5416 150.875 69.2629" stroke="#120071" stroke-width="0.5" stroke-linecap="round" stroke-linejoin="round"/>
<path d="M151.34 65.2446C151.576 67.1755 151.155 69.1296 150.146 70.7927" stroke="#120071" stroke-width="0.5" stroke-linecap="round" stroke-linejoin="round"/>
<path d="M149.51 65.2135C149.146 66.1757 148.586 67.0517 147.866 67.7857C147.145 68.5197 146.28 69.0955 145.324 69.4766" stroke="#120071" stroke-width="0.5" stroke-linecap="round" stroke-linejoin="round"/>
<path d="M119.741 73.9476C119.633 74.2577 119.524 74.5832 119.4 74.9267C118.594 74.3841 117.911 74.0333 117.68 73.8416C118.377 73.8701 119.059 73.9166 119.741 73.9476Z" stroke="#120071" stroke-width="0.5" stroke-linecap="round" stroke-linejoin="round"/>
<path d="M104.061 72.1739L105.75 69.7401C105.311 70.699 105.083 71.741 105.081 72.7957" stroke="#120071" stroke-width="0.5" stroke-linecap="round" stroke-linejoin="round"/>
<path d="M109.658 64.6089C110.219 64.6089 110.943 64.1275 111.317 63.0587C111.467 62.6282 111.561 62.18 111.596 61.7255C110.139 61.741 108.267 60.9912 110.387 56.223C110.843 55.1983 111.728 53.6309 112.828 53.8708C113.898 54.105 114.632 55.9987 114.541 57.216C114.505 57.739 114.868 57.6109 115.298 57.3049C116.499 56.4466 117.344 58.4978 115.096 59.4589C114.947 59.6229 114.835 59.8179 114.77 60.03C114.19 62.4777 114.169 64.4938 116.63 65.0527" stroke="#120071" stroke-width="0.5" stroke-linecap="round" stroke-linejoin="round"/>
<path d="M111.779 54.1776C114.911 51.1237 124.212 45.7599 122.941 52.0228C122.941 52.0228 129.822 46.1018 132.365 48.2093C134.895 50.3029 125.157 61.5248 114.725 63.6641" stroke="#120071" stroke-width="0.5" stroke-linecap="round" stroke-linejoin="round"/>
<path d="M144.674 72.6233C142.839 72.6233 142.12 63.5905 143.977 63.446C134.023 64.5067 123.7 66.1671 116.633 65.0428C114.173 68.0753 112.167 71.4485 110.676 75.0571C109.73 71.6604 109.386 68.1242 109.659 64.6087C108.327 64.5002 93.7857 54.8587 87.6632 51.2777C86.3356 52.1753 85.2044 53.3334 84.3383 54.6817C83.4722 56.03 82.8893 57.5404 82.625 59.121L105.084 72.7954C105.079 73.0459 105.084 73.3086 105.098 73.5893C105.213 75.6682 106.009 78.6291 108.248 83.3964C111.018 84.2229 115.312 82.7013 117.891 81.2106C117.727 78.9449 119.048 76.0868 119.745 73.9491C128.085 74.3301 136.049 73.6693 144.674 72.6233Z" stroke="#120071" stroke-width="0.5" stroke-linecap="round" stroke-linejoin="round"/>
<path d="M108.261 83.3966L94.8679 97.7352C92.4489 100.319 90.6843 103.445 89.722 106.85L84.7148 124.351C86.0967 125.571 87.7537 126.439 89.544 126.879C91.3344 127.32 93.2047 127.32 94.9952 126.88L100.135 108.26C115.346 94.9457 112.74 97.2212 114.427 95.7657L122.721 108.399C123.209 109.139 123.851 109.766 124.603 110.234C125.356 110.703 126.201 111.003 127.08 111.114C127.96 111.225 128.853 111.143 129.698 110.875C130.543 110.608 131.32 110.159 131.975 109.562L147.647 95.2541C147.235 93.4773 146.41 91.8226 145.239 90.424C144.069 89.0255 142.585 87.9225 140.908 87.2044L128.766 98.4638C128.766 98.4638 126.673 84.6523 117.869 81.2108" stroke="#120071" stroke-width="0.5" stroke-linecap="round" stroke-linejoin="round"/>
<path d="M113.191 96.8363L112.105 92.2322L114.431 95.7667" stroke="#120071" stroke-width="0.5" stroke-linecap="round" stroke-linejoin="round"/>
<path d="M85.6908 125.095C85.0795 128.383 84.1448 131.602 82.9004 134.706C81.7198 137.371 80.7946 139.758 81.1332 140.163C82.3195 141.582 86.3549 135.453 89.3493 133.885C90.0626 133.531 90.7 133.041 91.2259 132.443C92.2776 131.201 91.6901 129.761 92.9148 127.172" stroke="#120071" stroke-width="0.5" stroke-linecap="round" stroke-linejoin="round"/>
<path d="M147.014 93.3481C149.581 91.1631 152.273 89.1292 155.075 87.2566C157.508 85.6435 159.57 84.1252 159.508 83.6136C159.289 81.7843 152.565 84.7485 149.216 84.4662C148.419 84.3831 147.615 84.4514 146.844 84.6677C145.294 85.1361 145.092 86.6055 142.658 88.1402" stroke="#120071" stroke-width="0.5" stroke-linecap="round" stroke-linejoin="round"/>
<path d="M82.2969 49.5105C82.2969 46.0837 84.9616 39.6952 86.0019 39.1714C86.0433 39.1526 86.0904 39.1508 86.1331 39.1664C86.1758 39.1819 86.2107 39.2136 86.2303 39.2546C86.2434 39.2815 86.2491 39.3117 86.2466 39.3419C85.8901 43.002 83.5158 49.2534 86.8251 51.8864" stroke="#120071" stroke-width="0.5" stroke-linecap="round" stroke-linejoin="round"/>
<path d="M83.0259 57.5561C81.8322 56.75 80.1482 55.3532 80.2045 53.9906C80.3603 50.2244 80.3367 48.4564 80.344 46.9682C80.3497 45.8675 81.2154 45.8357 81.8012 47.7433C82.3152 49.4167 82.8554 51.7738 82.8554 51.7738" stroke="#120071" stroke-width="0.5" stroke-linecap="round" stroke-linejoin="round"/>
<path d="M85.5215 43.6818C85.8478 43.1393 86.2011 42.5804 86.3431 42.3495C87.3793 40.6638 87.7954 41.0767 87.7073 41.3883C87.3622 42.6073 86.5291 44.4414 86.2501 45.5731C85.834 47.2383 85.1258 49.5628 86.4459 51.5406" stroke="#120071" stroke-width="0.5" stroke-linecap="round" stroke-linejoin="round"/>
<path d="M69.6944 98.8075C69.6944 98.8075 66.6095 99.4741 62.4395 99.9857" stroke="#120071" stroke-width="0.5" stroke-linecap="round" stroke-linejoin="round"/>
<path d="M41.2491 85.3966C41.6519 84.7252 42.1838 84.1403 42.814 83.6759V83.7379C47.8057 84.451 51.5572 84.42 55.4327 83.4115C55.3776 84.4568 55.2007 85.4921 54.9057 86.4964C59.6319 86.3882 64.3606 86.5175 69.0738 86.884C70.1822 86.9694 71.2587 87.2958 72.2278 87.8405C73.197 88.3852 74.0355 89.135 74.6847 90.0374C75.3341 90.9398 75.7787 91.9731 75.9876 93.0651C76.1964 94.1571 76.1644 95.2815 75.8939 96.3598C74.0985 103.954 71.8838 111.442 69.2598 118.791C65.7501 119.372 62.1508 118.59 59.1989 116.605C59.9704 111.011 61.0468 105.464 62.4234 99.9873C57.7426 100.558 50.7837 101.083 46.0238 99.7703C43.2032 98.9927 40.904 97.3691 39.9045 94.6081C38.7631 91.475 39.7911 87.6746 41.2491 85.3966Z" stroke="#120071" stroke-width="0.5" stroke-linecap="round" stroke-linejoin="round"/>
<path d="M54.9213 86.5126C54.1462 86.5282 53.3866 86.5594 52.627 86.5906" stroke="#120071" stroke-width="0.5" stroke-linecap="round" stroke-linejoin="round"/>
<path d="M50.5065 100.479L44.5178 111.873C43.6926 113.442 42.388 114.708 40.794 115.485C39.1999 116.262 37.3995 116.51 35.6547 116.193C34.4971 115.983 33.397 115.53 32.427 114.865L17.9668 104.959C19.2396 100.723 20.9783 97.9615 24.4434 95.8059L35.8864 103.132L39.917 94.6057" stroke="#120071" stroke-width="0.5" stroke-linecap="round" stroke-linejoin="round"/>
<path d="M43.2324 98.5721L49.1387 103.083" stroke="#120071" stroke-width="0.5" stroke-linecap="round" stroke-linejoin="round"/>
<path d="M48.3329 64.4074L46.4727 63.1362C47.0084 63.1962 47.5482 63.2117 48.0865 63.1827" stroke="#120071" stroke-width="0.5" stroke-linecap="round" stroke-linejoin="round"/>
<path d="M51.8049 64.795C51.5259 64.9655 51.2469 65.1214 50.9678 65.2911C50.6648 65.5292 50.2898 65.6573 49.9044 65.6545C49.519 65.6517 49.146 65.5181 48.8465 65.2756C48.3713 64.6799 48.105 63.9446 48.0885 63.1828C50.5819 63.0367 50.7345 61.3601 47.9164 56.3937C47.8868 56.5381 47.8194 56.6721 47.7212 56.7821C47.623 56.8921 47.4974 56.9741 47.3573 57.0197C47.2171 57.0654 47.0673 57.0731 46.9232 57.0421C46.779 57.0111 46.6457 56.9425 46.5367 56.8432C46.4809 56.9593 46.3997 57.0612 46.299 57.1414C46.1983 57.2216 46.0808 57.2779 45.9552 57.3063C45.8296 57.3346 45.6993 57.3342 45.5739 57.305C45.4485 57.2758 45.3314 57.2186 45.2312 57.1378C45.1927 57.2726 45.1208 57.3955 45.0222 57.4953C44.9236 57.595 44.8016 57.6683 44.6672 57.7085C44.5329 57.7486 44.3906 57.7543 44.2534 57.725C44.1163 57.6957 43.9888 57.6324 43.8825 57.5408C44.4096 58.4546 44.6266 59.4778 43.9136 58.7802C43.1074 57.9904 42.2393 59.1522 43.5113 60.0987C43.7494 60.3121 43.9244 60.5868 44.0173 60.8927C44.1103 61.1987 44.1175 61.5243 44.0384 61.8341C44.7738 62.9069 45.0678 64.2218 44.8592 65.5056C44.7197 66.1584 43.7895 66.6683 42.6562 66.3738C44.0082 68.8027 46.7904 71.0407 49.4959 70.0845C52.4732 69.036 51.8049 64.795 51.8049 64.795Z" stroke="#120071" stroke-width="0.5" stroke-linecap="round" stroke-linejoin="round"/>
<path d="M71.0664 52.0562C74.8954 49.1606 75.0464 43.0381 75.0464 38.6477C75.0464 38.5082 75.2471 38.3214 75.3556 38.4029C76.3241 39.0328 77.6124 45.5608 77.3023 48.9958" stroke="#120071" stroke-width="0.5" stroke-linecap="round" stroke-linejoin="round"/>
<path d="M75.4609 57.2616C76.5594 56.8193 77.4693 56.008 78.0343 54.9673C79.2146 52.3401 79.6279 49.4327 79.2263 46.5807C79.0158 45.3421 78.3729 45.449 77.8156 47.3248C77.3187 48.999 76.5445 51.2468 76.5445 51.2468" stroke="#120071" stroke-width="0.5" stroke-linecap="round" stroke-linejoin="round"/>
<path d="M71.002 52.0153C72.0692 50.7099 73.0735 48.3927 73.027 47.1697C72.9017 45.7985 72.6632 44.44 72.3139 43.1081C72.2438 42.7818 72.6509 42.3477 73.8331 44.5768" stroke="#120071" stroke-width="0.5" stroke-linecap="round" stroke-linejoin="round"/>
<path d="M56.5641 71.8949C56.5061 71.2076 56.4078 70.5244 56.2695 69.8486L57.4917 71.3931" stroke="#120071" stroke-width="0.5" stroke-linecap="round" stroke-linejoin="round"/>
<path d="M55.4478 83.4123H55.4633C56.1299 79.4748 56.8585 75.4907 56.564 71.8951C62.7542 68.6478 70.6219 62.3531 75.4928 58.068C76.0452 57.5156 74.1107 55.0696 73.5787 54.4421C73.0329 53.7984 70.8985 51.4282 70.1454 51.8051C64.4553 56.6968 58.3202 61.0457 51.8203 64.7951" stroke="#120071" stroke-width="0.5" stroke-linecap="round" stroke-linejoin="round"/>
<path d="M67.695 118.988C67.2955 120.57 66.9901 122.175 66.7804 123.794C64.3546 122.205 62.2334 120.194 60.5176 117.856C60.5796 117.721 60.6318 117.581 60.6726 117.438" stroke="#120071" stroke-width="0.5" stroke-linecap="round" stroke-linejoin="round"/>
<path d="M60.5018 123.774C60.0021 122.84 59.6272 121.844 59.3865 120.813C59.1227 121.436 58.9841 122.106 58.9785 122.782C59.1735 123.747 59.5132 124.678 59.9862 125.541C61.5829 128.517 63.1796 134.749 64.3267 134.672C64.4973 134.656 64.6833 134.331 64.8693 133.788C63.6487 132.365 62.083 126.676 60.5018 123.774Z" stroke="#120071" stroke-width="0.5" stroke-linecap="round" stroke-linejoin="round"/>
<path d="M60.5021 117.872C60.1463 118.895 59.6959 119.918 59.3867 120.816C59.6274 121.848 60.0024 122.843 60.5021 123.777C62.0678 126.676 63.6335 132.365 64.8736 133.792C65.5557 131.761 66.2843 126.661 66.7649 123.793C64.3453 122.203 62.2252 120.198 60.5021 117.872Z" stroke="#120071" stroke-width="0.5" stroke-linecap="round" stroke-linejoin="round"/>
<path d="M18.6325 102.99C17.2646 102.219 15.8513 101.53 14.4004 100.929C16.5729 99.0106 19.0722 97.4984 21.7794 96.464C22.1979 96.743 22.26 96.8515 22.663 97.0841" stroke="#120071" stroke-width="0.5" stroke-linecap="round" stroke-linejoin="round"/>
<path d="M17.4547 93.6891C16.4719 93.6155 15.4836 93.6942 14.5248 93.9224C11.2384 94.6812 4.7903 94.5572 4.57082 95.6888C4.53982 95.8594 4.80335 96.1229 5.26842 96.4485C6.95814 95.6268 12.8636 95.6268 16.1036 94.8982C17.134 94.6556 18.193 94.5567 19.2505 94.6045C18.72 94.181 18.1091 93.8695 17.4547 93.6891Z" stroke="#120071" stroke-width="0.5" stroke-linecap="round" stroke-linejoin="round"/>
<path d="M19.2381 94.5882C18.1806 94.5419 17.1217 94.641 16.0911 94.8828C12.8667 95.6269 6.96121 95.6269 5.27148 96.4485C7.03872 97.6576 11.766 99.7194 14.4014 100.929C16.5799 99.007 19.0841 97.4898 21.7959 96.4485C20.8813 95.8284 20.0132 95.1308 19.2381 94.5882Z" stroke="#120071" stroke-width="0.5" stroke-linecap="round" stroke-linejoin="round"/>
<path d="M9.39479 72.4064C8.69128 72.6399 7.98408 72.8621 7.27345 73.073C5.84644 73.5038 5.32019 73.2435 6.74638 72.2669C8.09482 71.3512 9.58272 70.6602 11.1522 70.2206" stroke="#120071" stroke-width="0.5" stroke-linecap="round" stroke-linejoin="round"/>
<path d="M12.5709 68.4224C12.1404 68.8427 11.7508 69.3031 11.4074 69.7972C10.7911 70.7205 10.3743 71.7623 10.1836 72.856" stroke="#120071" stroke-width="0.5" stroke-linecap="round" stroke-linejoin="round"/>
<path d="M8.85149 71.0734C3.68929 72.8871 3.04146 72.041 7.36329 70.0657C9.03079 69.3519 10.7668 68.8101 12.5443 68.4486" stroke="#120071" stroke-width="0.5" stroke-linecap="round" stroke-linejoin="round"/>
<path d="M18.9619 72.4366C16.8022 72.3159 12.194 73.1212 8.85204 74.2316C7.39484 74.7122 6.61566 74.3948 8.23196 73.1775C8.91291 72.6684 9.64263 72.2281 10.4104 71.863" stroke="#120071" stroke-width="0.5" stroke-linecap="round" stroke-linejoin="round"/>
<path d="M10.0143 69.0733C8.27888 69.4763 4.3234 69.6248 10.4794 67.6316C11.4405 67.3207 12.6007 67.0605 13.6883 66.8255C13.7497 66.4213 13.679 66.0081 13.4868 65.6473C12.834 64.554 13.0543 64.1102 14.1224 64.7637C15.4779 65.6862 17.0872 66.163 18.7265 66.1279" stroke="#120071" stroke-width="0.5" stroke-linecap="round" stroke-linejoin="round"/>
<path d="M13.6879 66.8243C13.6812 67.2336 13.7589 67.6399 13.9164 68.0177C14.0738 68.3955 14.3076 68.7368 14.6029 69.0201C14.8983 69.3035 15.249 69.5228 15.633 69.6645C16.0171 69.8061 16.4262 69.8669 16.8348 69.8432" stroke="#120071" stroke-width="0.5" stroke-linecap="round" stroke-linejoin="round"/>
<path d="M47.915 56.4092C47.884 57.0138 47.1089 57.2618 46.5353 56.8588C46.4766 56.9719 46.3939 57.0708 46.2929 57.1486C46.192 57.2264 46.0753 57.2813 45.951 57.3093C45.8267 57.3374 45.6977 57.338 45.5732 57.311C45.4486 57.2841 45.3315 57.2302 45.2299 57.1533C45.191 57.2879 45.1189 57.4106 45.0203 57.5101C44.9217 57.6096 44.7996 57.6828 44.6654 57.7228C44.5311 57.7628 44.3889 57.7685 44.2519 57.7393C44.1149 57.7101 43.9874 57.6469 43.8812 57.5555C44.3927 58.4702 44.6253 59.4941 43.9122 58.7957C43.1061 58.0059 42.2412 59.149 43.5091 60.1134C43.7475 60.3268 43.9227 60.6016 44.0156 60.9078C44.1086 61.2139 44.1157 61.5397 44.0362 61.8496C42.7503 59.6957 40.456 57.9904 39.9289 57.4634C38.7051 56.2395 39.5724 55.4636 40.611 55.9131C40.3663 55.2466 41.1536 54.6893 41.8814 55.2466C41.6799 54.5938 42.6573 54.0529 43.4936 54.735C43.3541 54.0219 44.5633 53.7273 45.2609 54.3474C45.1523 53.7118 46.2709 53.6637 46.7801 54.5025C47.188 55.1674 47.915 56.4092 47.915 56.4092Z" stroke="#120071" stroke-width="0.5" stroke-linecap="round" stroke-linejoin="round"/>
<path d="M41.6207 76.6689L42.754 75.2117C42.1967 75.104 41.6696 74.9947 41.1426 74.9025" stroke="#120071" stroke-width="0.5" stroke-linecap="round" stroke-linejoin="round"/>
<path d="M42.6603 66.3761C42.4587 66.2986 32.7063 63.7563 19.0049 65.0707C18.2618 67.8454 18.3469 70.7769 19.2497 73.5038C26.576 72.9082 33.95 73.379 41.1411 74.9015C42.0144 77.7568 42.5755 80.6985 42.8145 83.6748" stroke="#120071" stroke-width="0.5" stroke-linecap="round" stroke-linejoin="round"/>
<path d="M33.0646 48.6115C33.1009 49.0315 33.0119 49.4529 32.8087 49.8223C32.6056 50.1917 32.2976 50.4926 31.9235 50.687C31.5494 50.8814 31.1261 50.9605 30.7071 50.9143C30.288 50.8681 29.8921 50.6988 29.5693 50.4276C29.2465 50.1565 29.0113 49.7957 28.8935 49.3909C28.7757 48.9862 28.7806 48.5556 28.9074 48.1535C29.0343 47.7515 29.2775 47.3961 29.6063 47.1323C29.9351 46.8685 30.3348 46.7081 30.7548 46.6713C31.318 46.624 31.877 46.8015 32.3098 47.165C32.7426 47.5286 33.014 48.0486 33.0646 48.6115Z" stroke="#120071" stroke-width="0.5" stroke-linecap="round" stroke-linejoin="round"/>
<path d="M118.042 122.522H111.33" stroke="#120071" stroke-width="0.5" stroke-linecap="round" stroke-linejoin="round"/>
<path d="M114.688 125.885V119.158" stroke="#120071" stroke-width="0.5" stroke-linecap="round" stroke-linejoin="round"/>
<path d="M23.9069 64.7483C23.1481 67.5786 23.2901 70.5738 24.31 73.3209" stroke="#120071" stroke-width="0.5" stroke-linecap="round" stroke-linejoin="round"/>
<path d="M67.2324 54.2544C69.5625 55.8125 71.4593 57.9362 72.7455 60.4267" stroke="#120071" stroke-width="0.5" stroke-linecap="round" stroke-linejoin="round"/>
<path d="M144.938 64.3454C144.395 64.3764 143.434 64.4229 143.217 64.4384C143.62 63.1525 144.335 63.1362 144.938 64.3454Z" stroke="#120071" stroke-width="0.5" stroke-linecap="round" stroke-linejoin="round"/>
<path d="M145.433 71.7863C145.045 72.8404 144.41 72.8869 143.867 71.9103C144.317 71.8825 144.859 71.8328 145.433 71.7863Z" stroke="#120071" stroke-width="0.5" stroke-linecap="round" stroke-linejoin="round"/>
<path d="M115.609 82.326C121.888 86.7319 123.605 92.1707 126.243 101.826C126.336 102.163 126.513 102.471 126.758 102.72C127.003 102.969 127.307 103.151 127.642 103.25C127.978 103.347 128.332 103.358 128.673 103.28C129.013 103.202 129.328 103.039 129.588 102.805L144.335 89.4423" stroke="#120071" stroke-width="0.5" stroke-linecap="round" stroke-linejoin="round"/>
<path d="M91.2266 127.157L96.574 106.664L112.292 93.0071" stroke="#120071" stroke-width="0.5" stroke-linecap="round" stroke-linejoin="round"/>
<path d="M51.1397 85.8771C50.5462 86.8812 49.7457 87.7476 48.7915 88.4184C47.8373 89.0893 46.7512 89.5494 45.6055 89.7681" stroke="#120071" stroke-width="0.5" stroke-linecap="round" stroke-linejoin="round"/>
<path d="M60.0508 111.314C61.6199 112.446 63.4074 113.239 65.2997 113.642C67.192 114.046 69.1475 114.05 71.0418 113.657" stroke="#120071" stroke-width="0.5" stroke-linecap="round" stroke-linejoin="round"/>
<path d="M28.6145 98.481C25.5769 100.527 23.6375 103.845 22.4609 108.027" stroke="#120071" stroke-width="0.5" stroke-linecap="round" stroke-linejoin="round"/>
<path d="M133.249 94.3092L128.925 101.13C128.92 100.239 128.868 99.3492 128.77 98.4638" stroke="#120071" stroke-width="0.5" stroke-linecap="round" stroke-linejoin="round"/>
<path d="M71.0723 52.0564C73.2931 50.3822 73.8341 47.8953 73.9116 45.6328C73.7528 44.0505 73.4834 42.4812 73.1055 40.9365C73.0565 40.6264 73.493 40.2544 74.3767 42.0371L74.8882 43.15" stroke="#120071" stroke-width="0.5" stroke-linecap="round" stroke-linejoin="round"/>
<path d="M80.3742 23.6231C79.1317 23.6231 77.917 23.9915 76.8839 24.6818C75.8508 25.3722 75.0455 26.3533 74.57 27.5013C74.0945 28.6493 73.9701 29.9125 74.2125 31.1311C74.4549 32.3498 75.0533 33.4692 75.9319 34.3478C76.8105 35.2265 77.9299 35.8248 79.1486 36.0672C80.3673 36.3096 81.6304 36.1852 82.7784 35.7097C83.9264 35.2342 84.9076 34.429 85.5979 33.3958C86.2882 32.3627 86.6567 31.148 86.6567 29.9055C86.6588 28.6623 86.2914 27.4465 85.6013 26.4125C84.9111 25.3785 83.9292 24.5728 82.7803 24.0979C82.0173 23.7829 81.1997 23.6215 80.3742 23.6231Z" stroke="#120071" stroke-width="0.5" stroke-linejoin="round"/>
<path d="M79.7617 26.4933C79.7617 26.6556 79.8262 26.8112 79.9409 26.926C80.0557 27.0407 80.2113 27.1052 80.3736 27.1052C80.5359 27.1052 80.6916 27.0407 80.8063 26.926C80.9211 26.8112 80.9856 26.6556 80.9856 26.4933C80.9856 26.331 80.9211 26.1753 80.8063 26.0606C80.6916 25.9458 80.5359 25.8813 80.3736 25.8813C80.2113 25.8813 80.0557 25.9458 79.9409 26.0606C79.8262 26.1753 79.7617 26.331 79.7617 26.4933Z" stroke="#120071" stroke-width="0.5" stroke-linejoin="round"/>
<path d="M80.3672 28.7626V33.8114" stroke="#120071" stroke-width="0.5" stroke-linecap="round" stroke-linejoin="round"/>
</svg>
