<?xml version="1.0" standalone="no"?>
<!DOCTYPE svg PUBLIC "-//W3C//DTD SVG 1.1//EN" "http://www.w3.org/Graphics/SVG/1.1/DTD/svg11.dtd" >
<svg xmlns="http://www.w3.org/2000/svg" xmlns:xlink="http://www.w3.org/1999/xlink" version="1.1">
<metadata>
Created by FontForge 20201107 at Wed Sep 18 14:19:01 2024
 By 
Copyright 2022 The Be Vietnam Pro Project Authors (https://github.com/bettergui/BeVietnamPro)
</metadata>
<defs>
<font id="BeVietnamPro2022-ExtraBold" horiz-adv-x="1308" >
  <font-face 
    font-family="Be Vietnam Pro 2022 ExtraBold"
    font-weight="800"
    font-stretch="normal"
    units-per-em="2048"
    panose-1="0 0 0 0 0 0 0 0 0 0"
    ascent="1638"
    descent="-410"
    x-height="1085"
    cap-height="1516"
    bbox="-315 -602 2587 2435"
    underline-thickness="102"
    underline-position="-255"
    unicode-range="U+000D-2265"
  />
<missing-glyph horiz-adv-x="1300" 
d="M1067 2048v-2601h-825v2601h825zM434 -373h432v86h-266l182 121h84v86h-432v-86h182l-182 -121v-86zM434 -20h432v294h-432v-294zM434 430h432v295h-260v-147h88v61h86v-123h-260v209h-86v-295zM434 782h432v260h-86v-172h-346v-88zM434 930h260v182h172v86h-432v-86h172
v-96h-172v-86zM434 1268h432v88h-172v182h-260v-270zM434 1606h432v86h-172v96h172v86h-430v-86h170v-96h-172v-86zM520 66v122h260v-122h-260zM520 1356v94h86v-94h-86z" />
    <glyph glyph-name="f_f.liga" unicode="ff" horiz-adv-x="1492" 
d="M221 1157q0 88 23 162t70.5 133t128 92t186.5 33q56 0 102.5 -8.5t64.5 -16.5l19 -8v-248q-37 15 -96 15q-154 0 -154 -168v-58h344v72q0 88 23 162t70.5 133t128 92t186.5 33q56 0 102.5 -8.5t64.5 -16.5l19 -8v-248q-37 15 -96 15q-154 0 -154 -168v-58h254v-286h-254
v-799h-344v799h-344v-799h-344v799h-180v286h180v72z" />
    <glyph glyph-name="f_f_i.liga" unicode="ffi" horiz-adv-x="2033" 
d="M221 1157q0 88 23 162t70.5 133t128 92t186.5 33q56 0 102.5 -8.5t64.5 -16.5l19 -8v-248q-37 15 -96 15q-154 0 -154 -168v-58h344v72q0 88 23 162t70.5 133t128 92t186.5 33q56 0 102.5 -8.5t64.5 -16.5l19 -8v-248q-37 15 -96 15q-154 0 -154 -168v-58h717v-1085h-350
v799h-367v-799h-344v799h-344v-799h-344v799h-180v286h180v72zM1589 1389q0 84 58.5 140t148.5 56q89 0 148 -56t59 -140q0 -79 -59.5 -137t-147.5 -58q-89 0 -148 57.5t-59 137.5z" />
    <glyph glyph-name="f_i.liga" unicode="fi" horiz-adv-x="1355" 
d="M41 799v286h180v72q0 88 23 162t70.5 133t128 92t186.5 33q56 0 102.5 -8.5t64.5 -16.5l19 -8v-248q-37 15 -96 15q-154 0 -154 -168v-58h715v-1085h-350v799h-365v-799h-344v799h-180zM899 1389q0 84 58.5 140t148.5 56q89 0 148 -56t59 -140q0 -79 -59.5 -137
t-147.5 -58q-89 0 -148 57.5t-59 137.5z" />
    <glyph glyph-name="colon_b_e_colon.liga" unicode="&#x3a;be&#x3a;" horiz-adv-x="1798" 
d="M131 -10l74 547h469q68 0 123.5 14t93.5 38.5t63.5 57.5t36.5 73t10.5 83t-12.5 88q155 -32 257 -158t102 -289q0 -94 -35 -176.5t-100.5 -144.5t-165 -97.5t-220.5 -35.5h-696zM252 928l47 362h328q63 0 108 20t67.5 54t30 74.5t1.5 87.5q105 -29 165 -112t60 -197
q0 -61 -19 -111.5t-60 -91t-113 -63.5t-171 -23h-444z" />
    <glyph glyph-name="colon_d_d_colon.liga" unicode="&#x3a;dd&#x3a;" horiz-adv-x="1335" 
d="M524 285q-91 0 -164.5 35.5t-119 94.5t-69.5 132.5t-24 152.5q0 80 24 153.5t69.5 133.5t119 95.5t164.5 35.5q48 0 90 -11t68 -26t47 -32.5t29 -27.5t10 -15h14v170h-204v170h204v88h295v-88h129v-170h-129v-881h-295v102h-14q-4 -6 -10.5 -14.5t-28.5 -27t-47.5 -33
t-68 -26t-89.5 -11.5zM133 0v150h1069v-150h-1069zM446 700q0 -72 45.5 -126t126.5 -54t127 54t46 126q0 75 -46 131t-127 56t-126.5 -56t-45.5 -131z" />
    <glyph glyph-name="colon_s_t_a_r_colon.liga" unicode="&#x3a;star&#x3a;" horiz-adv-x="1701" 
d="M440 104l84 465l-340 320l459 67l205 420l205 -418l465 -67l-338 -316l84 -469l-408 228z" />
    <glyph glyph-name=".notdef" horiz-adv-x="1300" 
d="M1067 2048v-2601h-825v2601h825zM434 -373h432v86h-266l182 121h84v86h-432v-86h182l-182 -121v-86zM434 -20h432v294h-432v-294zM434 430h432v295h-260v-147h88v61h86v-123h-260v209h-86v-295zM434 782h432v260h-86v-172h-346v-88zM434 930h260v182h172v86h-432v-86h172
v-96h-172v-86zM434 1268h432v88h-172v182h-260v-270zM434 1606h432v86h-172v96h172v86h-430v-86h170v-96h-172v-86zM520 66v122h260v-122h-260zM520 1356v94h86v-94h-86z" />
    <glyph glyph-name=".null" horiz-adv-x="0" 
 />
    <glyph glyph-name="nonmarkingreturn" horiz-adv-x="682" 
 />
    <glyph glyph-name="CR" unicode="&#xd;" horiz-adv-x="1228" 
 />
    <glyph glyph-name="space" unicode=" " horiz-adv-x="454" 
 />
    <glyph glyph-name="exclam" unicode="!" horiz-adv-x="614" 
d="M164 492l-66 1024h420l-72 -1024h-282zM88 180q0 85 62 143t157 58t157 -58t62 -143q0 -84 -62.5 -143.5t-156.5 -59.5t-156.5 60t-62.5 143z" />
    <glyph glyph-name="quotedbl" unicode="&#x22;" horiz-adv-x="911" 
d="M45 967l21 549h337l-112 -549h-246zM483 967l21 549h338l-113 -549h-246z" />
    <glyph glyph-name="numbersign" unicode="#" horiz-adv-x="1716" 
d="M283 0l73 346h-245l57 266h244l63 293h-246l58 266h243l74 345h283l-74 -345h264l74 345h283l-74 -345h246l-58 -266h-243l-64 -293h246l-57 -266h-244l-74 -346h-283l74 346h-264l-74 -346h-282zM694 612h264l64 293h-264z" />
    <glyph glyph-name="dollar" unicode="$" horiz-adv-x="1349" 
d="M604 -195v179q-88 7 -162.5 27.5t-127 50t-95 65.5t-68.5 74.5t-45.5 76t-28.5 71t-14 59t-5 40.5l-1 15h346q0 -7 2 -18.5t14.5 -43.5t31.5 -58t59.5 -53.5t93.5 -39.5v385l-43 8q-228 38 -344.5 145.5t-116.5 276.5q0 191 136.5 319t367.5 148v174h193v-176
q93 -12 169 -42.5t123.5 -70.5t83.5 -86t53.5 -89t27.5 -78.5t12 -57.5l2 -21h-320q0 5 -2 14t-11.5 34t-24 46.5t-44.5 45.5t-69 37v-359l45 -8q220 -38 335 -149t115 -279q0 -190 -134 -322.5t-361 -158.5v-181h-193zM442 1096q0 -61 38 -99t124 -59v334
q-77 -17 -119.5 -65.5t-42.5 -110.5zM797 252q72 21 111.5 69t39.5 109q0 131 -151 170v-348z" />
    <glyph glyph-name="percent" unicode="%" horiz-adv-x="1812" 
d="M272 0l1014 1516h256l-1014 -1516h-256zM61 1151q0 76 24 143.5t70 122.5t121 87t170 32q96 0 171 -32t121 -87t69.5 -122.5t23.5 -143.5t-23.5 -144t-69.5 -123t-121 -87.5t-171 -32.5q-95 0 -170.5 32.5t-121.5 88t-69.5 123.5t-23.5 143zM311 1149q0 -86 34 -137
t99 -51q67 0 103.5 52t36.5 136q0 87 -37 139.5t-103 52.5q-65 0 -99 -52t-34 -140zM981 365q0 76 23.5 144t69.5 123t121 87.5t171 32.5t171 -32.5t121 -87.5t69.5 -123t23.5 -144t-24 -143.5t-70 -122.5t-121 -87t-170 -32t-170.5 32.5t-121.5 88t-69.5 123t-23.5 141.5z
M1229 365q0 -85 35 -138t102 -53q66 0 101.5 52.5t35.5 138.5t-35.5 138t-101.5 52q-67 0 -102 -52t-35 -138z" />
    <glyph glyph-name="ampersand" unicode="&#x26;" horiz-adv-x="1601" 
d="M629 -14q-163 0 -295.5 54t-209.5 154t-77 226q0 74 22 134.5t67.5 109t99.5 86t133 79.5q-174 180 -174 332q0 119 65 207t171 131t237 43q123 0 223.5 -40t163.5 -123t63 -195q0 -70 -27 -132.5t-77 -112.5t-97.5 -85t-111.5 -72l246 -252q48 93 57 267h334
q-16 -306 -166 -500l289 -297h-439l-92 100q-168 -114 -405 -114zM426 440q0 -65 63 -121.5t177 -56.5q106 0 182 43l-301 330q-62 -40 -91.5 -85t-29.5 -110zM524 1157q0 -19 4 -37.5t12.5 -36t16 -31t20.5 -29.5t19 -23t19 -20.5t14 -14.5l2 -2q79 45 122.5 93t43.5 109
q0 56 -38.5 91.5t-99.5 35.5q-60 0 -97.5 -37.5t-37.5 -97.5z" />
    <glyph glyph-name="quotesingle" unicode="'" horiz-adv-x="440" 
d="M45 967l21 549h337l-112 -549h-246z" />
    <glyph glyph-name="parenleft" unicode="(" horiz-adv-x="862" 
d="M494 -483q-84 89 -158 201.5t-139 254t-103.5 315.5t-38.5 355t38.5 355t104 315.5t139 252.5t157.5 201h313q-52 -67 -100 -141t-102.5 -184.5t-93.5 -226.5t-65 -267t-26 -305q0 -155 26 -306t65 -267.5t93.5 -227t102.5 -184.5t100 -141h-313z" />
    <glyph glyph-name="parenright" unicode=")" horiz-adv-x="862" 
d="M55 -483q52 67 100 141t102.5 184.5t93.5 227t65 267.5t26 306q0 154 -26 305t-65 267t-93.5 226.5t-102.5 184.5t-100 141h314q84 -90 157.5 -201t139 -252.5t103.5 -315.5t38 -355t-38 -355t-103.5 -315.5t-139 -254t-157.5 -201.5h-314z" />
    <glyph glyph-name="asterisk" unicode="*" horiz-adv-x="1062" 
d="M375 659l-197 144l166 221l-262 78l74 231l260 -94l-6 277h241l-6 -277l260 94l76 -231l-264 -78l166 -221l-197 -144l-156 228z" />
    <glyph glyph-name="plus" unicode="+" horiz-adv-x="1120" 
d="M424 201v313h-313v274h313v312h272v-312h314v-274h-314v-313h-272z" />
    <glyph glyph-name="comma" unicode="," horiz-adv-x="622" 
d="M88 -297l162 287q-72 19 -117 78t-45 137q0 92 62 154.5t159 62.5q96 0 161 -59t65 -146q0 -23 -3 -43.5t-12 -46.5t-16.5 -44.5t-26.5 -54.5t-30.5 -57t-40.5 -72t-46 -81l-67 -115h-205z" />
    <glyph glyph-name="hyphen" unicode="-" horiz-adv-x="989" 
d="M111 514v274h768v-274h-768z" />
    <glyph glyph-name="period" unicode="." horiz-adv-x="618" 
d="M309 -20q-95 0 -158 65t-63 156q0 93 62.5 157t158.5 64q95 0 158 -64t63 -157q0 -92 -63.5 -156.5t-157.5 -64.5z" />
    <glyph glyph-name="slash" unicode="/" horiz-adv-x="1142" 
d="M20 -403l863 2250h239l-862 -2250h-240z" />
    <glyph glyph-name="zero" unicode="0" horiz-adv-x="1466" 
d="M733 -20q-211 0 -363.5 99t-229.5 273.5t-77 405.5t77 405.5t229.5 273.5t363.5 99t363.5 -99t229.5 -273.5t77 -405.5t-77 -405.5t-229.5 -273.5t-363.5 -99zM446 758q0 -231 78 -352t209 -121t209 121t78 352q0 232 -78 352.5t-209 120.5t-209 -120.5t-78 -352.5z" />
    <glyph glyph-name="one" unicode="1" horiz-adv-x="866" 
d="M418 0v1096l-350 -256v374l434 302h270v-1516h-354z" />
    <glyph glyph-name="two" unicode="2" horiz-adv-x="1306" 
d="M72 92q0 84 23 157.5t57 127t95.5 110.5t115 95.5t139.5 93.5q23 15 69.5 44.5t66.5 42.5t57 38t53 39t42 37t37 41t24.5 41.5t18 47t4.5 50.5q0 89 -66.5 141.5t-160.5 52.5q-101 0 -170 -64.5t-69 -187.5h-334q-2 107 30 196.5t87.5 151.5t130.5 105.5t159 63.5t174 20
q111 0 214 -31.5t185 -89t131.5 -148t49.5 -200.5q0 -49 -9.5 -95.5t-22.5 -83.5t-40 -76t-48 -66t-61 -60.5t-64 -53t-73 -50.5t-72.5 -44.5t-77.5 -44.5t-73 -42q-150 -88 -192 -154h741v-297h-1171v92z" />
    <glyph glyph-name="three" unicode="3" horiz-adv-x="1349" 
d="M682 -20q-118 0 -215.5 23.5t-161 60t-112 85.5t-74.5 94.5t-41.5 93t-20 75.5t-4.5 47h357q0 -15 6 -36.5t24.5 -51t46 -53.5t76 -41t109.5 -17q111 0 177 57t66 142q0 79 -64.5 133.5t-182.5 54.5h-142v242h146q104 0 162.5 52.5t58.5 127.5q0 80 -61.5 137.5
t-159.5 57.5q-57 0 -101.5 -18t-69.5 -43t-41 -55.5t-21 -53t-5 -37.5h-340q0 19 3.5 46.5t18 75.5t38 93.5t68.5 94.5t103.5 85.5t149.5 60t201 23.5q160 0 293.5 -49.5t217 -149t83.5 -229.5t-78.5 -214t-198.5 -120q142 -37 227 -124t85 -220q0 -105 -48.5 -191
t-133 -142t-198 -86.5t-243.5 -30.5z" />
    <glyph glyph-name="four" unicode="4" horiz-adv-x="1443" 
d="M782 0v332l-723 2v272l547 910h531v-904h241v-280h-241v-332h-355zM403 612h379v629z" />
    <glyph glyph-name="five" unicode="5" horiz-adv-x="1335" 
d="M664 -20q-152 0 -270 40.5t-187.5 108.5t-106.5 146t-45 165h361q1 -8 3.5 -20.5t17.5 -44.5t39 -56.5t73 -44.5t113 -20q118 0 183.5 76t65.5 178q0 105 -65.5 180.5t-183.5 75.5q-53 0 -96.5 -14.5t-67.5 -36t-40.5 -42.5t-21.5 -35l-6 -15h-340l96 895h983v-308h-712
l-35 -307q99 117 319 117q130 0 235 -42t170 -113t99.5 -159.5t34.5 -185.5q0 -81 -23.5 -158t-73 -146t-120.5 -121t-174 -82.5t-225 -30.5z" />
    <glyph glyph-name="six" unicode="6" horiz-adv-x="1288" 
d="M647 -20q-269 0 -436.5 149t-167.5 381q0 142 62.5 269t226.5 333l319 404h410l-445 -533q45 10 91 10q129 0 233.5 -41.5t169.5 -111t100 -156t35 -180.5q0 -79 -23.5 -154.5t-72.5 -142.5t-118.5 -117.5t-168.5 -80t-215 -29.5zM403 500q0 -99 63.5 -171.5t176.5 -72.5
q112 0 174 72.5t62 171.5q0 100 -62 172.5t-174 72.5q-113 0 -176.5 -72.5t-63.5 -172.5z" />
    <glyph glyph-name="seven" unicode="7" horiz-adv-x="1187" 
d="M115 0l647 1208h-723v308h1112v-273l-637 -1243h-399z" />
    <glyph glyph-name="eight" unicode="8" horiz-adv-x="1323" 
d="M662 -20q-144 0 -260 35t-191.5 95.5t-115.5 141t-40 172.5q0 127 81 229t214 148q-108 36 -182 125.5t-74 195.5q0 62 20.5 120.5t66 112t110.5 93.5t160.5 64t210.5 24q142 0 254.5 -36t179 -96t101 -132t34.5 -150q0 -104 -74.5 -194.5t-185.5 -126.5
q133 -47 215 -148t82 -229q0 -191 -161 -317.5t-445 -126.5zM424 453q0 -80 63.5 -139.5t174.5 -59.5t175 60t64 139q0 80 -64 139t-175 59t-174.5 -59.5t-63.5 -138.5zM446 1090q0 -73 58.5 -128t157.5 -55t158 55t59 128q0 74 -59 128t-158 54t-157.5 -55t-58.5 -127z" />
    <glyph glyph-name="nine" unicode="9" horiz-adv-x="1288" 
d="M641 1536q269 0 436.5 -149t167.5 -381q0 -142 -62.5 -269.5t-226.5 -333.5l-319 -403h-410l445 532q-45 -10 -90 -10q-129 0 -233.5 41.5t-170 111.5t-100.5 156.5t-35 180.5q0 79 23.5 154.5t72.5 142.5t118.5 117.5t168.5 80t215 29.5zM410 1016q0 -100 61.5 -173
t173.5 -73q113 0 176.5 73t63.5 173q0 99 -63.5 171.5t-176.5 72.5q-112 0 -173.5 -72.5t-61.5 -171.5z" />
    <glyph glyph-name="colon" unicode=":" horiz-adv-x="620" 
d="M309 664q-95 0 -158 65t-63 156q0 93 62.5 157t158.5 64q95 0 158 -64t63 -157q0 -92 -63.5 -156.5t-157.5 -64.5zM88 201q0 93 62.5 157t158.5 64q95 0 158 -64t63 -157q0 -92 -63.5 -156.5t-157.5 -64.5q-95 0 -158 65t-63 156z" />
    <glyph glyph-name="semicolon" unicode=";" horiz-adv-x="626" 
d="M313 664q-95 0 -158 65t-63 156q0 93 62.5 157t158.5 64q95 0 158.5 -64t63.5 -157q0 -92 -64 -156.5t-158 -64.5zM88 -297l162 287q-72 19 -117 78t-45 137q0 92 62 154.5t159 62.5q96 0 161 -59t65 -146q0 -23 -3 -43.5t-12 -46.5t-16.5 -44.5t-26.5 -54.5t-30.5 -57
t-40.5 -72t-46 -81l-67 -115h-205z" />
    <glyph glyph-name="less" unicode="&#x3c;" horiz-adv-x="1136" 
d="M989 209l-842 387v203l842 385v-285l-457 -201l457 -204v-285z" />
    <glyph glyph-name="equal" unicode="=" horiz-adv-x="1306" 
d="M111 723v285h1085v-285h-1085zM111 254v285h1085v-285h-1085z" />
    <glyph glyph-name="greater" unicode="&#x3e;" horiz-adv-x="1136" 
d="M147 209v285l457 204l-457 201v285l842 -385v-203z" />
    <glyph glyph-name="question" unicode="?" horiz-adv-x="1247" 
d="M463 512q0 59 9 100.5t33.5 80t52 67t81.5 76.5q6 5 31.5 27.5t33 29.5t28 27t28 30t21.5 29t19.5 33.5t10 34t4.5 38.5q0 75 -51.5 120.5t-130.5 45.5q-86 0 -149.5 -66t-67.5 -192h-330q4 136 52 241t127.5 168t175 94.5t202.5 31.5q102 0 195.5 -29t167.5 -82.5
t118.5 -137.5t44.5 -185q0 -60 -17.5 -114t-40.5 -91.5t-63 -76.5t-69 -61.5t-73 -54.5q-11 -8 -17 -12q-83 -61 -108 -95t-25 -100v-14h-293v37zM397 180q0 85 62 143t157 58q94 0 157 -58t63 -143q0 -84 -63.5 -143.5t-156.5 -59.5q-94 0 -156.5 60t-62.5 143z" />
    <glyph glyph-name="at" unicode="@" horiz-adv-x="1972" 
d="M1004 -362q-186 0 -343.5 52.5t-267.5 142t-187.5 209.5t-114 255t-36.5 278q0 147 38 287t117.5 264.5t191.5 218t270 148.5t342 55q185 0 338.5 -48t256 -127.5t173.5 -185.5t103 -220t32 -234q0 -97 -21 -188.5t-62.5 -169t-98.5 -136t-134.5 -91.5t-164.5 -33
q-71 0 -129 16t-91 38.5t-55.5 45.5t-30.5 39l-8 16q-3 -6 -9 -17t-29 -38t-51 -47.5t-76.5 -37.5t-104.5 -17q-117 0 -200.5 59.5t-121.5 153t-38 209.5q0 101 29 194t83 166.5t138.5 117.5t187.5 44q60 0 109 -15t76.5 -37t46 -44t24.5 -37l6 -15l29 131h299l-115 -528
q-2 -13 -7.5 -40.5t-8.5 -50.5t-3 -42q0 -111 93 -111q73 0 135.5 66.5t98.5 176t36 234.5q0 79 -17 155.5t-52 151t-94 137t-137.5 110.5t-189 75t-241.5 27q-154 0 -285.5 -46t-224 -124.5t-158 -183t-96.5 -222.5t-31 -243q0 -122 30 -237t93.5 -217.5t153.5 -179
t218 -121t279 -44.5q90 0 177 16.5t146.5 40t106 47t69.5 39.5l22 17l55 -138q-8 -7 -23 -18t-68.5 -40t-114.5 -51t-159 -40t-204 -18zM782 543q0 -98 40.5 -162t119.5 -64q91 0 147 95.5t56 214.5q0 99 -39.5 162t-118.5 63q-62 0 -110 -46.5t-71.5 -116t-23.5 -146.5z
" />
    <glyph glyph-name="A" unicode="A" horiz-adv-x="1568" 
d="M43 0l483 1516h516l484 -1516h-406l-94 317h-520l-94 -317h-369zM592 610h348l-174 592z" />
    <glyph glyph-name="B" unicode="B" horiz-adv-x="1390" 
d="M86 0v1516h688q119 0 215.5 -32.5t157 -88.5t93 -128t32.5 -153q0 -116 -64 -203.5t-174 -126.5q136 -38 212.5 -136t76.5 -226q0 -81 -31.5 -155.5t-92 -134.5t-159 -96t-221.5 -36h-733zM471 289h252q107 0 158 50t51 124q0 71 -51 121.5t-158 50.5h-252v-346zM471 911
h240q90 0 135 46.5t45 111.5q0 66 -45 112t-135 46h-240v-316z" />
    <glyph glyph-name="C" unicode="C" horiz-adv-x="1607" 
d="M844 -20q-160 0 -292.5 44t-223.5 118.5t-154 175t-92 212t-29 230.5q0 118 29 228.5t92 210.5t154 174.5t223.5 118.5t292.5 44q137 0 250.5 -32t185 -83t126 -112.5t81.5 -123t43.5 -112.5t19.5 -83l4 -32h-370q-1 6 -3 16t-11.5 38.5t-23.5 54.5t-40.5 57.5t-60 54.5
t-85 38.5t-112.5 15.5q-127 0 -218.5 -65t-135 -170t-43.5 -238t43.5 -238.5t135 -171t218.5 -65.5q61 0 112.5 15t85 39t60 53t40.5 58t23.5 53t12.5 39l2 15h370q-1 -7 -2.5 -20t-10 -52.5t-22 -77.5t-40.5 -90t-62 -96.5t-90.5 -90.5t-122 -78t-159.5 -52t-201 -20z" />
    <glyph glyph-name="D" unicode="D" horiz-adv-x="1533" 
d="M86 0v1516h582q167 0 304.5 -42.5t230.5 -115t157 -170.5t92.5 -205.5t28.5 -224.5t-28.5 -224.5t-92.5 -205.5t-157 -170.5t-230.5 -115t-304.5 -42.5h-582zM471 301h174q96 0 173 26t127 69t83.5 102.5t47.5 124t14 135.5q0 90 -23.5 168.5t-73.5 144.5t-139 104.5
t-209 38.5h-174v-913z" />
    <glyph glyph-name="E" unicode="E" horiz-adv-x="1249" 
d="M86 0v1516h1098v-314h-713v-284h600v-308h-600v-297h715v-313h-1100z" />
    <glyph glyph-name="F" unicode="F" horiz-adv-x="1232" 
d="M86 0v1516h1083v-314h-698v-321h582v-308h-582v-573h-385z" />
    <glyph glyph-name="G" unicode="G" horiz-adv-x="1624" 
d="M852 -20q-162 0 -296.5 44t-226 118.5t-155 175t-92.5 212t-29 230.5q0 118 29 228.5t92 210.5t154.5 174.5t225 118.5t294.5 44q105 0 196 -17.5t156 -47.5t119 -68.5t89 -81t61.5 -85t40 -81t22 -68.5t10.5 -47l2 -18h-375q-1 9 -4.5 24t-24 54t-51.5 68.5t-93.5 54
t-143.5 24.5q-129 0 -221 -66t-136 -173.5t-44 -243.5q0 -138 44 -245.5t138 -173.5t227 -66q143 0 236 75t121 211h-375v269h729v-91q0 -151 -36 -276.5t-100.5 -214.5t-154 -151t-197.5 -91.5t-231 -29.5z" />
    <glyph glyph-name="H" unicode="H" horiz-adv-x="1497" 
d="M86 0v1516h385v-588h555v588h385v-1516h-385v606h-555v-606h-385z" />
    <glyph glyph-name="I" unicode="I" horiz-adv-x="557" 
d="M86 0v1516h385v-1516h-385z" />
    <glyph glyph-name="J" unicode="J" horiz-adv-x="1284" 
d="M623 -20q-122 0 -219 27.5t-154.5 72t-99 97.5t-59 106.5t-26.5 98t-9 72.5l1 27h363q2 -1 0 -12t2.5 -30t9 -41t20 -45t35 -41.5t54 -30t77.5 -11.5q199 0 199 287v959h381v-959q0 -123 -32.5 -222t-87 -164t-129.5 -109t-156 -63t-170 -19z" />
    <glyph glyph-name="K" unicode="K" horiz-adv-x="1484" 
d="M975 0l-504 688v-688h-385v1516h385v-658l500 658h438l-584 -723l605 -793h-455z" />
    <glyph glyph-name="L" unicode="L" horiz-adv-x="1232" 
d="M86 0v1516h385v-1203h698v-313h-1083z" />
    <glyph glyph-name="M" unicode="M" horiz-adv-x="1812" 
d="M86 0v1516h561l271 -721l284 721h524v-1516h-362v1085l-338 -835h-240l-337 840v-1090h-363z" />
    <glyph glyph-name="N" unicode="N" horiz-adv-x="1515" 
d="M86 0v1516h414l555 -945v945h375v-1516h-418l-553 944v-944h-373z" />
    <glyph glyph-name="O" unicode="O" horiz-adv-x="1685" 
d="M844 -20q-153 0 -283 41.5t-222.5 114.5t-157.5 171.5t-96.5 213t-31.5 239.5q0 124 31.5 237.5t96.5 212t157.5 171t222.5 114t283 41.5t282.5 -41.5t221.5 -114t157 -171t96 -212t31 -237.5q0 -125 -31 -239.5t-96 -213t-157 -171.5t-221.5 -114.5t-282.5 -41.5z
M453 760q0 -204 104 -335.5t287 -131.5q182 0 286.5 132t104.5 335q0 131 -45 235t-135 167t-211 63q-122 0 -212 -63t-134.5 -167t-44.5 -235z" />
    <glyph glyph-name="P" unicode="P" horiz-adv-x="1341" 
d="M94 0v1516h627q119 0 216 -28t161 -75t108 -111.5t63 -135.5t19 -148q0 -79 -19 -150t-62.5 -135.5t-108 -111.5t-161.5 -75t-216 -28h-242v-518h-385zM479 791h205q118 0 178 63t60 154t-60 153t-178 62h-205v-432z" />
    <glyph glyph-name="Q" unicode="Q" horiz-adv-x="1734" 
d="M1343 -78l-120 137q-164 -79 -379 -79q-153 0 -283 41.5t-222.5 114.5t-157.5 171.5t-96.5 213t-31.5 239.5q0 124 31.5 237.5t96.5 212t157.5 171t222.5 114t283 41.5t282.5 -41.5t221.5 -114t157 -171t96 -212t31 -237.5q0 -150 -46.5 -286.5t-135.5 -240.5l272 -311
h-379zM453 760q0 -204 104 -335.5t287 -131.5q66 0 131 20l-195 219l228 187l178 -205q49 107 49 246q0 131 -45 235t-135 167t-211 63q-122 0 -212 -63t-134.5 -167t-44.5 -235z" />
    <glyph glyph-name="R" unicode="R" horiz-adv-x="1433" 
d="M86 0v1516h627q120 0 217.5 -27t161.5 -72.5t107 -107.5t62 -129.5t19 -141.5q0 -90 -27 -168.5t-91 -147.5t-161 -108l385 -614h-434l-311 561h-170v-561h-385zM471 827h205q60 0 104 17.5t67 48t33.5 64t10.5 71.5q0 37 -10.5 70.5t-33.5 64t-67 48.5t-104 18h-205
v-402z" />
    <glyph glyph-name="S" unicode="S" horiz-adv-x="1409" 
d="M731 -20q-140 0 -253 29t-181.5 75.5t-118.5 103t-72 113t-34.5 103t-13.5 75.5l-1 29h379q0 -5 0.5 -14t6 -35t15.5 -49t32 -52t52 -49.5t80 -34.5t111 -14q110 0 171 51.5t61 124.5q0 117 -166 146l-228 45q-238 45 -354.5 150.5t-116.5 283.5q0 204 160.5 339.5
t439.5 135.5q101 0 187 -16.5t146 -45t109 -65t78.5 -77t51.5 -80.5t32 -76.5t16 -65t6 -44.5l1 -17h-354q0 9 -2 23t-17 50.5t-40.5 64t-81 50.5t-130.5 23q-101 0 -161 -49t-60 -117q0 -56 40.5 -92t135.5 -54l238 -45q223 -41 340 -151.5t117 -280.5q0 -100 -42 -188.5
t-119 -156t-196 -107t-264 -39.5z" />
    <glyph glyph-name="T" unicode="T" horiz-adv-x="1314" 
d="M465 0v1192h-416v324h1217v-324h-416v-1192h-385z" />
    <glyph glyph-name="U" unicode="U" horiz-adv-x="1478" 
d="M739 -20q-105 0 -198 20t-177.5 65.5t-145 114t-96.5 172.5t-36 234v930h381v-930q0 -131 68 -213t204 -82t204.5 82t68.5 213v930h381v-930q0 -130 -36 -234t-96.5 -172.5t-145.5 -114t-178 -65.5t-198 -20z" />
    <glyph glyph-name="V" unicode="V" horiz-adv-x="1529" 
d="M539 0l-510 1516h413l340 -1125l342 1125h377l-510 -1516h-452z" />
    <glyph glyph-name="W" unicode="W" horiz-adv-x="2117" 
d="M410 0l-381 1516h385l231 -1053l252 1053h332l252 -1049l231 1049h377l-381 -1516h-434l-221 940l-224 -940h-419z" />
    <glyph glyph-name="X" unicode="X" horiz-adv-x="1609" 
d="M96 0l461 758l-459 758h422l283 -498l287 498h421l-467 -758l469 -758h-423l-287 498l-283 -498h-424z" />
    <glyph glyph-name="Y" unicode="Y" horiz-adv-x="1474" 
d="M545 0v555l-518 961h422l307 -619l305 619h387l-518 -961v-555h-385z" />
    <glyph glyph-name="Z" unicode="Z" horiz-adv-x="1390" 
d="M82 0v285l727 905h-727v326h1221v-285l-728 -903h732v-328h-1225z" />
    <glyph glyph-name="bracketleft" unicode="[" horiz-adv-x="845" 
d="M90 -453v2214h666v-245h-307v-1723h307v-246h-666z" />
    <glyph glyph-name="backslash" unicode="\" horiz-adv-x="1150" 
d="M887 -403l-862 2250h239l862 -2250h-239z" />
    <glyph glyph-name="bracketright" unicode="]" horiz-adv-x="845" 
d="M756 -453h-666v246h307v1723h-307v245h666v-2214z" />
    <glyph glyph-name="asciicircum" unicode="^" horiz-adv-x="1036" 
d="M111 1137l270 379h274l271 -379h-267l-141 211l-141 -211h-266z" />
    <glyph glyph-name="underscore" unicode="_" horiz-adv-x="1280" 
d="M111 -193v195h1056v-195h-1056z" />
    <glyph glyph-name="grave" unicode="`" horiz-adv-x="555" 
d="M260 1214l-229 318h375l104 -315z" />
    <glyph glyph-name="a" unicode="a" horiz-adv-x="1155" 
d="M428 -20q-163 0 -267 84t-104 229q0 310 469 371l215 28v19q0 77 -38 121.5t-119 44.5q-45 0 -79 -14.5t-50.5 -35.5t-26 -42t-10.5 -35l-2 -15h-310q0 8 0.5 21t9 52t24 74t51.5 77.5t85.5 73.5t131.5 52t184 21q108 0 193 -22t138.5 -59t88.5 -88.5t49 -105.5t14 -116
v-715h-334v129q-1 -1 -19.5 -22t-30 -32.5t-40 -32t-56.5 -32t-72.5 -21t-94.5 -9.5zM383 317q0 -55 44 -85.5t112 -30.5q92 0 147 56.5t55 162.5v69l-116 -18q-242 -36 -242 -154z" />
    <glyph glyph-name="b" unicode="b" horiz-adv-x="1329" 
d="M766 -20q-226 0 -330 151v-131h-350v1556h350v-602q105 152 330 152q120 0 215.5 -46t154.5 -124.5t90 -179t31 -213.5t-31 -213.5t-90 -179t-154.5 -124.5t-215.5 -46zM426 543q0 -135 63.5 -224.5t176.5 -89.5q112 0 174.5 89.5t62.5 224.5t-62 224t-175 89t-176.5 -89
t-63.5 -224z" />
    <glyph glyph-name="c" unicode="c" horiz-adv-x="1249" 
d="M649 -20q-113 0 -208.5 30.5t-162.5 83.5t-114 125t-69.5 154t-22.5 170t22.5 170t69.5 154t114 125t162.5 83.5t208.5 30.5q81 0 151 -14.5t120 -39t91 -56t67 -66.5t46 -70t29.5 -66.5t15.5 -56t7 -39.5l2 -14h-322q-1 7 -3.5 18t-15.5 40t-32.5 51.5t-58.5 40.5
t-89 18q-111 0 -173 -85t-62 -224t62 -224.5t173 -85.5q50 0 89 17.5t58.5 42t32.5 49t16 42.5l3 17h322q-1 -9 -2.5 -24t-14 -59t-32 -83.5t-60 -88t-94 -83.5t-138.5 -59t-188 -24z" />
    <glyph glyph-name="d" unicode="d" horiz-adv-x="1329" 
d="M563 -20q-120 0 -215.5 46t-154.5 124.5t-90 179t-31 213.5t31 213.5t90 179t154.5 124.5t215.5 46q225 0 330 -152v602h350v-1556h-350v131q-104 -151 -330 -151zM426 543q0 -135 62.5 -224.5t175.5 -89.5t176 89.5t63 224.5t-63 224t-176 89t-175.5 -89t-62.5 -224z
" />
    <glyph glyph-name="e" unicode="e" horiz-adv-x="1247" 
d="M844 653q-4 99 -61 154t-146 55q-90 0 -148.5 -57t-64.5 -152h420zM72 545q0 109 34.5 207.5t101.5 178.5t177 127.5t248 47.5q189 0 317.5 -85.5t183 -231.5t37.5 -336h-745q9 -108 67.5 -172t163.5 -64q47 0 84.5 12.5t57.5 30.5t33.5 36.5t17.5 31.5l4 12h309
q-1 -8 -3.5 -20.5t-16.5 -50t-34.5 -71.5t-60.5 -75.5t-91.5 -71.5t-131.5 -50.5t-176 -20.5q-113 0 -209 31t-163 84t-113.5 125t-69 154t-22.5 171z" />
    <glyph glyph-name="f" unicode="f" horiz-adv-x="851" 
d="M221 1157q0 88 23 162t70.5 133t128 92t186.5 33q56 0 102.5 -8.5t64.5 -16.5l19 -8v-248q-37 15 -96 15q-154 0 -154 -168v-58h254v-286h-254v-799h-344v799h-180v286h180v72z" />
    <glyph glyph-name="g" unicode="g" horiz-adv-x="1288" 
d="M655 -442q-87 0 -160.5 12.5t-125.5 34.5t-94 49.5t-68 58.5t-45.5 62t-28 58.5t-14 49.5t-5.5 35l-1 12h333q1 -6 3 -16t15.5 -35t34 -44.5t62 -35.5t96.5 -16q117 0 172.5 78.5t55.5 212.5v110q-100 -149 -324 -149q-118 0 -213 44.5t-154.5 120t-90.5 170t-31 199.5
t31.5 200t90.5 171t154 121t213 45q62 0 115 -12.5t85 -28t61 -41t39 -38t24 -32.5v131h340v-1022q0 -107 -34 -197t-102 -159.5t-179 -109t-255 -39.5zM428 569q0 -125 59.5 -207.5t169.5 -82.5q112 0 173 82.5t61 207.5t-61 209t-173 84q-110 0 -169.5 -83.5t-59.5 -209.5
z" />
    <glyph glyph-name="h" unicode="h" horiz-adv-x="1230" 
d="M86 0v1556h350v-636q15 29 38.5 57.5t63 59.5t100.5 50t134 19q79 0 142.5 -21.5t106 -58t71 -86t41 -104.5t12.5 -115v-721h-350v649q0 88 -40 139.5t-124 51.5q-100 0 -147.5 -69.5t-47.5 -176.5v-594h-350z" />
    <glyph glyph-name="i" unicode="i" horiz-adv-x="501" 
d="M76 0v1085h350v-1085h-350zM45 1389q0 84 58.5 140t148.5 56q89 0 148 -56t59 -140q0 -79 -59.5 -137t-147.5 -58q-89 0 -148 57.5t-59 137.5z" />
    <glyph glyph-name="j" unicode="j" horiz-adv-x="536" 
d="M45 -440q-33 0 -68 4t-54 8l-19 4v254q34 -8 69 -8q75 0 106.5 41.5t31.5 128.5v1093h350v-1120q0 -67 -8.5 -120t-35.5 -108.5t-71.5 -92.5t-121 -60.5t-179.5 -23.5zM80 1391q0 84 58.5 140t148.5 56q89 0 148 -56t59 -140q0 -79 -59.5 -137t-147.5 -58
q-89 0 -148 57.5t-59 137.5z" />
    <glyph glyph-name="k" unicode="k" horiz-adv-x="1236" 
d="M795 0l-359 535v-535h-350v1556h350v-948l355 477h395l-422 -497l442 -588h-411z" />
    <glyph glyph-name="l" unicode="l" horiz-adv-x="522" 
d="M86 0v1556h350v-1556h-350z" />
    <glyph glyph-name="m" unicode="m" horiz-adv-x="1855" 
d="M754 0v651q0 88 -36 139.5t-112 51.5q-62 0 -102 -36t-56 -89.5t-16 -124.5v-592h-346v1085h346v-186q15 37 38.5 70.5t61.5 66t95.5 51.5t126.5 19q131 0 211.5 -61.5t113.5 -165.5q109 227 342 227q92 0 161.5 -32t109 -88t58.5 -122t19 -143v-721h-346v651
q0 88 -36.5 139.5t-112.5 51.5q-90 0 -131 -69.5t-41 -180.5v-592h-348z" />
    <glyph glyph-name="n" unicode="n" horiz-adv-x="1230" 
d="M86 0v1085h350v-165q15 29 38.5 57.5t63 59.5t100.5 50t134 19q79 0 142.5 -21.5t106 -58t71 -86t41 -104.5t12.5 -115v-721h-350v649q0 88 -40 139.5t-124 51.5q-100 0 -147.5 -69.5t-47.5 -176.5v-594h-350z" />
    <glyph glyph-name="o" unicode="o" 
d="M655 -20q-181 0 -314.5 74.5t-201 201t-67.5 287.5t67.5 287.5t201 201t314.5 74.5q180 0 313.5 -74.5t201 -201t67.5 -287.5t-67.5 -287.5t-201 -201t-313.5 -74.5zM428 543q0 -139 61 -221t166 -82t165.5 82t60.5 221t-60.5 221t-165.5 82t-166 -82t-61 -221z" />
    <glyph glyph-name="p" unicode="p" horiz-adv-x="1329" 
d="M86 -410v1495h350v-131q105 152 330 152q120 0 215.5 -46t154.5 -124.5t90 -179t31 -213.5t-31 -213.5t-90 -179t-154.5 -124.5t-215.5 -46q-226 0 -330 151v-541h-350zM426 543q0 -135 63.5 -224.5t176.5 -89.5q112 0 174.5 89.5t62.5 224.5t-62 224t-175 89t-176.5 -89
t-63.5 -224z" />
    <glyph glyph-name="q" unicode="q" horiz-adv-x="1329" 
d="M1243 -410h-350v541q-104 -151 -330 -151q-120 0 -215.5 46t-154.5 124.5t-90 179t-31 213.5t31 213.5t90 179t154.5 124.5t215.5 46q225 0 330 -152v131h350v-1495zM426 543q0 -135 62.5 -224.5t175.5 -89.5t176 89.5t63 224.5t-63 224t-176 89t-175.5 -89t-62.5 -224z
" />
    <glyph glyph-name="r" unicode="r" horiz-adv-x="833" 
d="M86 0v1085h338v-188q21 50 42.5 84.5t54 64.5t79 45t107.5 15q17 0 34.5 -2t26.5 -4l8 -2v-314q-33 7 -84 7q-132 0 -197 -63.5t-65 -225.5v-502h-344z" />
    <glyph glyph-name="s" unicode="s" horiz-adv-x="1114" 
d="M578 -20q-84 0 -156 13t-122 35t-91 50.5t-66 60t-43.5 63t-27 60t-13.5 50.5t-5 35l-1 13h324q0 -6 1.5 -16.5t13 -37t31.5 -46.5t62 -36.5t99 -16.5q72 0 112.5 31.5t40.5 74.5q0 40 -29 62t-90 31l-161 26q-375 63 -375 318q0 154 127.5 255t339.5 101q77 0 143 -12
t112 -33t84.5 -48t62 -56.5t41 -59t26 -56.5t13.5 -48t6 -33l1 -12h-293q0 6 -1.5 15.5t-12.5 33.5t-29 43t-56 34t-89 15q-76 0 -113.5 -30t-37.5 -73q0 -40 34 -62t113 -36l141 -22q175 -28 271 -111t96 -209q0 -162 -131.5 -264t-351.5 -102z" />
    <glyph glyph-name="t" unicode="t" horiz-adv-x="817" 
d="M575 -20q-89 0 -157.5 23t-110 60t-67.5 90.5t-35.5 107t-9.5 116.5v422h-156v286h156v246h335v-246h238v-286h-238v-371q0 -79 35 -118.5t115 -39.5q22 0 44 5t33 11l11 5v-277q-70 -34 -193 -34z" />
    <glyph glyph-name="u" unicode="u" horiz-adv-x="1206" 
d="M438 -20q-86 0 -151 25t-102.5 62.5t-60.5 88.5t-30.5 95t-7.5 91v743h350v-653q0 -84 38 -135t116 -51q92 0 136 67t44 166v606h350v-1085h-350v170q-15 -31 -37.5 -60t-60.5 -60.5t-99 -50.5t-135 -19z" />
    <glyph glyph-name="v" unicode="v" horiz-adv-x="1210" 
d="M422 0l-391 1085h356l231 -718l226 718h336l-392 -1085h-366z" />
    <glyph glyph-name="w" unicode="w" horiz-adv-x="1783" 
d="M365 0l-322 1085h342l182 -692l193 692h266l193 -692l186 692h336l-322 -1085h-368l-166 627l-164 -627h-356z" />
    <glyph glyph-name="x" unicode="x" horiz-adv-x="1204" 
d="M45 0l330 541l-330 544h363l192 -333l199 333h360l-344 -544l344 -541h-360l-199 334l-192 -334h-363z" />
    <glyph glyph-name="y" unicode="y" horiz-adv-x="1210" 
d="M246 -418l188 453l-403 1050h356l231 -663l224 663h338l-580 -1503h-354z" />
    <glyph glyph-name="z" unicode="z" horiz-adv-x="1079" 
d="M92 0v256l520 543h-514v286h942v-256l-522 -542h529v-287h-955z" />
    <glyph glyph-name="braceleft" unicode="{" horiz-adv-x="1015" 
d="M944 -481q-103 -8 -186.5 -0.5t-143 29t-106 54.5t-74 76.5t-47 95t-26 109.5t-10 120t0.5 126q1 75 0.5 132.5t-10 100t-26 72t-46.5 47t-70.5 25.5t-99.5 8h-61v262h61q59 0 99.5 8t70.5 25.5t46.5 47t26 72t10 100t-0.5 132.5q-1 77 -0.5 149t15 136.5t37.5 119.5
t68.5 97.5t107.5 70t154.5 37.5t209.5 1v-250q-71 2 -116.5 -11.5t-70 -41t-35 -70t-11 -99t0.5 -126.5q1 -38 1 -58q1 -68 -2 -115.5t-12 -100.5t-28.5 -90t-49.5 -71t-77.5 -57.5t-111.5 -36.5q55 -12 97.5 -31.5t72 -43.5t50.5 -59t33 -68.5t18.5 -81t8 -89t1.5 -98.5
q0 -20 -1 -58q-2 -70 -1 -126.5t11.5 -98.5t35 -70t70 -41t116.5 -11v-250z" />
    <glyph glyph-name="bar" unicode="|" horiz-adv-x="907" 
d="M311 -532v2478h285v-2478h-285z" />
    <glyph glyph-name="braceright" unicode="}" horiz-adv-x="1015" 
d="M72 -231q71 -2 116.5 11t70 41t35 70t11.5 98.5t-1 126.5q-1 38 -1 58q0 57 1.5 98.5t8 89t18.5 81t33 68.5t50.5 59t72 43.5t97.5 31.5q-64 13 -111.5 36.5t-77.5 57.5t-49.5 71t-28.5 90t-12 100.5t-2 115.5q0 20 1 58q1 70 0.5 126.5t-11 99t-35 70t-70 41
t-116.5 11.5v250q117 9 209.5 -1t154.5 -37.5t107.5 -70t68.5 -97.5t37.5 -119.5t15 -136.5t-0.5 -149q-1 -75 -1 -132.5t10 -100t26 -72t46 -47t70.5 -25.5t99.5 -8h62v-262h-62q-59 0 -99.5 -8t-70.5 -25.5t-46 -47t-26 -72t-10 -100t1 -132.5q3 -119 -4 -201t-40 -172.5
t-95 -141.5t-176.5 -79.5t-276.5 -15.5v250z" />
    <glyph glyph-name="asciitilde" unicode="~" horiz-adv-x="1019" 
d="M668 641q-54 0 -102 19.5t-76.5 43t-61 43t-57.5 19.5q-62 0 -62 -113h-182q0 45 5.5 85.5t20.5 83t39 73.5t65 50.5t95 19.5t102.5 -19t78 -42.5t62 -42.5t56.5 -19q58 0 58 112h184q0 -58 -10 -108.5t-33 -99t-69.5 -77t-112.5 -28.5z" />
    <glyph glyph-name="uni00A0" unicode="&#xa0;" horiz-adv-x="454" 
 />
    <glyph glyph-name="exclamdown" unicode="&#xa1;" horiz-adv-x="651" 
d="M156 -545l45 1049h286l54 -1049h-385zM88 780q0 86 60 147.5t151 61.5q90 0 149.5 -61t59.5 -148q0 -89 -59.5 -150t-149.5 -61q-91 0 -151 61t-60 150z" />
    <glyph glyph-name="cent" unicode="&#xa2;" horiz-adv-x="1228" 
d="M549 -201v187q-116 16 -208.5 68t-150 128t-88 168t-30.5 193t30.5 193t88 168t150 128t208.5 68v184h180v-182q87 -8 159 -36t117.5 -65t79.5 -80.5t51 -85t27.5 -75.5t12.5 -55l2 -21h-322q-1 5 -2.5 13.5t-10 31t-21 42t-37 40.5t-56.5 31v-598q32 10 56.5 30t37 41.5
t21 41t10.5 31.5l2 13h322q0 -8 -2 -21.5t-12.5 -53.5t-27 -77t-51 -83.5t-80 -81.5t-117.5 -63.5t-159 -36.5v-185h-180zM422 543q0 -99 33 -173.5t94 -109.5v565q-61 -35 -94 -109t-33 -173z" />
    <glyph glyph-name="sterling" unicode="&#xa3;" horiz-adv-x="1415" 
d="M172 293q137 12 215 74t78 155q0 54 -35 115h-289v139h189q-94 134 -94 281q0 220 172 349.5t462 129.5q76 0 154.5 -9t119.5 -19l40 -9v-303q-129 35 -279 35q-153 0 -239 -50t-86 -151q0 -34 11.5 -70.5t22.5 -57.5t38.5 -66t35.5 -60h379v-139h-319q10 -45 10 -86
q0 -57 -22 -108t-53.5 -82.5t-52 -48t-30.5 -21.5h645v-291h-1073v293z" />
    <glyph glyph-name="currency" unicode="&#xa4;" horiz-adv-x="1415" 
d="M252 162l-150 147l187 189q-78 124 -78 272q0 144 78 268l-187 187l150 147l186 -186q121 82 271 82q147 0 272 -80l184 184l148 -147l-185 -185q80 -122 80 -270q0 -154 -82 -272l187 -189l-148 -147l-186 186q-124 -78 -270 -78q-147 0 -271 78zM451 768
q0 -106 75.5 -182t182.5 -76q106 0 182 76t76 182t-76 182t-182 76q-107 0 -182.5 -76t-75.5 -182z" />
    <glyph glyph-name="yen" unicode="&#xa5;" horiz-adv-x="1474" 
d="M193 403v172h342l-86 160h-259v174h164l-327 607h422l307 -619l305 619h387l-328 -607h195v-174h-289l-86 -160h375v-172h-385v-403h-385v403h-352z" />
    <glyph glyph-name="brokenbar" unicode="&#xa6;" horiz-adv-x="907" 
d="M311 -532v1030h285v-1030h-285zM311 840v1106h285v-1106h-285z" />
    <glyph glyph-name="section" unicode="&#xa7;" horiz-adv-x="1419" 
d="M729 -463q-100 0 -186 17t-147 46t-111 67t-82 79.5t-56.5 83t-36.5 79.5t-19.5 67t-8.5 46l-2 17h358q0 -4 1.5 -12t9 -30t19 -42t35 -44.5t54 -42.5t79 -30t107.5 -12q120 0 180 48.5t60 119.5q0 63 -43.5 97t-136.5 52l-264 45q-81 14 -151 35.5t-135 56.5t-110.5 80
t-72.5 108t-27 138q0 122 69.5 205t194.5 109v12q-97 67 -144.5 145.5t-47.5 184.5q0 204 158.5 333t426.5 129q90 0 168 -16t134 -42.5t102.5 -61.5t76.5 -73.5t53 -77t35 -73.5t19.5 -61.5t9.5 -42.5l2 -16h-348q-1 7 -4 19t-19.5 43t-42 54.5t-76.5 42.5t-118 19
q-117 0 -173 -50t-56 -116q0 -63 55 -98.5t154 -51.5l209 -37q81 -14 150.5 -35.5t134.5 -56.5t110.5 -79.5t72.5 -107.5t27 -138q0 -122 -69.5 -205t-194.5 -109v-12q102 -32 163.5 -117.5t61.5 -208.5q0 -212 -162.5 -345.5t-445.5 -133.5zM391 666q0 -124 211 -162
l260 -45q16 0 40.5 6.5t54.5 21.5t50.5 46.5t20.5 74.5q0 124 -211 162l-260 45q-16 0 -40.5 -6.5t-54.5 -21.5t-50.5 -46.5t-20.5 -74.5z" />
    <glyph glyph-name="dieresis" unicode="&#xa8;" horiz-adv-x="591" 
d="M754 1202q-86 0 -142.5 54.5t-56.5 129.5q0 80 56 134.5t143 54.5q84 0 140 -54.5t56 -134.5q0 -75 -56.5 -129.5t-139.5 -54.5zM100 1386q0 80 56 134.5t141 54.5q84 0 140.5 -54.5t56.5 -134.5q0 -75 -57 -129.5t-140 -54.5q-85 0 -141 54.5t-56 129.5z" />
    <glyph glyph-name="copyright" unicode="&#xa9;" horiz-adv-x="1660" 
d="M831 121q129 0 246.5 51t202.5 136.5t135.5 203.5t50.5 246t-50.5 245.5t-135.5 203t-202.5 136t-246.5 50.5q-171 0 -317 -85.5t-231.5 -232t-85.5 -317.5q0 -128 50.5 -246t135.5 -203.5t202.5 -136.5t245.5 -51zM53 758q0 158 62 302t166 248t248 166t302 62
t302.5 -62t248.5 -166.5t166 -248.5t62 -301t-62 -301.5t-166 -249.5t-248.5 -167.5t-302.5 -62.5q-157 0 -301.5 62.5t-248.5 167.5t-166 249.5t-62 301.5zM377 758q0 88 29.5 167.5t86 143t148 100.5t205.5 37q84 0 153.5 -19t113 -49t76.5 -66.5t49 -73t26 -66.5t12 -49
l2 -19h-264q-1 5 -3 14.5t-12.5 32.5t-26 41t-47 32.5t-71.5 14.5q-90 0 -140 -66t-50 -175q0 -110 50 -177t140 -67q40 0 71 14t47 34t26.5 39.5t13.5 33.5l2 14h264q0 -7 -2 -19.5t-12 -48t-26 -67.5t-49.5 -71.5t-76.5 -68t-112.5 -48t-153.5 -19.5q-114 0 -205.5 37.5
t-148 101t-86 143.5t-29.5 169z" />
    <glyph glyph-name="ordfeminine" unicode="&#xaa;" horiz-adv-x="774" 
d="M377 1104q-66 -9 -66 -55q0 -25 20 -39.5t52 -14.5q42 0 69 26.5t27 74.5v20zM61 1026q0 188 285 219l133 15v14q0 35 -20.5 55.5t-55.5 20.5q-20 0 -35.5 -6t-23 -15t-12 -18t-5.5 -15l-1 -6h-240q0 5 1 14t8 34.5t18.5 48.5t36.5 51.5t58 49t86.5 34.5t119.5 14
q86 0 151.5 -23.5t100.5 -61t52 -78t17 -81.5v-448h-256v69h-8q-24 -35 -72.5 -58.5t-113.5 -23.5q-98 0 -161 52.5t-63 142.5z" />
    <glyph glyph-name="guillemotleft" unicode="&#xab;" horiz-adv-x="1576" 
d="M1151 174l-442 455l442 454h360l-432 -456l432 -453h-360zM74 629l442 454h363l-435 -456l435 -453h-363z" />
    <glyph glyph-name="logicalnot" unicode="&#xac;" horiz-adv-x="1341" 
d="M164 813v272h1014v-569h-271v297h-743z" />
    <glyph glyph-name="uni00AD" unicode="&#xad;" horiz-adv-x="989" 
d="M111 514v274h768v-274h-768z" />
    <glyph glyph-name="registered" unicode="&#xae;" horiz-adv-x="882" 
d="M440 774q-90 0 -163.5 32.5t-119 87t-70 121.5t-24.5 140t24.5 140t70 121.5t119 87t163.5 32.5q91 0 165 -32.5t119.5 -87t70 -121.5t24.5 -140t-24.5 -140t-70 -121.5t-119.5 -87t-165 -32.5zM150 1155q0 -56 18.5 -108.5t53 -95t91.5 -68t127 -25.5q93 0 161 44.5
t99 110.5t31 142q0 122 -76.5 209.5t-214.5 87.5t-214 -87.5t-76 -209.5zM281 963v395h178q76 0 120 -34.5t44 -100.5q0 -84 -72 -121l76 -139h-129l-66 120h-33v-120h-118zM399 1178h58q21 0 33 10.5t12 28.5q0 38 -45 38h-58v-77z" />
    <glyph glyph-name="macron" unicode="&#xaf;" horiz-adv-x="1089" 
d="M205 1333v197h680v-197h-680z" />
    <glyph glyph-name="degree" unicode="&#xb0;" horiz-adv-x="870" 
d="M436 770q-159 0 -271 112t-112 271t112 271t271 112q158 0 269.5 -112.5t111.5 -270.5t-111.5 -270.5t-269.5 -112.5zM289 1153q0 -60 43 -103.5t104 -43.5q60 0 103 43.5t43 103.5q0 61 -43 104t-103 43q-62 0 -104.5 -43t-42.5 -104z" />
    <glyph glyph-name="plusminus" unicode="&#xb1;" horiz-adv-x="1132" 
d="M428 319v310h-307v274h307v307h274v-307h310v-274h-310v-310h-274zM111 0v186h911v-186h-911z" />
    <glyph glyph-name="uni00B2" unicode="&#xb2;" horiz-adv-x="886" 
d="M70 831v189l213 156q21 16 62 45.5t59.5 43.5t46 37.5t39.5 40t22 38t10 42.5q0 41 -28 64.5t-70 23.5q-45 0 -75 -27.5t-30 -82.5h-256q0 84 30 150t82 106t117.5 61t139.5 21q157 0 261 -83.5t104 -209.5q0 -108 -87.5 -198.5t-267.5 -190.5h359v-226h-731z" />
    <glyph glyph-name="uni00B3" unicode="&#xb3;" horiz-adv-x="886" 
d="M446 813q-98 0 -172.5 29.5t-111 68t-59 87t-27 75.5t-4.5 45h252q0 -8 4.5 -20.5t15 -30t36 -29.5t60.5 -12q54 0 82.5 26t28.5 60q0 33 -27 52.5t-71 19.5h-123v188h119q47 0 71.5 20.5t24.5 53.5q0 34 -27.5 56t-73.5 22q-32 0 -54.5 -11.5t-31.5 -28.5t-12.5 -29
t-3.5 -21h-246q0 11 2 27.5t10.5 47t22.5 59.5t41.5 61t63.5 55.5t92.5 39t124.5 15.5q96 0 176 -29.5t130 -89.5t50 -139q0 -46 -16.5 -84.5t-42 -61t-49.5 -36t-44 -17.5v-10q72 -21 119 -69.5t47 -125.5q0 -120 -106.5 -192t-270.5 -72z" />
    <glyph glyph-name="acute" unicode="&#xb4;" horiz-adv-x="509" 
d="M281 1214l-250 3l102 319h377z" />
    <glyph glyph-name="uni00B5" unicode="&#xb5;" horiz-adv-x="1335" 
d="M84 -401v1486h350v-661q0 -73 38 -116.5t110 -43.5q79 0 117 53t38 132v636h350v-700q0 -62 28.5 -96.5t103.5 -34.5l61 6v-266q-80 -14 -158 -14q-135 0 -221 48.5t-123 125.5h-16q-2 -7 -6 -19t-21.5 -42t-40.5 -52.5t-67 -41.5t-97 -19q-52 0 -96 16.5t-62 32.5
l-18 16l-10 -10q52 -79 71 -157.5t19 -194.5v-84h-350z" />
    <glyph glyph-name="paragraph" unicode="&#xb6;" horiz-adv-x="1204" 
d="M434 621q-104 0 -186.5 31.5t-134 87t-78.5 127.5t-27 155t28 157t80 131t134 90.5t184 33.5h684v-1434h-211v1128h-133v-1128h-211v621h-129z" />
    <glyph glyph-name="periodcentered" unicode="&#xb7;" horiz-adv-x="618" 
d="M309 -20q-95 0 -158 65t-63 156q0 93 62.5 157t158.5 64q95 0 158 -64t63 -157q0 -92 -63.5 -156.5t-157.5 -64.5z" />
    <glyph glyph-name="cedilla" unicode="&#xb8;" horiz-adv-x="540" 
d="M145 -598q-36 0 -79.5 3.5t-69.5 6.5l-25 4v183q93 -13 156 -13q81 0 115 23t34 55q0 27 -21.5 43.5t-57.5 16.5q-26 0 -54 -10t-43 -20l-14 -9l-121 122l135 193h217l-92 -125q6 0 19 1t20 1q99 0 160 -61t61 -154q0 -108 -87.5 -184t-252.5 -76z" />
    <glyph glyph-name="uni00B9" unicode="&#xb9;" horiz-adv-x="589" 
d="M483 1737v-906h-252v594h-186v152l27 8q95 29 149.5 58.5t104.5 82.5l10 11h147z" />
    <glyph glyph-name="ordmasculine" unicode="&#xba;" horiz-adv-x="862" 
d="M430 831q-168 0 -268.5 103.5t-100.5 253.5q0 148 100.5 250t268.5 102q169 0 270 -102.5t101 -249.5q0 -150 -101 -253.5t-270 -103.5zM315 1188q0 -64 32 -106t83 -42q52 0 83.5 41.5t31.5 106.5q0 61 -31.5 101t-83.5 40q-51 0 -83 -40t-32 -101z" />
    <glyph glyph-name="guillemotright" unicode="&#xbb;" horiz-adv-x="1886" 
d="M74 174l434 453l-434 456h360l445 -454l-445 -455h-360zM1018 174l434 453l-434 456h360l445 -454l-445 -455h-360z" />
    <glyph glyph-name="onequarter" unicode="&#xbc;" horiz-adv-x="1857" 
d="M383 1438v-715h-219v455h-144v135l19 4q131 35 209 113l8 8h127zM315 0l861 1434h243l-862 -1434h-242zM1143 139v150l272 432h289v-418h96v-164h-96v-135h-225v135h-336zM1348 303h131v211z" />
    <glyph glyph-name="onehalf" unicode="&#xbd;" horiz-adv-x="1839" 
d="M383 1438v-715h-219v455h-144v135l19 4q131 35 209 113l8 8h127zM315 0l861 1434h243l-862 -1434h-242zM1180 455q0 135 86.5 205.5t212.5 70.5t209.5 -68t83.5 -174q0 -89 -63.5 -161t-203.5 -146h269v-178h-590v150l78 55q174 120 206 147q73 69 78 119q0 34 -21.5 52
t-51.5 18q-35 0 -57.5 -22.5t-22.5 -67.5h-213z" />
    <glyph glyph-name="threequarters" unicode="&#xbe;" horiz-adv-x="2015" 
d="M358 715q-78 0 -136 22.5t-86.5 52.5t-45.5 68t-20.5 59.5t-3.5 36.5h200q0 -7 3.5 -16.5t12 -22.5t28.5 -21.5t48 -8.5q42 0 63 19t21 46q0 25 -19 42.5t-61 17.5h-77v149h77q38 0 58 18.5t20 45.5q0 25 -21 43t-59 18q-26 0 -44 -8.5t-26 -21t-11 -21.5t-3 -16h-196
q0 14 4 36t21 59t44.5 66.5t82 51.5t126.5 22q121 0 205 -56.5t84 -150.5q0 -64 -39 -107.5t-78 -50.5v-8q127 -38 127 -147q0 -96 -83 -156.5t-216 -60.5zM473 0l860 1434h244l-862 -1434h-242zM1300 139v150l273 432h289v-418h96v-164h-96v-135h-226v135h-336zM1505 303
h131v211z" />
    <glyph glyph-name="questiondown" unicode="&#xbf;" horiz-adv-x="1247" 
d="M618 -578q-146 0 -266.5 56.5t-193 162.5t-72.5 240q0 69 20.5 128t53 101t71.5 78t78.5 65.5t72 57t53 59t20.5 64.5v66h348v-66q0 -62 -20 -115t-51.5 -91.5t-70.5 -73t-77.5 -65t-70 -60t-51.5 -65.5t-20 -75q0 -70 54 -115.5t137 -45.5q86 0 143.5 55.5t57.5 161.5
h335q0 -128 -46 -230t-124 -165t-175.5 -95.5t-205.5 -32.5zM467 770q0 87 60.5 148t150.5 61q91 0 151 -61.5t60 -147.5q0 -89 -60 -150t-151 -61q-90 0 -150.5 61.5t-60.5 149.5z" />
    <glyph glyph-name="Agrave" unicode="&#xc0;" horiz-adv-x="1560" 
d="M43 0l483 1516h516l484 -1516h-406l-94 317h-520l-94 -317h-369zM422 1962h375l104 -315l-250 -2zM592 610h348l-174 592z" />
    <glyph glyph-name="Aacute" unicode="&#xc1;" horiz-adv-x="1568" 
d="M43 0l483 1516h516l484 -1516h-406l-94 317h-520l-94 -317h-369zM592 610h348l-174 592zM666 1647l102 319h377l-230 -321z" />
    <glyph glyph-name="Acircumflex" unicode="&#xc2;" horiz-adv-x="1568" 
d="M43 0l483 1516h516l484 -1516h-406l-94 317h-520l-94 -317h-369zM432 1624l191 274h325l191 -274l-238 -2l-115 129l-116 -129zM592 610h348l-174 592z" />
    <glyph glyph-name="Atilde" unicode="&#xc3;" horiz-adv-x="1568" 
d="M43 0l483 1516h516l484 -1516h-406l-94 317h-520l-94 -317h-369zM416 1649q-4 290 213 290q51 0 97 -16.5t73.5 -36.5t59.5 -36.5t59 -16.5q32 0 47 24t18 72h174q4 -291 -211 -291q-50 0 -95.5 16.5t-73 36t-61 36t-61.5 16.5q-32 0 -47 -23t-18 -71h-174zM592 610h348
l-174 592z" />
    <glyph glyph-name="Adieresis" unicode="&#xc4;" horiz-adv-x="1568" 
d="M43 0l483 1516h516l484 -1516h-406l-94 317h-520l-94 -317h-369zM362 1817q0 80 55.5 134t141.5 54q84 0 140.5 -54t56.5 -134q0 -75 -57 -130t-140 -55q-84 0 -140.5 55t-56.5 130zM592 610h348l-174 592zM817 1817q0 80 56 134t143 54q84 0 140 -54t56 -134
q0 -75 -56.5 -130t-139.5 -55q-86 0 -142.5 55t-56.5 130z" />
    <glyph glyph-name="Aring" unicode="&#xc5;" horiz-adv-x="1568" 
d="M43 0l483 1516h516l484 -1516h-406l-94 317h-520l-94 -317h-369zM502 1907q0 117 83 199.5t201 82.5q117 0 200 -82.5t83 -199.5t-83 -200t-200 -83q-118 0 -201 83t-83 200zM592 610h348l-174 592zM678 1907q0 -46 31 -77.5t77 -31.5q44 0 75.5 31.5t31.5 77.5
q0 44 -31.5 75t-75.5 31q-46 0 -77 -31t-31 -75z" />
    <glyph glyph-name="AE" unicode="&#xc6;" horiz-adv-x="2478" 
d="M27 0l657 1516h270v-236l-307 -705h479v-299h-608l-121 -276h-370zM1315 0v1516h1098v-314h-713v-284h600v-308h-600v-297h715v-313h-1100z" />
    <glyph glyph-name="Ccedilla" unicode="&#xc7;" horiz-adv-x="1607" 
d="M807 -588q-36 0 -79.5 4t-69.5 8l-25 3v182q92 -12 155 -12q81 0 115.5 22.5t34.5 54.5q0 27 -22 43.5t-58 16.5q-26 0 -53.5 -10t-42.5 -20l-14 -9l-121 123l116 166q-139 13 -254.5 63t-195 124.5t-134.5 170.5t-80.5 201t-25.5 217q0 118 29 228.5t92 210.5t154 174.5
t223.5 118.5t292.5 44q137 0 250.5 -32t185 -83t126 -112.5t81.5 -123t43.5 -112.5t19.5 -83l4 -32h-370q-1 6 -3 16t-11.5 38.5t-23.5 54.5t-40.5 57.5t-60 54.5t-85 38.5t-112.5 15.5q-127 0 -218.5 -65t-135 -170t-43.5 -238t43.5 -238.5t135 -171t218.5 -65.5
q61 0 112.5 15t85 39t60 53t40.5 58t23.5 53t12.5 39l2 15h370q-1 -11 -3.5 -29t-17 -72t-36.5 -104.5t-68 -113.5t-105.5 -111.5t-154 -88t-208.5 -52.5l-74 -101q6 0 19 1t20 1q99 0 160 -61t61 -154q0 -108 -87.5 -184t-252.5 -76z" />
    <glyph glyph-name="Egrave" unicode="&#xc8;" horiz-adv-x="1243" 
d="M86 0v1516h1098v-314h-713v-284h600v-308h-600v-297h715v-313h-1100zM256 1962h375l104 -315l-250 -2z" />
    <glyph glyph-name="Eacute" unicode="&#xc9;" horiz-adv-x="1243" 
d="M86 0v1516h1098v-314h-713v-284h600v-308h-600v-297h715v-313h-1100zM496 1647l102 319h377l-230 -321z" />
    <glyph glyph-name="Ecircumflex" unicode="&#xca;" horiz-adv-x="1243" 
d="M86 0v1516h1098v-314h-713v-284h600v-308h-600v-297h715v-313h-1100zM262 1624l191 274h325l191 -274l-238 -2l-115 129l-116 -129z" />
    <glyph glyph-name="Edieresis" unicode="&#xcb;" horiz-adv-x="1243" 
d="M86 0v1516h1098v-314h-713v-284h600v-308h-600v-297h715v-313h-1100zM193 1817q0 80 55.5 134t140.5 54q84 0 140.5 -54t56.5 -134q0 -75 -57 -130t-140 -55q-84 0 -140 55t-56 130zM649 1817q0 80 55.5 134t141.5 54q84 0 140 -54t56 -134q0 -75 -56.5 -130t-139.5 -55
q-84 0 -140.5 55t-56.5 130z" />
    <glyph glyph-name="Igrave" unicode="&#xcc;" horiz-adv-x="557" 
d="M86 0v1516h385v-1516h-385zM-90 1962h375l104 -315l-250 -2z" />
    <glyph glyph-name="Iacute" unicode="&#xcd;" horiz-adv-x="557" 
d="M86 0v1516h385v-1516h-385zM150 1647l102 319h377l-230 -321z" />
    <glyph glyph-name="Icircumflex" unicode="&#xce;" horiz-adv-x="557" 
d="M86 0v1516h385v-1516h-385zM-100 1624l231 315h279l229 -315l-252 -2l-117 131l-116 -131z" />
    <glyph glyph-name="Idieresis" unicode="&#xcf;" horiz-adv-x="557" 
d="M86 0v1516h385v-1516h-385zM-154 1817q0 80 55.5 134t141.5 54q84 0 140.5 -54t56.5 -134q0 -75 -57 -130t-140 -55q-84 0 -140.5 55t-56.5 130zM301 1817q0 80 56 134t143 54q84 0 140 -54t56 -134q0 -75 -56.5 -130t-139.5 -55q-86 0 -142.5 55t-56.5 130z" />
    <glyph glyph-name="Eth" unicode="&#xd0;" horiz-adv-x="1576" 
d="M-53 625v266h182v625h582q167 0 304.5 -42.5t230.5 -115t157 -170.5t92.5 -205.5t28.5 -224.5t-28.5 -224.5t-92.5 -205.5t-157 -170.5t-230.5 -115t-304.5 -42.5h-582v625h-182zM514 301h174q96 0 173 26t127 69t83.5 102.5t47.5 124t14 135.5q0 90 -23.5 168.5
t-73.5 144.5t-139 104.5t-209 38.5h-174v-323h291v-266h-291v-324z" />
    <glyph glyph-name="Ntilde" unicode="&#xd1;" horiz-adv-x="1515" 
d="M86 0v1516h414l555 -945v945h375v-1516h-418l-553 944v-944h-373zM377 1649q-4 290 213 290q51 0 97 -16.5t73.5 -36.5t59.5 -36.5t59 -16.5q32 0 47 24t18 72h174q4 -291 -211 -291q-50 0 -95.5 16.5t-73 36t-61 36t-61.5 16.5q-32 0 -47 -23t-18 -71h-174z" />
    <glyph glyph-name="Ograve" unicode="&#xd2;" horiz-adv-x="1685" 
d="M844 -20q-153 0 -283 41.5t-222.5 114.5t-157.5 171.5t-96.5 213t-31.5 239.5q0 124 31.5 237.5t96.5 212t157.5 171t222.5 114t283 41.5t282.5 -41.5t221.5 -114t157 -171t96 -212t31 -237.5q0 -125 -31 -239.5t-96 -213t-157 -171.5t-221.5 -114.5t-282.5 -41.5z
M453 760q0 -204 104 -335.5t287 -131.5q182 0 286.5 132t104.5 335q0 131 -45 235t-135 167t-211 63q-122 0 -212 -63t-134.5 -167t-44.5 -235zM483 1982h375l105 -315l-250 -2z" />
    <glyph glyph-name="Oacute" unicode="&#xd3;" horiz-adv-x="1685" 
d="M844 -20q-153 0 -283 41.5t-222.5 114.5t-157.5 171.5t-96.5 213t-31.5 239.5q0 124 31.5 237.5t96.5 212t157.5 171t222.5 114t283 41.5t282.5 -41.5t221.5 -114t157 -171t96 -212t31 -237.5q0 -125 -31 -239.5t-96 -213t-157 -171.5t-221.5 -114.5t-282.5 -41.5z
M453 760q0 -204 104 -335.5t287 -131.5q182 0 286.5 132t104.5 335q0 131 -45 235t-135 167t-211 63q-122 0 -212 -63t-134.5 -167t-44.5 -235zM723 1667l102 320h377l-229 -322z" />
    <glyph glyph-name="Ocircumflex" unicode="&#xd4;" horiz-adv-x="1685" 
d="M844 -20q-153 0 -283 41.5t-222.5 114.5t-157.5 171.5t-96.5 213t-31.5 239.5q0 124 31.5 237.5t96.5 212t157.5 171t222.5 114t283 41.5t282.5 -41.5t221.5 -114t157 -171t96 -212t31 -237.5q0 -125 -31 -239.5t-96 -213t-157 -171.5t-221.5 -114.5t-282.5 -41.5z
M453 760q0 -204 104 -335.5t287 -131.5q182 0 286.5 132t104.5 335q0 131 -45 235t-135 167t-211 63q-122 0 -212 -63t-134.5 -167t-44.5 -235zM489 1645l191 274h326l190 -274l-238 -3l-114 130l-117 -130z" />
    <glyph glyph-name="Otilde" unicode="&#xd5;" horiz-adv-x="1685" 
d="M844 -20q-153 0 -283 41.5t-222.5 114.5t-157.5 171.5t-96.5 213t-31.5 239.5q0 124 31.5 237.5t96.5 212t157.5 171t222.5 114t283 41.5t282.5 -41.5t221.5 -114t157 -171t96 -212t31 -237.5q0 -125 -31 -239.5t-96 -213t-157 -171.5t-221.5 -114.5t-282.5 -41.5z
M453 760q0 -204 104 -335.5t287 -131.5q182 0 286.5 132t104.5 335q0 131 -45 235t-135 167t-211 63q-122 0 -212 -63t-134.5 -167t-44.5 -235zM473 1669q-4 291 213 291q51 0 97 -16.5t73.5 -37t59.5 -37t59 -16.5q32 0 47 24.5t18 72.5h174q4 -291 -210 -291
q-50 0 -95.5 16.5t-73 35.5t-61 35.5t-61.5 16.5q-33 0 -48 -23t-18 -71h-174z" />
    <glyph glyph-name="Odieresis" unicode="&#xd6;" horiz-adv-x="1685" 
d="M844 -20q-153 0 -283 41.5t-222.5 114.5t-157.5 171.5t-96.5 213t-31.5 239.5q0 124 31.5 237.5t96.5 212t157.5 171t222.5 114t283 41.5t282.5 -41.5t221.5 -114t157 -171t96 -212t31 -237.5q0 -125 -31 -239.5t-96 -213t-157 -171.5t-221.5 -114.5t-282.5 -41.5z
M420 1837q0 80 55.5 134t140.5 54q84 0 140.5 -54t56.5 -134q0 -75 -57 -129.5t-140 -54.5q-84 0 -140 54.5t-56 129.5zM453 760q0 -204 104 -335.5t287 -131.5q182 0 286.5 132t104.5 335q0 131 -45 235t-135 167t-211 63q-122 0 -212 -63t-134.5 -167t-44.5 -235z
M874 1837q0 80 56 134t143 54q84 0 140.5 -54t56.5 -134q0 -75 -57 -129.5t-140 -54.5q-86 0 -142.5 54.5t-56.5 129.5z" />
    <glyph glyph-name="multiply" unicode="&#xd7;" horiz-adv-x="1067" 
d="M745 215l-213 213l-210 -211l-209 209l211 211l-213 213l211 211l213 -213l213 213l208 -209l-213 -213l213 -213z" />
    <glyph glyph-name="Oslash" unicode="&#xd8;" horiz-adv-x="1671" 
d="M170 -49l135 213q-123 107 -187.5 263t-64.5 333q0 124 31.5 237.5t96.5 212t157.5 171t222.5 114t283 41.5q170 0 309 -51l49 78h324l-137 -215q119 -107 181 -260.5t62 -327.5q0 -125 -31 -239.5t-96 -213t-157 -171.5t-221.5 -114.5t-282.5 -41.5q-168 0 -301 47
l-49 -76h-324zM453 760q0 -158 61 -271l459 715q-68 21 -129 21q-122 0 -212 -63t-134.5 -167t-44.5 -235zM723 311q55 -18 121 -18q182 0 286.5 132t104.5 335q0 146 -57 260z" />
    <glyph glyph-name="Ugrave" unicode="&#xd9;" horiz-adv-x="1478" 
d="M739 -20q-105 0 -198 20t-177.5 65.5t-145 114t-96.5 172.5t-36 234v930h381v-930q0 -131 68 -213t204 -82t204.5 82t68.5 213v930h381v-930q0 -130 -36 -234t-96.5 -172.5t-145.5 -114t-178 -65.5t-198 -20zM377 1962h375l104 -315l-250 -2z" />
    <glyph glyph-name="Uacute" unicode="&#xda;" horiz-adv-x="1478" 
d="M739 -20q-105 0 -198 20t-177.5 65.5t-145 114t-96.5 172.5t-36 234v930h381v-930q0 -131 68 -213t204 -82t204.5 82t68.5 213v930h381v-930q0 -130 -36 -234t-96.5 -172.5t-145.5 -114t-178 -65.5t-198 -20zM596 1647l102 319h377l-229 -321z" />
    <glyph glyph-name="Ucircumflex" unicode="&#xdb;" horiz-adv-x="1464" 
d="M739 -20q-105 0 -198 20t-177.5 65.5t-145 114t-96.5 172.5t-36 234v930h381v-930q0 -131 68 -213t204 -82t204.5 82t68.5 213v930h381v-930q0 -130 -36 -234t-96.5 -172.5t-145.5 -114t-178 -65.5t-198 -20zM360 1624l232 315h278l230 -315l-252 -2l-117 131l-117 -131z
" />
    <glyph glyph-name="Udieresis" unicode="&#xdc;" horiz-adv-x="1478" 
d="M739 -20q-105 0 -198 20t-177.5 65.5t-145 114t-96.5 172.5t-36 234v930h381v-930q0 -131 68 -213t204 -82t204.5 82t68.5 213v930h381v-930q0 -130 -36 -234t-96.5 -172.5t-145.5 -114t-178 -65.5t-198 -20zM313 1817q0 80 55.5 134t141.5 54q84 0 140.5 -54t56.5 -134
q0 -75 -57 -130t-140 -55q-84 0 -140.5 55t-56.5 130zM768 1817q0 80 56 134t143 54q84 0 140 -54t56 -134q0 -75 -56.5 -130t-139.5 -55q-86 0 -142.5 55t-56.5 130z" />
    <glyph glyph-name="Yacute" unicode="&#xdd;" horiz-adv-x="1474" 
d="M545 0v555l-518 961h422l307 -619l305 619h387l-518 -961v-555h-385zM618 1645l103 319h377l-230 -322z" />
    <glyph glyph-name="Thorn" unicode="&#xde;" horiz-adv-x="1411" 
d="M86 0v1516h385v-250h317q111 0 205 -28.5t160.5 -77t113 -114t69 -138.5t22.5 -150q0 -98 -36.5 -188t-105 -162.5t-179.5 -116t-249 -43.5h-317v-248h-385zM471 555h315q101 0 158 60t57 141t-57 141.5t-158 60.5h-315v-403z" />
    <glyph glyph-name="germandbls" unicode="&#xdf;" horiz-adv-x="1372" 
d="M678 1569q-130 0 -235 -37t-173.5 -97.5t-114.5 -141.5t-65.5 -165t-19.5 -172v-956h348v958q0 152 72.5 236t195.5 84q97 0 157 -51t60 -129q0 -75 -53.5 -124.5t-147.5 -49.5h-110v-277h135q108 0 167.5 -49t59.5 -129q0 -85 -67 -142t-199 -57q-32 0 -69 3t-57 7
l-21 3v-287q76 -16 182 -16q168 0 300.5 52.5t209 153t76.5 232.5q0 84 -31 152.5t-74.5 105.5t-87.5 62.5t-75 33.5l-31 8v13q41 13 81.5 40.5t78 69t60.5 103t23 131.5q0 132 -80.5 232t-210 150t-284.5 50z" />
    <glyph glyph-name="agrave" unicode="&#xe0;" horiz-adv-x="1155" 
d="M428 -20q-163 0 -267 84t-104 229q0 310 469 371l215 28v19q0 77 -38 121.5t-119 44.5q-45 0 -79 -14.5t-50.5 -35.5t-26 -42t-10.5 -35l-2 -15h-310q0 8 0.5 21t9 52t24 74t51.5 77.5t85.5 73.5t131.5 52t184 21q108 0 193 -22t138.5 -59t88.5 -88.5t49 -105.5t14 -116
v-715h-334v129q-1 -1 -19.5 -22t-30 -32.5t-40 -32t-56.5 -32t-72.5 -21t-94.5 -9.5zM233 1532h375l105 -315l-250 -3zM383 317q0 -55 44 -85.5t112 -30.5q92 0 147 56.5t55 162.5v69l-116 -18q-242 -36 -242 -154z" />
    <glyph glyph-name="aacute" unicode="&#xe1;" horiz-adv-x="1155" 
d="M428 -20q-163 0 -267 84t-104 229q0 310 469 371l215 28v19q0 77 -38 121.5t-119 44.5q-45 0 -79 -14.5t-50.5 -35.5t-26 -42t-10.5 -35l-2 -15h-310q0 8 0.5 21t9 52t24 74t51.5 77.5t85.5 73.5t131.5 52t184 21q108 0 193 -22t138.5 -59t88.5 -88.5t49 -105.5t14 -116
v-715h-334v129q-1 -1 -19.5 -22t-30 -32.5t-40 -32t-56.5 -32t-72.5 -21t-94.5 -9.5zM383 317q0 -55 44 -85.5t112 -30.5q92 0 147 56.5t55 162.5v69l-116 -18q-242 -36 -242 -154zM473 1217l102 319h377l-229 -322z" />
    <glyph glyph-name="acircumflex" unicode="&#xe2;" horiz-adv-x="1155" 
d="M428 -20q-163 0 -267 84t-104 229q0 310 469 371l215 28v19q0 77 -38 121.5t-119 44.5q-45 0 -79 -14.5t-50.5 -35.5t-26 -42t-10.5 -35l-2 -15h-310q0 8 0.5 21t9 52t24 74t51.5 77.5t85.5 73.5t131.5 52t184 21q108 0 193 -22t138.5 -59t88.5 -88.5t49 -105.5t14 -116
v-715h-334v129q-1 -1 -19.5 -22t-30 -32.5t-40 -32t-56.5 -32t-72.5 -21t-94.5 -9.5zM223 1194l232 315h278l230 -315l-252 -2l-117 131l-117 -131zM383 317q0 -55 44 -85.5t112 -30.5q92 0 147 56.5t55 162.5v69l-116 -18q-242 -36 -242 -154z" />
    <glyph glyph-name="atilde" unicode="&#xe3;" horiz-adv-x="1155" 
d="M428 -20q-163 0 -267 84t-104 229q0 310 469 371l215 28v19q0 77 -38 121.5t-119 44.5q-45 0 -79 -14.5t-50.5 -35.5t-26 -42t-10.5 -35l-2 -15h-310q0 8 0.5 21t9 52t24 74t51.5 77.5t85.5 73.5t131.5 52t184 21q108 0 193 -22t138.5 -59t88.5 -88.5t49 -105.5t14 -116
v-715h-334v129q-1 -1 -19.5 -22t-30 -32.5t-40 -32t-56.5 -32t-72.5 -21t-94.5 -9.5zM223 1219q-4 290 213 290q51 0 97 -16.5t73.5 -36.5t59.5 -36.5t59 -16.5q60 0 66 96h174q4 -291 -211 -291q-50 0 -95.5 16.5t-73 36t-61 36t-61.5 16.5q-33 0 -48 -23t-18 -71h-174z
M383 317q0 -55 44 -85.5t112 -30.5q92 0 147 56.5t55 162.5v69l-116 -18q-242 -36 -242 -154z" />
    <glyph glyph-name="adieresis" unicode="&#xe4;" horiz-adv-x="1155" 
d="M428 -20q-163 0 -267 84t-104 229q0 310 469 371l215 28v19q0 77 -38 121.5t-119 44.5q-45 0 -79 -14.5t-50.5 -35.5t-26 -42t-10.5 -35l-2 -15h-310q0 8 0.5 21t9 52t24 74t51.5 77.5t85.5 73.5t131.5 52t184 21q108 0 193 -22t138.5 -59t88.5 -88.5t49 -105.5t14 -116
v-715h-334v129q-1 -1 -19.5 -22t-30 -32.5t-40 -32t-56.5 -32t-72.5 -21t-94.5 -9.5zM172 1386q0 80 56 134.5t141 54.5q84 0 140 -54.5t56 -134.5q0 -75 -56.5 -129.5t-139.5 -54.5q-85 0 -141 54.5t-56 129.5zM383 317q0 -55 44 -85.5t112 -30.5q92 0 147 56.5t55 162.5
v69l-116 -18q-242 -36 -242 -154zM627 1386q0 81 55.5 135t142.5 54q84 0 140.5 -54.5t56.5 -134.5q0 -75 -57 -129.5t-140 -54.5q-86 0 -142 54.5t-56 129.5z" />
    <glyph glyph-name="aring" unicode="&#xe5;" horiz-adv-x="1155" 
d="M428 -20q-163 0 -267 84t-104 229q0 310 469 371l215 28v19q0 77 -38 121.5t-119 44.5q-45 0 -79 -14.5t-50.5 -35.5t-26 -42t-10.5 -35l-2 -15h-310q0 8 0.5 21t9 52t24 74t51.5 77.5t85.5 73.5t131.5 52t184 21q108 0 193 -22t138.5 -59t88.5 -88.5t49 -105.5t14 -116
v-715h-334v129q-1 -1 -19.5 -22t-30 -32.5t-40 -32t-56.5 -32t-72.5 -21t-94.5 -9.5zM311 1477q0 117 83.5 199.5t201.5 82.5q117 0 200 -82.5t83 -199.5t-83 -200t-200 -83q-118 0 -201.5 83t-83.5 200zM383 317q0 -55 44 -85.5t112 -30.5q92 0 147 56.5t55 162.5v69
l-116 -18q-242 -36 -242 -154zM487 1477q0 -46 31.5 -77.5t77.5 -31.5q44 0 75 31.5t31 77.5q0 44 -31 75t-75 31q-46 0 -77.5 -31t-31.5 -75z" />
    <glyph glyph-name="ae" unicode="&#xe6;" horiz-adv-x="1888" 
d="M453 -20q-180 0 -289 87.5t-109 243.5q0 155 115.5 244.5t335.5 89.5h239v45q0 71 -41.5 113.5t-121.5 42.5q-42 0 -75 -12.5t-49.5 -30t-27 -34.5t-13.5 -29l-3 -13h-330q1 8 3.5 21.5t15 53t31.5 75.5t57 79.5t86 75t123.5 53t166.5 21.5q75 0 139.5 -14.5t103.5 -34.5
t68 -43.5t41.5 -40t14.5 -25.5h8q4 9 18 25.5t44.5 40t70.5 43.5t102 34.5t132 14.5q112 0 205.5 -36.5t163.5 -106.5t109.5 -180.5t39.5 -250.5v-81h-737q6 -88 66.5 -148.5t158.5 -60.5q44 0 79.5 11.5t55 28.5t33 34t17.5 28l5 12h316q-1 -8 -4.5 -21.5t-18.5 -52.5
t-35.5 -74.5t-61 -79t-91 -74.5t-127.5 -52.5t-168 -21.5q-89 0 -167 21t-125 48.5t-84 62t-50.5 53t-18.5 28.5h-10l-6 -12t-19.5 -30t-35 -42t-53.5 -44.5t-73.5 -42.5t-97 -30t-122.5 -12zM391 326q0 -53 43 -84t111 -31q89 0 144.5 55.5t55.5 143.5v28h-202
q-76 0 -114 -31.5t-38 -80.5zM1083 664h418q-6 92 -60 138t-141 46q-89 0 -148 -48t-69 -136z" />
    <glyph glyph-name="ccedilla" unicode="&#xe7;" horiz-adv-x="1249" 
d="M612 -602q-36 0 -79.5 3.5t-68.5 6.5l-26 4v182q93 -12 156 -12q81 0 115 23t34 55q0 27 -21.5 43t-57.5 16q-26 0 -54 -9.5t-42 -19.5l-15 -9l-121 122l127 183q-119 14 -213 65.5t-153 127.5t-90 169t-31 195q0 88 22.5 170t69.5 154t114 125t162.5 83.5t208.5 30.5
q81 0 151 -14.5t120 -39t91 -56t67 -66.5t46 -70t29.5 -66.5t15.5 -56t7 -39.5l2 -14h-322q-1 7 -3.5 18t-15.5 40t-32.5 51.5t-58.5 40.5t-89 18q-111 0 -173 -85t-62 -224t62 -224.5t173 -85.5q50 0 89 17.5t58.5 42t32.5 49t16 42.5l3 17h322q0 -7 -1.5 -19.5t-11 -50
t-24.5 -72t-45.5 -79.5t-70.5 -80t-104 -66t-141 -44l-88 -119q6 0 19 1t20 1q99 0 160 -61t61 -154q0 -108 -87.5 -184t-252.5 -76z" />
    <glyph glyph-name="egrave" unicode="&#xe8;" horiz-adv-x="1247" 
d="M844 653q-4 99 -61 154t-146 55q-90 0 -148.5 -57t-64.5 -152h420zM72 545q0 109 34.5 207.5t101.5 178.5t177 127.5t248 47.5q189 0 317.5 -85.5t183 -231.5t37.5 -336h-745q9 -108 67.5 -172t163.5 -64q47 0 84.5 12.5t57.5 30.5t33.5 36.5t17.5 31.5l4 12h309
q-1 -8 -3.5 -20.5t-16.5 -50t-34.5 -71.5t-60.5 -75.5t-91.5 -71.5t-131.5 -50.5t-176 -20.5q-113 0 -209 31t-163 84t-113.5 125t-69 154t-22.5 171zM276 1534h375l105 -315l-250 -2z" />
    <glyph glyph-name="eacute" unicode="&#xe9;" horiz-adv-x="1247" 
d="M844 653q-4 99 -61 154t-146 55q-90 0 -148.5 -57t-64.5 -152h420zM72 545q0 109 34.5 207.5t101.5 178.5t177 127.5t248 47.5q189 0 317.5 -85.5t183 -231.5t37.5 -336h-745q9 -108 67.5 -172t163.5 -64q47 0 84.5 12.5t57.5 30.5t33.5 36.5t17.5 31.5l4 12h309
q-1 -8 -3.5 -20.5t-16.5 -50t-34.5 -71.5t-60.5 -75.5t-91.5 -71.5t-131.5 -50.5t-176 -20.5q-113 0 -209 31t-163 84t-113.5 125t-69 154t-22.5 171zM516 1219l102 319h377l-229 -321z" />
    <glyph glyph-name="ecircumflex" unicode="&#xea;" horiz-adv-x="1247" 
d="M844 653q-4 99 -61 154t-146 55q-90 0 -148.5 -57t-64.5 -152h420zM72 545q0 109 34.5 207.5t101.5 178.5t177 127.5t248 47.5q189 0 317.5 -85.5t183 -231.5t37.5 -336h-745q9 -108 67.5 -172t163.5 -64q47 0 84.5 12.5t57.5 30.5t33.5 36.5t17.5 31.5l4 12h309
q-1 -8 -3.5 -20.5t-16.5 -50t-34.5 -71.5t-60.5 -75.5t-91.5 -71.5t-131.5 -50.5t-176 -20.5q-113 0 -209 31t-163 84t-113.5 125t-69 154t-22.5 171zM266 1196l232 315h278l230 -315l-252 -2l-117 131l-117 -131z" />
    <glyph glyph-name="edieresis" unicode="&#xeb;" horiz-adv-x="1247" 
d="M844 653q-4 99 -61 154t-146 55q-90 0 -148.5 -57t-64.5 -152h420zM72 545q0 109 34.5 207.5t101.5 178.5t177 127.5t248 47.5q189 0 317.5 -85.5t183 -231.5t37.5 -336h-745q9 -108 67.5 -172t163.5 -64q47 0 84.5 12.5t57.5 30.5t33.5 36.5t17.5 31.5l4 12h309
q-1 -8 -3.5 -20.5t-16.5 -50t-34.5 -71.5t-60.5 -75.5t-91.5 -71.5t-131.5 -50.5t-176 -20.5q-113 0 -209 31t-163 84t-113.5 125t-69 154t-22.5 171zM215 1389q0 80 55.5 134t141.5 54q84 0 140 -54t56 -134q0 -75 -56.5 -130t-139.5 -55q-84 0 -140.5 55t-56.5 130z
M670 1389q0 80 55.5 134t142.5 54q84 0 140.5 -54t56.5 -134q0 -75 -57 -130t-140 -55q-86 0 -142 54.5t-56 130.5z" />
    <glyph glyph-name="igrave" unicode="&#xec;" horiz-adv-x="505" 
d="M76 0v1085h350v-1085h-350zM-106 1532h374l105 -315l-250 -3z" />
    <glyph glyph-name="iacute" unicode="&#xed;" horiz-adv-x="505" 
d="M76 0v1085h350v-1085h-350zM131 1217l102 319h377l-229 -322z" />
    <glyph glyph-name="icircumflex" unicode="&#xee;" horiz-adv-x="505" 
d="M76 0v1085h350v-1085h-350zM-119 1194l232 315h278l230 -315l-252 -2l-117 131l-117 -131z" />
    <glyph glyph-name="idieresis" unicode="&#xef;" horiz-adv-x="501" 
d="M76 0v1085h350v-1085h-350zM-172 1386q0 80 56 134.5t141 54.5q84 0 140 -54.5t56 -134.5q0 -75 -56.5 -129.5t-139.5 -54.5q-85 0 -141 54.5t-56 129.5zM283 1386q0 81 55.5 135t142.5 54q84 0 140.5 -54.5t56.5 -134.5q0 -75 -57 -129.5t-140 -54.5q-86 0 -142 54.5
t-56 129.5z" />
    <glyph glyph-name="eth" unicode="&#xf0;" horiz-adv-x="1290" 
d="M643 -20q-143 0 -257.5 48.5t-183.5 129t-105 179.5t-36 206q0 102 32.5 196.5t92.5 170t154.5 120.5t210.5 45q126 0 223 -57q-93 131 -252 252l-227 -133l-109 190l133 78q-46 27 -91 50.5t-67 33.5l-22 10l113 234q158 -51 346 -164l252 149l113 -188l-166 -98
q432 -345 432 -803q0 -113 -23 -211t-70.5 -178.5t-116.5 -138.5t-164.5 -89.5t-211.5 -31.5zM416 543q0 -73 24 -135.5t77.5 -105t127.5 -42.5q108 0 167.5 84.5t59.5 198.5t-60 198t-167 84q-56 0 -101 -24.5t-72.5 -65t-41.5 -89.5t-14 -103z" />
    <glyph glyph-name="ntilde" unicode="&#xf1;" horiz-adv-x="1230" 
d="M86 0v1085h350v-165q15 29 38.5 57.5t63 59.5t100.5 50t134 19q79 0 142.5 -21.5t106 -58t71 -86t41 -104.5t12.5 -115v-721h-350v649q0 88 -40 139.5t-124 51.5q-100 0 -147.5 -69.5t-47.5 -176.5v-594h-350zM244 1219q-4 290 213 290q51 0 96.5 -16.5t73 -36.5
t59.5 -36.5t59 -16.5q60 0 66 96h174q4 -291 -211 -291q-50 0 -95.5 16.5t-73 36t-61 36t-61.5 16.5q-32 0 -47 -23t-18 -71h-174z" />
    <glyph glyph-name="ograve" unicode="&#xf2;" 
d="M655 -20q-181 0 -314.5 74.5t-201 201t-67.5 287.5t67.5 287.5t201 201t314.5 74.5q180 0 313.5 -74.5t201 -201t67.5 -287.5t-67.5 -287.5t-201 -201t-313.5 -74.5zM295 1532h375l104 -315l-250 -3zM428 543q0 -139 61 -221t166 -82t165.5 82t60.5 221t-60.5 221
t-165.5 82t-166 -82t-61 -221z" />
    <glyph glyph-name="oacute" unicode="&#xf3;" 
d="M655 -20q-181 0 -314.5 74.5t-201 201t-67.5 287.5t67.5 287.5t201 201t314.5 74.5q180 0 313.5 -74.5t201 -201t67.5 -287.5t-67.5 -287.5t-201 -201t-313.5 -74.5zM428 543q0 -139 61 -221t166 -82t165.5 82t60.5 221t-60.5 221t-165.5 82t-166 -82t-61 -221zM539 1217
l102 319h377l-230 -322z" />
    <glyph glyph-name="ocircumflex" unicode="&#xf4;" 
d="M655 -20q-181 0 -314.5 74.5t-201 201t-67.5 287.5t67.5 287.5t201 201t314.5 74.5q180 0 313.5 -74.5t201 -201t67.5 -287.5t-67.5 -287.5t-201 -201t-313.5 -74.5zM283 1194l231 315h279l229 -315l-252 -2l-117 131l-116 -131zM428 543q0 -139 61 -221t166 -82
t165.5 82t60.5 221t-60.5 221t-165.5 82t-166 -82t-61 -221z" />
    <glyph glyph-name="otilde" unicode="&#xf5;" 
d="M655 -20q-181 0 -314.5 74.5t-201 201t-67.5 287.5t67.5 287.5t201 201t314.5 74.5q180 0 313.5 -74.5t201 -201t67.5 -287.5t-67.5 -287.5t-201 -201t-313.5 -74.5zM285 1219q-4 290 213 290q51 0 96.5 -16.5t73 -36.5t59.5 -36.5t59 -16.5q60 0 66 96h174
q4 -291 -211 -291q-50 0 -95.5 16.5t-73 36t-61 36t-61.5 16.5q-32 0 -47 -23t-18 -71h-174zM428 543q0 -139 61 -221t166 -82t165.5 82t60.5 221t-60.5 221t-165.5 82t-166 -82t-61 -221z" />
    <glyph glyph-name="odieresis" unicode="&#xf6;" 
d="M655 -20q-181 0 -314.5 74.5t-201 201t-67.5 287.5t67.5 287.5t201 201t314.5 74.5q180 0 313.5 -74.5t201 -201t67.5 -287.5t-67.5 -287.5t-201 -201t-313.5 -74.5zM231 1386q0 80 56 134.5t141 54.5q84 0 140.5 -54.5t56.5 -134.5q0 -75 -57 -129.5t-140 -54.5
q-85 0 -141 54.5t-56 129.5zM428 543q0 -139 61 -221t166 -82t165.5 82t60.5 221t-60.5 221t-165.5 82t-166 -82t-61 -221zM686 1386q0 80 56 134.5t143 54.5q84 0 140 -54.5t56 -134.5q0 -75 -56.5 -129.5t-139.5 -54.5q-86 0 -142.5 54.5t-56.5 129.5z" />
    <glyph glyph-name="divide" unicode="&#xf7;" horiz-adv-x="1290" 
d="M156 571v246h1024v-246h-1024zM98 238q0 93 62.5 157t158.5 64q95 0 158.5 -64t63.5 -157q0 -92 -64 -157t-158 -65q-95 0 -158 65.5t-63 156.5zM717 238q0 93 62.5 157t158.5 64q95 0 158 -64t63 -157q0 -92 -63.5 -157t-157.5 -65q-95 0 -158 65.5t-63 156.5z" />
    <glyph glyph-name="oslash" unicode="&#xf8;" horiz-adv-x="1286" 
d="M190 -80l97 168q-104 75 -159.5 193.5t-55.5 261.5q0 161 67.5 287.5t201 201t314.5 74.5q99 0 199 -27l49 86h240l-105 -180q96 -76 147.5 -190.5t51.5 -251.5q0 -161 -67.5 -287.5t-201 -201t-313.5 -74.5q-94 0 -180 22l-47 -82h-238zM428 543q0 -84 27 -160l260 455
q-24 8 -60 8q-105 0 -166 -82t-61 -221zM614 244q24 -4 41 -4q105 0 165.5 82t60.5 221q0 70 -19 135z" />
    <glyph glyph-name="ugrave" unicode="&#xf9;" horiz-adv-x="1206" 
d="M438 -20q-86 0 -151 25t-102.5 62.5t-60.5 88.5t-30.5 95t-7.5 91v743h350v-653q0 -84 38 -135t116 -51q92 0 136 67t44 166v606h350v-1085h-350v170q-15 -31 -37.5 -60t-60.5 -60.5t-99 -50.5t-135 -19zM236 1532h374l105 -315l-250 -3z" />
    <glyph glyph-name="uacute" unicode="&#xfa;" horiz-adv-x="1206" 
d="M438 -20q-86 0 -151 25t-102.5 62.5t-60.5 88.5t-30.5 95t-7.5 91v743h350v-653q0 -84 38 -135t116 -51q92 0 136 67t44 166v606h350v-1085h-350v170q-15 -31 -37.5 -60t-60.5 -60.5t-99 -50.5t-135 -19zM475 1217l103 319h376l-229 -322z" />
    <glyph glyph-name="ucircumflex" unicode="&#xfb;" horiz-adv-x="1206" 
d="M438 -20q-86 0 -151 25t-102.5 62.5t-60.5 88.5t-30.5 95t-7.5 91v743h350v-653q0 -84 38 -135t116 -51q92 0 136 67t44 166v606h350v-1085h-350v170q-15 -31 -37.5 -60t-60.5 -60.5t-99 -50.5t-135 -19zM225 1194l232 315h278l230 -315l-252 -2l-117 131l-117 -131z" />
    <glyph glyph-name="udieresis" unicode="&#xfc;" horiz-adv-x="1206" 
d="M438 -20q-86 0 -151 25t-102.5 62.5t-60.5 88.5t-30.5 95t-7.5 91v743h350v-653q0 -84 38 -135t116 -51q92 0 136 67t44 166v606h350v-1085h-350v170q-15 -31 -37.5 -60t-60.5 -60.5t-99 -50.5t-135 -19zM172 1386q0 80 56 134.5t141 54.5q84 0 140 -54.5t56 -134.5
q0 -75 -56.5 -129.5t-139.5 -54.5q-85 0 -141 54.5t-56 129.5zM627 1386q0 81 55.5 135t142.5 54q84 0 140.5 -54.5t56.5 -134.5q0 -75 -57 -129.5t-140 -54.5q-86 0 -142 54.5t-56 129.5z" />
    <glyph glyph-name="yacute" unicode="&#xfd;" horiz-adv-x="1210" 
d="M246 -418l188 453l-403 1050h356l231 -663l224 663h338l-580 -1503h-354zM485 1217l103 319h377l-230 -322z" />
    <glyph glyph-name="thorn" unicode="&#xfe;" horiz-adv-x="2658" 
d="M86 -410v1495h350v-131q105 152 330 152q120 0 215.5 -46t154.5 -124.5t90 -179t31 -213.5t-31 -213.5t-90 -179t-154.5 -124.5t-215.5 -46q-226 0 -330 151v-541h-350zM426 543q0 -135 63.5 -224.5t176.5 -89.5q112 0 174.5 89.5t62.5 224.5t-62 224t-175 89t-176.5 -89
t-63.5 -224zM1415 0v1556h350v-602q105 152 330 152q120 0 215.5 -46t155 -124.5t90.5 -179t31 -213.5t-31 -213.5t-90.5 -179t-155 -124.5t-215.5 -46q-226 0 -330 151v-131h-350zM1755 543q0 -135 63.5 -224.5t176.5 -89.5q112 0 174.5 89.5t62.5 224.5t-62 224t-175 89
t-176.5 -89t-63.5 -224z" />
    <glyph glyph-name="ydieresis" unicode="&#xff;" horiz-adv-x="1210" 
d="M246 -418l188 453l-403 1050h356l231 -663l224 663h338l-580 -1503h-354zM182 1386q0 80 56 134.5t141 54.5q84 0 140 -54.5t56 -134.5q0 -75 -56.5 -129.5t-139.5 -54.5q-85 0 -141 54.5t-56 129.5zM637 1386q0 80 56 134.5t143 54.5q84 0 140 -54.5t56 -134.5
q0 -75 -56.5 -129.5t-139.5 -54.5q-86 0 -142.5 54.5t-56.5 129.5z" />
    <glyph glyph-name="Amacron" unicode="&#x100;" horiz-adv-x="1568" 
d="M43 0l483 1516h516l484 -1516h-406l-94 317h-520l-94 -317h-369zM446 1683v197h680v-197h-680zM592 610h348l-174 592z" />
    <glyph glyph-name="amacron" unicode="&#x101;" horiz-adv-x="1155" 
d="M428 -20q-163 0 -267 84t-104 229q0 310 469 371l215 28v19q0 77 -38 121.5t-119 44.5q-45 0 -79 -14.5t-50.5 -35.5t-26 -42t-10.5 -35l-2 -15h-310q0 8 0.5 21t9 52t24 74t51.5 77.5t85.5 73.5t131.5 52t184 21q108 0 193 -22t138.5 -59t88.5 -88.5t49 -105.5t14 -116
v-715h-334v129q-1 -1 -19.5 -22t-30 -32.5t-40 -32t-56.5 -32t-72.5 -21t-94.5 -9.5zM254 1253v197h680v-197h-680zM383 317q0 -55 44 -85.5t112 -30.5q92 0 147 56.5t55 162.5v69l-116 -18q-242 -36 -242 -154z" />
    <glyph glyph-name="Abreve" unicode="&#x102;" horiz-adv-x="1564" 
d="M43 0l483 1516h516l484 -1516h-406l-94 317h-520l-94 -317h-369zM422 1948h207q0 -6 0.5 -15.5t8 -33.5t21.5 -42.5t47 -33.5t78 -15t77.5 14.5t47 35t22.5 41t9 35.5v14h205v-17t-6 -42.5t-17 -60t-37.5 -63.5t-63.5 -60.5t-98.5 -42.5t-138.5 -17t-138.5 16.5
t-98.5 43.5t-63.5 59t-38 64.5t-17.5 59.5t-6 44v16zM592 610h348l-174 592z" />
    <glyph glyph-name="abreve" unicode="&#x103;" horiz-adv-x="1155" 
d="M428 -20q-163 0 -267 84t-104 229q0 310 469 371l215 28v19q0 77 -38 121.5t-119 44.5q-45 0 -79 -14.5t-50.5 -35.5t-26 -42t-10.5 -35l-2 -15h-310q0 8 0.5 21t9 52t24 74t51.5 77.5t85.5 73.5t131.5 52t184 21q108 0 193 -22t138.5 -59t88.5 -88.5t49 -105.5t14 -116
v-715h-334v129q-1 -1 -19.5 -22t-30 -32.5t-40 -32t-56.5 -32t-72.5 -21t-94.5 -9.5zM231 1552h207q0 -6 1 -17t10 -38.5t24 -48.5t47 -38t76 -17t76 16.5t47 39.5t24 46.5t10 40.5l1 16h204q0 -7 -0.5 -19t-6.5 -46.5t-17.5 -66t-38.5 -70t-64 -66t-98 -46.5t-137 -19
q-77 0 -138.5 18.5t-98.5 47.5t-64 65t-38.5 71.5t-18 64.5t-6.5 48zM383 317q0 -55 44 -85.5t112 -30.5q92 0 147 56.5t55 162.5v69l-116 -18q-242 -36 -242 -154z" />
    <glyph glyph-name="Cacute" unicode="&#x106;" horiz-adv-x="1595" 
d="M844 -20q-160 0 -292.5 44t-223.5 118.5t-154 175t-92 212t-29 230.5q0 118 29 228.5t92 210.5t154 174.5t223.5 118.5t292.5 44q137 0 250.5 -32t185 -83t126 -112.5t81.5 -123t43.5 -112.5t19.5 -83l4 -32h-370q-1 6 -3 16t-11.5 38.5t-23.5 54.5t-40.5 57.5t-60 54.5
t-85 38.5t-112.5 15.5q-127 0 -218.5 -65t-135 -170t-43.5 -238t43.5 -238.5t135 -171t218.5 -65.5q61 0 112.5 15t85 39t60 53t40.5 58t23.5 53t12.5 39l2 15h370q-1 -7 -2.5 -20t-10 -52.5t-22 -77.5t-40.5 -90t-62 -96.5t-90.5 -90.5t-122 -78t-159.5 -52t-201 -20z
M729 1642l102 320h377l-229 -322z" />
    <glyph glyph-name="cacute" unicode="&#x107;" horiz-adv-x="1251" 
d="M649 -20q-113 0 -208.5 30.5t-162.5 83.5t-114 125t-69.5 154t-22.5 170t22.5 170t69.5 154t114 125t162.5 83.5t208.5 30.5q81 0 151 -14.5t120 -39t91 -56t67 -66.5t46 -70t29.5 -66.5t15.5 -56t7 -39.5l2 -14h-322q-1 7 -3.5 18t-15.5 40t-32.5 51.5t-58.5 40.5
t-89 18q-111 0 -173 -85t-62 -224t62 -224.5t173 -85.5q50 0 89 17.5t58.5 42t32.5 49t16 42.5l3 17h322q-1 -9 -2.5 -24t-14 -59t-32 -83.5t-60 -88t-94 -83.5t-138.5 -59t-188 -24zM543 1217l102 319h377l-229 -322z" />
    <glyph glyph-name="Cdotaccent" unicode="&#x10a;" horiz-adv-x="1595" 
d="M844 -20q-160 0 -292.5 44t-223.5 118.5t-154 175t-92 212t-29 230.5q0 118 29 228.5t92 210.5t154 174.5t223.5 118.5t292.5 44q137 0 250.5 -32t185 -83t126 -112.5t81.5 -123t43.5 -112.5t19.5 -83l4 -32h-370q-1 6 -3 16t-11.5 38.5t-23.5 54.5t-40.5 57.5t-60 54.5
t-85 38.5t-112.5 15.5q-127 0 -218.5 -65t-135 -170t-43.5 -238t43.5 -238.5t135 -171t218.5 -65.5q61 0 112.5 15t85 39t60 53t40.5 58t23.5 53t12.5 39l2 15h370q-1 -7 -2.5 -20t-10 -52.5t-22 -77.5t-40.5 -90t-62 -96.5t-90.5 -90.5t-122 -78t-159.5 -52t-201 -20z
M637 1815q0 84 58.5 140t148.5 56q89 0 148 -56t59 -140q0 -79 -59.5 -137t-147.5 -58q-89 0 -148 57.5t-59 137.5z" />
    <glyph glyph-name="cdotaccent" unicode="&#x10b;" horiz-adv-x="1251" 
d="M649 -20q-113 0 -208.5 30.5t-162.5 83.5t-114 125t-69.5 154t-22.5 170t22.5 170t69.5 154t114 125t162.5 83.5t208.5 30.5q81 0 151 -14.5t120 -39t91 -56t67 -66.5t46 -70t29.5 -66.5t15.5 -56t7 -39.5l2 -14h-322q-1 7 -3.5 18t-15.5 40t-32.5 51.5t-58.5 40.5
t-89 18q-111 0 -173 -85t-62 -224t62 -224.5t173 -85.5q50 0 89 17.5t58.5 42t32.5 49t16 42.5l3 17h322q-1 -9 -2.5 -24t-14 -59t-32 -83.5t-60 -88t-94 -83.5t-138.5 -59t-188 -24zM451 1389q0 84 58 140t148 56q89 0 148 -56t59 -140q0 -79 -59.5 -137t-147.5 -58
q-89 0 -147.5 57.5t-58.5 137.5z" />
    <glyph glyph-name="Ccaron" unicode="&#x10c;" horiz-adv-x="1607" 
d="M844 -20q-160 0 -292.5 44t-223.5 118.5t-154 175t-92 212t-29 230.5q0 118 29 228.5t92 210.5t154 174.5t223.5 118.5t292.5 44q137 0 250.5 -32t185 -83t126 -112.5t81.5 -123t43.5 -112.5t19.5 -83l4 -32h-370q-1 6 -3 16t-11.5 38.5t-23.5 54.5t-40.5 57.5t-60 54.5
t-85 38.5t-112.5 15.5q-127 0 -218.5 -65t-135 -170t-43.5 -238t43.5 -238.5t135 -171t218.5 -65.5q61 0 112.5 15t85 39t60 53t40.5 58t23.5 53t12.5 39l2 15h370q-1 -7 -2.5 -20t-10 -52.5t-22 -77.5t-40.5 -90t-62 -96.5t-90.5 -90.5t-122 -78t-159.5 -52t-201 -20z
M481 1952l254 2l117 -131l117 131l252 -2l-230 -316h-278z" />
    <glyph glyph-name="ccaron" unicode="&#x10d;" horiz-adv-x="1249" 
d="M649 -20q-113 0 -208.5 30.5t-162.5 83.5t-114 125t-69.5 154t-22.5 170t22.5 170t69.5 154t114 125t162.5 83.5t208.5 30.5q81 0 151 -14.5t120 -39t91 -56t67 -66.5t46 -70t29.5 -66.5t15.5 -56t7 -39.5l2 -14h-322q-1 7 -3.5 18t-15.5 40t-32.5 51.5t-58.5 40.5
t-89 18q-111 0 -173 -85t-62 -224t62 -224.5t173 -85.5q50 0 89 17.5t58.5 42t32.5 49t16 42.5l3 17h322q-1 -9 -2.5 -24t-14 -59t-32 -83.5t-60 -88t-94 -83.5t-138.5 -59t-188 -24zM287 1526l254 2l116 -131l117 131l252 -2l-229 -316h-279z" />
    <glyph glyph-name="Dcaron" unicode="&#x10e;" horiz-adv-x="1533" 
d="M86 0v1516h582q167 0 304.5 -42.5t230.5 -115t157 -170.5t92.5 -205.5t28.5 -224.5t-28.5 -224.5t-92.5 -205.5t-157 -170.5t-230.5 -115t-304.5 -42.5h-582zM354 1956l254 2l117 -131l117 131l252 -2l-230 -316h-278zM471 301h174q96 0 173 26t127 69t83.5 102.5
t47.5 124t14 135.5q0 90 -23.5 168.5t-73.5 144.5t-139 104.5t-209 38.5h-174v-913z" />
    <glyph glyph-name="dcaron" unicode="&#x10f;" horiz-adv-x="1769" 
d="M563 -20q-120 0 -215.5 46t-154.5 124.5t-90 179t-31 213.5t31 213.5t90 179t154.5 124.5t215.5 46q225 0 330 -152v602h350v-1556h-350v131q-104 -151 -330 -151zM426 543q0 -135 62.5 -224.5t175.5 -89.5t176 89.5t63 224.5t-63 224t-176 89t-175.5 -89t-62.5 -224z
M1374 967l21 549h338l-113 -549h-246z" />
    <glyph glyph-name="Dcroat" unicode="&#x110;" horiz-adv-x="1564" 
d="M-53 625v266h182v625h582q167 0 304.5 -42.5t230.5 -115t157 -170.5t92.5 -205.5t28.5 -224.5t-28.5 -224.5t-92.5 -205.5t-157 -170.5t-230.5 -115t-304.5 -42.5h-582v625h-182zM514 301h174q96 0 173 26t127 69t83.5 102.5t47.5 124t14 135.5q0 90 -23.5 168.5
t-73.5 144.5t-139 104.5t-209 38.5h-174v-323h291v-266h-291v-324z" />
    <glyph glyph-name="dcroat" unicode="&#x111;" horiz-adv-x="1409" 
d="M616 1202v197h277v157h350v-157h154v-197h-154v-1202h-350v131q-104 -151 -330 -151q-120 0 -215.5 46t-154.5 124.5t-90 179t-31 213.5t31 213.5t90 179t154.5 124.5t215.5 46q225 0 330 -152v248h-277zM426 543q0 -135 62.5 -224.5t175.5 -89.5t176 89.5t63 224.5
t-63 224t-176 89t-175.5 -89t-62.5 -224z" />
    <glyph glyph-name="Emacron" unicode="&#x112;" horiz-adv-x="1243" 
d="M86 0v1516h1098v-314h-713v-284h600v-308h-600v-297h715v-313h-1100zM276 1683v197h680v-197h-680z" />
    <glyph glyph-name="emacron" unicode="&#x113;" horiz-adv-x="1247" 
d="M844 653q-4 99 -61 154t-146 55q-90 0 -148.5 -57t-64.5 -152h420zM72 545q0 109 34.5 207.5t101.5 178.5t177 127.5t248 47.5q189 0 317.5 -85.5t183 -231.5t37.5 -336h-745q9 -108 67.5 -172t163.5 -64q47 0 84.5 12.5t57.5 30.5t33.5 36.5t17.5 31.5l4 12h309
q-1 -8 -3.5 -20.5t-16.5 -50t-34.5 -71.5t-60.5 -75.5t-91.5 -71.5t-131.5 -50.5t-176 -20.5q-113 0 -209 31t-163 84t-113.5 125t-69 154t-22.5 171zM297 1255v197h680v-197h-680z" />
    <glyph glyph-name="Edotaccent" unicode="&#x116;" horiz-adv-x="1243" 
d="M86 0v1516h1098v-314h-713v-284h600v-308h-600v-297h715v-313h-1100zM410 1819q0 84 58 140t148 56q89 0 148 -56t59 -140q0 -79 -59.5 -137t-147.5 -58q-89 0 -147.5 57.5t-58.5 137.5z" />
    <glyph glyph-name="edotaccent" unicode="&#x117;" horiz-adv-x="1247" 
d="M844 653q-4 99 -61 154t-146 55q-90 0 -148.5 -57t-64.5 -152h420zM72 545q0 109 34.5 207.5t101.5 178.5t177 127.5t248 47.5q189 0 317.5 -85.5t183 -231.5t37.5 -336h-745q9 -108 67.5 -172t163.5 -64q47 0 84.5 12.5t57.5 30.5t33.5 36.5t17.5 31.5l4 12h309
q-1 -8 -3.5 -20.5t-16.5 -50t-34.5 -71.5t-60.5 -75.5t-91.5 -71.5t-131.5 -50.5t-176 -20.5q-113 0 -209 31t-163 84t-113.5 125t-69 154t-22.5 171zM430 1391q0 84 58.5 140t148.5 56q89 0 148 -56t59 -140q0 -79 -59.5 -137t-147.5 -58q-89 0 -148 57.5t-59 137.5z" />
    <glyph glyph-name="Ecaron" unicode="&#x11a;" horiz-adv-x="1243" 
d="M86 0v1516h1098v-314h-713v-284h600v-308h-600v-297h715v-313h-1100zM246 1956l254 2l116 -131l117 131l252 -2l-229 -316h-279z" />
    <glyph glyph-name="ecaron" unicode="&#x11b;" horiz-adv-x="1247" 
d="M844 653q-4 99 -61 154t-146 55q-90 0 -148.5 -57t-64.5 -152h420zM72 545q0 109 34.5 207.5t101.5 178.5t177 127.5t248 47.5q189 0 317.5 -85.5t183 -231.5t37.5 -336h-745q9 -108 67.5 -172t163.5 -64q47 0 84.5 12.5t57.5 30.5t33.5 36.5t17.5 31.5l4 12h309
q-1 -8 -3.5 -20.5t-16.5 -50t-34.5 -71.5t-60.5 -75.5t-91.5 -71.5t-131.5 -50.5t-176 -20.5q-113 0 -209 31t-163 84t-113.5 125t-69 154t-22.5 171zM266 1528l254 2l117 -131l117 131l252 -2l-230 -316h-278z" />
    <glyph glyph-name="Gbreve" unicode="&#x11e;" horiz-adv-x="1624" 
d="M852 -20q-162 0 -296.5 44t-226 118.5t-155 175t-92.5 212t-29 230.5q0 118 29 228.5t92 210.5t154.5 174.5t225 118.5t294.5 44q105 0 196 -17.5t156 -47.5t119 -68.5t89 -81t61.5 -85t40 -81t22 -68.5t10.5 -47l2 -18h-375q-1 9 -4.5 24t-24 54t-51.5 68.5t-93.5 54
t-143.5 24.5q-129 0 -221 -66t-136 -173.5t-44 -243.5q0 -138 44 -245.5t138 -173.5t227 -66q143 0 236 75t121 211h-375v269h729v-91q0 -151 -36 -276.5t-100.5 -214.5t-154 -151t-197.5 -91.5t-231 -29.5zM494 1982h206q0 -6 1 -17t10 -38.5t24 -48.5t47 -38t76 -17
t76 16.5t47 39.5t24 46.5t10 40.5l1 16h205q0 -7 -0.5 -19t-6.5 -46.5t-18 -66t-39 -70t-64 -66t-98 -46.5t-137 -19q-77 0 -138 18.5t-98 47.5t-64 65t-39 71.5t-18.5 64.5t-6.5 48v18z" />
    <glyph glyph-name="gbreve" unicode="&#x11f;" horiz-adv-x="1288" 
d="M655 -442q-87 0 -160.5 12.5t-125.5 34.5t-94 49.5t-68 58.5t-45.5 62t-28 58.5t-14 49.5t-5.5 35l-1 12h333q1 -6 3 -16t15.5 -35t34 -44.5t62 -35.5t96.5 -16q117 0 172.5 78.5t55.5 212.5v110q-100 -149 -324 -149q-118 0 -213 44.5t-154.5 120t-90.5 170t-31 199.5
t31.5 200t90.5 171t154 121t213 45q62 0 115 -12.5t85 -28t61 -41t39 -38t24 -32.5v131h340v-1022q0 -107 -34 -197t-102 -159.5t-179 -109t-255 -39.5zM293 1552h207q0 -6 1 -17t9.5 -38.5t23.5 -48.5t47 -38t76 -17t76 16.5t47 39.5t24 46.5t10 40.5l1 16h205
q0 -7 -0.5 -19t-6.5 -46.5t-18 -66t-39 -70t-64 -66t-98 -46.5t-137 -19q-77 0 -138 18.5t-98 47.5t-64 65t-39 71.5t-18.5 64.5t-6.5 48v18zM428 569q0 -125 59.5 -207.5t169.5 -82.5q112 0 173 82.5t61 207.5t-61 209t-173 84q-110 0 -169.5 -83.5t-59.5 -209.5z" />
    <glyph glyph-name="Gdotaccent" unicode="&#x120;" horiz-adv-x="1617" 
d="M852 -20q-162 0 -296.5 44t-226 118.5t-155 175t-92.5 212t-29 230.5q0 118 29 228.5t92 210.5t154.5 174.5t225 118.5t294.5 44q105 0 196 -17.5t156 -47.5t119 -68.5t89 -81t61.5 -85t40 -81t22 -68.5t10.5 -47l2 -18h-375q-1 9 -4.5 24t-24 54t-51.5 68.5t-93.5 54
t-143.5 24.5q-129 0 -221 -66t-136 -173.5t-44 -243.5q0 -138 44 -245.5t138 -173.5t227 -66q143 0 236 75t121 211h-375v269h729v-91q0 -151 -36 -276.5t-100.5 -214.5t-154 -151t-197.5 -91.5t-231 -29.5zM647 1819q0 84 58.5 140t148.5 56q89 0 148 -56t59 -140
q0 -79 -59.5 -137t-147.5 -58q-89 0 -148 57.5t-59 137.5z" />
    <glyph glyph-name="gdotaccent" unicode="&#x121;" horiz-adv-x="1292" 
d="M655 -442q-87 0 -160.5 12.5t-125.5 34.5t-94 49.5t-68 58.5t-45.5 62t-28 58.5t-14 49.5t-5.5 35l-1 12h333q1 -6 3 -16t15.5 -35t34 -44.5t62 -35.5t96.5 -16q117 0 172.5 78.5t55.5 212.5v110q-100 -149 -324 -149q-118 0 -213 44.5t-154.5 120t-90.5 170t-31 199.5
t31.5 200t90.5 171t154 121t213 45q62 0 115 -12.5t85 -28t61 -41t39 -38t24 -32.5v131h340v-1022q0 -107 -34 -197t-102 -159.5t-179 -109t-255 -39.5zM428 569q0 -125 59.5 -207.5t169.5 -82.5q112 0 173 82.5t61 207.5t-61 209t-173 84q-110 0 -169.5 -83.5t-59.5 -209.5
zM449 1389q0 84 58 140t148 56q89 0 148 -56t59 -140q0 -79 -59.5 -137t-147.5 -58q-89 0 -147.5 57.5t-58.5 137.5z" />
    <glyph glyph-name="uni0122" unicode="&#x122;" horiz-adv-x="1624" 
d="M852 -20q-162 0 -296.5 44t-226 118.5t-155 175t-92.5 212t-29 230.5q0 118 29 228.5t92 210.5t154.5 174.5t225 118.5t294.5 44q105 0 196 -17.5t156 -47.5t119 -68.5t89 -81t61.5 -85t40 -81t22 -68.5t10.5 -47l2 -18h-375q-1 9 -4.5 24t-24 54t-51.5 68.5t-93.5 54
t-143.5 24.5q-129 0 -221 -66t-136 -173.5t-44 -243.5q0 -138 44 -245.5t138 -173.5t227 -66q143 0 236 75t121 211h-375v269h729v-11q10 2 31 2q73 0 122.5 -47.5t49.5 -122.5q0 -62 -39.5 -136t-139.5 -216l-14 -20h-119l127 215q-17 0 -45 8q-60 -258 -245 -392
t-447 -134z" />
    <glyph glyph-name="uni0123" unicode="&#x123;" horiz-adv-x="1288" 
d="M655 -442q-87 0 -160.5 12.5t-125.5 34.5t-94 49.5t-68 58.5t-45.5 62t-28 58.5t-14 49.5t-5.5 35l-1 12h333q1 -6 3 -16t15.5 -35t34 -44.5t62 -35.5t96.5 -16q117 0 172.5 78.5t55.5 212.5v110q-100 -149 -324 -149q-118 0 -213 44.5t-154.5 120t-90.5 170t-31 199.5
t31.5 200t90.5 171t154 121t213 45q62 0 115 -12.5t85 -28t61 -41t39 -38t24 -32.5v131h340v-1022q0 -107 -34 -197t-102 -159.5t-179 -109t-255 -39.5zM428 569q0 -125 59.5 -207.5t169.5 -82.5q112 0 173 82.5t61 207.5t-61 209t-173 84q-110 0 -169.5 -83.5t-59.5 -209.5
zM485 1393q0 62 39.5 136t139.5 216l14 20h119l-127 -215q66 -3 110.5 -50t44.5 -114q0 -71 -47.5 -117t-120.5 -46t-122.5 47.5t-49.5 122.5z" />
    <glyph glyph-name="Hbar" unicode="&#x126;" horiz-adv-x="1490" 
d="M-33 1100v252h107v164h385v-164h555v164h385v-164h125v-252h-125v-1100h-385v606h-555v-606h-385v1100h-107zM459 928h555v172h-555v-172z" />
    <glyph glyph-name="hbar" unicode="&#x127;" horiz-adv-x="1177" 
d="M-53 1167v219h129v170h350v-170h293v-219h-293v-247q15 29 38.5 57.5t63 59.5t100.5 50t134 19q79 0 142.5 -21.5t106 -58t71 -86t41 -104.5t12.5 -115v-721h-351v649q0 88 -39.5 139.5t-123.5 51.5q-100 0 -147.5 -69.5t-47.5 -176.5v-594h-350v1167h-129z" />
    <glyph glyph-name="Itilde" unicode="&#x128;" horiz-adv-x="557" 
d="M86 0v1516h385v-1516h-385zM-100 1649q-4 290 213 290q51 0 96.5 -16.5t73 -36.5t59.5 -36.5t59 -16.5q60 0 66 96h174q4 -291 -211 -291q-50 0 -95.5 16.5t-73 36t-61 36t-61.5 16.5q-32 0 -47 -23t-18 -71h-174z" />
    <glyph glyph-name="itilde" unicode="&#x129;" horiz-adv-x="505" 
d="M76 0v1085h350v-1085h-350zM-119 1219q-4 290 213 290q51 0 97 -16.5t73.5 -36.5t59.5 -36.5t59 -16.5q60 0 66 96h174q4 -291 -211 -291q-50 0 -95.5 16.5t-73 36t-61 36t-61.5 16.5q-33 0 -48 -23t-18 -71h-174z" />
    <glyph glyph-name="Imacron" unicode="&#x12a;" horiz-adv-x="557" 
d="M86 0v1516h385v-1516h-385zM-70 1683v197h680v-197h-680z" />
    <glyph glyph-name="imacron" unicode="&#x12b;" horiz-adv-x="555" 
d="M76 0v1085h350v-1085h-350zM-61 1253v197h679v-197h-679z" />
    <glyph glyph-name="Idotaccent" unicode="&#x130;" horiz-adv-x="557" 
d="M86 0v1516h385v-1516h-385zM63 1819q0 84 58.5 140t148.5 56q89 0 148 -56t59 -140q0 -79 -59.5 -137t-147.5 -58q-89 0 -148 57.5t-59 137.5z" />
    <glyph glyph-name="dotlessi" unicode="&#x131;" horiz-adv-x="501" 
d="M76 0v1085h350v-1085h-350z" />
    <glyph glyph-name="uni0136" unicode="&#x136;" horiz-adv-x="1484" 
d="M975 0l-504 688v-688h-385v1516h385v-658l500 658h438l-584 -723l605 -793h-455zM1307 662q0 71 47.5 117t120.5 46t122.5 -47.5t49.5 -122.5q0 -62 -39.5 -136t-139.5 -216l-14 -20h-119l127 215q-66 3 -110.5 50t-44.5 114z" />
    <glyph glyph-name="uni0137" unicode="&#x137;" horiz-adv-x="1236" 
d="M795 0l-359 535v-535h-350v1556h350v-948l355 477h395l-422 -497l442 -588h-411zM1143 662q0 71 47.5 117t120.5 46t122.5 -47.5t49.5 -122.5q0 -62 -39.5 -136.5t-138.5 -215.5l-15 -20h-119l127 215q-66 3 -110.5 50t-44.5 114z" />
    <glyph glyph-name="Lacute" unicode="&#x139;" horiz-adv-x="1243" 
d="M86 0v1516h385v-1203h698v-313h-1083zM193 1647l102 319h377l-230 -321z" />
    <glyph glyph-name="lacute" unicode="&#x13a;" horiz-adv-x="522" 
d="M86 0v1556h350v-1556h-350zM121 1690l102 319h377l-229 -321z" />
    <glyph glyph-name="uni013B" unicode="&#x13b;" horiz-adv-x="1232" 
d="M86 0v1516h385v-1203h698v-313h-1083zM1212 662q0 71 47.5 117t120.5 46t122.5 -47.5t49.5 -122.5q0 -62 -39.5 -136.5t-138.5 -215.5l-14 -20h-119l127 215q-66 3 -111 50t-45 114z" />
    <glyph glyph-name="uni013C" unicode="&#x13c;" horiz-adv-x="522" 
d="M86 0v1556h350v-1556h-350zM825 662q0 71 47.5 117t120.5 46t122.5 -47.5t49.5 -122.5q0 -62 -39.5 -136.5t-138.5 -215.5l-14 -20h-119l127 215q-66 3 -111 50t-45 114z" />
    <glyph glyph-name="Lcaron" unicode="&#x13d;" horiz-adv-x="1226" 
d="M86 0v1516h385v-1203h698v-313h-1083zM-63 1956l253 2l117 -131l117 131l252 -2l-230 -316h-278z" />
    <glyph glyph-name="lcaron" unicode="&#x13e;" horiz-adv-x="962" 
d="M86 0v1556h350v-1556h-350zM567 967l21 549h338l-113 -549h-246z" />
    <glyph glyph-name="Lslash" unicode="&#x141;" horiz-adv-x="1116" 
d="M-72 496v252l121 55v713h385v-537l281 127v-254l-281 -127v-412h699v-313h-1084v551z" />
    <glyph glyph-name="lslash" unicode="&#x142;" horiz-adv-x="720" 
d="M-33 477v254l166 76v749h350v-589l271 123v-254l-271 -123v-713h-350v553z" />
    <glyph glyph-name="Nacute" unicode="&#x143;" horiz-adv-x="1515" 
d="M86 0v1516h414l555 -945v945h375v-1516h-418l-553 944v-944h-373zM608 1647l103 319h376l-229 -321z" />
    <glyph glyph-name="nacute" unicode="&#x144;" horiz-adv-x="1224" 
d="M86 0v1085h350v-165q15 29 38.5 57.5t63 59.5t100.5 50t134 19q79 0 142.5 -21.5t106 -58t71 -86t41 -104.5t12.5 -115v-721h-350v649q0 88 -40 139.5t-124 51.5q-100 0 -147.5 -69.5t-47.5 -176.5v-594h-350zM471 1217l102 319h377l-229 -322z" />
    <glyph glyph-name="uni0145" unicode="&#x145;" horiz-adv-x="1515" 
d="M86 0v1516h414l555 -945v945h375v-697q21 6 49 6q73 0 122.5 -47.5t49.5 -122.5q0 -62 -39.5 -136.5t-138.5 -215.5l-15 -20h-28v-283h-418l-553 944v-944h-373zM1430 436l36 62q-18 0 -36 6v-68z" />
    <glyph glyph-name="uni0146" unicode="&#x146;" horiz-adv-x="1230" 
d="M86 0v1085h350v-165q15 29 38.5 57.5t63 59.5t100.5 50t134 19q79 0 142.5 -21.5t106 -58t71 -86t41 -104.5t12.5 -115v-721h-350v649q0 88 -40 139.5t-124 51.5q-100 0 -147.5 -69.5t-47.5 -176.5v-594h-350zM1178 662q0 71 47.5 117t120.5 46t122.5 -47.5t49.5 -122.5
q0 -62 -39.5 -136t-139.5 -216l-14 -20h-119l127 215q-66 3 -110.5 50t-44.5 114z" />
    <glyph glyph-name="Ncaron" unicode="&#x147;" horiz-adv-x="1515" 
d="M86 0v1516h414l555 -945v945h375v-1516h-418l-553 944v-944h-373zM377 1956l254 2l117 -131l116 131l252 -2l-229 -316h-279z" />
    <glyph glyph-name="ncaron" unicode="&#x148;" horiz-adv-x="1230" 
d="M86 0v1085h350v-165q15 29 38.5 57.5t63 59.5t100.5 50t134 19q79 0 142.5 -21.5t106 -58t71 -86t41 -104.5t12.5 -115v-721h-350v649q0 88 -40 139.5t-124 51.5q-100 0 -147.5 -69.5t-47.5 -176.5v-594h-350zM244 1526l254 2l116 -131l117 131l252 -2l-229 -316h-279z
" />
    <glyph glyph-name="Omacron" unicode="&#x14c;" horiz-adv-x="1685" 
d="M844 -20q-153 0 -283 41.5t-222.5 114.5t-157.5 171.5t-96.5 213t-31.5 239.5q0 124 31.5 237.5t96.5 212t157.5 171t222.5 114t283 41.5t282.5 -41.5t221.5 -114t157 -171t96 -212t31 -237.5q0 -125 -31 -239.5t-96 -213t-157 -171.5t-221.5 -114.5t-282.5 -41.5z
M453 760q0 -204 104 -335.5t287 -131.5q182 0 286.5 132t104.5 335q0 131 -45 235t-135 167t-211 63q-122 0 -212 -63t-134.5 -167t-44.5 -235zM504 1704v197h680v-197h-680z" />
    <glyph glyph-name="omacron" unicode="&#x14d;" 
d="M655 -20q-181 0 -314.5 74.5t-201 201t-67.5 287.5t67.5 287.5t201 201t314.5 74.5q180 0 313.5 -74.5t201 -201t67.5 -287.5t-67.5 -287.5t-201 -201t-313.5 -74.5zM315 1253v197h680v-197h-680zM428 543q0 -139 61 -221t166 -82t165.5 82t60.5 221t-60.5 221t-165.5 82
t-166 -82t-61 -221z" />
    <glyph glyph-name="Ohungarumlaut" unicode="&#x150;" horiz-adv-x="1685" 
d="M844 -20q-153 0 -283 41.5t-222.5 114.5t-157.5 171.5t-96.5 213t-31.5 239.5q0 124 31.5 237.5t96.5 212t157.5 171t222.5 114t283 41.5t282.5 -41.5t221.5 -114t157 -171t96 -212t31 -237.5q0 -125 -31 -239.5t-96 -213t-157 -171.5t-221.5 -114.5t-282.5 -41.5z
M453 760q0 -204 104 -335.5t287 -131.5q182 0 286.5 132t104.5 335q0 131 -45 235t-135 167t-211 63q-122 0 -212 -63t-134.5 -167t-44.5 -235zM524 1683l97 367h301l-162 -369zM920 1683l96 367h303l-164 -369z" />
    <glyph glyph-name="ohungarumlaut" unicode="&#x151;" 
d="M655 -20q-181 0 -314.5 74.5t-201 201t-67.5 287.5t67.5 287.5t201 201t314.5 74.5q180 0 313.5 -74.5t201 -201t67.5 -287.5t-67.5 -287.5t-201 -201t-313.5 -74.5zM336 1233l96 366h301l-162 -368zM428 543q0 -139 61 -221t166 -82t165.5 82t60.5 221t-60.5 221
t-165.5 82t-166 -82t-61 -221zM731 1233l96 366h303l-163 -368z" />
    <glyph glyph-name="OE" unicode="&#x152;" horiz-adv-x="2088" 
d="M2019 1516v-308h-712v-293h620v-292h-620v-316h723v-307h-1168q-161 0 -296 42.5t-228 115t-158 170t-95 206t-30 224.5t30 224.5t95 206t158 170t228 115t296 42.5h1157zM412 754q0 -86 26 -162.5t78 -140.5t141.5 -102t206.5 -38h88v889h-88q-117 0 -206.5 -38
t-141.5 -102t-78 -141.5t-26 -164.5z" />
    <glyph glyph-name="oe" unicode="&#x153;" horiz-adv-x="1996" 
d="M631 -20q-132 0 -241 45.5t-180 123t-110 179.5t-39 215t39 215t110 179.5t180 123t241 45.5q255 0 393 -176q129 176 383 176q240 0 384 -151.5t144 -419.5v-82h-729q6 -91 63.5 -150t153.5 -59q42 0 76.5 11.5t53.5 28t31.5 33t17.5 27.5l4 12h321q-1 -8 -4 -21.5
t-18 -52.5t-35.5 -74.5t-61 -79t-90.5 -74.5t-127.5 -52.5t-169.5 -21.5q-264 0 -395 178q-137 -178 -395 -178zM401 543q0 -119 63 -200t167 -81t166.5 81t62.5 200t-62.5 199.5t-166.5 80.5t-167 -80.5t-63 -199.5zM1206 664h393q-3 89 -55.5 135.5t-132.5 46.5
q-82 0 -138.5 -47.5t-66.5 -134.5z" />
    <glyph glyph-name="Racute" unicode="&#x154;" horiz-adv-x="1427" 
d="M86 0v1516h627q120 0 217.5 -27t161.5 -72.5t107 -107.5t62 -129.5t19 -141.5q0 -90 -27 -168.5t-91 -147.5t-161 -108l385 -614h-434l-311 561h-170v-561h-385zM471 827h205q60 0 104 17.5t67 48t33.5 64t10.5 71.5q0 37 -10.5 70.5t-33.5 64t-67 48.5t-104 18h-205
v-402zM580 1647l102 319h377l-230 -321z" />
    <glyph glyph-name="racute" unicode="&#x155;" horiz-adv-x="835" 
d="M86 0v1085h338v-188q21 50 42.5 84.5t54 64.5t79 45t107.5 15q17 0 34.5 -2t26.5 -4l8 -2v-314q-33 7 -84 7q-132 0 -197 -63.5t-65 -225.5v-502h-344zM229 1217l103 319h377l-230 -322z" />
    <glyph glyph-name="uni0156" unicode="&#x156;" horiz-adv-x="1417" 
d="M86 0v1516h627q120 0 217.5 -27t161.5 -72.5t107 -107.5t62 -129.5t19 -141.5q0 -90 -27 -168.5t-91 -147.5t-161 -108l385 -614h-434l-311 561h-170v-561h-385zM471 827h205q60 0 104 17.5t67 48t33.5 64t10.5 71.5q0 37 -10.5 70.5t-33.5 64t-67 48.5t-104 18h-205
v-402zM1262 662q0 71 47.5 117t120.5 46t122.5 -47.5t49.5 -122.5q0 -62 -39.5 -136t-139.5 -216l-14 -20h-119l127 215q-66 3 -110.5 50t-44.5 114z" />
    <glyph glyph-name="uni0157" unicode="&#x157;" horiz-adv-x="833" 
d="M86 0v1085h338v-188q21 50 42.5 84.5t54 64.5t79 45t107.5 15q17 0 34.5 -2t26.5 -4l8 -2v-314q-33 7 -84 7q-132 0 -197 -63.5t-65 -225.5v-502h-344zM776 662q0 71 47.5 117t120.5 46t122.5 -47.5t49.5 -122.5q0 -62 -39.5 -136.5t-138.5 -215.5l-14 -20h-119l127 215
q-66 3 -111 50t-45 114z" />
    <glyph glyph-name="Rcaron" unicode="&#x158;" horiz-adv-x="1425" 
d="M86 0v1516h627q120 0 217.5 -27t161.5 -72.5t107 -107.5t62 -129.5t19 -141.5q0 -90 -27 -168.5t-91 -147.5t-161 -108l385 -614h-434l-311 561h-170v-561h-385zM324 1956l254 2l116 -131l117 131l252 -2l-229 -316h-279zM471 827h205q60 0 104 17.5t67 48t33.5 64
t10.5 71.5q0 37 -10.5 70.5t-33.5 64t-67 48.5t-104 18h-205v-402z" />
    <glyph glyph-name="rcaron" unicode="&#x159;" horiz-adv-x="833" 
d="M86 0v1085h338v-188q21 50 42.5 84.5t54 64.5t79 45t107.5 15q17 0 34.5 -2t26.5 -4l8 -2v-314q-33 7 -84 7q-132 0 -197 -63.5t-65 -225.5v-502h-344zM-2 1526l254 2l117 -131l116 131l252 -2l-229 -316h-279z" />
    <glyph glyph-name="Sacute" unicode="&#x15a;" horiz-adv-x="1411" 
d="M731 -20q-140 0 -253 29t-181.5 75.5t-118.5 103t-72 113t-34.5 103t-13.5 75.5l-1 29h379q0 -5 0.5 -14t6 -35t15.5 -49t32 -52t52 -49.5t80 -34.5t111 -14q110 0 171 51.5t61 124.5q0 117 -166 146l-228 45q-238 45 -354.5 150.5t-116.5 283.5q0 204 160.5 339.5
t439.5 135.5q101 0 187 -16.5t146 -45t109 -65t78.5 -77t51.5 -80.5t32 -76.5t16 -65t6 -44.5l1 -17h-354q0 9 -2 23t-17 50.5t-40.5 64t-81 50.5t-130.5 23q-101 0 -161 -49t-60 -117q0 -56 40.5 -92t135.5 -54l238 -45q223 -41 340 -151.5t117 -280.5q0 -100 -42 -188.5
t-119 -156t-196 -107t-264 -39.5zM604 1647l103 319h376l-229 -321z" />
    <glyph glyph-name="sacute" unicode="&#x15b;" horiz-adv-x="1112" 
d="M578 -20q-84 0 -156 13t-122 35t-91 50.5t-66 60t-43.5 63t-27 60t-13.5 50.5t-5 35l-1 13h324q0 -6 1.5 -16.5t13 -37t31.5 -46.5t62 -36.5t99 -16.5q72 0 112.5 31.5t40.5 74.5q0 40 -29 62t-90 31l-161 26q-375 63 -375 318q0 154 127.5 255t339.5 101q77 0 143 -12
t112 -33t84.5 -48t62 -56.5t41 -59t26 -56.5t13.5 -48t6 -33l1 -12h-293q0 6 -1.5 15.5t-12.5 33.5t-29 43t-56 34t-89 15q-76 0 -113.5 -30t-37.5 -73q0 -40 34 -62t113 -36l141 -22q175 -28 271 -111t96 -209q0 -162 -131.5 -264t-351.5 -102zM455 1214l102 320h377
l-229 -322z" />
    <glyph glyph-name="Scedilla" unicode="&#x15e;" horiz-adv-x="1409" 
d="M653 -600q-36 0 -79.5 3.5t-69.5 6.5l-25 4v183q93 -13 156 -13q81 0 115 23t34 55q0 27 -21.5 43t-57.5 16q-26 0 -54 -9.5t-43 -19.5l-14 -9l-121 122l127 181q-89 10 -164 34.5t-127.5 57t-95 72t-68 80.5t-44 81t-26.5 75.5t-13 62.5t-5 43v16h379q0 -5 0.5 -14
t6 -35t15.5 -49t32 -52t52 -49.5t80 -34.5t111 -14q110 0 171 51.5t61 124.5q0 117 -166 146l-228 45q-238 45 -354.5 150.5t-116.5 283.5q0 204 160.5 339.5t439.5 135.5q101 0 187 -16.5t146 -45t109 -65t78.5 -77t51.5 -80.5t32 -76.5t16 -65t6 -44.5l1 -17h-354
q0 9 -2 23t-17 50.5t-40.5 64t-81 50.5t-130.5 23q-101 0 -161 -49t-60 -117q0 -56 40.5 -92t135.5 -54l238 -45q223 -41 340 -151.5t117 -280.5q0 -191 -143.5 -328.5t-393.5 -158.5l-82 -111q6 0 19 1t20 1q99 0 160 -61t61 -154q0 -108 -87.5 -184t-252.5 -76z" />
    <glyph glyph-name="scedilla" unicode="&#x15f;" horiz-adv-x="1120" 
d="M504 -596q-36 0 -79.5 3.5t-68.5 6.5l-26 4v183q92 -13 155 -13q81 0 115.5 23t34.5 55q0 27 -22 43.5t-58 16.5q-26 0 -54 -10t-43 -20l-14 -9l-120 123l125 178q-81 12 -146 38.5t-105.5 60t-70 71.5t-43 73.5t-21.5 64.5t-9 46l-1 18h324q0 -6 1.5 -16.5t13 -37
t31.5 -46.5t62 -36.5t99 -16.5q72 0 112.5 31.5t40.5 74.5q0 40 -29 62t-90 31l-161 26q-375 63 -375 318q0 154 127.5 255t339.5 101q77 0 143 -12t112 -33t84.5 -48t62 -56.5t41 -59t26 -56.5t13.5 -48t6 -33l1 -12h-293q0 6 -1.5 15.5t-12.5 33.5t-29 43t-56 34t-89 15
q-76 0 -113.5 -30t-37.5 -73q0 -40 34 -62t113 -36l141 -22q175 -28 271 -111t96 -209q0 -146 -106.5 -244t-290.5 -118l-80 -107q6 0 19 1t20 1q99 0 160 -61t61 -154q0 -108 -87.5 -184t-252.5 -76z" />
    <glyph glyph-name="Scaron" unicode="&#x160;" horiz-adv-x="1409" 
d="M731 -20q-140 0 -253 29t-181.5 75.5t-118.5 103t-72 113t-34.5 103t-13.5 75.5l-1 29h379q0 -5 0.5 -14t6 -35t15.5 -49t32 -52t52 -49.5t80 -34.5t111 -14q110 0 171 51.5t61 124.5q0 117 -166 146l-228 45q-238 45 -354.5 150.5t-116.5 283.5q0 204 160.5 339.5
t439.5 135.5q101 0 187 -16.5t146 -45t109 -65t78.5 -77t51.5 -80.5t32 -76.5t16 -65t6 -44.5l1 -17h-354q0 9 -2 23t-17 50.5t-40.5 64t-81 50.5t-130.5 23q-101 0 -161 -49t-60 -117q0 -56 40.5 -92t135.5 -54l238 -45q223 -41 340 -151.5t117 -280.5q0 -100 -42 -188.5
t-119 -156t-196 -107t-264 -39.5zM332 1956l254 2l116 -131l117 131l252 -2l-229 -316h-279z" />
    <glyph glyph-name="scaron" unicode="&#x161;" horiz-adv-x="1120" 
d="M578 -20q-84 0 -156 13t-122 35t-91 50.5t-66 60t-43.5 63t-27 60t-13.5 50.5t-5 35l-1 13h324q0 -6 1.5 -16.5t13 -37t31.5 -46.5t62 -36.5t99 -16.5q72 0 112.5 31.5t40.5 74.5q0 40 -29 62t-90 31l-161 26q-375 63 -375 318q0 154 127.5 255t339.5 101q77 0 143 -12
t112 -33t84.5 -48t62 -56.5t41 -59t26 -56.5t13.5 -48t6 -33l1 -12h-223l-65 -93q150 -34 230.5 -113.5t80.5 -195.5q0 -162 -131.5 -264t-351.5 -102zM426 844l109 -119l114 129h35q-47 35 -127 35q-89 0 -131 -45z" />
    <glyph glyph-name="uni0162" unicode="&#x162;" horiz-adv-x="1314" 
d="M465 0v1192h-416v324h1217v-324h-416v-1192h-385zM426 -195l135 193h217l-92 -125q6 0 19 1t20 1q99 0 160 -61t61 -154q0 -108 -87.5 -184t-252.5 -76q-36 0 -79.5 3.5t-68.5 6.5l-26 4v183q93 -13 156 -13q81 0 115 23t34 55q0 26 -22 42.5t-58 16.5q-26 0 -53.5 -9.5
t-41.5 -19.5l-15 -9z" />
    <glyph glyph-name="uni0163" unicode="&#x163;" horiz-adv-x="817" 
d="M39 799v286h156v246h335v-246h238v-286h-238v-371q0 -79 35 -118.5t115 -39.5q22 0 44 5t33 11l11 5v-277q-61 -30 -170 -34l-80 -107q6 0 19 1t20 1q99 0 160 -61t61 -154q0 -108 -87.5 -184t-252.5 -76q-36 0 -79.5 3.5t-68.5 6.5l-26 4v183q93 -13 156 -13
q81 0 115 23t34 55q0 26 -22 42.5t-58 16.5q-26 0 -53.5 -9.5t-41.5 -19.5l-15 -9l-121 122l135 193h37q-235 67 -235 379v422h-156z" />
    <glyph glyph-name="Tcaron" unicode="&#x164;" horiz-adv-x="1314" 
d="M465 0v1192h-416v324h1217v-324h-416v-1192h-385zM287 1956l254 2l116 -131l117 131l252 -2l-229 -316h-279z" />
    <glyph glyph-name="tcaron" unicode="&#x165;" horiz-adv-x="1257" 
d="M575 -20q-89 0 -157.5 23t-110 60t-67.5 90.5t-35.5 107t-9.5 116.5v422h-156v286h156v246h335v-246h238v-286h-238v-371q0 -79 35 -118.5t115 -39.5q22 0 44 5t33 11l11 5v-277q-70 -34 -193 -34zM862 967l21 549h338l-113 -549h-246z" />
    <glyph glyph-name="Tbar" unicode="&#x166;" horiz-adv-x="1320" 
d="M156 647v223h309v322h-416v324h1217v-324h-416v-322h424v-223h-424v-647h-385v647h-309z" />
    <glyph glyph-name="tbar" unicode="&#x167;" horiz-adv-x="851" 
d="M74 459v235h121v105h-156v286h156v246h335v-246h238v-286h-238v-105h211v-235h-211v-31q0 -79 35 -118.5t115 -39.5q22 0 44 5t33 11l11 5v-277q-70 -34 -193 -34q-89 0 -157.5 23t-110 60t-67.5 90.5t-35.5 107t-9.5 116.5v82h-121z" />
    <glyph glyph-name="Utilde" unicode="&#x168;" horiz-adv-x="1464" 
d="M739 -20q-105 0 -198 20t-177.5 65.5t-145 114t-96.5 172.5t-36 234v930h381v-930q0 -131 68 -213t204 -82t204.5 82t68.5 213v930h381v-930q0 -130 -36 -234t-96.5 -172.5t-145.5 -114t-178 -65.5t-198 -20zM360 1649q-4 290 213 290q51 0 97 -16.5t73.5 -36.5
t59.5 -36.5t59 -16.5q60 0 66 96h174q4 -291 -211 -291q-50 0 -95.5 16.5t-73 36t-61 36t-61.5 16.5q-32 0 -47 -23t-18 -71h-175z" />
    <glyph glyph-name="utilde" unicode="&#x169;" horiz-adv-x="1206" 
d="M438 -20q-86 0 -151 25t-102.5 62.5t-60.5 88.5t-30.5 95t-7.5 91v743h350v-653q0 -84 38 -135t116 -51q92 0 136 67t44 166v606h350v-1085h-350v170q-15 -31 -37.5 -60t-60.5 -60.5t-99 -50.5t-135 -19zM225 1219q-4 290 213 290q51 0 97 -16.5t73.5 -36.5t59.5 -36.5
t59 -16.5q60 0 66 96h174q4 -291 -211 -291q-50 0 -95.5 16.5t-73 36t-61 36t-61.5 16.5q-33 0 -48 -23t-18 -71h-174z" />
    <glyph glyph-name="Umacron" unicode="&#x16a;" horiz-adv-x="1464" 
d="M739 -20q-105 0 -198 20t-177.5 65.5t-145 114t-96.5 172.5t-36 234v930h381v-930q0 -131 68 -213t204 -82t204.5 82t68.5 213v930h381v-930q0 -130 -36 -234t-96.5 -172.5t-145.5 -114t-178 -65.5t-198 -20zM391 1683v197h680v-197h-680z" />
    <glyph glyph-name="umacron" unicode="&#x16b;" horiz-adv-x="1206" 
d="M438 -20q-86 0 -151 25t-102.5 62.5t-60.5 88.5t-30.5 95t-7.5 91v743h350v-653q0 -84 38 -135t116 -51q92 0 136 67t44 166v606h350v-1085h-350v170q-15 -31 -37.5 -60t-60.5 -60.5t-99 -50.5t-135 -19zM256 1253v197h680v-197h-680z" />
    <glyph glyph-name="Uring" unicode="&#x16e;" horiz-adv-x="1464" 
d="M739 -20q-105 0 -198 20t-177.5 65.5t-145 114t-96.5 172.5t-36 234v930h381v-930q0 -131 68 -213t204 -82t204.5 82t68.5 213v930h381v-930q0 -130 -36 -234t-96.5 -172.5t-145.5 -114t-178 -65.5t-198 -20zM446 1907q0 117 83.5 199.5t201.5 82.5q117 0 200 -82.5
t83 -199.5t-83 -200t-200 -83q-118 0 -201.5 83t-83.5 200zM623 1907q0 -46 31 -77.5t77 -31.5q44 0 75.5 31.5t31.5 77.5q0 44 -31.5 75t-75.5 31q-46 0 -77 -31t-31 -75z" />
    <glyph glyph-name="uring" unicode="&#x16f;" horiz-adv-x="1206" 
d="M438 -20q-86 0 -151 25t-102.5 62.5t-60.5 88.5t-30.5 95t-7.5 91v743h350v-653q0 -84 38 -135t116 -51q92 0 136 67t44 166v606h350v-1085h-350v170q-15 -31 -37.5 -60t-60.5 -60.5t-99 -50.5t-135 -19zM311 1477q0 117 83.5 199.5t201.5 82.5q117 0 200 -82.5
t83 -199.5t-83 -200t-200 -83q-118 0 -201.5 83t-83.5 200zM487 1477q0 -46 31.5 -77.5t77.5 -31.5q44 0 75 31.5t31 77.5q0 44 -31 75t-75 31q-46 0 -77.5 -31t-31.5 -75z" />
    <glyph glyph-name="Uhungarumlaut" unicode="&#x170;" horiz-adv-x="1478" 
d="M739 -20q-105 0 -198 20t-177.5 65.5t-145 114t-96.5 172.5t-36 234v930h381v-930q0 -131 68 -213t204 -82t204.5 82t68.5 213v930h381v-930q0 -130 -36 -234t-96.5 -172.5t-145.5 -114t-178 -65.5t-198 -20zM418 1663l96 367h301l-162 -369zM813 1663l96 367h303
l-163 -369z" />
    <glyph glyph-name="uhungarumlaut" unicode="&#x171;" horiz-adv-x="1206" 
d="M438 -20q-86 0 -151 25t-102.5 62.5t-60.5 88.5t-30.5 95t-7.5 91v743h350v-653q0 -84 38 -135t116 -51q92 0 136 67t44 166v606h350v-1085h-350v170q-15 -31 -37.5 -60t-60.5 -60.5t-99 -50.5t-135 -19zM276 1233l97 366h301l-162 -368zM672 1233l96 366h303l-164 -368z
" />
    <glyph glyph-name="Wcircumflex" unicode="&#x174;" horiz-adv-x="2117" 
d="M410 0l-381 1516h385l231 -1053l252 1053h332l252 -1049l231 1049h377l-381 -1516h-434l-221 940l-224 -940h-419zM688 1624l232 315h278l229 -315l-251 -2l-117 131l-117 -131z" />
    <glyph glyph-name="wcircumflex" unicode="&#x175;" horiz-adv-x="1783" 
d="M365 0l-322 1085h342l182 -692l193 692h266l193 -692l186 692h336l-322 -1085h-368l-166 627l-164 -627h-356zM457 1194l231 315h279l229 -315l-252 -2l-117 131l-116 -131z" />
    <glyph glyph-name="Ycircumflex" unicode="&#x176;" horiz-adv-x="1474" 
d="M545 0v555l-518 961h422l307 -619l305 619h387l-518 -961v-555h-385zM369 1622l231 315h279l229 -315l-252 -2l-117 131l-116 -131z" />
    <glyph glyph-name="ycircumflex" unicode="&#x177;" horiz-adv-x="1210" 
d="M246 -418l188 453l-403 1050h356l231 -663l224 663h338l-580 -1503h-354zM236 1194l231 315h278l230 -315l-252 -2l-117 131l-117 -131z" />
    <glyph glyph-name="Ydieresis" unicode="&#x178;" horiz-adv-x="1474" 
d="M545 0v555l-518 961h422l307 -619l305 619h387l-518 -961v-555h-385zM315 1815q0 80 55.5 134t141.5 54q84 0 140.5 -54t56.5 -134q0 -75 -57 -130t-140 -55q-84 0 -140.5 55t-56.5 130zM770 1815q0 80 56 134t143 54q84 0 140 -54t56 -134q0 -75 -56.5 -130t-139.5 -55
q-86 0 -142.5 55t-56.5 130z" />
    <glyph glyph-name="Zacute" unicode="&#x179;" horiz-adv-x="1353" 
d="M82 0v285l727 905h-727v326h1221v-285l-728 -903h732v-328h-1225zM532 1647l103 319h377l-230 -321z" />
    <glyph glyph-name="zacute" unicode="&#x17a;" horiz-adv-x="1079" 
d="M92 0v256l520 543h-514v286h942v-256l-522 -542h529v-287h-955zM393 1214l103 320h376l-229 -322z" />
    <glyph glyph-name="Zdotaccent" unicode="&#x17b;" horiz-adv-x="1386" 
d="M82 0v285l727 905h-727v326h1221v-285l-728 -903h732v-328h-1225zM438 1819q0 84 58.5 140t148.5 56q89 0 148 -56t59 -140q0 -79 -59.5 -137t-147.5 -58q-89 0 -148 57.5t-59 137.5z" />
    <glyph glyph-name="zdotaccent" unicode="&#x17c;" horiz-adv-x="1079" 
d="M92 0v256l520 543h-514v286h942v-256l-522 -542h529v-287h-955zM301 1386q0 84 58.5 140.5t148.5 56.5q89 0 148 -56.5t59 -140.5q0 -79 -59.5 -136.5t-147.5 -57.5q-89 0 -148 57t-59 137z" />
    <glyph glyph-name="Zcaron" unicode="&#x17d;" horiz-adv-x="1390" 
d="M82 0v285l727 905h-727v326h1221v-285l-728 -903h732v-328h-1225zM274 1956l254 2l117 -131l117 131l252 -2l-230 -316h-278z" />
    <glyph glyph-name="zcaron" unicode="&#x17e;" horiz-adv-x="1079" 
d="M92 0v256l520 543h-514v286h942v-256l-522 -542h529v-287h-955zM137 1524l254 2l117 -131l117 131l252 -2l-230 -316h-278z" />
    <glyph glyph-name="Ohorn" unicode="&#x1a0;" horiz-adv-x="1714" 
d="M844 -20q-153 0 -283 41.5t-222.5 114.5t-157.5 171.5t-96.5 213t-31.5 239.5q0 123 31 236t95.5 211t156.5 171t220.5 115t279.5 43h4h4q32 0 94 -4q26 -2 68 -6.5t75 -7t64 -2.5q76 0 116 17t61.5 65.5t23.5 142.5h294q0 -184 -75 -268t-224 -89q143 -106 217 -269.5
t74 -354.5q0 -125 -31 -239.5t-96 -213t-157 -171.5t-221.5 -114.5t-282.5 -41.5zM453 760q0 -204 104 -335.5t287 -131.5q182 0 286.5 132t104.5 335q0 131 -45 235t-135 167t-211 63q-122 0 -212 -63t-134.5 -167t-44.5 -235z" />
    <glyph glyph-name="ohorn" unicode="&#x1a1;" horiz-adv-x="1368" 
d="M655 -20q-181 0 -314.5 74.5t-201 201t-67.5 287.5q0 160 66 285.5t197.5 200.5t309.5 77h6h4q53 0 99 -6q115 -13 151 -13q71 0 106 42.5t38 162.5h260q-1 -72 -14.5 -127.5t-35 -91t-54 -59t-66.5 -34.5t-76 -15q85 -76 129.5 -185t44.5 -237q0 -161 -67.5 -287.5
t-201 -201t-313.5 -74.5zM428 543q0 -139 61 -221t166 -82t165.5 82t60.5 221t-60.5 221t-165.5 82t-166 -82t-61 -221z" />
    <glyph glyph-name="Uhorn" unicode="&#x1af;" horiz-adv-x="1464" 
d="M739 -20q-105 0 -198 20t-177.5 65.5t-145 114t-96.5 172.5t-36 234v930h381v-930q0 -131 68 -213t204 -82t204.5 82t68.5 213v792h-4v138h120q128 0 176.5 52.5t51.5 200.5h278q0 -165 -59 -254t-182 -120v-809q0 -130 -36 -234t-96.5 -172.5t-145.5 -114t-178 -65.5
t-198 -20z" />
    <glyph glyph-name="uhorn" unicode="&#x1b0;" horiz-adv-x="1206" 
d="M438 -20q-86 0 -151 25t-102.5 62.5t-60.5 88.5t-30.5 95t-7.5 91v743h350v-653q0 -84 38 -135t116 -51q92 0 136 67t44 166v606h121q61 0 95.5 8t57.5 33.5t31 67t10 113.5h258q0 -161 -56 -241t-167 -103v-963h-350v170q-15 -31 -37.5 -60t-60.5 -60.5t-99 -50.5
t-135 -19z" />
    <glyph glyph-name="Gcaron" unicode="&#x1e6;" horiz-adv-x="1624" 
d="M852 -20q-162 0 -296.5 44t-226 118.5t-155 175t-92.5 212t-29 230.5q0 118 29 228.5t92 210.5t154.5 174.5t225 118.5t294.5 44q105 0 196 -17.5t156 -47.5t119 -68.5t89 -81t61.5 -85t40 -81t22 -68.5t10.5 -47l2 -18h-375q-1 9 -4.5 24t-24 54t-51.5 68.5t-93.5 54
t-143.5 24.5q-129 0 -221 -66t-136 -173.5t-44 -243.5q0 -138 44 -245.5t138 -173.5t227 -66q143 0 236 75t121 211h-375v269h729v-91q0 -151 -36 -276.5t-100.5 -214.5t-154 -151t-197.5 -91.5t-231 -29.5zM485 1956l254 2l117 -131l117 131l252 -2l-230 -316h-278z" />
    <glyph glyph-name="gcaron" unicode="&#x1e7;" horiz-adv-x="1288" 
d="M655 -442q-87 0 -160.5 12.5t-125.5 34.5t-94 49.5t-68 58.5t-45.5 62t-28 58.5t-14 49.5t-5.5 35l-1 12h333q1 -6 3 -16t15.5 -35t34 -44.5t62 -35.5t96.5 -16q117 0 172.5 78.5t55.5 212.5v110q-100 -149 -324 -149q-118 0 -213 44.5t-154.5 120t-90.5 170t-31 199.5
t31.5 200t90.5 171t154 121t213 45q62 0 115 -12.5t85 -28t61 -41t39 -38t24 -32.5v131h340v-1022q0 -107 -34 -197t-102 -159.5t-179 -109t-255 -39.5zM285 1526l254 2l116 -131l117 131l252 -2l-229 -316h-279zM428 569q0 -125 59.5 -207.5t169.5 -82.5q112 0 173 82.5
t61 207.5t-61 209t-173 84q-110 0 -169.5 -83.5t-59.5 -209.5z" />
    <glyph glyph-name="uni0218" unicode="&#x218;" horiz-adv-x="1409" 
d="M731 -20q-140 0 -253 29t-181.5 75.5t-118.5 103t-72 113t-34.5 103t-13.5 75.5l-1 29h379q0 -5 0.5 -14t6 -35t15.5 -49t32 -52t52 -49.5t80 -34.5t111 -14q110 0 171 51.5t61 124.5q0 117 -166 146l-228 45q-238 45 -354.5 150.5t-116.5 283.5q0 204 160.5 339.5
t439.5 135.5q101 0 187 -16.5t146 -45t109 -65t78.5 -77t51.5 -80.5t32 -76.5t16 -65t6 -44.5l1 -17h-354q0 9 -2 23t-17 50.5t-40.5 64t-81 50.5t-130.5 23q-101 0 -161 -49t-60 -117q0 -56 40.5 -92t135.5 -54l238 -45q265 -50 379 -194q14 53 57.5 84.5t104.5 31.5
q73 0 122.5 -47.5t49.5 -122.5q0 -62 -39.5 -136.5t-138.5 -215.5l-15 -20h-104q-64 -137 -214.5 -220t-365.5 -83zM1335 348l88 150q-45 3 -73 20q2 -14 2 -47q0 -57 -17 -123z" />
    <glyph glyph-name="uni0219" unicode="&#x219;" horiz-adv-x="1114" 
d="M578 -20q-84 0 -156 13t-122 35t-91 50.5t-66 60t-43.5 63t-27 60t-13.5 50.5t-5 35l-1 13h324q0 -6 1.5 -16.5t13 -37t31.5 -46.5t62 -36.5t99 -16.5q72 0 112.5 31.5t40.5 74.5q0 40 -29 62t-90 31l-161 26q-375 63 -375 318q0 154 127.5 255t339.5 101q77 0 143 -12
t112 -33t84.5 -48t62 -56.5t41 -59t26 -56.5t13.5 -48t6 -33l1 -12h-293q0 6 -1.5 15.5t-12.5 33.5t-29 43t-56 34t-89 15q-76 0 -113.5 -30t-37.5 -73q0 -40 34 -62t113 -36l141 -22q175 -28 271 -111t96 -209q0 -162 -131.5 -264t-351.5 -102zM1116 666q0 71 47.5 117
t120.5 46t122.5 -47.5t49.5 -122.5q0 -62 -39.5 -136.5t-138.5 -215.5l-14 -20h-119l127 215q-66 3 -111 50t-45 114z" />
    <glyph glyph-name="uni021A" unicode="&#x21a;" horiz-adv-x="1314" 
d="M465 0v1192h-416v324h1217v-324h-416v-1192h-385zM1221 662q0 71 47.5 117t120.5 46t122.5 -47.5t49.5 -122.5q0 -62 -39.5 -136t-139.5 -216l-14 -20h-119l127 215q-66 3 -110.5 50t-44.5 114z" />
    <glyph glyph-name="uni021B" unicode="&#x21b;" horiz-adv-x="817" 
d="M575 -20q-89 0 -157.5 23t-110 60t-67.5 90.5t-35.5 107t-9.5 116.5v422h-156v286h156v246h335v-246h238v-286h-238v-371q0 -79 35 -118.5t115 -39.5q22 0 44 5t33 11l11 5v-277q-70 -34 -193 -34zM1053 662q0 71 47.5 117t120.5 46t122.5 -47.5t49.5 -122.5
q0 -62 -39.5 -136t-139.5 -216l-14 -20h-119l127 215q-66 3 -110.5 50t-44.5 114z" />
    <glyph glyph-name="circumflex" unicode="&#x2c6;" horiz-adv-x="1036" 
d="M111 1137l270 379h274l271 -379h-267l-141 211l-141 -211h-266z" />
    <glyph glyph-name="caron" unicode="&#x2c7;" horiz-adv-x="960" 
d="M326 1210l-271 379h267l141 -211l141 211h266l-270 -379h-274z" />
    <glyph glyph-name="breve" unicode="&#x2d8;" horiz-adv-x="833" 
d="M358 1219q-77 0 -138 18.5t-98 47.5t-64 65t-39 71.5t-18.5 64.5t-6.5 48v18h207q0 -6 1 -17t9.5 -38.5t23.5 -48.5t47 -38t76 -17t76 16.5t47 39.5t24 46.5t10 40.5l1 16h205q0 -7 -0.5 -19t-6.5 -46.5t-18 -66t-39 -70t-64 -66t-98 -46.5t-137 -19z" />
    <glyph glyph-name="dotaccent" unicode="&#x2d9;" horiz-adv-x="622" 
d="M311 1194q-89 0 -148 57.5t-59 137.5q0 84 58.5 140t148.5 56q89 0 148 -56t59 -140q0 -79 -59.5 -137t-147.5 -58z" />
    <glyph glyph-name="ring" unicode="&#x2da;" horiz-adv-x="690" 
d="M346 1192q-118 0 -201.5 83t-83.5 200t83.5 199.5t201.5 82.5q117 0 200 -82.5t83 -199.5t-83 -200t-200 -83zM238 1475q0 -46 31 -77.5t77 -31.5q44 0 75.5 31.5t31.5 77.5q0 44 -31.5 75t-75.5 31q-46 0 -77 -31t-31 -75z" />
    <glyph glyph-name="ogonek" unicode="&#x2db;" horiz-adv-x="544" 
d="M371 -467q-150 0 -225.5 60t-75.5 153q0 53 24.5 96t59.5 67t69.5 40.5t58.5 22.5l25 5l113 -57q-4 -2 -11 -5t-25 -13.5t-31.5 -23t-24.5 -32.5t-11 -41q0 -32 27 -53.5t82 -21.5q15 0 32 2t26 4l10 2v-195q-53 -10 -123 -10z" />
    <glyph glyph-name="tilde" unicode="&#x2dc;" horiz-adv-x="798" 
d="M559 1208q-50 0 -95.5 16.5t-73 36t-61 36t-61.5 16.5q-32 0 -47 -23t-18 -71h-174q-4 290 213 290q51 0 96.5 -16.5t73 -36.5t59.5 -36.5t59 -16.5q60 0 66 96h174q4 -291 -211 -291z" />
    <glyph glyph-name="gravecomb" unicode="&#x300;" horiz-adv-x="0" 
d="M260 1214l-229 318h375l104 -315z" />
    <glyph glyph-name="acutecomb" unicode="&#x301;" horiz-adv-x="0" 
d="M281 1214l-250 3l102 319h377z" />
    <glyph glyph-name="uni0302" unicode="&#x302;" horiz-adv-x="0" 
d="M55 1194l232 315h278l230 -315l-252 -2l-117 131l-117 -131z" />
    <glyph glyph-name="tildecomb" unicode="&#x303;" horiz-adv-x="0" 
d="M559 1208q-50 0 -95.5 16.5t-73 36t-61 36t-61.5 16.5q-32 0 -47 -23t-18 -71h-174q-4 290 213 290q51 0 96.5 -16.5t73 -36.5t59.5 -36.5t59 -16.5q60 0 66 96h174q4 -291 -211 -291z" />
    <glyph glyph-name="uni0304" unicode="&#x304;" horiz-adv-x="0" 
d="M205 1333v197h680v-197h-680z" />
    <glyph glyph-name="uni0306" unicode="&#x306;" horiz-adv-x="0" 
d="M358 1219q-77 0 -138 18.5t-98 47.5t-64 65t-39 71.5t-18.5 64.5t-6.5 48v18h207q0 -6 1 -17t9.5 -38.5t23.5 -48.5t47 -38t76 -17t76 16.5t47 39.5t24 46.5t10 40.5l1 16h205q0 -7 -0.5 -19t-6.5 -46.5t-18 -66t-39 -70t-64 -66t-98 -46.5t-137 -19z" />
    <glyph glyph-name="uni0307" unicode="&#x307;" horiz-adv-x="0" 
d="M311 1194q-89 0 -148 57.5t-59 137.5q0 84 58.5 140t148.5 56q89 0 148 -56t59 -140q0 -79 -59.5 -137t-147.5 -58z" />
    <glyph glyph-name="uni0308" unicode="&#x308;" horiz-adv-x="0" 
d="M754 1202q-86 0 -142.5 54.5t-56.5 129.5q0 80 56 134.5t143 54.5q84 0 140 -54.5t56 -134.5q0 -75 -56.5 -129.5t-139.5 -54.5zM100 1386q0 80 56 134.5t141 54.5q84 0 140.5 -54.5t56.5 -134.5q0 -75 -57 -129.5t-140 -54.5q-85 0 -141 54.5t-56 129.5z" />
    <glyph glyph-name="hookabovecomb" unicode="&#x309;" horiz-adv-x="0" 
d="M258 1233q0 64 17 93.5t75 64.5q4 3 16.5 10.5t16.5 10t14 9t13.5 9.5l10.5 9t9.5 10t6 10t4.5 12t1 12q0 25 -25 41t-57 16q-40 0 -65.5 -21t-26.5 -61h-186q3 115 81 175.5t206 60.5q116 0 195 -53.5t79 -141.5q0 -33 -9 -58t-32 -48.5t-44.5 -39t-63.5 -42.5
q-32 -21 -43 -36t-11 -40v-10h-182v8z" />
    <glyph glyph-name="uni030A" unicode="&#x30a;" horiz-adv-x="0" 
d="M346 1192q-118 0 -201.5 83t-83.5 200t83.5 199.5t201.5 82.5q117 0 200 -82.5t83 -199.5t-83 -200t-200 -83zM238 1475q0 -46 31 -77.5t77 -31.5q44 0 75.5 31.5t31.5 77.5q0 44 -31.5 75t-75.5 31q-46 0 -77 -31t-31 -75z" />
    <glyph glyph-name="uni030B" unicode="&#x30b;" horiz-adv-x="0" 
d="M301 1231l-235 2l96 366h301zM461 1233l96 366h303l-164 -368z" />
    <glyph glyph-name="uni030C" unicode="&#x30c;" horiz-adv-x="0" 
d="M55 1526l254 2l117 -131l117 131l252 -2l-230 -316h-278z" />
    <glyph glyph-name="uni0312" unicode="&#x312;" horiz-adv-x="0" 
d="M414 1765l-127 -215q66 -3 110.5 -50t44.5 -114q0 -71 -47.5 -117t-120.5 -46t-122.5 47.5t-49.5 122.5q0 62 39.5 136t139.5 216l14 20h119z" />
    <glyph glyph-name="uni031B" unicode="&#x31b;" horiz-adv-x="0" 
d="M854 1153q0 -115 -60.5 -176.5t-175.5 -61.5h-374v170h254q38 0 59 21t21 61v154h276v-168z" />
    <glyph glyph-name="dotbelowcomb" unicode="&#x323;" horiz-adv-x="0" 
d="M287 -500q-82 0 -135.5 55.5t-53.5 133.5q0 79 53.5 132.5t135.5 53.5q79 0 132.5 -54t53.5 -132q0 -77 -53.5 -133t-132.5 -56z" />
    <glyph glyph-name="uni0326" unicode="&#x326;" horiz-adv-x="0" 
d="M815 283l127 215q-66 3 -111 50t-45 114q0 71 47.5 117t120.5 46t122.5 -47.5t49.5 -122.5q0 -62 -39.5 -136.5t-138.5 -215.5l-14 -20h-119z" />
    <glyph glyph-name="uni0327" unicode="&#x327;" horiz-adv-x="0" 
d="M145 -598q-36 0 -79.5 3.5t-69.5 6.5l-25 4v183q93 -13 156 -13q81 0 115 23t34 55q0 27 -21.5 43.5t-57.5 16.5q-26 0 -54 -10t-43 -20l-14 -9l-121 122l135 193h217l-92 -125q6 0 19 1t20 1q99 0 160 -61t61 -154q0 -108 -87.5 -184t-252.5 -76z" />
    <glyph glyph-name="uni0328" unicode="&#x328;" horiz-adv-x="0" 
d="M371 -467q-150 0 -225.5 60t-75.5 153q0 53 24.5 96t59.5 67t69.5 40.5t58.5 22.5l25 5l113 -57q-4 -2 -11 -5t-25 -13.5t-31.5 -23t-24.5 -32.5t-11 -41q0 -32 27 -53.5t82 -21.5q15 0 32 2t26 4l10 2v-195q-53 -10 -123 -10z" />
    <glyph glyph-name="uni1E20" unicode="&#x1e20;" horiz-adv-x="1624" 
d="M852 -20q-162 0 -296.5 44t-226 118.5t-155 175t-92.5 212t-29 230.5q0 118 29 228.5t92 210.5t154.5 174.5t225 118.5t294.5 44q105 0 196 -17.5t156 -47.5t119 -68.5t89 -81t61.5 -85t40 -81t22 -68.5t10.5 -47l2 -18h-375q-1 9 -4.5 24t-24 54t-51.5 68.5t-93.5 54
t-143.5 24.5q-129 0 -221 -66t-136 -173.5t-44 -243.5q0 -138 44 -245.5t138 -173.5t227 -66q143 0 236 75t121 211h-375v269h729v-91q0 -151 -36 -276.5t-100.5 -214.5t-154 -151t-197.5 -91.5t-231 -29.5zM516 1683v197h680v-197h-680z" />
    <glyph glyph-name="uni1E21" unicode="&#x1e21;" horiz-adv-x="1288" 
d="M655 -442q-87 0 -160.5 12.5t-125.5 34.5t-94 49.5t-68 58.5t-45.5 62t-28 58.5t-14 49.5t-5.5 35l-1 12h333q1 -6 3 -16t15.5 -35t34 -44.5t62 -35.5t96.5 -16q117 0 172.5 78.5t55.5 212.5v110q-100 -149 -324 -149q-118 0 -213 44.5t-154.5 120t-90.5 170t-31 199.5
t31.5 200t90.5 171t154 121t213 45q62 0 115 -12.5t85 -28t61 -41t39 -38t24 -32.5v131h340v-1022q0 -107 -34 -197t-102 -159.5t-179 -109t-255 -39.5zM315 1253v197h680v-197h-680zM428 569q0 -125 59.5 -207.5t169.5 -82.5q112 0 173 82.5t61 207.5t-61 209t-173 84
q-110 0 -169.5 -83.5t-59.5 -209.5z" />
    <glyph glyph-name="Wgrave" unicode="&#x1e80;" horiz-adv-x="2113" 
d="M410 0l-381 1516h385l231 -1053l252 1053h332l252 -1049l231 1049h377l-381 -1516h-434l-221 940l-224 -940h-419zM696 1962h375l105 -315l-250 -2z" />
    <glyph glyph-name="wgrave" unicode="&#x1e81;" horiz-adv-x="1775" 
d="M365 0l-322 1085h342l182 -692l193 692h266l193 -692l186 692h336l-322 -1085h-368l-166 627l-164 -627h-356zM465 1532h375l104 -315l-250 -3z" />
    <glyph glyph-name="Wacute" unicode="&#x1e82;" horiz-adv-x="2113" 
d="M410 0l-381 1516h385l231 -1053l252 1053h332l252 -1049l231 1049h377l-381 -1516h-434l-221 940l-224 -940h-419zM940 1647l102 319h377l-229 -321z" />
    <glyph glyph-name="wacute" unicode="&#x1e83;" horiz-adv-x="1775" 
d="M365 0l-322 1085h342l182 -692l193 692h266l193 -692l186 692h336l-322 -1085h-368l-166 627l-164 -627h-356zM709 1217l102 319h377l-230 -322z" />
    <glyph glyph-name="Wdieresis" unicode="&#x1e84;" horiz-adv-x="2117" 
d="M410 0l-381 1516h385l231 -1053l252 1053h332l252 -1049l231 1049h377l-381 -1516h-434l-221 940l-224 -940h-419zM635 1817q0 80 55.5 134t140.5 54q84 0 140.5 -54t56.5 -134q0 -75 -57 -130t-140 -55q-84 0 -140 55t-56 130zM1090 1817q0 80 55.5 134t142.5 54
q84 0 140.5 -54t56.5 -134q0 -75 -57 -130t-140 -55q-86 0 -142 54.5t-56 130.5z" />
    <glyph glyph-name="wdieresis" unicode="&#x1e85;" horiz-adv-x="1783" 
d="M365 0l-322 1085h342l182 -692l193 692h266l193 -692l186 692h336l-322 -1085h-368l-166 627l-164 -627h-356zM406 1386q0 80 55.5 134.5t140.5 54.5q84 0 140.5 -54.5t56.5 -134.5q0 -75 -57 -129.5t-140 -54.5q-84 0 -140 54.5t-56 129.5zM860 1386q0 80 56 134.5
t143 54.5q84 0 140 -54.5t56 -134.5q0 -75 -56.5 -129.5t-139.5 -54.5q-86 0 -142.5 54.5t-56.5 129.5z" />
    <glyph glyph-name="uni1E9E" unicode="&#x1e9e;" horiz-adv-x="1392" 
d="M754 -20q-50 0 -99 4t-73 8l-23 4v285q65 -11 137 -11q146 0 214.5 54t68.5 135q0 80 -65.5 126t-202.5 46h-78l-2 186l270 412q-88 18 -160 18q-155 0 -239 -99.5t-84 -273.5v-874h-348v874q0 68 10 133t34.5 131.5t61 124t92.5 108.5t127 87t167.5 57t209.5 21
q125 0 247 -23t181 -46l60 -23v-168l-295 -453q51 -10 100 -28.5t98.5 -51t86.5 -75t60 -105t23 -135.5q0 -68 -21.5 -132t-67.5 -122t-112.5 -100.5t-163.5 -68t-214 -25.5z" />
    <glyph glyph-name="uni1EA0" unicode="&#x1ea0;" horiz-adv-x="1568" 
d="M43 0l483 1516h516l484 -1516h-406l-94 317h-520l-94 -317h-369zM580 -311q0 79 53 132.5t135 53.5q79 0 132.5 -54t53.5 -132q0 -77 -53.5 -133t-132.5 -56q-82 0 -135 55.5t-53 133.5zM592 610h348l-174 592z" />
    <glyph glyph-name="uni1EA1" unicode="&#x1ea1;" horiz-adv-x="1155" 
d="M428 -20q-163 0 -267 84t-104 229q0 310 469 371l215 28v19q0 77 -38 121.5t-119 44.5q-45 0 -79 -14.5t-50.5 -35.5t-26 -42t-10.5 -35l-2 -15h-310q0 8 0.5 21t9 52t24 74t51.5 77.5t85.5 73.5t131.5 52t184 21q108 0 193 -22t138.5 -59t88.5 -88.5t49 -105.5t14 -116
v-715h-334v129q-1 -1 -19.5 -22t-30 -32.5t-40 -32t-56.5 -32t-72.5 -21t-94.5 -9.5zM381 -311q0 79 53 132.5t135 53.5q79 0 133 -54t54 -132q0 -77 -54 -133t-133 -56q-82 0 -135 55.5t-53 133.5zM383 317q0 -55 44 -85.5t112 -30.5q92 0 147 56.5t55 162.5v69l-116 -18
q-242 -36 -242 -154z" />
    <glyph glyph-name="uni1EA2" unicode="&#x1ea2;" horiz-adv-x="1564" 
d="M43 0l483 1516h516l484 -1516h-406l-94 317h-520l-94 -317h-369zM512 1878q3 115 81 175.5t206 60.5q116 0 195 -53.5t79 -141.5q0 -33 -9 -58t-32 -48.5t-44.5 -39t-63.5 -42.5q-32 -21 -43 -36t-11 -40v-10h-182v8q0 63 17 92.5t75 64.5q63 39 77 55q15 18 15 38
q0 25 -24.5 41t-56.5 16q-40 0 -66 -21t-27 -61h-186zM592 610h348l-174 592z" />
    <glyph glyph-name="uni1EA3" unicode="&#x1ea3;" horiz-adv-x="1155" 
d="M428 -20q-163 0 -267 84t-104 229q0 310 469 371l215 28v19q0 77 -38 121.5t-119 44.5q-45 0 -79 -14.5t-50.5 -35.5t-26 -42t-10.5 -35l-2 -15h-310q0 8 0.5 21t9 52t24 74t51.5 77.5t85.5 73.5t131.5 52t184 21q108 0 193 -22t138.5 -59t88.5 -88.5t49 -105.5t14 -116
v-715h-334v129q-1 -1 -19.5 -22t-30 -32.5t-40 -32t-56.5 -32t-72.5 -21t-94.5 -9.5zM322 1448q3 115 80.5 175t205.5 60q116 0 195.5 -53t79.5 -141q0 -33 -9.5 -58.5t-32.5 -48.5t-44.5 -39t-63.5 -43q-32 -21 -42.5 -35.5t-10.5 -39.5v-11h-182v9q0 63 17 92.5t75 64.5
q63 39 77 55q15 18 15 38q0 25 -25 41t-57 16q-40 0 -65.5 -21t-26.5 -61h-186zM383 317q0 -55 44 -85.5t112 -30.5q92 0 147 56.5t55 162.5v69l-116 -18q-242 -36 -242 -154z" />
    <glyph glyph-name="uni1EA4" unicode="&#x1ea4;" horiz-adv-x="1568" 
d="M43 0l483 1516h516l484 -1516h-406l-94 317h-520l-94 -317h-369zM432 1624l191 274h325l191 -274l-238 -2l-115 129l-116 -129zM592 610h348l-174 592zM1038 1866l99 266h340l-207 -268z" />
    <glyph glyph-name="uni1EA5" unicode="&#x1ea5;" horiz-adv-x="1155" 
d="M428 -20q-163 0 -267 84t-104 229q0 310 469 371l215 28v19q0 77 -38 121.5t-119 44.5q-45 0 -79 -14.5t-50.5 -35.5t-26 -42t-10.5 -35l-2 -15h-310q0 8 0.5 21t9 52t24 74t51.5 77.5t85.5 73.5t131.5 52t184 21q108 0 193 -22t138.5 -59t88.5 -88.5t49 -105.5t14 -116
v-715h-334v129q-1 -1 -19.5 -22t-30 -32.5t-40 -32t-56.5 -32t-72.5 -21t-94.5 -9.5zM240 1194l190 274h326l190 -274l-237 -2l-115 129l-117 -129zM383 317q0 -55 44 -85.5t112 -30.5q92 0 147 56.5t55 162.5v69l-116 -18q-242 -36 -242 -154zM846 1436l98 266h340
l-207 -268z" />
    <glyph glyph-name="uni1EA6" unicode="&#x1ea6;" horiz-adv-x="1568" 
d="M43 0l483 1516h516l484 -1516h-406l-94 317h-520l-94 -317h-369zM432 1624l191 274h325l191 -274l-238 -2l-115 129l-116 -129zM592 610h348l-174 592zM852 2189h375l104 -315l-250 -2z" />
    <glyph glyph-name="uni1EA7" unicode="&#x1ea7;" horiz-adv-x="1155" 
d="M428 -20q-163 0 -267 84t-104 229q0 310 469 371l215 28v19q0 77 -38 121.5t-119 44.5q-45 0 -79 -14.5t-50.5 -35.5t-26 -42t-10.5 -35l-2 -15h-310q0 8 0.5 21t9 52t24 74t51.5 77.5t85.5 73.5t131.5 52t184 21q108 0 193 -22t138.5 -59t88.5 -88.5t49 -105.5t14 -116
v-715h-334v129q-1 -1 -19.5 -22t-30 -32.5t-40 -32t-56.5 -32t-72.5 -21t-94.5 -9.5zM240 1194l190 274h326l190 -274l-237 -2l-115 129l-117 -129zM383 317q0 -55 44 -85.5t112 -30.5q92 0 147 56.5t55 162.5v69l-116 -18q-242 -36 -242 -154zM659 1759h375l105 -315
l-250 -2z" />
    <glyph glyph-name="uni1EA8" unicode="&#x1ea8;" horiz-adv-x="1568" 
d="M43 0l483 1516h516l484 -1516h-406l-94 317h-520l-94 -317h-369zM432 1624l191 274h325l191 -274l-238 -2l-115 129l-116 -129zM592 610h348l-174 592zM907 2089q4 104 77.5 159.5t191.5 55.5q106 0 178.5 -48.5t72.5 -129.5q0 -58 -31 -92t-108 -82q-27 -18 -37 -32.5
t-10 -37.5v-8h-168v8q0 58 15 86t71 60q31 19 44.5 27.5t25.5 23.5t12 32q0 24 -23.5 39t-52.5 15q-34 0 -57.5 -19.5t-24.5 -56.5h-176z" />
    <glyph glyph-name="uni1EA9" unicode="&#x1ea9;" horiz-adv-x="1155" 
d="M428 -20q-163 0 -267 84t-104 229q0 310 469 371l215 28v19q0 77 -38 121.5t-119 44.5q-45 0 -79 -14.5t-50.5 -35.5t-26 -42t-10.5 -35l-2 -15h-310q0 8 0.5 21t9 52t24 74t51.5 77.5t85.5 73.5t131.5 52t184 21q108 0 193 -22t138.5 -59t88.5 -88.5t49 -105.5t14 -116
v-715h-334v129q-1 -1 -19.5 -22t-30 -32.5t-40 -32t-56.5 -32t-72.5 -21t-94.5 -9.5zM240 1194l190 274h326l190 -274l-237 -2l-115 129l-117 -129zM383 317q0 -55 44 -85.5t112 -30.5q92 0 147 56.5t55 162.5v69l-116 -18q-242 -36 -242 -154zM715 1659q4 104 77 159.5
t191 55.5q106 0 179 -48.5t73 -129.5q0 -58 -31 -92t-108 -82q-27 -18 -37 -32.5t-10 -37.5v-8h-168v8q0 57 15 85t71 60q45 26 63.5 43t18.5 41t-23.5 39t-52.5 15q-34 0 -57.5 -19.5t-24.5 -56.5h-176z" />
    <glyph glyph-name="uni1EAA" unicode="&#x1eaa;" horiz-adv-x="1568" 
d="M43 0l483 1516h516l484 -1516h-406l-94 317h-520l-94 -317h-369zM432 1624l191 274h325l191 -274l-238 -2l-115 129l-116 -129zM444 1970q-1 55 8 101t30 86t60 63t93 23q44 0 87 -15.5t71 -34t59.5 -34t54.5 -15.5q31 0 49 24t21 64h149q0 -55 -9 -101t-29 -86
t-58 -62.5t-90 -22.5q-43 0 -86 15t-71.5 33t-61 33t-55.5 15q-32 0 -50.5 -23t-21.5 -63h-150zM592 610h348l-174 592z" />
    <glyph glyph-name="uni1EAB" unicode="&#x1eab;" horiz-adv-x="1155" 
d="M428 -20q-163 0 -267 84t-104 229q0 310 469 371l215 28v19q0 77 -38 121.5t-119 44.5q-45 0 -79 -14.5t-50.5 -35.5t-26 -42t-10.5 -35l-2 -15h-310q0 8 0.5 21t9 52t24 74t51.5 77.5t85.5 73.5t131.5 52t184 21q108 0 193 -22t138.5 -59t88.5 -88.5t49 -105.5t14 -116
v-715h-334v129q-1 -1 -19.5 -22t-30 -32.5t-40 -32t-56.5 -32t-72.5 -21t-94.5 -9.5zM240 1194l190 274h326l190 -274l-237 -2l-115 129l-117 -129zM252 1540q-1 55 8 101t29.5 86t59.5 62.5t93 22.5q44 0 87 -15.5t71 -33.5t60 -33.5t55 -15.5q31 0 48.5 24t20.5 64h150
q0 -55 -9 -101t-29 -86t-58 -62.5t-90 -22.5q-54 0 -107.5 24t-96.5 48t-71 24q-32 0 -50.5 -23t-21.5 -63h-149zM383 317q0 -55 44 -85.5t112 -30.5q92 0 147 56.5t55 162.5v69l-116 -18q-242 -36 -242 -154z" />
    <glyph glyph-name="uni1EAC" unicode="&#x1eac;" horiz-adv-x="1568" 
d="M43 0l483 1516h516l484 -1516h-406l-94 317h-520l-94 -317h-369zM432 1624l191 274h325l191 -274l-238 -2l-115 129l-116 -129zM580 -311q0 79 53 132.5t135 53.5q79 0 132.5 -54t53.5 -132q0 -77 -53.5 -133t-132.5 -56q-82 0 -135 55.5t-53 133.5zM592 610h348
l-174 592z" />
    <glyph glyph-name="uni1EAD" unicode="&#x1ead;" horiz-adv-x="1155" 
d="M428 -20q-163 0 -267 84t-104 229q0 310 469 371l215 28v19q0 77 -38 121.5t-119 44.5q-45 0 -79 -14.5t-50.5 -35.5t-26 -42t-10.5 -35l-2 -15h-310q0 8 0.5 21t9 52t24 74t51.5 77.5t85.5 73.5t131.5 52t184 21q108 0 193 -22t138.5 -59t88.5 -88.5t49 -105.5t14 -116
v-715h-334v129q-1 -1 -19.5 -22t-30 -32.5t-40 -32t-56.5 -32t-72.5 -21t-94.5 -9.5zM223 1194l232 315h278l230 -315l-252 -2l-117 131l-117 -131zM381 -311q0 79 53 132.5t135 53.5q79 0 133 -54t54 -132q0 -77 -54 -133t-133 -56q-82 0 -135 55.5t-53 133.5zM383 317
q0 -55 44 -85.5t112 -30.5q92 0 147 56.5t55 162.5v69l-116 -18q-242 -36 -242 -154z" />
    <glyph glyph-name="uni1EAE" unicode="&#x1eae;" horiz-adv-x="1568" 
d="M43 0l483 1516h516l484 -1516h-406l-94 317h-520l-94 -317h-369zM420 1948h207q0 -6 0.5 -15.5t8 -33.5t21.5 -42.5t47 -33.5t78 -15t77.5 14.5t47 35t22.5 41t9 35.5v14h205v-17t-6 -42.5t-17 -60t-37.5 -63.5t-63.5 -60.5t-98.5 -42.5t-138.5 -17t-138.5 16.5
t-98.5 43.5t-63.5 59t-38 64.5t-17.5 59.5t-6 44v16zM592 610h348l-174 592zM668 1997l98 266h340l-207 -268z" />
    <glyph glyph-name="uni1EAF" unicode="&#x1eaf;" horiz-adv-x="1155" 
d="M428 -20q-163 0 -267 84t-104 229q0 310 469 371l215 28v19q0 77 -38 121.5t-119 44.5q-45 0 -79 -14.5t-50.5 -35.5t-26 -42t-10.5 -35l-2 -15h-310q0 8 0.5 21t9 52t24 74t51.5 77.5t85.5 73.5t131.5 52t184 21q108 0 193 -22t138.5 -59t88.5 -88.5t49 -105.5t14 -116
v-715h-334v129q-1 -1 -19.5 -22t-30 -32.5t-40 -32t-56.5 -32t-72.5 -21t-94.5 -9.5zM229 1518h207v-8t2.5 -19.5t7.5 -28t16.5 -29.5t27.5 -27.5t42.5 -19.5t59.5 -8q45 0 77.5 14.5t47 35t22.5 41t9 35.5v14h204v-17t-5.5 -42.5t-17 -60.5t-38 -64t-63 -60t-98 -42.5
t-138.5 -17.5t-138.5 17t-98.5 43.5t-64 59t-38.5 65t-17.5 59t-6 43.5v17zM383 317q0 -55 44 -85.5t112 -30.5q92 0 147 56.5t55 162.5v69l-116 -18q-242 -36 -242 -154zM477 1567l98 266h340l-206 -268z" />
    <glyph glyph-name="uni1EB0" unicode="&#x1eb0;" horiz-adv-x="1568" 
d="M43 0l483 1516h516l484 -1516h-406l-94 317h-520l-94 -317h-369zM420 1948h207q0 -6 0.5 -15.5t8 -33.5t21.5 -42.5t47 -33.5t78 -15t77.5 14.5t47 35t22.5 41t9 35.5v14h205v-17t-6 -42.5t-17 -60t-37.5 -63.5t-63.5 -60.5t-98.5 -42.5t-138.5 -17t-138.5 16.5
t-98.5 43.5t-63.5 59t-38 64.5t-17.5 59.5t-6 44v16zM465 2269h334l102 -272l-233 -2zM592 610h348l-174 592z" />
    <glyph glyph-name="uni1EB1" unicode="&#x1eb1;" horiz-adv-x="1155" 
d="M428 -20q-163 0 -267 84t-104 229q0 310 469 371l215 28v19q0 77 -38 121.5t-119 44.5q-45 0 -79 -14.5t-50.5 -35.5t-26 -42t-10.5 -35l-2 -15h-310q0 8 0.5 21t9 52t24 74t51.5 77.5t85.5 73.5t131.5 52t184 21q108 0 193 -22t138.5 -59t88.5 -88.5t49 -105.5t14 -116
v-715h-334v129q-1 -1 -19.5 -22t-30 -32.5t-40 -32t-56.5 -32t-72.5 -21t-94.5 -9.5zM227 1518h207v-8t2.5 -19.5t7.5 -28t16.5 -29.5t27.5 -27.5t42.5 -19.5t59.5 -8q45 0 77.5 14.5t46.5 35t22 41t8 35.5l1 14h205v-17t-5.5 -42.5t-17 -60.5t-38 -64t-63 -60t-98 -42.5
t-138.5 -17.5t-138.5 17t-98.5 43.5t-64 59t-38.5 65t-17.5 59t-6 43.5v17zM272 1839h334l103 -272l-234 -2zM383 317q0 -55 44 -85.5t112 -30.5q92 0 147 56.5t55 162.5v69l-116 -18q-242 -36 -242 -154z" />
    <glyph glyph-name="uni1EB2" unicode="&#x1eb2;" horiz-adv-x="1568" 
d="M43 0l483 1516h516l484 -1516h-406l-94 317h-520l-94 -317h-369zM420 1948h207q0 -6 0.5 -15.5t8 -33.5t21.5 -42.5t47 -33.5t78 -15t77.5 14.5t47 35t22.5 41t9 35.5v14h205v-17t-6 -42.5t-17 -60t-37.5 -63.5t-63.5 -60.5t-98.5 -42.5t-138.5 -17t-138.5 16.5
t-98.5 43.5t-63.5 59t-38 64.5t-17.5 59.5t-6 44v16zM537 2220q4 104 77 159.5t191 55.5q106 0 179 -48.5t73 -129.5q0 -58 -31 -92t-108 -82q-27 -18 -37.5 -32.5t-10.5 -37.5v-8h-168v8q0 58 15 86t71 60q45 26 63.5 43t18.5 41t-22.5 38.5t-52.5 14.5q-34 0 -57.5 -19.5
t-24.5 -56.5h-176zM592 610h348l-174 592z" />
    <glyph glyph-name="uni1EB3" unicode="&#x1eb3;" horiz-adv-x="1155" 
d="M428 -20q-163 0 -267 84t-104 229q0 310 469 371l215 28v19q0 77 -38 121.5t-119 44.5q-45 0 -79 -14.5t-50.5 -35.5t-26 -42t-10.5 -35l-2 -15h-310q0 8 0.5 21t9 52t24 74t51.5 77.5t85.5 73.5t131.5 52t184 21q108 0 193 -22t138.5 -59t88.5 -88.5t49 -105.5t14 -116
v-715h-334v129q-1 -1 -19.5 -22t-30 -32.5t-40 -32t-56.5 -32t-72.5 -21t-94.5 -9.5zM227 1518h207v-8t2.5 -19.5t7.5 -28t16.5 -29.5t27.5 -27.5t42.5 -19.5t59.5 -8q45 0 77.5 14.5t46.5 35t22 41t8 35.5l1 14h205v-17t-5.5 -42.5t-17 -60.5t-38 -64t-63 -60t-98 -42.5
t-138.5 -17.5t-138.5 17t-98.5 43.5t-64 59t-38.5 65t-17.5 59t-6 43.5v17zM344 1790q4 104 77 159.5t191 55.5q106 0 179 -48.5t73 -129.5q0 -58 -31 -92t-108 -82q-27 -18 -37 -32.5t-10 -37.5v-8h-168v8q0 58 15 86t71 60q31 19 44.5 27.5t25.5 23.5t12 32q0 24 -23.5 39
t-52.5 15q-34 0 -57.5 -19.5t-24.5 -56.5h-176zM383 317q0 -55 44 -85.5t112 -30.5q92 0 147 56.5t55 162.5v69l-116 -18q-242 -36 -242 -154z" />
    <glyph glyph-name="uni1EB4" unicode="&#x1eb4;" horiz-adv-x="1568" 
d="M43 0l483 1516h516l484 -1516h-406l-94 317h-520l-94 -317h-369zM420 1948h207q0 -6 0.5 -15.5t8 -33.5t21.5 -42.5t47 -33.5t78 -15t77.5 14.5t47 35t22.5 41t9 35.5v14h205v-17t-6 -42.5t-17 -60t-37.5 -63.5t-63.5 -60.5t-98.5 -42.5t-138.5 -17t-138.5 16.5
t-98.5 43.5t-63.5 59t-38 64.5t-17.5 59.5t-6 44v16zM451 2021q-1 55 8 101t29.5 86t59.5 63t93 23q55 0 108 -25t94.5 -49.5t69.5 -24.5q31 0 49 24.5t21 64.5h150q0 -55 -9 -101t-29.5 -86t-58.5 -63t-90 -23q-43 0 -86 15t-71.5 33t-61 33t-55.5 15q-32 0 -50.5 -23
t-21.5 -63h-149zM592 610h348l-174 592z" />
    <glyph glyph-name="uni1EB5" unicode="&#x1eb5;" horiz-adv-x="1155" 
d="M428 -20q-163 0 -267 84t-104 229q0 310 469 371l215 28v19q0 77 -38 121.5t-119 44.5q-45 0 -79 -14.5t-50.5 -35.5t-26 -42t-10.5 -35l-2 -15h-310q0 8 0.5 21t9 52t24 74t51.5 77.5t85.5 73.5t131.5 52t184 21q108 0 193 -22t138.5 -59t88.5 -88.5t49 -105.5t14 -116
v-715h-334v129q-1 -1 -19.5 -22t-30 -32.5t-40 -32t-56.5 -32t-72.5 -21t-94.5 -9.5zM229 1518h207v-8t2.5 -19.5t7.5 -28t16.5 -29.5t27.5 -27.5t42.5 -19.5t59.5 -8q45 0 77.5 14.5t47 35t22.5 41t9 35.5v14h204v-17t-5.5 -42.5t-17 -60.5t-38 -64t-63 -60t-98 -42.5
t-138.5 -17.5t-138.5 17t-98.5 43.5t-64 59t-38.5 65t-17.5 59t-6 43.5v17zM260 1591q-1 55 8 101t30 86t60 63t93 23q55 0 108 -25t94.5 -49.5t69.5 -24.5q31 0 49 24t21 64h149q0 -55 -9 -101t-29 -86t-58 -62.5t-90 -22.5q-54 0 -107.5 24t-96.5 48t-71 24
q-32 0 -50 -22.5t-21 -63.5h-150zM383 317q0 -55 44 -85.5t112 -30.5q92 0 147 56.5t55 162.5v69l-116 -18q-242 -36 -242 -154z" />
    <glyph glyph-name="uni1EB6" unicode="&#x1eb6;" horiz-adv-x="1568" 
d="M43 0l483 1516h516l484 -1516h-406l-94 317h-520l-94 -317h-369zM422 1982h207q0 -6 1 -17t9.5 -38.5t23.5 -48.5t47 -38t76 -17t76 16.5t47 39.5t24 46.5t10 40.5l1 16h205q0 -7 -0.5 -19t-6.5 -46.5t-18 -66t-39 -70t-64 -66t-98 -46.5t-137 -19q-77 0 -138 18.5
t-98 47.5t-64 65t-39 71.5t-18.5 64.5t-6.5 48v18zM580 -311q0 79 53 132.5t135 53.5q79 0 132.5 -54t53.5 -132q0 -77 -53.5 -133t-132.5 -56q-82 0 -135 55.5t-53 133.5zM592 610h348l-174 592z" />
    <glyph glyph-name="uni1EB7" unicode="&#x1eb7;" horiz-adv-x="1155" 
d="M428 -20q-163 0 -267 84t-104 229q0 310 469 371l215 28v19q0 77 -38 121.5t-119 44.5q-45 0 -79 -14.5t-50.5 -35.5t-26 -42t-10.5 -35l-2 -15h-310q0 8 0.5 21t9 52t24 74t51.5 77.5t85.5 73.5t131.5 52t184 21q108 0 193 -22t138.5 -59t88.5 -88.5t49 -105.5t14 -116
v-715h-334v129q-1 -1 -19.5 -22t-30 -32.5t-40 -32t-56.5 -32t-72.5 -21t-94.5 -9.5zM231 1552h207q0 -6 1 -17t10 -38.5t24 -48.5t47 -38t76 -17t76 16.5t47 39.5t24 46.5t10 40.5l1 16h204q0 -7 -0.5 -19t-6.5 -46.5t-17.5 -66t-38.5 -70t-64 -66t-98 -46.5t-137 -19
q-77 0 -138.5 18.5t-98.5 47.5t-64 65t-38.5 71.5t-18 64.5t-6.5 48zM381 -311q0 79 53 132.5t135 53.5q79 0 133 -54t54 -132q0 -77 -54 -133t-133 -56q-82 0 -135 55.5t-53 133.5zM383 317q0 -55 44 -85.5t112 -30.5q92 0 147 56.5t55 162.5v69l-116 -18
q-242 -36 -242 -154z" />
    <glyph glyph-name="uni1EB8" unicode="&#x1eb8;" horiz-adv-x="1243" 
d="M86 0v1516h1098v-314h-713v-284h600v-308h-600v-297h715v-313h-1100zM428 -311q0 79 53 132.5t135 53.5q79 0 133 -54t54 -132q0 -77 -54 -133t-133 -56q-82 0 -135 55.5t-53 133.5z" />
    <glyph glyph-name="uni1EB9" unicode="&#x1eb9;" horiz-adv-x="1247" 
d="M844 653q-4 99 -61 154t-146 55q-90 0 -148.5 -57t-64.5 -152h420zM72 545q0 109 34.5 207.5t101.5 178.5t177 127.5t248 47.5q189 0 317.5 -85.5t183 -231.5t37.5 -336h-745q9 -108 67.5 -172t163.5 -64q47 0 84.5 12.5t57.5 30.5t33.5 36.5t17.5 31.5l4 12h309
q-1 -8 -3.5 -20.5t-16.5 -50t-34.5 -71.5t-60.5 -75.5t-91.5 -71.5t-131.5 -50.5t-176 -20.5q-113 0 -209 31t-163 84t-113.5 125t-69 154t-22.5 171zM465 -309q0 79 53 132.5t135 53.5q79 0 133 -54t54 -132q0 -77 -54 -133t-133 -56q-82 0 -135 55.5t-53 133.5z" />
    <glyph glyph-name="uni1EBA" unicode="&#x1eba;" horiz-adv-x="1243" 
d="M86 0v1516h1098v-314h-713v-284h600v-308h-600v-297h715v-313h-1100zM342 1878q3 115 81 175.5t206 60.5q116 0 195 -53.5t79 -141.5q0 -33 -9 -58t-32 -48.5t-44.5 -39t-63.5 -42.5q-32 -21 -43 -36t-11 -40v-10h-182v8q0 63 17 92.5t75 64.5q63 39 77 55q15 18 15 38
q0 25 -24.5 41t-56.5 16q-40 0 -66 -21t-27 -61h-186z" />
    <glyph glyph-name="uni1EBB" unicode="&#x1ebb;" horiz-adv-x="1247" 
d="M844 653q-4 99 -61 154t-146 55q-90 0 -148.5 -57t-64.5 -152h420zM72 545q0 109 34.5 207.5t101.5 178.5t177 127.5t248 47.5q189 0 317.5 -85.5t183 -231.5t37.5 -336h-745q9 -108 67.5 -172t163.5 -64q47 0 84.5 12.5t57.5 30.5t33.5 36.5t17.5 31.5l4 12h309
q-1 -8 -3.5 -20.5t-16.5 -50t-34.5 -71.5t-60.5 -75.5t-91.5 -71.5t-131.5 -50.5t-176 -20.5q-113 0 -209 31t-163 84t-113.5 125t-69 154t-22.5 171zM365 1450q3 115 81 175.5t205 60.5q116 0 195.5 -53.5t79.5 -141.5q0 -33 -9 -58t-32.5 -48.5t-44.5 -39t-64 -42.5
q-32 -21 -42.5 -35.5t-10.5 -40.5v-10h-182v8q0 63 17 92.5t75 64.5q63 39 77 55q15 18 15 38q0 25 -25 41t-57 16q-40 0 -65.5 -21t-26.5 -61h-186z" />
    <glyph glyph-name="uni1EBC" unicode="&#x1ebc;" horiz-adv-x="1243" 
d="M86 0v1516h1098v-314h-713v-284h600v-308h-600v-297h715v-313h-1100zM246 1649q-4 290 213 290q51 0 97 -16.5t73.5 -36.5t59.5 -36.5t59 -16.5q32 0 47 24t18 72h174q4 -291 -211 -291q-50 0 -95.5 16.5t-73 36t-61 36t-61.5 16.5q-32 0 -47 -23t-18 -71h-174z" />
    <glyph glyph-name="uni1EBD" unicode="&#x1ebd;" horiz-adv-x="1247" 
d="M844 653q-4 99 -61 154t-146 55q-90 0 -148.5 -57t-64.5 -152h420zM72 545q0 109 34.5 207.5t101.5 178.5t177 127.5t248 47.5q189 0 317.5 -85.5t183 -231.5t37.5 -336h-745q9 -108 67.5 -172t163.5 -64q47 0 84.5 12.5t57.5 30.5t33.5 36.5t17.5 31.5l4 12h309
q-1 -8 -3.5 -20.5t-16.5 -50t-34.5 -71.5t-60.5 -75.5t-91.5 -71.5t-131.5 -50.5t-176 -20.5q-113 0 -209 31t-163 84t-113.5 125t-69 154t-22.5 171zM266 1221q-4 290 213 290q51 0 97 -16.5t73.5 -36.5t59.5 -36.5t59 -16.5q60 0 66 96h174q4 -291 -211 -291
q-50 0 -95.5 16.5t-73 36t-61 36t-61.5 16.5q-33 0 -48 -23t-18 -71h-174z" />
    <glyph glyph-name="uni1EBE" unicode="&#x1ebe;" horiz-adv-x="1243" 
d="M86 0v1516h1098v-314h-713v-284h600v-308h-600v-297h715v-313h-1100zM262 1624l191 274h325l191 -274l-238 -2l-115 129l-116 -129zM870 1866l99 266h340l-207 -268z" />
    <glyph glyph-name="uni1EBF" unicode="&#x1ebf;" horiz-adv-x="1247" 
d="M844 653q-4 99 -61 154t-146 55q-90 0 -148.5 -57t-64.5 -152h420zM72 545q0 109 34.5 207.5t101.5 178.5t177 127.5t248 47.5q189 0 317.5 -85.5t183 -231.5t37.5 -336h-745q9 -108 67.5 -172t163.5 -64q47 0 84.5 12.5t57.5 30.5t33.5 36.5t17.5 31.5l4 12h309
q-1 -8 -3.5 -20.5t-16.5 -50t-34.5 -71.5t-60.5 -75.5t-91.5 -71.5t-131.5 -50.5t-176 -20.5q-113 0 -209 31t-163 84t-113.5 125t-69 154t-22.5 171zM283 1196l190 274h326l190 -274l-237 -2l-115 129l-117 -129zM889 1438l98 266h340l-207 -268z" />
    <glyph glyph-name="uni1EC0" unicode="&#x1ec0;" horiz-adv-x="1243" 
d="M86 0v1516h1098v-314h-713v-284h600v-308h-600v-297h715v-313h-1100zM262 1624l191 274h325l191 -274l-238 -2l-115 129l-116 -129zM682 2189h375l104 -315l-250 -2z" />
    <glyph glyph-name="uni1EC1" unicode="&#x1ec1;" horiz-adv-x="1247" 
d="M844 653q-4 99 -61 154t-146 55q-90 0 -148.5 -57t-64.5 -152h420zM72 545q0 109 34.5 207.5t101.5 178.5t177 127.5t248 47.5q189 0 317.5 -85.5t183 -231.5t37.5 -336h-745q9 -108 67.5 -172t163.5 -64q47 0 84.5 12.5t57.5 30.5t33.5 36.5t17.5 31.5l4 12h309
q-1 -8 -3.5 -20.5t-16.5 -50t-34.5 -71.5t-60.5 -75.5t-91.5 -71.5t-131.5 -50.5t-176 -20.5q-113 0 -209 31t-163 84t-113.5 125t-69 154t-22.5 171zM283 1196l190 274h326l190 -274l-237 -2l-115 129l-117 -129zM702 1761h375l105 -315l-250 -2z" />
    <glyph glyph-name="uni1EC2" unicode="&#x1ec2;" horiz-adv-x="1243" 
d="M86 0v1516h1098v-314h-713v-284h600v-308h-600v-297h715v-313h-1100zM262 1624l191 274h325l191 -274l-238 -2l-115 129l-116 -129zM739 2089q4 104 77.5 159.5t191.5 55.5q106 0 179 -48.5t73 -129.5q0 -58 -31 -91.5t-109 -82.5q-27 -18 -37 -32.5t-10 -37.5v-8h-168v8
q0 58 15 86t71 60q31 19 44.5 27.5t25.5 23.5t12 32q0 24 -23.5 39t-52.5 15q-34 0 -57.5 -19.5t-24.5 -56.5h-176z" />
    <glyph glyph-name="uni1EC3" unicode="&#x1ec3;" horiz-adv-x="1247" 
d="M844 653q-4 99 -61 154t-146 55q-90 0 -148.5 -57t-64.5 -152h420zM72 545q0 109 34.5 207.5t101.5 178.5t177 127.5t248 47.5q189 0 317.5 -85.5t183 -231.5t37.5 -336h-745q9 -108 67.5 -172t163.5 -64q47 0 84.5 12.5t57.5 30.5t33.5 36.5t17.5 31.5l4 12h309
q-1 -8 -3.5 -20.5t-16.5 -50t-34.5 -71.5t-60.5 -75.5t-91.5 -71.5t-131.5 -50.5t-176 -20.5q-113 0 -209 31t-163 84t-113.5 125t-69 154t-22.5 171zM283 1196l190 274h326l190 -274l-237 -2l-115 129l-117 -129zM758 1661q4 104 77 159.5t191 55.5q106 0 179 -48.5
t73 -129.5q0 -58 -31 -92t-108 -82q-27 -18 -37 -32.5t-10 -37.5v-8h-168v8q0 57 15 85t71 60q45 26 63.5 43t18.5 41t-23.5 39t-52.5 15q-34 0 -57.5 -19.5t-24.5 -56.5h-176z" />
    <glyph glyph-name="uni1EC4" unicode="&#x1ec4;" horiz-adv-x="1243" 
d="M86 0v1516h1098v-314h-713v-284h600v-308h-600v-297h715v-313h-1100zM262 1624l191 274h325l191 -274l-238 -2l-115 129l-116 -129zM274 1970q-1 55 8 101t30 86t60 63t93 23q44 0 87 -15.5t71 -34t59.5 -34t54.5 -15.5q31 0 49 24t21 64h149q0 -55 -9 -101t-29 -86
t-58 -62.5t-90 -22.5q-43 0 -86 15t-71.5 33t-61 33t-55.5 15q-32 0 -50.5 -23t-21.5 -63h-150z" />
    <glyph glyph-name="uni1EC5" unicode="&#x1ec5;" horiz-adv-x="1247" 
d="M844 653q-4 99 -61 154t-146 55q-90 0 -148.5 -57t-64.5 -152h420zM72 545q0 109 34.5 207.5t101.5 178.5t177 127.5t248 47.5q189 0 317.5 -85.5t183 -231.5t37.5 -336h-745q9 -108 67.5 -172t163.5 -64q47 0 84.5 12.5t57.5 30.5t33.5 36.5t17.5 31.5l4 12h309
q-1 -8 -3.5 -20.5t-16.5 -50t-34.5 -71.5t-60.5 -75.5t-91.5 -71.5t-131.5 -50.5t-176 -20.5q-113 0 -209 31t-163 84t-113.5 125t-69 154t-22.5 171zM283 1196l190 274h326l190 -274l-237 -2l-115 129l-117 -129zM295 1542q-1 55 8 101t29.5 86t59.5 63t93 23
q44 0 87 -15.5t71 -34t60 -34t55 -15.5q31 0 48.5 24t20.5 64h150q0 -55 -9 -101t-29 -86t-58 -62.5t-90 -22.5q-54 0 -107.5 24t-96.5 48t-71 24q-32 0 -50.5 -23t-21.5 -63h-149z" />
    <glyph glyph-name="uni1EC6" unicode="&#x1ec6;" horiz-adv-x="1243" 
d="M86 0v1516h1098v-314h-713v-284h600v-308h-600v-297h715v-313h-1100zM262 1624l191 274h325l191 -274l-238 -2l-115 129l-116 -129zM428 -311q0 79 53 132.5t135 53.5q79 0 133 -54t54 -132q0 -77 -54 -133t-133 -56q-82 0 -135 55.5t-53 133.5z" />
    <glyph glyph-name="uni1EC7" unicode="&#x1ec7;" horiz-adv-x="1247" 
d="M844 653q-4 99 -61 154t-146 55q-90 0 -148.5 -57t-64.5 -152h420zM72 545q0 109 34.5 207.5t101.5 178.5t177 127.5t248 47.5q189 0 317.5 -85.5t183 -231.5t37.5 -336h-745q9 -108 67.5 -172t163.5 -64q47 0 84.5 12.5t57.5 30.5t33.5 36.5t17.5 31.5l4 12h309
q-1 -8 -3.5 -20.5t-16.5 -50t-34.5 -71.5t-60.5 -75.5t-91.5 -71.5t-131.5 -50.5t-176 -20.5q-113 0 -209 31t-163 84t-113.5 125t-69 154t-22.5 171zM266 1196l232 315h278l230 -315l-252 -2l-117 131l-117 -131zM465 -309q0 79 53 132.5t135 53.5q79 0 133 -54t54 -132
q0 -77 -54 -133t-133 -56q-82 0 -135 55.5t-53 133.5z" />
    <glyph glyph-name="uni1EC8" unicode="&#x1ec8;" horiz-adv-x="552" 
d="M86 0v1516h385v-1516h-385zM-4 1878q3 115 81 175.5t206 60.5q116 0 195 -53.5t79 -141.5q0 -33 -9 -58t-32 -48.5t-44.5 -39t-63.5 -42.5q-32 -21 -43 -36t-11 -40v-10h-182v8q0 63 17 92.5t75 64.5q63 39 77 55q15 18 15 38q0 25 -25 41t-57 16q-40 0 -65.5 -21
t-26.5 -61h-186z" />
    <glyph glyph-name="uni1EC9" unicode="&#x1ec9;" horiz-adv-x="501" 
d="M76 0v1085h350v-1085h-350zM-23 1448q3 115 81 175t206 60q116 0 195.5 -53t79.5 -141q0 -33 -9.5 -58.5t-32.5 -48.5t-44.5 -39t-63.5 -43q-32 -21 -42.5 -35.5t-10.5 -39.5v-11h-182v9q0 63 17 92.5t75 64.5q63 39 77 55q15 18 15 38q0 25 -25 41t-57 16
q-40 0 -65.5 -21t-26.5 -61h-187z" />
    <glyph glyph-name="uni1ECA" unicode="&#x1eca;" horiz-adv-x="557" 
d="M86 0v1516h385v-1516h-385zM82 -311q0 79 53 132.5t135 53.5q79 0 133 -54t54 -132q0 -77 -54 -133t-133 -56q-82 0 -135 55.5t-53 133.5z" />
    <glyph glyph-name="uni1ECB" unicode="&#x1ecb;" horiz-adv-x="501" 
d="M76 0v1085h350v-1085h-350zM45 1389q0 84 58.5 140t148.5 56q89 0 148 -56t59 -140q0 -79 -59.5 -137t-147.5 -58q-89 0 -148 57.5t-59 137.5zM63 -311q0 79 53.5 132.5t135.5 53.5q79 0 132.5 -54t53.5 -132q0 -77 -53.5 -133t-132.5 -56q-82 0 -135.5 55.5t-53.5 133.5
z" />
    <glyph glyph-name="uni1ECC" unicode="&#x1ecc;" horiz-adv-x="1685" 
d="M844 -20q-153 0 -283 41.5t-222.5 114.5t-157.5 171.5t-96.5 213t-31.5 239.5q0 124 31.5 237.5t96.5 212t157.5 171t222.5 114t283 41.5t282.5 -41.5t221.5 -114t157 -171t96 -212t31 -237.5q0 -125 -31 -239.5t-96 -213t-157 -171.5t-221.5 -114.5t-282.5 -41.5z
M453 760q0 -204 104 -335.5t287 -131.5q182 0 286.5 132t104.5 335q0 131 -45 235t-135 167t-211 63q-122 0 -212 -63t-134.5 -167t-44.5 -235zM655 -311q0 79 53.5 132.5t135.5 53.5q79 0 132.5 -54t53.5 -132q0 -77 -53.5 -133t-132.5 -56q-82 0 -135.5 55.5t-53.5 133.5z
" />
    <glyph glyph-name="uni1ECD" unicode="&#x1ecd;" 
d="M655 -20q-181 0 -314.5 74.5t-201 201t-67.5 287.5t67.5 287.5t201 201t314.5 74.5q180 0 313.5 -74.5t201 -201t67.5 -287.5t-67.5 -287.5t-201 -201t-313.5 -74.5zM428 543q0 -139 61 -221t166 -82t165.5 82t60.5 221t-60.5 221t-165.5 82t-166 -82t-61 -221zM483 -311
q0 79 53.5 132.5t135.5 53.5q79 0 132.5 -54t53.5 -132q0 -77 -53.5 -133t-132.5 -56q-82 0 -135.5 55.5t-53.5 133.5z" />
    <glyph glyph-name="uni1ECE" unicode="&#x1ece;" horiz-adv-x="1685" 
d="M844 -20q-153 0 -283 41.5t-222.5 114.5t-157.5 171.5t-96.5 213t-31.5 239.5q0 124 31.5 237.5t96.5 212t157.5 171t222.5 114t283 41.5t282.5 -41.5t221.5 -114t157 -171t96 -212t31 -237.5q0 -125 -31 -239.5t-96 -213t-157 -171.5t-221.5 -114.5t-282.5 -41.5z
M453 760q0 -204 104 -335.5t287 -131.5q182 0 286.5 132t104.5 335q0 131 -45 235t-135 167t-211 63q-122 0 -212 -63t-134.5 -167t-44.5 -235zM571 1898q3 115 81 175.5t206 60.5q116 0 195.5 -53.5t79.5 -141.5q0 -33 -9 -58t-32.5 -48.5t-44.5 -39t-64 -42.5
q-32 -21 -42.5 -35.5t-10.5 -40.5v-10h-182v8q0 64 17 93.5t75 64.5q4 3 16.5 10.5t16.5 10t14 9t13.5 9.5l10.5 9t9.5 10t6 10t4.5 12t1 12q0 25 -25 41t-57 16q-40 0 -65.5 -21t-26.5 -61h-187z" />
    <glyph glyph-name="uni1ECF" unicode="&#x1ecf;" 
d="M655 -20q-181 0 -314.5 74.5t-201 201t-67.5 287.5t67.5 287.5t201 201t314.5 74.5q180 0 313.5 -74.5t201 -201t67.5 -287.5t-67.5 -287.5t-201 -201t-313.5 -74.5zM383 1448q3 115 81 175t206 60q116 0 195 -53t79 -141q0 -62 -34 -99.5t-115 -89.5q-32 -21 -43 -35.5
t-11 -39.5v-11h-182v9q0 63 17 92.5t75 64.5q63 39 77 55q15 18 15 38q0 25 -24.5 41t-56.5 16q-40 0 -66 -21t-27 -61h-186zM428 543q0 -139 61 -221t166 -82t165.5 82t60.5 221t-60.5 221t-165.5 82t-166 -82t-61 -221z" />
    <glyph glyph-name="uni1ED0" unicode="&#x1ed0;" horiz-adv-x="1685" 
d="M844 -20q-153 0 -283 41.5t-222.5 114.5t-157.5 171.5t-96.5 213t-31.5 239.5q0 124 31.5 237.5t96.5 212t157.5 171t222.5 114t283 41.5t282.5 -41.5t221.5 -114t157 -171t96 -212t31 -237.5q0 -125 -31 -239.5t-96 -213t-157 -171.5t-221.5 -114.5t-282.5 -41.5z
M453 760q0 -204 104 -335.5t287 -131.5q182 0 286.5 132t104.5 335q0 131 -45 235t-135 167t-211 63q-122 0 -212 -63t-134.5 -167t-44.5 -235zM489 1645l191 274h326l190 -274l-238 -3l-114 130l-117 -130zM1096 1886l98 266h340l-207 -268z" />
    <glyph glyph-name="uni1ED1" unicode="&#x1ed1;" 
d="M655 -20q-181 0 -314.5 74.5t-201 201t-67.5 287.5t67.5 287.5t201 201t314.5 74.5q180 0 313.5 -74.5t201 -201t67.5 -287.5t-67.5 -287.5t-201 -201t-313.5 -74.5zM301 1194l191 274h325l191 -274l-238 -2l-115 129l-116 -129zM428 543q0 -139 61 -221t166 -82
t165.5 82t60.5 221t-60.5 221t-165.5 82t-166 -82t-61 -221zM907 1436l99 266h340l-207 -268z" />
    <glyph glyph-name="uni1ED2" unicode="&#x1ed2;" horiz-adv-x="1685" 
d="M844 -20q-153 0 -283 41.5t-222.5 114.5t-157.5 171.5t-96.5 213t-31.5 239.5q0 124 31.5 237.5t96.5 212t157.5 171t222.5 114t283 41.5t282.5 -41.5t221.5 -114t157 -171t96 -212t31 -237.5q0 -125 -31 -239.5t-96 -213t-157 -171.5t-221.5 -114.5t-282.5 -41.5z
M453 760q0 -204 104 -335.5t287 -131.5q182 0 286.5 132t104.5 335q0 131 -45 235t-135 167t-211 63q-122 0 -212 -63t-134.5 -167t-44.5 -235zM489 1645l191 274h326l190 -274l-238 -3l-114 130l-117 -130zM909 2210h375l105 -316l-250 -2z" />
    <glyph glyph-name="uni1ED3" unicode="&#x1ed3;" 
d="M655 -20q-181 0 -314.5 74.5t-201 201t-67.5 287.5t67.5 287.5t201 201t314.5 74.5q180 0 313.5 -74.5t201 -201t67.5 -287.5t-67.5 -287.5t-201 -201t-313.5 -74.5zM301 1194l191 274h325l191 -274l-238 -2l-115 129l-116 -129zM428 543q0 -139 61 -221t166 -82
t165.5 82t60.5 221t-60.5 221t-165.5 82t-166 -82t-61 -221zM721 1759h375l104 -315l-250 -2z" />
    <glyph glyph-name="uni1ED4" unicode="&#x1ed4;" horiz-adv-x="1685" 
d="M844 -20q-153 0 -283 41.5t-222.5 114.5t-157.5 171.5t-96.5 213t-31.5 239.5q0 124 31.5 237.5t96.5 212t157.5 171t222.5 114t283 41.5t282.5 -41.5t221.5 -114t157 -171t96 -212t31 -237.5q0 -125 -31 -239.5t-96 -213t-157 -171.5t-221.5 -114.5t-282.5 -41.5z
M453 760q0 -204 104 -335.5t287 -131.5q182 0 286.5 132t104.5 335q0 131 -45 235t-135 167t-211 63q-122 0 -212 -63t-134.5 -167t-44.5 -235zM489 1645l191 274h326l190 -274l-238 -3l-114 130l-117 -130zM965 2109q4 104 77 159.5t191 55.5q106 0 179 -48.5t73 -129.5
q0 -58 -31 -92t-108 -82q-27 -18 -37.5 -32t-10.5 -37v-9h-168v9q0 57 15.5 85t71.5 60q44 26 62.5 43t18.5 41t-22.5 38.5t-52.5 14.5q-34 0 -57.5 -19.5t-24.5 -56.5h-176z" />
    <glyph glyph-name="uni1ED5" unicode="&#x1ed5;" 
d="M655 -20q-181 0 -314.5 74.5t-201 201t-67.5 287.5t67.5 287.5t201 201t314.5 74.5q180 0 313.5 -74.5t201 -201t67.5 -287.5t-67.5 -287.5t-201 -201t-313.5 -74.5zM301 1194l191 274h325l191 -274l-238 -2l-115 129l-116 -129zM428 543q0 -139 61 -221t166 -82
t165.5 82t60.5 221t-60.5 221t-165.5 82t-166 -82t-61 -221zM776 1659q4 104 77 159.5t191 55.5q106 0 179 -48.5t73 -129.5q0 -58 -31 -92t-108 -82q-27 -18 -37 -32.5t-10 -37.5v-8h-168v8q0 57 15 85t71 60q45 26 63.5 43t18.5 41t-23.5 39t-52.5 15q-34 0 -57.5 -19.5
t-24.5 -56.5h-176z" />
    <glyph glyph-name="uni1ED6" unicode="&#x1ed6;" horiz-adv-x="1685" 
d="M844 -20q-153 0 -283 41.5t-222.5 114.5t-157.5 171.5t-96.5 213t-31.5 239.5q0 124 31.5 237.5t96.5 212t157.5 171t222.5 114t283 41.5t282.5 -41.5t221.5 -114t157 -171t96 -212t31 -237.5q0 -125 -31 -239.5t-96 -213t-157 -171.5t-221.5 -114.5t-282.5 -41.5z
M453 760q0 -204 104 -335.5t287 -131.5q182 0 286.5 132t104.5 335q0 131 -45 235t-135 167t-211 63q-122 0 -212 -63t-134.5 -167t-44.5 -235zM489 1645l191 274h326l190 -274l-238 -3l-114 130l-117 -130zM502 1991q-1 55 8 101t29.5 86t59.5 62.5t93 22.5q44 0 87 -15.5
t71 -33.5t60 -33.5t55 -15.5q31 0 48.5 24t20.5 64h150q0 -55 -9 -101t-29.5 -86t-58.5 -63t-90 -23q-43 0 -86 15t-71.5 33.5t-61 33.5t-55.5 15q-32 0 -50.5 -23t-21.5 -63h-149z" />
    <glyph glyph-name="uni1ED7" unicode="&#x1ed7;" 
d="M655 -20q-181 0 -314.5 74.5t-201 201t-67.5 287.5t67.5 287.5t201 201t314.5 74.5q180 0 313.5 -74.5t201 -201t67.5 -287.5t-67.5 -287.5t-201 -201t-313.5 -74.5zM301 1194l191 274h325l191 -274l-238 -2l-115 129l-116 -129zM313 1540q-1 55 8 101t30 86t60 62.5
t93 22.5q44 0 87 -15.5t71 -33.5t59.5 -33.5t54.5 -15.5q31 0 49 24t21 64h149q0 -55 -9 -101t-29 -86t-58 -62.5t-90 -22.5q-43 0 -86 15t-71.5 33t-61 33t-55.5 15q-32 0 -50.5 -23t-21.5 -63h-150zM428 543q0 -139 61 -221t166 -82t165.5 82t60.5 221t-60.5 221
t-165.5 82t-166 -82t-61 -221z" />
    <glyph glyph-name="uni1ED8" unicode="&#x1ed8;" horiz-adv-x="1685" 
d="M844 -20q-153 0 -283 41.5t-222.5 114.5t-157.5 171.5t-96.5 213t-31.5 239.5q0 124 31.5 237.5t96.5 212t157.5 171t222.5 114t283 41.5t282.5 -41.5t221.5 -114t157 -171t96 -212t31 -237.5q0 -125 -31 -239.5t-96 -213t-157 -171.5t-221.5 -114.5t-282.5 -41.5z
M453 760q0 -204 104 -335.5t287 -131.5q182 0 286.5 132t104.5 335q0 131 -45 235t-135 167t-211 63q-122 0 -212 -63t-134.5 -167t-44.5 -235zM489 1645l191 274h326l190 -274l-238 -3l-114 130l-117 -130zM655 -311q0 79 53.5 132.5t135.5 53.5q79 0 132.5 -54t53.5 -132
q0 -77 -53.5 -133t-132.5 -56q-82 0 -135.5 55.5t-53.5 133.5z" />
    <glyph glyph-name="uni1ED9" unicode="&#x1ed9;" 
d="M655 -20q-181 0 -314.5 74.5t-201 201t-67.5 287.5t67.5 287.5t201 201t314.5 74.5q180 0 313.5 -74.5t201 -201t67.5 -287.5t-67.5 -287.5t-201 -201t-313.5 -74.5zM283 1194l231 315h279l229 -315l-252 -2l-117 131l-116 -131zM428 543q0 -139 61 -221t166 -82
t165.5 82t60.5 221t-60.5 221t-165.5 82t-166 -82t-61 -221zM467 -311q0 79 53 132.5t135 53.5q79 0 133 -54t54 -132q0 -77 -54 -133t-133 -56q-82 0 -135 55.5t-53 133.5z" />
    <glyph glyph-name="uni1EDA" unicode="&#x1eda;" horiz-adv-x="1714" 
d="M844 -20q-153 0 -283 41.5t-222.5 114.5t-157.5 171.5t-96.5 213t-31.5 239.5q0 123 31 236t95.5 211t156.5 171t220.5 115t279.5 43h4h4q32 0 94 -4q26 -2 68 -6.5t75 -7t64 -2.5q76 0 116 17t61.5 65.5t23.5 142.5h294q0 -184 -75 -268t-224 -89q143 -106 217 -269.5
t74 -354.5q0 -125 -31 -239.5t-96 -213t-157 -171.5t-221.5 -114.5t-282.5 -41.5zM453 760q0 -204 104 -335.5t287 -131.5q182 0 286.5 132t104.5 335q0 131 -45 235t-135 167t-211 63q-122 0 -212 -63t-134.5 -167t-44.5 -235zM717 1647l102 319h377l-229 -321z" />
    <glyph glyph-name="uni1EDB" unicode="&#x1edb;" horiz-adv-x="1368" 
d="M655 -20q-181 0 -314.5 74.5t-201 201t-67.5 287.5q0 160 66 285.5t197.5 200.5t309.5 77h6h4q53 0 99 -6q115 -13 151 -13q71 0 106 42.5t38 162.5h260q-1 -72 -14.5 -127.5t-35 -91t-54 -59t-66.5 -34.5t-76 -15q85 -76 129.5 -185t44.5 -237q0 -161 -67.5 -287.5
t-201 -201t-313.5 -74.5zM428 543q0 -139 61 -221t166 -82t165.5 82t60.5 221t-60.5 221t-165.5 82t-166 -82t-61 -221zM522 1217l103 319h376l-229 -322z" />
    <glyph glyph-name="uni1EDC" unicode="&#x1edc;" horiz-adv-x="1714" 
d="M844 -20q-153 0 -283 41.5t-222.5 114.5t-157.5 171.5t-96.5 213t-31.5 239.5q0 123 31 236t95.5 211t156.5 171t220.5 115t279.5 43h4h4q32 0 94 -4q26 -2 68 -6.5t75 -7t64 -2.5q76 0 116 17t61.5 65.5t23.5 142.5h294q0 -184 -75 -268t-224 -89q143 -106 217 -269.5
t74 -354.5q0 -125 -31 -239.5t-96 -213t-157 -171.5t-221.5 -114.5t-282.5 -41.5zM453 760q0 -204 104 -335.5t287 -131.5q182 0 286.5 132t104.5 335q0 131 -45 235t-135 167t-211 63q-122 0 -212 -63t-134.5 -167t-44.5 -235zM477 1962h375l104 -315l-249 -2z" />
    <glyph glyph-name="uni1EDD" unicode="&#x1edd;" horiz-adv-x="1372" 
d="M655 -20q-181 0 -314.5 74.5t-201 201t-67.5 287.5q0 160 66 285.5t197.5 200.5t309.5 77h6h4q53 0 99 -6q115 -13 151 -13q71 0 106 42.5t38 162.5h260q-1 -72 -14.5 -127.5t-35 -91t-54 -59t-66.5 -34.5t-76 -15q85 -76 129.5 -185t44.5 -237q0 -161 -67.5 -287.5
t-201 -201t-313.5 -74.5zM287 1532h375l104 -315l-250 -3zM428 543q0 -139 61 -221t166 -82t165.5 82t60.5 221t-60.5 221t-165.5 82t-166 -82t-61 -221z" />
    <glyph glyph-name="uni1EDE" unicode="&#x1ede;" horiz-adv-x="1714" 
d="M844 -20q-153 0 -283 41.5t-222.5 114.5t-157.5 171.5t-96.5 213t-31.5 239.5q0 123 31 236t95.5 211t156.5 171t220.5 115t279.5 43h4h4q32 0 94 -4q26 -2 68 -6.5t75 -7t64 -2.5q76 0 116 17t61.5 65.5t23.5 142.5h294q0 -184 -75 -268t-224 -89q143 -106 217 -269.5
t74 -354.5q0 -125 -31 -239.5t-96 -213t-157 -171.5t-221.5 -114.5t-282.5 -41.5zM453 760q0 -204 104 -335.5t287 -131.5q182 0 286.5 132t104.5 335q0 131 -45 235t-135 167t-211 63q-122 0 -212 -63t-134.5 -167t-44.5 -235zM565 1878q3 115 81 175.5t206 60.5
q116 0 195 -53.5t79 -141.5q0 -33 -9 -58t-32 -48.5t-44.5 -39t-63.5 -42.5q-32 -21 -42.5 -35.5t-10.5 -40.5v-10h-183v8q0 63 17.5 92.5t75.5 64.5q63 39 77 55q15 18 15 38q0 25 -25 41t-57 16q-40 0 -65.5 -21t-26.5 -61h-187z" />
    <glyph glyph-name="uni1EDF" unicode="&#x1edf;" horiz-adv-x="1368" 
d="M655 -20q-181 0 -314.5 74.5t-201 201t-67.5 287.5q0 160 66 285.5t197.5 200.5t309.5 77h6h4q53 0 99 -6q115 -13 151 -13q71 0 106 42.5t38 162.5h260q-1 -72 -14.5 -127.5t-35 -91t-54 -59t-66.5 -34.5t-76 -15q85 -76 129.5 -185t44.5 -237q0 -161 -67.5 -287.5
t-201 -201t-313.5 -74.5zM371 1448q3 115 80.5 175t205.5 60q116 0 195.5 -53t79.5 -141q0 -33 -9.5 -58.5t-32.5 -48.5t-44.5 -39t-63.5 -43q-32 -21 -42.5 -35.5t-10.5 -39.5v-11h-182v9q0 63 17 92.5t75 64.5q63 39 77 55q15 18 15 38q0 25 -25 41t-57 16
q-40 0 -65.5 -21t-26.5 -61h-186zM428 543q0 -139 61 -221t166 -82t165.5 82t60.5 221t-60.5 221t-165.5 82t-166 -82t-61 -221z" />
    <glyph glyph-name="uni1EE0" unicode="&#x1ee0;" horiz-adv-x="1714" 
d="M844 -20q-153 0 -283 41.5t-222.5 114.5t-157.5 171.5t-96.5 213t-31.5 239.5q0 123 31 236t95.5 211t156.5 171t220.5 115t279.5 43h4h4q32 0 94 -4q26 -2 68 -6.5t75 -7t64 -2.5q76 0 116 17t61.5 65.5t23.5 142.5h294q0 -184 -75 -268t-224 -89q143 -106 217 -269.5
t74 -354.5q0 -125 -31 -239.5t-96 -213t-157 -171.5t-221.5 -114.5t-282.5 -41.5zM453 760q0 -204 104 -335.5t287 -131.5q182 0 286.5 132t104.5 335q0 131 -45 235t-135 167t-211 63q-122 0 -212 -63t-134.5 -167t-44.5 -235zM467 1649q-4 290 213 290q51 0 97 -16.5
t73.5 -36.5t59.5 -36.5t59 -16.5q32 0 47 24t18 72h174q4 -291 -211 -291q-50 0 -95 16.5t-73 36t-61 36t-61 16.5q-33 0 -48 -23t-18 -71h-174z" />
    <glyph glyph-name="uni1EE1" unicode="&#x1ee1;" horiz-adv-x="1368" 
d="M655 -20q-181 0 -314.5 74.5t-201 201t-67.5 287.5q0 160 66 285.5t197.5 200.5t309.5 77h6h4q53 0 99 -6q115 -13 151 -13q71 0 106 42.5t38 162.5h260q-1 -72 -14.5 -127.5t-35 -91t-54 -59t-66.5 -34.5t-76 -15q85 -76 129.5 -185t44.5 -237q0 -161 -67.5 -287.5
t-201 -201t-313.5 -74.5zM307 1214q-1 55 8 101t30 86t60 63t93 23q44 0 87 -15.5t71 -33.5t59.5 -33.5t54.5 -15.5q31 0 49 24t21 64h149q0 -55 -9 -101t-29 -86t-58 -63t-90 -23q-54 0 -107.5 24t-96.5 48t-71 24q-32 0 -50 -22.5t-21 -63.5h-150zM428 543q0 -139 61 -221
t166 -82t165.5 82t60.5 221t-60.5 221t-165.5 82t-166 -82t-61 -221z" />
    <glyph glyph-name="uni1EE2" unicode="&#x1ee2;" horiz-adv-x="1714" 
d="M844 -20q-153 0 -283 41.5t-222.5 114.5t-157.5 171.5t-96.5 213t-31.5 239.5q0 123 31 236t95.5 211t156.5 171t220.5 115t279.5 43h4h4q32 0 94 -4q26 -2 68 -6.5t75 -7t64 -2.5q76 0 116 17t61.5 65.5t23.5 142.5h294q0 -184 -75 -268t-224 -89q143 -106 217 -269.5
t74 -354.5q0 -125 -31 -239.5t-96 -213t-157 -171.5t-221.5 -114.5t-282.5 -41.5zM453 760q0 -204 104 -335.5t287 -131.5q182 0 286.5 132t104.5 335q0 131 -45 235t-135 167t-211 63q-122 0 -212 -63t-134.5 -167t-44.5 -235zM649 -311q0 79 53.5 132.5t135.5 53.5
q79 0 132.5 -54t53.5 -132q0 -77 -53.5 -133t-132.5 -56q-82 0 -135.5 55.5t-53.5 133.5z" />
    <glyph glyph-name="uni1EE3" unicode="&#x1ee3;" horiz-adv-x="1368" 
d="M655 -20q-181 0 -314.5 74.5t-201 201t-67.5 287.5q0 160 66 285.5t197.5 200.5t309.5 77h6h4q53 0 99 -6q115 -13 151 -13q71 0 106 42.5t38 162.5h260q-1 -72 -14.5 -127.5t-35 -91t-54 -59t-66.5 -34.5t-76 -15q85 -76 129.5 -185t44.5 -237q0 -161 -67.5 -287.5
t-201 -201t-313.5 -74.5zM428 543q0 -139 61 -221t166 -82t165.5 82t60.5 221t-60.5 221t-165.5 82t-166 -82t-61 -221zM459 -311q0 79 53 132.5t135 53.5q79 0 133 -54t54 -132q0 -77 -54 -133t-133 -56q-82 0 -135 55.5t-53 133.5z" />
    <glyph glyph-name="uni1EE4" unicode="&#x1ee4;" horiz-adv-x="1478" 
d="M739 -20q-105 0 -198 20t-177.5 65.5t-145 114t-96.5 172.5t-36 234v930h381v-930q0 -131 68 -213t204 -82t204.5 82t68.5 213v930h381v-930q0 -130 -36 -234t-96.5 -172.5t-145.5 -114t-178 -65.5t-198 -20zM549 -311q0 79 53 132.5t135 53.5q79 0 133 -54t54 -132
q0 -77 -54 -133t-133 -56q-82 0 -135 55.5t-53 133.5z" />
    <glyph glyph-name="uni1EE5" unicode="&#x1ee5;" horiz-adv-x="1206" 
d="M438 -20q-86 0 -151 25t-102.5 62.5t-60.5 88.5t-30.5 95t-7.5 91v743h350v-653q0 -84 38 -135t116 -51q92 0 136 67t44 166v606h350v-1085h-350v170q-15 -31 -37.5 -60t-60.5 -60.5t-99 -50.5t-135 -19zM399 -311q0 79 53.5 132.5t135.5 53.5q79 0 132.5 -54t53.5 -132
q0 -77 -53.5 -133t-132.5 -56q-82 0 -135.5 55.5t-53.5 133.5z" />
    <glyph glyph-name="uni1EE6" unicode="&#x1ee6;" horiz-adv-x="1464" 
d="M739 -20q-105 0 -198 20t-177.5 65.5t-145 114t-96.5 172.5t-36 234v930h381v-930q0 -131 68 -213t204 -82t204.5 82t68.5 213v930h381v-930q0 -130 -36 -234t-96.5 -172.5t-145.5 -114t-178 -65.5t-198 -20zM459 1878q3 115 81 175.5t205 60.5q116 0 195.5 -53.5
t79.5 -141.5q0 -33 -9 -58t-32.5 -48.5t-44.5 -39t-64 -42.5q-32 -21 -42.5 -35.5t-10.5 -40.5v-10h-182v8q0 63 17 92.5t75 64.5q63 39 77 55q15 18 15 38q0 25 -25 41t-57 16q-40 0 -65.5 -21t-26.5 -61h-186z" />
    <glyph glyph-name="uni1EE7" unicode="&#x1ee7;" horiz-adv-x="1202" 
d="M438 -20q-86 0 -151 25t-102.5 62.5t-60.5 88.5t-30.5 95t-7.5 91v743h350v-653q0 -84 38 -135t116 -51q92 0 136 67t44 166v606h350v-1085h-350v170q-15 -31 -37.5 -60t-60.5 -60.5t-99 -50.5t-135 -19zM322 1448q3 115 80.5 175t205.5 60q116 0 195.5 -53t79.5 -141
q0 -33 -9.5 -58.5t-32.5 -48.5t-44.5 -39t-63.5 -43q-32 -21 -42.5 -35.5t-10.5 -39.5v-11h-182v9q0 63 17 92.5t75 64.5q63 39 77 55q15 18 15 38q0 25 -25 41t-57 16q-40 0 -65.5 -21t-26.5 -61h-186z" />
    <glyph glyph-name="uni1EE8" unicode="&#x1ee8;" horiz-adv-x="1464" 
d="M739 -20q-105 0 -198 20t-177.5 65.5t-145 114t-96.5 172.5t-36 234v930h381v-930q0 -131 68 -213t204 -82t204.5 82t68.5 213v792h-4v138h120q128 0 176.5 52.5t51.5 200.5h278q0 -165 -59 -254t-182 -120v-809q0 -130 -36 -234t-96.5 -172.5t-145.5 -114t-178 -65.5
t-198 -20zM592 1647l102 319h377l-229 -321z" />
    <glyph glyph-name="uni1EE9" unicode="&#x1ee9;" horiz-adv-x="1206" 
d="M438 -20q-86 0 -151 25t-102.5 62.5t-60.5 88.5t-30.5 95t-7.5 91v743h350v-653q0 -84 38 -135t116 -51q92 0 136 67t44 166v606h121q61 0 95.5 8t57.5 33.5t31 67t10 113.5h258q0 -161 -56 -241t-167 -103v-963h-350v170q-15 -31 -37.5 -60t-60.5 -60.5t-99 -50.5
t-135 -19zM465 1217l102 319h377l-229 -322z" />
    <glyph glyph-name="uni1EEA" unicode="&#x1eea;" horiz-adv-x="1478" 
d="M739 -20q-105 0 -198 20t-177.5 65.5t-145 114t-96.5 172.5t-36 234v930h381v-930q0 -131 68 -213t204 -82t204.5 82t68.5 213v792h-4v138h120q128 0 176.5 52.5t51.5 200.5h278q0 -165 -59 -254t-182 -120v-809q0 -130 -36 -234t-96.5 -172.5t-145.5 -114t-178 -65.5
t-198 -20zM373 1962h375l104 -315l-250 -2z" />
    <glyph glyph-name="uni1EEB" unicode="&#x1eeb;" horiz-adv-x="1206" 
d="M438 -20q-86 0 -151 25t-102.5 62.5t-60.5 88.5t-30.5 95t-7.5 91v743h350v-653q0 -84 38 -135t116 -51q92 0 136 67t44 166v606h121q61 0 95.5 8t57.5 33.5t31 67t10 113.5h258q0 -161 -56 -241t-167 -103v-963h-350v170q-15 -31 -37.5 -60t-60.5 -60.5t-99 -50.5
t-135 -19zM225 1532h375l105 -315l-250 -3z" />
    <glyph glyph-name="uni1EEC" unicode="&#x1eec;" horiz-adv-x="1464" 
d="M739 -20q-105 0 -198 20t-177.5 65.5t-145 114t-96.5 172.5t-36 234v930h381v-930q0 -131 68 -213t204 -82t204.5 82t68.5 213v792h-4v138h120q128 0 176.5 52.5t51.5 200.5h278q0 -165 -59 -254t-182 -120v-809q0 -130 -36 -234t-96.5 -172.5t-145.5 -114t-178 -65.5
t-198 -20zM440 1878q3 115 81 175.5t206 60.5q116 0 195 -53.5t79 -141.5q0 -33 -9 -58t-32 -48.5t-44.5 -39t-63.5 -42.5q-32 -21 -42.5 -35.5t-10.5 -40.5v-10h-183v8q0 63 17.5 92.5t75.5 64.5q63 39 77 55q15 18 15 38q0 25 -25 41t-57 16q-40 0 -65.5 -21t-26.5 -61
h-187z" />
    <glyph glyph-name="uni1EED" unicode="&#x1eed;" horiz-adv-x="1202" 
d="M438 -20q-86 0 -151 25t-102.5 62.5t-60.5 88.5t-30.5 95t-7.5 91v743h350v-653q0 -84 38 -135t116 -51q92 0 136 67t44 166v606h121q61 0 95.5 8t57.5 33.5t31 67t10 113.5h258q0 -161 -56 -241t-167 -103v-963h-350v170q-15 -31 -37.5 -60t-60.5 -60.5t-99 -50.5
t-135 -19zM313 1448q3 115 81 175t206 60q116 0 195 -53t79 -141q0 -62 -34 -99.5t-115 -89.5q-32 -21 -42.5 -35.5t-10.5 -39.5v-11h-183v9q0 63 17.5 92.5t75.5 64.5q63 39 77 55q15 18 15 38q0 25 -25 41t-57 16q-40 0 -65.5 -21t-26.5 -61h-187z" />
    <glyph glyph-name="uni1EEE" unicode="&#x1eee;" horiz-adv-x="1464" 
d="M739 -20q-105 0 -198 20t-177.5 65.5t-145 114t-96.5 172.5t-36 234v930h381v-930q0 -131 68 -213t204 -82t204.5 82t68.5 213v792h-4v138h120q128 0 176.5 52.5t51.5 200.5h278q0 -165 -59 -254t-182 -120v-809q0 -130 -36 -234t-96.5 -172.5t-145.5 -114t-178 -65.5
t-198 -20zM342 1649q-4 290 213 290q51 0 97 -16.5t73.5 -36.5t59.5 -36.5t59 -16.5q32 0 47 24t18 72h174q4 -291 -211 -291q-50 0 -95 16.5t-73 36t-61 36t-61 16.5q-33 0 -48 -23t-18 -71h-174z" />
    <glyph glyph-name="uni1EEF" unicode="&#x1eef;" horiz-adv-x="1206" 
d="M438 -20q-86 0 -151 25t-102.5 62.5t-60.5 88.5t-30.5 95t-7.5 91v743h350v-653q0 -84 38 -135t116 -51q92 0 136 67t44 166v606h121q61 0 95.5 8t57.5 33.5t31 67t10 113.5h258q0 -161 -56 -241t-167 -103v-963h-350v170q-15 -31 -37.5 -60t-60.5 -60.5t-99 -50.5
t-135 -19zM215 1219q-4 290 213 290q51 0 97 -16.5t73.5 -36.5t59.5 -36.5t59 -16.5q32 0 47 24t18 72h174q4 -291 -211 -291q-50 0 -95 16.5t-73 36t-61 36t-61 16.5q-33 0 -48 -23t-18 -71h-174z" />
    <glyph glyph-name="uni1EF0" unicode="&#x1ef0;" horiz-adv-x="1478" 
d="M739 -20q-105 0 -198 20t-177.5 65.5t-145 114t-96.5 172.5t-36 234v930h381v-930q0 -131 68 -213t204 -82t204.5 82t68.5 213v792h-4v138h120q128 0 176.5 52.5t51.5 200.5h278q0 -165 -59 -254t-182 -120v-809q0 -130 -36 -234t-96.5 -172.5t-145.5 -114t-178 -65.5
t-198 -20zM596 -311q0 79 53 132.5t135 53.5q79 0 133 -54t54 -132q0 -77 -54 -133t-133 -56q-82 0 -135 55.5t-53 133.5z" />
    <glyph glyph-name="uni1EF1" unicode="&#x1ef1;" horiz-adv-x="1206" 
d="M438 -20q-86 0 -151 25t-102.5 62.5t-60.5 88.5t-30.5 95t-7.5 91v743h350v-653q0 -84 38 -135t116 -51q92 0 136 67t44 166v606h121q61 0 95.5 8t57.5 33.5t31 67t10 113.5h258q0 -161 -56 -241t-167 -103v-963h-350v170q-15 -31 -37.5 -60t-60.5 -60.5t-99 -50.5
t-135 -19zM397 -311q0 79 53.5 132.5t135.5 53.5q79 0 132.5 -54t53.5 -132q0 -77 -53.5 -133t-132.5 -56q-82 0 -135.5 55.5t-53.5 133.5z" />
    <glyph glyph-name="Ygrave" unicode="&#x1ef2;" horiz-adv-x="1474" 
d="M545 0v555l-518 961h422l307 -619l305 619h387l-518 -961v-555h-385zM379 1960h375l104 -315l-250 -3z" />
    <glyph glyph-name="ygrave" unicode="&#x1ef3;" horiz-adv-x="1210" 
d="M246 -418l188 453l-403 1050h356l231 -663l224 663h338l-580 -1503h-354zM246 1532h375l104 -315l-250 -3z" />
    <glyph glyph-name="uni1EF4" unicode="&#x1ef4;" horiz-adv-x="1474" 
d="M545 0v555l-518 961h422l307 -619l305 619h387l-518 -961v-555h-385zM549 -311q0 79 53 132.5t135 53.5q79 0 133 -54t54 -132q0 -77 -54 -133t-133 -56q-82 0 -135 55.5t-53 133.5z" />
    <glyph glyph-name="uni1EF5" unicode="&#x1ef5;" horiz-adv-x="1210" 
d="M246 -418l188 453l-403 1050h356l231 -663l224 663h338l-580 -1503h-354zM803 -311q0 79 53 132.5t135 53.5q79 0 133 -54t54 -132q0 -77 -54 -133t-133 -56q-82 0 -135 55.5t-53 133.5z" />
    <glyph glyph-name="uni1EF6" unicode="&#x1ef6;" horiz-adv-x="1474" 
d="M545 0v555l-518 961h422l307 -619l305 619h387l-518 -961v-555h-385zM467 1878q3 115 81 175.5t206 60.5q116 0 195 -53.5t79 -141.5q0 -33 -9 -58t-32 -48.5t-44.5 -39t-63.5 -42.5q-32 -21 -43 -36t-11 -40v-10h-182v8q0 63 17 92.5t75 64.5q63 39 77 55q15 18 15 38
q0 25 -25 41t-57 16q-40 0 -65.5 -21t-26.5 -61h-186z" />
    <glyph glyph-name="uni1EF7" unicode="&#x1ef7;" horiz-adv-x="1210" 
d="M246 -418l188 453l-403 1050h356l231 -663l224 663h338l-580 -1503h-354zM334 1448q3 115 81 175t206 60q116 0 195 -53t79 -141q0 -33 -9.5 -58.5t-32.5 -48.5t-44.5 -39t-63.5 -43q-32 -21 -42.5 -35.5t-10.5 -39.5v-11h-182v9q0 63 17 92.5t75 64.5q63 39 77 55
q15 18 15 38q0 25 -25 41t-57 16q-40 0 -65.5 -21t-26.5 -61h-186z" />
    <glyph glyph-name="uni1EF8" unicode="&#x1ef8;" horiz-adv-x="1474" 
d="M545 0v555l-518 961h422l307 -619l305 619h387l-518 -961v-555h-385zM369 1647q-4 290 213 290q51 0 96.5 -16.5t73 -36.5t59.5 -36.5t59 -16.5q60 0 66 96h174q4 -291 -211 -291q-50 0 -95.5 16.5t-73 36t-61 36t-61.5 16.5q-32 0 -47 -23t-18 -71h-174z" />
    <glyph glyph-name="uni1EF9" unicode="&#x1ef9;" horiz-adv-x="1210" 
d="M246 -418l188 453l-403 1050h356l231 -663l224 663h338l-580 -1503h-354zM236 1219q-4 290 213 290q51 0 96.5 -16.5t73 -36.5t59.5 -36.5t59 -16.5q60 0 66 96h174q4 -291 -211 -291q-50 0 -95.5 16.5t-73 36t-61 36t-61.5 16.5q-32 0 -47 -23t-18 -71h-174z" />
    <glyph glyph-name="endash" unicode="&#x2013;" horiz-adv-x="1265" 
d="M141 514v274h983v-274h-983z" />
    <glyph glyph-name="emdash" unicode="&#x2014;" horiz-adv-x="1527" 
d="M111 514v274h1304v-274h-1304z" />
    <glyph glyph-name="quoteleft" unicode="&#x2018;" horiz-adv-x="583" 
d="M494 1563l-140 -291q66 -19 106 -73t40 -124q0 -87 -58 -146t-149 -59q-90 0 -150.5 55.5t-60.5 135.5q0 63 25.5 126t100.5 206q18 34 28 53l59 117h199z" />
    <glyph glyph-name="quoteright" unicode="&#x2019;" horiz-adv-x="593" 
d="M90 846l139 291q-66 19 -105.5 72.5t-39.5 123.5q0 87 58 146t149 59q90 0 150.5 -55t60.5 -135q0 -63 -25.5 -126t-100.5 -206q-18 -34 -28 -53l-59 -117h-199z" />
    <glyph glyph-name="quotesinglbase" unicode="&#x201a;" horiz-adv-x="624" 
d="M88 -297l162 287q-72 19 -117 78t-45 137q0 92 62 154.5t159 62.5q96 0 161 -59t65 -146q0 -23 -3 -43.5t-12 -46.5t-16.5 -44.5t-26.5 -54.5t-30.5 -57t-40.5 -72t-46 -81l-67 -115h-205z" />
    <glyph glyph-name="quotedblleft" unicode="&#x201c;" horiz-adv-x="1079" 
d="M991 1561l-139 -291q66 -19 105.5 -72.5t39.5 -124.5q0 -88 -57.5 -146.5t-148.5 -58.5q-90 0 -150.5 55.5t-60.5 135.5q0 76 49 182q18 39 104 203l60 117h198zM80 1059q0 76 49 182q18 39 104 203l60 117h199l-140 -291q66 -19 106 -73t40 -124q0 -87 -58 -146
t-149 -59q-90 0 -150.5 55.5t-60.5 135.5z" />
    <glyph glyph-name="quotedblright" unicode="&#x201d;" horiz-adv-x="1054" 
d="M57 846l140 291q-66 19 -106 72.5t-40 123.5q0 87 58 146t149 59q90 0 150.5 -55t60.5 -135q0 -63 -25.5 -126t-100.5 -206q-18 -34 -28 -53l-59 -117h-199zM551 1333q0 87 58 146t149 59q90 0 150.5 -55t60.5 -135q0 -63 -25.5 -126t-100.5 -206q-18 -34 -28 -53
l-59 -117h-199l139 291q-66 19 -105.5 72.5t-39.5 123.5z" />
    <glyph glyph-name="quotedblbase" unicode="&#x201e;" horiz-adv-x="1097" 
d="M96 -299l140 291q-66 19 -106 72.5t-40 123.5q0 87 58 146t149 59q90 0 150.5 -55t60.5 -135q0 -63 -25.5 -126t-100.5 -206q-18 -34 -28 -53l-59 -117h-199zM590 188q0 87 58 146t149 59q90 0 150.5 -55t60.5 -135q0 -63 -25.5 -126t-100.5 -206q-18 -34 -28 -53
l-59 -117h-199l139 291q-66 19 -105.5 72.5t-39.5 123.5z" />
    <glyph glyph-name="dagger" unicode="&#x2020;" horiz-adv-x="1253" 
d="M477 371v680h-366v245h366v322h297v-322h369v-245h-369v-680h-297z" />
    <glyph glyph-name="daggerdbl" unicode="&#x2021;" horiz-adv-x="1253" 
d="M477 371v250h-366v243h366v260h-366v244h366v250h297v-250h369v-244h-369v-260h369v-243h-369v-250h-297z" />
    <glyph glyph-name="bullet" unicode="&#x2022;" horiz-adv-x="1187" 
d="M594 487q-135 0 -225 92.5t-90 221.5q0 133 89 224t226 91q134 0 223.5 -91t89.5 -224q0 -129 -90 -221.5t-223 -92.5z" />
    <glyph glyph-name="ellipsis" unicode="&#x2026;" horiz-adv-x="1853" 
d="M309 -20q-95 0 -158 65t-63 156q0 93 62.5 157t158.5 64q95 0 158 -64t63 -157q0 -92 -63.5 -156.5t-157.5 -64.5zM707 201q0 93 62.5 157t158.5 64q95 0 158 -64t63 -157q0 -92 -63.5 -156.5t-157.5 -64.5q-95 0 -158 65t-63 156zM1325 201q0 93 62.5 157t158.5 64
q95 0 158 -64t63 -157q0 -92 -63.5 -156.5t-157.5 -64.5q-95 0 -158 65t-63 156z" />
    <glyph glyph-name="perthousand" unicode="&#x2030;" horiz-adv-x="2555" 
d="M2142 -20q-163 0 -257.5 100.5t-94.5 241.5q0 140 94.5 238.5t257.5 98.5t257.5 -98.5t94.5 -238.5q0 -142 -94 -242t-258 -100zM61 1151q0 76 24 143.5t70 122.5t121 87t170 32q96 0 171 -32t121 -87t69.5 -122.5t23.5 -143.5t-23.5 -144t-69.5 -123t-121 -87.5
t-171 -32.5q-95 0 -170.5 32.5t-121.5 88t-69.5 123.5t-23.5 143zM272 0l1014 1516h256l-1014 -1516h-256zM311 1149q0 -86 34 -137t99 -51q67 0 103.5 52t36.5 136q0 87 -37 139.5t-103 52.5q-65 0 -99 -52t-34 -140zM981 365q0 76 23.5 144t69.5 123t121 87.5t171 32.5
t171 -32.5t121 -87.5t69.5 -123t23.5 -144t-24 -143.5t-70 -122.5t-121 -87t-170 -32t-170.5 32.5t-121.5 88t-69.5 123t-23.5 141.5zM1229 365q0 -85 35 -138t102 -53q66 0 101.5 52.5t35.5 138.5t-35.5 138t-101.5 52q-67 0 -102 -52t-35 -138zM2005 319
q0 -60 36.5 -101.5t98.5 -41.5t99.5 41.5t37.5 101.5q0 59 -37.5 100.5t-99.5 41.5t-98.5 -41t-36.5 -101z" />
    <glyph glyph-name="guilsinglleft" unicode="&#x2039;" horiz-adv-x="944" 
d="M870 1083l-434 -452l434 -457h-362l-442 455l442 454h362z" />
    <glyph glyph-name="guilsinglright" unicode="&#x203a;" horiz-adv-x="944" 
d="M74 174l434 453l-434 456h360l445 -454l-445 -455h-360z" />
    <glyph glyph-name="fraction" unicode="&#x2044;" horiz-adv-x="1204" 
d="M61 0l861 1434h243l-862 -1434h-242z" />
    <glyph glyph-name="uni2070" unicode="&#x2070;" horiz-adv-x="950" 
d="M477 813q-129 0 -226.5 62.5t-146.5 166.5t-49 232q0 130 49 235t146.5 168.5t226.5 63.5q192 0 307 -132.5t115 -334.5q0 -197 -115 -329t-307 -132zM334 1274q0 -106 39.5 -166.5t103.5 -60.5q65 0 104.5 60.5t39.5 166.5q0 111 -39 171t-105 60q-65 0 -104 -60.5
t-39 -170.5z" />
    <glyph glyph-name="uni2074" unicode="&#x2074;" horiz-adv-x="980" 
d="M473 831v170l-428 3v188l340 545h340v-535h141v-201h-141v-170h-252zM289 1202h184v295z" />
    <glyph glyph-name="uni2075" unicode="&#x2075;" horiz-adv-x="864" 
d="M416 815q-73 0 -132.5 16t-96.5 40t-65 57t-42 61.5t-22 58.5t-9.5 44t-1.5 22h256q1 -3 2 -8.5t8.5 -19.5t18.5 -24.5t32 -19t48 -8.5q52 0 81 30.5t29 70.5q0 41 -28.5 70.5t-79.5 29.5q-27 0 -48.5 -10.5t-29.5 -21.5l-8 -11h-275l62 543h616v-224h-422l-16 -149
l10 -2q3 6 20 20.5t61.5 32t96.5 17.5q142 0 222.5 -85.5t80.5 -203.5q0 -61 -23 -118t-66.5 -104t-116 -75.5t-162.5 -28.5z" />
    <glyph glyph-name="uni2076" unicode="&#x2076;" horiz-adv-x="911" 
d="M451 809q-98 0 -176 34.5t-126 93t-73 131.5t-25 155q0 94 34 184t98 165t169.5 121t235.5 46q28 0 59 -2t47 -4l17 -2v-228q-70 8 -123 8q-107 0 -187.5 -51.5t-91.5 -150.5q60 112 217 112q138 0 215.5 -83t77.5 -199q0 -62 -23 -120t-67 -105.5t-116 -76t-162 -28.5z
M334 1126q0 -43 30 -74.5t82 -31.5q55 0 86 31.5t31 74.5t-31 75t-86 32q-54 0 -83 -32t-29 -75z" />
    <glyph glyph-name="uni2077" unicode="&#x2077;" horiz-adv-x="808" 
d="M182 834q7 120 41 234t83.5 201t89 142t81.5 100h-438v224h725v-183q-12 -11 -32.5 -32.5t-72.5 -93t-93 -149t-77 -198.5t-40 -245h-267z" />
    <glyph glyph-name="uni2078" unicode="&#x2078;" horiz-adv-x="854" 
d="M426 813q-68 0 -131.5 14.5t-118.5 44t-88 80.5t-33 117q0 45 17 82.5t40 59.5t48.5 37.5t40.5 21.5t18 6v14l-7 2q-8 3 -21 10t-28 17t-31 26t-29 35t-21 46.5t-8 58.5q0 79 52 138.5t130.5 87.5t169.5 28q90 0 168 -28t130 -87.5t52 -138.5q0 -117 -107 -178
q-31 -17 -38 -17v-14q3 0 18 -6t40.5 -21.5t48.5 -37.5t40 -59.5t17 -82.5q0 -66 -33 -117t-87.5 -80.5t-117.5 -44t-131 -14.5zM317 1100q0 -37 29 -64.5t80 -27.5t78.5 27.5t27.5 64.5t-27.5 64.5t-78.5 27.5t-80 -27.5t-29 -64.5zM332 1458q0 -34 25 -59t69 -25t69 25
t25 59q0 35 -24.5 59.5t-69.5 24.5t-69.5 -24.5t-24.5 -59.5z" />
    <glyph glyph-name="uni2079" unicode="&#x2079;" horiz-adv-x="911" 
d="M461 1753q98 0 176 -34.5t125.5 -93t72.5 -131.5t25 -155q0 -94 -34 -184t-97.5 -165t-169 -121t-235.5 -46q-28 0 -58.5 2t-47.5 4l-17 2v228q70 -8 123 -8q107 0 187 51.5t91 150.5q-60 -112 -217 -112q-138 0 -215.5 83t-77.5 199q0 62 23.5 120t67.5 105.5t116 76
t162 28.5zM348 1436q0 -43 31 -75t86 -32q54 0 83.5 32t29.5 75t-30 74.5t-83 31.5q-55 0 -86 -31.5t-31 -74.5z" />
    <glyph glyph-name="uni2080" unicode="&#x2080;" horiz-adv-x="954" 
d="M477 -446q-129 0 -226.5 62.5t-146.5 166t-49 231.5q0 130 49 235t146.5 168.5t226.5 63.5q192 0 307 -132.5t115 -334.5q0 -197 -115 -328.5t-307 -131.5zM334 14q0 -106 39.5 -166.5t103.5 -60.5q65 0 104.5 60.5t39.5 166.5q0 112 -39 172t-105 60q-65 0 -104 -61
t-39 -171z" />
    <glyph glyph-name="uni2081" unicode="&#x2081;" horiz-adv-x="577" 
d="M483 477v-905h-252v594h-186v151l27 9q95 29 149.5 58.5t104.5 82.5l10 10h147z" />
    <glyph glyph-name="uni2082" unicode="&#x2082;" horiz-adv-x="868" 
d="M70 -428v188l213 156q20 15 62 45.5t59.5 44t45.5 37.5t40 40t22 38t10 43q0 41 -28 64.5t-70 23.5q-45 0 -75 -28t-30 -83h-256q0 84 30 150t82 106t117.5 61t139.5 21q157 0 261 -83.5t104 -209.5q0 -108 -87.5 -198.5t-267.5 -190.5h359v-225h-731z" />
    <glyph glyph-name="uni2083" unicode="&#x2083;" horiz-adv-x="886" 
d="M446 -446q-98 0 -172.5 29.5t-111 68t-59 87t-27 75.5t-4.5 45h252q0 -8 4.5 -20.5t15 -30t36 -29.5t60.5 -12q54 0 82.5 26t28.5 60q0 33 -27 52t-71 19h-123v189h119q47 0 71.5 20.5t24.5 52.5q0 34 -27.5 56t-73.5 22q-32 0 -54.5 -11.5t-31.5 -28.5t-12.5 -29
t-3.5 -21h-246q0 11 2 27.5t10.5 47t22.5 59.5t41.5 61t63.5 55.5t92.5 39t124.5 15.5q96 0 176 -29.5t130 -89.5t50 -139q0 -86 -51 -136.5t-101 -61.5v-11q73 -21 119.5 -69t46.5 -125q0 -120 -106.5 -192t-270.5 -72z" />
    <glyph glyph-name="uni2084" unicode="&#x2084;" horiz-adv-x="968" 
d="M473 -428v170l-428 2v188l340 545h340v-534h141v-201h-141v-170h-252zM289 -57h184v295z" />
    <glyph glyph-name="uni2085" unicode="&#x2085;" horiz-adv-x="860" 
d="M416 -444q-73 0 -132.5 16t-96.5 40t-65 57t-42 61.5t-22 58.5t-9.5 44t-1.5 22h256q1 -3 2 -8.5t8.5 -19.5t18.5 -24.5t32 -19t48 -8.5q52 0 81 30t29 70q0 41 -28.5 70.5t-79.5 29.5q-27 0 -48.5 -10.5t-29.5 -21.5l-8 -11h-275l62 543h616v-223h-422l-16 -150l10 -2
q3 6 20 20.5t61.5 32t96.5 17.5q142 0 222.5 -85.5t80.5 -203.5q0 -61 -23 -118t-66.5 -103.5t-116 -75t-162.5 -28.5z" />
    <glyph glyph-name="uni2086" unicode="&#x2086;" horiz-adv-x="872" 
d="M451 -451q-98 0 -176 34.5t-126 93t-73 131.5t-25 155q0 94 34 184t98 165t169.5 121t235.5 46q28 0 59 -2t47 -4l17 -2v-227q-70 8 -123 8q-69 0 -127.5 -20.5t-101 -68t-50.5 -114.5q60 113 217 113q138 0 215.5 -83.5t77.5 -199.5q0 -62 -23 -120t-67 -105.5t-116 -76
t-162 -28.5zM334 -133q0 -43 30 -75t82 -32q55 0 86 32t31 75t-31 74.5t-86 31.5q-54 0 -83 -31.5t-29 -74.5z" />
    <glyph glyph-name="uni2087" unicode="&#x2087;" horiz-adv-x="792" 
d="M182 -428q7 120 41 234t83.5 201t89.5 142.5t81 100.5h-438v223h725v-182q-12 -11 -32.5 -32.5t-72.5 -93t-93 -149.5t-77 -199t-40 -245h-267z" />
    <glyph glyph-name="uni2088" unicode="&#x2088;" horiz-adv-x="849" 
d="M426 -446q-68 0 -131.5 14.5t-118.5 44t-88 80.5t-33 117q0 45 17 82.5t40 59.5t48.5 37.5t40.5 21t18 5.5v15l-7 3q-8 2 -21 9t-28 16.5t-31 25.5t-29 35t-21 46.5t-8 58.5q0 79 52 138.5t130.5 87.5t169.5 28q90 0 168 -28t130 -87.5t52 -138.5q0 -117 -107 -177
q-31 -17 -38 -17v-15q3 0 18 -5.5t40.5 -21t48.5 -37.5t40 -59.5t17 -82.5q0 -66 -33 -117t-87.5 -80.5t-117.5 -44t-131 -14.5zM317 -160q0 -37 29 -64.5t80 -27.5t78.5 27.5t27.5 64.5t-27.5 64.5t-78.5 27.5t-80 -27.5t-29 -64.5zM332 199q0 -34 25 -59t69 -25t69 25
t25 59q0 35 -24.5 59.5t-69.5 24.5t-69.5 -24.5t-24.5 -59.5z" />
    <glyph glyph-name="uni2089" unicode="&#x2089;" horiz-adv-x="911" 
d="M461 483q98 0 176 -34.5t125.5 -92.5t72.5 -131t25 -155q0 -94 -34 -184t-97.5 -165t-169 -121t-235.5 -46q-28 0 -59 2t-47 4l-17 2v227q70 -8 123 -8q68 0 126.5 20.5t101 68t50.5 114.5q-60 -113 -217 -113q-138 0 -215.5 83.5t-77.5 199.5q0 62 23.5 120t67.5 105
t116 75.5t162 28.5zM348 166q0 -43 31 -75t86 -32q54 0 83.5 32t29.5 75t-30 74.5t-83 31.5q-55 0 -86 -31.5t-31 -74.5z" />
    <glyph glyph-name="dong" unicode="&#x20ab;" horiz-adv-x="1335" 
d="M524 285q-91 0 -164.5 35.5t-119 94.5t-69.5 132.5t-24 152.5q0 80 24 153.5t69.5 133.5t119 95.5t164.5 35.5q48 0 90 -11t68 -26t47 -32.5t29 -27.5t10 -15h14v170h-204v170h204v88h295v-88h129v-170h-129v-881h-295v102h-14q-4 -6 -10.5 -14.5t-28.5 -27t-47.5 -33
t-68 -26t-89.5 -11.5zM133 0v150h1069v-150h-1069zM446 700q0 -72 45.5 -126t126.5 -54t127 54t46 126q0 75 -46 131t-127 56t-126.5 -56t-45.5 -131z" />
    <glyph glyph-name="Euro" unicode="&#x20ac;" horiz-adv-x="1366" 
d="M1006 -20q-164 0 -300 45t-230.5 124.5t-156.5 180t-92 219.5h-178v162h156q-2 16 -2 47t2 45h-156v162h178q29 119 91 219.5t156.5 180.5t231 125.5t300.5 45.5q64 0 140 -8t120 -16l45 -9v-307q-156 35 -283 35q-159 0 -267 -73t-157 -193h502v-162h-541q-2 -14 -2 -45
t2 -47h541v-162h-502q50 -120 157.5 -192t266.5 -72q56 0 127 8.5t113 16.5l43 9v-307q-162 -32 -305 -32z" />
    <glyph glyph-name="trademark" unicode="&#x2122;" horiz-adv-x="1681" 
d="M250 758v569h-203v189h631v-189h-205v-569h-223zM762 758v758h317l111 -334l123 334h293v-758h-211v510l-148 -387h-127l-147 389v-512h-211z" />
    <glyph glyph-name="oneeighth" unicode="&#x215b;" horiz-adv-x="1867" 
d="M383 1438v-715h-219v455h-144v135l19 4q131 35 209 113l8 8h127zM315 0l861 1434h243l-862 -1434h-242zM1208 195q0 38 13.5 70t33 49.5t38.5 30t33 16.5l13 4v6q-5 1 -12.5 3.5t-27.5 14.5t-35.5 27t-28 44t-12.5 64q0 96 84 149.5t198 53.5q116 0 200.5 -53t84.5 -146
q0 -36 -12.5 -65.5t-30 -46t-35.5 -27.5t-30 -15l-13 -3v-6q5 -1 14 -4t32 -16.5t40.5 -30.5t32 -49t14.5 -70q0 -69 -45.5 -117t-110.5 -68t-141 -20q-75 0 -140 20t-111 68t-46 117zM1419 221q0 -32 23 -56t63 -24q42 0 65 24t23 56q0 31 -23.5 54.5t-64.5 23.5
q-39 0 -62.5 -23.5t-23.5 -54.5zM1427 510q0 -28 21 -50t57 -22q38 0 60 21.5t22 52.5q0 28 -22 50t-60 22q-36 0 -57 -22t-21 -52z" />
    <glyph glyph-name="threeeighths" unicode="&#x215c;" horiz-adv-x="2025" 
d="M358 715q-78 0 -136 22.5t-86.5 52.5t-45.5 68t-20.5 59.5t-3.5 36.5h200q0 -7 3.5 -16.5t12 -22.5t28.5 -21.5t48 -8.5q42 0 63 19t21 46q0 25 -19 42.5t-61 17.5h-77v149h77q38 0 58 18.5t20 45.5q0 25 -21 43t-59 18q-26 0 -44 -8.5t-26 -21t-11 -21.5t-3 -16h-196
q0 14 4 36t21 59t44.5 66.5t82 51.5t126.5 22q121 0 205 -56.5t84 -150.5q0 -64 -39 -107.5t-78 -50.5v-8q127 -38 127 -147q0 -96 -83 -156.5t-216 -60.5zM473 0l860 1434h244l-862 -1434h-242zM1366 195q0 38 13.5 70t33 49.5t38.5 30t33 16.5l13 4v6q-5 1 -13 3.5
t-28 14.5t-35.5 27t-28 44t-12.5 64q0 64 42 111.5t105 69.5t136 22q116 0 200.5 -53t84.5 -146q0 -36 -12.5 -65.5t-30 -46t-35.5 -27.5t-30 -15l-13 -3v-6q5 -1 14 -4t32 -16.5t40.5 -30.5t32 -49t14.5 -70q0 -69 -45.5 -117t-110.5 -68t-141 -20q-75 0 -140 20t-111 68
t-46 117zM1577 221q0 -32 23 -56t63 -24q42 0 65 24t23 56q0 31 -23.5 54.5t-64.5 23.5q-39 0 -62.5 -23.5t-23.5 -54.5zM1585 510q0 -28 21 -50t57 -22q38 0 60 21.5t22 52.5q0 28 -22 50t-60 22q-36 0 -57 -22t-21 -52z" />
    <glyph glyph-name="fiveeighths" unicode="&#x215d;" horiz-adv-x="2052" 
d="M350 709q-78 0 -136 24.5t-85 55.5t-43 71t-18 58.5t-2 31.5h198q0 -3 1 -8t7 -17.5t14.5 -22t26 -17.5t39.5 -8q42 0 65 26.5t23 61.5q0 36 -22.5 63t-61.5 27q-17 0 -31.5 -5t-22.5 -11.5t-13.5 -13.5t-7.5 -12l-2 -5h-209l51 434h479v-170h-328l-16 -131h4l6 7
q5 6 16.5 15t28 17.5t42.5 15t57 6.5q111 0 173 -68t62 -163q0 -105 -76.5 -183.5t-218.5 -78.5zM500 0l860 1434h244l-863 -1434h-241zM1393 195q0 38 13.5 70t32.5 49.5t38.5 30t32.5 16.5l14 4v6q-5 1 -13 3.5t-28 14.5t-35.5 27t-28 44t-12.5 64q0 64 42 111.5t105 69.5
t136 22q115 0 199.5 -53t84.5 -146q0 -36 -12.5 -65.5t-30 -46t-35.5 -27.5t-30 -15l-13 -3v-6q5 -1 14.5 -4t32.5 -16.5t40.5 -30.5t32 -49t14.5 -70q0 -69 -45.5 -117t-110.5 -68t-141 -20q-75 0 -140 20t-111 68t-46 117zM1604 221q0 -32 23 -56t63 -24q42 0 65 24t23 56
q0 31 -23.5 54.5t-64.5 23.5q-39 0 -62.5 -23.5t-23.5 -54.5zM1612 510q0 -28 21 -50t57 -22q38 0 60 21.5t22 52.5q0 28 -22 50t-60 22q-36 0 -57 -22t-21 -52z" />
    <glyph glyph-name="seveneighths" unicode="&#x215e;" horiz-adv-x="1869" 
d="M123 721q6 98 30.5 189.5t60.5 159.5t65.5 112t60.5 78h-338v178h565v-144q-9 -8 -24 -24t-53.5 -71t-69 -117t-57.5 -160t-31 -201h-209zM317 0l861 1434h243l-862 -1434h-242zM1210 195q0 38 13.5 70t33 49.5t38.5 30t33 16.5l13 4v6q-5 1 -12.5 3.5t-27.5 14.5
t-35.5 27t-28 44t-12.5 64q0 96 84 149.5t198 53.5q116 0 200.5 -53t84.5 -146q0 -36 -12.5 -65.5t-30 -46t-35.5 -27.5t-30 -15l-13 -3v-6q5 -1 14 -4t32 -16.5t40.5 -30.5t32 -49t14.5 -70q0 -69 -45.5 -117t-110.5 -68t-141 -20q-75 0 -140 20t-111 68t-46 117zM1421 221
q0 -32 23 -56t63 -24q42 0 65 24t23 56q0 31 -23.5 54.5t-64.5 23.5q-39 0 -62.5 -23.5t-23.5 -54.5zM1430 510q0 -29 20.5 -50.5t56.5 -21.5q38 0 60 21.5t22 52.5q0 28 -22 50t-60 22q-36 0 -56.5 -22t-20.5 -52z" />
    <glyph glyph-name="minus" unicode="&#x2212;" horiz-adv-x="1118" 
d="M111 489v299h897v-299h-897z" />
    <glyph glyph-name="uni2215" unicode="&#x2215;" horiz-adv-x="1122" 
d="M27 0l714 1516h328l-715 -1516h-327z" />
    <glyph glyph-name="approxequal" unicode="&#x2248;" horiz-adv-x="2037" 
d="M668 641q-54 0 -102 19.5t-76.5 43t-61 43t-57.5 19.5q-62 0 -62 -113h-182q0 45 5.5 85.5t20.5 83t39 73.5t65 50.5t95 19.5t102.5 -19t78 -42.5t62 -42.5t56.5 -19q58 0 58 112h184q0 -58 -10 -108.5t-33 -99t-69.5 -77t-112.5 -28.5zM1147 653q0 45 5.5 85.5t20.5 83
t39 73.5t65 50.5t95 19.5t102.5 -19t78 -42.5t62 -42.5t56.5 -19q58 0 58 112h184q0 -58 -10 -108.5t-33 -99t-69.5 -77t-112.5 -28.5q-54 0 -102 19.5t-76.5 43t-61 43t-57.5 19.5q-62 0 -62 -113h-182z" />
    <glyph glyph-name="notequal" unicode="&#x2260;" horiz-adv-x="1378" 
d="M291 0l153 276h-333v285h493l103 184h-596v285h753l142 252h262l-142 -252h70v-285h-227l-103 -184h330v-285h-489l-154 -276h-262z" />
    <glyph glyph-name="lessequal" unicode="&#x2264;" horiz-adv-x="1206" 
d="M1049 311l-891 326v203l891 323v-258l-543 -166l543 -170v-258zM147 0v186h912v-186h-912z" />
    <glyph glyph-name="greaterequal" unicode="&#x2265;" horiz-adv-x="1206" 
d="M158 311v258l540 170l-540 166v258l891 -323v-203zM147 0v186h912v-186h-912z" />
    <glyph glyph-name="A.001" horiz-adv-x="1597" 
d="M45 0l496 1516h514l497 -1516h-407l-86 285h-559l-86 -285h-369zM590 580h379l-189 622z" />
    <glyph glyph-name="B.001" horiz-adv-x="1355" 
 />
    <glyph glyph-name="B.002" horiz-adv-x="1372" 
 />
    <glyph glyph-name="B.003" horiz-adv-x="1388" 
 />
    <glyph glyph-name="C.001" horiz-adv-x="1603" 
d="M842 -20q-159 0 -291 43.5t-222.5 117.5t-153 174.5t-91.5 212.5t-29 232q0 119 28.5 230t91.5 211t153.5 174t222.5 117.5t291 43.5q108 0 200.5 -20t159 -53t121 -76.5t89.5 -91.5t62 -96t40.5 -91.5t21.5 -76.5t10 -53l2 -20h-372q-1 6 -2.5 16t-11 38.5t-23 54.5
t-39.5 57.5t-59 54.5t-84.5 38.5t-112.5 15.5q-125 0 -215 -64t-133 -169.5t-43 -239.5q0 -207 102.5 -341t288.5 -134q61 0 112.5 15t84.5 39t59 53t39.5 58t22.5 53t12 39l2 15h372q0 -7 -1.5 -20t-10.5 -52.5t-22 -77.5t-40 -90t-61.5 -96.5t-89.5 -90.5t-121.5 -78
t-159 -52t-200.5 -20z" />
    <glyph glyph-name="G.001" horiz-adv-x="1638" 
d="M844 -20q-153 0 -283.5 43.5t-222 118t-156.5 173.5t-96 211t-31 230t31 230.5t95.5 212t156.5 174.5t221.5 119t282.5 44q103 0 192.5 -17.5t154 -47.5t118 -68.5t88.5 -81t62 -85t41.5 -81t23.5 -68.5t12 -47l2 -18h-360q-1 4 -2.5 11.5t-11 28.5t-23 40t-39.5 42.5
t-59 40.5t-84.5 28.5t-112.5 11.5q-102 0 -185 -39.5t-134 -105t-78 -147.5t-27 -171q0 -91 28.5 -174t82 -150.5t141 -108t196.5 -40.5q145 0 238 70t121 198h-414v277h760v-111q0 -145 -36 -266.5t-101 -209t-155.5 -148t-200.5 -90t-236 -29.5z" />
    <glyph glyph-name="J.001" horiz-adv-x="962" 
d="M313 -20q-56 0 -113.5 5.5t-86.5 10.5l-29 6v293q78 -14 162 -14q143 0 219 69t76 228v938h352v-947q0 -124 -32 -227.5t-98.5 -186t-181 -129t-268.5 -46.5z" />
    <glyph glyph-name="J.002" horiz-adv-x="1298" 
d="M662 -20q-85 0 -157.5 15t-123 40.5t-91 58t-65.5 69t-43.5 73t-26.5 69t-12.5 58t-4.5 40.5l-1 15l326 37q1 -7 3 -18.5t13.5 -40.5t29.5 -51.5t55 -41t85 -18.5q201 0 201 266v965h379v-969q0 -121 -32 -218.5t-86 -161.5t-127.5 -107t-153.5 -61.5t-168 -18.5z" />
    <glyph glyph-name="M.001" horiz-adv-x="1720" 
d="M70 0v1516h479l313 -697l326 697h463v-1516h-351v975l-301 -631h-278l-301 635v-979h-350z" />
    <glyph glyph-name="M.002" horiz-adv-x="1703" 
d="M70 0v1516h479l313 -775l326 775h446v-1516h-350v969l-326 -754h-213l-325 758v-973h-350z" />
    <glyph glyph-name="M.003" horiz-adv-x="1685" 
d="M70 0v1516h508l270 -742l282 742h486v-1516h-365v1026l-290 -735h-238l-289 739v-1030h-364z" />
    <glyph glyph-name="N.001" horiz-adv-x="1445" 
d="M70 0v1516h338l593 -887v887h375v-1516h-342l-590 852v-852h-374z" />
    <glyph glyph-name="Q.001" horiz-adv-x="1708" 
d="M1356 -74l-123 137q-166 -83 -389 -83q-153 0 -283 41.5t-222.5 114.5t-157.5 171.5t-96.5 213t-31.5 239.5q0 124 31.5 237.5t96.5 212t157.5 171t222.5 114t283 41.5t282.5 -41.5t221.5 -114t157 -171t96 -212t31 -237.5q0 -150 -46.5 -286.5t-135.5 -240.5l268 -307
h-362zM453 760q0 -204 104 -335.5t287 -131.5q81 0 143 26l-250 279l219 180l230 -264q49 107 49 246q0 131 -45 235t-135 167t-211 63q-122 0 -212 -63t-134.5 -167t-44.5 -235z" />
    <glyph glyph-name="Q.002" horiz-adv-x="1708" 
d="M1356 -74l-123 137q-166 -83 -389 -83q-153 0 -283 41.5t-222.5 114.5t-157.5 171.5t-96.5 213t-31.5 239.5q0 124 31.5 237.5t96.5 212t157.5 171t222.5 114t283 41.5t282.5 -41.5t221.5 -114t157 -171t96 -212t31 -237.5q0 -150 -46.5 -286.5t-135.5 -240.5l268 -307
h-362zM453 760q0 -204 104 -335.5t287 -131.5q81 0 143 26l-250 279l219 180l230 -264q49 107 49 246q0 131 -45 235t-135 167t-211 63q-122 0 -212 -63t-134.5 -167t-44.5 -235z" />
    <glyph glyph-name="Q.003" horiz-adv-x="1708" 
d="M1290 0l-57 63q-171 -83 -389 -83q-153 0 -283 41.5t-222.5 114.5t-157.5 171.5t-96.5 213t-31.5 239.5q0 124 31.5 237.5t96.5 212t157.5 171t222.5 114t283 41.5t282.5 -41.5t221.5 -114t157 -171t96 -212t31 -237.5q0 -150 -46 -286.5t-134 -240.5l203 -233h-365z
M453 760q0 -204 104 -335.5t287 -131.5q81 0 143 26l-250 279l219 180l230 -264q49 107 49 246q0 131 -45 235t-135 167t-211 63q-122 0 -212 -63t-134.5 -167t-44.5 -235z" />
    <glyph glyph-name="R.001" horiz-adv-x="1505" 
d="M1008 0l-328 567h-209v-567h-385v1516h723q113 0 211.5 -33.5t170.5 -93.5t113.5 -150.5t41.5 -198.5q0 -154 -81.5 -266t-220.5 -166l379 -608h-415zM471 852h301q92 0 147.5 48t55.5 130t-55.5 131t-147.5 49h-301v-358z" />
    <glyph glyph-name="R.002" horiz-adv-x="1411" 
d="M86 0v1516h610q120 0 217.5 -27t161.5 -72.5t107.5 -107.5t62.5 -129.5t19 -141.5q0 -144 -73 -259.5t-226 -172.5l381 -606h-435l-311 561h-129v-561h-385zM471 827h188q60 0 104 17.5t67 48t33.5 64t10.5 71.5q0 37 -10.5 70.5t-33.5 64t-67 48.5t-104 18h-188v-402z
" />
    <glyph glyph-name="S.001" horiz-adv-x="1361" 
d="M698 -23q-136 0 -246 27t-177 70.5t-116.5 96t-71 105t-34 96t-13.5 70.5l-1 27h393q0 -4 0.5 -11t5.5 -28t14 -39.5t29 -41.5t47 -39.5t71 -28t99 -11.5q112 0 171 49.5t59 118.5q0 113 -156 140l-201 34q-241 39 -364 145.5t-123 291.5q0 219 165.5 352t438.5 133
q95 0 176 -15.5t138 -42.5t103 -61t74.5 -72.5t49.5 -76.5t30.5 -72t15.5 -61t7 -43v-15h-371q0 7 -1.5 18t-14 39.5t-34 50.5t-68 40t-109.5 18q-110 0 -163.5 -46.5t-53.5 -111.5q0 -62 46 -96.5t136 -48.5l211 -37q219 -38 338 -144t119 -284q0 -103 -42 -193
t-119 -157.5t-195.5 -106.5t-262.5 -39z" />
    <glyph glyph-name="S.002" horiz-adv-x="1361" 
d="M694 -23q-107 0 -197.5 16.5t-153.5 45t-114 64.5t-82.5 76.5t-54 81t-33 77t-16 64.5t-5.5 44l-1 17h383q0 -8 2.5 -21.5t18.5 -48t42.5 -60.5t82.5 -47.5t130 -21.5q114 0 175 52.5t61 123.5q0 114 -160 142l-201 34q-242 41 -364.5 146t-122.5 293q0 214 165 346.5
t433 132.5q96 0 178 -15.5t139.5 -42t104.5 -61t75.5 -72t49.5 -75.5t31 -72.5t15.5 -61t6.5 -42.5v-15h-360q0 7 -2 18.5t-15.5 40.5t-36.5 51.5t-71 41t-113 18.5q-109 0 -165 -49.5t-56 -114.5q0 -64 47 -99.5t139 -51.5l211 -37q229 -39 343 -142t114 -284
q0 -103 -40 -191.5t-116 -156t-196 -106t-271 -38.5z" />
    <glyph glyph-name="S.003" horiz-adv-x="1361" 
d="M682 -23q-108 0 -199 16.5t-155 45t-115.5 65t-83 77t-55 81t-33.5 77t-16 65t-7 44.5v17h388q0 -8 2.5 -21.5t18.5 -48t42.5 -60.5t82.5 -47.5t130 -21.5q115 0 175.5 52t60.5 122q0 117 -164 144l-191 28q-249 41 -373 147.5t-124 295.5q0 214 165 346.5t437 132.5
q96 0 178.5 -15.5t140 -42t105 -60.5t76.5 -72t50.5 -75.5t32 -71.5t16 -60.5t6.5 -42.5l1 -15h-365q0 7 -2 18t-16.5 40t-37 51.5t-71 40.5t-112.5 18q-107 0 -163 -50.5t-56 -117.5q0 -66 47.5 -101.5t144.5 -51.5l201 -31q232 -39 347.5 -142.5t115.5 -283.5
q0 -103 -40 -191.5t-116.5 -156t-197 -106t-271.5 -38.5z" />
    <glyph glyph-name="S.004" horiz-adv-x="1361" 
d="M694 -23q-107 0 -197.5 16.5t-153.5 45t-114 64.5t-82.5 76.5t-54 81t-33 77t-16 64.5t-5.5 44l-1 17h383q0 -8 2.5 -21.5t18.5 -48t42.5 -60.5t82.5 -47.5t130 -21.5q114 0 175 52.5t61 125.5q0 114 -160 142l-201 32q-242 39 -364.5 144.5t-122.5 294.5
q0 214 165 346.5t433 132.5q96 0 178 -15.5t139.5 -42t104.5 -61t75.5 -72t49.5 -75.5t31 -72.5t15.5 -61t6.5 -42.5v-15h-360q0 7 -2 18.5t-15.5 40.5t-36.5 51.5t-71 41t-113 18.5q-109 0 -165 -49.5t-56 -114.5q0 -66 47.5 -101.5t138.5 -49.5l211 -37q229 -37 343 -140
t114 -284q0 -103 -40 -192t-115.5 -157t-196 -106.5t-271.5 -38.5z" />
    <glyph glyph-name="S.005" horiz-adv-x="1386" 
d="M713 -23q-136 0 -246.5 27t-177.5 69.5t-116.5 94.5t-72 104t-35 94.5t-13.5 69.5l-1 27h383q0 -4 1 -11t7.5 -28t16.5 -39.5t31.5 -41.5t49.5 -39.5t73 -28t100 -11.5q115 0 175 52t60 124q0 113 -164 144l-192 30q-496 82 -496 441q0 212 166.5 345.5t433.5 133.5
q122 0 222 -25t161.5 -65t107 -88t67 -96.5t34 -88.5t14.5 -65l1 -25h-365q0 7 -2 18t-16 40t-37 51.5t-71 40.5t-112 18q-110 0 -166.5 -51t-56.5 -119q0 -65 48 -100t147 -53l200 -33q233 -39 348 -141.5t115 -282.5q0 -103 -40 -191.5t-116 -156t-196 -106t-270 -38.5z
" />
    <glyph glyph-name="S.006" horiz-adv-x="1331" 
d="M686 -20q-107 0 -197.5 16.5t-154 45t-115 65t-83.5 77.5t-55 81.5t-34 77t-17 65t-6 44.5l-1 17h380q1 -8 3.5 -22.5t20 -50.5t45.5 -63.5t86.5 -50t135.5 -22.5q109 0 172.5 50.5t63.5 121.5q0 64 -44 104t-141 58l-206 35q-235 41 -354 148.5t-119 277.5
q0 213 164.5 347t445.5 134q95 0 177 -16t140 -42.5t105 -61.5t77 -73.5t52 -76.5t33 -73t17.5 -61.5t7.5 -42.5l1 -16h-350q-1 8 -3.5 20.5t-19 44.5t-42 57t-78 45t-121.5 20q-110 0 -170 -48.5t-60 -117.5q0 -65 49 -100.5t166 -55.5l193 -33q224 -38 342.5 -150.5
t118.5 -279.5q0 -217 -171 -356t-454 -139z" />
    <glyph glyph-name="S.007" horiz-adv-x="1406" 
d="M723 -20q-104 0 -193 16t-152 42.5t-114.5 61.5t-84 73.5t-56.5 77t-36 73.5t-19 61.5t-8 42.5l-1 16l381 25q1 -8 3.5 -22.5t20 -50.5t45.5 -63.5t86.5 -50t135.5 -22.5q110 0 173 50t63 122q0 64 -43 103t-140 57l-206 37q-476 87 -476 426q0 213 165.5 347t445.5 134
q164 0 287 -45t182 -109.5t94 -129t41 -109.5l6 -45l-348 -25q0 4 -1.5 10.5t-8 26t-17 37.5t-31 39.5t-47 37t-68.5 26t-93 10.5q-108 0 -168 -48.5t-60 -117.5q0 -64 48 -99t165 -57l195 -33q224 -39 341.5 -152t117.5 -278q0 -217 -170.5 -356t-454.5 -139z" />
    <glyph glyph-name="S.008" horiz-adv-x="1406" 
d="M723 -20q-104 0 -193 16t-152 42.5t-114.5 61.5t-84 73.5t-56.5 77t-36 73.5t-19 61.5t-8 42.5l-1 16l381 25q1 -8 3.5 -22.5t20 -50.5t45.5 -63.5t86.5 -50t135.5 -22.5q110 0 173 50t63 122q0 64 -43.5 104t-139.5 58l-206 35q-235 41 -355.5 148.5t-120.5 277.5
q0 213 165.5 347t445.5 134q164 0 287 -45t182 -109.5t94 -129t41 -109.5l6 -45l-348 -25q0 4 -1.5 10.5t-8 26t-17 37.5t-31 39.5t-47 37t-68.5 26t-93 10.5q-108 0 -168 -48.5t-60 -117.5q0 -65 48 -100.5t165 -55.5l195 -33q224 -38 341.5 -150.5t117.5 -279.5
q0 -217 -171 -356t-454 -139z" />
    <glyph glyph-name="S.009" horiz-adv-x="1406" 
d="M723 -20q-104 0 -193 16t-152 42.5t-114.5 61.5t-84 73.5t-56.5 77t-36 73.5t-19 61.5t-8 42.5l-1 16l381 25q1 -8 3.5 -22.5t20 -50.5t45.5 -63.5t86.5 -50t135.5 -22.5q110 0 173 50t63 122q0 64 -43.5 104t-139.5 58l-206 35q-235 41 -355.5 148.5t-120.5 277.5
q0 213 165.5 347t445.5 134q164 0 287 -45t182 -109.5t94 -129t41 -109.5l6 -45l-348 -25q0 4 -1.5 10.5t-8 26t-17 37.5t-31 39.5t-47 37t-68.5 26t-93 10.5q-108 0 -168 -48.5t-60 -117.5q0 -65 48 -100.5t165 -55.5l195 -33q224 -38 341.5 -150.5t117.5 -279.5
q0 -217 -171 -356t-454 -139z" />
    <glyph glyph-name="S.010" horiz-adv-x="1406" 
d="M723 -20q-104 0 -193 16t-152 43t-114.5 62.5t-84 74.5t-56.5 77.5t-36 74t-19 62.5t-8 43l-1 16l381 24q1 -9 3.5 -23t20 -51t45.5 -65t86.5 -51t135.5 -23q110 0 173 50t63 122q0 64 -43 103t-140 57l-206 37q-476 87 -476 426q0 213 165.5 347t445.5 134q94 0 175 -15
t138.5 -40.5t105 -59t77.5 -70t52.5 -73t34 -70t18 -59t8.5 -40.5l1 -15l-348 -25q0 4 -1.5 11t-8 26.5t-17 38t-31 40.5t-47 37.5t-68.5 26.5t-93 11q-108 0 -168 -48.5t-60 -117.5q0 -64 48 -99t165 -57l195 -33q224 -39 341.5 -152t117.5 -278q0 -217 -170.5 -356
t-454.5 -139z" />
    <glyph glyph-name="S.011" horiz-adv-x="1406" 
d="M729 -20q-105 0 -195 17t-153.5 45.5t-115.5 65.5t-84.5 77.5t-57 81.5t-36 78t-18.5 65.5t-9 45.5l-1 17h381q1 -9 3.5 -23t20 -51t45.5 -65t86.5 -51t135.5 -23q114 0 181 50.5t67 121.5q0 123 -195 160l-190 35q-246 42 -369 152.5t-123 283.5q0 206 166 339.5
t441 133.5q95 0 176.5 -16t139 -43t105.5 -62t78 -74t53 -77.5t34 -73.5t18 -62t9 -43l1 -16h-348q0 4 -1.5 11t-8 26.5t-17 38t-31 40.5t-47 37.5t-68.5 26.5t-93 11q-111 0 -172.5 -48.5t-61.5 -117.5q0 -63 53.5 -99t165.5 -57l195 -33q224 -39 341.5 -152t117.5 -278
q0 -218 -167 -356.5t-452 -138.5z" />
    <glyph glyph-name="S.012" horiz-adv-x="1406" 
d="M723 -20q-104 0 -193 17t-152 45.5t-114.5 65.5t-84 77.5t-56.5 81.5t-36 78t-19 65.5t-8 45.5l-1 17h381q1 -9 3.5 -23t20 -51t45.5 -65t86.5 -51t135.5 -23q114 0 178 50t64 122q0 64 -44 102t-145 58l-206 37q-476 87 -476 428q0 213 161 346t446 133q95 0 176.5 -16
t139 -43t105.5 -62t78 -74t53 -77.5t34 -73.5t18 -62t9 -43l1 -16h-348q0 4 -1.5 11t-8 26.5t-17 38t-31 40.5t-47 37.5t-68.5 26.5t-93 11q-112 0 -173 -48.5t-61 -117.5q0 -64 48.5 -98.5t170.5 -57.5l195 -33q224 -39 341.5 -152t117.5 -278q0 -217 -170.5 -356
t-454.5 -139z" />
    <glyph glyph-name="S.013" horiz-adv-x="1406" 
d="M733 -20q-105 0 -195.5 17t-154.5 45.5t-116.5 65.5t-85 77.5t-57.5 81.5t-36.5 78t-18.5 65.5t-9 45.5l-1 17h381q1 -9 3.5 -23t20 -51t45.5 -65t87 -51t137 -23q114 0 178 50t64 122q0 63 -44.5 100.5t-146.5 57.5l-206 41q-238 48 -357 152t-119 274q0 213 161 346
t446 133q95 0 176.5 -16t139 -43t105.5 -62t78 -74t53 -77.5t34 -73.5t18 -62t9 -43l1 -16h-348q0 4 -1.5 11t-8 26.5t-17 38t-31 40.5t-47 37.5t-68.5 26.5t-93 11q-113 0 -174.5 -47.5t-61.5 -116.5q0 -59 50 -95.5t171 -60.5l195 -37q226 -44 342.5 -154t116.5 -274
q0 -217 -168 -356t-447 -139z" />
    <glyph glyph-name="S.014" horiz-adv-x="1406" 
d="M731 -20q-134 0 -244 27.5t-178 71t-119.5 96t-76 105.5t-39 96.5t-16.5 71.5l-3 27h389q0 -4 1.5 -12t8 -29.5t17.5 -41.5t33 -44.5t51 -42t74.5 -29.5t101.5 -12q113 0 176.5 49t63.5 119q0 63 -44 99.5t-143 56.5l-213 41q-236 46 -353.5 151.5t-117.5 276.5
q0 212 161 345.5t448 133.5q95 0 176.5 -16t139.5 -43t106 -62.5t78.5 -74t53.5 -77.5t35 -74.5t19 -62.5t9 -43l1 -16h-356q-1 8 -3.5 20.5t-19 45t-41.5 57t-77.5 45t-120.5 20.5q-112 0 -172 -46.5t-60 -114.5q0 -57 48 -92.5t171 -59.5l197 -39q224 -42 341.5 -152
t117.5 -274q0 -218 -170 -357.5t-451 -139.5z" />
    <glyph glyph-name="S.015" horiz-adv-x="1406" 
d="M731 -20q-106 0 -196.5 17t-155 45.5t-117 65.5t-85.5 78.5t-58 82.5t-37 78t-19 65.5t-9 45.5l-1 17h389q0 -4 1 -12t8 -30t17.5 -42t33 -44.5t51.5 -42.5t75.5 -30t102.5 -12q114 0 178 49.5t64 120.5q0 62 -44.5 97.5t-144.5 56.5l-213 43q-237 46 -355 151t-118 277
q0 212 162 345.5t449 133.5q95 0 177.5 -16t140.5 -43t106.5 -62.5t79 -74t53.5 -77.5t34.5 -74.5t18.5 -62.5t9 -43l1 -16h-356q-1 8 -3.5 20.5t-19 45t-42 57t-78 45t-121.5 20.5q-112 0 -173 -46.5t-61 -114.5q0 -56 49 -92t172 -60l199 -39q225 -44 342 -154t117 -274
q0 -218 -170.5 -356.5t-452.5 -138.5z" />
    <glyph glyph-name="S.016" horiz-adv-x="1406" 
d="M731 -20q-106 0 -197 17t-155.5 46t-117 66.5t-85 78.5t-57 82.5t-36.5 79t-19 66.5t-8 46l-1 17h387q0 -5 1 -12.5t8 -30t17.5 -43t33 -45.5t51.5 -43t75.5 -30.5t102.5 -12.5q113 0 176.5 50t63.5 120q0 64 -44 100t-143 56l-213 41q-235 46 -354 150.5t-119 275.5
q0 213 161.5 347t449.5 134q96 0 178.5 -16t141 -43.5t106.5 -63t78 -74.5t53 -78.5t34 -75t17.5 -63t8.5 -43.5l1 -16h-354q-1 8 -3.5 21t-19 46t-42 58t-78 46t-121.5 21q-113 0 -173.5 -47t-60.5 -116q0 -56 49 -92t172 -60l197 -37q225 -42 342 -153t117 -275
q0 -217 -170.5 -356t-450.5 -139z" />
    <glyph glyph-name="S.017" horiz-adv-x="1406" 
d="M731 -20q-106 0 -196.5 17t-155 45.5t-117 65.5t-85.5 78.5t-58 82.5t-37 78t-19 65.5t-9 45.5l-1 17h389q0 -4 1 -12t8 -30t17.5 -42t33 -44.5t51.5 -42.5t75.5 -30t102.5 -12q114 0 178 49.5t64 120.5q0 62 -45 99t-144 57l-213 41q-236 45 -354.5 150t-118.5 278
q0 212 162 345.5t449 133.5q95 0 177.5 -16t140.5 -43t106.5 -62.5t79 -74t53.5 -77.5t34.5 -74.5t18.5 -62.5t9 -43l1 -16h-356q-1 8 -3.5 20.5t-19 45t-42 57t-78 45t-121.5 20.5q-112 0 -173 -46.5t-61 -114.5q0 -56 49 -92t172 -60l199 -39q224 -42 341.5 -153
t117.5 -275q0 -217 -170.5 -356t-452.5 -139z" />
    <glyph glyph-name="S.018" horiz-adv-x="1406" 
d="M733 -20q-112 0 -206.5 18t-160 48t-118.5 69t-84.5 82t-54.5 86t-33 82t-15.5 69t-5.5 48v18h385q0 -5 0.5 -13.5t6 -33.5t15 -47.5t31.5 -49.5t52 -47t78.5 -33.5t109.5 -13.5q113 0 176.5 50t63.5 120q0 64 -44.5 99.5t-144.5 56.5l-188 35q-254 50 -376 156t-122 280
q0 211 161 344t446 133q99 0 183 -16.5t143.5 -45t107.5 -65t78 -77t52.5 -80.5t33 -76.5t16.5 -65t7 -44.5l1 -17h-354q0 4 -1 11.5t-7 29.5t-15.5 41.5t-30 43.5t-47.5 41t-70.5 29t-96.5 12q-109 0 -170.5 -46t-61.5 -111q0 -61 49.5 -98.5t173.5 -61.5l197 -37
q225 -42 342 -153t117 -275q0 -217 -169.5 -356t-449.5 -139z" />
    <glyph glyph-name="S.019" horiz-adv-x="1406" 
d="M731 -20q-140 0 -253 29t-181.5 75.5t-118.5 103t-72 113t-34.5 103t-13.5 75.5l-1 29h379q0 -5 0.5 -14t6 -35t15.5 -49t32 -52t51.5 -49.5t79 -34.5t110.5 -14q111 0 172.5 51.5t61.5 124.5q0 117 -166 146l-228 45q-238 45 -354.5 150.5t-116.5 283.5
q0 204 160.5 339.5t439.5 135.5q101 0 187 -16.5t146 -45t108.5 -65t78 -77t51.5 -80.5t32 -76.5t15.5 -65t5.5 -44.5l1 -17h-352q0 9 -2 23t-17.5 50.5t-41 64t-81.5 50.5t-131 23q-101 0 -160 -49t-59 -117q0 -56 40.5 -92t135.5 -54l236 -45q224 -41 340.5 -151.5
t116.5 -280.5q0 -100 -41.5 -188.5t-118.5 -156t-195.5 -107t-263.5 -39.5z" />
    <glyph glyph-name="W.001" horiz-adv-x="2154" 
d="M395 0l-368 1516h352l252 -1057l264 1057h365l264 -1057l252 1057h352l-369 -1516h-461l-221 895l-221 -895h-461z" />
    <glyph glyph-name="i.loclTRK" horiz-adv-x="505" 
d="M76 0v1085h350v-1085h-350zM47 1389q0 84 58.5 140t148.5 56q89 0 148 -56t59 -140q0 -79 -59.5 -137t-147.5 -58q-89 0 -148 57.5t-59 137.5z" />
    <glyph glyph-name="a.001" horiz-adv-x="1144" 
d="M629 453q-236 -13 -236 -134q0 -52 38 -81t99 -29q89 0 145 58.5t56 158.5v39zM68 291q0 328 464 352l199 14v52q0 69 -37.5 110t-115.5 41q-44 0 -77.5 -13.5t-49.5 -32t-25.5 -37.5t-11.5 -33l-2 -13h-320q0 8 1.5 21.5t12 52.5t28 74.5t54.5 78.5t87 74t130 52.5
t179 21.5q133 0 230 -33t150.5 -91t78 -126t24.5 -149v-707h-336v127h-16q-13 -23 -34 -45t-56 -47t-90.5 -40t-122.5 -15q-150 0 -247 82.5t-97 228.5z" />
    <glyph glyph-name="a.002" horiz-adv-x="1144" 
d="M530 434q-143 -16 -143 -112q0 -51 40.5 -81t104.5 -30q87 0 143 58t56 157v35zM51 293q0 80 30 141.5t85 101t124.5 62.5t155.5 33l285 35v39q0 70 -39.5 111.5t-116.5 41.5q-43 0 -75.5 -13.5t-48 -33t-25 -38.5t-10.5 -33l-2 -13h-320q0 8 2 21.5t13 53t28.5 75.5
t55 79.5t87 75t128.5 53t176 21.5q104 0 188 -24t139 -62.5t92.5 -91t53.5 -106.5t16 -111v-711h-342v127h-16q-101 -147 -305 -147q-159 0 -259 84t-100 229z" />
    <glyph glyph-name="a.003" horiz-adv-x="1130" 
d="M608 459q-223 -8 -223 -137q0 -54 38.5 -86.5t98.5 -32.5q90 0 145.5 59.5t55.5 163.5v37zM59 303q0 328 492 348l172 8v50q0 69 -37.5 112t-118.5 43q-44 0 -77 -13.5t-48.5 -33t-25 -39.5t-11.5 -34l-2 -13h-311q0 8 1.5 21.5t11.5 52.5t27 74.5t53.5 78.5t85.5 74
t128 52.5t176 21.5q107 0 191.5 -22.5t138.5 -59.5t89.5 -89t50 -108t14.5 -120v-707h-336v127h-14q-13 -23 -34.5 -45t-57 -47t-91.5 -40t-123 -15q-150 0 -247 85.5t-97 237.5z" />
    <glyph glyph-name="a.004" horiz-adv-x="1130" 
d="M588 451q-203 -11 -203 -132q0 -55 38 -85.5t99 -30.5q90 0 145.5 59.5t55.5 163.5v39zM59 301q0 315 465 342l199 14v52q0 70 -37 112.5t-117 42.5q-44 0 -77.5 -13.5t-49.5 -33t-25.5 -39.5t-11.5 -34l-2 -13h-311q0 8 1.5 21.5t11.5 52.5t27 74.5t53.5 78.5t85.5 74
t128 52.5t176 21.5q107 0 191.5 -22.5t138.5 -59.5t89.5 -89t50 -108t14.5 -120v-707h-336v127h-14q-13 -23 -34.5 -45t-57 -47t-91.5 -40t-123 -15q-151 0 -247.5 84t-96.5 237z" />
    <glyph glyph-name="a.005" horiz-adv-x="1140" 
 />
    <glyph glyph-name="a.006" horiz-adv-x="1140" 
 />
    <glyph glyph-name="a.007" horiz-adv-x="1140" 
 />
    <glyph glyph-name="a.008" horiz-adv-x="1140" 
 />
    <glyph glyph-name="a.009" horiz-adv-x="1140" 
d="M606 459q-223 -8 -223 -137q0 -54 38.5 -86.5t98.5 -32.5q90 0 145.5 59.5t55.5 163.5v37zM57 303q0 329 492 346l172 8v58q0 70 -38 109.5t-114 39.5q-45 0 -78.5 -13.5t-49.5 -33t-25.5 -39.5t-11.5 -34l-1 -13h-311q0 8 1.5 21.5t11.5 52.5t26.5 74.5t53 78.5t85.5 74
t128.5 52.5t176.5 21.5q107 0 191.5 -22t138 -59t88.5 -89t49.5 -107t14.5 -118v-711h-336v127h-14q-13 -23 -33.5 -45t-56 -47t-91.5 -40t-125 -15q-150 0 -247 86t-97 237z" />
    <glyph glyph-name="a.010" horiz-adv-x="1146" 
 />
    <glyph glyph-name="a.011" horiz-adv-x="1140" 
 />
    <glyph glyph-name="a.012" horiz-adv-x="1140" 
d="M401 -20q-151 0 -250.5 84.5t-99.5 230.5q0 316 461 346l209 18v52q0 155 -156 155q-44 0 -77 -14t-48.5 -34t-24.5 -39.5t-11 -33.5l-1 -14h-311q0 8 1 21.5t10.5 52.5t26 74.5t52.5 78.5t85 74t128.5 52.5t177.5 21.5q108 0 193 -22.5t138.5 -59t88 -88.5t48.5 -107
t14 -118v-711h-334v141q-12 -23 -30.5 -44.5t-55 -51t-97.5 -47.5t-137 -18zM381 319q0 -55 39.5 -85.5t101.5 -30.5q90 0 144.5 56.5t54.5 158.5v47l-154 -12q-186 -14 -186 -134z" />
    <glyph glyph-name="a.013" horiz-adv-x="1134" 
d="M412 -20q-154 0 -256.5 84.5t-102.5 226.5q0 82 30 144.5t96 110.5t178 76t270 35l104 9v45q0 77 -37 121.5t-116 44.5q-45 0 -78.5 -14.5t-49 -35t-24.5 -41t-10 -34.5l-2 -15h-312q0 8 1 21t10 51.5t25 73.5t52 77.5t85 73t129.5 51.5t179.5 21q108 0 192.5 -22.5
t137.5 -59t88 -88.5t49 -107t14 -118v-711h-334v141q-12 -23 -30 -44.5t-54.5 -51t-97 -47.5t-137.5 -18zM381 313q0 -52 43.5 -82t110.5 -30q90 0 143 55.5t53 157.5v51l-78 -6q-152 -10 -212 -48t-60 -98z" />
    <glyph glyph-name="a.014" horiz-adv-x="1134" 
d="M418 -20q-155 0 -261 84.5t-106 226.5q0 109 55 185t186.5 124t340.5 57l98 7v47q0 77 -37 121.5t-116 44.5q-45 0 -78.5 -14.5t-49 -35t-24.5 -41t-10 -34.5l-2 -15h-312q0 8 1 21t10 51.5t25 73.5t52 77.5t85 73t129.5 51.5t179.5 21q108 0 192.5 -22.5t137.5 -59
t88 -88.5t49 -107t14 -118v-711h-334v141q-86 -161 -313 -161zM379 313q0 -52 44.5 -82t111.5 -30q93 0 144.5 55t51.5 158v51l-74 -6q-278 -18 -278 -146z" />
    <glyph glyph-name="a.015" horiz-adv-x="1134" 
d="M414 -20q-158 0 -259.5 84t-101.5 227q0 165 134 257.5t440 106.5l104 13v43q0 77 -37 121.5t-116 44.5q-44 0 -77.5 -14.5t-49 -35t-25 -41t-10.5 -34.5l-2 -15h-312q0 8 1 21t10 51.5t25.5 73.5t52.5 77.5t85 73t129 51.5t179 21q108 0 192.5 -22.5t137.5 -59t88 -88.5
t49 -107t14 -118v-711h-334v139q-85 -159 -317 -159zM383 313q0 -52 43 -82t109 -30q92 0 144 55t52 158v53l-88 -10q-260 -16 -260 -144z" />
    <glyph glyph-name="a.016" horiz-adv-x="1134" 
d="M410 -20q-156 0 -257.5 84t-101.5 227q0 109 55 185t186.5 124t340.5 57l98 7v47q0 77 -37 121.5t-116 44.5q-45 0 -78.5 -14.5t-49 -35t-24.5 -41t-10 -34.5l-2 -15h-312q0 8 1 21t10 51.5t25 73.5t52 77.5t85 73t129.5 51.5t179.5 21q108 0 192.5 -22.5t137.5 -59
t88 -88.5t49 -107t14 -118v-711h-334v141q-86 -161 -321 -161zM379 313q0 -52 44.5 -82t111.5 -30q93 0 144.5 55t51.5 158v51l-74 -6q-278 -18 -278 -146z" />
    <glyph glyph-name="a.017" horiz-adv-x="1134" 
d="M414 -20q-160 0 -260.5 86t-100.5 227q0 151 113.5 245.5t370.5 123.5l194 24v25q0 77 -37.5 121.5t-118.5 44.5q-44 0 -77 -14t-49 -34.5t-25 -41t-10 -34.5l-2 -14h-310q0 8 1.5 21t11.5 51t27 73t54 77t85.5 72.5t127 51.5t175.5 21q110 0 195 -22.5t138.5 -59.5
t87 -90t47 -108.5t13.5 -120.5v-705h-334v125q-35 -44 -56 -62q-97 -83 -261 -83zM383 313q0 -51 41 -81.5t104 -30.5q94 0 148.5 55.5t54.5 157.5v69l-121 -18q-126 -19 -176.5 -58t-50.5 -94z" />
    <glyph glyph-name="a.018" horiz-adv-x="1132" 
d="M412 -20q-160 0 -260.5 86t-100.5 227q0 298 416 356l262 37v25q0 77 -37.5 121.5t-118.5 44.5q-44 0 -77 -14t-49 -34.5t-25 -41t-10 -34.5l-2 -14h-310q0 8 0.5 21t9.5 51t25 73t52 77t85 72.5t129.5 51.5t180.5 21q110 0 195 -22.5t138.5 -59.5t87 -90t47 -108.5
t13.5 -120.5v-705h-334v125q-35 -44 -56 -62q-97 -83 -261 -83zM377 313q0 -51 42.5 -81.5t106.5 -30.5q94 0 148.5 55.5t54.5 157.5v69l-154 -22q-198 -31 -198 -148z" />
    <glyph glyph-name="a.019" horiz-adv-x="1132" 
d="M420 -20q-163 0 -266 84t-103 229q0 156 128.5 249t393.5 128l158 22v19q0 77 -37.5 121.5t-118.5 44.5q-45 0 -79 -15t-49.5 -36.5t-24.5 -43t-10 -36.5l-2 -15h-312q0 8 0.5 21.5t9 52.5t25 74.5t53 78.5t86.5 74t132.5 52.5t185.5 21.5q132 0 228 -33t148 -90.5
t75.5 -124t23.5 -145.5v-713h-334v125q-3 -3 -20 -22t-29.5 -31t-40 -31.5t-55.5 -31t-72 -20.5t-94 -9zM375 317q0 -55 44 -85.5t111 -30.5q92 0 146.5 56.5t54.5 162.5v69l-115 -18q-241 -37 -241 -154z" />
    </font>
</defs>
</svg>
