<svg width="49" height="48" viewBox="0 0 49 48" fill="none" xmlns="http://www.w3.org/2000/svg">
<rect x="0.5" width="48" height="48" rx="12" fill="#FAF5FF"/>
<path d="M32.6094 17.9062L27.5938 12.8906C27.0312 12.3281 26.2812 12 25.4844 12H18.5C16.8125 12 15.5 13.3594 15.5 15V33C15.5 34.6875 16.8125 36 18.5 36H30.5C32.1406 36 33.5 34.6875 33.5 33V20.0156C33.5 19.2188 33.1719 18.4688 32.6094 17.9062ZM26 13.6406C26.1875 13.6875 26.375 13.7812 26.5625 13.9688L31.5312 18.9375C31.7188 19.125 31.8125 19.3125 31.8594 19.5H26.75C26.3281 19.5 26 19.1719 26 18.75V13.6406ZM32 33C32 33.8438 31.2969 34.5 30.5 34.5H18.5C17.6562 34.5 17 33.8438 17 33V15C17 14.2031 17.6562 13.5 18.5 13.5H24.5V18.75C24.5 20.0156 25.4844 21 26.75 21H32V33ZM24.5 26.4844L22.4844 23.5781C22.25 23.25 21.7812 23.1562 21.4062 23.3906C21.0781 23.625 20.9844 24.0938 21.2188 24.4688L23.5625 27.75L21.2188 31.0781C20.9844 31.4531 21.0781 31.9219 21.4062 32.1562C21.5469 32.25 21.6875 32.25 21.8281 32.25C22.0625 32.25 22.2969 32.1562 22.4375 31.9688L24.5 29.0625L26.4688 31.9688C26.6094 32.1562 26.8438 32.25 27.125 32.25C27.2656 32.25 27.4062 32.25 27.5469 32.1562C27.875 31.9219 27.9688 31.4531 27.7344 31.0781L25.3906 27.75L27.7344 24.4688C27.9688 24.0938 27.875 23.625 27.5469 23.3906C27.1719 23.1562 26.7031 23.25 26.4688 23.5781L24.5 26.4844Z" fill="#9F7AEA"/>
</svg>
