<svg width="41" height="40" viewBox="0 0 41 40" fill="none" xmlns="http://www.w3.org/2000/svg">
<rect x="0.5" width="40" height="40" rx="20" fill="#615EF0" fill-opacity="0.1"/>
<path d="M28 22.375H25.8906L24.0156 24.25H28C28.3125 24.25 28.625 24.5625 28.625 24.875V28C28.625 28.3516 28.3125 28.625 28 28.625H13C12.6484 28.625 12.375 28.3516 12.375 28V24.875C12.375 24.5625 12.6484 24.25 13 24.25H16.9453L15.0703 22.375H13C11.5938 22.375 10.5 23.5078 10.5 24.875V28C10.5 29.4062 11.5938 30.5 13 30.5H28C29.3672 30.5 30.5 29.4062 30.5 28V24.875C30.5 23.5078 29.3672 22.375 28 22.375ZM27.375 26.4375C27.375 25.9297 26.9453 25.5 26.4375 25.5C25.8906 25.5 25.5 25.9297 25.5 26.4375C25.5 26.9844 25.8906 27.375 26.4375 27.375C26.9453 27.375 27.375 26.9844 27.375 26.4375ZM19.8359 24.9141C19.9922 25.1094 20.2266 25.1875 20.5 25.1875C20.7344 25.1875 20.9688 25.1094 21.125 24.9141L26.4375 19.6016C26.8281 19.25 26.8281 18.6641 26.4375 18.3125C26.0859 17.9219 25.5 17.9219 25.1484 18.3125L21.4375 22.0234V11.4375C21.4375 10.9297 21.0078 10.5 20.5 10.5C19.9531 10.5 19.5625 10.9297 19.5625 11.4375V22.0234L15.8125 18.2734C15.4219 17.9219 14.8359 17.9219 14.4844 18.2734C14.0938 18.6641 14.0938 19.25 14.4844 19.6016L19.8359 24.9141Z" fill="#615EF0"/>
</svg>
