<svg width="41" height="40" viewBox="0 0 41 40" fill="none" xmlns="http://www.w3.org/2000/svg">
<rect x="0.5" width="40" height="40" rx="20" fill="#615EF0" fill-opacity="0.1"/>
<path d="M23 13C23 11.6328 21.8672 10.5 20.5 10.5C19.0938 10.5 18 11.6328 18 13C18 14.4062 19.0938 15.5 20.5 15.5C21.8672 15.5 23 14.4062 23 13ZM23 20.5C23 19.1328 21.8672 18 20.5 18C19.0938 18 18 19.1328 18 20.5C18 21.9062 19.0938 23 20.5 23C21.8672 23 23 21.9062 23 20.5ZM23 28C23 26.6328 21.8672 25.5 20.5 25.5C19.0938 25.5 18 26.6328 18 28C18 29.4062 19.0938 30.5 20.5 30.5C21.8672 30.5 23 29.4062 23 28Z" fill="#615EF0"/>
</svg>
