<svg width="21" height="21" viewBox="0 0 21 21" fill="none" xmlns="http://www.w3.org/2000/svg">
<path d="M20.4609 1.94531L17.9609 18.1562C17.9219 18.5469 17.6875 18.8984 17.3359 19.0938C17.1406 19.1719 16.9453 19.25 16.7109 19.25C16.5547 19.25 16.3984 19.2109 16.2422 19.1328L11.4766 17.1406L9.48438 20.1094C9.32812 20.3828 9.05469 20.5 8.78125 20.5C8.35156 20.5 8 20.1484 8 19.7188V15.9688C8 15.6562 8.07812 15.3828 8.23438 15.1875L16.75 4.25L5.26562 14.6016L1.24219 12.9219C0.8125 12.7266 0.5 12.3359 0.5 11.8281C0.460938 11.2812 0.695312 10.8906 1.125 10.6562L18.625 0.695312C19.0156 0.460938 19.5625 0.460938 19.9531 0.734375C20.3438 1.00781 20.5391 1.47656 20.4609 1.94531Z" fill="#FF6635"/>
</svg>
