<svg width="19" height="21" viewBox="0 0 19 21" fill="none" xmlns="http://www.w3.org/2000/svg">
<path opacity="0.4" d="M6.6875 20.5C3.32812 20.5 0.59375 17.7656 0.59375 14.3672C0.59375 12.7266 1.21875 11.1641 2.35156 10.0312L10.5938 1.78906C11.4531 0.96875 12.6641 0.5 13.8359 0.5C16.7656 0.5 18.4062 2.88281 18.4062 5.03125C18.4062 6.24219 17.8984 7.41406 17.0391 8.27344L9.5 15.8125C8.91406 16.3984 8.13281 16.6719 7.39062 16.6719C5.00781 16.6719 4.38281 14.5625 4.38281 13.7031C4.38281 12.9609 4.69531 12.1797 5.28125 11.5938L10.8281 6.04688C11.0625 5.8125 11.3359 5.73438 11.6094 5.73438C12.1953 5.73438 12.7031 6.20312 12.7031 6.82812C12.7031 7.10156 12.5859 7.375 12.3906 7.60938L6.80469 13.1562C6.64844 13.3125 6.57031 13.5078 6.57031 13.7031C6.57031 14.1719 6.96094 14.5234 7.39062 14.5234C7.58594 14.5234 7.78125 14.4453 7.9375 14.2891L15.5156 6.71094C15.9453 6.24219 16.1797 5.65625 16.1797 5.03125C16.1797 3.9375 15.3594 2.6875 13.8359 2.6875C13.2109 2.6875 12.5859 2.92188 12.1562 3.35156L3.91406 11.5938C3.17188 12.3359 2.78125 13.3125 2.78125 14.3672C2.78125 16.2422 4.14844 18.2734 6.6875 18.2734C7.74219 18.2734 8.75781 17.9219 9.5 17.1797L15.7109 10.9297C15.9453 10.7344 16.2188 10.6172 16.4922 10.6172C17.0781 10.6172 17.5859 11.0859 17.5859 11.7109C17.5859 11.9844 17.4688 12.2578 17.2734 12.4922L11.0234 18.7031C9.89062 19.875 8.32812 20.5 6.6875 20.5Z" fill="black"/>
</svg>
