<svg width="49" height="48" viewBox="0 0 49 48" fill="none" xmlns="http://www.w3.org/2000/svg">
<rect x="0.5" width="48" height="48" rx="12" fill="#FFF5F5"/>
<path d="M32.6094 17.9062L27.5938 12.8906C27.0312 12.3281 26.2812 12 25.4844 12H18.5C16.8125 12 15.5 13.3594 15.5 15V33C15.5 34.6875 16.8125 36 18.5 36H30.5C32.1406 36 33.5 34.6875 33.5 33V20.0156C33.5 19.2188 33.1719 18.4688 32.6094 17.9062ZM26 13.6406C26.1875 13.6875 26.375 13.7812 26.5625 13.9688L31.5312 18.9375C31.7188 19.125 31.8125 19.3125 31.8594 19.5H26.75C26.3281 19.5 26 19.1719 26 18.75V13.6406ZM32 33C32 33.8438 31.2969 34.5 30.5 34.5H18.5C17.6562 34.5 17 33.8438 17 33V15C17 14.2031 17.6562 13.5 18.5 13.5H24.5V18.75C24.5 20.0156 25.4844 21 26.75 21H32V33ZM24.9688 25.5938C25.4375 24.0938 25.4844 22.9219 25.4844 22.6875C25.4844 21.75 24.7344 21 23.7969 21C22.9062 21 22.1562 21.75 22.1562 22.6875C22.1562 22.6875 22.1562 24.0469 22.8125 25.6875C22.4844 26.5781 22.0625 27.5156 21.5938 28.4062C20.5156 28.9219 19.625 29.4844 18.9688 30.1406C18.6406 30.4688 18.5 30.8906 18.5 31.3594C18.5 32.2969 19.2031 33 20.1406 33C20.6562 33 21.1719 32.7656 21.5 32.3438C21.7812 31.9688 22.3438 31.125 23 30C23.7969 29.6719 24.6875 29.4375 25.7188 29.2031C26.2812 29.5781 27.6875 30.4219 28.6719 30.4219C29.7031 30.4219 30.5 29.625 30.5 28.6406C30.5 27.6562 29.6562 26.8125 28.625 26.8125C27.875 26.8125 26.75 27 26.1875 27.0938C25.7188 26.6719 25.2969 26.1562 24.9688 25.5938ZM20.4219 31.5469C20.2344 31.7812 19.8125 31.6875 19.8125 31.3125C19.8125 31.2188 19.8594 31.1719 19.9062 31.125C20.3281 30.6562 20.8906 30.2812 21.4531 29.9531C20.9844 30.75 20.6094 31.2656 20.4219 31.5469ZM23.7969 22.3594C23.9844 22.3594 24.125 22.5 24.125 22.6875C24.125 23.3906 23.9375 24.3281 23.8438 24.7031C23.4688 23.625 23.4688 22.7344 23.4688 22.6875C23.4688 22.5 23.6094 22.3594 23.7969 22.3594ZM23 28.5469C23.3281 27.9375 23.6562 27.1875 23.9844 26.4375C24.2656 26.9531 24.6875 27.4688 25.2031 27.9375C24.5 28.125 23.75 28.3125 23 28.5469ZM28.625 28.1719C28.9062 28.1719 29.1406 28.3594 29.1406 28.6875C29.1406 28.9219 28.9531 29.1094 28.6719 29.1094C28.25 29.1094 27.2656 28.6406 26.7969 28.3594C26.8438 28.3594 28.0625 28.1719 28.625 28.1719Z" fill="#F56565"/>
</svg>
