<svg width="49" height="48" viewBox="0 0 49 48" fill="none" xmlns="http://www.w3.org/2000/svg">
<rect x="0.5" width="48" height="48" rx="12" fill="#F0FFF4"/>
<path d="M24.4062 25.4062L23.1406 27.3281C22.5781 26.625 21.4062 26.6719 20.8906 27.4219L18.6875 30.7969C18.4062 31.2656 18.4062 31.8281 18.6406 32.25C18.875 32.7188 19.3438 33 19.8594 33H29.0469C29.5625 33 30.0312 32.7188 30.2656 32.25C30.5 31.7812 30.5 31.2656 30.2188 30.7969L26.7031 25.4062C26.2344 24.6094 24.9219 24.6094 24.4062 25.4062ZM28.9062 31.5H19.9531L22.0625 28.4062L22.5312 29.1094C22.8125 29.5312 23.5156 29.5312 23.7969 29.1094L25.5781 26.3438L28.9062 31.5ZM20 25.125C20.6094 25.125 21.125 24.6562 21.125 24C21.125 23.3906 20.6094 22.875 20 22.875C19.3438 22.875 18.875 23.3906 18.875 24C18.875 24.6562 19.3438 25.125 20 25.125ZM32.6094 17.9062L27.5938 12.8906C27.0312 12.3281 26.2812 12 25.4844 12H18.5C16.8125 12 15.5 13.3594 15.5 15V33C15.5 34.6875 16.8125 36 18.5 36H30.5C32.1406 36 33.5 34.6875 33.5 33V20.0156C33.5 19.2188 33.1719 18.4688 32.6094 17.9062ZM26 13.6406C26.1875 13.6875 26.375 13.7812 26.5625 13.9688L31.5312 18.9375C31.7188 19.125 31.8125 19.3125 31.8594 19.5H26.75C26.3281 19.5 26 19.1719 26 18.75V13.6406ZM32 33C32 33.8438 31.2969 34.5 30.5 34.5H18.5C17.6562 34.5 17 33.8438 17 33V15C17 14.2031 17.6562 13.5 18.5 13.5H24.5V18.75C24.5 20.0156 25.4844 21 26.75 21H32V33Z" fill="#48BB78"/>
</svg>
