<svg width="15" height="15" viewBox="0 0 15 15" fill="none" xmlns="http://www.w3.org/2000/svg">
<path opacity="0.4" d="M14.2812 13.6289L10.6172 9.96484C11.4102 9.00781 11.8477 7.77734 11.8477 6.4375C11.8477 3.32031 9.27734 0.75 6.16016 0.75C3.01562 0.75 0.5 3.32031 0.5 6.4375C0.5 9.58203 3.04297 12.125 6.16016 12.125C7.47266 12.125 8.70312 11.6875 9.6875 10.8945L13.3516 14.5586C13.4883 14.6953 13.6523 14.75 13.8438 14.75C14.0078 14.75 14.1719 14.6953 14.2812 14.5586C14.5547 14.3125 14.5547 13.9023 14.2812 13.6289ZM1.8125 6.4375C1.8125 4.03125 3.75391 2.0625 6.1875 2.0625C8.59375 2.0625 10.5625 4.03125 10.5625 6.4375C10.5625 8.87109 8.59375 10.8125 6.1875 10.8125C3.75391 10.8125 1.8125 8.87109 1.8125 6.4375Z" fill="black"/>
</svg>
