<svg width="49" height="48" viewBox="0 0 49 48" fill="none" xmlns="http://www.w3.org/2000/svg">
<rect x="0.5" width="48" height="48" rx="12" fill="#EBF8FF"/>
<path d="M23.7969 23.7656L21.7344 28.9219L20.7031 23.8594C20.6094 23.4844 20.2344 23.2031 19.8125 23.2969C19.4375 23.3438 19.1562 23.7656 19.25 24.1875L20.75 31.6875C20.7969 32.0156 21.0781 32.25 21.4062 32.25C21.7344 32.2969 22.0625 32.1094 22.1562 31.7812L24.5 26.0625L26.7969 31.7812C26.8906 32.1094 27.1719 32.25 27.5 32.25C27.5 32.25 27.5 32.25 27.5469 32.25C27.875 32.25 28.1562 32.0156 28.2031 31.6875L29.7031 24.1875C29.7969 23.7656 29.5156 23.3906 29.1406 23.2969C28.7188 23.2031 28.3438 23.4844 28.25 23.8594L27.2188 28.9219L25.1562 23.7656C24.9219 23.1562 24.0312 23.1562 23.7969 23.7656ZM32.6094 17.9062L27.5938 12.8906C27.0312 12.3281 26.2812 12 25.4844 12H18.5C16.8125 12 15.5 13.3594 15.5 15V33C15.5 34.6875 16.8125 36 18.5 36H30.5C32.1406 36 33.5 34.6875 33.5 33V20.0156C33.5 19.2188 33.1719 18.4688 32.6094 17.9062ZM26 13.6406C26.1875 13.6875 26.375 13.7812 26.5625 13.9688L31.5312 18.9375C31.7188 19.125 31.8125 19.3125 31.8594 19.5H26.75C26.3281 19.5 26 19.1719 26 18.75V13.6406ZM32 33C32 33.8438 31.2969 34.5 30.5 34.5H18.5C17.6562 34.5 17 33.8438 17 33V15C17 14.2031 17.6562 13.5 18.5 13.5H24.5V18.75C24.5 20.0156 25.4844 21 26.75 21H32V33Z" fill="#4299E1"/>
</svg>
