<?xml version="1.0" standalone="no"?>
<!DOCTYPE svg PUBLIC "-//W3C//DTD SVG 1.1//EN" "http://www.w3.org/Graphics/SVG/1.1/DTD/svg11.dtd" >
<svg xmlns="http://www.w3.org/2000/svg" xmlns:xlink="http://www.w3.org/1999/xlink" version="1.1">
<metadata>
Created by FontForge 20201107 at Wed Sep 18 14:19:01 2024
 By 
Copyright 2022 The Be Vietnam Pro Project Authors (https://github.com/bettergui/BeVietnamPro)
</metadata>
<defs>
<font id="BeVietnamPro2022-Bold" horiz-adv-x="0" >
  <font-face 
    font-family="Be Vietnam Pro 2022"
    font-weight="700"
    font-stretch="normal"
    units-per-em="2048"
    panose-1="0 0 0 0 0 0 0 0 0 0"
    ascent="1638"
    descent="-410"
    x-height="1085"
    cap-height="1516"
    bbox="-303 -590 2572 2423"
    underline-thickness="102"
    underline-position="-255"
    unicode-range="U+000D-2265"
  />
<missing-glyph horiz-adv-x="1310" 
d="M1075 2048v-2621h-831v2621h831zM438 -393h434v88h-266l182 123h84v86h-434v-86h183l-183 -123v-88zM438 -37h434v297h-434v-297zM438 418h434v295h-262v-146h90v60h86v-123h-262v209h-86v-295zM438 772h434v262h-86v-174h-348v-88zM438 922h262v182h172v86h-434v-86h172
v-96h-172v-86zM438 1262h434v90h-172v182h-262v-272zM438 1602h434v88h-172v96h172v86h-432v-86h170v-96h-172v-88zM524 51v123h262v-123h-262zM524 1352v94h86v-94h-86z" />
    <glyph glyph-name="f_f.liga" unicode="ff" horiz-adv-x="1490" 
d="M229 1176q0 84 22 154.5t67.5 127t121.5 88t176 31.5q52 0 95 -7.5t60 -14.5l17 -7v-225q-39 14 -98 14q-155 0 -155 -176v-76h389v91q0 84 22 154.5t67.5 127t121.5 88t176 31.5q52 0 95 -7.5t60 -14.5l17 -7v-225q-40 14 -99 14q-155 0 -155 -176v-76h264v-256h-264
v-829h-305v829h-389v-829h-306v829h-188v256h188v91z" />
    <glyph glyph-name="f_f_i.liga" unicode="ffi" horiz-adv-x="2021" 
d="M229 1176q0 84 22 154.5t67.5 127t121.5 88t176 31.5q52 0 95 -7.5t60 -14.5l17 -7v-225q-39 14 -98 14q-155 0 -155 -176v-76h389v91q0 84 22 154.5t67.5 127t121.5 88t176 31.5q52 0 95 -7.5t60 -14.5l17 -7v-225q-40 14 -99 14q-155 0 -155 -176v-76h704v-1085h-311
v829h-393v-829h-305v829h-389v-829h-306v829h-188v256h188v91zM1587 1391q0 78 53.5 130t137.5 52q81 0 134.5 -52.5t53.5 -129.5q0 -75 -53.5 -128t-134.5 -53q-83 0 -137 53.5t-54 127.5z" />
    <glyph glyph-name="f_i.liga" unicode="fi" horiz-adv-x="1329" 
d="M41 829v256h188v91q0 84 22 154.5t67.5 127t121.5 88t176 31.5q52 0 95 -7.5t60 -14.5l17 -7v-225q-39 14 -98 14q-155 0 -155 -176v-76h704v-1085h-311v829h-393v-829h-306v829h-188zM893 1391q0 78 53 130t137 52q81 0 135 -52.5t54 -129.5q0 -75 -54 -128t-135 -53
q-83 0 -136.5 53.5t-53.5 127.5z" />
    <glyph glyph-name="colon_b_e_colon.liga" unicode="&#x3a;be&#x3a;" horiz-adv-x="1798" 
d="M131 -20l74 546h469q68 0 123.5 14t93.5 38.5t63.5 58t36.5 73.5t10.5 83t-12.5 88q155 -32 257 -158t102 -289q0 -94 -35 -176.5t-100.5 -144.5t-165 -97.5t-220.5 -35.5h-696zM252 918l47 362h328q63 0 108 20t67.5 54t30 74.5t1.5 87.5q105 -29 165 -112t60 -198
q0 -129 -86 -208.5t-277 -79.5h-444z" />
    <glyph glyph-name="colon_d_d_colon.liga" unicode="&#x3a;dd&#x3a;" horiz-adv-x="1304" 
d="M522 283q-91 0 -165 35.5t-119.5 95t-70 133t-24.5 153.5t24.5 154t70 133.5t119.5 95t165 35.5q58 0 107.5 -15.5t79 -38t44.5 -39.5t21 -28h14v183h-208v159h208v95h267v-95h133v-159h-133v-885h-267v106h-14q-6 -11 -21 -26.5t-44.5 -38.5t-79 -38t-107.5 -15zM123 0
v145h1053v-145h-1053zM412 700q0 -82 50 -143t140 -61q91 0 142 61t51 143t-51 143.5t-142 61.5q-90 0 -140 -61t-50 -144z" />
    <glyph glyph-name="colon_s_t_a_r_colon.liga" unicode="&#x3a;star&#x3a;" horiz-adv-x="1701" 
d="M440 104l97 474l-353 311l463 57l201 430l201 -426l467 -59l-351 -309l99 -476l-410 242z" />
    <glyph glyph-name=".notdef" horiz-adv-x="1310" 
d="M1075 2048v-2621h-831v2621h831zM438 -393h434v88h-266l182 123h84v86h-434v-86h183l-183 -123v-88zM438 -37h434v297h-434v-297zM438 418h434v295h-262v-146h90v60h86v-123h-262v209h-86v-295zM438 772h434v262h-86v-174h-348v-88zM438 922h262v182h172v86h-434v-86h172
v-96h-172v-86zM438 1262h434v90h-172v182h-262v-272zM438 1602h434v88h-172v96h172v86h-432v-86h170v-96h-172v-88zM524 51v123h262v-123h-262zM524 1352v94h86v-94h-86z" />
    <glyph glyph-name=".null" 
 />
    <glyph glyph-name="nonmarkingreturn" horiz-adv-x="682" 
 />
    <glyph glyph-name="CR" unicode="&#xd;" horiz-adv-x="1228" 
 />
    <glyph glyph-name="space" unicode=" " horiz-adv-x="458" 
 />
    <glyph glyph-name="exclam" unicode="!" horiz-adv-x="604" 
d="M172 467l-53 1049h366l-59 -1049h-254zM106 164q0 79 55 131.5t142 52.5q84 0 140.5 -53t56.5 -131q0 -76 -56.5 -130t-140.5 -54q-86 0 -141.5 53.5t-55.5 130.5z" />
    <glyph glyph-name="quotedbl" unicode="&#x22;" horiz-adv-x="858" 
d="M49 987l21 529h305l-105 -529h-221zM465 987l20 529h306l-105 -529h-221z" />
    <glyph glyph-name="numbersign" unicode="#" horiz-adv-x="1691" 
d="M283 0l77 362h-251l51 242h252l65 309h-252l51 242h252l76 361h258l-76 -361h289l76 361h258l-76 -361h250l-51 -242h-250l-65 -309h249l-51 -242h-250l-78 -362h-258l78 362h-289l-77 -362h-258zM670 604h288l66 309h-289z" />
    <glyph glyph-name="dollar" unicode="$" horiz-adv-x="1333" 
d="M598 -197v181q-86 7 -159 27.5t-124.5 49.5t-93 65t-67 74t-44.5 75t-27.5 70.5t-13.5 58.5t-5 40l-1 15h314q0 -4 1 -11t6 -27t13.5 -39.5t25.5 -44.5t39 -45t57.5 -38t78.5 -27v422l-33 6q-225 40 -339.5 145.5t-114.5 272.5q0 188 132.5 314t354.5 145v176h186v-178
q90 -11 163.5 -41t119.5 -69t81 -83.5t52 -87t27 -77t12 -55.5l2 -21h-291q0 6 -2 15.5t-12.5 36.5t-26.5 50t-49 48t-76 38v-391l33 -6q221 -38 336 -148t115 -280q0 -185 -131 -316t-353 -157v-183h-186zM416 1100q0 -67 42.5 -109t139.5 -65v368q-86 -18 -134 -71.5
t-48 -122.5zM784 229q82 21 128 75t46 124q0 141 -174 188v-387z" />
    <glyph glyph-name="percent" unicode="%" horiz-adv-x="1796" 
d="M293 0l977 1516h233l-975 -1516h-235zM72 1157q0 74 23.5 141t68 120.5t117.5 85.5t165 32t165 -32t117.5 -85.5t67.5 -120.5t23 -141q0 -75 -23 -142.5t-67.5 -122t-117.5 -86.5t-165 -32t-165 32.5t-117.5 87t-68 122t-23.5 141.5zM299 1155q0 -90 37 -145.5t108 -55.5
q72 0 112 56.5t40 144.5q0 89 -39.5 145t-112.5 56q-71 0 -108 -55.5t-37 -145.5zM977 360q0 74 23 141t68 121.5t118 86.5t166 32q92 0 165 -32t117 -86.5t67 -121.5t23 -141q0 -59 -14 -114t-44.5 -103.5t-73.5 -84.5t-105 -57t-135 -21q-93 0 -166 32t-118 86t-68 121
t-23 141zM1202 360q0 -90 38.5 -145t109.5 -55q72 0 111.5 55.5t39.5 144.5q0 90 -39 145.5t-112 55.5q-71 0 -109.5 -55.5t-38.5 -145.5z" />
    <glyph glyph-name="ampersand" unicode="&#x26;" horiz-adv-x="1581" 
d="M631 -16q-158 0 -287.5 53t-206 153t-76.5 228q0 73 22.5 133.5t67.5 110.5t100 89.5t134 82.5q-3 3 -22 23.5t-26 29t-25 30t-27 35.5t-23.5 36.5t-22 41.5t-16.5 42t-12.5 47t-3.5 48q0 117 62 203t163 128t225 42q117 0 213 -39t156.5 -119.5t60.5 -189.5
q0 -69 -26 -130.5t-74 -111t-98 -86.5t-115 -73l277 -291q57 113 65 284h297q-19 -298 -164 -495l277 -289h-391l-97 106q-170 -122 -407 -122zM395 438q0 -81 72 -143t195 -62q121 0 210 58l-331 368q-74 -47 -110 -98.5t-36 -122.5zM502 1167q0 -39 19 -81t37 -64.5
t50 -58.5q5 -6 8 -9l2 -2q88 52 136.5 105.5t48.5 118.5q0 63 -43 101t-109 38q-65 0 -107 -41t-42 -107z" />
    <glyph glyph-name="quotesingle" unicode="'" horiz-adv-x="417" 
d="M49 987l21 529h305l-105 -529h-221z" />
    <glyph glyph-name="parenleft" unicode="(" horiz-adv-x="851" 
d="M500 -481q-81 87 -154.5 200.5t-137 256t-101 316.5t-37.5 351q0 179 37.5 353t101.5 315.5t136.5 254t154.5 199.5h282q-52 -66 -100.5 -141.5t-102.5 -186t-93 -227.5t-65 -266t-26 -301q0 -153 26 -302.5t65 -266.5t93 -227.5t102.5 -186t100.5 -141.5h-282z" />
    <glyph glyph-name="parenright" unicode=")" horiz-adv-x="851" 
d="M70 -481q52 66 100.5 141.5t102.5 186t93 227.5t65 266.5t26 302.5q0 152 -26 301t-65 266t-93 227.5t-102.5 186t-100.5 141.5h282q82 -87 154.5 -199.5t136.5 -254t101.5 -315.5t37.5 -353q0 -177 -37.5 -351t-101 -316.5t-137 -256t-154.5 -200.5h-282z" />
    <glyph glyph-name="asterisk" unicode="*" horiz-adv-x="1050" 
d="M362 672l-180 129l174 229l-274 84l68 211l270 -96l-6 287h221l-6 -287l272 96l68 -211l-275 -84l174 -229l-180 -129l-164 233z" />
    <glyph glyph-name="plus" unicode="+" horiz-adv-x="1091" 
d="M424 225v316h-315v245h315v316h246v-316h313v-245h-313v-316h-246z" />
    <glyph glyph-name="comma" unicode="," horiz-adv-x="614" 
d="M104 -285l150 277q-67 15 -108.5 68t-41.5 124q0 85 57 142t144 57q88 0 146.5 -53.5t58.5 -136.5q0 -23 -5.5 -47.5t-11 -43.5t-23.5 -55.5t-29 -57.5t-41.5 -77t-47.5 -88l-61 -109h-187z" />
    <glyph glyph-name="hyphen" unicode="-" horiz-adv-x="983" 
d="M109 541v245h765v-245h-765z" />
    <glyph glyph-name="period" unicode="." horiz-adv-x="610" 
d="M305 -20q-88 0 -144.5 58.5t-56.5 141.5q0 86 56.5 143.5t144.5 57.5q86 0 143.5 -58t57.5 -143q0 -83 -58 -141.5t-143 -58.5z" />
    <glyph glyph-name="slash" unicode="/" horiz-adv-x="1122" 
d="M31 -395l835 2218h226l-836 -2218h-225z" />
    <glyph glyph-name="zero" unicode="0" horiz-adv-x="1445" 
d="M723 -20q-205 0 -352.5 100t-221 274.5t-73.5 403.5q0 172 43 314.5t123.5 246t203.5 160.5t277 57t277 -57t203.5 -160.5t123.5 -246t43 -314.5q0 -229 -73.5 -403.5t-221 -274.5t-352.5 -100zM414 758q0 -247 84.5 -375.5t224.5 -128.5t224.5 128.5t84.5 375.5
q0 248 -84 376t-225 128t-225 -128t-84 -376z" />
    <glyph glyph-name="one" unicode="1" horiz-adv-x="862" 
d="M432 0v1139l-358 -267v336l430 308h241v-1516h-313z" />
    <glyph glyph-name="two" unicode="2" horiz-adv-x="1288" 
d="M84 80q0 70 14 131t45.5 114t65 95t88.5 87.5t99 77t114 77.5q23 15 64 42t61 40.5t54 36.5t50.5 37t42 35.5t38 37.5t28.5 38t23.5 41.5t12.5 43.5t5 49q0 98 -73 156.5t-175 58.5q-51 0 -96.5 -16t-82.5 -48t-58.5 -85t-22.5 -121h-297q-1 105 30 193.5t85 150
t126.5 104t154 62.5t167.5 20q107 0 206.5 -31t179 -88.5t127.5 -147.5t48 -198q0 -47 -9 -91t-21.5 -80t-38 -74t-45.5 -64t-59 -60t-62 -53t-71.5 -51.5t-71.5 -46.5t-76.5 -47t-73.5 -45q-97 -62 -148.5 -104.5t-74.5 -88.5h764v-268h-1137v80z" />
    <glyph glyph-name="three" unicode="3" horiz-adv-x="1310" 
d="M659 -20q-142 0 -254 38t-175.5 93t-105 124t-55.5 123t-14 99h316q0 -33 16 -70t48 -72.5t89 -58.5t129 -23q117 0 191 63t74 159q0 89 -69 148t-192 59h-141v219h146q106 0 169.5 56t63.5 140q0 89 -68.5 150t-173.5 61q-56 0 -101.5 -16t-74 -41t-47.5 -56.5
t-27 -60.5t-8 -55h-301q0 30 6 66t23 83t43.5 91.5t71 88t101 76t139 52.5t179.5 20q152 0 280.5 -49.5t210 -148.5t81.5 -228q0 -127 -75.5 -211t-192.5 -121q138 -39 219.5 -126.5t81.5 -219.5q0 -139 -82.5 -243.5t-218 -156.5t-302.5 -52z" />
    <glyph glyph-name="four" unicode="4" horiz-adv-x="1425" 
d="M793 0v342l-725 2v244l567 928h475v-920h246v-254h-246v-342h-317zM377 596h416v678z" />
    <glyph glyph-name="five" unicode="5" horiz-adv-x="1320" 
d="M653 -20q-109 0 -200.5 22.5t-153 61t-107.5 84.5t-73 100t-41.5 100.5t-18.5 91.5h320q0 -4 1 -12t7.5 -30t17 -42t31.5 -44.5t48 -42.5t70.5 -30t96.5 -12q89 0 154 42t95 104.5t30 134.5q0 115 -74.5 200t-204.5 85q-57 0 -104 -16.5t-73 -40t-44 -47t-24 -39.5
l-7 -17h-303l97 883h952v-275h-709l-41 -342q103 123 324 123q130 0 234 -42.5t169 -114.5t99 -161.5t34 -187.5q0 -81 -23 -158t-71.5 -145.5t-118 -120t-170 -82t-219.5 -30.5z" />
    <glyph glyph-name="six" unicode="6" horiz-adv-x="1261" 
d="M633 -20q-262 0 -426 148t-164 374q0 143 61.5 267.5t217.5 320.5l337 426h367l-453 -543q53 16 111 16q128 0 232 -41.5t168 -111t98.5 -156t34.5 -180.5q0 -99 -37.5 -190.5t-108 -166t-184 -119t-254.5 -44.5zM362 496q0 -108 71 -187.5t196 -79.5q85 0 146.5 39.5
t89.5 99t28 128.5q0 108 -69.5 187t-194.5 79t-196 -79t-71 -187z" />
    <glyph glyph-name="seven" unicode="7" horiz-adv-x="1175" 
d="M135 0l653 1241h-741v275h1086v-246l-648 -1270h-350z" />
    <glyph glyph-name="eight" unicode="8" horiz-adv-x="1316" 
d="M659 -20q-138 0 -250.5 34.5t-186 95t-113 141t-39.5 173.5q0 136 84 235.5t204 143.5q-42 14 -84 41.5t-80 67.5t-61.5 95.5t-23.5 116.5q0 64 21 123.5t65.5 112t108.5 91.5t155 62t200 23q134 0 241.5 -35t173 -93.5t100 -131.5t34.5 -152q0 -115 -77.5 -202
t-172.5 -119q118 -43 203.5 -142t85.5 -237q0 -191 -157.5 -317.5t-430.5 -126.5zM395 449q0 -89 70.5 -156.5t193.5 -67.5q122 0 193.5 68t71.5 156q0 89 -71 154t-194 65q-124 0 -194 -65t-70 -154zM422 1098q0 -79 63.5 -139t173.5 -60q109 0 172.5 60.5t63.5 138.5
q0 80 -63 139t-173 59q-111 0 -174 -58.5t-63 -139.5z" />
    <glyph glyph-name="nine" unicode="9" horiz-adv-x="1261" 
d="M629 1536q262 0 426 -148t164 -374q0 -143 -61.5 -267.5t-217.5 -320.5l-338 -426h-366l452 543q-56 -17 -110 -17q-103 0 -191 27.5t-150 74.5t-106 109.5t-65 133t-21 145.5q0 99 37.5 190.5t108 166t184 119t254.5 44.5zM369 1020q0 -108 69.5 -187t194.5 -79
t195.5 79t70.5 187t-70.5 187t-195.5 79q-126 0 -195 -79t-69 -187z" />
    <glyph glyph-name="colon" unicode=":" horiz-adv-x="612" 
d="M305 705q-88 0 -144.5 58.5t-56.5 141.5q0 86 56.5 143.5t144.5 57.5q86 0 143.5 -58t57.5 -143q0 -83 -58 -141.5t-143 -58.5zM104 180q0 86 56.5 143.5t144.5 57.5q86 0 143.5 -58t57.5 -143q0 -83 -58 -141.5t-143 -58.5q-88 0 -144.5 58.5t-56.5 141.5z" />
    <glyph glyph-name="semicolon" unicode=";" horiz-adv-x="618" 
d="M311 705q-88 0 -144 58t-56 142q0 86 56 143.5t144 57.5q86 0 143.5 -58t57.5 -143q0 -83 -58 -141.5t-143 -58.5zM104 -285l150 277q-67 15 -108.5 68t-41.5 124q0 85 57 142t144 57q88 0 146.5 -53.5t58.5 -136.5q0 -23 -5.5 -47.5t-11 -43.5t-23.5 -55.5t-29 -57.5
t-41.5 -77t-47.5 -88l-61 -109h-187z" />
    <glyph glyph-name="less" unicode="&#x3c;" horiz-adv-x="1136" 
d="M985 217l-833 387v180l833 387v-258l-487 -217l487 -221v-258z" />
    <glyph glyph-name="equal" unicode="=" horiz-adv-x="1282" 
d="M109 754v254h1065v-254h-1065zM109 289v254h1065v-254h-1065z" />
    <glyph glyph-name="greater" unicode="&#x3e;" horiz-adv-x="1136" 
d="M152 217v258l487 221l-487 217v258l833 -387v-180z" />
    <glyph glyph-name="question" unicode="?" horiz-adv-x="1239" 
d="M475 492q0 42 4 74.5t17 62.5t24.5 50.5t38.5 49.5t46.5 47t60.5 55q34 30 44.5 39t38.5 35.5t38 42t26 40.5t21.5 50t5.5 52q0 88 -58.5 139t-148.5 51q-97 0 -166 -70.5t-72 -208.5h-295q2 108 33.5 197t83 150t120.5 102.5t145.5 60.5t158.5 19q100 0 192 -29.5
t164 -83.5t115 -137.5t43 -183.5q0 -39 -6 -74t-20.5 -67t-27.5 -57t-38.5 -53t-40.5 -44.5t-47 -42t-45 -35.5t-47 -35q-92 -65 -120 -103.5t-28 -111.5v-20h-260v39zM414 164q0 79 54.5 131.5t141.5 52.5q84 0 140.5 -53t56.5 -131q0 -76 -56.5 -130t-140.5 -54
q-86 0 -141 53.5t-55 130.5z" />
    <glyph glyph-name="at" unicode="@" horiz-adv-x="1964" 
d="M997 -336q-182 0 -335.5 51t-261.5 138.5t-183.5 205t-111 250t-35.5 273.5q0 144 37.5 282t116 260.5t188 215t264.5 146.5t336 54q182 0 332 -47t250 -125.5t169 -183.5t100 -217t31 -230q0 -160 -55 -298t-162.5 -225t-246.5 -87q-68 0 -123.5 16t-86 39t-52 46
t-28.5 39l-7 16q-3 -6 -9 -16.5t-29.5 -37.5t-52 -47.5t-77.5 -37.5t-105 -17q-88 0 -157.5 33.5t-112 91t-64.5 130.5t-22 157q0 136 49 252.5t150 192t235 75.5q60 0 109 -15t76 -37t45 -44t24 -37l6 -15l29 131h270l-113 -530q-18 -83 -18 -125q0 -115 98 -115
q73 0 135.5 65.5t98 173t35.5 230.5q0 97 -23.5 187.5t-78 177t-135 151t-205 103.5t-277.5 39q-151 0 -280.5 -46t-221 -124.5t-156.5 -182.5t-96 -221t-31 -239q0 -120 29.5 -232.5t92.5 -213t151.5 -175.5t215 -118.5t275.5 -43.5q87 0 170.5 16.5t141.5 39.5t104 46
t68 39l22 17l55 -129q-8 -7 -23 -18t-68 -40t-112.5 -51.5t-155.5 -40.5t-198 -18zM766 547q0 -104 42.5 -170t125.5 -66q66 0 117.5 49.5t76.5 123.5t25 155q0 103 -42 169t-124 66q-100 0 -160.5 -99t-60.5 -228z" />
    <glyph glyph-name="A" unicode="A" horiz-adv-x="1560" 
d="M55 0l498 1516h455l497 -1516h-360l-107 348h-546l-107 -348h-330zM573 612h383l-190 625z" />
    <glyph glyph-name="B" unicode="B" horiz-adv-x="1372" 
d="M100 0v1516h656q229 0 359 -114.5t130 -281.5q0 -127 -70 -214t-169 -120q129 -35 210.5 -130.5t81.5 -231.5q0 -81 -31 -155.5t-91 -135.5t-159 -97t-224 -36h-693zM438 260h281q61 0 107.5 16.5t73 45.5t39.5 63t13 72q0 80 -57.5 136t-175.5 56h-281v-389zM438 897
h269q100 0 151 52.5t51 127.5q0 74 -51 126t-151 52h-269v-358z" />
    <glyph glyph-name="C" unicode="C" horiz-adv-x="1611" 
d="M844 -20q-156 0 -286 44t-219.5 118.5t-152 175t-91.5 212t-29 230.5q0 118 29 228.5t91.5 210.5t152 174.5t219.5 118.5t286 44q134 0 245 -31.5t182 -81.5t125 -110t81 -120.5t44 -110.5t21 -82l4 -31h-329q-1 6 -3 16.5t-13 41.5t-26 58.5t-44.5 61.5t-66.5 58.5
t-94 41.5t-124 17q-137 0 -236.5 -70.5t-146.5 -183t-47 -250.5q0 -139 47 -251.5t146.5 -183.5t236.5 -71q67 0 124 16t94 42t66 57t45 62.5t26 57.5t13 42l3 16h329q-1 -7 -2.5 -19.5t-10.5 -51.5t-22.5 -76.5t-41 -88.5t-62 -95t-89.5 -88.5t-120.5 -76t-157 -51.5
t-196.5 -20z" />
    <glyph glyph-name="D" unicode="D" horiz-adv-x="1531" 
d="M100 0v1516h555q167 0 304 -42.5t229.5 -115t156.5 -170.5t92.5 -205.5t28.5 -224.5t-28.5 -224.5t-92.5 -205.5t-156.5 -170.5t-229.5 -115t-304 -42.5h-555zM438 270h197q129 0 226 41t152.5 111.5t82 154.5t26.5 181t-26.5 181t-82 154t-152.5 111t-226 41h-197v-975z
" />
    <glyph glyph-name="E" unicode="E" horiz-adv-x="1234" 
d="M100 0v1516h1055v-279h-717v-334h613v-274h-613v-350h721v-279h-1059z" />
    <glyph glyph-name="F" unicode="F" horiz-adv-x="1222" 
d="M100 0v1516h1047v-279h-709v-367h596v-274h-596v-596h-338z" />
    <glyph glyph-name="G" unicode="G" horiz-adv-x="1632" 
d="M856 -20q-159 0 -291.5 44t-223.5 118.5t-154 174.5t-92 211t-29 230q0 118 29 229.5t91.5 211.5t152.5 174.5t221 118.5t288 44q103 0 192 -17t152.5 -46t117 -66.5t88 -79t61 -83t40 -79t22 -66.5t11.5 -46l2 -17h-334q-2 10 -6 26t-27.5 57.5t-57.5 73t-102 57.5
t-155 26q-106 0 -190.5 -41.5t-138 -112.5t-81.5 -163t-28 -197q0 -106 28 -198t82.5 -163t141 -112t196.5 -41q157 0 261 87t130 243h-411v243h725v-88q0 -185 -55.5 -331t-153 -237t-225 -138t-277.5 -47z" />
    <glyph glyph-name="H" unicode="H" horiz-adv-x="1484" 
d="M100 0v1516h338v-603h609v603h337v-1516h-337v627h-609v-627h-338z" />
    <glyph glyph-name="I" unicode="I" horiz-adv-x="538" 
d="M100 0v1516h338v-1516h-338z" />
    <glyph glyph-name="J" unicode="J" horiz-adv-x="1259" 
d="M604 -20q-91 0 -168 16.5t-130 45t-95 65t-67 77.5t-42.5 81.5t-24.5 77t-11 65t-4 44.5l1 17h322q2 -1 0 -13t2.5 -32.5t10 -44.5t22 -49t38.5 -45t59.5 -32.5t84.5 -12.5q221 0 221 301v975h336v-975q0 -115 -30 -209.5t-82 -159t-123 -108.5t-151 -64t-169 -20z" />
    <glyph glyph-name="K" unicode="K" horiz-adv-x="1458" 
d="M991 0l-553 705v-705h-338v1516h338v-674l543 674h395l-618 -728l641 -788h-408z" />
    <glyph glyph-name="L" unicode="L" horiz-adv-x="1222" 
d="M100 0v1516h338v-1237h709v-279h-1047z" />
    <glyph glyph-name="M" unicode="M" horiz-adv-x="1806" 
d="M100 0v1516h492l319 -803l332 803h463v-1516h-320v1133l-370 -879h-225l-371 885v-1139h-320z" />
    <glyph glyph-name="N" unicode="N" horiz-adv-x="1505" 
d="M100 0v1516h369l608 -1014v1014h328v-1516h-371l-606 1016v-1016h-328z" />
    <glyph glyph-name="O" unicode="O" horiz-adv-x="1691" 
d="M846 -20q-151 0 -279 42t-219 115.5t-155.5 172.5t-95.5 213t-31 237q0 122 31 235t95.5 211.5t155.5 172t219 115.5t279 42t279.5 -42t219.5 -115.5t155 -172t95 -211.5t31 -235q0 -123 -31 -237t-95 -213t-155 -172.5t-219.5 -115.5t-279.5 -42zM418 760
q0 -138 48.5 -250t147 -181t232.5 -69t233.5 69t149 181t49.5 250q0 136 -49.5 247t-149 179.5t-233.5 68.5t-232.5 -68.5t-147 -179.5t-48.5 -247z" />
    <glyph glyph-name="P" unicode="P" horiz-adv-x="1323" 
d="M106 0v1516h594q115 0 209 -27.5t158 -74.5t107.5 -111t63 -134.5t19.5 -148.5t-19.5 -148.5t-63 -134t-107.5 -110t-158 -74t-209 -27.5h-256v-526h-338zM444 774h226q131 0 196.5 68.5t65.5 171.5q0 101 -65.5 169t-196.5 68h-226v-477z" />
    <glyph glyph-name="Q" unicode="Q" horiz-adv-x="1734" 
d="M1366 -78l-131 146q-170 -88 -389 -88q-151 0 -279 42t-219 115.5t-155.5 172.5t-95.5 213t-31 237q0 122 31 235t95.5 211.5t155.5 172t219 115.5t279 42t279.5 -42t219.5 -115.5t155 -172t95 -211.5t31 -235q0 -151 -46.5 -288t-137.5 -241l272 -309h-348zM418 760
q0 -138 48.5 -250t147 -181t232.5 -69q87 0 168 33l-215 237l205 170l204 -229q70 128 70 289q0 136 -49.5 247t-149 179.5t-233.5 68.5t-232.5 -68.5t-147 -179.5t-48.5 -247z" />
    <glyph glyph-name="R" unicode="R" horiz-adv-x="1419" 
d="M100 0v1516h598q117 0 211.5 -26.5t157 -70.5t104.5 -105t60 -127t18 -138q0 -68 -16 -130t-50 -118.5t-91 -102t-134 -73.5l398 -625h-385l-334 582h-199v-582h-338zM438 823h234q65 0 112.5 19t73 51t37.5 68t12 77q0 42 -12 78.5t-37.5 68.5t-73 51t-112.5 19h-234
v-432z" />
    <glyph glyph-name="S" unicode="S" horiz-adv-x="1382" 
d="M719 -20q-136 0 -246 29t-176.5 75.5t-115.5 103t-70.5 113t-33.5 103t-13 75.5l-1 29h336q0 -6 0.5 -16t6 -38.5t16.5 -54.5t34.5 -57.5t56 -54.5t86 -38.5t120.5 -15.5q122 0 192 58.5t70 142.5q0 67 -49 108.5t-150 61.5l-211 41q-233 45 -347.5 149t-114.5 277
q0 201 156.5 333t424.5 132q98 0 181 -16.5t141 -44t105 -63.5t75.5 -76t49.5 -79.5t30.5 -75.5t15 -63.5t6.5 -43.5v-17h-315q0 5 -0.5 13t-6.5 32t-16 45.5t-32 48t-51 45.5t-76.5 32t-106.5 13q-115 0 -180.5 -55t-65.5 -133q0 -65 47 -106t154 -62l219 -41
q225 -43 340 -150.5t115 -277.5q0 -97 -40.5 -184t-114.5 -153t-189.5 -105t-255.5 -39z" />
    <glyph glyph-name="T" unicode="T" horiz-adv-x="1298" 
d="M479 0v1231h-422v285h1184v-285h-422v-1231h-340z" />
    <glyph glyph-name="U" unicode="U" horiz-adv-x="1470" 
d="M735 -20q-105 0 -197.5 21t-173.5 67.5t-139 115.5t-91.5 169.5t-33.5 224.5v938h336v-938q0 -143 75.5 -232.5t223.5 -89.5q147 0 223 89.5t76 232.5v938h336v-938q0 -124 -33.5 -224.5t-91.5 -169.5t-139 -115.5t-173.5 -67.5t-197.5 -21z" />
    <glyph glyph-name="V" unicode="V" horiz-adv-x="1509" 
d="M553 0l-516 1516h364l369 -1174l367 1174h336l-519 -1516h-401z" />
    <glyph glyph-name="W" unicode="W" horiz-adv-x="2093" 
d="M424 0l-387 1516h340l252 -1096l272 1096h297l272 -1092l252 1092h334l-387 -1516h-383l-244 997l-245 -997h-373z" />
    <glyph glyph-name="X" unicode="X" horiz-adv-x="1574" 
d="M100 0l467 758l-465 758h375l309 -525l312 525h377l-474 -758l474 -758h-377l-312 526l-309 -526h-377z" />
    <glyph glyph-name="Y" unicode="Y" horiz-adv-x="1445" 
d="M555 0v567l-522 949h373l331 -652l332 652h344l-520 -949v-567h-338z" />
    <glyph glyph-name="Z" unicode="Z" horiz-adv-x="1366" 
d="M84 0v258l760 969h-760v289h1190v-259l-762 -968h770v-289h-1198z" />
    <glyph glyph-name="bracketleft" unicode="[" horiz-adv-x="823" 
d="M98 -453v2206h627v-221h-309v-1761h309v-224h-627z" />
    <glyph glyph-name="backslash" unicode="\" horiz-adv-x="1140" 
d="M874 -395l-835 2218h227l836 -2218h-228z" />
    <glyph glyph-name="bracketright" unicode="]" horiz-adv-x="823" 
d="M725 -453h-627v224h310v1761h-310v221h627v-2206z" />
    <glyph glyph-name="asciicircum" unicode="^" horiz-adv-x="993" 
d="M109 1147l264 369h248l264 -369h-244l-143 213l-146 -213h-243z" />
    <glyph glyph-name="underscore" unicode="_" horiz-adv-x="1253" 
d="M109 -174v174h1034v-174h-1034z" />
    <glyph glyph-name="grave" unicode="`" horiz-adv-x="530" 
d="M258 1223l-221 307h336l110 -305z" />
    <glyph glyph-name="a" unicode="a" horiz-adv-x="1159" 
d="M446 -20q-164 0 -268 84.5t-104 228.5q0 300 450 362l238 37v19q0 184 -174 184q-50 0 -88 -16t-56.5 -38.5t-29.5 -45t-13 -38.5l-2 -16h-280q0 8 1 21t9.5 51t24.5 72.5t51.5 76.5t83.5 72t127.5 51t177.5 21q128 0 221.5 -32.5t145.5 -89t76 -123t24 -144.5v-717h-299
v135q-1 -1 -12.5 -16.5t-22 -26.5t-29.5 -29t-42.5 -31t-54 -25.5t-70.5 -19.5t-85 -7zM367 313q0 -62 48.5 -96.5t121.5 -34.5q103 0 164 64t61 180v78l-156 -27q-239 -38 -239 -164z" />
    <glyph glyph-name="b" unicode="b" horiz-adv-x="1327" 
d="M752 -20q-62 0 -116 12.5t-88 28.5t-64.5 41t-43.5 40t-28 35v-137h-312v1556h312v-608q113 158 340 158q120 0 216 -46.5t155.5 -125.5t90.5 -179t31 -212q0 -113 -31 -213t-90.5 -179t-155 -125t-216.5 -46zM403 543q0 -145 70 -241.5t195 -96.5q124 0 194 96.5
t70 241.5t-70 241.5t-194 96.5q-125 0 -195 -96.5t-70 -241.5z" />
    <glyph glyph-name="c" unicode="c" horiz-adv-x="1251" 
d="M651 -20q-112 0 -206 31t-160 84.5t-112.5 125.5t-68.5 153.5t-22 168.5t22 168.5t68.5 153.5t112.5 125.5t160 84.5t206 31q78 0 146 -14t116.5 -38t89 -55t66 -65t45 -68t30 -65t16.5 -55t8 -38l1 -14h-290q-1 7 -4 19.5t-18 43.5t-36.5 54.5t-65 43t-98.5 19.5
q-126 0 -195 -92t-69 -239t69 -239.5t195 -92.5q55 0 98 18.5t65.5 45t36.5 53t18 44.5l4 19h290q-1 -9 -3 -23.5t-14.5 -57.5t-32 -81.5t-59.5 -86t-92 -81.5t-134.5 -57.5t-182.5 -23.5z" />
    <glyph glyph-name="d" unicode="d" horiz-adv-x="1327" 
d="M575 -20q-121 0 -216.5 46t-155 125t-90.5 179t-31 213q0 112 31 212t90.5 179t155.5 125.5t216 46.5q227 0 340 -158v608h312v-1556h-312v137q-15 -20 -28 -35t-43.5 -40t-64.5 -41t-88 -28.5t-116 -12.5zM395 543q0 -145 70 -241.5t194 -96.5q125 0 195 96.5t70 241.5
t-70 241.5t-195 96.5q-124 0 -194 -96.5t-70 -241.5z" />
    <glyph glyph-name="e" unicode="e" horiz-adv-x="1247" 
d="M870 649q-6 111 -70.5 172.5t-162.5 61.5q-101 0 -166.5 -64t-73.5 -170h473zM82 545q0 108 34 206t99.5 178.5t174 128.5t245.5 48q139 0 246.5 -48.5t172.5 -135t92.5 -204t14.5 -257.5h-764q9 -121 76 -192.5t184 -71.5q38 0 70 7.5t53.5 19t39 25.5t27 28.5t16.5 26
t9 18.5l2 8h281q-1 -7 -4 -20t-17 -49t-34.5 -69t-60.5 -73.5t-90.5 -69.5t-128.5 -49t-171 -20q-139 0 -250 47.5t-178.5 128t-103 180t-35.5 209.5z" />
    <glyph glyph-name="f" unicode="f" horiz-adv-x="833" 
d="M229 1176q0 84 22 154.5t67.5 127t121.5 88t176 31.5q52 0 95 -7.5t60 -14.5l17 -7v-225q-39 14 -98 14q-155 0 -155 -176v-76h264v-256h-264v-829h-306v829h-188v256h188v91z" />
    <glyph glyph-name="g" unicode="g" horiz-adv-x="1286" 
d="M655 -442q-83 0 -154.5 12.5t-122 34t-91.5 49t-66.5 58t-44.5 61t-28 58t-14 49t-6 34.5l-1 12h297q1 -7 3.5 -17.5t18 -38.5t38 -49.5t67.5 -39t104 -17.5q131 0 191.5 85.5t60.5 224.5v116q-106 -157 -334 -157q-119 0 -214.5 44.5t-154.5 120t-90.5 171t-31.5 200.5
t31.5 200t90.5 171t154.5 121t214.5 45q230 0 334 -162v141h303v-1017q0 -109 -34 -200.5t-100 -161t-174 -109t-247 -39.5zM399 569q0 -135 66.5 -225t189.5 -90q122 0 189 90t67 225q0 134 -67 225t-189 91q-123 0 -189.5 -91t-66.5 -225z" />
    <glyph glyph-name="h" unicode="h" horiz-adv-x="1226" 
d="M100 0v1556h312v-634q15 27 37.5 53.5t62.5 58.5t102 52t136 20q97 0 171 -32t118 -88t65.5 -125.5t21.5 -149.5v-711h-311v651q0 100 -45 157.5t-139 57.5q-113 0 -166 -78t-53 -204v-584h-312z" />
    <glyph glyph-name="i" unicode="i" horiz-adv-x="491" 
d="M90 0v1085h311v-1085h-311zM55 1391q0 78 53.5 130t137.5 52q81 0 134.5 -52.5t53.5 -129.5q0 -75 -53.5 -128t-134.5 -53q-83 0 -137 53.5t-54 127.5z" />
    <glyph glyph-name="j" unicode="j" horiz-adv-x="530" 
d="M53 -440q-35 0 -70.5 5t-54.5 10l-18 5v227q39 -10 80 -10q75 0 107 42.5t32 129.5v1116h311v-1138q0 -65 -9.5 -118t-35.5 -104.5t-68 -86.5t-111.5 -56.5t-162.5 -21.5zM96 1395q0 78 53.5 130t137.5 52q81 0 134.5 -52.5t53.5 -129.5q0 -75 -53.5 -128t-134.5 -53
q-83 0 -137 53.5t-54 127.5z" />
    <glyph glyph-name="k" unicode="k" horiz-adv-x="1208" 
d="M797 0l-385 541v-541h-312v1556h312v-946l379 475h360l-442 -495l458 -590h-370z" />
    <glyph glyph-name="l" unicode="l" horiz-adv-x="512" 
d="M100 0v1556h312v-1556h-312z" />
    <glyph glyph-name="m" unicode="m" horiz-adv-x="1859" 
d="M776 0v653q0 100 -40.5 157.5t-127.5 57.5q-103 0 -151.5 -79t-48.5 -207v-582h-308v1085h308v-182q15 36 40 69t63 64.5t95 50.5t125 19q130 0 212 -61.5t116 -165.5q113 227 348 227q92 0 161.5 -32t110 -88t60.5 -125t20 -150v-711h-307v653q0 99 -41.5 157t-126.5 58
q-104 0 -152.5 -78.5t-48.5 -207.5v-582h-307z" />
    <glyph glyph-name="n" unicode="n" horiz-adv-x="1226" 
d="M100 0v1085h312v-163q15 27 37.5 53.5t62.5 58.5t102 52t136 20q97 0 171 -32t118 -88t65.5 -125.5t21.5 -149.5v-711h-311v651q0 100 -45 157.5t-139 57.5q-113 0 -166 -78t-53 -204v-584h-312z" />
    <glyph glyph-name="o" unicode="o" horiz-adv-x="1310" 
d="M655 -20q-178 0 -309.5 75.5t-197.5 202t-66 285.5t66 285.5t197.5 202t309.5 75.5t310 -75.5t198 -202t66 -285.5t-66 -285.5t-198 -202t-310 -75.5zM399 543q0 -147 68.5 -237.5t187.5 -90.5q120 0 189 90.5t69 237.5t-69 237t-189 90t-188 -90t-68 -237z" />
    <glyph glyph-name="p" unicode="p" horiz-adv-x="1327" 
d="M100 -410v1495h312v-137q113 158 340 158q120 0 216 -46.5t155.5 -125.5t90.5 -179t31 -212q0 -113 -31 -213t-90.5 -179t-155 -125t-216.5 -46q-62 0 -116 12.5t-88 28.5t-64.5 41t-43.5 40t-28 35v-547h-312zM403 543q0 -145 70 -241.5t195 -96.5q124 0 194 96.5
t70 241.5t-70 241.5t-194 96.5q-125 0 -195 -96.5t-70 -241.5z" />
    <glyph glyph-name="q" unicode="q" horiz-adv-x="1327" 
d="M1227 -410h-312v547q-15 -20 -28 -35t-43.5 -40t-64.5 -41t-88 -28.5t-116 -12.5q-121 0 -216.5 46t-155 125t-90.5 179t-31 213q0 112 31 212t90.5 179t155.5 125.5t216 46.5q227 0 340 -158v137h312v-1495zM395 543q0 -145 70 -241.5t194 -96.5q125 0 195 96.5
t70 241.5t-70 241.5t-195 96.5q-124 0 -194 -96.5t-70 -241.5z" />
    <glyph glyph-name="r" unicode="r" horiz-adv-x="819" 
d="M100 0v1085h303v-180q42 96 106 148.5t177 52.5q18 0 35.5 -2t26.5 -4l8 -2v-281q-33 6 -80 6q-135 0 -201.5 -66.5t-66.5 -236.5v-520h-308z" />
    <glyph glyph-name="s" unicode="s" horiz-adv-x="1093" 
d="M567 -20q-82 0 -152 13t-119 35t-88.5 50.5t-64 60t-42.5 63t-26 60t-12.5 50.5t-4.5 35l-1 13h291q0 -7 2 -18.5t14.5 -41t34 -52.5t67.5 -41.5t107 -18.5q80 0 125 36t45 87q0 44 -32 68.5t-101 38.5l-157 28q-363 66 -363 312q0 151 123.5 249.5t325.5 98.5
q75 0 139 -12t109.5 -32.5t82 -47t59.5 -55.5t40.5 -58t25.5 -55.5t12.5 -47t5.5 -32.5l1 -12h-269q0 6 -1.5 16.5t-12.5 36.5t-29.5 45.5t-59 36t-95.5 16.5q-81 0 -123.5 -33.5t-42.5 -80.5q0 -44 36 -69t115 -40l142 -27q175 -31 268.5 -111t93.5 -206
q0 -156 -127.5 -257t-341.5 -101z" />
    <glyph glyph-name="t" unicode="t" horiz-adv-x="819" 
d="M575 -20q-85 0 -150 21t-105.5 56t-66.5 85.5t-36 103.5t-10 116v467h-160v256h160v254h301v-254h250v-256h-250v-426q0 -83 37 -123t119 -40q24 0 48.5 6t37.5 12l12 6v-252q-66 -32 -187 -32z" />
    <glyph glyph-name="u" unicode="u" horiz-adv-x="1204" 
d="M457 -20q-82 0 -146 23.5t-103 60.5t-64 87.5t-34.5 99t-9.5 99.5v735h312v-661q0 -94 42 -149.5t130 -55.5q107 0 158 77t51 198v591h311v-1085h-311v170q-12 -24 -27 -45.5t-44 -49.5t-63.5 -47.5t-87.5 -33.5t-114 -14z" />
    <glyph glyph-name="v" unicode="v" horiz-adv-x="1202" 
d="M434 0l-393 1085h317l256 -770l246 770h301l-395 -1085h-332z" />
    <glyph glyph-name="w" unicode="w" horiz-adv-x="1789" 
d="M383 0l-328 1085h305l203 -735l211 735h244l213 -733l203 733h301l-330 -1085h-326l-190 678l-187 -678h-319z" />
    <glyph glyph-name="x" unicode="x" horiz-adv-x="1179" 
d="M49 0l336 541l-336 544h324l215 -358l219 358h323l-348 -544l346 -541h-321l-219 358l-213 -358h-326z" />
    <glyph glyph-name="y" unicode="y" horiz-adv-x="1202" 
d="M254 -416l192 461l-405 1040h317l254 -692l244 692h305l-590 -1501h-317z" />
    <glyph glyph-name="z" unicode="z" horiz-adv-x="1067" 
d="M90 0v225l551 606h-537v254h916v-225l-551 -606h557v-254h-936z" />
    <glyph glyph-name="braceleft" unicode="{" horiz-adv-x="978" 
d="M897 -475q-109 -8 -194.5 3t-143.5 39t-100 69.5t-64 95.5t-35.5 117t-14 133.5t0.5 146.5q6 94 0.5 162.5t-17 113.5t-41 72t-72.5 38t-110 11h-69v238h69q67 0 110 11t72.5 38t41 72t17 113.5t-0.5 162.5q-6 91 0 174t21.5 153t54.5 125.5t98.5 92.5t154.5 52.5
t222 6.5v-225q-94 1 -145 -23t-69 -75.5t-19.5 -130.5t2.5 -187q1 -47 0 -91t-4.5 -83t-11.5 -74t-20.5 -65.5t-32 -56t-46.5 -46.5t-63 -36.5t-82 -26.5q46 -11 82.5 -27t63 -37t46.5 -47t32.5 -56.5t20.5 -65.5t11 -74t4 -82t0 -90q-4 -108 -2.5 -187t19.5 -130.5
t69 -75.5t145 -23v-225z" />
    <glyph glyph-name="bar" unicode="|" horiz-adv-x="888" 
d="M315 -512v2458h258v-2458h-258z" />
    <glyph glyph-name="braceright" unicode="}" horiz-adv-x="978" 
d="M82 -250q94 -1 145 23t69 75.5t19.5 130.5t-2.5 187q-1 47 0 90t4 82t11 74t20.5 65.5t32.5 56.5t46.5 47t63 37t82.5 27q-46 11 -82 26.5t-63 36.5t-46.5 46.5t-32 56t-20.5 65.5t-11.5 74t-4.5 83t0 91q4 108 2.5 187t-19.5 130.5t-69 75.5t-145 23v225q127 9 222 -6.5
t154.5 -52.5t98.5 -92.5t54.5 -125.5t21.5 -153t0 -174q-6 -94 -1 -162.5t16.5 -113.5t41 -72t72.5 -38t110 -11h70v-238h-70q-67 0 -110 -11t-72.5 -38t-41 -72t-16.5 -113.5t1 -162.5q1 -76 0.5 -146.5t-14 -133.5t-35.5 -117t-64 -95.5t-100 -69.5t-143.5 -39t-194.5 -3
v225z" />
    <glyph glyph-name="asciitilde" unicode="~" horiz-adv-x="1003" 
d="M655 643q-53 0 -99.5 20t-74 43.5t-59 43.5t-57.5 20q-35 0 -49.5 -29t-14.5 -86h-170q0 56 9.5 104.5t32 94.5t67.5 73t108 27q53 0 101 -20t76.5 -43.5t60.5 -43.5t57 -20q59 0 59 115h170q0 -56 -9.5 -104.5t-32 -94.5t-67.5 -73t-108 -27z" />
    <glyph glyph-name="uni00A0" unicode="&#xa0;" horiz-adv-x="458" 
 />
    <glyph glyph-name="exclamdown" unicode="&#xa1;" horiz-adv-x="632" 
d="M164 -520l37 1067h258l43 -1067h-338zM104 825q0 78 54 134.5t137 56.5q82 0 136 -56.5t54 -134.5q0 -82 -53.5 -136t-136.5 -54q-84 0 -137.5 54t-53.5 136z" />
    <glyph glyph-name="cent" unicode="&#xa2;" horiz-adv-x="1230" 
d="M549 -195v181q-114 16 -204.5 69t-147 129.5t-86 168t-29.5 190.5t29.5 190.5t86 168t147 129.5t204.5 69v180h176v-178q85 -8 155.5 -35t115.5 -63.5t79 -78.5t51 -83t27.5 -74t12.5 -54l3 -20h-290q-1 6 -3 15t-12.5 34.5t-25.5 47t-45 43.5t-68 32v-647q38 10 67.5 31
t45 44.5t25.5 45.5t13 36l3 15h290q-1 -8 -2.5 -21t-12.5 -52t-28 -75.5t-51 -81.5t-78.5 -79.5t-115.5 -62t-156 -35.5v-179h-176zM393 543q0 -110 40.5 -192.5t115.5 -117.5v619q-75 -35 -115.5 -117.5t-40.5 -191.5z" />
    <glyph glyph-name="sterling" unicode="&#xa3;" horiz-adv-x="1372" 
d="M160 262q134 13 213.5 82.5t79.5 169.5q0 57 -35 125h-285v137h191q-46 67 -72.5 135t-26.5 154q0 216 167 343.5t448 127.5q76 0 155.5 -9t120.5 -19l41 -9v-272q-135 37 -285 37q-159 0 -250.5 -57t-91.5 -165q0 -29 6 -56t20.5 -57.5t24 -48t33 -54.5t31.5 -50h391
v-137h-329q12 -47 12 -98q0 -60 -23 -114t-54.5 -88t-56.5 -53.5t-38 -23.5h672v-262h-1059v262z" />
    <glyph glyph-name="currency" unicode="&#xa4;" horiz-adv-x="1366" 
d="M238 180l-136 135l181 183q-80 121 -80 266t80 264l-181 180l136 133l180 -178q120 84 268 84q144 0 266 -82l178 176l134 -133l-177 -178q80 -119 80 -266q0 -150 -82 -268l179 -181l-134 -135l-180 180q-118 -77 -264 -77q-147 0 -268 79zM420 764q0 -109 78 -187.5
t188 -78.5q109 0 186.5 78.5t77.5 187.5t-77.5 186.5t-186.5 77.5q-110 0 -188 -77.5t-78 -186.5z" />
    <glyph glyph-name="yen" unicode="&#xa5;" horiz-adv-x="1445" 
d="M190 393v168h365v6l-80 146h-287v168h195l-350 635h373l331 -652l332 652h344l-348 -635h215v-168h-307l-80 -146v-6h387v-168h-387v-393h-338v393h-365z" />
    <glyph glyph-name="brokenbar" unicode="&#xa6;" horiz-adv-x="888" 
d="M315 -512v1016h258v-1016h-258zM315 844v1102h258v-1102h-258z" />
    <glyph glyph-name="section" unicode="&#xa7;" horiz-adv-x="1413" 
d="M729 -465q-98 0 -182.5 17t-144.5 45.5t-109.5 66t-80.5 78.5t-54.5 82t-35 78.5t-18.5 66t-8 45.5l-2 17h318q0 -5 1.5 -13.5t9.5 -33.5t20 -47.5t37.5 -49.5t58.5 -47t85.5 -33.5t116.5 -13.5q125 0 192.5 55t67.5 136q0 73 -50.5 113.5t-149.5 60.5l-264 49
q-101 18 -183 48t-151.5 78t-108.5 120t-39 163q0 122 72 204.5t201 107.5v14q-100 63 -149.5 143t-49.5 187q0 199 155.5 325.5t411.5 126.5q112 0 204 -25.5t151 -66t103.5 -89.5t67 -98t36.5 -89.5t17 -65.5l3 -26h-311q-1 8 -4 21.5t-20.5 48.5t-44.5 61.5t-82.5 48.5
t-127.5 22q-124 0 -186 -55t-62 -131q0 -70 57 -110t165 -62l215 -39q100 -19 181.5 -49.5t151.5 -78t109 -119.5t39 -163q0 -121 -73 -204t-202 -109v-12q107 -33 170.5 -120t63.5 -212q0 -206 -158.5 -336.5t-429.5 -130.5zM365 668q0 -136 227 -179l258 -47
q28 0 59.5 8.5t63.5 26.5t53 52t21 79q0 136 -228 178l-256 48q-28 0 -59.5 -8.5t-64 -26.5t-53.5 -52t-21 -79z" />
    <glyph glyph-name="dieresis" unicode="&#xa8;" horiz-adv-x="589" 
d="M731 1217q-80 0 -131 51t-51 123q0 75 50.5 124.5t131.5 49.5q78 0 130 -50t52 -124q0 -73 -52.5 -123.5t-129.5 -50.5zM113 1391q0 74 51.5 124t132.5 50q78 0 129 -50t51 -124q0 -73 -51.5 -123.5t-128.5 -50.5q-80 0 -132 51t-52 123z" />
    <glyph glyph-name="copyright" unicode="&#xa9;" horiz-adv-x="1687" 
d="M844 117q130 0 248.5 51t204.5 137t137 204.5t51 248.5t-51 248t-137 204t-204.5 136.5t-248.5 50.5q-129 0 -247.5 -51t-204.5 -136.5t-137.5 -203.5t-51.5 -248t51.5 -248.5t137.5 -204.5t204.5 -137t247.5 -51zM66 758q0 158 62 301.5t166.5 247.5t248.5 165.5
t301 61.5q158 0 302 -61.5t248 -165.5t166 -247.5t62 -301.5t-62 -302t-166 -248t-248 -166t-302 -62q-157 0 -301 62t-248.5 166t-166.5 248t-62 302zM397 756q0 88 29.5 168t85 143.5t145.5 101t203 37.5q64 0 120 -11.5t95.5 -31t72.5 -44.5t54 -52.5t37 -55t24.5 -52.5
t13.5 -44.5t6 -30.5l1 -12h-240q-1 6 -3 15.5t-14 34.5t-29.5 44t-52.5 34.5t-79 15.5q-101 0 -157 -72t-56 -188q0 -114 56 -187t157 -73q44 0 78.5 15t52.5 36t29.5 42.5t14.5 36.5l3 15h240q0 -7 -2 -19t-12 -47t-26 -66.5t-49 -70.5t-75.5 -67t-110 -47t-149.5 -19
q-113 0 -203 38t-145.5 102t-85 143.5t-29.5 167.5z" />
    <glyph glyph-name="ordfeminine" unicode="&#xaa;" horiz-adv-x="780" 
d="M379 1110q-80 -9 -80 -63q0 -29 23 -45.5t59 -16.5q49 0 81 32.5t32 86.5v22zM72 1028q0 184 278 215l144 19v14q0 39 -23 63.5t-65 24.5q-24 0 -42 -7t-26.5 -17.5t-14.5 -21t-7 -17.5l-1 -7h-219q0 5 1 13.5t8 34t18.5 48t36 50.5t56.5 48t83.5 34t114.5 14
q82 0 145 -22.5t98 -60t52.5 -79t17.5 -84.5v-444h-233v74h-11q-24 -34 -71 -60t-117 -26q-99 0 -161 52t-62 142z" />
    <glyph glyph-name="guillemotleft" unicode="&#xab;" horiz-adv-x="1513" 
d="M1118 184l-442 449l442 450h326l-436 -452l436 -447h-326zM76 633l442 450h326l-434 -452l434 -447h-326z" />
    <glyph glyph-name="logicalnot" unicode="&#xac;" horiz-adv-x="1341" 
d="M164 840v245h1014v-559h-244v314h-770z" />
    <glyph glyph-name="uni00AD" unicode="&#xad;" horiz-adv-x="983" 
d="M109 541v245h765v-245h-765z" />
    <glyph glyph-name="registered" unicode="&#xae;" horiz-adv-x="884" 
d="M442 780q-91 0 -164.5 32t-118.5 86t-69 120.5t-24 138.5t24 139t69.5 121t119 86.5t163.5 32.5t163.5 -32.5t119 -86.5t70 -121t24.5 -139t-24.5 -138.5t-70 -120.5t-119 -86t-163.5 -32zM152 1157q0 -56 18.5 -108t53 -94.5t91.5 -67.5t127 -25q93 0 161 44t99 109.5
t31 141.5q0 122 -76.5 209.5t-214.5 87.5t-214 -87.5t-76 -209.5zM285 963v395h174q73 0 116 -35t43 -98q0 -88 -73 -119l80 -143h-121l-68 127h-41v-127h-110zM395 1178h62q51 0 51 41q0 21 -14.5 33t-36.5 12h-62v-86z" />
    <glyph glyph-name="macron" unicode="&#xaf;" horiz-adv-x="991" 
d="M162 1327v184h667v-184h-667z" />
    <glyph glyph-name="degree" unicode="&#xb0;" horiz-adv-x="866" 
d="M432 780q-157 0 -267 110t-110 267t110 268t267 111t268 -111t111 -268t-111 -267t-268 -110zM268 1157q0 -67 48 -115.5t116 -48.5t116 48.5t48 115.5q0 69 -48 117.5t-116 48.5t-116 -48.5t-48 -117.5z" />
    <glyph glyph-name="plusminus" unicode="&#xb1;" horiz-adv-x="1110" 
d="M432 319v308h-307v245h307v308h246v-308h307v-245h-307v-308h-246zM109 0v172h892v-172h-892z" />
    <glyph glyph-name="uni00B2" unicode="&#xb2;" horiz-adv-x="886" 
d="M82 836v170l192 145q24 18 66.5 50t62 47t48 40t41 42t22.5 39t10 44q0 44 -30 69t-74 25q-46 0 -78.5 -29.5t-32.5 -86.5h-233q0 81 29 144.5t78.5 102t111.5 58.5t131 20q149 0 248.5 -80t99.5 -202q0 -109 -85 -198t-265 -194h354v-206h-696z" />
    <glyph glyph-name="uni00B3" unicode="&#xb3;" horiz-adv-x="851" 
d="M428 817q-86 0 -153.5 24.5t-104 59t-60.5 78t-31 75t-7 56.5h231q0 -32 29 -64t92 -32q55 0 84 26.5t29 63.5q0 35 -28.5 56.5t-74.5 21.5h-119v174h117q47 0 72.5 23t25.5 57q0 36 -28 59t-76 23q-56 0 -81.5 -31.5t-25.5 -65.5h-225q0 24 7 56t30 75.5t58 78t99 59
t146 24.5q141 0 239.5 -67t98.5 -181q0 -81 -47.5 -130.5t-97.5 -61.5v-10q70 -19 114.5 -67t44.5 -122q0 -119 -101.5 -188.5t-256.5 -69.5z" />
    <glyph glyph-name="acute" unicode="&#xb4;" horiz-adv-x="493" 
d="M262 1223l-225 2l106 313h338z" />
    <glyph glyph-name="uni00B5" unicode="&#xb5;" horiz-adv-x="1310" 
d="M88 -403v1488h311v-675q0 -79 42.5 -126.5t119.5 -47.5q93 0 138.5 64.5t45.5 160.5v624h312v-718q0 -140 139 -140q17 0 33.5 2.5t24.5 4.5l8 2v-242q-68 -14 -144 -14q-131 0 -215 48t-119 126h-16q-2 -7 -6 -19t-22.5 -42t-43 -52.5t-71 -41.5t-103.5 -19q-36 0 -69 7
t-54.5 17t-37.5 20.5t-23 17.5l-8 7l-8 -8q43 -80 60 -156.5t17 -183.5v-104h-311z" />
    <glyph glyph-name="paragraph" unicode="&#xb6;" horiz-adv-x="1161" 
d="M424 637q-200 0 -308 112t-108 281q0 170 110.5 287t305.5 117h647v-1434h-190v1161h-136v-1161h-190v637h-131z" />
    <glyph glyph-name="periodcentered" unicode="&#xb7;" horiz-adv-x="610" 
d="M305 -20q-88 0 -144.5 58.5t-56.5 141.5q0 86 56.5 143.5t144.5 57.5q86 0 143.5 -58t57.5 -143q0 -83 -58 -141.5t-143 -58.5z" />
    <glyph glyph-name="cedilla" unicode="&#xb8;" horiz-adv-x="524" 
d="M150 -586q-34 0 -75.5 4t-66.5 8l-24 3v165q88 -12 149 -12q81 0 115.5 24.5t34.5 59.5q0 30 -23 49t-63 19q-27 0 -55.5 -10t-43.5 -20l-14 -9l-109 110l134 195h196l-92 -129q28 4 45 4q97 0 156 -60.5t59 -150.5q0 -103 -82.5 -176.5t-240.5 -73.5z" />
    <glyph glyph-name="uni00B9" unicode="&#xb9;" horiz-adv-x="604" 
d="M463 1712v-876h-234v581h-180v139l27 9q91 29 142.5 57t98.5 78l11 12h135z" />
    <glyph glyph-name="ordmasculine" unicode="&#xba;" horiz-adv-x="870" 
d="M434 831q-166 0 -264 104t-98 253q0 147 98 248.5t264 101.5t265.5 -102t99.5 -248q0 -149 -99.5 -253t-265.5 -104zM305 1188q0 -69 36 -116.5t93 -47.5q60 0 95.5 46.5t35.5 117.5q0 67 -35.5 112.5t-95.5 45.5q-57 0 -93 -46t-36 -112z" />
    <glyph glyph-name="guillemotright" unicode="&#xbb;" horiz-adv-x="1826" 
d="M76 184l436 447l-436 452h325l443 -450l-443 -449h-325zM989 184l436 447l-436 452h326l442 -450l-442 -449h-326z" />
    <glyph glyph-name="onequarter" unicode="&#xbc;" horiz-adv-x="1839" 
d="M369 1442v-715h-205v467h-144v127l21 4q125 35 201 111l6 6h121zM305 0l860 1434h232l-865 -1434h-227zM1130 141v142l281 436h266v-420h101v-158h-101v-139h-209v139h-338zM1327 299h141v223z" />
    <glyph glyph-name="onehalf" unicode="&#xbd;" horiz-adv-x="1835" 
d="M369 1442v-715h-205v467h-144v127l21 4q125 35 201 111l6 6h121zM305 0l860 1434h232l-865 -1434h-227zM1184 457q0 132 85 202t208 70t204.5 -67t81.5 -173q0 -88 -66 -162.5t-208 -154.5h278v-170h-579v141l86 64q22 16 58 41.5t53 38t43.5 32.5t38.5 30.5t29.5 26
t25 26t16 24t11.5 26t3 25.5q0 37 -24 56.5t-58 19.5q-37 0 -62.5 -24t-25.5 -72h-198z" />
    <glyph glyph-name="threequarters" unicode="&#xbe;" horiz-adv-x="2000" 
d="M358 717q-71 0 -125.5 19.5t-84 47.5t-48.5 63t-24.5 60.5t-5.5 46.5h190q0 -26 23 -50.5t73 -24.5q45 0 69 20t24 51q0 28 -21.5 47t-65.5 19h-81v143h81q39 0 61.5 20t22.5 48t-23.5 47.5t-64.5 19.5q-47 0 -68.5 -24t-21.5 -51h-184q0 21 6 47t25 60t47.5 62t79.5 47
t116 19q119 0 201 -55.5t82 -149.5q0 -64 -38 -106t-79 -51v-9q127 -38 127 -151q0 -95 -82.5 -155t-210.5 -60zM467 0l860 1434h232l-865 -1434h-227zM1292 141v142l281 436h266v-420h100v-158h-100v-139h-209v139h-338zM1489 299h141v223z" />
    <glyph glyph-name="questiondown" unicode="&#xbf;" horiz-adv-x="1239" 
d="M621 -578q-142 0 -260 54.5t-189.5 159t-71.5 237.5q0 70 21 130.5t54.5 103.5t73.5 80.5t80.5 69t74 61t54.5 63.5t21 70v67h309v-67q0 -63 -20.5 -117.5t-53 -94t-72 -75t-79 -67.5t-72 -63.5t-53 -70.5t-20.5 -82q0 -82 61 -134t152 -52q95 0 159 61.5t64 177.5h301
q0 -126 -45 -226t-120.5 -161t-170 -93t-198.5 -32zM479 788q0 78 55 134.5t136 56.5q83 0 136.5 -56t53.5 -135q0 -81 -53 -135.5t-137 -54.5q-81 0 -136 55t-55 135z" />
    <glyph glyph-name="Agrave" unicode="&#xc0;" horiz-adv-x="1542" 
d="M55 0l498 1516h455l497 -1516h-360l-107 348h-546l-107 -348h-330zM432 1960h336l111 -305l-226 -2zM573 612h383l-190 625z" />
    <glyph glyph-name="Aacute" unicode="&#xc1;" horiz-adv-x="1560" 
d="M55 0l498 1516h455l497 -1516h-360l-107 348h-546l-107 -348h-330zM573 612h383l-190 625zM674 1655l106 313h338l-219 -315z" />
    <glyph glyph-name="Acircumflex" unicode="&#xc2;" horiz-adv-x="1560" 
d="M55 0l498 1516h455l497 -1516h-360l-107 348h-546l-107 -348h-330zM438 1630l201 275h285l200 -275h-221l-121 131l-123 -131h-221zM573 612h383l-190 625z" />
    <glyph glyph-name="Atilde" unicode="&#xc3;" horiz-adv-x="1560" 
d="M55 0l498 1516h455l497 -1516h-360l-107 348h-546l-107 -348h-330zM422 1663q-1 59 8.5 107t31.5 90t64 65t101 23q51 0 96.5 -17.5t72 -39t58 -39t57.5 -17.5q61 0 64 102h164q1 -59 -8.5 -107t-31.5 -89.5t-64 -64.5t-101 -23q-50 0 -94.5 17.5t-71 38.5t-58.5 38.5
t-59 17.5q-62 0 -65 -102h-164zM573 612h383l-190 625z" />
    <glyph glyph-name="Adieresis" unicode="&#xc4;" horiz-adv-x="1560" 
d="M55 0l498 1516h455l497 -1516h-360l-107 348h-546l-107 -348h-330zM381 1821q0 74 51.5 124t132.5 50q78 0 129 -50t51 -124q0 -73 -51.5 -123.5t-128.5 -50.5q-80 0 -132 51t-52 123zM573 612h383l-190 625zM817 1821q0 75 50.5 124.5t131.5 49.5q78 0 130.5 -50
t52.5 -124q0 -73 -53 -123.5t-130 -50.5q-80 0 -131 51t-51 123z" />
    <glyph glyph-name="Aring" unicode="&#xc5;" horiz-adv-x="1560" 
d="M55 0l498 1516h455l497 -1516h-360l-107 348h-546l-107 -348h-330zM502 1911q0 115 81 196.5t197 81.5t197.5 -81.5t81.5 -196.5t-81.5 -196t-197.5 -81t-197 81t-81 196zM573 612h383l-190 625zM668 1911q0 -46 33 -78.5t79 -32.5t79.5 32.5t33.5 78.5q0 45 -33.5 77.5
t-79.5 32.5t-79 -32t-33 -78z" />
    <glyph glyph-name="AE" unicode="&#xc6;" horiz-adv-x="2463" 
d="M12 0l688 1516h240v-209l-338 -740h502v-270h-625l-135 -297h-332zM1329 0v1516h1055v-279h-717v-334h612v-274h-612v-350h721v-279h-1059z" />
    <glyph glyph-name="Ccedilla" unicode="&#xc7;" horiz-adv-x="1611" 
d="M811 -580q-34 0 -75.5 4t-65.5 8l-25 3v166q89 -13 150 -13q81 0 115 24.5t34 59.5q0 30 -23 49t-63 19q-27 0 -55.5 -10t-42.5 -20l-15 -9l-108 111l117 172q-137 12 -252 61.5t-194.5 124t-134.5 171t-81 202t-26 217.5q0 118 29 228.5t91.5 210.5t152 174.5
t219.5 118.5t286 44q134 0 245 -31.5t182 -81.5t125 -110t81 -120.5t44 -110.5t21 -82l4 -31h-329q-1 6 -3 16.5t-13 41.5t-26 58.5t-44.5 61.5t-66.5 58.5t-94 41.5t-124 17q-137 0 -236.5 -70.5t-146.5 -183t-47 -250.5q0 -139 47 -251.5t146.5 -183.5t236.5 -71
q67 0 124 16t94 42t66 57t45 62.5t26 57.5t13 42l3 16h329q-1 -11 -3.5 -29t-18 -71.5t-38 -103t-69 -112t-105.5 -110t-153 -85.5t-207 -50l-78 -109q28 4 46 4q97 0 156 -60.5t59 -150.5q0 -103 -83 -176.5t-241 -73.5z" />
    <glyph glyph-name="Egrave" unicode="&#xc8;" horiz-adv-x="1222" 
d="M100 0v1516h1055v-279h-717v-334h613v-274h-613v-350h721v-279h-1059zM266 1960h336l111 -305l-226 -2z" />
    <glyph glyph-name="Eacute" unicode="&#xc9;" horiz-adv-x="1222" 
d="M100 0v1516h1055v-279h-717v-334h613v-274h-613v-350h721v-279h-1059zM502 1655l106 313h338l-219 -315z" />
    <glyph glyph-name="Ecircumflex" unicode="&#xca;" horiz-adv-x="1222" 
d="M100 0v1516h1055v-279h-717v-334h613v-274h-613v-350h721v-279h-1059zM264 1630l201 275h285l200 -275h-221l-121 131l-123 -131h-221z" />
    <glyph glyph-name="Edieresis" unicode="&#xcb;" horiz-adv-x="1222" 
d="M100 0v1516h1055v-279h-717v-334h613v-274h-613v-350h721v-279h-1059zM209 1821q0 75 50.5 124.5t131.5 49.5q78 0 130 -50t52 -124q0 -73 -52.5 -123.5t-129.5 -50.5q-80 0 -131 51t-51 123zM643 1821q0 74 51.5 124t132.5 50q78 0 130.5 -50t52.5 -124
q0 -73 -53 -123.5t-130 -50.5q-80 0 -132 51t-52 123z" />
    <glyph glyph-name="Igrave" unicode="&#xcc;" horiz-adv-x="538" 
d="M100 0v1516h338v-1516h-338zM-78 1960h336l111 -305l-226 -2z" />
    <glyph glyph-name="Iacute" unicode="&#xcd;" horiz-adv-x="538" 
d="M100 0v1516h338v-1516h-338zM158 1655l106 313h338l-219 -315z" />
    <glyph glyph-name="Icircumflex" unicode="&#xce;" horiz-adv-x="538" 
d="M100 0v1516h338v-1516h-338zM-92 1630l229 303h250l231 -303h-233l-123 133l-121 -133h-233z" />
    <glyph glyph-name="Idieresis" unicode="&#xcf;" horiz-adv-x="538" 
d="M100 0v1516h338v-1516h-338zM-137 1821q0 74 51.5 124t132.5 50q78 0 129 -50t51 -124q0 -73 -51.5 -123.5t-128.5 -50.5q-80 0 -132 51t-52 123zM299 1821q0 75 50.5 124.5t131.5 49.5q78 0 130.5 -50t52.5 -124q0 -73 -53 -123.5t-130 -50.5q-80 0 -131 51t-51 123z
" />
    <glyph glyph-name="Eth" unicode="&#xd0;" horiz-adv-x="1599" 
d="M-35 635v246h189v635h555q167 0 304 -42.5t229.5 -115t156.5 -170.5t92.5 -205.5t28.5 -224.5t-28.5 -224.5t-92.5 -205.5t-156.5 -170.5t-229.5 -115t-304 -42.5h-555v635h-189zM492 270h196q104 0 188 27.5t139 73.5t92 109.5t53 132.5t16 145q0 97 -27 181t-82 154
t-152.5 111t-226.5 41h-196v-364h309v-246h-309v-365z" />
    <glyph glyph-name="Ntilde" unicode="&#xd1;" horiz-adv-x="1505" 
d="M100 0v1516h369l608 -1014v1014h328v-1516h-371l-606 1016v-1016h-328zM383 1663q-1 59 8.5 107t31.5 90t64 65t101 23q51 0 96.5 -17.5t72 -39t58 -39t57.5 -17.5q61 0 64 102h164q1 -59 -8.5 -107t-31.5 -89.5t-64 -64.5t-101 -23q-50 0 -94.5 17.5t-71 38.5
t-58.5 38.5t-59 17.5q-62 0 -65 -102h-164z" />
    <glyph glyph-name="Ograve" unicode="&#xd2;" horiz-adv-x="1691" 
d="M846 -20q-151 0 -279 42t-219 115.5t-155.5 172.5t-95.5 213t-31 237q0 122 31 235t95.5 211.5t155.5 172t219 115.5t279 42t279.5 -42t219.5 -115.5t155 -172t95 -211.5t31 -235q0 -123 -31 -237t-95 -213t-155 -172.5t-219.5 -115.5t-279.5 -42zM418 760
q0 -138 48.5 -250t147 -181t232.5 -69t233.5 69t149 181t49.5 250q0 136 -49.5 247t-149 179.5t-233.5 68.5t-232.5 -68.5t-147 -179.5t-48.5 -247zM506 1980h336l110 -305l-225 -2z" />
    <glyph glyph-name="Oacute" unicode="&#xd3;" horiz-adv-x="1691" 
d="M846 -20q-151 0 -279 42t-219 115.5t-155.5 172.5t-95.5 213t-31 237q0 122 31 235t95.5 211.5t155.5 172t219 115.5t279 42t279.5 -42t219.5 -115.5t155 -172t95 -211.5t31 -235q0 -123 -31 -237t-95 -213t-155 -172.5t-219.5 -115.5t-279.5 -42zM418 760
q0 -138 48.5 -250t147 -181t232.5 -69t233.5 69t149 181t49.5 250q0 136 -49.5 247t-149 179.5t-233.5 68.5t-232.5 -68.5t-147 -179.5t-48.5 -247zM739 1675l107 314h338l-219 -316z" />
    <glyph glyph-name="Ocircumflex" unicode="&#xd4;" horiz-adv-x="1691" 
d="M846 -20q-151 0 -279 42t-219 115.5t-155.5 172.5t-95.5 213t-31 237q0 122 31 235t95.5 211.5t155.5 172t219 115.5t279 42t279.5 -42t219.5 -115.5t155 -172t95 -211.5t31 -235q0 -123 -31 -237t-95 -213t-155 -172.5t-219.5 -115.5t-279.5 -42zM418 760
q0 -138 48.5 -250t147 -181t232.5 -69t233.5 69t149 181t49.5 250q0 136 -49.5 247t-149 179.5t-233.5 68.5t-232.5 -68.5t-147 -179.5t-48.5 -247zM504 1651l201 274h284l201 -274h-221l-121 131l-123 -131h-221z" />
    <glyph glyph-name="Otilde" unicode="&#xd5;" horiz-adv-x="1691" 
d="M846 -20q-151 0 -279 42t-219 115.5t-155.5 172.5t-95.5 213t-31 237q0 122 31 235t95.5 211.5t155.5 172t219 115.5t279 42t279.5 -42t219.5 -115.5t155 -172t95 -211.5t31 -235q0 -123 -31 -237t-95 -213t-155 -172.5t-219.5 -115.5t-279.5 -42zM418 760
q0 -138 48.5 -250t147 -181t232.5 -69t233.5 69t149 181t49.5 250q0 136 -49.5 247t-149 179.5t-233.5 68.5t-232.5 -68.5t-147 -179.5t-48.5 -247zM487 1683q-1 59 8.5 107t31.5 90t64 65t101 23q51 0 96.5 -17.5t72.5 -39t58.5 -39t57.5 -17.5q60 0 63 103h164
q1 -59 -8.5 -107t-31.5 -90t-64 -65t-101 -23q-50 0 -94 17.5t-70.5 39t-58.5 39t-59 17.5q-63 0 -66 -103h-164z" />
    <glyph glyph-name="Odieresis" unicode="&#xd6;" horiz-adv-x="1691" 
d="M846 -20q-151 0 -279 42t-219 115.5t-155.5 172.5t-95.5 213t-31 237q0 122 31 235t95.5 211.5t155.5 172t219 115.5t279 42t279.5 -42t219.5 -115.5t155 -172t95 -211.5t31 -235q0 -123 -31 -237t-95 -213t-155 -172.5t-219.5 -115.5t-279.5 -42zM418 760
q0 -138 48.5 -250t147 -181t232.5 -69t233.5 69t149 181t49.5 250q0 136 -49.5 247t-149 179.5t-233.5 68.5t-232.5 -68.5t-147 -179.5t-48.5 -247zM446 1841q0 74 52 124t133 50q78 0 129 -50t51 -124q0 -73 -51.5 -123.5t-128.5 -50.5q-80 0 -132.5 51t-52.5 123z
M883 1841q0 75 50.5 124.5t131.5 49.5q78 0 130 -50t52 -124q0 -73 -52.5 -123.5t-129.5 -50.5q-80 0 -131 51t-51 123z" />
    <glyph glyph-name="multiply" unicode="&#xd7;" horiz-adv-x="1028" 
d="M729 233l-217 218l-215 -215l-186 186l215 215l-217 217l188 190l219 -217l215 215l187 -186l-216 -215l218 -219z" />
    <glyph glyph-name="Oslash" unicode="&#xd8;" horiz-adv-x="1685" 
d="M182 -49l135 211q-123 108 -187 265t-64 333q0 122 31 235t95.5 211.5t155.5 172t219 115.5t279 42q174 0 315 -55l53 82h297l-135 -211q122 -108 186 -263t64 -329q0 -123 -31 -237t-95 -213t-155 -172.5t-219.5 -115.5t-279.5 -42q-169 0 -314 55l-53 -84h-297z
M418 760q0 -181 82 -314l499 783q-73 26 -153 26q-134 0 -232.5 -68.5t-147 -179.5t-48.5 -247zM694 287q76 -27 152 -27q134 0 233.5 69t149 181t49.5 250q0 179 -84 307z" />
    <glyph glyph-name="Ugrave" unicode="&#xd9;" horiz-adv-x="1470" 
d="M735 -20q-105 0 -197.5 21t-173.5 67.5t-139 115.5t-91.5 169.5t-33.5 224.5v938h336v-938q0 -143 75.5 -232.5t223.5 -89.5q147 0 223 89.5t76 232.5v938h336v-938q0 -124 -33.5 -224.5t-91.5 -169.5t-139 -115.5t-173.5 -67.5t-197.5 -21zM391 1960h336l111 -305
l-226 -2z" />
    <glyph glyph-name="Uacute" unicode="&#xda;" horiz-adv-x="1470" 
d="M735 -20q-105 0 -197.5 21t-173.5 67.5t-139 115.5t-91.5 169.5t-33.5 224.5v938h336v-938q0 -143 75.5 -232.5t223.5 -89.5q147 0 223 89.5t76 232.5v938h336v-938q0 -124 -33.5 -224.5t-91.5 -169.5t-139 -115.5t-173.5 -67.5t-197.5 -21zM586 1655l106 313h338
l-219 -315z" />
    <glyph glyph-name="Ucircumflex" unicode="&#xdb;" horiz-adv-x="1443" 
d="M735 -20q-105 0 -197.5 21t-173.5 67.5t-139 115.5t-91.5 169.5t-33.5 224.5v938h336v-938q0 -143 75.5 -232.5t223.5 -89.5q147 0 223 89.5t76 232.5v938h336v-938q0 -124 -33.5 -224.5t-91.5 -169.5t-139 -115.5t-173.5 -67.5t-197.5 -21zM362 1630l230 303h250
l231 -303h-233l-123 133l-121 -133h-234z" />
    <glyph glyph-name="Udieresis" unicode="&#xdc;" horiz-adv-x="1470" 
d="M735 -20q-105 0 -197.5 21t-173.5 67.5t-139 115.5t-91.5 169.5t-33.5 224.5v938h336v-938q0 -143 75.5 -232.5t223.5 -89.5q147 0 223 89.5t76 232.5v938h336v-938q0 -124 -33.5 -224.5t-91.5 -169.5t-139 -115.5t-173.5 -67.5t-197.5 -21zM332 1821q0 74 51.5 124
t132.5 50q78 0 129 -50t51 -124q0 -73 -51.5 -123.5t-128.5 -50.5q-80 0 -132 51t-52 123zM768 1821q0 75 50.5 124.5t131.5 49.5q78 0 130.5 -50t52.5 -124q0 -73 -53 -123.5t-130 -50.5q-80 0 -131 51t-51 123z" />
    <glyph glyph-name="Yacute" unicode="&#xdd;" horiz-adv-x="1445" 
d="M555 0v567l-522 949h373l331 -652l332 652h344l-520 -949v-567h-338zM621 1653l106 313h338l-219 -315z" />
    <glyph glyph-name="Thorn" unicode="&#xde;" horiz-adv-x="1396" 
d="M100 0v1516h338v-252h334q135 0 244 -43.5t176.5 -115.5t103 -161t35.5 -186q0 -77 -22 -150t-68 -138t-111 -113.5t-157 -76.5t-201 -28h-334v-252h-338zM438 526h334q114 0 178 68.5t64 161.5q0 94 -64 162.5t-178 68.5h-334v-461z" />
    <glyph glyph-name="germandbls" unicode="&#xdf;" horiz-adv-x="1347" 
d="M672 1561q-122 0 -221.5 -34.5t-166 -92t-111.5 -134.5t-65 -159.5t-20 -169.5v-973h311v975q0 158 75.5 242.5t203.5 84.5q104 0 170.5 -56t66.5 -144q0 -85 -59.5 -139t-159.5 -54h-127v-245h148q117 0 182.5 -54.5t65.5 -146.5q0 -97 -73.5 -159t-215.5 -62
q-32 0 -70 3t-60 6l-22 3v-256q79 -16 181 -16q253 0 415 119.5t162 318.5q0 61 -16.5 114t-42.5 89t-57.5 65t-63.5 46t-58 28.5t-42 15.5l-17 4v13q60 20 112.5 62t91 115.5t38.5 162.5q0 131 -78 230t-202.5 148.5t-274.5 49.5z" />
    <glyph glyph-name="agrave" unicode="&#xe0;" horiz-adv-x="1159" 
d="M446 -20q-164 0 -268 84.5t-104 228.5q0 300 450 362l238 37v19q0 184 -174 184q-50 0 -88 -16t-56.5 -38.5t-29.5 -45t-13 -38.5l-2 -16h-280q0 8 1 21t9.5 51t24.5 72.5t51.5 76.5t83.5 72t127.5 51t177.5 21q128 0 221.5 -32.5t145.5 -89t76 -123t24 -144.5v-717h-299
v135q-1 -1 -12.5 -16.5t-22 -26.5t-29.5 -29t-42.5 -31t-54 -25.5t-70.5 -19.5t-85 -7zM254 1530h336l110 -305l-225 -2zM367 313q0 -62 48.5 -96.5t121.5 -34.5q103 0 164 64t61 180v78l-156 -27q-239 -38 -239 -164z" />
    <glyph glyph-name="aacute" unicode="&#xe1;" horiz-adv-x="1159" 
d="M446 -20q-164 0 -268 84.5t-104 228.5q0 300 450 362l238 37v19q0 184 -174 184q-50 0 -88 -16t-56.5 -38.5t-29.5 -45t-13 -38.5l-2 -16h-280q0 8 1 21t9.5 51t24.5 72.5t51.5 76.5t83.5 72t127.5 51t177.5 21q128 0 221.5 -32.5t145.5 -89t76 -123t24 -144.5v-717h-299
v135q-1 -1 -12.5 -16.5t-22 -26.5t-29.5 -29t-42.5 -31t-54 -25.5t-70.5 -19.5t-85 -7zM367 313q0 -62 48.5 -96.5t121.5 -34.5q103 0 164 64t61 180v78l-156 -27q-239 -38 -239 -164zM487 1225l107 313h338l-219 -315z" />
    <glyph glyph-name="acircumflex" unicode="&#xe2;" horiz-adv-x="1159" 
d="M446 -20q-164 0 -268 84.5t-104 228.5q0 300 450 362l238 37v19q0 184 -174 184q-50 0 -88 -16t-56.5 -38.5t-29.5 -45t-13 -38.5l-2 -16h-280q0 8 1 21t9.5 51t24.5 72.5t51.5 76.5t83.5 72t127.5 51t177.5 21q128 0 221.5 -32.5t145.5 -89t76 -123t24 -144.5v-717h-299
v135q-1 -1 -12.5 -16.5t-22 -26.5t-29.5 -29t-42.5 -31t-54 -25.5t-70.5 -19.5t-85 -7zM240 1200l229 303h250l231 -303h-233l-123 133l-121 -133h-233zM367 313q0 -62 48.5 -96.5t121.5 -34.5q103 0 164 64t61 180v78l-156 -27q-239 -38 -239 -164z" />
    <glyph glyph-name="atilde" unicode="&#xe3;" horiz-adv-x="1159" 
d="M446 -20q-164 0 -268 84.5t-104 228.5q0 300 450 362l238 37v19q0 184 -174 184q-50 0 -88 -16t-56.5 -38.5t-29.5 -45t-13 -38.5l-2 -16h-280q0 8 1 21t9.5 51t24.5 72.5t51.5 76.5t83.5 72t127.5 51t177.5 21q128 0 221.5 -32.5t145.5 -89t76 -123t24 -144.5v-717h-299
v135q-1 -1 -12.5 -16.5t-22 -26.5t-29.5 -29t-42.5 -31t-54 -25.5t-70.5 -19.5t-85 -7zM236 1233q-4 285 204 285q51 0 96.5 -17.5t72.5 -39t58.5 -39t57.5 -17.5q60 0 63 102h164q4 -284 -204 -284q-50 0 -94.5 17.5t-71 38.5t-58.5 38.5t-59 17.5q-63 0 -66 -102h-163z
M367 313q0 -62 48.5 -96.5t121.5 -34.5q103 0 164 64t61 180v78l-156 -27q-239 -38 -239 -164z" />
    <glyph glyph-name="adieresis" unicode="&#xe4;" horiz-adv-x="1159" 
d="M446 -20q-164 0 -268 84.5t-104 228.5q0 300 450 362l238 37v19q0 184 -174 184q-50 0 -88 -16t-56.5 -38.5t-29.5 -45t-13 -38.5l-2 -16h-280q0 8 1 21t9.5 51t24.5 72.5t51.5 76.5t83.5 72t127.5 51t177.5 21q128 0 221.5 -32.5t145.5 -89t76 -123t24 -144.5v-717h-299
v135q-1 -1 -12.5 -16.5t-22 -26.5t-29.5 -29t-42.5 -31t-54 -25.5t-70.5 -19.5t-85 -7zM195 1391q0 74 51.5 124t132.5 50q78 0 129 -50t51 -124q0 -73 -51.5 -123.5t-128.5 -50.5q-80 0 -132 51t-52 123zM367 313q0 -62 48.5 -96.5t121.5 -34.5q103 0 164 64t61 180v78
l-156 -27q-239 -38 -239 -164zM631 1391q0 75 50.5 124.5t131.5 49.5q78 0 130 -50t52 -124q0 -73 -52.5 -123.5t-129.5 -50.5q-80 0 -131 51t-51 123z" />
    <glyph glyph-name="aring" unicode="&#xe5;" horiz-adv-x="1159" 
d="M446 -20q-164 0 -268 84.5t-104 228.5q0 300 450 362l238 37v19q0 184 -174 184q-50 0 -88 -16t-56.5 -38.5t-29.5 -45t-13 -38.5l-2 -16h-280q0 8 1 21t9.5 51t24.5 72.5t51.5 76.5t83.5 72t127.5 51t177.5 21q128 0 221.5 -32.5t145.5 -89t76 -123t24 -144.5v-717h-299
v135q-1 -1 -12.5 -16.5t-22 -26.5t-29.5 -29t-42.5 -31t-54 -25.5t-70.5 -19.5t-85 -7zM315 1481q0 115 81.5 196.5t197.5 81.5t197 -81.5t81 -196.5t-81 -196t-197 -81t-197.5 81t-81.5 196zM367 313q0 -62 48.5 -96.5t121.5 -34.5q103 0 164 64t61 180v78l-156 -27
q-239 -38 -239 -164zM481 1481q0 -46 33.5 -78.5t79.5 -32.5t79.5 32.5t33.5 78.5q0 45 -33.5 77.5t-79.5 32.5t-79.5 -32.5t-33.5 -77.5z" />
    <glyph glyph-name="ae" unicode="&#xe6;" horiz-adv-x="1902" 
d="M463 -20q-176 0 -284.5 87.5t-108.5 243.5q0 154 113.5 243t326.5 89h258v49q0 77 -45.5 128.5t-140.5 51.5q-48 0 -85.5 -14.5t-56.5 -35t-31 -40.5t-15 -34l-3 -15h-295q1 8 3.5 21.5t15 52t31.5 74t56 78.5t84 74t121 52t162 21t160.5 -20t114.5 -50t65 -56.5
t29 -47.5h8q9 20 34 46t68.5 56.5t115.5 51t157 20.5q227 0 368.5 -147.5t141.5 -423.5v-76h-756q6 -102 73.5 -173t178.5 -71q49 0 88.5 14t62 33.5t37.5 39.5t20 34l5 14h283q-1 -8 -4.5 -21t-18.5 -51.5t-35.5 -73.5t-60.5 -78t-89 -73.5t-124 -51.5t-164 -21
q-87 0 -162.5 20t-122.5 48t-84 62t-52.5 56t-22.5 37h-11q-3 -9 -11 -24t-40 -53.5t-73.5 -68t-117.5 -53.5t-167 -24zM369 322q0 -61 49 -96.5t123 -35.5q102 0 164.5 65.5t62.5 166.5v29h-229q-85 0 -127.5 -35.5t-42.5 -93.5zM1071 655h469q-7 111 -68 165t-157 54
q-101 0 -168 -58t-76 -161z" />
    <glyph glyph-name="ccedilla" unicode="&#xe7;" horiz-adv-x="1251" 
d="M616 -590q-34 0 -75 4t-65 8l-25 3v165q88 -12 149 -12q81 0 115.5 24.5t34.5 59.5q0 30 -23 49t-63 19q-27 0 -55.5 -10t-42.5 -20l-15 -9l-109 110l125 183q-118 14 -212.5 66t-153 129.5t-89 170t-30.5 193.5q0 87 22 168.5t68.5 153.5t112.5 125.5t160 84.5t206 31
q78 0 146 -14t116.5 -38t89 -55t66 -65t45 -68t30 -65t16.5 -55t8 -38l1 -14h-290q-1 7 -4 19.5t-18 43.5t-36.5 54.5t-65 43t-98.5 19.5q-126 0 -195 -92t-69 -239t69 -239.5t195 -92.5q55 0 98 18.5t65.5 45t36.5 53t18 44.5l4 19h290q-1 -7 -2.5 -19.5t-11.5 -49.5
t-25 -71.5t-46.5 -78.5t-72 -78.5t-104.5 -64t-141 -41.5l-86 -121q28 4 45 4q97 0 156 -60.5t59 -150.5q0 -103 -83 -176.5t-241 -73.5z" />
    <glyph glyph-name="egrave" unicode="&#xe8;" horiz-adv-x="1247" 
d="M870 649q-6 111 -70.5 172.5t-162.5 61.5q-101 0 -166.5 -64t-73.5 -170h473zM82 545q0 108 34 206t99.5 178.5t174 128.5t245.5 48q139 0 246.5 -48.5t172.5 -135t92.5 -204t14.5 -257.5h-764q9 -121 76 -192.5t184 -71.5q38 0 70 7.5t53.5 19t39 25.5t27 28.5t16.5 26
t9 18.5l2 8h281q-1 -7 -4 -20t-17 -49t-34.5 -69t-60.5 -73.5t-90.5 -69.5t-128.5 -49t-171 -20q-139 0 -250 47.5t-178.5 128t-103 180t-35.5 209.5zM297 1530h336l110 -305l-225 -2z" />
    <glyph glyph-name="eacute" unicode="&#xe9;" horiz-adv-x="1247" 
d="M870 649q-6 111 -70.5 172.5t-162.5 61.5q-101 0 -166.5 -64t-73.5 -170h473zM82 545q0 108 34 206t99.5 178.5t174 128.5t245.5 48q139 0 246.5 -48.5t172.5 -135t92.5 -204t14.5 -257.5h-764q9 -121 76 -192.5t184 -71.5q38 0 70 7.5t53.5 19t39 25.5t27 28.5t16.5 26
t9 18.5l2 8h281q-1 -7 -4 -20t-17 -49t-34.5 -69t-60.5 -73.5t-90.5 -69.5t-128.5 -49t-171 -20q-139 0 -250 47.5t-178.5 128t-103 180t-35.5 209.5zM530 1225l107 313h338l-219 -315z" />
    <glyph glyph-name="ecircumflex" unicode="&#xea;" horiz-adv-x="1247" 
d="M870 649q-6 111 -70.5 172.5t-162.5 61.5q-101 0 -166.5 -64t-73.5 -170h473zM82 545q0 108 34 206t99.5 178.5t174 128.5t245.5 48q139 0 246.5 -48.5t172.5 -135t92.5 -204t14.5 -257.5h-764q9 -121 76 -192.5t184 -71.5q38 0 70 7.5t53.5 19t39 25.5t27 28.5t16.5 26
t9 18.5l2 8h281q-1 -7 -4 -20t-17 -49t-34.5 -69t-60.5 -73.5t-90.5 -69.5t-128.5 -49t-171 -20q-139 0 -250 47.5t-178.5 128t-103 180t-35.5 209.5zM283 1200l229 303h250l231 -303h-233l-123 133l-121 -133h-233z" />
    <glyph glyph-name="edieresis" unicode="&#xeb;" horiz-adv-x="1247" 
d="M870 649q-6 111 -70.5 172.5t-162.5 61.5q-101 0 -166.5 -64t-73.5 -170h473zM82 545q0 108 34 206t99.5 178.5t174 128.5t245.5 48q139 0 246.5 -48.5t172.5 -135t92.5 -204t14.5 -257.5h-764q9 -121 76 -192.5t184 -71.5q38 0 70 7.5t53.5 19t39 25.5t27 28.5t16.5 26
t9 18.5l2 8h281q-1 -7 -4 -20t-17 -49t-34.5 -69t-60.5 -73.5t-90.5 -69.5t-128.5 -49t-171 -20q-139 0 -250 47.5t-178.5 128t-103 180t-35.5 209.5zM238 1391q0 74 51.5 124t132.5 50q78 0 129 -50t51 -124q0 -73 -51.5 -123.5t-128.5 -50.5q-80 0 -132 51t-52 123z
M674 1391q0 75 50.5 124.5t131.5 49.5q78 0 130 -50t52 -124q0 -73 -52.5 -123.5t-129.5 -50.5q-80 0 -131 51t-51 123z" />
    <glyph glyph-name="igrave" unicode="&#xec;" horiz-adv-x="499" 
d="M90 0v1085h311v-1085h-311zM-92 1530h336l110 -305l-225 -2z" />
    <glyph glyph-name="iacute" unicode="&#xed;" horiz-adv-x="499" 
d="M90 0v1085h311v-1085h-311zM143 1225l107 313h338l-219 -315z" />
    <glyph glyph-name="icircumflex" unicode="&#xee;" horiz-adv-x="499" 
d="M90 0v1085h311v-1085h-311zM-106 1200l229 303h250l231 -303h-233l-123 133l-121 -133h-233z" />
    <glyph glyph-name="idieresis" unicode="&#xef;" horiz-adv-x="491" 
d="M90 0v1085h311v-1085h-311zM-154 1391q0 74 52 124t133 50q78 0 129 -50t51 -124q0 -73 -51.5 -123.5t-128.5 -50.5q-80 0 -132.5 51t-52.5 123zM283 1391q0 75 50.5 124.5t131.5 49.5q78 0 130 -50t52 -124q0 -73 -52.5 -123.5t-129.5 -50.5q-80 0 -131 51t-51 123z" />
    <glyph glyph-name="eth" unicode="&#xf0;" horiz-adv-x="1284" 
d="M641 -20q-113 0 -208 32t-160.5 86t-111.5 126.5t-67.5 153t-21.5 165.5q0 103 32 198t92 171t154.5 121.5t210.5 45.5q138 0 238 -67q-96 143 -279 280l-227 -133l-103 176l140 82q-46 27 -92 50.5t-68 33.5l-23 10l103 213q150 -50 332 -159l252 147l102 -176l-168 -98
q444 -352 444 -822q0 -136 -36 -250.5t-105.5 -201.5t-179.5 -135.5t-250 -48.5zM387 543q0 -80 26.5 -149t86.5 -116t143 -47q121 0 187.5 93t66.5 219q0 80 -27.5 149t-87 115.5t-139.5 46.5q-83 0 -143 -46.5t-86.5 -115.5t-26.5 -149z" />
    <glyph glyph-name="ntilde" unicode="&#xf1;" horiz-adv-x="1226" 
d="M100 0v1085h312v-163q15 27 37.5 53.5t62.5 58.5t102 52t136 20q97 0 171 -32t118 -88t65.5 -125.5t21.5 -149.5v-711h-311v651q0 100 -45 157.5t-139 57.5q-113 0 -166 -78t-53 -204v-584h-312zM256 1233q-1 59 8.5 107t31.5 90t64 65t101 23q51 0 96.5 -17.5t72 -39
t58 -39t57.5 -17.5q61 0 64 102h164q1 -59 -8.5 -107t-31.5 -89.5t-64 -64.5t-101 -23q-50 0 -94.5 17.5t-71 38.5t-58.5 38.5t-59 17.5q-62 0 -65 -102h-164z" />
    <glyph glyph-name="ograve" unicode="&#xf2;" horiz-adv-x="1310" 
d="M655 -20q-178 0 -309.5 75.5t-197.5 202t-66 285.5t66 285.5t197.5 202t309.5 75.5t310 -75.5t198 -202t66 -285.5t-66 -285.5t-198 -202t-310 -75.5zM313 1530h336l111 -305l-225 -2zM399 543q0 -147 68.5 -237.5t187.5 -90.5q120 0 189 90.5t69 237.5t-69 237t-189 90
t-188 -90t-68 -237z" />
    <glyph glyph-name="oacute" unicode="&#xf3;" horiz-adv-x="1310" 
d="M655 -20q-178 0 -309.5 75.5t-197.5 202t-66 285.5t66 285.5t197.5 202t309.5 75.5t310 -75.5t198 -202t66 -285.5t-66 -285.5t-198 -202t-310 -75.5zM399 543q0 -147 68.5 -237.5t187.5 -90.5q120 0 189 90.5t69 237.5t-69 237t-189 90t-188 -90t-68 -237zM557 1225
l107 313h337l-219 -315z" />
    <glyph glyph-name="ocircumflex" unicode="&#xf4;" horiz-adv-x="1310" 
d="M655 -20q-178 0 -309.5 75.5t-197.5 202t-66 285.5t66 285.5t197.5 202t309.5 75.5t310 -75.5t198 -202t66 -285.5t-66 -285.5t-198 -202t-310 -75.5zM301 1200l229 303h250l232 -303h-234l-123 133l-120 -133h-234zM399 543q0 -147 68.5 -237.5t187.5 -90.5
q120 0 189 90.5t69 237.5t-69 237t-189 90t-188 -90t-68 -237z" />
    <glyph glyph-name="otilde" unicode="&#xf5;" horiz-adv-x="1310" 
d="M655 -20q-178 0 -309.5 75.5t-197.5 202t-66 285.5t66 285.5t197.5 202t309.5 75.5t310 -75.5t198 -202t66 -285.5t-66 -285.5t-198 -202t-310 -75.5zM297 1233q-1 59 8.5 107t31.5 90t64 65t101 23q51 0 96.5 -17.5t72 -39t58 -39t57.5 -17.5q61 0 64 102h164
q1 -59 -8.5 -107t-31.5 -89.5t-64 -64.5t-101 -23q-50 0 -94.5 17.5t-71 38.5t-58.5 38.5t-59 17.5q-62 0 -65 -102h-164zM399 543q0 -147 68.5 -237.5t187.5 -90.5q120 0 189 90.5t69 237.5t-69 237t-189 90t-188 -90t-68 -237z" />
    <glyph glyph-name="odieresis" unicode="&#xf6;" horiz-adv-x="1310" 
d="M655 -20q-178 0 -309.5 75.5t-197.5 202t-66 285.5t66 285.5t197.5 202t309.5 75.5t310 -75.5t198 -202t66 -285.5t-66 -285.5t-198 -202t-310 -75.5zM256 1391q0 74 51.5 124t132.5 50q78 0 129.5 -50t51.5 -124q0 -73 -52 -123.5t-129 -50.5q-80 0 -132 51t-52 123z
M399 543q0 -147 68.5 -237.5t187.5 -90.5q120 0 189 90.5t69 237.5t-69 237t-189 90t-188 -90t-68 -237zM692 1391q0 75 50.5 124.5t131.5 49.5q78 0 130.5 -50t52.5 -124q0 -73 -53 -123.5t-130 -50.5q-80 0 -131 51t-51 123z" />
    <glyph glyph-name="divide" unicode="&#xf7;" horiz-adv-x="1236" 
d="M141 555v223h987v-223h-987zM104 188q0 86 56.5 143.5t144.5 57.5q86 0 143.5 -58t57.5 -143q0 -83 -58 -141.5t-143 -58.5q-88 0 -144.5 58.5t-56.5 141.5zM713 188q0 86 56 143.5t144 57.5q86 0 143.5 -58t57.5 -143q0 -83 -58 -141.5t-143 -58.5q-88 0 -144 58
t-56 142z" />
    <glyph glyph-name="oslash" unicode="&#xf8;" horiz-adv-x="1288" 
d="M203 -84l96 168q-105 76 -161 195.5t-56 263.5q0 159 66 285.5t197.5 202t309.5 75.5q112 0 207 -31l53 94h215l-102 -180q98 -76 149.5 -191.5t51.5 -254.5q0 -159 -66 -285.5t-198 -202t-310 -75.5q-103 0 -188 24l-49 -88h-215zM399 543q0 -119 45 -201l293 516
q-38 12 -82 12q-120 0 -188 -90t-68 -237zM592 223q27 -8 63 -8q120 0 189 90.5t69 237.5q0 109 -36 182z" />
    <glyph glyph-name="ugrave" unicode="&#xf9;" horiz-adv-x="1204" 
d="M457 -20q-82 0 -146 23.5t-103 60.5t-64 87.5t-34.5 99t-9.5 99.5v735h312v-661q0 -94 42 -149.5t130 -55.5q107 0 158 77t51 198v591h311v-1085h-311v170q-12 -24 -27 -45.5t-44 -49.5t-63.5 -47.5t-87.5 -33.5t-114 -14zM256 1530h336l110 -305l-225 -2z" />
    <glyph glyph-name="uacute" unicode="&#xfa;" horiz-adv-x="1204" 
d="M457 -20q-82 0 -146 23.5t-103 60.5t-64 87.5t-34.5 99t-9.5 99.5v735h312v-661q0 -94 42 -149.5t130 -55.5q107 0 158 77t51 198v591h311v-1085h-311v170q-12 -24 -27 -45.5t-44 -49.5t-63.5 -47.5t-87.5 -33.5t-114 -14zM492 1225l106 313h338l-219 -315z" />
    <glyph glyph-name="ucircumflex" unicode="&#xfb;" horiz-adv-x="1204" 
d="M457 -20q-82 0 -146 23.5t-103 60.5t-64 87.5t-34.5 99t-9.5 99.5v735h312v-661q0 -94 42 -149.5t130 -55.5q107 0 158 77t51 198v591h311v-1085h-311v170q-12 -24 -27 -45.5t-44 -49.5t-63.5 -47.5t-87.5 -33.5t-114 -14zM242 1200l229 303h250l231 -303h-233l-123 133
l-121 -133h-233z" />
    <glyph glyph-name="udieresis" unicode="&#xfc;" horiz-adv-x="1204" 
d="M457 -20q-82 0 -146 23.5t-103 60.5t-64 87.5t-34.5 99t-9.5 99.5v735h312v-661q0 -94 42 -149.5t130 -55.5q107 0 158 77t51 198v591h311v-1085h-311v170q-12 -24 -27 -45.5t-44 -49.5t-63.5 -47.5t-87.5 -33.5t-114 -14zM197 1391q0 74 51.5 124t132.5 50q78 0 129 -50
t51 -124q0 -73 -51.5 -123.5t-128.5 -50.5q-80 0 -132 51t-52 123zM633 1391q0 75 50.5 124.5t131.5 49.5q78 0 130 -50t52 -124q0 -73 -52.5 -123.5t-129.5 -50.5q-80 0 -131 51t-51 123z" />
    <glyph glyph-name="yacute" unicode="&#xfd;" horiz-adv-x="1202" 
d="M254 -416l192 461l-405 1040h317l254 -692l244 692h305l-590 -1501h-317zM496 1225l106 313h338l-219 -315z" />
    <glyph glyph-name="thorn" unicode="&#xfe;" horiz-adv-x="2656" 
d="M100 -410v1495h312v-137q113 158 340 158q120 0 216 -46.5t155.5 -125.5t90.5 -179t31 -212q0 -113 -31 -213t-90.5 -179t-155 -125t-216.5 -46q-62 0 -116 12.5t-88 28.5t-64.5 41t-43.5 40t-28 35v-547h-312zM403 543q0 -145 70 -241.5t195 -96.5q124 0 194 96.5
t70 241.5t-70 241.5t-194 96.5q-125 0 -195 -96.5t-70 -241.5zM1427 0v1556h312v-608q113 158 340 158q120 0 216 -46.5t155.5 -125.5t90.5 -179t31 -212q0 -113 -31 -213t-90.5 -179t-155 -125t-216.5 -46q-62 0 -116 12.5t-88 28.5t-64.5 41t-43.5 40t-28 35v-137h-312z
M1731 543q0 -145 69.5 -241.5t194.5 -96.5q124 0 194 96.5t70 241.5t-70 241.5t-194 96.5q-125 0 -194.5 -96.5t-69.5 -241.5z" />
    <glyph glyph-name="ydieresis" unicode="&#xff;" horiz-adv-x="1202" 
d="M254 -416l192 461l-405 1040h317l254 -692l244 692h305l-590 -1501h-317zM201 1391q0 74 51.5 124t132.5 50q78 0 129 -50t51 -124q0 -73 -51.5 -123.5t-128.5 -50.5q-80 0 -132 51t-52 123zM637 1391q0 75 50.5 124.5t131.5 49.5q78 0 130 -50t52 -124
q0 -73 -52.5 -123.5t-129.5 -50.5q-80 0 -131 51t-51 123z" />
    <glyph glyph-name="Amacron" unicode="&#x100;" horiz-adv-x="1560" 
d="M55 0l498 1516h455l497 -1516h-360l-107 348h-546l-107 -348h-330zM446 1690v184h668v-184h-668zM573 612h383l-190 625z" />
    <glyph glyph-name="amacron" unicode="&#x101;" horiz-adv-x="1159" 
d="M446 -20q-164 0 -268 84.5t-104 228.5q0 300 450 362l238 37v19q0 184 -174 184q-50 0 -88 -16t-56.5 -38.5t-29.5 -45t-13 -38.5l-2 -16h-280q0 8 1 21t9.5 51t24.5 72.5t51.5 76.5t83.5 72t127.5 51t177.5 21q128 0 221.5 -32.5t145.5 -89t76 -123t24 -144.5v-717h-299
v135q-1 -1 -12.5 -16.5t-22 -26.5t-29.5 -29t-42.5 -31t-54 -25.5t-70.5 -19.5t-85 -7zM260 1260v184h668v-184h-668zM367 313q0 -62 48.5 -96.5t121.5 -34.5q103 0 164 64t61 180v78l-156 -27q-239 -38 -239 -164z" />
    <glyph glyph-name="Abreve" unicode="&#x102;" horiz-adv-x="1552" 
d="M55 0l498 1516h455l497 -1516h-360l-107 348h-546l-107 -348h-330zM426 1946h190q0 -6 0.5 -15.5t8.5 -34.5t23 -44t48 -34.5t78 -15.5q46 0 79.5 15t48 36t23 42t9.5 36v15h190q-2 0 0 -10t-2 -27.5t-7.5 -39t-16.5 -46.5t-28 -49t-43 -46.5t-61.5 -39.5t-83 -27
t-108.5 -10q-74 0 -133 16.5t-94.5 42.5t-61 57t-36.5 62.5t-17 57.5t-6 43v16zM573 612h383l-190 625z" />
    <glyph glyph-name="abreve" unicode="&#x103;" horiz-adv-x="1159" 
d="M446 -20q-164 0 -268 84.5t-104 228.5q0 300 450 362l238 37v19q0 184 -174 184q-50 0 -88 -16t-56.5 -38.5t-29.5 -45t-13 -38.5l-2 -16h-280q0 8 1 21t9.5 51t24.5 72.5t51.5 76.5t83.5 72t127.5 51t177.5 21q128 0 221.5 -32.5t145.5 -89t76 -123t24 -144.5v-717h-299
v135q-1 -1 -12.5 -16.5t-22 -26.5t-29.5 -29t-42.5 -31t-54 -25.5t-70.5 -19.5t-85 -7zM244 1546h188q0 -7 1 -17.5t10 -38.5t24.5 -49.5t48.5 -39t78 -17.5t78 16.5t48.5 40.5t24.5 48t10 41l1 16h188q0 -7 -0.5 -18.5t-6.5 -45t-17.5 -64t-37.5 -68t-61.5 -64t-94.5 -45
t-132 -18.5t-132 18t-94.5 46.5t-61.5 63t-37.5 68.5t-17.5 62.5t-7 46.5v18zM367 313q0 -62 48.5 -96.5t121.5 -34.5q103 0 164 64t61 180v78l-156 -27q-239 -38 -239 -164z" />
    <glyph glyph-name="Cacute" unicode="&#x106;" horiz-adv-x="1585" 
d="M844 -20q-156 0 -286 44t-219.5 118.5t-152 175t-91.5 212t-29 230.5q0 118 29 228.5t91.5 210.5t152 174.5t219.5 118.5t286 44q134 0 245 -31.5t182 -81.5t125 -110t81 -120.5t44 -110.5t21 -82l4 -31h-329q-1 6 -3 16.5t-13 41.5t-26 58.5t-44.5 61.5t-66.5 58.5
t-94 41.5t-124 17q-137 0 -236.5 -70.5t-146.5 -183t-47 -250.5q0 -139 47 -251.5t146.5 -183.5t236.5 -71q67 0 124 16t94 42t66 57t45 62.5t26 57.5t13 42l3 16h329q-1 -7 -2.5 -19.5t-10.5 -51.5t-22.5 -76.5t-41 -88.5t-62 -95t-89.5 -88.5t-120.5 -76t-157 -51.5
t-196.5 -20zM739 1653l107 313h338l-219 -315z" />
    <glyph glyph-name="cacute" unicode="&#x107;" horiz-adv-x="1251" 
d="M651 -20q-112 0 -206 31t-160 84.5t-112.5 125.5t-68.5 153.5t-22 168.5t22 168.5t68.5 153.5t112.5 125.5t160 84.5t206 31q78 0 146 -14t116.5 -38t89 -55t66 -65t45 -68t30 -65t16.5 -55t8 -38l1 -14h-290q-1 7 -4 19.5t-18 43.5t-36.5 54.5t-65 43t-98.5 19.5
q-126 0 -195 -92t-69 -239t69 -239.5t195 -92.5q55 0 98 18.5t65.5 45t36.5 53t18 44.5l4 19h290q-1 -9 -3 -23.5t-14.5 -57.5t-32 -81.5t-59.5 -86t-92 -81.5t-134.5 -57.5t-182.5 -23.5zM561 1225l107 313h338l-220 -315z" />
    <glyph glyph-name="Cdotaccent" unicode="&#x10a;" horiz-adv-x="1585" 
d="M844 -20q-156 0 -286 44t-219.5 118.5t-152 175t-91.5 212t-29 230.5q0 118 29 228.5t91.5 210.5t152 174.5t219.5 118.5t286 44q134 0 245 -31.5t182 -81.5t125 -110t81 -120.5t44 -110.5t21 -82l4 -31h-329q-1 6 -3 16.5t-13 41.5t-26 58.5t-44.5 61.5t-66.5 58.5
t-94 41.5t-124 17q-137 0 -236.5 -70.5t-146.5 -183t-47 -250.5q0 -139 47 -251.5t146.5 -183.5t236.5 -71q67 0 124 16t94 42t66 57t45 62.5t26 57.5t13 42l3 16h329q-1 -7 -2.5 -19.5t-10.5 -51.5t-22.5 -76.5t-41 -88.5t-62 -95t-89.5 -88.5t-120.5 -76t-157 -51.5
t-196.5 -20zM643 1819q0 78 53.5 130t137.5 52q81 0 134.5 -52.5t53.5 -129.5q0 -75 -53.5 -128t-134.5 -53q-83 0 -137 53.5t-54 127.5z" />
    <glyph glyph-name="cdotaccent" unicode="&#x10b;" horiz-adv-x="1251" 
d="M651 -20q-112 0 -206 31t-160 84.5t-112.5 125.5t-68.5 153.5t-22 168.5t22 168.5t68.5 153.5t112.5 125.5t160 84.5t206 31q78 0 146 -14t116.5 -38t89 -55t66 -65t45 -68t30 -65t16.5 -55t8 -38l1 -14h-290q-1 7 -4 19.5t-18 43.5t-36.5 54.5t-65 43t-98.5 19.5
q-126 0 -195 -92t-69 -239t69 -239.5t195 -92.5q55 0 98 18.5t65.5 45t36.5 53t18 44.5l4 19h290q-1 -9 -3 -23.5t-14.5 -57.5t-32 -81.5t-59.5 -86t-92 -81.5t-134.5 -57.5t-182.5 -23.5zM465 1391q0 78 53 130t137 52q81 0 135 -52.5t54 -129.5q0 -75 -54 -128t-135 -53
q-83 0 -136.5 53.5t-53.5 127.5z" />
    <glyph glyph-name="Ccaron" unicode="&#x10c;" horiz-adv-x="1611" 
d="M844 -20q-156 0 -286 44t-219.5 118.5t-152 175t-91.5 212t-29 230.5q0 118 29 228.5t91.5 210.5t152 174.5t219.5 118.5t286 44q134 0 245 -31.5t182 -81.5t125 -110t81 -120.5t44 -110.5t21 -82l4 -31h-329q-1 6 -3 16.5t-13 41.5t-26 58.5t-44.5 61.5t-66.5 58.5
t-94 41.5t-124 17q-137 0 -236.5 -70.5t-146.5 -183t-47 -250.5q0 -139 47 -251.5t146.5 -183.5t236.5 -71q67 0 124 16t94 42t66 57t45 62.5t26 57.5t13 42l3 16h329q-1 -7 -2.5 -19.5t-10.5 -51.5t-22.5 -76.5t-41 -88.5t-62 -95t-89.5 -88.5t-120.5 -76t-157 -51.5
t-196.5 -20zM496 1954h233l121 -133l123 133h233l-231 -303h-250z" />
    <glyph glyph-name="ccaron" unicode="&#x10d;" horiz-adv-x="1251" 
d="M651 -20q-112 0 -206 31t-160 84.5t-112.5 125.5t-68.5 153.5t-22 168.5t22 168.5t68.5 153.5t112.5 125.5t160 84.5t206 31q78 0 146 -14t116.5 -38t89 -55t66 -65t45 -68t30 -65t16.5 -55t8 -38l1 -14h-290q-1 7 -4 19.5t-18 43.5t-36.5 54.5t-65 43t-98.5 19.5
q-126 0 -195 -92t-69 -239t69 -239.5t195 -92.5q55 0 98 18.5t65.5 45t36.5 53t18 44.5l4 19h290q-1 -9 -3 -23.5t-14.5 -57.5t-32 -81.5t-59.5 -86t-92 -81.5t-134.5 -57.5t-182.5 -23.5zM301 1526h234l120 -133l123 133h234l-232 -303h-250z" />
    <glyph glyph-name="Dcaron" unicode="&#x10e;" horiz-adv-x="1531" 
d="M100 0v1516h555q167 0 304 -42.5t229.5 -115t156.5 -170.5t92.5 -205.5t28.5 -224.5t-28.5 -224.5t-92.5 -205.5t-156.5 -170.5t-229.5 -115t-304 -42.5h-555zM358 1956h234l121 -133l123 133h233l-231 -303h-250zM438 270h197q129 0 226 41t152.5 111.5t82 154.5
t26.5 181t-26.5 181t-82 154t-152.5 111t-226 41h-197v-975z" />
    <glyph glyph-name="dcaron" unicode="&#x10f;" horiz-adv-x="1744" 
d="M575 -20q-121 0 -216.5 46t-155 125t-90.5 179t-31 213q0 112 31 212t90.5 179t155.5 125.5t216 46.5q227 0 340 -158v608h312v-1556h-312v137q-15 -20 -28 -35t-43.5 -40t-64.5 -41t-88 -28.5t-116 -12.5zM395 543q0 -145 70 -241.5t194 -96.5q125 0 195 96.5t70 241.5
t-70 241.5t-195 96.5q-124 0 -194 -96.5t-70 -241.5zM1376 987l21 529h305l-105 -529h-221z" />
    <glyph glyph-name="Dcroat" unicode="&#x110;" horiz-adv-x="1572" 
d="M-35 635v246h189v635h555q167 0 304 -42.5t229.5 -115t156.5 -170.5t92.5 -205.5t28.5 -224.5t-28.5 -224.5t-92.5 -205.5t-156.5 -170.5t-229.5 -115t-304 -42.5h-555v635h-189zM492 270h196q104 0 188 27.5t139 73.5t92 109.5t53 132.5t16 145q0 97 -27 181t-82 154
t-152.5 111t-226.5 41h-196v-364h309v-246h-309v-365z" />
    <glyph glyph-name="dcroat" unicode="&#x111;" horiz-adv-x="1384" 
d="M639 1208v187h276v161h312v-161h164v-187h-164v-1208h-312v137q-15 -20 -28 -35t-43.5 -40t-64.5 -41t-88 -28.5t-116 -12.5q-121 0 -216.5 46t-155 125t-90.5 179t-31 213q0 112 31 212t90.5 179t155.5 125.5t216 46.5q227 0 340 -158v260h-276zM395 543
q0 -145 70 -241.5t194 -96.5q125 0 195 96.5t70 241.5t-70 241.5t-195 96.5q-124 0 -194 -96.5t-70 -241.5z" />
    <glyph glyph-name="Emacron" unicode="&#x112;" horiz-adv-x="1222" 
d="M100 0v1516h1055v-279h-717v-334h613v-274h-613v-350h721v-279h-1059zM274 1690v184h668v-184h-668z" />
    <glyph glyph-name="emacron" unicode="&#x113;" horiz-adv-x="1247" 
d="M870 649q-6 111 -70.5 172.5t-162.5 61.5q-101 0 -166.5 -64t-73.5 -170h473zM82 545q0 108 34 206t99.5 178.5t174 128.5t245.5 48q139 0 246.5 -48.5t172.5 -135t92.5 -204t14.5 -257.5h-764q9 -121 76 -192.5t184 -71.5q38 0 70 7.5t53.5 19t39 25.5t27 28.5t16.5 26
t9 18.5l2 8h281q-1 -7 -4 -20t-17 -49t-34.5 -69t-60.5 -73.5t-90.5 -69.5t-128.5 -49t-171 -20q-139 0 -250 47.5t-178.5 128t-103 180t-35.5 209.5zM303 1260v184h668v-184h-668z" />
    <glyph glyph-name="Edotaccent" unicode="&#x116;" horiz-adv-x="1222" 
d="M100 0v1516h1055v-279h-717v-334h613v-274h-613v-350h721v-279h-1059zM418 1821q0 78 53 130t137 52q81 0 135 -52.5t54 -129.5q0 -75 -54 -128t-135 -53q-83 0 -136.5 53.5t-53.5 127.5z" />
    <glyph glyph-name="edotaccent" unicode="&#x117;" horiz-adv-x="1247" 
d="M870 649q-6 111 -70.5 172.5t-162.5 61.5q-101 0 -166.5 -64t-73.5 -170h473zM82 545q0 108 34 206t99.5 178.5t174 128.5t245.5 48q139 0 246.5 -48.5t172.5 -135t92.5 -204t14.5 -257.5h-764q9 -121 76 -192.5t184 -71.5q38 0 70 7.5t53.5 19t39 25.5t27 28.5t16.5 26
t9 18.5l2 8h281q-1 -7 -4 -20t-17 -49t-34.5 -69t-60.5 -73.5t-90.5 -69.5t-128.5 -49t-171 -20q-139 0 -250 47.5t-178.5 128t-103 180t-35.5 209.5zM449 1391q0 78 53 130t137 52q81 0 134.5 -52.5t53.5 -129.5q0 -75 -53.5 -128t-134.5 -53q-83 0 -136.5 53.5
t-53.5 127.5z" />
    <glyph glyph-name="Ecaron" unicode="&#x11a;" horiz-adv-x="1222" 
d="M100 0v1516h1055v-279h-717v-334h613v-274h-613v-350h721v-279h-1059zM252 1956h233l121 -133l123 133h234l-232 -303h-250z" />
    <glyph glyph-name="ecaron" unicode="&#x11b;" horiz-adv-x="1247" 
d="M870 649q-6 111 -70.5 172.5t-162.5 61.5q-101 0 -166.5 -64t-73.5 -170h473zM82 545q0 108 34 206t99.5 178.5t174 128.5t245.5 48q139 0 246.5 -48.5t172.5 -135t92.5 -204t14.5 -257.5h-764q9 -121 76 -192.5t184 -71.5q38 0 70 7.5t53.5 19t39 25.5t27 28.5t16.5 26
t9 18.5l2 8h281q-1 -7 -4 -20t-17 -49t-34.5 -69t-60.5 -73.5t-90.5 -69.5t-128.5 -49t-171 -20q-139 0 -250 47.5t-178.5 128t-103 180t-35.5 209.5zM283 1526h233l121 -133l123 133h233l-231 -303h-250z" />
    <glyph glyph-name="Gbreve" unicode="&#x11e;" horiz-adv-x="1632" 
d="M856 -20q-159 0 -291.5 44t-223.5 118.5t-154 174.5t-92 211t-29 230q0 118 29 229.5t91.5 211.5t152.5 174.5t221 118.5t288 44q103 0 192 -17t152.5 -46t117 -66.5t88 -79t61 -83t40 -79t22 -66.5t11.5 -46l2 -17h-334q-2 10 -6 26t-27.5 57.5t-57.5 73t-102 57.5
t-155 26q-106 0 -190.5 -41.5t-138 -112.5t-81.5 -163t-28 -197q0 -106 28 -198t82.5 -163t141 -112t196.5 -41q157 0 261 87t130 243h-411v243h725v-88q0 -185 -55.5 -331t-153 -237t-225 -138t-277.5 -47zM506 1976h188q0 -7 1 -17.5t10 -38.5t24.5 -49t48.5 -38.5
t78 -17.5t78 16.5t48.5 40.5t24.5 47.5t10 40.5l1 16h188q0 -7 -0.5 -18.5t-6.5 -45t-17.5 -64t-37.5 -68t-61.5 -64t-94.5 -45t-132 -18.5t-132 18t-94.5 46.5t-61.5 63t-37.5 68.5t-17.5 62.5t-7 46.5v18z" />
    <glyph glyph-name="gbreve" unicode="&#x11f;" horiz-adv-x="1286" 
d="M655 -442q-83 0 -154.5 12.5t-122 34t-91.5 49t-66.5 58t-44.5 61t-28 58t-14 49t-6 34.5l-1 12h297q1 -7 3.5 -17.5t18 -38.5t38 -49.5t67.5 -39t104 -17.5q131 0 191.5 85.5t60.5 224.5v116q-106 -157 -334 -157q-119 0 -214.5 44.5t-154.5 120t-90.5 171t-31.5 200.5
t31.5 200t90.5 171t154.5 121t214.5 45q230 0 334 -162v141h303v-1017q0 -109 -34 -200.5t-100 -161t-174 -109t-247 -39.5zM305 1546h189q0 -7 1 -17.5t10 -38.5t24 -49.5t48 -39t78 -17.5t78 16.5t48.5 40.5t24.5 48t10 41l1 16h189q0 -7 -0.5 -18.5t-7 -45t-18 -64
t-37.5 -68t-61.5 -64t-94.5 -45t-132 -18.5t-132 18t-94.5 46.5t-61.5 63t-37.5 68.5t-17.5 62.5t-6 46.5zM399 569q0 -135 66.5 -225t189.5 -90q122 0 189 90t67 225q0 134 -67 225t-189 91q-123 0 -189.5 -91t-66.5 -225z" />
    <glyph glyph-name="Gdotaccent" unicode="&#x120;" horiz-adv-x="1617" 
d="M856 -20q-159 0 -291.5 44t-223.5 118.5t-154 174.5t-92 211t-29 230q0 118 29 229.5t91.5 211.5t152.5 174.5t221 118.5t288 44q103 0 192 -17t152.5 -46t117 -66.5t88 -79t61 -83t40 -79t22 -66.5t11.5 -46l2 -17h-334q-2 10 -6 26t-27.5 57.5t-57.5 73t-102 57.5
t-155 26q-106 0 -190.5 -41.5t-138 -112.5t-81.5 -163t-28 -197q0 -106 28 -198t82.5 -163t141 -112t196.5 -41q157 0 261 87t130 243h-411v243h725v-88q0 -185 -55.5 -331t-153 -237t-225 -138t-277.5 -47zM657 1821q0 78 53.5 130t137.5 52q81 0 134.5 -52.5t53.5 -129.5
q0 -75 -53.5 -128t-134.5 -53q-83 0 -137 53.5t-54 127.5z" />
    <glyph glyph-name="gdotaccent" unicode="&#x121;" horiz-adv-x="1292" 
d="M655 -442q-83 0 -154.5 12.5t-122 34t-91.5 49t-66.5 58t-44.5 61t-28 58t-14 49t-6 34.5l-1 12h297q1 -7 3.5 -17.5t18 -38.5t38 -49.5t67.5 -39t104 -17.5q131 0 191.5 85.5t60.5 224.5v116q-106 -157 -334 -157q-119 0 -214.5 44.5t-154.5 120t-90.5 171t-31.5 200.5
t31.5 200t90.5 171t154.5 121t214.5 45q230 0 334 -162v141h303v-1017q0 -109 -34 -200.5t-100 -161t-174 -109t-247 -39.5zM399 569q0 -135 66.5 -225t189.5 -90q122 0 189 90t67 225q0 134 -67 225t-189 91q-123 0 -189.5 -91t-66.5 -225zM465 1391q0 78 53 130t137 52
q81 0 135 -52.5t54 -129.5q0 -75 -54 -128t-135 -53q-83 0 -136.5 53.5t-53.5 127.5z" />
    <glyph glyph-name="uni0122" unicode="&#x122;" horiz-adv-x="1632" 
d="M856 -20q-159 0 -291.5 44t-223.5 118.5t-154 174.5t-92 211t-29 230q0 118 29 229.5t91.5 211.5t152.5 174.5t221 118.5t288 44q103 0 192 -17t152.5 -46t117 -66.5t88 -79t61 -83t40 -79t22 -66.5t11.5 -46l2 -17h-334q-2 10 -6 26t-27.5 57.5t-57.5 73t-102 57.5
t-155 26q-106 0 -190.5 -41.5t-138 -112.5t-81.5 -163t-28 -197q0 -106 28 -198t82.5 -163t141 -112t196.5 -41q157 0 261 87t130 243h-411v243h725q8 2 26 2q70 0 117 -44t47 -115q0 -60 -38.5 -132t-133.5 -206l-14 -21h-105q-92 -161 -251 -243t-359 -82zM1507 389
l72 123q-17 0 -35 6q-8 -43 -37 -129z" />
    <glyph glyph-name="uni0123" unicode="&#x123;" horiz-adv-x="1286" 
d="M655 -442q-83 0 -154.5 12.5t-122 34t-91.5 49t-66.5 58t-44.5 61t-28 58t-14 49t-6 34.5l-1 12h297q1 -7 3.5 -17.5t18 -38.5t38 -49.5t67.5 -39t104 -17.5q131 0 191.5 85.5t60.5 224.5v116q-106 -157 -334 -157q-119 0 -214.5 44.5t-154.5 120t-90.5 171t-31.5 200.5
t31.5 200t90.5 171t154.5 121t214.5 45q230 0 334 -162v141h303v-1017q0 -109 -34 -200.5t-100 -161t-174 -109t-247 -39.5zM399 569q0 -135 66.5 -225t189.5 -90q122 0 189 90t67 225q0 134 -67 225t-189 91q-123 0 -189.5 -91t-66.5 -225zM494 1384q0 60 38.5 132
t133.5 206l14 21h115l-123 -207q61 -3 103 -48t42 -108q0 -67 -46 -111t-114 -44q-70 0 -116.5 44t-46.5 115z" />
    <glyph glyph-name="Hbar" unicode="&#x126;" horiz-adv-x="1505" 
d="M-14 1122v234h116v160h338v-160h609v160h337v-160h134v-234h-134v-1122h-337v627h-609v-627h-338v1122h-116zM440 913h609v209h-609v-209z" />
    <glyph glyph-name="hbar" unicode="&#x127;" horiz-adv-x="1196" 
d="M-35 1176v204h137v176h312v-176h297v-204h-297v-254q15 27 37.5 53.5t62.5 58.5t102 52t136 20q97 0 171 -32t118 -88t65.5 -125.5t21.5 -149.5v-711h-311v651q0 100 -45 157.5t-139 57.5q-113 0 -166 -78t-53 -204v-584h-312v1176h-137z" />
    <glyph glyph-name="Itilde" unicode="&#x128;" horiz-adv-x="538" 
d="M100 0v1516h338v-1516h-338zM-94 1663q-1 59 8.5 107t31.5 90t64 65t101 23q51 0 96.5 -17.5t72 -39t58 -39t57.5 -17.5q61 0 64 102h164q1 -59 -8.5 -107t-31.5 -89.5t-64 -64.5t-101 -23q-50 0 -94.5 17.5t-71 38.5t-58.5 38.5t-59 17.5q-62 0 -65 -102h-164z" />
    <glyph glyph-name="itilde" unicode="&#x129;" horiz-adv-x="499" 
d="M90 0v1085h311v-1085h-311zM-109 1233q-1 59 8.5 107t31.5 90t64 65t101 23q51 0 96.5 -17.5t72.5 -39t58.5 -39t57.5 -17.5q60 0 63 102h164q1 -59 -8.5 -107t-31.5 -89.5t-64 -64.5t-101 -23q-50 0 -94 17.5t-70.5 38.5t-58.5 38.5t-59 17.5q-63 0 -66 -102h-164z" />
    <glyph glyph-name="Imacron" unicode="&#x12a;" horiz-adv-x="538" 
d="M100 0v1516h338v-1516h-338zM-70 1690v184h668v-184h-668z" />
    <glyph glyph-name="imacron" unicode="&#x12b;" horiz-adv-x="559" 
d="M90 0v1085h311v-1085h-311zM-55 1260v184h667v-184h-667z" />
    <glyph glyph-name="Idotaccent" unicode="&#x130;" horiz-adv-x="538" 
d="M100 0v1516h338v-1516h-338zM74 1821q0 78 53 130t137 52q81 0 135 -52.5t54 -129.5q0 -75 -54 -128t-135 -53q-83 0 -136.5 53.5t-53.5 127.5z" />
    <glyph glyph-name="dotlessi" unicode="&#x131;" horiz-adv-x="491" 
d="M90 0v1085h311v-1085h-311z" />
    <glyph glyph-name="uni0136" unicode="&#x136;" horiz-adv-x="1458" 
d="M991 0l-553 705v-705h-338v1516h338v-674l543 674h395l-618 -728l641 -788h-408zM1300 668q0 67 46 111t114 44q70 0 117 -44t47 -115q0 -60 -38.5 -132t-133.5 -206l-14 -21h-115l123 207q-62 3 -104 48t-42 108z" />
    <glyph glyph-name="uni0137" unicode="&#x137;" horiz-adv-x="1208" 
d="M797 0l-385 541v-541h-312v1556h312v-946l379 475h360l-442 -495l458 -590h-370zM1145 668q0 67 46 111t114 44q70 0 116.5 -44t46.5 -115q0 -60 -38.5 -132t-133.5 -206l-14 -21h-115l123 207q-61 3 -103 48t-42 108z" />
    <glyph glyph-name="Lacute" unicode="&#x139;" horiz-adv-x="1241" 
d="M100 0v1516h338v-1237h709v-279h-1047zM211 1655l106 313h338l-219 -315z" />
    <glyph glyph-name="lacute" unicode="&#x13a;" horiz-adv-x="512" 
d="M100 0v1556h312v-1556h-312zM111 1698l106 313h338l-219 -315z" />
    <glyph glyph-name="uni013B" unicode="&#x13b;" horiz-adv-x="1222" 
d="M100 0v1516h338v-1237h709v-279h-1047zM1227 668q0 67 45.5 111t113.5 44q70 0 117 -44t47 -115q0 -60 -38.5 -132t-133.5 -206l-14 -21h-115l123 207q-61 3 -103 48t-42 108z" />
    <glyph glyph-name="uni013C" unicode="&#x13c;" horiz-adv-x="512" 
d="M100 0v1556h312v-1556h-312zM827 668q0 67 46 111t114 44q70 0 117 -44t47 -115q0 -60 -38.5 -132t-133.5 -206l-14 -21h-115l123 207q-62 3 -104 48t-42 108z" />
    <glyph glyph-name="Lcaron" unicode="&#x13d;" horiz-adv-x="1210" 
d="M100 0v1516h338v-1237h709v-279h-1047zM-49 1956h233l121 -133l123 133h234l-232 -303h-250z" />
    <glyph glyph-name="lcaron" unicode="&#x13e;" horiz-adv-x="929" 
d="M100 0v1556h312v-1556h-312zM561 987l21 529h305l-105 -529h-221z" />
    <glyph glyph-name="Lslash" unicode="&#x141;" horiz-adv-x="1130" 
d="M-53 524v232l129 53v707h338v-566l307 129v-231l-307 -129v-440h708v-279h-1046v578z" />
    <glyph glyph-name="lslash" unicode="&#x142;" horiz-adv-x="745" 
d="M-14 512v231l176 74v739h311v-610l287 121v-233l-287 -119v-715h-311v586z" />
    <glyph glyph-name="Nacute" unicode="&#x143;" horiz-adv-x="1505" 
d="M100 0v1516h369l608 -1014v1014h328v-1516h-371l-606 1016v-1016h-328zM596 1655l106 313h338l-219 -315z" />
    <glyph glyph-name="nacute" unicode="&#x144;" horiz-adv-x="1214" 
d="M100 0v1085h312v-163q15 27 37.5 53.5t62.5 58.5t102 52t136 20q97 0 171 -32t118 -88t65.5 -125.5t21.5 -149.5v-711h-311v651q0 100 -45 157.5t-139 57.5q-113 0 -166 -78t-53 -204v-584h-312zM463 1225l106 313h338l-219 -315z" />
    <glyph glyph-name="uni0145" unicode="&#x145;" horiz-adv-x="1505" 
d="M100 0v1516h369l608 -1014v1014h328v-707q28 14 68 14q70 0 116.5 -44t46.5 -115q0 -60 -38.5 -132t-133.5 -206l-14 -21h-45v-305h-371l-606 1016v-1016h-328zM1405 422l53 90q-30 3 -53 12v-102z" />
    <glyph glyph-name="uni0146" unicode="&#x146;" horiz-adv-x="1226" 
d="M100 0v1085h312v-163q15 27 37.5 53.5t62.5 58.5t102 52t136 20q97 0 171 -32t118 -88t65.5 -125.5t21.5 -149.5v-711h-311v651q0 100 -45 157.5t-139 57.5q-113 0 -166 -78t-53 -204v-584h-312zM1186 668q0 67 46 111t114 44q70 0 116.5 -44t46.5 -115q0 -60 -38.5 -132
t-133.5 -206l-14 -21h-115l123 207q-61 3 -103 48t-42 108z" />
    <glyph glyph-name="Ncaron" unicode="&#x147;" horiz-adv-x="1505" 
d="M100 0v1516h369l608 -1014v1014h328v-1516h-371l-606 1016v-1016h-328zM387 1956h234l120 -133l123 133h234l-232 -303h-250z" />
    <glyph glyph-name="ncaron" unicode="&#x148;" horiz-adv-x="1226" 
d="M100 0v1085h312v-163q15 27 37.5 53.5t62.5 58.5t102 52t136 20q97 0 171 -32t118 -88t65.5 -125.5t21.5 -149.5v-711h-311v651q0 100 -45 157.5t-139 57.5q-113 0 -166 -78t-53 -204v-584h-312zM258 1526h234l120 -133l123 133h234l-232 -303h-250z" />
    <glyph glyph-name="Omacron" unicode="&#x14c;" horiz-adv-x="1691" 
d="M846 -20q-151 0 -279 42t-219 115.5t-155.5 172.5t-95.5 213t-31 237q0 122 31 235t95.5 211.5t155.5 172t219 115.5t279 42t279.5 -42t219.5 -115.5t155 -172t95 -211.5t31 -235q0 -123 -31 -237t-95 -213t-155 -172.5t-219.5 -115.5t-279.5 -42zM418 760
q0 -138 48.5 -250t147 -181t232.5 -69t233.5 69t149 181t49.5 250q0 136 -49.5 247t-149 179.5t-233.5 68.5t-232.5 -68.5t-147 -179.5t-48.5 -247zM512 1710v184h668v-184h-668z" />
    <glyph glyph-name="omacron" unicode="&#x14d;" horiz-adv-x="1310" 
d="M655 -20q-178 0 -309.5 75.5t-197.5 202t-66 285.5t66 285.5t197.5 202t309.5 75.5t310 -75.5t198 -202t66 -285.5t-66 -285.5t-198 -202t-310 -75.5zM322 1260v184h667v-184h-667zM399 543q0 -147 68.5 -237.5t187.5 -90.5q120 0 189 90.5t69 237.5t-69 237t-189 90
t-188 -90t-68 -237z" />
    <glyph glyph-name="Ohungarumlaut" unicode="&#x150;" horiz-adv-x="1691" 
d="M846 -20q-151 0 -279 42t-219 115.5t-155.5 172.5t-95.5 213t-31 237q0 122 31 235t95.5 211.5t155.5 172t219 115.5t279 42t279.5 -42t219.5 -115.5t155 -172t95 -211.5t31 -235q0 -123 -31 -237t-95 -213t-155 -172.5t-219.5 -115.5t-279.5 -42zM418 760
q0 -138 48.5 -250t147 -181t232.5 -69t233.5 69t149 181t49.5 250q0 136 -49.5 247t-149 179.5t-233.5 68.5t-232.5 -68.5t-147 -179.5t-48.5 -247zM545 1688l96 368h277l-156 -370zM924 1688l96 368h276l-153 -370z" />
    <glyph glyph-name="ohungarumlaut" unicode="&#x151;" horiz-adv-x="1310" 
d="M655 -20q-178 0 -309.5 75.5t-197.5 202t-66 285.5t66 285.5t197.5 202t309.5 75.5t310 -75.5t198 -202t66 -285.5t-66 -285.5t-198 -202t-310 -75.5zM354 1237l97 369h276l-156 -371zM399 543q0 -147 68.5 -237.5t187.5 -90.5q120 0 189 90.5t69 237.5t-69 237t-189 90
t-188 -90t-68 -237zM733 1237l96 369h277l-154 -371z" />
    <glyph glyph-name="OE" unicode="&#x152;" horiz-adv-x="2068" 
d="M1991 1516v-275h-719v-340h626v-264h-626v-363h729v-274h-1135q-160 0 -293 42.5t-225 115t-155.5 170t-93 206t-29.5 224.5t29.5 224.5t93 206t155.5 170t225 115t293 42.5h1125zM387 756q0 -93 28 -176t84 -152.5t151 -110.5t218 -41h86v959h-86q-99 0 -180.5 -27
t-136.5 -72.5t-92.5 -107.5t-54.5 -130t-17 -142z" />
    <glyph glyph-name="oe" unicode="&#x153;" horiz-adv-x="2011" 
d="M633 -20q-130 0 -238 46t-177.5 124t-107.5 179.5t-38 213.5t38 213.5t107.5 179.5t177.5 124t238 46q262 0 401 -193q132 193 391 193q233 0 373.5 -150t140.5 -419v-76h-741q6 -105 70.5 -173.5t171.5 -68.5q47 0 85.5 13.5t59.5 32.5t35.5 38.5t19.5 32.5l5 14h286
q-1 -8 -4 -21t-17.5 -51.5t-35 -73.5t-59.5 -78t-88 -73.5t-124.5 -51.5t-164.5 -21q-268 0 -402 192q-138 -192 -403 -192zM377 543q0 -130 69 -220t187 -90q117 0 186.5 90t69.5 220t-69.5 219.5t-186.5 89.5q-118 0 -187 -89.5t-69 -219.5zM1198 657h442
q-4 103 -63.5 158t-149.5 55q-94 0 -156.5 -56.5t-72.5 -156.5z" />
    <glyph glyph-name="Racute" unicode="&#x154;" horiz-adv-x="1406" 
d="M100 0v1516h598q117 0 211.5 -26.5t157 -70.5t104.5 -105t60 -127t18 -138q0 -68 -16 -130t-50 -118.5t-91 -102t-134 -73.5l398 -625h-385l-334 582h-199v-582h-338zM438 823h234q65 0 112.5 19t73 51t37.5 68t12 77q0 42 -12 78.5t-37.5 68.5t-73 51t-112.5 19h-234
v-432zM565 1655l107 313h338l-219 -315z" />
    <glyph glyph-name="racute" unicode="&#x155;" horiz-adv-x="823" 
d="M100 0v1085h303v-180q42 96 106 148.5t177 52.5q18 0 35.5 -2t26.5 -4l8 -2v-281q-33 6 -80 6q-135 0 -201.5 -66.5t-66.5 -236.5v-520h-308zM233 1225l107 313h338l-219 -315z" />
    <glyph glyph-name="uni0156" unicode="&#x156;" horiz-adv-x="1406" 
d="M100 0v1516h598q117 0 211.5 -26.5t157 -70.5t104.5 -105t60 -127t18 -138q0 -68 -16 -130t-50 -118.5t-91 -102t-134 -73.5l398 -625h-385l-334 582h-199v-582h-338zM438 823h234q65 0 112.5 19t73 51t37.5 68t12 77q0 42 -12 78.5t-37.5 68.5t-73 51t-112.5 19h-234
v-432zM1239 668q0 67 46 111t114 44q70 0 117 -44t47 -115q0 -60 -38.5 -132t-133.5 -206l-15 -21h-114l122 207q-61 3 -103 48t-42 108z" />
    <glyph glyph-name="uni0157" unicode="&#x157;" horiz-adv-x="819" 
d="M100 0v1085h303v-180q42 96 106 148.5t177 52.5q18 0 35.5 -2t26.5 -4l8 -2v-281q-33 6 -80 6q-135 0 -201.5 -66.5t-66.5 -236.5v-520h-308zM793 668q0 67 45.5 111t113.5 44q70 0 117 -44t47 -115q0 -60 -38.5 -132t-133.5 -206l-14 -21h-115l123 207q-61 3 -103 48
t-42 108z" />
    <glyph glyph-name="Rcaron" unicode="&#x158;" horiz-adv-x="1402" 
d="M100 0v1516h598q117 0 211.5 -26.5t157 -70.5t104.5 -105t60 -127t18 -138q0 -68 -16 -130t-50 -118.5t-91 -102t-134 -73.5l398 -625h-385l-334 582h-199v-582h-338zM305 1956h234l120 -133l123 133h234l-232 -303h-249zM438 823h234q65 0 112.5 19t73 51t37.5 68t12 77
q0 42 -12 78.5t-37.5 68.5t-73 51t-112.5 19h-234v-432z" />
    <glyph glyph-name="rcaron" unicode="&#x159;" horiz-adv-x="819" 
d="M100 0v1085h303v-180q42 96 106 148.5t177 52.5q18 0 35.5 -2t26.5 -4l8 -2v-281q-33 6 -80 6q-135 0 -201.5 -66.5t-66.5 -236.5v-520h-308zM23 1526h233l121 -133l123 133h233l-231 -303h-250z" />
    <glyph glyph-name="Sacute" unicode="&#x15a;" horiz-adv-x="1388" 
d="M719 -20q-136 0 -246 29t-176.5 75.5t-115.5 103t-70.5 113t-33.5 103t-13 75.5l-1 29h336q0 -6 0.5 -16t6 -38.5t16.5 -54.5t34.5 -57.5t56 -54.5t86 -38.5t120.5 -15.5q122 0 192 58.5t70 142.5q0 67 -49 108.5t-150 61.5l-211 41q-233 45 -347.5 149t-114.5 277
q0 201 156.5 333t424.5 132q98 0 181 -16.5t141 -44t105 -63.5t75.5 -76t49.5 -79.5t30.5 -75.5t15 -63.5t6.5 -43.5v-17h-315q0 5 -0.5 13t-6.5 32t-16 45.5t-32 48t-51 45.5t-76.5 32t-106.5 13q-115 0 -180.5 -55t-65.5 -133q0 -65 47 -106t154 -62l219 -41
q225 -43 340 -150.5t115 -277.5q0 -97 -40.5 -184t-114.5 -153t-189.5 -105t-255.5 -39zM629 1655l106 313h338l-219 -315z" />
    <glyph glyph-name="sacute" unicode="&#x15b;" horiz-adv-x="1091" 
d="M567 -20q-82 0 -152 13t-119 35t-88.5 50.5t-64 60t-42.5 63t-26 60t-12.5 50.5t-4.5 35l-1 13h291q0 -7 2 -18.5t14.5 -41t34 -52.5t67.5 -41.5t107 -18.5q80 0 125 36t45 87q0 44 -32 68.5t-101 38.5l-157 28q-363 66 -363 312q0 151 123.5 249.5t325.5 98.5
q75 0 139 -12t109.5 -32.5t82 -47t59.5 -55.5t40.5 -58t25.5 -55.5t12.5 -47t5.5 -32.5l1 -12h-269q0 6 -1.5 16.5t-12.5 36.5t-29.5 45.5t-59 36t-95.5 16.5q-81 0 -123.5 -33.5t-42.5 -80.5q0 -44 36 -69t115 -40l142 -27q175 -31 268.5 -111t93.5 -206
q0 -156 -127.5 -257t-341.5 -101zM442 1223l107 313h338l-219 -315z" />
    <glyph glyph-name="Scedilla" unicode="&#x15e;" horiz-adv-x="1382" 
d="M641 -588q-34 0 -75.5 4t-65.5 8l-25 3v165q89 -12 150 -12q81 0 115 24.5t34 59.5q0 30 -23 49t-63 19q-27 0 -55.5 -10t-42.5 -20l-15 -9l-108 110l125 183q-110 13 -198.5 48.5t-142.5 82.5t-93 100.5t-56.5 105t-27.5 93t-10 66.5l-1 26h336q0 -6 0.5 -16t6 -38.5
t16.5 -54.5t34.5 -57.5t56 -54.5t86 -38.5t120.5 -15.5q122 0 192 58.5t70 142.5q0 67 -49 108.5t-150 61.5l-211 41q-233 45 -347.5 149t-114.5 277q0 201 156.5 333t424.5 132q98 0 181 -16.5t141 -44t105 -63.5t75.5 -76t49.5 -79.5t30.5 -75.5t15 -63.5t6.5 -43.5v-17
h-315q0 5 -0.5 13t-6.5 32t-16 45.5t-32 48t-51 45.5t-76.5 32t-106.5 13q-115 0 -180.5 -55t-65.5 -133q0 -65 47 -106t154 -62l219 -41q225 -43 340 -150.5t115 -277.5q0 -92 -35.5 -174.5t-102 -147t-169 -106.5t-228.5 -51l-79 -113q28 4 45 4q97 0 156 -60.5t59 -150.5
q0 -103 -83 -176.5t-241 -73.5z" />
    <glyph glyph-name="scedilla" unicode="&#x15f;" horiz-adv-x="1105" 
d="M500 -584q-34 0 -75.5 4t-66.5 8l-24 3v166q88 -13 149 -13q81 0 115.5 24.5t34.5 59.5q0 30 -23 49t-63 19q-27 0 -55.5 -10t-43.5 -20l-14 -9l-108 110l123 181q-80 11 -145 37.5t-105 60t-69 71.5t-42.5 73.5t-21 65t-8.5 46.5l-1 18h291q0 -7 2 -18.5t14.5 -41
t34 -52.5t67.5 -41.5t107 -18.5q80 0 125 36t45 87q0 44 -32 68.5t-101 38.5l-157 28q-363 66 -363 312q0 151 123.5 249.5t325.5 98.5q75 0 139 -12t109.5 -32.5t82 -47t59.5 -55.5t40.5 -58t25.5 -55.5t12.5 -47t5.5 -32.5l1 -12h-269q0 6 -1.5 16.5t-12.5 36.5
t-29.5 45.5t-59 36t-95.5 16.5q-81 0 -123.5 -33.5t-42.5 -80.5q0 -44 36 -69t115 -40l142 -27q175 -31 268.5 -111t93.5 -206q0 -140 -106 -238t-289 -116l-78 -111q28 4 45 4q97 0 156 -60.5t59 -150.5q0 -103 -82.5 -176.5t-240.5 -73.5z" />
    <glyph glyph-name="Scaron" unicode="&#x160;" horiz-adv-x="1382" 
d="M719 -20q-136 0 -246 29t-176.5 75.5t-115.5 103t-70.5 113t-33.5 103t-13 75.5l-1 29h336q0 -6 0.5 -16t6 -38.5t16.5 -54.5t34.5 -57.5t56 -54.5t86 -38.5t120.5 -15.5q122 0 192 58.5t70 142.5q0 67 -49 108.5t-150 61.5l-211 41q-233 45 -347.5 149t-114.5 277
q0 201 156.5 333t424.5 132q98 0 181 -16.5t141 -44t105 -63.5t75.5 -76t49.5 -79.5t30.5 -75.5t15 -63.5t6.5 -43.5v-17h-315q0 5 -0.5 13t-6.5 32t-16 45.5t-32 48t-51 45.5t-76.5 32t-106.5 13q-115 0 -180.5 -55t-65.5 -133q0 -65 47 -106t154 -62l219 -41
q225 -43 340 -150.5t115 -277.5q0 -97 -40.5 -184t-114.5 -153t-189.5 -105t-255.5 -39zM336 1956h233l121 -133l123 133h234l-232 -303h-250z" />
    <glyph glyph-name="scaron" unicode="&#x161;" horiz-adv-x="1105" 
d="M567 -20q-82 0 -152 13t-119 35t-88.5 50.5t-64 60t-42.5 63t-26 60t-12.5 50.5t-4.5 35l-1 13h291q0 -7 2 -18.5t14.5 -41t34 -52.5t67.5 -41.5t107 -18.5q80 0 125 36t45 87q0 44 -32 68.5t-101 38.5l-157 28q-363 66 -363 312q0 151 123.5 249.5t325.5 98.5
q75 0 139 -12t109.5 -32.5t82 -47t59.5 -55.5t40.5 -58t25.5 -55.5t12.5 -47t5.5 -32.5l1 -12h-205l-80 -111q149 -36 228 -113t79 -192q0 -156 -127.5 -257t-341.5 -101zM399 846h13l123 -131l120 131h52q-55 59 -160 59q-109 0 -148 -59z" />
    <glyph glyph-name="uni0162" unicode="&#x162;" horiz-adv-x="1298" 
d="M479 0v1231h-422v285h1184v-285h-422v-1231h-340zM424 -197l133 195h197l-92 -129q28 4 45 4q97 0 156 -60.5t59 -150.5q0 -103 -83 -176.5t-241 -73.5q-34 0 -75.5 4t-66.5 8l-24 3v165q89 -12 150 -12q81 0 115 24.5t34 59.5q0 30 -23 49t-63 19q-27 0 -55.5 -10
t-43.5 -20l-14 -9z" />
    <glyph glyph-name="uni0163" unicode="&#x163;" horiz-adv-x="819" 
d="M47 829v256h160v254h301v-254h250v-256h-250v-426q0 -83 37 -123t119 -40q24 0 48.5 6t37.5 12l12 6v-252q-61 -30 -174 -32l-80 -111q28 4 45 4q97 0 156 -60.5t59 -150.5q0 -103 -83 -176.5t-241 -73.5q-34 0 -75 4t-65 8l-25 3v165q88 -12 149 -12q81 0 115.5 24.5
t34.5 59.5q0 30 -23 49t-63 19q-27 0 -55.5 -10t-42.5 -20l-15 -9l-109 110l133 195h31q-227 66 -227 364v467h-160z" />
    <glyph glyph-name="Tcaron" unicode="&#x164;" horiz-adv-x="1298" 
d="M479 0v1231h-422v285h1184v-285h-422v-1231h-340zM293 1956h233l121 -133l123 133h234l-232 -303h-250z" />
    <glyph glyph-name="tcaron" unicode="&#x165;" horiz-adv-x="1236" 
d="M575 -20q-85 0 -150 21t-105.5 56t-66.5 85.5t-36 103.5t-10 116v467h-160v256h160v254h301v-254h250v-256h-250v-426q0 -83 37 -123t119 -40q24 0 48.5 6t37.5 12l12 6v-252q-66 -32 -187 -32zM868 987l21 529h305l-104 -529h-222z" />
    <glyph glyph-name="Tbar" unicode="&#x166;" horiz-adv-x="1298" 
d="M160 651v213h319v367h-422v285h1184v-285h-422v-367h426v-213h-426v-651h-340v651h-319z" />
    <glyph glyph-name="tbar" unicode="&#x167;" horiz-adv-x="854" 
d="M82 483v219h125v127h-160v256h160v254h301v-254h250v-256h-250v-127h215v-219h-215v-80q0 -83 37 -123t119 -40q24 0 48.5 6t37.5 12l12 6v-252q-66 -32 -187 -32q-85 0 -150 21t-105.5 56t-66.5 85.5t-36 103.5t-10 116v121h-125z" />
    <glyph glyph-name="Utilde" unicode="&#x168;" horiz-adv-x="1443" 
d="M735 -20q-105 0 -197.5 21t-173.5 67.5t-139 115.5t-91.5 169.5t-33.5 224.5v938h336v-938q0 -143 75.5 -232.5t223.5 -89.5q147 0 223 89.5t76 232.5v938h336v-938q0 -124 -33.5 -224.5t-91.5 -169.5t-139 -115.5t-173.5 -67.5t-197.5 -21zM360 1663q-1 59 8.5 107
t31.5 90t64 65t101 23q51 0 96.5 -17.5t72.5 -39t58.5 -39t57.5 -17.5q60 0 63 102h164q1 -59 -8.5 -107t-31.5 -89.5t-64 -64.5t-101 -23q-50 0 -94 17.5t-70.5 38.5t-58.5 38.5t-59 17.5q-63 0 -66 -102h-164z" />
    <glyph glyph-name="utilde" unicode="&#x169;" horiz-adv-x="1204" 
d="M457 -20q-82 0 -146 23.5t-103 60.5t-64 87.5t-34.5 99t-9.5 99.5v735h312v-661q0 -94 42 -149.5t130 -55.5q107 0 158 77t51 198v591h311v-1085h-311v170q-12 -24 -27 -45.5t-44 -49.5t-63.5 -47.5t-87.5 -33.5t-114 -14zM240 1233q-4 285 204 285q51 0 96.5 -17.5
t72.5 -39t58.5 -39t57.5 -17.5q61 0 64 102h163q4 -284 -204 -284q-50 0 -94.5 17.5t-71 38.5t-58.5 38.5t-59 17.5q-63 0 -66 -102h-163z" />
    <glyph glyph-name="Umacron" unicode="&#x16a;" horiz-adv-x="1443" 
d="M735 -20q-105 0 -197.5 21t-173.5 67.5t-139 115.5t-91.5 169.5t-33.5 224.5v938h336v-938q0 -143 75.5 -232.5t223.5 -89.5q147 0 223 89.5t76 232.5v938h336v-938q0 -124 -33.5 -224.5t-91.5 -169.5t-139 -115.5t-173.5 -67.5t-197.5 -21zM385 1690v184h668v-184h-668z
" />
    <glyph glyph-name="umacron" unicode="&#x16b;" horiz-adv-x="1204" 
d="M457 -20q-82 0 -146 23.5t-103 60.5t-64 87.5t-34.5 99t-9.5 99.5v735h312v-661q0 -94 42 -149.5t130 -55.5q107 0 158 77t51 198v591h311v-1085h-311v170q-12 -24 -27 -45.5t-44 -49.5t-63.5 -47.5t-87.5 -33.5t-114 -14zM264 1260v184h668v-184h-668z" />
    <glyph glyph-name="Uring" unicode="&#x16e;" horiz-adv-x="1443" 
d="M735 -20q-105 0 -197.5 21t-173.5 67.5t-139 115.5t-91.5 169.5t-33.5 224.5v938h336v-938q0 -143 75.5 -232.5t223.5 -89.5q147 0 223 89.5t76 232.5v938h336v-938q0 -124 -33.5 -224.5t-91.5 -169.5t-139 -115.5t-173.5 -67.5t-197.5 -21zM438 1911q0 115 81.5 196.5
t197.5 81.5q115 0 196.5 -81.5t81.5 -196.5t-81 -196t-197 -81t-197.5 81t-81.5 196zM604 1911q0 -46 33.5 -78.5t79.5 -32.5t79 32.5t33 78.5t-33 78t-79 32t-79.5 -32.5t-33.5 -77.5z" />
    <glyph glyph-name="uring" unicode="&#x16f;" horiz-adv-x="1204" 
d="M457 -20q-82 0 -146 23.5t-103 60.5t-64 87.5t-34.5 99t-9.5 99.5v735h312v-661q0 -94 42 -149.5t130 -55.5q107 0 158 77t51 198v591h311v-1085h-311v170q-12 -24 -27 -45.5t-44 -49.5t-63.5 -47.5t-87.5 -33.5t-114 -14zM317 1481q0 115 81.5 196.5t197.5 81.5
t197 -81.5t81 -196.5t-81 -196t-197 -81t-197.5 81t-81.5 196zM483 1481q0 -46 33.5 -78.5t79.5 -32.5t79.5 32.5t33.5 78.5q0 45 -33.5 77.5t-79.5 32.5t-79.5 -32.5t-33.5 -77.5z" />
    <glyph glyph-name="Uhungarumlaut" unicode="&#x170;" horiz-adv-x="1470" 
d="M735 -20q-105 0 -197.5 21t-173.5 67.5t-139 115.5t-91.5 169.5t-33.5 224.5v938h336v-938q0 -143 75.5 -232.5t223.5 -89.5q147 0 223 89.5t76 232.5v938h336v-938q0 -124 -33.5 -224.5t-91.5 -169.5t-139 -115.5t-173.5 -67.5t-197.5 -21zM428 1667l96 369h277
l-156 -371zM807 1667l96 369h277l-154 -371z" />
    <glyph glyph-name="uhungarumlaut" unicode="&#x171;" horiz-adv-x="1204" 
d="M457 -20q-82 0 -146 23.5t-103 60.5t-64 87.5t-34.5 99t-9.5 99.5v735h312v-661q0 -94 42 -149.5t130 -55.5q107 0 158 77t51 198v591h311v-1085h-311v170q-12 -24 -27 -45.5t-44 -49.5t-63.5 -47.5t-87.5 -33.5t-114 -14zM295 1237l96 369h277l-156 -371zM674 1237
l96 369h277l-154 -371z" />
    <glyph glyph-name="Wcircumflex" unicode="&#x174;" horiz-adv-x="2093" 
d="M424 0l-387 1516h340l252 -1096l272 1096h297l272 -1092l252 1092h334l-387 -1516h-383l-244 997l-245 -997h-373zM692 1630l230 303h249l232 -303h-234l-122 133l-121 -133h-234z" />
    <glyph glyph-name="wcircumflex" unicode="&#x175;" horiz-adv-x="1789" 
d="M383 0l-328 1085h305l203 -735l211 735h244l213 -733l203 733h301l-330 -1085h-326l-190 678l-187 -678h-319zM489 1200l230 303h250l231 -303h-233l-123 133l-121 -133h-234z" />
    <glyph glyph-name="Ycircumflex" unicode="&#x176;" horiz-adv-x="1445" 
d="M555 0v567l-522 949h373l331 -652l332 652h344l-520 -949v-567h-338zM371 1628l229 303h250l231 -303h-233l-123 133l-121 -133h-233z" />
    <glyph glyph-name="ycircumflex" unicode="&#x177;" horiz-adv-x="1202" 
d="M254 -416l192 461l-405 1040h317l254 -692l244 692h305l-590 -1501h-317zM246 1200l229 303h250l231 -303h-233l-123 133l-121 -133h-233z" />
    <glyph glyph-name="Ydieresis" unicode="&#x178;" horiz-adv-x="1445" 
d="M555 0v567l-522 949h373l331 -652l332 652h344l-520 -949v-567h-338zM326 1819q0 74 51.5 124t132.5 50q78 0 129 -50t51 -124q0 -73 -51.5 -123.5t-128.5 -50.5q-80 0 -132 51t-52 123zM762 1819q0 75 50.5 124.5t131.5 49.5q78 0 130 -50t52 -124q0 -73 -52.5 -123.5
t-129.5 -50.5q-80 0 -131 51t-51 123z" />
    <glyph glyph-name="Zacute" unicode="&#x179;" horiz-adv-x="1335" 
d="M84 0v258l760 969h-760v289h1190v-259l-762 -968h770v-289h-1198zM545 1655l106 313h338l-219 -315z" />
    <glyph glyph-name="zacute" unicode="&#x17a;" horiz-adv-x="1067" 
d="M90 0v225l551 606h-537v254h916v-225l-551 -606h557v-254h-936zM412 1223l106 313h338l-219 -315z" />
    <glyph glyph-name="Zdotaccent" unicode="&#x17b;" horiz-adv-x="1357" 
d="M84 0v258l760 969h-760v289h1190v-259l-762 -968h770v-289h-1198zM446 1821q0 78 53.5 130t137.5 52q81 0 134.5 -52.5t53.5 -129.5q0 -75 -53.5 -128t-134.5 -53q-83 0 -137 53.5t-54 127.5z" />
    <glyph glyph-name="zdotaccent" unicode="&#x17c;" horiz-adv-x="1067" 
d="M90 0v225l551 606h-537v254h916v-225l-551 -606h557v-254h-936zM315 1389q0 78 53.5 130t137.5 52q81 0 134.5 -52.5t53.5 -129.5q0 -75 -53.5 -128t-134.5 -53q-83 0 -137 53.5t-54 127.5z" />
    <glyph glyph-name="Zcaron" unicode="&#x17d;" horiz-adv-x="1366" 
d="M84 0v258l760 969h-760v289h1190v-259l-762 -968h770v-289h-1198zM283 1956h233l121 -133l123 133h233l-231 -303h-250z" />
    <glyph glyph-name="zcaron" unicode="&#x17e;" horiz-adv-x="1067" 
d="M90 0v225l551 606h-537v254h916v-225l-551 -606h557v-254h-936zM152 1524h233l121 -133l123 133h233l-231 -303h-250z" />
    <glyph glyph-name="Ohorn" unicode="&#x1a0;" horiz-adv-x="1718" 
d="M846 -20q-151 0 -279 42t-219 115.5t-155.5 172.5t-95.5 213t-31 237q0 153 50.5 291t145 247t245.5 173.5t337 64.5h2h31q53 -2 139 -11t129 -9q110 0 155 46t46 183h266q0 -347 -289 -350q148 -106 225.5 -274t77.5 -361q0 -123 -31 -237t-95 -213t-155 -172.5
t-219.5 -115.5t-279.5 -42zM418 760q0 -138 48.5 -250t147 -181t232.5 -69t233.5 69t149 181t49.5 250q0 136 -49.5 247t-149 179.5t-233.5 68.5t-232.5 -68.5t-147 -179.5t-48.5 -247z" />
    <glyph glyph-name="ohorn" unicode="&#x1a1;" horiz-adv-x="1355" 
d="M655 -20q-178 0 -309.5 75.5t-197.5 202t-66 285.5q0 158 65.5 284t196 202t305.5 77h2h4h39q36 -2 103 -9t104 -7q36 0 60.5 8.5t45.5 30.5t32 64.5t12 106.5h235q0 -308 -239 -327q89 -76 135.5 -187.5t46.5 -242.5q0 -159 -66 -285.5t-198 -202t-310 -75.5zM399 543
q0 -147 68.5 -237.5t187.5 -90.5q120 0 189 90.5t69 237.5t-69 237t-189 90t-188 -90t-68 -237z" />
    <glyph glyph-name="Uhorn" unicode="&#x1af;" horiz-adv-x="1443" 
d="M735 -20q-105 0 -197.5 21t-173.5 67.5t-139 115.5t-91.5 169.5t-33.5 224.5v938h336v-938q0 -143 75.5 -232.5t223.5 -89.5q147 0 223 89.5t76 232.5v804h-14v134h108q116 0 163 52t48 197h254q0 -158 -56 -245t-167 -117v-825q0 -124 -33.5 -224.5t-91.5 -169.5
t-139 -115.5t-173.5 -67.5t-197.5 -21z" />
    <glyph glyph-name="uhorn" unicode="&#x1b0;" horiz-adv-x="1204" 
d="M457 -20q-82 0 -146 23.5t-103 60.5t-64 87.5t-34.5 99t-9.5 99.5v735h312v-661q0 -94 42 -149.5t130 -55.5q107 0 158 77t51 198v464h-2v127h108q54 0 87 8.5t56.5 33.5t32.5 68.5t10 115.5h236q0 -158 -55 -237.5t-162 -102.5v-971h-311v170q-12 -24 -27 -45.5
t-44 -49.5t-63.5 -47.5t-87.5 -33.5t-114 -14z" />
    <glyph glyph-name="Gcaron" unicode="&#x1e6;" horiz-adv-x="1632" 
d="M856 -20q-159 0 -291.5 44t-223.5 118.5t-154 174.5t-92 211t-29 230q0 118 29 229.5t91.5 211.5t152.5 174.5t221 118.5t288 44q103 0 192 -17t152.5 -46t117 -66.5t88 -79t61 -83t40 -79t22 -66.5t11.5 -46l2 -17h-334q-2 10 -6 26t-27.5 57.5t-57.5 73t-102 57.5
t-155 26q-106 0 -190.5 -41.5t-138 -112.5t-81.5 -163t-28 -197q0 -106 28 -198t82.5 -163t141 -112t196.5 -41q157 0 261 87t130 243h-411v243h725v-88q0 -185 -55.5 -331t-153 -237t-225 -138t-277.5 -47zM500 1956h233l121 -133l123 133h233l-231 -303h-250z" />
    <glyph glyph-name="gcaron" unicode="&#x1e7;" horiz-adv-x="1286" 
d="M655 -442q-83 0 -154.5 12.5t-122 34t-91.5 49t-66.5 58t-44.5 61t-28 58t-14 49t-6 34.5l-1 12h297q1 -7 3.5 -17.5t18 -38.5t38 -49.5t67.5 -39t104 -17.5q131 0 191.5 85.5t60.5 224.5v116q-106 -157 -334 -157q-119 0 -214.5 44.5t-154.5 120t-90.5 171t-31.5 200.5
t31.5 200t90.5 171t154.5 121t214.5 45q230 0 334 -162v141h303v-1017q0 -109 -34 -200.5t-100 -161t-174 -109t-247 -39.5zM299 1526h233l121 -133l123 133h234l-232 -303h-250zM399 569q0 -135 66.5 -225t189.5 -90q122 0 189 90t67 225q0 134 -67 225t-189 91
q-123 0 -189.5 -91t-66.5 -225z" />
    <glyph glyph-name="uni0218" unicode="&#x218;" horiz-adv-x="1382" 
d="M719 -20q-136 0 -246 29t-176.5 75.5t-115.5 103t-70.5 113t-33.5 103t-13 75.5l-1 29h336q0 -6 0.5 -16t6 -38.5t16.5 -54.5t34.5 -57.5t56 -54.5t86 -38.5t120.5 -15.5q122 0 192 58.5t70 142.5q0 67 -49 108.5t-150 61.5l-211 41q-233 45 -347.5 149t-114.5 277
q0 201 156.5 333t424.5 132q98 0 181 -16.5t141 -44t105 -63.5t75.5 -76t49.5 -79.5t30.5 -75.5t15 -63.5t6.5 -43.5v-17h-315q0 5 -0.5 13t-6.5 32t-16 45.5t-32 48t-51 45.5t-76.5 32t-106.5 13q-115 0 -180.5 -55t-65.5 -133q0 -65 47 -106t154 -62l219 -41
q294 -55 400 -223v2q0 67 45.5 111t113.5 44q70 0 117 -44t47 -115q0 -60 -38.5 -132t-133.5 -206l-14 -21h-111q-55 -146 -203 -235.5t-368 -89.5zM1298 326l111 186q-58 3 -100 45q10 -52 10 -96q0 -71 -21 -135z" />
    <glyph glyph-name="uni0219" unicode="&#x219;" horiz-adv-x="1093" 
d="M567 -20q-82 0 -152 13t-119 35t-88.5 50.5t-64 60t-42.5 63t-26 60t-12.5 50.5t-4.5 35l-1 13h291q0 -7 2 -18.5t14.5 -41t34 -52.5t67.5 -41.5t107 -18.5q80 0 125 36t45 87q0 44 -32 68.5t-101 38.5l-157 28q-363 66 -363 312q0 151 123.5 249.5t325.5 98.5
q75 0 139 -12t109.5 -32.5t82 -47t59.5 -55.5t40.5 -58t25.5 -55.5t12.5 -47t5.5 -32.5l1 -12h-269q0 6 -1.5 16.5t-12.5 36.5t-29.5 45.5t-59 36t-95.5 16.5q-81 0 -123.5 -33.5t-42.5 -80.5q0 -44 36 -69t115 -40l142 -27q175 -31 268.5 -111t93.5 -206
q0 -156 -127.5 -257t-341.5 -101zM1116 670q0 67 46 111t114 44q70 0 117 -44t47 -115q0 -60 -38.5 -132t-133.5 -206l-15 -21h-114l123 207q-62 3 -104 48t-42 108z" />
    <glyph glyph-name="uni021A" unicode="&#x21a;" horiz-adv-x="1298" 
d="M479 0v1231h-422v285h1184v-285h-422v-1231h-340zM1221 668q0 67 45.5 111t113.5 44q70 0 117 -44t47 -115q0 -60 -38.5 -132t-133.5 -206l-14 -21h-115l123 207q-61 3 -103 48t-42 108z" />
    <glyph glyph-name="uni021B" unicode="&#x21b;" horiz-adv-x="819" 
d="M575 -20q-85 0 -150 21t-105.5 56t-66.5 85.5t-36 103.5t-10 116v467h-160v256h160v254h301v-254h250v-256h-250v-426q0 -83 37 -123t119 -40q24 0 48.5 6t37.5 12l12 6v-252q-66 -32 -187 -32zM1065 668q0 67 46 111t114 44q70 0 117 -44t47 -115q0 -60 -38.5 -132
t-133.5 -206l-15 -21h-115l123 207q-61 3 -103 48t-42 108z" />
    <glyph glyph-name="circumflex" unicode="&#x2c6;" horiz-adv-x="993" 
d="M109 1147l264 369h248l264 -369h-244l-143 213l-146 -213h-243z" />
    <glyph glyph-name="caron" unicode="&#x2c7;" horiz-adv-x="897" 
d="M305 1212l-266 369h244l145 -213l145 213h244l-266 -369h-246z" />
    <glyph glyph-name="breve" unicode="&#x2d8;" horiz-adv-x="817" 
d="M356 1223q-73 0 -132 18t-94.5 46.5t-61.5 63t-37.5 68.5t-17.5 62.5t-7 46.5v18h189q0 -7 1 -17.5t10 -38.5t24 -49.5t48 -39t78 -17.5t78 16.5t48.5 40.5t24.5 48t10 41l1 16h189q0 -7 -0.5 -18.5t-7 -45t-18 -64t-37.5 -68t-61.5 -64t-94.5 -45t-132 -18.5z" />
    <glyph glyph-name="dotaccent" unicode="&#x2d9;" horiz-adv-x="612" 
d="M307 1210q-83 0 -136.5 53.5t-53.5 127.5q0 78 53 130t137 52q81 0 135 -52.5t54 -129.5q0 -75 -54 -128t-135 -53z" />
    <glyph glyph-name="ring" unicode="&#x2da;" horiz-adv-x="700" 
d="M350 1200q-116 0 -197 81t-81 196t81 196.5t197 81.5t197.5 -81.5t81.5 -196.5t-81.5 -196t-197.5 -81zM238 1477q0 -46 33 -78.5t79 -32.5t79.5 32.5t33.5 78.5q0 45 -33.5 77.5t-79.5 32.5t-79 -32t-33 -78z" />
    <glyph glyph-name="ogonek" unicode="&#x2db;" horiz-adv-x="505" 
d="M346 -453q-143 0 -215 58t-72 149q0 50 23.5 92t56.5 65.5t66 40t57 22.5l23 6l104 -54q-4 -2 -11 -5t-25 -14.5t-32 -24t-25 -33t-11 -42.5q0 -35 27.5 -57t82.5 -22q15 0 32.5 2t27.5 4l10 2v-176q-51 -13 -119 -13z" />
    <glyph glyph-name="tilde" unicode="&#x2dc;" horiz-adv-x="761" 
d="M537 1223q-50 0 -94.5 17.5t-71 38.5t-58.5 38.5t-59 17.5q-63 0 -66 -102h-163q-4 285 204 285q51 0 96.5 -17.5t72.5 -39t58.5 -39t57.5 -17.5q61 0 64 102h163q4 -284 -204 -284z" />
    <glyph glyph-name="gravecomb" unicode="&#x300;" 
d="M258 1223l-221 307h336l110 -305z" />
    <glyph glyph-name="acutecomb" unicode="&#x301;" 
d="M262 1223l-225 2l106 313h338z" />
    <glyph glyph-name="uni0302" unicode="&#x302;" 
d="M51 1200l230 303h249l232 -303h-234l-122 133l-121 -133h-234z" />
    <glyph glyph-name="tildecomb" unicode="&#x303;" 
d="M537 1223q-50 0 -94.5 17.5t-71 38.5t-58.5 38.5t-59 17.5q-63 0 -66 -102h-163q-4 285 204 285q51 0 96.5 -17.5t72.5 -39t58.5 -39t57.5 -17.5q61 0 64 102h163q4 -284 -204 -284z" />
    <glyph glyph-name="uni0304" unicode="&#x304;" 
d="M162 1327v184h667v-184h-667z" />
    <glyph glyph-name="uni0306" unicode="&#x306;" 
d="M356 1223q-73 0 -132 18t-94.5 46.5t-61.5 63t-37.5 68.5t-17.5 62.5t-7 46.5v18h189q0 -7 1 -17.5t10 -38.5t24 -49.5t48 -39t78 -17.5t78 16.5t48.5 40.5t24.5 48t10 41l1 16h189q0 -7 -0.5 -18.5t-7 -45t-18 -64t-37.5 -68t-61.5 -64t-94.5 -45t-132 -18.5z" />
    <glyph glyph-name="uni0307" unicode="&#x307;" 
d="M307 1210q-83 0 -136.5 53.5t-53.5 127.5q0 78 53 130t137 52q81 0 135 -52.5t54 -129.5q0 -75 -54 -128t-135 -53z" />
    <glyph glyph-name="uni0308" unicode="&#x308;" 
d="M731 1217q-80 0 -131 51t-51 123q0 75 50.5 124.5t131.5 49.5q78 0 130 -50t52 -124q0 -73 -52.5 -123.5t-129.5 -50.5zM113 1391q0 74 51.5 124t132.5 50q78 0 129 -50t51 -124q0 -73 -51.5 -123.5t-128.5 -50.5q-80 0 -132 51t-52 123z" />
    <glyph glyph-name="hookabovecomb" unicode="&#x309;" 
d="M238 1239q0 60 17 89t73 63q5 3 16.5 10.5t16 10.5l13.5 9t13 9.5t10 9.5t9 10.5t6.5 10.5t4.5 12.5t1 13.5q0 27 -25 44t-59 17q-40 0 -66.5 -22.5t-27.5 -63.5h-174q4 112 80 170t196 58q109 0 185.5 -51.5t76.5 -137.5q0 -34 -9.5 -60t-34.5 -50t-42.5 -37t-60.5 -41
q-30 -19 -40.5 -34t-10.5 -40v-8h-168v8z" />
    <glyph glyph-name="uni030A" unicode="&#x30a;" 
d="M350 1200q-116 0 -197 81t-81 196t81 196.5t197 81.5t197.5 -81.5t81.5 -196.5t-81.5 -196t-197.5 -81zM238 1477q0 -46 33 -78.5t79 -32.5t79.5 32.5t33.5 78.5q0 45 -33.5 77.5t-79.5 32.5t-79 -32t-33 -78z" />
    <glyph glyph-name="uni030B" unicode="&#x30b;" 
d="M287 1235l-217 2l96 369h276zM449 1237l96 369h276l-153 -371z" />
    <glyph glyph-name="uni030C" unicode="&#x30c;" 
d="M51 1526h234l121 -133l122 133h234l-232 -303h-249z" />
    <glyph glyph-name="uni0312" unicode="&#x312;" 
d="M391 1743l-123 -207q62 -3 104 -48t42 -108q0 -67 -46 -111t-114 -44q-70 0 -117 44t-47 115q0 60 38.5 132t133.5 206l14 21h115z" />
    <glyph glyph-name="uni031B" unicode="&#x31b;" 
d="M809 1157q0 -110 -58 -169.5t-169 -59.5h-365v157h260q82 0 82 82v146h250v-156z" />
    <glyph glyph-name="dotbelowcomb" unicode="&#x323;" 
d="M289 -489q-75 0 -124.5 51t-49.5 123q0 74 49 124t125 50q73 0 122.5 -50t49.5 -124q0 -71 -49.5 -122.5t-122.5 -51.5z" />
    <glyph glyph-name="uni0326" unicode="&#x326;" 
d="M838 305l123 207q-62 3 -104 48t-42 108q0 67 46 111t114 44q70 0 117 -44t47 -115q0 -60 -38.5 -132t-133.5 -206l-15 -21h-114z" />
    <glyph glyph-name="uni0327" unicode="&#x327;" 
d="M150 -586q-34 0 -75.5 4t-66.5 8l-24 3v165q88 -12 149 -12q81 0 115.5 24.5t34.5 59.5q0 30 -23 49t-63 19q-27 0 -55.5 -10t-43.5 -20l-14 -9l-109 110l134 195h196l-92 -129q28 4 45 4q97 0 156 -60.5t59 -150.5q0 -103 -82.5 -176.5t-240.5 -73.5z" />
    <glyph glyph-name="uni0328" unicode="&#x328;" 
d="M346 -453q-143 0 -215 58t-72 149q0 50 23.5 92t56.5 65.5t66 40t57 22.5l23 6l104 -54q-4 -2 -11 -5t-25 -14.5t-32 -24t-25 -33t-11 -42.5q0 -35 27.5 -57t82.5 -22q15 0 32.5 2t27.5 4l10 2v-176q-51 -13 -119 -13z" />
    <glyph glyph-name="uni1E20" unicode="&#x1e20;" horiz-adv-x="1632" 
d="M856 -20q-159 0 -291.5 44t-223.5 118.5t-154 174.5t-92 211t-29 230q0 118 29 229.5t91.5 211.5t152.5 174.5t221 118.5t288 44q103 0 192 -17t152.5 -46t117 -66.5t88 -79t61 -83t40 -79t22 -66.5t11.5 -46l2 -17h-334q-2 10 -6 26t-27.5 57.5t-57.5 73t-102 57.5
t-155 26q-106 0 -190.5 -41.5t-138 -112.5t-81.5 -163t-28 -197q0 -106 28 -198t82.5 -163t141 -112t196.5 -41q157 0 261 87t130 243h-411v243h725v-88q0 -185 -55.5 -331t-153 -237t-225 -138t-277.5 -47zM522 1690v184h668v-184h-668z" />
    <glyph glyph-name="uni1E21" unicode="&#x1e21;" horiz-adv-x="1286" 
d="M655 -442q-83 0 -154.5 12.5t-122 34t-91.5 49t-66.5 58t-44.5 61t-28 58t-14 49t-6 34.5l-1 12h297q1 -7 3.5 -17.5t18 -38.5t38 -49.5t67.5 -39t104 -17.5q131 0 191.5 85.5t60.5 224.5v116q-106 -157 -334 -157q-119 0 -214.5 44.5t-154.5 120t-90.5 171t-31.5 200.5
t31.5 200t90.5 171t154.5 121t214.5 45q230 0 334 -162v141h303v-1017q0 -109 -34 -200.5t-100 -161t-174 -109t-247 -39.5zM322 1260v184h667v-184h-667zM399 569q0 -135 66.5 -225t189.5 -90q122 0 189 90t67 225q0 134 -67 225t-189 91q-123 0 -189.5 -91t-66.5 -225z
" />
    <glyph glyph-name="Wgrave" unicode="&#x1e80;" horiz-adv-x="2084" 
d="M424 0l-387 1516h340l252 -1096l272 1096h297l272 -1092l252 1092h334l-387 -1516h-383l-244 997l-245 -997h-373zM702 1960h336l111 -305l-225 -2z" />
    <glyph glyph-name="wgrave" unicode="&#x1e81;" horiz-adv-x="1773" 
d="M383 0l-328 1085h305l203 -735l211 735h244l213 -733l203 733h301l-330 -1085h-326l-190 678l-187 -678h-319zM498 1530h336l110 -305l-225 -2z" />
    <glyph glyph-name="Wacute" unicode="&#x1e82;" horiz-adv-x="2084" 
d="M424 0l-387 1516h340l252 -1096l272 1096h297l272 -1092l252 1092h334l-387 -1516h-383l-244 997l-245 -997h-373zM946 1655l107 313h338l-220 -315z" />
    <glyph glyph-name="wacute" unicode="&#x1e83;" horiz-adv-x="1773" 
d="M383 0l-328 1085h305l203 -735l211 735h244l213 -733l203 733h301l-330 -1085h-326l-190 678l-187 -678h-319zM741 1225l107 313h338l-219 -315z" />
    <glyph glyph-name="Wdieresis" unicode="&#x1e84;" horiz-adv-x="2093" 
d="M424 0l-387 1516h340l252 -1096l272 1096h297l272 -1092l252 1092h334l-387 -1516h-383l-244 997l-245 -997h-373zM647 1821q0 74 51.5 124t132.5 50q78 0 129.5 -50t51.5 -124q0 -73 -52 -123.5t-129 -50.5q-80 0 -132 51t-52 123zM1083 1821q0 75 51 124.5t132 49.5
q78 0 130 -50t52 -124q0 -73 -52.5 -123.5t-129.5 -50.5q-80 0 -131.5 51t-51.5 123z" />
    <glyph glyph-name="wdieresis" unicode="&#x1e85;" horiz-adv-x="1789" 
d="M383 0l-328 1085h305l203 -735l211 735h244l213 -733l203 733h301l-330 -1085h-326l-190 678l-187 -678h-319zM446 1391q0 74 52 124t133 50q78 0 129 -50t51 -124q0 -73 -51.5 -123.5t-128.5 -50.5q-80 0 -132.5 51t-52.5 123zM883 1391q0 75 50.5 124.5t131.5 49.5
q78 0 130 -50t52 -124q0 -73 -52.5 -123.5t-129.5 -50.5q-80 0 -131 51t-51 123z" />
    <glyph glyph-name="uni1E9E" unicode="&#x1e9e;" horiz-adv-x="1380" 
d="M735 -20q-49 0 -97 4t-72 8l-23 4v256q69 -12 143 -12q159 0 234 60.5t75 152.5q0 91 -73.5 142.5t-221.5 51.5h-69l-2 172l293 436q-95 21 -179 21q-165 0 -254.5 -102.5t-89.5 -284.5v-891h-311v891q0 97 20.5 186t70.5 174.5t125.5 148t195 100.5t270.5 38
q120 0 239 -23t177 -46l59 -23v-150l-311 -467q56 -9 109.5 -29t102.5 -54.5t86 -78.5t59 -104.5t22 -130.5t-21 -134.5t-67 -122t-112.5 -100.5t-163.5 -68t-214 -25z" />
    <glyph glyph-name="uni1EA0" unicode="&#x1ea0;" horiz-adv-x="1560" 
d="M55 0l498 1516h455l497 -1516h-360l-107 348h-546l-107 -348h-330zM573 612h383l-190 625zM594 -315q0 74 49 124t125 50q73 0 122.5 -50t49.5 -124q0 -71 -49.5 -122.5t-122.5 -51.5q-75 0 -124.5 51t-49.5 123z" />
    <glyph glyph-name="uni1EA1" unicode="&#x1ea1;" horiz-adv-x="1159" 
d="M446 -20q-164 0 -268 84.5t-104 228.5q0 300 450 362l238 37v19q0 184 -174 184q-50 0 -88 -16t-56.5 -38.5t-29.5 -45t-13 -38.5l-2 -16h-280q0 8 1 21t9.5 51t24.5 72.5t51.5 76.5t83.5 72t127.5 51t177.5 21q128 0 221.5 -32.5t145.5 -89t76 -123t24 -144.5v-717h-299
v135q-1 -1 -12.5 -16.5t-22 -26.5t-29.5 -29t-42.5 -31t-54 -25.5t-70.5 -19.5t-85 -7zM367 313q0 -62 48.5 -96.5t121.5 -34.5q103 0 164 64t61 180v78l-156 -27q-239 -38 -239 -164zM397 -315q0 74 49 124t125 50q73 0 122.5 -50t49.5 -124q0 -71 -49.5 -122.5
t-122.5 -51.5q-75 0 -124.5 51t-49.5 123z" />
    <glyph glyph-name="uni1EA2" unicode="&#x1ea2;" horiz-adv-x="1552" 
d="M55 0l498 1516h455l497 -1516h-360l-107 348h-546l-107 -348h-330zM518 1884q4 111 80 169t197 58q109 0 185.5 -51t76.5 -137q0 -34 -9.5 -60t-35 -50.5t-43 -37t-60.5 -40.5q-30 -19 -40.5 -34t-10.5 -40v-8h-168v8q0 60 17 88.5t73 62.5q4 3 14.5 9.5t14.5 9t13 8.5
t12 9t10 8.5t9.5 9.5t6.5 9.5t5.5 10.5t3 11t1.5 12q0 27 -25 44t-59 17q-40 0 -66.5 -22.5t-27.5 -63.5h-174zM573 612h383l-190 625z" />
    <glyph glyph-name="uni1EA3" unicode="&#x1ea3;" horiz-adv-x="1159" 
d="M446 -20q-164 0 -268 84.5t-104 228.5q0 300 450 362l238 37v19q0 184 -174 184q-50 0 -88 -16t-56.5 -38.5t-29.5 -45t-13 -38.5l-2 -16h-280q0 8 1 21t9.5 51t24.5 72.5t51.5 76.5t83.5 72t127.5 51t177.5 21q128 0 221.5 -32.5t145.5 -89t76 -123t24 -144.5v-717h-299
v135q-1 -1 -12.5 -16.5t-22 -26.5t-29.5 -29t-42.5 -31t-54 -25.5t-70.5 -19.5t-85 -7zM334 1454q4 111 79.5 169t196.5 58q109 0 185.5 -51t76.5 -137q0 -34 -9.5 -60t-34.5 -50t-42.5 -37t-60.5 -41q-30 -19 -40.5 -34t-10.5 -40v-8h-168v8q0 60 17 88.5t73 62.5
q4 3 14.5 9.5t14.5 9t13 8.5t12 9t10 8.5t9.5 9.5t6.5 9.5t5.5 10.5t3 11t1.5 12q0 27 -25 44t-59 17q-40 0 -66.5 -22.5t-27.5 -63.5h-174zM367 313q0 -62 48.5 -96.5t121.5 -34.5q103 0 164 64t61 180v78l-156 -27q-239 -38 -239 -164z" />
    <glyph glyph-name="uni1EA4" unicode="&#x1ea4;" horiz-adv-x="1560" 
d="M55 0l498 1516h455l497 -1516h-360l-107 348h-546l-107 -348h-330zM438 1630l201 275h285l200 -275h-221l-121 131l-123 -131h-221zM573 612h383l-190 625zM1024 1872l106 268h308l-203 -270z" />
    <glyph glyph-name="uni1EA5" unicode="&#x1ea5;" horiz-adv-x="1159" 
d="M446 -20q-164 0 -268 84.5t-104 228.5q0 300 450 362l238 37v19q0 184 -174 184q-50 0 -88 -16t-56.5 -38.5t-29.5 -45t-13 -38.5l-2 -16h-280q0 8 1 21t9.5 51t24.5 72.5t51.5 76.5t83.5 72t127.5 51t177.5 21q128 0 221.5 -32.5t145.5 -89t76 -123t24 -144.5v-717h-299
v135q-1 -1 -12.5 -16.5t-22 -26.5t-29.5 -29t-42.5 -31t-54 -25.5t-70.5 -19.5t-85 -7zM252 1200l201 275h284l201 -275h-221l-121 131l-123 -131h-221zM367 313q0 -62 48.5 -96.5t121.5 -34.5q103 0 164 64t61 180v78l-156 -27q-239 -38 -239 -164zM838 1442l106 268h307
l-202 -270z" />
    <glyph glyph-name="uni1EA6" unicode="&#x1ea6;" horiz-adv-x="1560" 
d="M55 0l498 1516h455l497 -1516h-360l-107 348h-546l-107 -348h-330zM438 1630l201 275h285l200 -275h-221l-121 131l-123 -131h-221zM573 612h383l-190 625zM838 2193h336l110 -305l-225 -2z" />
    <glyph glyph-name="uni1EA7" unicode="&#x1ea7;" horiz-adv-x="1159" 
d="M446 -20q-164 0 -268 84.5t-104 228.5q0 300 450 362l238 37v19q0 184 -174 184q-50 0 -88 -16t-56.5 -38.5t-29.5 -45t-13 -38.5l-2 -16h-280q0 8 1 21t9.5 51t24.5 72.5t51.5 76.5t83.5 72t127.5 51t177.5 21q128 0 221.5 -32.5t145.5 -89t76 -123t24 -144.5v-717h-299
v135q-1 -1 -12.5 -16.5t-22 -26.5t-29.5 -29t-42.5 -31t-54 -25.5t-70.5 -19.5t-85 -7zM252 1200l201 275h284l201 -275h-221l-121 131l-123 -131h-221zM367 313q0 -62 48.5 -96.5t121.5 -34.5q103 0 164 64t61 180v78l-156 -27q-239 -38 -239 -164zM651 1763h336l111 -305
l-226 -2z" />
    <glyph glyph-name="uni1EA8" unicode="&#x1ea8;" horiz-adv-x="1560" 
d="M55 0l498 1516h455l497 -1516h-360l-107 348h-546l-107 -348h-330zM438 1630l201 275h285l200 -275h-221l-121 131l-123 -131h-221zM573 612h383l-190 625zM893 2091q3 102 74 155.5t182 53.5q101 0 172.5 -47.5t71.5 -126.5q0 -26 -8 -48t-17 -36t-32 -32.5t-35.5 -26.5
t-45.5 -29q-27 -17 -37 -32t-10 -36v-8h-155v8q0 54 15.5 81t68.5 58q29 18 43.5 28.5t26.5 26.5t12 34q0 24 -23.5 39.5t-54.5 15.5q-36 0 -60.5 -20t-25.5 -58h-162z" />
    <glyph glyph-name="uni1EA9" unicode="&#x1ea9;" horiz-adv-x="1159" 
d="M446 -20q-164 0 -268 84.5t-104 228.5q0 300 450 362l238 37v19q0 184 -174 184q-50 0 -88 -16t-56.5 -38.5t-29.5 -45t-13 -38.5l-2 -16h-280q0 8 1 21t9.5 51t24.5 72.5t51.5 76.5t83.5 72t127.5 51t177.5 21q128 0 221.5 -32.5t145.5 -89t76 -123t24 -144.5v-717h-299
v135q-1 -1 -12.5 -16.5t-22 -26.5t-29.5 -29t-42.5 -31t-54 -25.5t-70.5 -19.5t-85 -7zM252 1200l201 275h284l201 -275h-221l-121 131l-123 -131h-221zM367 313q0 -62 48.5 -96.5t121.5 -34.5q103 0 164 64t61 180v78l-156 -27q-239 -38 -239 -164zM707 1661
q3 102 74 155.5t182 53.5q101 0 172 -47.5t71 -126.5q0 -26 -8 -48t-17 -36t-31.5 -32.5t-35.5 -27t-45 -28.5q-27 -17 -37 -32t-10 -36v-8h-156v8q0 54 15.5 81t68.5 58q30 18 44 28t26 26.5t12 33.5q0 24 -24 40t-54 16q-36 0 -60.5 -20t-25.5 -58h-161z" />
    <glyph glyph-name="uni1EAA" unicode="&#x1eaa;" horiz-adv-x="1560" 
d="M55 0l498 1516h455l497 -1516h-360l-107 348h-546l-107 -348h-330zM436 1630l201 275h285l200 -275h-221l-121 131l-123 -131h-221zM446 1978q0 52 9 96t29.5 83t58.5 61.5t90 22.5q44 0 86 -16t69 -34.5t57.5 -34.5t53.5 -16q61 0 68 90h141q1 -72 -14 -128t-57.5 -96
t-110.5 -40q-54 0 -105.5 25.5t-92.5 51t-69 25.5q-31 0 -49 -24.5t-20 -65.5h-144zM573 612h383l-190 625z" />
    <glyph glyph-name="uni1EAB" unicode="&#x1eab;" horiz-adv-x="1159" 
d="M446 -20q-164 0 -268 84.5t-104 228.5q0 300 450 362l238 37v19q0 184 -174 184q-50 0 -88 -16t-56.5 -38.5t-29.5 -45t-13 -38.5l-2 -16h-280q0 8 1 21t9.5 51t24.5 72.5t51.5 76.5t83.5 72t127.5 51t177.5 21q128 0 221.5 -32.5t145.5 -89t76 -123t24 -144.5v-717h-299
v135q-1 -1 -12.5 -16.5t-22 -26.5t-29.5 -29t-42.5 -31t-54 -25.5t-70.5 -19.5t-85 -7zM250 1200l201 275h284l201 -275h-221l-121 131l-123 -131h-221zM260 1548q0 41 5.5 77t18.5 70.5t33.5 59.5t53.5 40t75 15q55 0 107 -25t92 -50t68 -25q60 0 67 90h142
q1 -71 -14 -127.5t-58 -96.5t-111 -40q-42 0 -84 16t-69.5 35t-58.5 35t-54 16q-32 0 -50 -24.5t-20 -65.5h-143zM367 313q0 -62 48.5 -96.5t121.5 -34.5q103 0 164 64t61 180v78l-156 -27q-239 -38 -239 -164z" />
    <glyph glyph-name="uni1EAC" unicode="&#x1eac;" horiz-adv-x="1560" 
d="M55 0l498 1516h455l497 -1516h-360l-107 348h-546l-107 -348h-330zM438 1630l201 275h285l200 -275h-221l-121 131l-123 -131h-221zM573 612h383l-190 625zM594 -315q0 74 49 124t125 50q73 0 122.5 -50t49.5 -124q0 -71 -49.5 -122.5t-122.5 -51.5q-75 0 -124.5 51
t-49.5 123z" />
    <glyph glyph-name="uni1EAD" unicode="&#x1ead;" horiz-adv-x="1159" 
d="M446 -20q-164 0 -268 84.5t-104 228.5q0 300 450 362l238 37v19q0 184 -174 184q-50 0 -88 -16t-56.5 -38.5t-29.5 -45t-13 -38.5l-2 -16h-280q0 8 1 21t9.5 51t24.5 72.5t51.5 76.5t83.5 72t127.5 51t177.5 21q128 0 221.5 -32.5t145.5 -89t76 -123t24 -144.5v-717h-299
v135q-1 -1 -12.5 -16.5t-22 -26.5t-29.5 -29t-42.5 -31t-54 -25.5t-70.5 -19.5t-85 -7zM240 1200l229 303h250l231 -303h-233l-123 133l-121 -133h-233zM367 313q0 -62 48.5 -96.5t121.5 -34.5q103 0 164 64t61 180v78l-156 -27q-239 -38 -239 -164zM397 -315q0 74 49 124
t125 50q73 0 122.5 -50t49.5 -124q0 -71 -49.5 -122.5t-122.5 -51.5q-75 0 -124.5 51t-49.5 123z" />
    <glyph glyph-name="uni1EAE" unicode="&#x1eae;" horiz-adv-x="1560" 
d="M55 0l498 1516h455l497 -1516h-360l-107 348h-546l-107 -348h-330zM428 1946h190q0 -6 0.5 -15.5t8.5 -34.5t23 -44t48 -34.5t78 -15.5q46 0 79.5 15t48 36t23 42t9.5 36v15h190q-2 0 0 -10t-2 -27.5t-7.5 -39t-16.5 -46.5t-28 -49t-43 -46.5t-61.5 -39.5t-83 -27
t-108.5 -10q-74 0 -133 16.5t-94.5 42.5t-61 57t-36.5 62.5t-17 57.5t-6 43v16zM573 612h383l-190 625zM674 1995l106 268h307l-202 -270z" />
    <glyph glyph-name="uni1EAF" unicode="&#x1eaf;" horiz-adv-x="1159" 
d="M446 -20q-164 0 -268 84.5t-104 228.5q0 300 450 362l238 37v19q0 184 -174 184q-50 0 -88 -16t-56.5 -38.5t-29.5 -45t-13 -38.5l-2 -16h-280q0 8 1 21t9.5 51t24.5 72.5t51.5 76.5t83.5 72t127.5 51t177.5 21q128 0 221.5 -32.5t145.5 -89t76 -123t24 -144.5v-717h-299
v135q-1 -1 -12.5 -16.5t-22 -26.5t-29.5 -29t-42.5 -31t-54 -25.5t-70.5 -19.5t-85 -7zM242 1516h190q0 -6 0.5 -15.5t8.5 -34.5t23 -44t48 -34.5t78 -15.5q46 0 79.5 15t48 36t23 42t9.5 36v15h190q-2 0 0 -10t-2 -27.5t-7.5 -39t-16.5 -46.5t-28 -49t-43 -46.5
t-61.5 -39.5t-83 -27t-108.5 -10q-74 0 -133 16.5t-94.5 42.5t-61 57t-36.5 62.5t-17 57.5t-6 43v16zM367 313q0 -62 48.5 -96.5t121.5 -34.5q103 0 164 64t61 180v78l-156 -27q-239 -38 -239 -164zM487 1565l107 268h307l-203 -270z" />
    <glyph glyph-name="uni1EB0" unicode="&#x1eb0;" horiz-adv-x="1560" 
d="M55 0l498 1516h455l497 -1516h-360l-107 348h-546l-107 -348h-330zM426 1946h190q0 -6 0.5 -15.5t8.5 -34.5t23 -44t48 -34.5t78 -15.5q46 0 79.5 15t48 36t23 42t9.5 36v15h190q-2 0 0 -10t-2 -27.5t-7.5 -39t-16.5 -46.5t-28 -49t-43 -46.5t-61.5 -39.5t-83 -27
t-108.5 -10q-74 0 -133 16.5t-94.5 42.5t-61 57t-36.5 62.5t-17 57.5t-6 43v16zM475 2277h299l113 -282l-217 -2zM573 612h383l-190 625z" />
    <glyph glyph-name="uni1EB1" unicode="&#x1eb1;" horiz-adv-x="1159" 
d="M446 -20q-164 0 -268 84.5t-104 228.5q0 300 450 362l238 37v19q0 184 -174 184q-50 0 -88 -16t-56.5 -38.5t-29.5 -45t-13 -38.5l-2 -16h-280q0 8 1 21t9.5 51t24.5 72.5t51.5 76.5t83.5 72t127.5 51t177.5 21q128 0 221.5 -32.5t145.5 -89t76 -123t24 -144.5v-717h-299
v135q-1 -1 -12.5 -16.5t-22 -26.5t-29.5 -29t-42.5 -31t-54 -25.5t-70.5 -19.5t-85 -7zM240 1516h190q0 -6 0.5 -15.5t8.5 -34.5t23 -44t48 -34.5t78 -15.5q46 0 79.5 15t48 36t23 42t9.5 36v15h190q-2 0 0 -10t-2 -27.5t-7.5 -39t-16.5 -46.5t-28 -49t-43 -46.5
t-61.5 -39.5t-83 -27t-108.5 -10q-74 0 -133 16.5t-94.5 42.5t-61 57t-36.5 62.5t-17 57.5t-6 43v16zM289 1847h299l112 -282l-217 -2zM367 313q0 -62 48.5 -96.5t121.5 -34.5q103 0 164 64t61 180v78l-156 -27q-239 -38 -239 -164z" />
    <glyph glyph-name="uni1EB2" unicode="&#x1eb2;" horiz-adv-x="1560" 
d="M55 0l498 1516h455l497 -1516h-360l-107 348h-546l-107 -348h-330zM426 1946h190q0 -6 0.5 -15.5t8.5 -34.5t23 -44t48 -34.5t78 -15.5q46 0 79.5 15t48 36t23 42t9.5 36v15h190q-2 0 0 -10t-2 -27.5t-7.5 -39t-16.5 -46.5t-28 -49t-43 -46.5t-61.5 -39.5t-83 -27
t-108.5 -10q-74 0 -133 16.5t-94.5 42.5t-61 57t-36.5 62.5t-17 57.5t-6 43v16zM543 2214q3 102 74 155.5t182 53.5q101 0 172 -47.5t71 -126.5q0 -26 -8 -48t-17 -36t-31.5 -32.5t-35.5 -27t-45 -28.5q-27 -17 -37 -32t-10 -36v-8h-156v8q0 54 15.5 81t68.5 58q30 18 44 28
t26 26.5t12 33.5q0 24 -23.5 40t-53.5 16q-36 0 -60.5 -20t-25.5 -58h-162zM573 612h383l-190 625z" />
    <glyph glyph-name="uni1EB3" unicode="&#x1eb3;" horiz-adv-x="1159" 
d="M446 -20q-164 0 -268 84.5t-104 228.5q0 300 450 362l238 37v19q0 184 -174 184q-50 0 -88 -16t-56.5 -38.5t-29.5 -45t-13 -38.5l-2 -16h-280q0 8 1 21t9.5 51t24.5 72.5t51.5 76.5t83.5 72t127.5 51t177.5 21q128 0 221.5 -32.5t145.5 -89t76 -123t24 -144.5v-717h-299
v135q-1 -1 -12.5 -16.5t-22 -26.5t-29.5 -29t-42.5 -31t-54 -25.5t-70.5 -19.5t-85 -7zM240 1516h190q0 -6 0.5 -15.5t8.5 -34.5t23 -44t48 -34.5t78 -15.5q46 0 79.5 15t48 36t23 42t9.5 36v15h190q-2 0 0 -10t-2 -27.5t-7.5 -39t-16.5 -46.5t-28 -49t-43 -46.5
t-61.5 -39.5t-83 -27t-108.5 -10q-74 0 -133 16.5t-94.5 42.5t-61 57t-36.5 62.5t-17 57.5t-6 43v16zM356 1784q3 102 74 155.5t182 53.5q101 0 172.5 -47.5t71.5 -126.5q0 -26 -8 -48t-17 -36t-31.5 -32.5t-35.5 -27t-45 -28.5q-27 -17 -37 -32t-10 -36v-8h-156v8
q0 54 15.5 81t68.5 58q30 18 44 28t26 26.5t12 33.5q0 24 -24 40t-54 16q-36 0 -60.5 -20t-25.5 -58h-162zM367 313q0 -62 48.5 -96.5t121.5 -34.5q103 0 164 64t61 180v78l-156 -27q-239 -38 -239 -164z" />
    <glyph glyph-name="uni1EB4" unicode="&#x1eb4;" horiz-adv-x="1560" 
d="M55 0l498 1516h455l497 -1516h-360l-107 348h-546l-107 -348h-330zM428 1946h190q0 -6 0.5 -15.5t8.5 -34.5t23 -44t48 -34.5t78 -15.5q46 0 79.5 15t48 36t23 42t9.5 36v15h190q-2 0 0 -10t-2 -27.5t-7.5 -39t-16.5 -46.5t-28 -49t-43 -46.5t-61.5 -39.5t-83 -27
t-108.5 -10q-74 0 -133 16.5t-94.5 42.5t-61 57t-36.5 62.5t-17 57.5t-6 43v16zM455 2019q0 41 5.5 77t18.5 70.5t33.5 59.5t53.5 40t75 15q55 0 106.5 -25t91.5 -50t68 -25q61 0 68 90h141q1 -72 -14 -128t-57.5 -96t-110.5 -40q-42 0 -84 16t-69.5 35t-58.5 35t-54 16
q-32 0 -50 -24.5t-20 -65.5h-143zM573 612h383l-190 625z" />
    <glyph glyph-name="uni1EB5" unicode="&#x1eb5;" horiz-adv-x="1159" 
d="M446 -20q-164 0 -268 84.5t-104 228.5q0 300 450 362l238 37v19q0 184 -174 184q-50 0 -88 -16t-56.5 -38.5t-29.5 -45t-13 -38.5l-2 -16h-280q0 8 1 21t9.5 51t24.5 72.5t51.5 76.5t83.5 72t127.5 51t177.5 21q128 0 221.5 -32.5t145.5 -89t76 -123t24 -144.5v-717h-299
v135q-1 -1 -12.5 -16.5t-22 -26.5t-29.5 -29t-42.5 -31t-54 -25.5t-70.5 -19.5t-85 -7zM242 1516h190q0 -6 0.5 -15.5t8.5 -34.5t23 -44t48 -34.5t78 -15.5q46 0 79.5 15t48 36t23 42t9.5 36v15h190q-2 0 0 -10t-2 -27.5t-7.5 -39t-16.5 -46.5t-28 -49t-43 -46.5
t-61.5 -39.5t-83 -27t-108.5 -10q-74 0 -133 16.5t-94.5 42.5t-61 57t-36.5 62.5t-17 57.5t-6 43v16zM268 1589q0 52 9 96t29.5 83t58.5 61t90 22q55 0 106.5 -25t91.5 -50t68 -25q60 0 67 90h142q1 -72 -14 -128t-57.5 -96t-110.5 -40q-54 0 -105.5 25.5t-92.5 51t-69 25.5
q-31 0 -49 -24.5t-20 -65.5h-144zM367 313q0 -62 48.5 -96.5t121.5 -34.5q103 0 164 64t61 180v78l-156 -27q-239 -38 -239 -164z" />
    <glyph glyph-name="uni1EB6" unicode="&#x1eb6;" horiz-adv-x="1560" 
d="M55 0l498 1516h455l497 -1516h-360l-107 348h-546l-107 -348h-330zM430 1976h188q0 -7 1 -17.5t10 -38.5t24.5 -49t48.5 -38.5t78 -17.5t78 16.5t48.5 40.5t24.5 47.5t10 40.5l1 16h188q0 -7 -0.5 -18.5t-6.5 -45t-17.5 -64t-37.5 -68t-61.5 -64t-94.5 -45t-132 -18.5
t-132 18t-94.5 46.5t-61.5 63t-37.5 68.5t-17.5 62.5t-7 46.5v18zM573 612h383l-190 625zM594 -315q0 74 49 124t125 50q73 0 122.5 -50t49.5 -124q0 -71 -49.5 -122.5t-122.5 -51.5q-75 0 -124.5 51t-49.5 123z" />
    <glyph glyph-name="uni1EB7" unicode="&#x1eb7;" horiz-adv-x="1159" 
d="M446 -20q-164 0 -268 84.5t-104 228.5q0 300 450 362l238 37v19q0 184 -174 184q-50 0 -88 -16t-56.5 -38.5t-29.5 -45t-13 -38.5l-2 -16h-280q0 8 1 21t9.5 51t24.5 72.5t51.5 76.5t83.5 72t127.5 51t177.5 21q128 0 221.5 -32.5t145.5 -89t76 -123t24 -144.5v-717h-299
v135q-1 -1 -12.5 -16.5t-22 -26.5t-29.5 -29t-42.5 -31t-54 -25.5t-70.5 -19.5t-85 -7zM244 1546h188q0 -7 1 -17.5t10 -38.5t24.5 -49.5t48.5 -39t78 -17.5t78 16.5t48.5 40.5t24.5 48t10 41l1 16h188q0 -7 -0.5 -18.5t-6.5 -45t-17.5 -64t-37.5 -68t-61.5 -64t-94.5 -45
t-132 -18.5t-132 18t-94.5 46.5t-61.5 63t-37.5 68.5t-17.5 62.5t-7 46.5v18zM367 313q0 -62 48.5 -96.5t121.5 -34.5q103 0 164 64t61 180v78l-156 -27q-239 -38 -239 -164zM397 -315q0 74 49 124t125 50q73 0 122.5 -50t49.5 -124q0 -71 -49.5 -122.5t-122.5 -51.5
q-75 0 -124.5 51t-49.5 123z" />
    <glyph glyph-name="uni1EB8" unicode="&#x1eb8;" horiz-adv-x="1222" 
d="M100 0v1516h1055v-279h-717v-334h613v-274h-613v-350h721v-279h-1059zM434 -315q0 74 49 124t125 50q73 0 122.5 -50t49.5 -124q0 -71 -49.5 -122.5t-122.5 -51.5q-75 0 -124.5 51t-49.5 123z" />
    <glyph glyph-name="uni1EB9" unicode="&#x1eb9;" horiz-adv-x="1247" 
d="M870 649q-6 111 -70.5 172.5t-162.5 61.5q-101 0 -166.5 -64t-73.5 -170h473zM82 545q0 108 34 206t99.5 178.5t174 128.5t245.5 48q139 0 246.5 -48.5t172.5 -135t92.5 -204t14.5 -257.5h-764q9 -121 76 -192.5t184 -71.5q38 0 70 7.5t53.5 19t39 25.5t27 28.5t16.5 26
t9 18.5l2 8h281q-1 -7 -4 -20t-17 -49t-34.5 -69t-60.5 -73.5t-90.5 -69.5t-128.5 -49t-171 -20q-139 0 -250 47.5t-178.5 128t-103 180t-35.5 209.5zM479 -313q0 74 49 124t125 50q73 0 122.5 -50t49.5 -124q0 -71 -49.5 -122.5t-122.5 -51.5q-75 0 -124.5 51t-49.5 123z
" />
    <glyph glyph-name="uni1EBA" unicode="&#x1eba;" horiz-adv-x="1222" 
d="M100 0v1516h1055v-279h-717v-334h613v-274h-613v-350h721v-279h-1059zM344 1884q4 111 80 169t197 58q109 0 185.5 -51t76.5 -137q0 -34 -9.5 -60t-35 -50.5t-43 -37t-60.5 -40.5q-30 -19 -40.5 -34t-10.5 -40v-8h-168v8q0 60 17 88.5t73 62.5q4 3 14.5 9.5t14.5 9
t13 8.5t12 9t10 8.5t9.5 9.5t6.5 9.5t5.5 10.5t3 11t1.5 12q0 27 -25 44t-59 17q-40 0 -66.5 -22.5t-27.5 -63.5h-174z" />
    <glyph glyph-name="uni1EBB" unicode="&#x1ebb;" horiz-adv-x="1247" 
d="M870 649q-6 111 -70.5 172.5t-162.5 61.5q-101 0 -166.5 -64t-73.5 -170h473zM82 545q0 108 34 206t99.5 178.5t174 128.5t245.5 48q139 0 246.5 -48.5t172.5 -135t92.5 -204t14.5 -257.5h-764q9 -121 76 -192.5t184 -71.5q38 0 70 7.5t53.5 19t39 25.5t27 28.5t16.5 26
t9 18.5l2 8h281q-1 -7 -4 -20t-17 -49t-34.5 -69t-60.5 -73.5t-90.5 -69.5t-128.5 -49t-171 -20q-139 0 -250 47.5t-178.5 128t-103 180t-35.5 209.5zM377 1456q4 111 79.5 169t196.5 58q109 0 185.5 -51t76.5 -137q0 -34 -9.5 -60t-34.5 -50t-42.5 -37t-60.5 -41
q-30 -19 -40.5 -34t-10.5 -40v-8h-168v8q0 60 17 88.5t73 62.5q4 3 14.5 9.5t14.5 9t13 8.5t12 9t10 8.5t9.5 9.5t6.5 9.5t5.5 10.5t3 11t1.5 12q0 27 -25 44t-59 17q-40 0 -66.5 -22.5t-27.5 -63.5h-174z" />
    <glyph glyph-name="uni1EBC" unicode="&#x1ebc;" horiz-adv-x="1222" 
d="M100 0v1516h1055v-279h-717v-334h613v-274h-613v-350h721v-279h-1059zM250 1663q-1 59 8.5 107t31.5 90t64 65t101 23q51 0 96.5 -17.5t72 -39t58 -39t57.5 -17.5q61 0 64 102h164q1 -59 -8.5 -107t-31.5 -89.5t-64 -64.5t-101 -23q-50 0 -94.5 17.5t-71 38.5t-58.5 38.5
t-59 17.5q-62 0 -65 -102h-164z" />
    <glyph glyph-name="uni1EBD" unicode="&#x1ebd;" horiz-adv-x="1247" 
d="M870 649q-6 111 -70.5 172.5t-162.5 61.5q-101 0 -166.5 -64t-73.5 -170h473zM82 545q0 108 34 206t99.5 178.5t174 128.5t245.5 48q139 0 246.5 -48.5t172.5 -135t92.5 -204t14.5 -257.5h-764q9 -121 76 -192.5t184 -71.5q38 0 70 7.5t53.5 19t39 25.5t27 28.5t16.5 26
t9 18.5l2 8h281q-1 -7 -4 -20t-17 -49t-34.5 -69t-60.5 -73.5t-90.5 -69.5t-128.5 -49t-171 -20q-139 0 -250 47.5t-178.5 128t-103 180t-35.5 209.5zM279 1233q-4 285 204 285q51 0 96.5 -17.5t72.5 -39t58.5 -39t57.5 -17.5q60 0 63 102h164q4 -284 -204 -284
q-50 0 -94.5 17.5t-71 38.5t-58.5 38.5t-59 17.5q-63 0 -66 -102h-163z" />
    <glyph glyph-name="uni1EBE" unicode="&#x1ebe;" horiz-adv-x="1222" 
d="M100 0v1516h1055v-279h-717v-334h613v-274h-613v-350h721v-279h-1059zM264 1630l201 275h285l200 -275h-221l-121 131l-123 -131h-221zM850 1872l106 268h308l-203 -270z" />
    <glyph glyph-name="uni1EBF" unicode="&#x1ebf;" horiz-adv-x="1247" 
d="M870 649q-6 111 -70.5 172.5t-162.5 61.5q-101 0 -166.5 -64t-73.5 -170h473zM82 545q0 108 34 206t99.5 178.5t174 128.5t245.5 48q139 0 246.5 -48.5t172.5 -135t92.5 -204t14.5 -257.5h-764q9 -121 76 -192.5t184 -71.5q38 0 70 7.5t53.5 19t39 25.5t27 28.5t16.5 26
t9 18.5l2 8h281q-1 -7 -4 -20t-17 -49t-34.5 -69t-60.5 -73.5t-90.5 -69.5t-128.5 -49t-171 -20q-139 0 -250 47.5t-178.5 128t-103 180t-35.5 209.5zM295 1200l201 275h284l201 -275h-221l-121 131l-123 -131h-221zM881 1442l106 268h307l-202 -270z" />
    <glyph glyph-name="uni1EC0" unicode="&#x1ec0;" horiz-adv-x="1222" 
d="M100 0v1516h1055v-279h-717v-334h613v-274h-613v-350h721v-279h-1059zM264 1630l201 275h285l200 -275h-221l-121 131l-123 -131h-221zM666 2193h335l111 -305l-225 -2z" />
    <glyph glyph-name="uni1EC1" unicode="&#x1ec1;" horiz-adv-x="1247" 
d="M870 649q-6 111 -70.5 172.5t-162.5 61.5q-101 0 -166.5 -64t-73.5 -170h473zM82 545q0 108 34 206t99.5 178.5t174 128.5t245.5 48q139 0 246.5 -48.5t172.5 -135t92.5 -204t14.5 -257.5h-764q9 -121 76 -192.5t184 -71.5q38 0 70 7.5t53.5 19t39 25.5t27 28.5t16.5 26
t9 18.5l2 8h281q-1 -7 -4 -20t-17 -49t-34.5 -69t-60.5 -73.5t-90.5 -69.5t-128.5 -49t-171 -20q-139 0 -250 47.5t-178.5 128t-103 180t-35.5 209.5zM295 1200l201 275h284l201 -275h-221l-121 131l-123 -131h-221zM694 1763h336l111 -305l-226 -2z" />
    <glyph glyph-name="uni1EC2" unicode="&#x1ec2;" horiz-adv-x="1222" 
d="M100 0v1516h1055v-279h-717v-334h613v-274h-613v-350h721v-279h-1059zM264 1630l201 275h285l200 -275h-221l-121 131l-123 -131h-221zM719 2091q3 102 74 155.5t182 53.5q101 0 172.5 -47.5t71.5 -126.5q0 -26 -8 -48t-17 -36t-32 -32.5t-35.5 -26.5t-45.5 -29
q-27 -17 -37 -32t-10 -36v-8h-155v8q0 54 15.5 81t68.5 58q42 26 61.5 45t19.5 44q0 24 -23 39.5t-54 15.5q-36 0 -60.5 -20t-25.5 -58h-162z" />
    <glyph glyph-name="uni1EC3" unicode="&#x1ec3;" horiz-adv-x="1247" 
d="M870 649q-6 111 -70.5 172.5t-162.5 61.5q-101 0 -166.5 -64t-73.5 -170h473zM82 545q0 108 34 206t99.5 178.5t174 128.5t245.5 48q139 0 246.5 -48.5t172.5 -135t92.5 -204t14.5 -257.5h-764q9 -121 76 -192.5t184 -71.5q38 0 70 7.5t53.5 19t39 25.5t27 28.5t16.5 26
t9 18.5l2 8h281q-1 -7 -4 -20t-17 -49t-34.5 -69t-60.5 -73.5t-90.5 -69.5t-128.5 -49t-171 -20q-139 0 -250 47.5t-178.5 128t-103 180t-35.5 209.5zM295 1200l201 275h284l201 -275h-221l-121 131l-123 -131h-221zM750 1661q3 102 74 155.5t182 53.5q101 0 172 -47.5
t71 -126.5q0 -26 -8 -48t-17 -36t-31.5 -32.5t-35.5 -27t-45 -28.5q-27 -17 -37 -32t-10 -36v-8h-156v8q0 54 15.5 81t68.5 58q30 18 44 28t26 26.5t12 33.5q0 24 -24 40t-54 16q-36 0 -60.5 -20t-25.5 -58h-161z" />
    <glyph glyph-name="uni1EC4" unicode="&#x1ec4;" horiz-adv-x="1222" 
d="M100 0v1516h1055v-279h-717v-334h613v-274h-613v-350h721v-279h-1059zM264 1630l201 275h285l200 -275h-221l-121 131l-123 -131h-221zM274 1978q0 52 9 96t29.5 83t58.5 61.5t90 22.5q44 0 86 -16t69 -34.5t57.5 -34.5t53.5 -16q61 0 68 90h141q1 -72 -14 -128
t-57.5 -96t-110.5 -40q-54 0 -105.5 25.5t-92.5 51t-69 25.5q-31 0 -49 -24.5t-20 -65.5h-144z" />
    <glyph glyph-name="uni1EC5" unicode="&#x1ec5;" horiz-adv-x="1247" 
d="M870 649q-6 111 -70.5 172.5t-162.5 61.5q-101 0 -166.5 -64t-73.5 -170h473zM82 545q0 108 34 206t99.5 178.5t174 128.5t245.5 48q139 0 246.5 -48.5t172.5 -135t92.5 -204t14.5 -257.5h-764q9 -121 76 -192.5t184 -71.5q38 0 70 7.5t53.5 19t39 25.5t27 28.5t16.5 26
t9 18.5l2 8h281q-1 -7 -4 -20t-17 -49t-34.5 -69t-60.5 -73.5t-90.5 -69.5t-128.5 -49t-171 -20q-139 0 -250 47.5t-178.5 128t-103 180t-35.5 209.5zM293 1200l201 275h284l201 -275h-221l-121 131l-123 -131h-221zM303 1548q0 41 5.5 77t18.5 70.5t33.5 59.5t53.5 40
t75 15q55 0 107 -25t92 -50t68 -25q60 0 67 90h142q1 -71 -14 -127.5t-58 -96.5t-111 -40q-42 0 -84 16t-69.5 35t-58.5 35t-54 16q-32 0 -50 -24.5t-20 -65.5h-143z" />
    <glyph glyph-name="uni1EC6" unicode="&#x1ec6;" horiz-adv-x="1222" 
d="M100 0v1516h1055v-279h-717v-334h613v-274h-613v-350h721v-279h-1059zM264 1630l201 275h285l200 -275h-221l-121 131l-123 -131h-221zM434 -315q0 74 49 124t125 50q73 0 122.5 -50t49.5 -124q0 -71 -49.5 -122.5t-122.5 -51.5q-75 0 -124.5 51t-49.5 123z" />
    <glyph glyph-name="uni1EC7" unicode="&#x1ec7;" horiz-adv-x="1247" 
d="M870 649q-6 111 -70.5 172.5t-162.5 61.5q-101 0 -166.5 -64t-73.5 -170h473zM82 545q0 108 34 206t99.5 178.5t174 128.5t245.5 48q139 0 246.5 -48.5t172.5 -135t92.5 -204t14.5 -257.5h-764q9 -121 76 -192.5t184 -71.5q38 0 70 7.5t53.5 19t39 25.5t27 28.5t16.5 26
t9 18.5l2 8h281q-1 -7 -4 -20t-17 -49t-34.5 -69t-60.5 -73.5t-90.5 -69.5t-128.5 -49t-171 -20q-139 0 -250 47.5t-178.5 128t-103 180t-35.5 209.5zM283 1200l229 303h250l231 -303h-233l-123 133l-121 -133h-233zM479 -313q0 74 49 124t125 50q73 0 122.5 -50t49.5 -124
q0 -71 -49.5 -122.5t-122.5 -51.5q-75 0 -124.5 51t-49.5 123z" />
    <glyph glyph-name="uni1EC8" unicode="&#x1ec8;" horiz-adv-x="530" 
d="M100 0v1516h338v-1516h-338zM0 1884q4 111 79.5 169t196.5 58q109 0 186 -51t77 -137q0 -34 -9.5 -60t-35 -50.5t-43 -37t-60.5 -40.5q-30 -19 -40.5 -34t-10.5 -40v-8h-168v8q0 60 17 88.5t73 62.5q4 3 14.5 9.5t14.5 9t13 8.5t12 9t10 8.5t9.5 9.5t6.5 9.5t5.5 10.5
t3 11t1.5 12q0 27 -25 44t-59 17q-40 0 -66.5 -22.5t-27.5 -63.5h-174z" />
    <glyph glyph-name="uni1EC9" unicode="&#x1ec9;" horiz-adv-x="491" 
d="M90 0v1085h311v-1085h-311zM-14 1454q4 111 79.5 169t196.5 58q109 0 185.5 -51t76.5 -137q0 -34 -9.5 -60t-34.5 -50t-42.5 -37t-60.5 -41q-30 -19 -40.5 -34t-10.5 -40v-8h-168v8q0 60 17 88.5t73 62.5q4 3 14.5 9.5t14.5 9t13 8.5t12 9t10 8.5t9.5 9.5t6.5 9.5
t5.5 10.5t3 11t1.5 12q0 27 -25 44t-59 17q-40 0 -66.5 -22.5t-27.5 -63.5h-174z" />
    <glyph glyph-name="uni1ECA" unicode="&#x1eca;" horiz-adv-x="538" 
d="M100 0v1516h338v-1516h-338zM90 -315q0 74 49 124t125 50q73 0 122.5 -50t49.5 -124q0 -71 -49.5 -122.5t-122.5 -51.5q-75 0 -124.5 51t-49.5 123z" />
    <glyph glyph-name="uni1ECB" unicode="&#x1ecb;" horiz-adv-x="491" 
d="M90 0v1085h311v-1085h-311zM55 1391q0 78 53.5 130t137.5 52q81 0 134.5 -52.5t53.5 -129.5q0 -75 -53.5 -128t-134.5 -53q-83 0 -137 53.5t-54 127.5zM72 -315q0 74 49 124t125 50q73 0 122.5 -50t49.5 -124q0 -71 -49.5 -122.5t-122.5 -51.5q-75 0 -124.5 51t-49.5 123
z" />
    <glyph glyph-name="uni1ECC" unicode="&#x1ecc;" horiz-adv-x="1691" 
d="M846 -20q-151 0 -279 42t-219 115.5t-155.5 172.5t-95.5 213t-31 237q0 122 31 235t95.5 211.5t155.5 172t219 115.5t279 42t279.5 -42t219.5 -115.5t155 -172t95 -211.5t31 -235q0 -123 -31 -237t-95 -213t-155 -172.5t-219.5 -115.5t-279.5 -42zM418 760
q0 -138 48.5 -250t147 -181t232.5 -69t233.5 69t149 181t49.5 250q0 136 -49.5 247t-149 179.5t-233.5 68.5t-232.5 -68.5t-147 -179.5t-48.5 -247zM674 -315q0 74 49 124t125 50q73 0 122.5 -50t49.5 -124q0 -71 -49.5 -122.5t-122.5 -51.5q-75 0 -124.5 51t-49.5 123z" />
    <glyph glyph-name="uni1ECD" unicode="&#x1ecd;" horiz-adv-x="1310" 
d="M655 -20q-178 0 -309.5 75.5t-197.5 202t-66 285.5t66 285.5t197.5 202t309.5 75.5t310 -75.5t198 -202t66 -285.5t-66 -285.5t-198 -202t-310 -75.5zM399 543q0 -147 68.5 -237.5t187.5 -90.5q120 0 189 90.5t69 237.5t-69 237t-189 90t-188 -90t-68 -237zM514 -315
q0 74 49 124t125 50q73 0 122.5 -50t49.5 -124q0 -71 -49.5 -122.5t-122.5 -51.5q-75 0 -124.5 51t-49.5 123z" />
    <glyph glyph-name="uni1ECE" unicode="&#x1ece;" horiz-adv-x="1691" 
d="M846 -20q-151 0 -279 42t-219 115.5t-155.5 172.5t-95.5 213t-31 237q0 122 31 235t95.5 211.5t155.5 172t219 115.5t279 42t279.5 -42t219.5 -115.5t155 -172t95 -211.5t31 -235q0 -123 -31 -237t-95 -213t-155 -172.5t-219.5 -115.5t-279.5 -42zM418 760
q0 -138 48.5 -250t147 -181t232.5 -69t233.5 69t149 181t49.5 250q0 136 -49.5 247t-149 179.5t-233.5 68.5t-232.5 -68.5t-147 -179.5t-48.5 -247zM588 1905q4 111 79.5 169t196.5 58q109 0 185.5 -51t76.5 -137q0 -34 -9.5 -60t-34 -50.5t-43 -38t-60.5 -40.5
q-30 -19 -40.5 -34t-10.5 -40v-8h-168v8q0 60 17 89t73 63q5 3 16.5 10.5t16 10.5l13.5 9t13 9.5t10 9.5t9 10.5t6.5 10.5t4.5 12.5t1 13.5q0 27 -25 44.5t-59 17.5q-40 0 -66.5 -22.5t-27.5 -63.5h-174z" />
    <glyph glyph-name="uni1ECF" unicode="&#x1ecf;" horiz-adv-x="1310" 
d="M655 -20q-178 0 -309.5 75.5t-197.5 202t-66 285.5t66 285.5t197.5 202t309.5 75.5t310 -75.5t198 -202t66 -285.5t-66 -285.5t-198 -202t-310 -75.5zM395 1454q4 111 80 169t197 58q109 0 185.5 -51t76.5 -137q0 -34 -9.5 -60t-35 -50.5t-43 -37t-60.5 -40.5
q-30 -19 -40.5 -34t-10.5 -40v-8h-168v8q0 60 17 88.5t73 62.5q4 3 16 10.5t16.5 10.5t14 9.5t13 9.5t10 9.5t9.5 11t6.5 10.5t4.5 12.5t1 13.5q0 27 -25 44t-59 17q-40 0 -67 -22.5t-28 -63.5h-174zM399 543q0 -147 68.5 -237.5t187.5 -90.5q120 0 189 90.5t69 237.5
t-69 237t-189 90t-188 -90t-68 -237z" />
    <glyph glyph-name="uni1ED0" unicode="&#x1ed0;" horiz-adv-x="1691" 
d="M846 -20q-151 0 -279 42t-219 115.5t-155.5 172.5t-95.5 213t-31 237q0 122 31 235t95.5 211.5t155.5 172t219 115.5t279 42t279.5 -42t219.5 -115.5t155 -172t95 -211.5t31 -235q0 -123 -31 -237t-95 -213t-155 -172.5t-219.5 -115.5t-279.5 -42zM418 760
q0 -138 48.5 -250t147 -181t232.5 -69t233.5 69t149 181t49.5 250q0 136 -49.5 247t-149 179.5t-233.5 68.5t-232.5 -68.5t-147 -179.5t-48.5 -247zM504 1651l201 274h284l201 -274h-221l-121 131l-123 -131h-221zM1090 1892l106 269h307l-203 -271z" />
    <glyph glyph-name="uni1ED1" unicode="&#x1ed1;" horiz-adv-x="1310" 
d="M655 -20q-178 0 -309.5 75.5t-197.5 202t-66 285.5t66 285.5t197.5 202t309.5 75.5t310 -75.5t198 -202t66 -285.5t-66 -285.5t-198 -202t-310 -75.5zM313 1200l201 275h285l200 -275h-221l-121 131l-122 -131h-222zM399 543q0 -147 68.5 -237.5t187.5 -90.5
q120 0 189 90.5t69 237.5t-69 237t-189 90t-188 -90t-68 -237zM899 1442l107 268h307l-203 -270z" />
    <glyph glyph-name="uni1ED2" unicode="&#x1ed2;" horiz-adv-x="1691" 
d="M846 -20q-151 0 -279 42t-219 115.5t-155.5 172.5t-95.5 213t-31 237q0 122 31 235t95.5 211.5t155.5 172t219 115.5t279 42t279.5 -42t219.5 -115.5t155 -172t95 -211.5t31 -235q0 -123 -31 -237t-95 -213t-155 -172.5t-219.5 -115.5t-279.5 -42zM418 760
q0 -138 48.5 -250t147 -181t232.5 -69t233.5 69t149 181t49.5 250q0 136 -49.5 247t-149 179.5t-233.5 68.5t-232.5 -68.5t-147 -179.5t-48.5 -247zM504 1651l201 274h284l201 -274h-221l-121 131l-123 -131h-221zM903 2214h336l111 -305l-226 -2z" />
    <glyph glyph-name="uni1ED3" unicode="&#x1ed3;" horiz-adv-x="1310" 
d="M655 -20q-178 0 -309.5 75.5t-197.5 202t-66 285.5t66 285.5t197.5 202t309.5 75.5t310 -75.5t198 -202t66 -285.5t-66 -285.5t-198 -202t-310 -75.5zM313 1200l201 275h285l200 -275h-221l-121 131l-122 -131h-222zM399 543q0 -147 68.5 -237.5t187.5 -90.5
q120 0 189 90.5t69 237.5t-69 237t-189 90t-188 -90t-68 -237zM713 1763h336l110 -305l-225 -2z" />
    <glyph glyph-name="uni1ED4" unicode="&#x1ed4;" horiz-adv-x="1691" 
d="M846 -20q-151 0 -279 42t-219 115.5t-155.5 172.5t-95.5 213t-31 237q0 122 31 235t95.5 211.5t155.5 172t219 115.5t279 42t279.5 -42t219.5 -115.5t155 -172t95 -211.5t31 -235q0 -123 -31 -237t-95 -213t-155 -172.5t-219.5 -115.5t-279.5 -42zM418 760
q0 -138 48.5 -250t147 -181t232.5 -69t233.5 69t149 181t49.5 250q0 136 -49.5 247t-149 179.5t-233.5 68.5t-232.5 -68.5t-147 -179.5t-48.5 -247zM504 1651l201 274h284l201 -274h-221l-121 131l-123 -131h-221zM958 2111q3 102 74 155.5t182 53.5q101 0 172.5 -47.5
t71.5 -126.5q0 -26 -8 -48t-17 -36t-31.5 -32.5t-35.5 -27t-45 -28.5q-27 -18 -37 -32t-10 -35v-9h-156v9q0 54 15.5 81t68.5 58q30 18 44 28t26 26.5t12 33.5q0 24 -23.5 39.5t-54.5 15.5q-36 0 -60.5 -20t-25.5 -58h-162z" />
    <glyph glyph-name="uni1ED5" unicode="&#x1ed5;" horiz-adv-x="1310" 
d="M655 -20q-178 0 -309.5 75.5t-197.5 202t-66 285.5t66 285.5t197.5 202t309.5 75.5t310 -75.5t198 -202t66 -285.5t-66 -285.5t-198 -202t-310 -75.5zM313 1200l201 275h285l200 -275h-221l-121 131l-122 -131h-222zM399 543q0 -147 68.5 -237.5t187.5 -90.5
q120 0 189 90.5t69 237.5t-69 237t-189 90t-188 -90t-68 -237zM768 1661q3 102 74 155.5t182 53.5q101 0 172.5 -47.5t71.5 -126.5q0 -26 -8 -48t-17 -36t-32 -32.5t-35.5 -26.5t-45.5 -29q-27 -17 -37 -32t-10 -36v-8h-155v8q0 54 15.5 81t68.5 58q30 18 44 28t26 26.5
t12 33.5q0 24 -24 40t-54 16q-36 0 -60.5 -20t-25.5 -58h-162z" />
    <glyph glyph-name="uni1ED6" unicode="&#x1ed6;" horiz-adv-x="1691" 
d="M846 -20q-151 0 -279 42t-219 115.5t-155.5 172.5t-95.5 213t-31 237q0 122 31 235t95.5 211.5t155.5 172t219 115.5t279 42t279.5 -42t219.5 -115.5t155 -172t95 -211.5t31 -235q0 -123 -31 -237t-95 -213t-155 -172.5t-219.5 -115.5t-279.5 -42zM418 760
q0 -138 48.5 -250t147 -181t232.5 -69t233.5 69t149 181t49.5 250q0 136 -49.5 247t-149 179.5t-233.5 68.5t-232.5 -68.5t-147 -179.5t-48.5 -247zM502 1651l200 274h285l201 -274h-221l-121 131l-123 -131h-221zM512 1999q0 41 5.5 77t18.5 70.5t33.5 59.5t53.5 40t75 15
q55 0 107 -25t92 -50t68 -25q60 0 67 90h142q1 -71 -14 -127.5t-58 -96.5t-111 -40q-42 0 -84 16t-69.5 35t-58.5 35t-54 16q-32 0 -50 -24.5t-20 -65.5h-143z" />
    <glyph glyph-name="uni1ED7" unicode="&#x1ed7;" horiz-adv-x="1310" 
d="M655 -20q-178 0 -309.5 75.5t-197.5 202t-66 285.5t66 285.5t197.5 202t309.5 75.5t310 -75.5t198 -202t66 -285.5t-66 -285.5t-198 -202t-310 -75.5zM311 1200l201 275h285l200 -275h-221l-121 131l-123 -131h-221zM322 1548q0 41 5.5 77t18.5 70.5t33.5 59.5t53.5 40
t75 15q55 0 106.5 -25t91.5 -50t68 -25q61 0 68 90h141q1 -72 -14 -128t-57.5 -96t-110.5 -40q-42 0 -84 16t-69.5 35t-58.5 35t-54 16q-32 0 -50 -24.5t-20 -65.5h-143zM399 543q0 -147 68.5 -237.5t187.5 -90.5q120 0 189 90.5t69 237.5t-69 237t-189 90t-188 -90
t-68 -237z" />
    <glyph glyph-name="uni1ED8" unicode="&#x1ed8;" horiz-adv-x="1691" 
d="M846 -20q-151 0 -279 42t-219 115.5t-155.5 172.5t-95.5 213t-31 237q0 122 31 235t95.5 211.5t155.5 172t219 115.5t279 42t279.5 -42t219.5 -115.5t155 -172t95 -211.5t31 -235q0 -123 -31 -237t-95 -213t-155 -172.5t-219.5 -115.5t-279.5 -42zM418 760
q0 -138 48.5 -250t147 -181t232.5 -69t233.5 69t149 181t49.5 250q0 136 -49.5 247t-149 179.5t-233.5 68.5t-232.5 -68.5t-147 -179.5t-48.5 -247zM504 1651l201 274h284l201 -274h-221l-121 131l-123 -131h-221zM674 -315q0 74 49 124t125 50q73 0 122.5 -50t49.5 -124
q0 -71 -49.5 -122.5t-122.5 -51.5q-75 0 -124.5 51t-49.5 123z" />
    <glyph glyph-name="uni1ED9" unicode="&#x1ed9;" horiz-adv-x="1310" 
d="M655 -20q-178 0 -309.5 75.5t-197.5 202t-66 285.5t66 285.5t197.5 202t309.5 75.5t310 -75.5t198 -202t66 -285.5t-66 -285.5t-198 -202t-310 -75.5zM301 1200l229 303h250l232 -303h-234l-123 133l-120 -133h-234zM399 543q0 -147 68.5 -237.5t187.5 -90.5
q120 0 189 90.5t69 237.5t-69 237t-189 90t-188 -90t-68 -237zM483 -315q0 74 49 124t125 50q73 0 122.5 -50t49.5 -124q0 -71 -49.5 -122.5t-122.5 -51.5q-75 0 -124.5 51t-49.5 123z" />
    <glyph glyph-name="uni1EDA" unicode="&#x1eda;" horiz-adv-x="1718" 
d="M846 -20q-151 0 -279 42t-219 115.5t-155.5 172.5t-95.5 213t-31 237q0 153 50.5 291t145 247t245.5 173.5t337 64.5h2h31q53 -2 139 -11t129 -9q110 0 155 46t46 183h266q0 -347 -289 -350q148 -106 225.5 -274t77.5 -361q0 -123 -31 -237t-95 -213t-155 -172.5
t-219.5 -115.5t-279.5 -42zM418 760q0 -138 48.5 -250t147 -181t232.5 -69t233.5 69t149 181t49.5 250q0 136 -49.5 247t-149 179.5t-233.5 68.5t-232.5 -68.5t-147 -179.5t-48.5 -247zM737 1655l107 313h338l-219 -315z" />
    <glyph glyph-name="uni1EDB" unicode="&#x1edb;" horiz-adv-x="1355" 
d="M655 -20q-178 0 -309.5 75.5t-197.5 202t-66 285.5q0 158 65.5 284t196 202t305.5 77h2h4h39q36 -2 103 -9t104 -7q36 0 60.5 8.5t45.5 30.5t32 64.5t12 106.5h235q0 -308 -239 -327q89 -76 135.5 -187.5t46.5 -242.5q0 -159 -66 -285.5t-198 -202t-310 -75.5zM399 543
q0 -147 68.5 -237.5t187.5 -90.5q120 0 189 90.5t69 237.5t-69 237t-189 90t-188 -90t-68 -237zM537 1225l106 313h338l-219 -315z" />
    <glyph glyph-name="uni1EDC" unicode="&#x1edc;" horiz-adv-x="1718" 
d="M846 -20q-151 0 -279 42t-219 115.5t-155.5 172.5t-95.5 213t-31 237q0 153 50.5 291t145 247t245.5 173.5t337 64.5h2h31q53 -2 139 -11t129 -9q110 0 155 46t46 183h266q0 -347 -289 -350q148 -106 225.5 -274t77.5 -361q0 -123 -31 -237t-95 -213t-155 -172.5
t-219.5 -115.5t-279.5 -42zM418 760q0 -138 48.5 -250t147 -181t232.5 -69t233.5 69t149 181t49.5 250q0 136 -49.5 247t-149 179.5t-233.5 68.5t-232.5 -68.5t-147 -179.5t-48.5 -247zM504 1960h336l110 -305l-225 -2z" />
    <glyph glyph-name="uni1EDD" unicode="&#x1edd;" horiz-adv-x="1363" 
d="M655 -20q-178 0 -309.5 75.5t-197.5 202t-66 285.5q0 158 65.5 284t196 202t305.5 77h2h4h39q36 -2 103 -9t104 -7q36 0 60.5 8.5t45.5 30.5t32 64.5t12 106.5h235q0 -308 -239 -327q89 -76 135.5 -187.5t46.5 -242.5q0 -159 -66 -285.5t-198 -202t-310 -75.5zM309 1530
h336l111 -305l-226 -2zM399 543q0 -147 68.5 -237.5t187.5 -90.5q120 0 189 90.5t69 237.5t-69 237t-189 90t-188 -90t-68 -237z" />
    <glyph glyph-name="uni1EDE" unicode="&#x1ede;" horiz-adv-x="1718" 
d="M846 -20q-151 0 -279 42t-219 115.5t-155.5 172.5t-95.5 213t-31 237q0 153 50.5 291t145 247t245.5 173.5t337 64.5h2h31q53 -2 139 -11t129 -9q110 0 155 46t46 183h266q0 -347 -289 -350q148 -106 225.5 -274t77.5 -361q0 -123 -31 -237t-95 -213t-155 -172.5
t-219.5 -115.5t-279.5 -42zM418 760q0 -138 48.5 -250t147 -181t232.5 -69t233.5 69t149 181t49.5 250q0 136 -49.5 247t-149 179.5t-233.5 68.5t-232.5 -68.5t-147 -179.5t-48.5 -247zM584 1884q4 111 79.5 169t196.5 58q109 0 185.5 -51t76.5 -137q0 -34 -9.5 -60
t-34.5 -50t-42.5 -37t-60.5 -41q-30 -19 -40.5 -34t-10.5 -40v-8h-168v8q0 60 17 88.5t73 62.5q4 3 14.5 9.5t14.5 9t13 8.5t12 9t10 8.5t9.5 9.5t6.5 9.5t5.5 10.5t3 11t1.5 12q0 27 -25 44t-59 17q-40 0 -66.5 -22.5t-27.5 -63.5h-174z" />
    <glyph glyph-name="uni1EDF" unicode="&#x1edf;" horiz-adv-x="1355" 
d="M655 -20q-178 0 -309.5 75.5t-197.5 202t-66 285.5q0 158 65.5 284t196 202t305.5 77h2h4h39q36 -2 103 -9t104 -7q36 0 60.5 8.5t45.5 30.5t32 64.5t12 106.5h235q0 -308 -239 -327q89 -76 135.5 -187.5t46.5 -242.5q0 -159 -66 -285.5t-198 -202t-310 -75.5zM383 1454
q4 111 79.5 169t196.5 58q109 0 186 -51t77 -137q0 -34 -9.5 -60t-35 -50.5t-43 -37t-60.5 -40.5q-30 -19 -40.5 -34t-10.5 -40v-8h-168v8q0 60 17 88.5t73 62.5q4 3 14.5 9.5t14.5 9t13 8.5t12 9t10 8.5t9.5 9.5t6.5 9.5t5.5 10.5t3 11t1.5 12q0 27 -25 44t-59 17
q-40 0 -66.5 -22.5t-27.5 -63.5h-174zM399 543q0 -147 68.5 -237.5t187.5 -90.5q120 0 189 90.5t69 237.5t-69 237t-189 90t-188 -90t-68 -237z" />
    <glyph glyph-name="uni1EE0" unicode="&#x1ee0;" horiz-adv-x="1718" 
d="M846 -20q-151 0 -279 42t-219 115.5t-155.5 172.5t-95.5 213t-31 237q0 153 50.5 291t145 247t245.5 173.5t337 64.5h2h31q53 -2 139 -11t129 -9q110 0 155 46t46 183h266q0 -347 -289 -350q148 -106 225.5 -274t77.5 -361q0 -123 -31 -237t-95 -213t-155 -172.5
t-219.5 -115.5t-279.5 -42zM418 760q0 -138 48.5 -250t147 -181t232.5 -69t233.5 69t149 181t49.5 250q0 136 -49.5 247t-149 179.5t-233.5 68.5t-232.5 -68.5t-147 -179.5t-48.5 -247zM485 1663q-1 59 8.5 107t31.5 90t64 65t101 23q51 0 96.5 -17.5t72.5 -39t58.5 -39
t57.5 -17.5q60 0 63 102h164q1 -59 -8.5 -107t-31.5 -89.5t-64 -64.5t-101 -23q-50 0 -94 17.5t-70.5 38.5t-58.5 38.5t-59 17.5q-63 0 -66 -102h-164z" />
    <glyph glyph-name="uni1EE1" unicode="&#x1ee1;" horiz-adv-x="1355" 
d="M655 -20q-178 0 -309.5 75.5t-197.5 202t-66 285.5q0 158 65.5 284t196 202t305.5 77h2h4h39q36 -2 103 -9t104 -7q36 0 60.5 8.5t45.5 30.5t32 64.5t12 106.5h235q0 -308 -239 -327q89 -76 135.5 -187.5t46.5 -242.5q0 -159 -66 -285.5t-198 -202t-310 -75.5zM315 1225
q0 52 9 96t29.5 83t58.5 61t90 22q44 0 86 -16t69 -34.5t57.5 -34.5t53.5 -16q61 0 68 91h141q1 -52 -7.5 -97t-28.5 -84t-57.5 -61.5t-88.5 -22.5q-54 0 -105.5 26t-92.5 51.5t-69 25.5q-31 0 -49 -24.5t-20 -65.5h-144zM399 543q0 -147 68.5 -237.5t187.5 -90.5
q120 0 189 90.5t69 237.5t-69 237t-189 90t-188 -90t-68 -237z" />
    <glyph glyph-name="uni1EE2" unicode="&#x1ee2;" horiz-adv-x="1718" 
d="M846 -20q-151 0 -279 42t-219 115.5t-155.5 172.5t-95.5 213t-31 237q0 153 50.5 291t145 247t245.5 173.5t337 64.5h2h31q53 -2 139 -11t129 -9q110 0 155 46t46 183h266q0 -347 -289 -350q148 -106 225.5 -274t77.5 -361q0 -123 -31 -237t-95 -213t-155 -172.5
t-219.5 -115.5t-279.5 -42zM418 760q0 -138 48.5 -250t147 -181t232.5 -69t233.5 69t149 181t49.5 250q0 136 -49.5 247t-149 179.5t-233.5 68.5t-232.5 -68.5t-147 -179.5t-48.5 -247zM672 -315q0 74 49 124t125 50q73 0 122.5 -50t49.5 -124q0 -71 -49.5 -122.5
t-122.5 -51.5q-75 0 -124.5 51t-49.5 123z" />
    <glyph glyph-name="uni1EE3" unicode="&#x1ee3;" horiz-adv-x="1355" 
d="M655 -20q-178 0 -309.5 75.5t-197.5 202t-66 285.5q0 158 65.5 284t196 202t305.5 77h2h4h39q36 -2 103 -9t104 -7q36 0 60.5 8.5t45.5 30.5t32 64.5t12 106.5h235q0 -308 -239 -327q89 -76 135.5 -187.5t46.5 -242.5q0 -159 -66 -285.5t-198 -202t-310 -75.5zM399 543
q0 -147 68.5 -237.5t187.5 -90.5q120 0 189 90.5t69 237.5t-69 237t-189 90t-188 -90t-68 -237zM475 -315q0 74 49 124t125 50q73 0 122.5 -50t49.5 -124q0 -71 -49.5 -122.5t-122.5 -51.5q-75 0 -124.5 51t-49.5 123z" />
    <glyph glyph-name="uni1EE4" unicode="&#x1ee4;" horiz-adv-x="1470" 
d="M735 -20q-105 0 -197.5 21t-173.5 67.5t-139 115.5t-91.5 169.5t-33.5 224.5v938h336v-938q0 -143 75.5 -232.5t223.5 -89.5q147 0 223 89.5t76 232.5v938h336v-938q0 -124 -33.5 -224.5t-91.5 -169.5t-139 -115.5t-173.5 -67.5t-197.5 -21zM578 -315q0 74 49 124t125 50
q73 0 122.5 -50t49.5 -124q0 -71 -49.5 -122.5t-122.5 -51.5q-75 0 -124.5 51t-49.5 123z" />
    <glyph glyph-name="uni1EE5" unicode="&#x1ee5;" horiz-adv-x="1204" 
d="M457 -20q-82 0 -146 23.5t-103 60.5t-64 87.5t-34.5 99t-9.5 99.5v735h312v-661q0 -94 42 -149.5t130 -55.5q107 0 158 77t51 198v591h311v-1085h-311v170q-12 -24 -27 -45.5t-44 -49.5t-63.5 -47.5t-87.5 -33.5t-114 -14zM408 -315q0 74 49 124t125 50q73 0 122.5 -50
t49.5 -124q0 -71 -49.5 -122.5t-122.5 -51.5q-75 0 -124.5 51t-49.5 123z" />
    <glyph glyph-name="uni1EE6" unicode="&#x1ee6;" horiz-adv-x="1443" 
d="M735 -20q-105 0 -197.5 21t-173.5 67.5t-139 115.5t-91.5 169.5t-33.5 224.5v938h336v-938q0 -143 75.5 -232.5t223.5 -89.5q147 0 223 89.5t76 232.5v938h336v-938q0 -124 -33.5 -224.5t-91.5 -169.5t-139 -115.5t-173.5 -67.5t-197.5 -21zM459 1884q4 111 79.5 169
t196.5 58q109 0 185.5 -51t76.5 -137q0 -34 -9.5 -60t-34.5 -50t-42.5 -37t-60.5 -41q-30 -19 -40.5 -34t-10.5 -40v-8h-168v8q0 60 17 88.5t73 62.5q4 3 14.5 9.5t14.5 9t13 8.5t12 9t10 8.5t9.5 9.5t6.5 9.5t5.5 10.5t3 11t1.5 12q0 27 -25 44t-59 17q-40 0 -66.5 -22.5
t-27.5 -63.5h-174z" />
    <glyph glyph-name="uni1EE7" unicode="&#x1ee7;" horiz-adv-x="1196" 
d="M457 -20q-82 0 -146 23.5t-103 60.5t-64 87.5t-34.5 99t-9.5 99.5v735h312v-661q0 -94 42 -149.5t130 -55.5q107 0 158 77t51 198v591h311v-1085h-311v170q-12 -24 -27 -45.5t-44 -49.5t-63.5 -47.5t-87.5 -33.5t-114 -14zM334 1454q4 111 79.5 169t196.5 58
q109 0 185.5 -51t76.5 -137q0 -34 -9.5 -60t-34.5 -50t-42.5 -37t-60.5 -41q-30 -19 -40.5 -34t-10.5 -40v-8h-168v8q0 60 17 88.5t73 62.5q4 3 14.5 9.5t14.5 9t13 8.5t12 9t10 8.5t9.5 9.5t6.5 9.5t5.5 10.5t3 11t1.5 12q0 27 -25 44t-59 17q-40 0 -66.5 -22.5
t-27.5 -63.5h-174z" />
    <glyph glyph-name="uni1EE8" unicode="&#x1ee8;" horiz-adv-x="1443" 
d="M735 -20q-105 0 -197.5 21t-173.5 67.5t-139 115.5t-91.5 169.5t-33.5 224.5v938h336v-938q0 -143 75.5 -232.5t223.5 -89.5q147 0 223 89.5t76 232.5v804h-14v134h108q116 0 163 52t48 197h254q0 -158 -56 -245t-167 -117v-825q0 -124 -33.5 -224.5t-91.5 -169.5
t-139 -115.5t-173.5 -67.5t-197.5 -21zM600 1655l107 313h337l-219 -315z" />
    <glyph glyph-name="uni1EE9" unicode="&#x1ee9;" horiz-adv-x="1204" 
d="M457 -20q-82 0 -146 23.5t-103 60.5t-64 87.5t-34.5 99t-9.5 99.5v735h312v-661q0 -94 42 -149.5t130 -55.5q107 0 158 77t51 198v464h-2v127h108q54 0 87 8.5t56.5 33.5t32.5 68.5t10 115.5h236q0 -158 -55 -237.5t-162 -102.5v-971h-311v170q-12 -24 -27 -45.5
t-44 -49.5t-63.5 -47.5t-87.5 -33.5t-114 -14zM479 1225l107 313h338l-219 -315z" />
    <glyph glyph-name="uni1EEA" unicode="&#x1eea;" horiz-adv-x="1470" 
d="M735 -20q-105 0 -197.5 21t-173.5 67.5t-139 115.5t-91.5 169.5t-33.5 224.5v938h336v-938q0 -143 75.5 -232.5t223.5 -89.5q147 0 223 89.5t76 232.5v804h-14v134h108q116 0 163 52t48 197h254q0 -158 -56 -245t-167 -117v-825q0 -124 -33.5 -224.5t-91.5 -169.5
t-139 -115.5t-173.5 -67.5t-197.5 -21zM406 1960h335l111 -305l-225 -2z" />
    <glyph glyph-name="uni1EEB" unicode="&#x1eeb;" horiz-adv-x="1204" 
d="M457 -20q-82 0 -146 23.5t-103 60.5t-64 87.5t-34.5 99t-9.5 99.5v735h312v-661q0 -94 42 -149.5t130 -55.5q107 0 158 77t51 198v464h-2v127h108q54 0 87 8.5t56.5 33.5t32.5 68.5t10 115.5h236q0 -158 -55 -237.5t-162 -102.5v-971h-311v170q-12 -24 -27 -45.5
t-44 -49.5t-63.5 -47.5t-87.5 -33.5t-114 -14zM246 1530h336l110 -305l-225 -2z" />
    <glyph glyph-name="uni1EEC" unicode="&#x1eec;" horiz-adv-x="1443" 
d="M735 -20q-105 0 -197.5 21t-173.5 67.5t-139 115.5t-91.5 169.5t-33.5 224.5v938h336v-938q0 -143 75.5 -232.5t223.5 -89.5q147 0 223 89.5t76 232.5v804h-14v134h108q116 0 163 52t48 197h254q0 -158 -56 -245t-167 -117v-825q0 -124 -33.5 -224.5t-91.5 -169.5
t-139 -115.5t-173.5 -67.5t-197.5 -21zM449 1884q4 111 79.5 169t196.5 58q109 0 185.5 -51t76.5 -137q0 -34 -9.5 -60t-34.5 -50t-42.5 -37t-60.5 -41q-31 -19 -41.5 -34t-10.5 -40v-8h-167v8q0 60 17 88.5t73 62.5q4 3 14.5 9.5t14.5 9t13 8.5t12 9t10 8.5t9.5 9.5
t6.5 9.5t5.5 10.5t3 11t1.5 12q0 27 -25 44t-59 17q-40 0 -66.5 -22.5t-27.5 -63.5h-174z" />
    <glyph glyph-name="uni1EED" unicode="&#x1eed;" horiz-adv-x="1196" 
d="M457 -20q-82 0 -146 23.5t-103 60.5t-64 87.5t-34.5 99t-9.5 99.5v735h312v-661q0 -94 42 -149.5t130 -55.5q107 0 158 77t51 198v464h-2v127h108q54 0 87 8.5t56.5 33.5t32.5 68.5t10 115.5h236q0 -158 -55 -237.5t-162 -102.5v-971h-311v170q-12 -24 -27 -45.5
t-44 -49.5t-63.5 -47.5t-87.5 -33.5t-114 -14zM328 1454q4 111 79.5 169t196.5 58q109 0 185.5 -51t76.5 -137q0 -34 -9.5 -60t-34.5 -50t-42.5 -37t-60.5 -41q-30 -19 -40.5 -34t-10.5 -40v-8h-168v8q0 60 17 88.5t73 62.5q4 3 14.5 9.5t14.5 9t13 8.5t12 9t10 8.5t9.5 9.5
t6.5 9.5t5.5 10.5t3 11t1.5 12q0 27 -25 44t-59 17q-40 0 -66.5 -22.5t-27.5 -63.5h-174z" />
    <glyph glyph-name="uni1EEE" unicode="&#x1eee;" horiz-adv-x="1443" 
d="M735 -20q-105 0 -197.5 21t-173.5 67.5t-139 115.5t-91.5 169.5t-33.5 224.5v938h336v-938q0 -143 75.5 -232.5t223.5 -89.5q147 0 223 89.5t76 232.5v804h-14v134h108q116 0 163 52t48 197h254q0 -158 -56 -245t-167 -117v-825q0 -124 -33.5 -224.5t-91.5 -169.5
t-139 -115.5t-173.5 -67.5t-197.5 -21zM348 1663q-1 59 8.5 107t31.5 90t64 65t101 23q51 0 96.5 -17.5t72.5 -39t58.5 -39t57.5 -17.5q60 0 63 102h164q1 -59 -8.5 -107t-31.5 -89.5t-64 -64.5t-101 -23q-50 0 -94 17.5t-70.5 38.5t-58.5 38.5t-59 17.5q-63 0 -66 -102
h-164z" />
    <glyph glyph-name="uni1EEF" unicode="&#x1eef;" horiz-adv-x="1204" 
d="M457 -20q-82 0 -146 23.5t-103 60.5t-64 87.5t-34.5 99t-9.5 99.5v735h312v-661q0 -94 42 -149.5t130 -55.5q107 0 158 77t51 198v464h-2v127h108q54 0 87 8.5t56.5 33.5t32.5 68.5t10 115.5h236q0 -158 -55 -237.5t-162 -102.5v-971h-311v170q-12 -24 -27 -45.5
t-44 -49.5t-63.5 -47.5t-87.5 -33.5t-114 -14zM227 1233q-1 59 8.5 107t31.5 90t64 65t101 23q51 0 96.5 -17.5t72.5 -39t58.5 -39t57.5 -17.5q60 0 63 102h164q1 -59 -8.5 -107t-31.5 -89.5t-64 -64.5t-101 -23q-50 0 -94 17.5t-70.5 38.5t-58.5 38.5t-59 17.5
q-63 0 -66 -102h-164z" />
    <glyph glyph-name="uni1EF0" unicode="&#x1ef0;" horiz-adv-x="1470" 
d="M735 -20q-105 0 -197.5 21t-173.5 67.5t-139 115.5t-91.5 169.5t-33.5 224.5v938h336v-938q0 -143 75.5 -232.5t223.5 -89.5q147 0 223 89.5t76 232.5v804h-14v134h108q116 0 163 52t48 197h254q0 -158 -56 -245t-167 -117v-825q0 -124 -33.5 -224.5t-91.5 -169.5
t-139 -115.5t-173.5 -67.5t-197.5 -21zM631 -315q0 74 49 124t125 50q73 0 122.5 -50t49.5 -124q0 -71 -49.5 -122.5t-122.5 -51.5q-75 0 -124.5 51t-49.5 123z" />
    <glyph glyph-name="uni1EF1" unicode="&#x1ef1;" horiz-adv-x="1204" 
d="M457 -20q-82 0 -146 23.5t-103 60.5t-64 87.5t-34.5 99t-9.5 99.5v735h312v-661q0 -94 42 -149.5t130 -55.5q107 0 158 77t51 198v464h-2v127h108q54 0 87 8.5t56.5 33.5t32.5 68.5t10 115.5h236q0 -158 -55 -237.5t-162 -102.5v-971h-311v170q-12 -24 -27 -45.5
t-44 -49.5t-63.5 -47.5t-87.5 -33.5t-114 -14zM414 -315q0 74 49 124t125 50q73 0 122.5 -50t49.5 -124q0 -71 -49.5 -122.5t-122.5 -51.5q-75 0 -124.5 51t-49.5 123z" />
    <glyph glyph-name="Ygrave" unicode="&#x1ef2;" horiz-adv-x="1445" 
d="M555 0v567l-522 949h373l331 -652l332 652h344l-520 -949v-567h-338zM385 1958h336l110 -305l-225 -2z" />
    <glyph glyph-name="ygrave" unicode="&#x1ef3;" horiz-adv-x="1202" 
d="M254 -416l192 461l-405 1040h317l254 -692l244 692h305l-590 -1501h-317zM260 1530h336l111 -305l-226 -2z" />
    <glyph glyph-name="uni1EF4" unicode="&#x1ef4;" horiz-adv-x="1445" 
d="M555 0v567l-522 949h373l331 -652l332 652h344l-520 -949v-567h-338zM549 -315q0 74 49 124t125 50q73 0 122.5 -50t49.5 -124q0 -71 -49.5 -122.5t-122.5 -51.5q-75 0 -124.5 51t-49.5 123z" />
    <glyph glyph-name="uni1EF5" unicode="&#x1ef5;" horiz-adv-x="1202" 
d="M254 -416l192 461l-405 1040h317l254 -692l244 692h305l-590 -1501h-317zM782 -315q0 74 49 124t125 50q73 0 122.5 -50t49.5 -124q0 -71 -49.5 -122.5t-122.5 -51.5q-75 0 -124.5 51t-49.5 123z" />
    <glyph glyph-name="uni1EF6" unicode="&#x1ef6;" horiz-adv-x="1445" 
d="M555 0v567l-522 949h373l331 -652l332 652h344l-520 -949v-567h-338zM467 1882q4 111 79.5 169t196.5 58q109 0 186 -51t77 -137q0 -34 -9.5 -60t-35 -50.5t-43 -37t-60.5 -40.5q-30 -19 -40.5 -34t-10.5 -40v-8h-168v8q0 60 17 88.5t73 62.5q4 3 14.5 9.5t14.5 9t13 8.5
t12 9t10 8.5t9.5 9.5t6.5 9.5t5.5 10.5t3 11t1.5 12q0 27 -25 44t-59 17q-40 0 -66.5 -22.5t-27.5 -63.5h-174z" />
    <glyph glyph-name="uni1EF7" unicode="&#x1ef7;" horiz-adv-x="1202" 
d="M254 -416l192 461l-405 1040h317l254 -692l244 692h305l-590 -1501h-317zM342 1454q4 111 79.5 169t196.5 58q109 0 186 -51t77 -137q0 -34 -9.5 -60t-35 -50.5t-43 -37t-60.5 -40.5q-30 -19 -40.5 -34t-10.5 -40v-8h-168v8q0 60 17 88.5t73 62.5q4 3 14.5 9.5t14.5 9
t13 8.5t12 9t10 8.5t9.5 9.5t6.5 9.5t5.5 10.5t3 11t1.5 12q0 27 -25 44t-59 17q-40 0 -66.5 -22.5t-27.5 -63.5h-174z" />
    <glyph glyph-name="uni1EF8" unicode="&#x1ef8;" horiz-adv-x="1445" 
d="M555 0v567l-522 949h373l331 -652l332 652h344l-520 -949v-567h-338zM369 1661q-4 285 204 285q51 0 96.5 -17.5t72.5 -39t58.5 -39t57.5 -17.5q61 0 64 102h163q4 -284 -204 -284q-50 0 -94.5 17.5t-71 38.5t-58.5 38.5t-59 17.5q-63 0 -66 -102h-163z" />
    <glyph glyph-name="uni1EF9" unicode="&#x1ef9;" horiz-adv-x="1202" 
d="M254 -416l192 461l-405 1040h317l254 -692l244 692h305l-590 -1501h-317zM244 1233q-1 59 8.5 107t31.5 90t64 65t101 23q51 0 96.5 -17.5t72 -39t58 -39t57.5 -17.5q61 0 64 102h164q1 -59 -8.5 -107t-31.5 -89.5t-64 -64.5t-101 -23q-50 0 -94.5 17.5t-71 38.5
t-58.5 38.5t-59 17.5q-62 0 -65 -102h-164z" />
    <glyph glyph-name="endash" unicode="&#x2013;" horiz-adv-x="1239" 
d="M137 541v245h965v-245h-965z" />
    <glyph glyph-name="emdash" unicode="&#x2014;" horiz-adv-x="1519" 
d="M109 541v245h1302v-245h-1302z" />
    <glyph glyph-name="quoteleft" unicode="&#x2018;" horiz-adv-x="546" 
d="M457 1567l-129 -279q63 -17 100 -66.5t37 -115.5q0 -80 -54.5 -134t-138.5 -54q-83 0 -137.5 51t-54.5 125q0 70 47 171q17 36 96 191l56 111h178z" />
    <glyph glyph-name="quoteright" unicode="&#x2019;" horiz-adv-x="565" 
d="M94 893l129 278q-63 17 -100 67t-37 116q0 80 54.5 134t138.5 54q83 0 137.5 -51t54.5 -125q0 -70 -47 -171q-17 -36 -96 -191l-56 -111h-178z" />
    <glyph glyph-name="quotesinglbase" unicode="&#x201a;" horiz-adv-x="620" 
d="M104 -285l150 277q-67 15 -108.5 68t-41.5 124q0 85 57 142t144 57q88 0 146.5 -53.5t58.5 -136.5q0 -23 -5.5 -47.5t-11 -43.5t-23.5 -55.5t-29 -57.5t-41.5 -77t-47.5 -88l-61 -109h-187z" />
    <glyph glyph-name="quotedblleft" unicode="&#x201c;" horiz-adv-x="1003" 
d="M920 1567l-129 -279q63 -17 100 -66.5t37 -115.5q0 -80 -54.5 -134t-138.5 -54q-83 0 -137.5 51t-54.5 125q0 70 47 171q17 36 96 191l55 111h179zM76 1094q0 70 47 171q17 36 96 191l55 111h179l-129 -279q63 -17 100 -66.5t37 -115.5q0 -80 -54.5 -134t-138.5 -54
q-83 0 -137.5 51t-54.5 125z" />
    <glyph glyph-name="quotedblright" unicode="&#x201d;" horiz-adv-x="995" 
d="M68 893l129 278q-63 17 -100.5 67t-37.5 116q0 80 54.5 134t138.5 54q83 0 137.5 -51t54.5 -125q0 -70 -47 -171q-17 -36 -96 -191l-55 -111h-178zM526 1354q0 80 54.5 134t138.5 54q83 0 137.5 -51t54.5 -125q0 -70 -47 -171q-17 -36 -96 -191l-55 -111h-178l129 278
q-63 17 -100.5 67t-37.5 116z" />
    <glyph glyph-name="quotedblbase" unicode="&#x201e;" horiz-adv-x="1062" 
d="M113 -289l129 279q-63 17 -100.5 66.5t-37.5 115.5q0 80 54.5 134t138.5 54q83 0 137.5 -51t54.5 -125q0 -70 -47 -171q-17 -36 -96 -191l-55 -111h-178zM571 172q0 80 54.5 134t138.5 54q83 0 137.5 -51t54.5 -125q0 -70 -47 -171q-17 -36 -96 -191l-55 -111h-178
l129 279q-63 17 -100.5 66.5t-37.5 115.5z" />
    <glyph glyph-name="dagger" unicode="&#x2020;" horiz-adv-x="1218" 
d="M477 403v666h-368v221h368v328h264v-328h369v-221h-369v-666h-264z" />
    <glyph glyph-name="daggerdbl" unicode="&#x2021;" horiz-adv-x="1218" 
d="M477 403v261h-368v219h368v256h-368v221h368v258h264v-258h369v-221h-369v-256h369v-219h-369v-261h-264z" />
    <glyph glyph-name="bullet" unicode="&#x2022;" horiz-adv-x="1181" 
d="M592 496q-134 0 -221.5 90.5t-87.5 218.5q0 132 87 220.5t222 88.5q132 0 220.5 -89t88.5 -220q0 -127 -89 -218t-220 -91z" />
    <glyph glyph-name="ellipsis" unicode="&#x2026;" horiz-adv-x="1828" 
d="M305 -20q-88 0 -144.5 58.5t-56.5 141.5q0 86 56.5 143.5t144.5 57.5q86 0 143.5 -58t57.5 -143q0 -83 -58 -141.5t-143 -58.5zM715 180q0 86 56 143.5t144 57.5q86 0 143.5 -58t57.5 -143q0 -83 -58 -141.5t-143 -58.5q-88 0 -144 58t-56 142zM1323 180q0 86 56.5 143.5
t144.5 57.5q86 0 143 -58t57 -143q0 -83 -57.5 -141.5t-142.5 -58.5q-88 0 -144.5 58.5t-56.5 141.5z" />
    <glyph glyph-name="perthousand" unicode="&#x2030;" horiz-adv-x="2541" 
d="M2126 -20q-155 0 -249.5 96t-94.5 237t94.5 237.5t249.5 96.5q157 0 250.5 -96.5t93.5 -237.5q0 -140 -94 -236.5t-250 -96.5zM72 1157q0 74 23.5 141t68 120.5t117.5 85.5t165 32t165 -32t117.5 -85.5t67.5 -120.5t23 -141q0 -75 -23 -142.5t-67.5 -122t-117.5 -86.5
t-165 -32t-165 32.5t-117.5 87t-68 122t-23.5 141.5zM293 0l977 1516h233l-975 -1516h-235zM299 1155q0 -90 37 -145.5t108 -55.5q72 0 112 56.5t40 144.5q0 89 -39.5 145t-112.5 56q-71 0 -108 -55.5t-37 -145.5zM977 360q0 74 23 141t68 121.5t118 86.5t166 32
q92 0 165 -32t117 -86.5t67 -121.5t23 -141q0 -59 -14 -114t-44.5 -103.5t-73.5 -84.5t-105 -57t-135 -21q-93 0 -166 32t-118 86t-68 121t-23 141zM1202 360q0 -90 38.5 -145t109.5 -55q72 0 111.5 55.5t39.5 144.5q0 90 -39 145.5t-112 55.5q-71 0 -109.5 -55.5
t-38.5 -145.5zM1982 313q0 -64 40 -106.5t104 -42.5q63 0 102 42.5t39 106.5q0 63 -39 105.5t-102 42.5t-103.5 -42.5t-40.5 -105.5z" />
    <glyph glyph-name="guilsinglleft" unicode="&#x2039;" horiz-adv-x="913" 
d="M838 1083l-435 -448l435 -451h-326l-442 449l442 450h326z" />
    <glyph glyph-name="guilsinglright" unicode="&#x203a;" horiz-adv-x="913" 
d="M76 184l436 447l-436 452h325l443 -450l-443 -449h-325z" />
    <glyph glyph-name="fraction" unicode="&#x2044;" horiz-adv-x="1189" 
d="M61 0l861 1434h231l-864 -1434h-228z" />
    <glyph glyph-name="uni2070" unicode="&#x2070;" horiz-adv-x="933" 
d="M471 817q-123 0 -215.5 61t-139 162t-46.5 226q0 194 108 322t293 128q183 0 292 -128t109 -322q0 -125 -47.5 -226t-139.5 -162t-214 -61zM324 1266q0 -111 40 -172.5t107 -61.5t107 62.5t40 171.5q0 113 -40 175t-107 62t-107 -62.5t-40 -174.5z" />
    <glyph glyph-name="uni2074" unicode="&#x2074;" horiz-adv-x="972" 
d="M477 836v168l-418 2v174l338 532h314v-522h135v-186h-135v-168h-234zM289 1190h188v295z" />
    <glyph glyph-name="uni2075" unicode="&#x2075;" horiz-adv-x="860" 
d="M410 819q-65 0 -119.5 14t-90 35.5t-62.5 51t-41.5 56.5t-24 56t-12 46t-3.5 30h234l2.5 -10t9 -21.5t19 -27.5t34.5 -21.5t52 -9.5q54 0 84 32.5t30 77.5t-30 77t-84 32q-31 0 -54.5 -12.5t-31.5 -24.5l-7 -12h-249l59 520h584v-203h-406l-18 -157l10 -2q7 9 23 22
t59 30t94 17q69 0 125.5 -23.5t92 -63t54.5 -89.5t19 -104q0 -59 -22 -114.5t-64 -101t-111 -73t-155 -27.5z" />
    <glyph glyph-name="uni2076" unicode="&#x2076;" horiz-adv-x="923" 
d="M436 813q-94 0 -169 33.5t-121.5 90.5t-70.5 127.5t-24 149.5q0 90 32.5 177t93.5 160t162.5 118t227.5 45q28 0 58.5 -2.5t47.5 -5.5l17 -2v-209q-70 10 -123 10q-107 0 -185 -55.5t-91 -151.5q65 111 213 111q135 0 212 -82.5t77 -196.5q0 -127 -94.5 -222t-262.5 -95z
M313 1120q0 -45 32 -78.5t89 -33.5q58 0 90.5 33.5t32.5 78.5q0 46 -32.5 80.5t-90.5 34.5q-57 0 -89 -34.5t-32 -80.5z" />
    <glyph glyph-name="uni2077" unicode="&#x2077;" horiz-adv-x="815" 
d="M190 838q6 116 40 228t83.5 198.5t89 141t80.5 99.5h-436v205h698v-168q-12 -11 -32 -32.5t-72 -93t-93 -148t-76.5 -194t-39.5 -236.5h-242z" />
    <glyph glyph-name="uni2078" unicode="&#x2078;" horiz-adv-x="854" 
d="M422 817q-90 0 -167 24.5t-131 82.5t-54 141q0 44 16 81.5t38.5 59t46.5 36.5t39 20.5t17 5.5v14q-2 0 -15 5.5t-34.5 19.5t-41 33.5t-34 53.5t-14.5 74q0 76 48.5 133t123.5 85t162 28q137 0 236.5 -66.5t99.5 -179.5q0 -41 -14.5 -75t-35.5 -54t-42 -33.5t-35.5 -19
t-14.5 -4.5v-14q0 1 16.5 -4.5t40 -20.5t47 -36.5t40 -59t16.5 -82.5q0 -83 -54 -141t-131.5 -82.5t-168.5 -24.5zM309 1094q0 -39 30.5 -69t82.5 -30q54 0 84.5 29.5t30.5 69.5q0 39 -30 67.5t-85 28.5q-52 0 -82.5 -29t-30.5 -67zM324 1446q0 -35 25.5 -61.5t72.5 -26.5
q48 0 75 26.5t27 61.5q0 36 -27 62t-75 26q-47 0 -72.5 -26t-25.5 -62z" />
    <glyph glyph-name="uni2079" unicode="&#x2079;" horiz-adv-x="923" 
d="M487 1731q94 0 169 -33.5t121.5 -90.5t70.5 -128t24 -150q0 -90 -32.5 -177t-93.5 -160t-162.5 -118t-227.5 -45q-28 0 -59 2.5t-47 5.5l-17 3v209q70 -11 123 -11q108 0 186 55.5t91 151.5q-64 -110 -213 -110q-135 0 -212 82t-77 196q0 60 22.5 116t65.5 101.5
t112.5 73t155.5 27.5zM367 1423q0 -46 32 -80t90 -34q57 0 89 34t32 80q0 45 -32 79t-89 34q-58 0 -90 -34t-32 -79z" />
    <glyph glyph-name="uni2080" unicode="&#x2080;" horiz-adv-x="942" 
d="M471 -442q-123 0 -215.5 60.5t-139 161.5t-46.5 226q0 194 108 322.5t293 128.5q183 0 292 -128.5t109 -322.5q0 -125 -47.5 -226t-139.5 -161.5t-214 -60.5zM324 6q0 -111 40 -172t107 -61t107 62t40 171q0 113 -40 175.5t-107 62.5t-107 -63t-40 -175z" />
    <glyph glyph-name="uni2081" unicode="&#x2081;" horiz-adv-x="579" 
d="M463 453v-877h-234v582h-180v139l27 8q91 29 142.5 57t98.5 78l11 13h135z" />
    <glyph glyph-name="uni2082" unicode="&#x2082;" horiz-adv-x="854" 
d="M82 -424v170l192 145q23 18 66 50.5t62.5 47t48 40t41 42.5t22.5 39t10 44q0 44 -30 69t-74 25q-46 0 -78.5 -30t-32.5 -87h-233q0 81 29 144.5t78.5 102.5t111.5 59t131 20q149 0 248.5 -80.5t99.5 -202.5q0 -109 -85 -197.5t-265 -193.5h354v-207h-696z" />
    <glyph glyph-name="uni2083" unicode="&#x2083;" horiz-adv-x="851" 
d="M428 -442q-86 0 -153.5 24.5t-104 59t-60.5 77.5t-31 74.5t-7 56.5h231q0 -32 29 -64t92 -32q55 0 84 26.5t29 63.5q0 35 -28.5 56.5t-74.5 21.5h-119v174h117q47 0 72.5 23t25.5 57q0 36 -28 59t-76 23q-56 0 -81.5 -31.5t-25.5 -64.5h-225q0 24 7 56t30 75.5t58 78
t99 59t146 24.5q141 0 239.5 -67t98.5 -181q0 -81 -47.5 -131t-97.5 -62v-10q70 -19 114.5 -66.5t44.5 -121.5q0 -119 -101.5 -188.5t-256.5 -69.5z" />
    <glyph glyph-name="uni2084" unicode="&#x2084;" horiz-adv-x="948" 
d="M477 -424v168l-418 2v174l338 533h314v-523h135v-186h-135v-168h-234zM289 -70h188v295z" />
    <glyph glyph-name="uni2085" unicode="&#x2085;" horiz-adv-x="851" 
d="M410 -440q-65 0 -119.5 14t-90 35.5t-62.5 50.5t-41.5 56t-24 56.5t-12 46t-3.5 29.5h234l2.5 -10t9 -21.5t19 -27.5t34.5 -21.5t52 -9.5q54 0 84 33t30 78q0 44 -30 76t-84 32q-20 0 -36.5 -5t-26.5 -12.5t-17 -14.5t-10 -12l-3 -5h-249l59 521h584v-203h-406l-18 -158
l10 -2q7 9 23 22.5t59 30.5t94 17q135 0 213 -83t78 -198q0 -59 -22 -114.5t-64 -100.5t-111 -72.5t-155 -27.5z" />
    <glyph glyph-name="uni2086" unicode="&#x2086;" horiz-adv-x="843" 
d="M436 -446q-94 0 -169 33.5t-121.5 90.5t-70.5 127.5t-24 149.5q0 90 32.5 177t93.5 160t162.5 118t227.5 45q28 0 58.5 -2.5t47.5 -5.5l17 -3v-208q-70 10 -123 10q-107 0 -185 -55.5t-91 -151.5q65 111 213 111q135 0 212 -82.5t77 -196.5q0 -127 -94.5 -222t-262.5 -95
zM313 -139q0 -45 32 -79t89 -34q58 0 90.5 34t32.5 79q0 46 -32.5 80t-90.5 34q-57 0 -89 -34t-32 -80z" />
    <glyph glyph-name="uni2087" unicode="&#x2087;" horiz-adv-x="782" 
d="M190 -424q6 116 40 228.5t83.5 199t89 141t80.5 99.5h-436v205h698v-168q-12 -11 -32 -32.5t-72 -93t-93 -148.5t-76.5 -194.5t-39.5 -236.5h-242z" />
    <glyph glyph-name="uni2088" unicode="&#x2088;" horiz-adv-x="845" 
d="M422 -442q-52 0 -102 9t-95.5 28t-79.5 47.5t-54.5 70.5t-20.5 92q0 44 16 81.5t38.5 59t46.5 36.5t39 20.5t17 5.5v15q-2 0 -15 5.5t-34.5 19.5t-41 33.5t-34 53.5t-14.5 74q0 76 48.5 133t123.5 85t162 28q137 0 236.5 -66.5t99.5 -179.5q0 -41 -14.5 -75t-35.5 -54
t-42 -33.5t-35.5 -19t-14.5 -4.5v-15q0 1 16.5 -4.5t40 -20.5t47 -36.5t40 -59t16.5 -82.5q0 -83 -54 -140.5t-131.5 -82t-168.5 -24.5zM309 -166q0 -38 30.5 -68t82.5 -30q54 0 84.5 29t30.5 69q0 39 -30 67.5t-85 28.5q-52 0 -82.5 -29t-30.5 -67zM324 186
q0 -35 25.5 -61.5t72.5 -26.5q48 0 75 26.5t27 61.5q0 36 -27 62t-75 26q-47 0 -72.5 -26t-25.5 -62z" />
    <glyph glyph-name="uni2089" unicode="&#x2089;" horiz-adv-x="923" 
d="M487 459q94 0 169 -33.5t121.5 -90.5t70.5 -128t24 -150q0 -71 -19.5 -141t-61.5 -135t-101.5 -114.5t-146 -79t-187.5 -29.5q-28 0 -59 2.5t-47 5.5l-17 2v209q70 -10 123 -10q108 0 186 55.5t91 150.5q-64 -110 -213 -110q-135 0 -212 82t-77 196q0 60 22.5 116
t65.5 101.5t112.5 73t155.5 27.5zM367 152q0 -47 32 -81t90 -34q57 0 89 34.5t32 80.5q0 45 -32 78.5t-89 33.5q-58 0 -90 -33.5t-32 -78.5z" />
    <glyph glyph-name="dong" unicode="&#x20ab;" horiz-adv-x="1304" 
d="M522 283q-91 0 -165 35.5t-119.5 95t-70 133t-24.5 153.5t24.5 154t70 133.5t119.5 95t165 35.5q58 0 107.5 -15.5t79 -38t44.5 -39.5t21 -28h14v183h-208v159h208v95h267v-95h133v-159h-133v-885h-267v106h-14q-6 -11 -21 -26.5t-44.5 -38.5t-79 -38t-107.5 -15zM123 0
v145h1053v-145h-1053zM412 700q0 -82 50 -143t140 -61q91 0 142 61t51 143t-51 143.5t-142 61.5q-90 0 -140 -61t-50 -144z" />
    <glyph glyph-name="Euro" unicode="&#x20ac;" horiz-adv-x="1396" 
d="M1018 -20q-162 0 -297 44.5t-229 123.5t-156 179t-92 218h-187v157h162q-2 18 -2 56q0 35 2 53h-162v158h187q30 118 92.5 218.5t156.5 179.5t229 124t296 45q67 0 144 -9t121 -17l44 -9v-274q-160 35 -291 35q-175 0 -290 -80.5t-168 -212.5h532v-158h-569
q-2 -18 -2 -53q0 -38 2 -56h569v-157h-532q53 -132 168.5 -212.5t289.5 -80.5q58 0 131 9t117 19l43 9v-277q-159 -32 -309 -32z" />
    <glyph glyph-name="trademark" unicode="&#x2122;" horiz-adv-x="1671" 
d="M260 758v585h-207v173h617v-173h-207v-585h-203zM754 758v758h286l134 -365l141 365h266v-758h-190v532l-162 -407h-123l-162 409v-534h-190z" />
    <glyph glyph-name="oneeighth" unicode="&#x215b;" horiz-adv-x="1853" 
d="M369 1442v-715h-205v467h-144v127l21 4q125 35 201 111l6 6h121zM305 0l860 1434h232l-865 -1434h-227zM1200 195q0 38 13.5 70t33 49.5t38.5 30t33 16.5l13 4v6q-5 1 -12.5 4t-27 15t-34.5 27.5t-27.5 44t-12.5 62.5q0 94 81 148.5t195 54.5t196.5 -54t82.5 -145
q0 -35 -12.5 -64t-30 -45.5t-34.5 -28t-29 -15.5l-13 -4v-6l7 -2q6 -2 18 -7.5t25.5 -14t28 -22t26 -30.5t19 -41.5t7.5 -52.5q0 -68 -44 -116t-108 -68.5t-139 -20.5t-139.5 20.5t-109 68.5t-44.5 116zM1399 219q0 -35 24.5 -60.5t69.5 -25.5t69.5 25.5t24.5 60.5
q0 34 -25 59t-69 25q-43 0 -68.5 -25.5t-25.5 -58.5zM1407 510q0 -30 23 -53t63 -23t63 23t23 55q0 30 -23 53t-63 23t-63 -23t-23 -55z" />
    <glyph glyph-name="threeeighths" unicode="&#x215c;" horiz-adv-x="2015" 
d="M358 717q-71 0 -125.5 19.5t-84 47.5t-48.5 63t-24.5 60.5t-5.5 46.5h190q0 -26 23 -50.5t73 -24.5q45 0 69 20t24 51q0 28 -21.5 47t-65.5 19h-81v143h81q39 0 61.5 20t22.5 48t-23.5 47.5t-64.5 19.5q-47 0 -68.5 -24t-21.5 -51h-184q0 21 6 47t25 60t47.5 62t79.5 47
t116 19q119 0 201 -55.5t82 -149.5q0 -64 -38 -106t-79 -51v-9q127 -38 127 -151q0 -95 -82.5 -155t-210.5 -60zM467 0l860 1434h232l-865 -1434h-227zM1362 195q0 38 13.5 70t33 49.5t38.5 30t33 16.5l13 4v6q-5 1 -12.5 4t-27.5 15t-35 27.5t-27.5 44t-12.5 62.5
q0 94 81.5 148.5t195.5 54.5t196 -54t82 -145q0 -35 -12 -64t-29.5 -45.5t-35 -28t-29.5 -15.5l-12 -4v-6l7 -2q6 -2 18 -7.5t25.5 -14t28 -22t26 -30.5t19 -41.5t7.5 -52.5q0 -68 -44 -116t-108 -68.5t-139 -20.5t-139.5 20.5t-109 68.5t-44.5 116zM1561 219
q0 -35 24.5 -60.5t69.5 -25.5t69.5 25.5t24.5 60.5q0 34 -25 59t-69 25q-43 0 -68.5 -25.5t-25.5 -58.5zM1569 510q0 -30 23 -53t63 -23t63 23t23 55q0 30 -23 53t-63 23t-63 -23t-23 -55z" />
    <glyph glyph-name="fiveeighths" unicode="&#x215d;" horiz-adv-x="2025" 
d="M352 713q-73 0 -128.5 22t-83.5 52t-45 67.5t-21 59.5t-4 38h186q0 -3 1 -8.5t7.5 -19.5t15.5 -24.5t28 -19t44 -8.5q44 0 70.5 29t26.5 66q0 39 -25.5 68.5t-67.5 29.5q-19 0 -35 -5.5t-25 -12.5t-15 -14.5t-9 -12.5l-2 -6h-194l47 430h473v-162h-330l-14 -139h4
q1 3 6 8.5t17 15.5t27.5 18t41.5 14.5t55 6.5q112 0 175 -69t63 -164q0 -49 -18 -94.5t-52 -83t-91 -60t-128 -22.5zM477 0l860 1434h232l-864 -1434h-228zM1372 195q0 38 13.5 70t33 49.5t38.5 30t33 16.5l13 4v6q-5 1 -12.5 4t-27 15t-34.5 27.5t-27.5 44t-12.5 62.5
q0 94 81 148.5t195 54.5t196.5 -54t82.5 -145q0 -35 -12.5 -64t-30 -45.5t-34.5 -28t-29 -15.5l-13 -4v-6l7 -2q6 -2 18 -7.5t25.5 -14t28 -22t26 -30.5t19 -41.5t7.5 -52.5q0 -68 -44 -116t-108 -68.5t-139 -20.5t-139.5 20.5t-109 68.5t-44.5 116zM1571 219
q0 -35 24.5 -60.5t69.5 -25.5t69.5 25.5t24.5 60.5q0 34 -25 59t-69 25q-43 0 -68.5 -25.5t-25.5 -58.5zM1579 510q0 -30 23 -53t63 -23t63 23t23 55q0 30 -23 53t-63 23t-63 -23t-23 -55z" />
    <glyph glyph-name="seveneighths" unicode="&#x215e;" horiz-adv-x="1880" 
d="M127 725q6 99 31 192t62 163.5t66 114t60 79.5h-342v168h555v-135q-9 -9 -24 -25t-53.5 -72.5t-69 -119.5t-57.5 -162t-31 -203h-197zM332 0l860 1434h231l-864 -1434h-227zM1227 195q0 38 13.5 70t32.5 49.5t38.5 30t32.5 16.5l14 4v6q-5 1 -12.5 4t-27.5 15t-35 27.5
t-27.5 44t-12.5 62.5q0 94 81.5 148.5t195.5 54.5t196 -54t82 -145q0 -35 -12.5 -64t-30 -45.5t-34.5 -28t-29 -15.5l-13 -4v-6l7 -2q6 -2 18 -7.5t25.5 -14t28 -22t26 -30.5t19 -41.5t7.5 -52.5q0 -68 -43.5 -116t-107.5 -68.5t-139 -20.5t-139.5 20.5t-109 68.5t-44.5 116
zM1425 219q0 -35 25 -60.5t70 -25.5t69.5 25.5t24.5 60.5q0 34 -25 59t-69 25q-43 0 -69 -25.5t-26 -58.5zM1434 510q0 -30 23 -53t63 -23t63 23t23 55q0 30 -23 53t-63 23t-63 -23t-23 -55z" />
    <glyph glyph-name="minus" unicode="&#x2212;" horiz-adv-x="1095" 
d="M109 506v266h878v-266h-878z" />
    <glyph glyph-name="uni2215" unicode="&#x2215;" horiz-adv-x="1089" 
d="M37 0l715 1516h292l-712 -1516h-295z" />
    <glyph glyph-name="approxequal" unicode="&#x2248;" horiz-adv-x="2007" 
d="M655 643q-53 0 -99.5 20t-74 43.5t-59 43.5t-57.5 20q-35 0 -49.5 -29t-14.5 -86h-170q0 56 9.5 104.5t32 94.5t67.5 73t108 27q53 0 101 -20t76.5 -43.5t60.5 -43.5t57 -20q59 0 59 115h170q0 -56 -9.5 -104.5t-32 -94.5t-67.5 -73t-108 -27zM1135 655q0 56 9.5 104.5
t32 94.5t67.5 73t108 27q53 0 101 -20t76.5 -43.5t60.5 -43.5t57 -20q59 0 59 115h170q0 -56 -9.5 -104.5t-32 -94.5t-67.5 -73t-108 -27q-53 0 -100 20t-74.5 43.5t-59 43.5t-57.5 20q-35 0 -49 -28.5t-14 -86.5h-170z" />
    <glyph glyph-name="notequal" unicode="&#x2260;" horiz-adv-x="1357" 
d="M293 0l170 303h-354v254h495l119 211h-614v254h757l142 254h241l-141 -254h66v-254h-209l-119 -211h328v-254h-469l-170 -303h-242z" />
    <glyph glyph-name="lessequal" unicode="&#x2264;" horiz-adv-x="1196" 
d="M1034 319l-872 326v180l872 326v-236l-555 -178l555 -182v-236zM152 0v172h892v-172h-892z" />
    <glyph glyph-name="greaterequal" unicode="&#x2265;" horiz-adv-x="1196" 
d="M164 319v236l553 182l-553 178v236l870 -326v-180zM152 0v172h892v-172h-892z" />
    <glyph glyph-name="A.001" horiz-adv-x="1568" 
d="M49 0l508 1516h455l508 -1516h-359l-96 305h-590l-96 -305h-330zM559 571h422l-211 666z" />
    <glyph glyph-name="B.001" horiz-adv-x="1366" 
 />
    <glyph glyph-name="B.002" horiz-adv-x="1351" 
 />
    <glyph glyph-name="B.003" horiz-adv-x="1363" 
 />
    <glyph glyph-name="C.001" horiz-adv-x="1601" 
d="M840 -20q-154 0 -283 43t-217.5 117t-150.5 174t-90.5 212.5t-28.5 233.5q0 120 28.5 231.5t90.5 211t150.5 173.5t217.5 117t283 43q104 0 194.5 -19.5t155.5 -52t118.5 -75t88 -90t61 -94.5t40 -89.5t22 -75t10.5 -52.5l2 -19h-330q-1 6 -3 16.5t-11.5 41.5t-24 58.5
t-43 61.5t-64.5 58.5t-91.5 41.5t-122.5 17q-82 0 -151.5 -26t-119 -72t-84 -109.5t-51 -138t-16.5 -158.5q0 -105 27 -196t78 -160.5t133 -109.5t184 -40q67 0 122.5 16t91.5 42t64 57t43 62.5t24.5 57.5t12.5 42l2 16h330q-1 -12 -4 -32.5t-20 -79t-43 -112.5t-79.5 -119
t-123 -112t-179.5 -79.5t-243 -32.5z" />
    <glyph glyph-name="G.001" horiz-adv-x="1634" 
d="M848 -20q-151 0 -280 43.5t-219 117.5t-154 173.5t-94.5 211.5t-30.5 230t30.5 230.5t94.5 212t154.5 174.5t219 119t279.5 44q127 0 233.5 -28t174.5 -72t121 -98t80 -108t44.5 -98t22.5 -72l4 -28h-322q-1 5 -3 13t-12.5 31.5t-25 44.5t-43 47t-64 44.5t-90.5 31.5
t-120 13q-88 0 -163 -27.5t-128 -75t-90.5 -111t-55.5 -135t-18 -146.5q0 -96 30.5 -185t87.5 -161t149 -115t206 -43q162 0 264 82.5t127 232.5h-428v248h736v-108q0 -178 -55.5 -319t-153 -230.5t-227 -136.5t-281.5 -47z" />
    <glyph glyph-name="J.001" horiz-adv-x="956" 
d="M303 -20q-53 0 -107.5 5t-83.5 10l-28 5v264q82 -12 162 -12q150 0 229.5 71.5t79.5 237.5v955h313v-961q0 -124 -32.5 -226t-98.5 -181.5t-176.5 -123.5t-257.5 -44z" />
    <glyph glyph-name="J.002" horiz-adv-x="1277" 
d="M651 -20q-69 0 -129 11.5t-102.5 31t-77 45t-57 53.5t-39 55.5t-25 53t-13.5 45t-6 31.5l-1 11l245 72q1 -5 4.5 -14.5t17.5 -32.5t32.5 -41t54 -32.5t78.5 -14.5q221 0 221 274v988h336v-996q0 -112 -29 -203t-79.5 -153t-119.5 -104t-147 -61t-164 -19z" />
    <glyph glyph-name="M.001" horiz-adv-x="1716" 
d="M88 0v1516h426l344 -748l359 748h411v-1516h-311v1034l-330 -680h-256l-332 688v-1042h-311z" />
    <glyph glyph-name="M.002" horiz-adv-x="1703" 
d="M88 0v1516h426l344 -809l359 809h399v-1516h-311v1030l-349 -772h-206l-351 780v-1038h-311z" />
    <glyph glyph-name="M.003" horiz-adv-x="1689" 
d="M88 0v1516h447l313 -789l323 789h431v-1516h-322v1079l-322 -764h-227l-321 768v-1083h-322z" />
    <glyph glyph-name="N.001" horiz-adv-x="1447" 
d="M88 0v1516h299l643 -955v955h330v-1516h-301l-639 926v-926h-332z" />
    <glyph glyph-name="Q.001" horiz-adv-x="1714" 
d="M1376 -72l-131 146q-174 -94 -399 -94q-151 0 -279 42t-219 115.5t-155.5 172.5t-95.5 213t-31 237q0 122 31 235t95.5 211.5t155.5 172t219 115.5t279 42t279.5 -42t219.5 -115.5t155 -172t95 -211.5t31 -235q0 -151 -46.5 -288t-137.5 -241l270 -303h-336zM418 760
q0 -138 48.5 -250t147 -181t232.5 -69q100 0 178 37l-272 295l196 164l260 -287q70 131 70 291q0 136 -49.5 247t-149 179.5t-233.5 68.5t-232.5 -68.5t-147 -179.5t-48.5 -247z" />
    <glyph glyph-name="Q.002" horiz-adv-x="1714" 
d="M1376 -72l-131 146q-174 -94 -399 -94q-151 0 -279 42t-219 115.5t-155.5 172.5t-95.5 213t-31 237q0 122 31 235t95.5 211.5t155.5 172t219 115.5t279 42t279.5 -42t219.5 -115.5t155 -172t95 -211.5t31 -235q0 -151 -46.5 -288t-137.5 -241l270 -303h-336zM418 760
q0 -138 48.5 -250t147 -181t232.5 -69q100 0 178 37l-272 295l196 164l260 -287q70 131 70 291q0 136 -49.5 247t-149 179.5t-233.5 68.5t-232.5 -68.5t-147 -179.5t-48.5 -247z" />
    <glyph glyph-name="Q.003" horiz-adv-x="1714" 
d="M1313 0l-68 74q-174 -94 -399 -94q-151 0 -279 42t-219 115.5t-155.5 172.5t-95.5 213t-31 237q0 122 31 235t95.5 211.5t155.5 172t219 115.5t279 42t279.5 -42t219.5 -115.5t155 -172t95 -211.5t31 -235q0 -150 -46.5 -286.5t-137.5 -242.5l207 -231h-336zM418 760
q0 -138 48.5 -250t147 -181t232.5 -69q100 0 178 37l-272 295l196 164l260 -287q70 131 70 291q0 136 -49.5 247t-149 179.5t-233.5 68.5t-232.5 -68.5t-147 -179.5t-48.5 -247z" />
    <glyph glyph-name="R.001" horiz-adv-x="1476" 
d="M1012 0l-340 584h-234v-584h-338v1516h686q232 0 378.5 -130t146.5 -335q0 -154 -84 -268.5t-230 -164.5l387 -618h-372zM438 842h320q102 0 162.5 55.5t60.5 142.5q0 88 -60.5 145.5t-162.5 57.5h-320v-401z" />
    <glyph glyph-name="R.002" horiz-adv-x="1394" 
d="M100 0v1516h586q117 0 211.5 -26.5t157 -70.5t104.5 -105t60 -127t18 -138q0 -96 -30 -177.5t-102 -150.5t-181 -105l391 -616h-385l-334 582h-158v-582h-338zM438 823h221q65 0 112.5 19t73.5 51t38 68t12 77q0 42 -12 78.5t-38 68.5t-73.5 51t-112.5 19h-221v-432z" />
    <glyph glyph-name="S.001" horiz-adv-x="1345" 
d="M694 -23q-104 0 -192 16.5t-150 45t-111.5 65t-80 77t-53 81t-32.5 77t-15.5 65t-5.5 44.5l-1 17h348q0 -9 2 -24t18 -53t44 -67t88.5 -53t142.5 -24q121 0 187.5 55t66.5 137q0 64 -43 104t-137 60l-203 37q-226 42 -345.5 144.5t-119.5 281.5q0 214 161 342.5
t421 128.5q117 0 211.5 -25t152.5 -64.5t101 -87t62.5 -95.5t31 -87.5t13.5 -64.5l1 -25h-327q0 8 -1.5 20t-15.5 44t-37.5 56.5t-75 44.5t-120.5 20q-120 0 -180 -51.5t-60 -124.5q0 -66 49 -104t144 -56l213 -41q446 -86 446 -430q0 -100 -40.5 -188t-115 -154.5
t-189 -105t-253.5 -38.5z" />
    <glyph glyph-name="S.002" horiz-adv-x="1345" 
d="M690 -23q-103 0 -191 16.5t-149 44.5t-110.5 64.5t-80 76.5t-52.5 80t-32 76.5t-15.5 64.5t-5.5 44l-1 17h340q0 -5 1 -13t8 -30.5t18 -43.5t34 -46.5t53 -44t79 -31t108 -12.5q122 0 191 57t69 141q0 128 -184 164l-203 39q-228 42 -346.5 143t-118.5 283
q0 211 160.5 339t417.5 128q93 0 172 -15.5t134 -41t100 -59t72.5 -71t48 -74.5t29.5 -70.5t14.5 -59t5.5 -41.5l1 -15h-319q0 8 -2 20.5t-16.5 45t-38.5 57.5t-77 45.5t-124 20.5q-120 0 -182 -54.5t-62 -129.5q0 -125 197 -162l213 -41q222 -42 334 -145.5t112 -282.5
q0 -101 -39 -188t-113 -153.5t-190 -104.5t-260 -38z" />
    <glyph glyph-name="S.003" horiz-adv-x="1345" 
d="M666 -23q-105 0 -194 16.5t-151.5 44.5t-112.5 64.5t-81 76.5t-53.5 80t-32.5 76.5t-16 64.5t-7 44v17h347q0 -5 1 -12.5t7.5 -30.5t17.5 -43.5t34 -46t53 -43.5t79 -30.5t109 -12.5q124 0 192 56.5t68 137.5q0 136 -193 168l-182 31q-238 39 -360.5 143.5t-122.5 286.5
q0 208 160.5 338.5t420.5 130.5q93 0 173 -15t136.5 -41t102 -59t74 -70t50 -74t31.5 -70t15.5 -59t6.5 -41l1 -15h-328q0 7 -2.5 19.5t-17.5 44.5t-40 56t-77.5 44t-122.5 20q-115 0 -177 -56.5t-62 -132.5q0 -71 50.5 -111t158.5 -59l190 -30q230 -37 345.5 -141
t115.5 -283q0 -101 -40 -188t-114.5 -153.5t-191 -104.5t-260.5 -38z" />
    <glyph glyph-name="S.004" horiz-adv-x="1345" 
d="M690 -23q-103 0 -191 16.5t-149 44.5t-110.5 64.5t-80 76.5t-52.5 80t-32 76.5t-15.5 64.5t-5.5 44l-1 17h340q0 -5 1 -13t8 -30.5t18 -43.5t34 -46.5t53 -44t79 -31t108 -12.5q122 0 191 58.5t69 141.5q0 68 -44.5 108.5t-139.5 57.5l-203 35q-226 38 -345.5 141
t-119.5 285q0 211 160.5 339t417.5 128q93 0 172 -15.5t134 -41t100 -59t72.5 -71t48 -74.5t29.5 -70.5t14.5 -59t5.5 -41.5l1 -15h-319q0 8 -2 20.5t-16.5 45t-38.5 57.5t-77 45.5t-124 20.5q-120 0 -182 -54.5t-62 -129.5q0 -129 197 -166l213 -37q222 -39 334 -142
t112 -284q0 -100 -39 -187.5t-113 -154.5t-190 -105.5t-260 -38.5z" />
    <glyph glyph-name="S.005" horiz-adv-x="1370" 
d="M705 -23q-104 0 -192.5 16.5t-150 44t-111.5 63.5t-81 76t-53.5 80t-32.5 76t-16 63.5t-6 43.5l-1 17h342q0 -9 2.5 -24t20 -53t46 -67t90 -53t143.5 -24q125 0 194.5 58t69.5 140q0 67 -47 109.5t-150 62.5l-184 31q-479 85 -479 430q0 206 161.5 336.5t417.5 130.5
q93 0 172.5 -15t135.5 -40.5t102 -58.5t74 -69.5t49.5 -73t31.5 -69.5t15.5 -58.5t6.5 -40.5l1 -15h-324q0 4 -1 10.5t-7 25.5t-15.5 36.5t-29.5 39t-46.5 36.5t-69 25.5t-93.5 10.5q-118 0 -182 -57t-64 -134q0 -70 52 -110.5t161 -61.5l193 -32q230 -41 344.5 -143
t114.5 -281q0 -100 -40 -187t-114 -153t-190.5 -104t-259.5 -38z" />
    <glyph glyph-name="S.006" horiz-adv-x="1329" 
d="M684 -20q-132 0 -238.5 26.5t-172 69t-114 94t-70.5 103.5t-34.5 94.5t-14.5 68.5l-1 27h340q0 -5 1 -13t8.5 -32t19 -46t35.5 -48.5t55.5 -45.5t82 -32t111.5 -13q120 0 191 56.5t71 138.5q0 148 -211 184l-190 33q-467 83 -467 422q0 207 160.5 338t425.5 131
q92 0 171.5 -15.5t135.5 -41.5t102 -59.5t75 -70.5t50.5 -74.5t32 -71t17 -59.5t7.5 -42l1 -15h-314q-1 8 -3.5 21.5t-20 47.5t-44.5 59.5t-83 47t-129 21.5q-119 0 -184.5 -54t-65.5 -132q0 -71 52 -111.5t175 -62.5l180 -31q227 -38 345 -148.5t118 -279.5
q0 -211 -165.5 -348t-440.5 -137z" />
    <glyph glyph-name="S.007" horiz-adv-x="1384" 
d="M713 -20q-101 0 -188 15.5t-148 42t-111.5 61t-81.5 72.5t-54.5 76t-34.5 72.5t-18 61t-8 41.5l-1 16l340 25q0 -5 1 -13t8.5 -32t18.5 -46t35 -48.5t55.5 -45.5t81.5 -32t111 -13q121 0 191.5 56.5t70.5 138.5q0 72 -50.5 116t-158.5 66l-190 37q-469 87 -469 420
q0 207 161 338t426 131q91 0 169 -14.5t133.5 -39t101.5 -56.5t75.5 -67.5t51.5 -71t33 -67.5t18 -56.5t8 -39.5l2 -14l-311 -23q-1 8 -3.5 21.5t-20.5 47.5t-45 59.5t-83.5 47t-130.5 21.5q-119 0 -184 -54t-65 -132q0 -71 51.5 -110t175.5 -62l180 -33q227 -43 344 -152
t117 -276q0 -211 -164.5 -348t-439.5 -137z" />
    <glyph glyph-name="S.008" horiz-adv-x="1384" 
d="M713 -20q-101 0 -188 15.5t-148 42t-111.5 61t-81.5 72.5t-54.5 76t-34.5 72.5t-18 61t-8 41.5l-1 16l340 25q0 -5 1 -13t8.5 -32t18.5 -46t35 -48.5t55.5 -45.5t81.5 -32t111 -13q121 0 191.5 56.5t70.5 138.5q0 74 -50.5 119.5t-158.5 64.5l-190 33
q-232 41 -350.5 147.5t-118.5 274.5q0 207 161 338t426 131q91 0 169 -14.5t133.5 -39t101.5 -56.5t75.5 -67.5t51.5 -71t33 -67.5t18 -56.5t8 -39.5l2 -14l-311 -23q-1 8 -3.5 21.5t-20.5 47.5t-45 59.5t-83.5 47t-130.5 21.5q-119 0 -184 -54t-65 -132q0 -71 52 -111.5
t175 -62.5l180 -31q227 -38 344 -148.5t117 -279.5q0 -211 -165.5 -348t-438.5 -137z" />
    <glyph glyph-name="S.009" horiz-adv-x="1384" 
d="M713 -20q-101 0 -188 15.5t-148 42t-111.5 61t-81.5 72.5t-54.5 76t-34.5 72.5t-18 61t-8 41.5l-1 16l340 25q0 -5 1 -13t8.5 -32t18.5 -46t35 -48.5t55.5 -45.5t81.5 -32t111 -13q121 0 191.5 56.5t70.5 138.5q0 74 -50.5 119.5t-158.5 64.5l-190 33
q-232 41 -350.5 147.5t-118.5 274.5q0 207 161 338t426 131q91 0 169 -14.5t133.5 -39t101.5 -56.5t75.5 -67.5t51.5 -71t33 -67.5t18 -56.5t8 -39.5l2 -14l-311 -23q-1 8 -3.5 21.5t-20.5 47.5t-45 59.5t-83.5 47t-130.5 21.5q-119 0 -184 -54t-65 -132q0 -71 52 -111.5
t175 -62.5l180 -31q227 -38 344 -148.5t117 -279.5q0 -211 -165.5 -348t-438.5 -137z" />
    <glyph glyph-name="S.010" horiz-adv-x="1384" 
d="M713 -20q-101 0 -188 16t-148 43t-111.5 62t-81.5 73.5t-54.5 77t-34.5 73.5t-18 62t-8 43l-1 16l340 25q0 -5 1 -13.5t8.5 -33.5t18.5 -47.5t35 -49.5t55.5 -47t81.5 -33.5t111 -13.5q121 0 191.5 56.5t70.5 138.5q0 72 -50.5 116t-158.5 66l-190 37q-469 87 -469 420
q0 207 161 338t426 131q115 0 210 -24t154.5 -62t105 -84.5t68 -93t36 -84.5t16.5 -62l2 -24l-311 -23q0 4 -1.5 11.5t-8.5 29t-18 40.5t-33 43t-50.5 41t-73 28.5t-98.5 11.5q-119 0 -184 -54t-65 -132q0 -71 51.5 -110t175.5 -62l180 -33q227 -43 344 -152t117 -276
q0 -211 -164.5 -348t-439.5 -137z" />
    <glyph glyph-name="S.011" horiz-adv-x="1384" 
d="M717 -20q-102 0 -189.5 17t-149 45t-112 65t-82 78t-55 81.5t-34.5 77.5t-18 65t-8 45l-1 17h340q0 -5 1 -13.5t8.5 -33.5t18.5 -47.5t35 -49.5t55.5 -47t81.5 -33.5t111 -13.5q123 0 197.5 57t74.5 138q0 71 -54.5 115.5t-164.5 66.5l-178 35q-481 89 -481 428
q0 202 161 332.5t422 130.5q91 0 170 -15.5t135 -42t102.5 -61t75.5 -72t51.5 -75.5t33.5 -72.5t18 -61t8 -42.5l2 -15h-311q0 4 -1.5 11.5t-8.5 29t-18 40.5t-33 43t-50.5 41t-73 28.5t-98.5 11.5q-122 0 -189 -54t-67 -132q0 -69 56.5 -109.5t177.5 -62.5l180 -33
q227 -43 344 -152t117 -276q0 -212 -161.5 -348.5t-438.5 -136.5z" />
    <glyph glyph-name="S.012" horiz-adv-x="1384" 
d="M713 -20q-101 0 -188 17t-148 45t-111.5 65t-81.5 78t-54.5 81.5t-34.5 77.5t-18 65t-8 45l-1 17h340q0 -5 1 -13.5t8.5 -33.5t18.5 -47.5t35 -49.5t55.5 -47t81.5 -33.5t111 -13.5q124 0 196 56.5t72 138.5q0 73 -51 116.5t-164 65.5l-190 37q-469 87 -469 422
q0 207 156.5 337t426.5 130q91 0 170 -15.5t135 -42t102.5 -61t75.5 -72t51.5 -75.5t33.5 -72.5t18 -61t8 -42.5l2 -15h-311q0 4 -1.5 11.5t-8.5 29t-18 40.5t-33 43t-50.5 41t-73 28.5t-98.5 11.5q-123 0 -189.5 -53.5t-66.5 -132.5q0 -70 53 -108.5t181 -63.5l180 -33
q227 -43 344 -152t117 -276q0 -211 -164.5 -348t-439.5 -137z" />
    <glyph glyph-name="S.013" horiz-adv-x="1384" 
d="M721 -20q-103 0 -190.5 17t-149.5 45t-113 65t-82.5 78t-55.5 81.5t-35 77.5t-18 65t-8 45l-1 17h340q0 -5 1 -13.5t8.5 -33.5t19 -47.5t35.5 -49.5t56 -47t82.5 -33.5t112.5 -13.5q123 0 193.5 56.5t70.5 138.5q0 72 -50.5 114.5t-164.5 67.5l-190 39
q-234 48 -351.5 151t-117.5 269q0 207 156.5 337t426.5 130q91 0 170 -15.5t135 -42t102.5 -61t75.5 -72t51.5 -75.5t33.5 -72.5t18 -61t8 -42.5l2 -15h-311q0 4 -1.5 11.5t-8.5 29t-18 40.5t-33 43t-50.5 41t-73 28.5t-98.5 11.5q-122 0 -190 -53t-68 -129
q0 -67 53.5 -107.5t182.5 -66.5l180 -37q228 -46 344.5 -153.5t116.5 -272.5q0 -212 -161.5 -348.5t-434.5 -136.5z" />
    <glyph glyph-name="S.014" horiz-adv-x="1384" 
d="M719 -20q-103 0 -190.5 17t-149.5 45t-113 65t-82.5 78t-55.5 81.5t-35 77.5t-18 65t-8 45l-1 17h344q1 -10 3.5 -25.5t20.5 -56t47.5 -71.5t92 -56.5t145.5 -25.5q123 0 194.5 56t71.5 136q0 72 -51 114t-162 66l-199 39q-231 46 -346.5 149.5t-115.5 272.5
q0 206 157 336.5t428 130.5q92 0 171 -15.5t135 -42.5t102.5 -61t76 -72.5t52 -76.5t33.5 -72t18 -61t8 -43l2 -15h-317q0 4 -1.5 11.5t-8.5 29t-17.5 40.5t-32 43t-49.5 41t-72.5 28.5t-97.5 11.5q-121 0 -187.5 -53.5t-66.5 -130.5q0 -65 52.5 -104.5t179.5 -65.5l190 -39
q222 -43 338.5 -151t116.5 -273q0 -210 -164.5 -347.5t-437.5 -137.5z" />
    <glyph glyph-name="S.015" horiz-adv-x="1384" 
d="M719 -20q-103 0 -191.5 17t-151 45t-113.5 65t-83 78t-56 81.5t-35.5 77.5t-18.5 65t-8 45l-1 17h345q0 -10 2.5 -25.5t20.5 -56t47.5 -71.5t93.5 -56.5t149 -25.5q125 0 197.5 55.5t72.5 136.5q0 70 -51.5 111.5t-163.5 66.5l-203 41q-230 47 -346 150t-116 272
q0 206 157.5 336.5t429.5 130.5q162 0 283.5 -47.5t179.5 -115t92.5 -134.5t40.5 -115l6 -47h-317q0 4 -1.5 11.5t-8.5 29t-17.5 40.5t-32.5 43t-50.5 41t-73.5 28.5t-99 11.5q-123 0 -190.5 -53.5t-67.5 -130.5q0 -63 53.5 -103t182.5 -67l190 -39q227 -46 343 -154
t116 -272q0 -211 -165 -347t-441 -136z" />
    <glyph glyph-name="S.016" horiz-adv-x="1384" 
d="M719 -20q-132 0 -240 27.5t-174.5 72t-116 97.5t-72.5 106.5t-36 98t-15 72.5l-2 27h345q0 -5 1 -14t7.5 -34.5t17.5 -48.5t34.5 -51t55 -48.5t82.5 -34.5t113 -14q124 0 196 56t72 138q0 71 -51 112.5t-162 65.5l-203 39q-462 91 -462 420q0 206 157 337.5t430 131.5
q94 0 174.5 -16t137.5 -43t103.5 -62.5t76 -74t51 -77.5t32 -74.5t17 -62.5t7.5 -43l1 -16h-317q-1 9 -3 23.5t-19 52t-44 66t-83.5 52t-131.5 23.5q-124 0 -191 -54.5t-67 -133.5q0 -63 54 -103.5t182 -66.5l190 -37q225 -44 340 -151.5t115 -272.5q0 -210 -164 -347.5
t-438 -137.5z" />
    <glyph glyph-name="S.017" horiz-adv-x="1384" 
d="M719 -20q-103 0 -191.5 17t-151 45t-113.5 65t-83 78t-56 81.5t-35.5 77.5t-18.5 65t-8 45l-1 17h345q0 -10 2.5 -25.5t20.5 -56t47.5 -71.5t93.5 -56.5t149 -25.5q125 0 197.5 55.5t72.5 136.5q0 72 -52 114t-163 64l-203 41q-230 45 -346 148.5t-116 273.5
q0 206 157.5 336.5t429.5 130.5q162 0 283.5 -47.5t179.5 -115t92.5 -134.5t40.5 -115l6 -47h-317q0 4 -1.5 11.5t-8.5 29t-17.5 40.5t-32.5 43t-50.5 41t-73.5 28.5t-99 11.5q-123 0 -190.5 -53.5t-67.5 -130.5q0 -65 53.5 -104.5t182.5 -65.5l190 -39
q226 -43 342.5 -151.5t116.5 -274.5q0 -210 -165 -346.5t-441 -136.5z" />
    <glyph glyph-name="S.018" horiz-adv-x="1384" 
d="M723 -20q-138 0 -249.5 28.5t-178.5 74.5t-116 101t-70.5 110t-33 101t-11.5 75l-1 28h340q0 -5 0.5 -14.5t6 -37t16.5 -52t34.5 -55t56 -52t86 -36.5t120.5 -15q123 0 193.5 56t70.5 138q0 71 -51.5 113.5t-161.5 64.5l-184 35q-245 46 -363 150t-118 276
q0 205 156.5 336t428.5 131q96 0 178 -16.5t139.5 -44t104 -63.5t75.5 -76t50.5 -79.5t31.5 -75.5t15.5 -63.5t6.5 -43.5l1 -17h-317q0 9 -2 24.5t-18.5 54.5t-43.5 69t-85 54.5t-136 24.5q-121 0 -187.5 -53t-66.5 -129q0 -68 53.5 -110t182.5 -66l190 -37
q225 -43 340 -151t115 -273q0 -210 -163 -347.5t-435 -137.5z" />
    <glyph glyph-name="S.019" horiz-adv-x="1384" 
d="M719 -20q-136 0 -246 29t-176 75.5t-115 103t-70 113t-33 103t-13 75.5v29h333q0 -6 0.5 -16t6.5 -38.5t16.5 -54.5t34.5 -57.5t56.5 -54.5t86.5 -38.5t121 -15.5q121 0 190.5 58.5t69.5 142.5q0 67 -48.5 108.5t-148.5 61.5l-213 41q-232 45 -346 149t-114 277
q0 98 39.5 182.5t112.5 147.5t183 99t244 36q98 0 181 -16.5t141 -44t105 -63.5t76 -76t50.5 -79.5t31 -75.5t15 -63.5t6.5 -43.5v-17h-317q0 5 -0.5 13t-6.5 32t-15.5 45.5t-31 48t-50.5 45.5t-76.5 32t-106.5 13q-115 0 -181.5 -55t-66.5 -133q0 -65 47.5 -106t155.5 -62
l219 -41q224 -43 339.5 -151t115.5 -277q0 -97 -40.5 -184t-115 -153t-190 -105t-256.5 -39z" />
    <glyph glyph-name="W.001" horiz-adv-x="2115" 
d="M410 0l-377 1516h315l268 -1098l281 1098h322l280 -1098l266 1098h318l-379 -1516h-401l-244 969l-246 -969h-403z" />
    <glyph glyph-name="i.loclTRK" horiz-adv-x="499" 
d="M90 0v1085h311v-1085h-311zM59 1391q0 78 53.5 130t137.5 52q81 0 134.5 -52.5t53.5 -129.5q0 -75 -53.5 -128t-134.5 -53q-83 0 -137 53.5t-54 127.5z" />
    <glyph glyph-name="a.001" horiz-adv-x="1157" 
d="M608 459q-122 -9 -176.5 -45.5t-54.5 -100.5q0 -59 43.5 -92t109.5 -33q101 0 164.5 69t63.5 183v39zM84 291q0 316 446 348l228 23v45q0 74 -42 124t-132 50q-50 0 -87.5 -15t-56 -36t-30 -42t-13.5 -36l-2 -15h-286q0 8 1.5 21t12.5 51.5t28 73.5t53.5 77.5t85 73
t126 51.5t172.5 21q126 0 219.5 -32.5t147 -90t79 -126.5t25.5 -150v-707h-301v131h-15q-12 -21 -31 -41.5t-55 -48t-94.5 -44.5t-130.5 -17q-152 0 -250 83t-98 228z" />
    <glyph glyph-name="a.002" horiz-adv-x="1157" 
d="M535 444q-162 -20 -162 -129q0 -60 44.5 -92.5t114.5 -32.5q99 0 162.5 68t63.5 182v37zM72 293q0 79 30.5 140.5t86 100t123.5 61.5t153 34l293 39v37q0 75 -43 124.5t-133 49.5q-49 0 -86 -15t-55 -36.5t-29 -43t-13 -36.5l-2 -15h-286q0 8 2 21.5t12.5 52t28 74
t54 78.5t84.5 74t125 52t171 21q122 0 217 -34.5t150 -92t82.5 -126.5t27.5 -144v-709h-307v131h-15q-105 -151 -313 -151q-158 0 -258 84.5t-100 228.5z" />
    <glyph glyph-name="a.003" horiz-adv-x="1144" 
d="M623 473q-139 -4 -195.5 -45.5t-56.5 -110.5q0 -60 44 -96.5t109 -36.5q101 0 165.5 69.5t64.5 186.5v39zM78 303q0 332 500 352l176 9v43q0 75 -42.5 125.5t-136.5 50.5q-49 0 -86 -15t-55 -36.5t-29 -43t-13 -36.5l-3 -15h-280q0 8 1.5 21t12 51.5t27.5 73.5t53 77.5
t83.5 73t124 51.5t169.5 21q126 0 220.5 -32.5t148 -90t79 -126.5t25.5 -150v-707h-299v131h-17q-7 -15 -20 -31t-39.5 -38.5t-59 -40t-83.5 -29.5t-109 -12q-152 0 -250 86.5t-98 236.5z" />
    <glyph glyph-name="a.004" horiz-adv-x="1144" 
d="M578 457q-207 -17 -207 -144q0 -61 43.5 -95t109.5 -34q101 0 165.5 69.5t64.5 186.5v39zM78 299q0 303 446 340l230 23v45q0 75 -42 125.5t-134 50.5q-50 0 -87.5 -15t-56 -36.5t-30 -43t-13.5 -36.5l-2 -15h-280q0 8 1.5 21t12 51.5t27.5 73.5t53.5 77.5t84 73
t124 51.5t170.5 21q126 0 219.5 -32.5t147 -90t79 -126.5t25.5 -150v-707h-299v131h-17q-7 -15 -20 -31t-39.5 -38.5t-59 -40t-83.5 -29.5t-109 -12q-153 0 -250.5 84t-97.5 235z" />
    <glyph glyph-name="a.005" horiz-adv-x="1144" 
 />
    <glyph glyph-name="a.006" horiz-adv-x="1144" 
 />
    <glyph glyph-name="a.007" horiz-adv-x="1144" 
 />
    <glyph glyph-name="a.008" horiz-adv-x="1144" 
 />
    <glyph glyph-name="a.009" horiz-adv-x="1144" 
d="M618 473q-251 -10 -251 -156q0 -60 44 -96.5t109 -36.5q101 0 165.5 69.5t64.5 186.5v37zM74 303q0 333 499 350l177 6v58q0 79 -44 122.5t-131 43.5q-50 0 -87 -15t-55 -36.5t-28.5 -43t-12.5 -36.5l-1 -15h-280q0 8 1.5 21t11 51.5t26 73.5t52 77.5t83.5 73t125 51.5
t172 21q125 0 218 -32.5t146 -89t78 -124t25 -145.5v-715h-299v131h-17q-10 -20 -29 -41t-54.5 -48t-95 -44.5t-132.5 -17.5q-152 0 -250 87t-98 236z" />
    <glyph glyph-name="a.010" horiz-adv-x="1155" 
 />
    <glyph glyph-name="a.011" horiz-adv-x="1144" 
 />
    <glyph glyph-name="a.012" horiz-adv-x="1144" 
d="M422 -20q-156 0 -256 84.5t-100 230.5q0 308 454 346l228 21v49q0 83 -44 129.5t-133 46.5q-50 0 -87 -15.5t-54.5 -37.5t-27.5 -44t-12 -38l-1 -15h-280q0 8 1 21t10 51.5t25 73.5t51 77.5t82.5 73t125.5 51.5t174 21q103 0 184 -22t133 -58.5t86.5 -87.5t48.5 -106.5
t14 -118.5v-713h-296v145q-7 -14 -18 -30t-38.5 -41.5t-61 -45t-89 -34t-119.5 -14.5zM362 315q0 -63 45 -98t115 -35q103 0 164.5 65t61.5 179v55l-168 -16q-218 -20 -218 -150z" />
    <glyph glyph-name="a.013" horiz-adv-x="1140" 
d="M430 -20q-157 0 -259.5 84.5t-102.5 226.5q0 162 127.5 252.5t412.5 107.5l146 15v45q0 184 -172 184q-50 0 -88 -16t-55.5 -38.5t-28 -45t-12.5 -38.5l-1 -16h-280q0 8 1 21t9.5 51t24 72.5t50.5 76.5t83 72t126 51t175 21q128 0 221.5 -32.5t145.5 -89.5t76 -124
t24 -147v-713h-299v145q-7 -14 -17.5 -30t-37.5 -42t-60.5 -45t-88.5 -33.5t-120 -14.5zM360 309q0 -59 50.5 -93t124.5 -34q102 0 160.5 63t58.5 177v59l-109 -12q-285 -21 -285 -160z" />
    </font>
</defs>
</svg>
