<?xml version="1.0" standalone="no"?>
<!DOCTYPE svg PUBLIC "-//W3C//DTD SVG 1.1//EN" "http://www.w3.org/Graphics/SVG/1.1/DTD/svg11.dtd" >
<svg xmlns="http://www.w3.org/2000/svg" xmlns:xlink="http://www.w3.org/1999/xlink" version="1.1">
<metadata>
Created by FontForge 20201107 at Wed Sep 18 14:19:02 2024
 By 
Copyright 2022 The Be Vietnam Pro Project Authors (https://github.com/bettergui/BeVietnamPro)
</metadata>
<defs>
<font id="BeVietnamPro2022-Medium" horiz-adv-x="0" >
  <font-face 
    font-family="Be Vietnam Pro 2022 Medium"
    font-weight="500"
    font-stretch="normal"
    units-per-em="2048"
    panose-1="0 0 0 0 0 0 0 0 0 0"
    ascent="1638"
    descent="-410"
    x-height="1085"
    cap-height="1516"
    bbox="-279 -594 2548 2394"
    underline-thickness="102"
    underline-position="-255"
    unicode-range="U+000D-2265"
  />
<missing-glyph horiz-adv-x="1320" 
d="M1083 2048v-2642h-837v2642h837zM440 -412h441v88h-271l185 123h86v88h-441v-88h187l-187 -123v-88zM440 -53h441v299h-441v-299zM440 406h441v296h-265v-147h89v61h88v-124h-265v210h-88v-296zM440 762h441v264h-88v-174h-353v-90zM440 911h265v187h176v86h-441v-86h176
v-99h-176v-88zM440 1255h441v91h-176v184h-265v-275zM440 1599h441v87h-176v98h176v88h-437v-88h172v-98h-176v-87zM528 35v125h265v-125h-265zM528 1346v94h88v-94h-88z" />
    <glyph glyph-name="f_f.liga" unicode="ff" horiz-adv-x="1484" 
d="M244 1210q0 77 20.5 142t61.5 116t110 80t158 29q43 0 78.5 -5.5t49.5 -11.5l15 -6v-178q-43 17 -102 17q-162 0 -162 -195v-113h475v125q0 77 20.5 142t61.5 116t110 80t158 29q43 0 79 -5.5t51 -11.5l14 -6v-178q-44 17 -103 17q-161 0 -161 -195v-113h282v-192h-282
v-893h-230v893h-475v-893h-229v893h-203v192h203v125z" />
    <glyph glyph-name="f_f_i.liga" unicode="ffi" horiz-adv-x="1994" 
d="M244 1210q0 77 20.5 142t61.5 116t110 80t158 29q43 0 78.5 -5.5t49.5 -11.5l15 -6v-178q-43 17 -102 17q-162 0 -162 -195v-113h475v125q0 77 20.5 142t61.5 116t110 80t158 29q43 0 79 -5.5t51 -11.5l14 -6v-178q-44 17 -103 17q-161 0 -161 -195v-113h684v-1085h-234
v893h-450v-893h-230v893h-475v-893h-229v893h-203v192h203v125zM1587 1397q0 65 44 109t112 44q67 0 111 -44t44 -109t-44 -109.5t-111 -44.5q-68 0 -112 45t-44 109z" />
    <glyph glyph-name="f_i.liga" unicode="fi" horiz-adv-x="1277" 
d="M41 893v192h203v125q0 77 20.5 142t61.5 116t110 80t158 29q43 0 78.5 -5.5t49.5 -11.5l15 -6v-178q-43 17 -102 17q-162 0 -162 -195v-113h686v-1085h-233v893h-453v-893h-229v893h-203zM885 1397q0 65 43.5 109t111.5 44q67 0 111.5 -44t44.5 -109t-44.5 -109.5
t-111.5 -44.5q-68 0 -111.5 45t-43.5 109z" />
    <glyph glyph-name="colon_b_e_colon.liga" unicode="&#x3a;be&#x3a;" horiz-adv-x="1798" 
d="M131 -43l74 547h469q68 0 123.5 14t93.5 38.5t63.5 57.5t36.5 73t10.5 83t-12.5 88q155 -33 257 -158t102 -288q0 -94 -35 -176.5t-100 -144.5t-165 -98t-221 -36h-696zM252 895l47 362h328q63 0 108 20t67.5 54t30 74.5t1.5 87.5q105 -29 165 -112t60 -197
q0 -61 -19 -111.5t-60 -91t-113 -63.5t-171 -23h-444z" />
    <glyph glyph-name="colon_d_d_colon.liga" unicode="&#x3a;dd&#x3a;" horiz-adv-x="1241" 
d="M520 279q-93 0 -168 35.5t-122 95t-72 133.5t-25 155q0 80 25 154t72 133.5t122 95t168 35.5q58 0 106.5 -14.5t80 -37.5t49.5 -42t30 -39h13v205h-217v137h217v109h209v-109h141v-137h-141v-895h-209v117h-13q-12 -19 -30 -38.5t-49.5 -42t-80 -36.5t-106.5 -14zM104 0
v139h1020v-139h-1020zM344 698q0 -102 59.5 -175.5t167.5 -73.5q109 0 169.5 73.5t60.5 175.5q0 99 -60.5 172.5t-169.5 73.5q-108 0 -167.5 -73t-59.5 -173z" />
    <glyph glyph-name="colon_s_t_a_r_colon.liga" unicode="&#x3a;star&#x3a;" horiz-adv-x="1701" 
d="M440 104l123 488l-379 299l473 37l191 448l190 -444l475 -41l-374 -295l123 -492l-410 271z" />
    <glyph glyph-name=".notdef" horiz-adv-x="1320" 
d="M1083 2048v-2642h-837v2642h837zM440 -412h441v88h-271l185 123h86v88h-441v-88h187l-187 -123v-88zM440 -53h441v299h-441v-299zM440 406h441v296h-265v-147h89v61h88v-124h-265v210h-88v-296zM440 762h441v264h-88v-174h-353v-90zM440 911h265v187h176v86h-441v-86h176
v-99h-176v-88zM440 1255h441v91h-176v184h-265v-275zM440 1599h441v87h-176v98h176v88h-437v-88h172v-98h-176v-87zM528 35v125h265v-125h-265zM528 1346v94h88v-94h-88z" />
    <glyph glyph-name=".null" 
 />
    <glyph glyph-name="nonmarkingreturn" horiz-adv-x="682" 
 />
    <glyph glyph-name="CR" unicode="&#xd;" horiz-adv-x="1228" 
 />
    <glyph glyph-name="space" unicode=" " horiz-adv-x="466" 
 />
    <glyph glyph-name="exclam" unicode="!" horiz-adv-x="581" 
d="M190 418l-28 1098h260l-35 -1098h-197zM137 131q0 64 43 108t111 44q67 0 110 -44t43 -108q0 -63 -43.5 -107t-109.5 -44q-68 0 -111 44t-43 107z" />
    <glyph glyph-name="quotedbl" unicode="&#x22;" horiz-adv-x="753" 
d="M57 1030l23 486h237l-86 -486h-174zM430 1030l23 486h237l-86 -486h-174z" />
    <glyph glyph-name="numbersign" unicode="#" horiz-adv-x="1644" 
d="M285 0l84 395h-265l41 189h263l73 346h-264l41 188h264l84 398h205l-84 -398h342l84 398h205l-84 -398h266l-41 -188h-266l-74 -346h268l-41 -189h-266l-84 -395h-205l84 395h-342l-84 -395h-204zM612 584h342l74 346h-342z" />
    <glyph glyph-name="dollar" unicode="$" horiz-adv-x="1298" 
d="M588 -203v187q-82 7 -151.5 27t-118 48.5t-88 63.5t-63.5 72t-42 73.5t-26.5 69t-13 57.5t-5.5 39v15h248q0 -9 2 -24t17 -56t39.5 -74t77.5 -66t124 -45v496l-13 2q-444 80 -444 410q0 180 126.5 301t330.5 141v180h170v-184q85 -10 155 -38.5t113.5 -65.5t76.5 -79.5
t49.5 -82.5t26 -73t11.5 -53l2 -20h-234q0 7 -2 18t-14 42t-31 56.5t-59.5 52.5t-93.5 40v-457l10 -2q223 -38 337 -146t114 -282q0 -176 -125.5 -304t-335.5 -152v-187h-170zM367 1106q0 -80 52 -130.5t169 -76.5v436q-104 -18 -162.5 -81.5t-58.5 -147.5zM758 186
q103 20 164 84.5t61 151.5q0 176 -225 227v-463z" />
    <glyph glyph-name="percent" unicode="%" horiz-adv-x="1761" 
d="M336 0l899 1516h188l-897 -1516h-190zM92 1167q0 96 37.5 178t119.5 136.5t195 54.5q85 0 153.5 -31t111 -84t64.5 -118t22 -136q0 -97 -37.5 -179.5t-119 -136.5t-194.5 -54q-85 0 -154 31t-111 83.5t-64.5 118t-22.5 137.5zM270 1167q0 -97 45.5 -160t128.5 -63
t128.5 63t45.5 160q0 96 -45 157.5t-129 61.5t-129 -61.5t-45 -157.5zM967 350q0 96 37.5 178t119.5 136.5t195 54.5q85 0 153.5 -31t110.5 -84t64 -118t22 -136q0 -72 -22 -137.5t-64 -118t-110.5 -83.5t-153.5 -31t-154 31t-111 83.5t-64.5 118t-22.5 137.5zM1145 350
q0 -97 44.5 -159t127.5 -62t129.5 62.5t46.5 158.5q0 97 -46 159t-130 62q-83 0 -127.5 -62t-44.5 -159z" />
    <glyph glyph-name="ampersand" unicode="&#x26;" horiz-adv-x="1542" 
d="M633 -18q-149 0 -271.5 51t-196 151t-73.5 230q0 137 81.5 237.5t240.5 190.5q-6 7 -34 39t-37 44t-32 42t-32.5 49.5t-22.5 48.5t-18 57.5t-5 59.5q0 167 116 261.5t286 94.5q107 0 195.5 -37.5t143 -114.5t54.5 -180q0 -230 -315 -403l338 -367q68 135 79 326h224
q-22 -292 -156 -486l252 -274h-299l-104 119q-173 -139 -414 -139zM332 432q0 -113 89.5 -183.5t229.5 -70.5q155 0 267 90l-386 441q-99 -60 -149.5 -126t-50.5 -151zM455 1186q0 -61 31.5 -115.5t103.5 -134.5l2 -2q221 117 221 260q0 80 -51 123t-127 43
q-75 0 -127.5 -47.5t-52.5 -126.5z" />
    <glyph glyph-name="quotesingle" unicode="'" horiz-adv-x="372" 
d="M57 1030l23 486h237l-86 -486h-174z" />
    <glyph glyph-name="parenleft" unicode="(" horiz-adv-x="831" 
d="M514 -477q-104 111 -195.5 276t-156 392t-64.5 450q0 175 36.5 349t98 316.5t133 256.5t148.5 196h219q-52 -65 -101.5 -142.5t-102.5 -188t-92.5 -228t-65 -264.5t-25.5 -295t25.5 -295t65 -264.5t92.5 -228t102.5 -188t101.5 -142.5h-219z" />
    <glyph glyph-name="parenright" unicode=")" horiz-adv-x="831" 
d="M98 -477q52 65 101.5 142.5t102.5 188t92.5 228t65 264.5t25.5 295t-25.5 295t-65 264.5t-92.5 228t-102.5 188t-101.5 142.5h219q77 -82 148.5 -196t133 -256.5t98 -316.5t36.5 -349q0 -223 -64.5 -450t-156 -392t-195.5 -276h-219z" />
    <glyph glyph-name="asterisk" unicode="*" horiz-adv-x="1028" 
d="M336 694l-143 103l186 247l-297 93l53 170l295 -101l-6 310h178l-4 -310l295 101l53 -170l-295 -93l187 -247l-146 -103l-178 250z" />
    <glyph glyph-name="plus" unicode="+" horiz-adv-x="1036" 
d="M422 276v318h-318v190h318v320h192v-320h318v-190h-318v-318h-192z" />
    <glyph glyph-name="comma" unicode="," horiz-adv-x="598" 
d="M137 -262l127 252q-57 9 -93 52t-36 103q0 70 47 114t115 44q71 0 118.5 -43t47.5 -115q0 -14 -2 -28t-8 -32.5t-12 -33t-19 -42t-22.5 -46.5t-30 -59.5t-35.5 -69.5l-49 -96h-148z" />
    <glyph glyph-name="hyphen" unicode="-" horiz-adv-x="972" 
d="M104 594v190h764v-190h-764z" />
    <glyph glyph-name="period" unicode="." horiz-adv-x="591" 
d="M297 -20q-71 0 -116.5 47t-45.5 114t45.5 113.5t116.5 46.5q68 0 114 -46.5t46 -113.5t-46 -114t-114 -47z" />
    <glyph glyph-name="slash" unicode="/" horiz-adv-x="1081" 
d="M49 -379l782 2153h201l-782 -2153h-201z" />
    <glyph glyph-name="zero" unicode="0" horiz-adv-x="1404" 
d="M702 -18q-191 0 -328.5 101t-205.5 275t-68 402q0 229 68 403t205.5 274.5t328.5 100.5q144 0 259 -58t190 -161.5t114.5 -246t39.5 -312.5t-39.5 -312t-114.5 -246t-190 -162t-259 -58zM350 760q0 -280 95.5 -422.5t256.5 -142.5q160 0 256.5 142t96.5 423
q0 279 -96.5 420t-256.5 141t-256 -141t-96 -420z" />
    <glyph glyph-name="one" unicode="1" horiz-adv-x="856" 
d="M463 0v1227l-377 -291v258l420 322h188v-1516h-231z" />
    <glyph glyph-name="two" unicode="2" horiz-adv-x="1249" 
d="M106 57q0 58 13 112.5t31.5 97.5t53 88t64.5 77t80 72.5t84.5 65.5t91.5 65q18 13 65 45.5t63 44t54.5 40t53 41.5l43.5 39t40 42t29 41.5t24.5 47t12.5 47.5t6 54q0 119 -84.5 187.5t-201.5 68.5q-58 0 -110 -18.5t-94.5 -54.5t-68 -96.5t-26.5 -137.5h-228
q0 126 45.5 227t121.5 162t169 93t195 32q99 0 191.5 -30.5t166 -86.5t118 -143.5t44.5 -192.5q0 -79 -27.5 -150.5t-61.5 -121.5t-106 -111.5t-117.5 -93.5t-140.5 -95q-34 -23 -51 -34q-120 -82 -187 -143.5t-93 -126.5h809v-211h-1072v57z" />
    <glyph glyph-name="three" unicode="3" horiz-adv-x="1232" 
d="M616 -20q-127 0 -233.5 38.5t-176.5 104t-108.5 151.5t-38.5 181h236q0 -121 92 -199t227 -78q131 0 220.5 73t89.5 193q0 110 -77 177t-208 67h-145v178h145q114 0 188 64t74 166q0 107 -83.5 175t-203.5 68q-134 0 -214.5 -77t-80.5 -201h-227q0 95 34.5 180t99.5 151
t166.5 105t225.5 39q102 0 196.5 -29.5t168 -82t118 -133t44.5 -175.5q0 -122 -68 -207.5t-180 -124.5q128 -42 203.5 -131t75.5 -219q0 -105 -45.5 -191.5t-123 -143.5t-178.5 -88t-213 -31z" />
    <glyph glyph-name="four" unicode="4" horiz-adv-x="1390" 
d="M815 0v362l-733 3v188l612 963h361v-953h258v-201h-258v-362h-240zM324 563h491v774z" />
    <glyph glyph-name="five" unicode="5" horiz-adv-x="1294" 
d="M631 -20q-105 0 -192 23.5t-143 58t-99.5 84.5t-65.5 91t-38 91t-19 70.5t-6 43.5h237q0 -6 1.5 -15.5t9 -37.5t19 -53.5t36.5 -56.5t57.5 -53.5t85 -38t115.5 -15.5q82 0 148.5 28.5t107.5 76t62.5 106.5t21.5 123q0 65 -22 125.5t-62.5 109t-106 78t-145.5 29.5
q-65 0 -119 -19.5t-85.5 -47t-54 -55.5t-30.5 -48l-8 -19h-230l101 857h887v-211h-701l-51 -412q106 135 334 135q127 0 229.5 -44t166.5 -117.5t98 -165.5t34 -191q0 -102 -35.5 -195t-104 -168.5t-180.5 -121t-253 -45.5z" />
    <glyph glyph-name="six" unicode="6" horiz-adv-x="1206" 
d="M606 -20q-125 0 -231.5 40t-178 108.5t-111.5 161t-40 197.5q0 143 60 265t198 295l375 469h280l-477 -568q71 33 156 33q127 0 229 -41t165 -110.5t96.5 -155.5t33.5 -180q0 -97 -36 -187.5t-103 -164t-175 -118t-241 -44.5zM283 485q0 -60 20.5 -114.5t59 -99
t100.5 -71t139 -26.5q103 0 178 45.5t109.5 114.5t34.5 151q0 80 -35 149.5t-110 116t-177 46.5q-149 0 -234 -93.5t-85 -218.5z" />
    <glyph glyph-name="seven" unicode="7" horiz-adv-x="1148" 
d="M174 0l670 1305h-781v211h1031v-195l-664 -1321h-256z" />
    <glyph glyph-name="eight" unicode="8" horiz-adv-x="1304" 
d="M653 -20q-250 0 -402.5 125.5t-152.5 316.5q0 69 21.5 129.5t51.5 100.5t70.5 73.5t71 50.5t60.5 29q-17 6 -40.5 18t-59 39.5t-64 61.5t-49.5 87.5t-21 114.5q0 175 139 292.5t375 117.5q235 0 373.5 -118t138.5 -292q0 -61 -21 -114.5t-48.5 -87t-64 -61.5t-58.5 -39.5
t-41 -18.5q27 -10 56 -26t70 -49t72 -73.5t53.5 -102.5t22.5 -132q0 -191 -152 -316.5t-401 -125.5zM336 442q0 -108 85 -190t232 -82q145 0 230.5 82t85.5 190q0 105 -84 182.5t-232 77.5q-149 0 -233 -77t-84 -183zM375 1116q0 -92 74 -161.5t204 -69.5q129 0 203 69.5
t74 161.5q0 94 -74 163t-203 69q-131 0 -204.5 -68.5t-73.5 -163.5z" />
    <glyph glyph-name="nine" unicode="9" horiz-adv-x="1206" 
d="M600 1536q125 0 231.5 -40t178 -108.5t111.5 -161.5t40 -198q0 -143 -60 -264.5t-198 -294.5l-375 -469h-280l477 567q-69 -32 -156 -32q-127 0 -229 41t-165 110.5t-96.5 155.5t-33.5 180q0 97 36 187.5t103 164t175 118t241 44.5zM283 1030q0 -59 20.5 -114t59.5 -99.5
t101.5 -71t139.5 -26.5q101 0 175.5 46.5t109.5 115.5t35 149q0 81 -34.5 150t-109 115t-176.5 46q-103 0 -177.5 -45.5t-109 -114.5t-34.5 -151z" />
    <glyph glyph-name="colon" unicode=":" horiz-adv-x="593" 
d="M297 784q-71 0 -116.5 47.5t-45.5 114.5t45.5 113.5t116.5 46.5q68 0 114 -46.5t46 -113.5t-46 -114.5t-114 -47.5zM135 141q0 67 45.5 113.5t116.5 46.5q68 0 114 -46.5t46 -113.5t-46 -114t-114 -47q-71 0 -116.5 47t-45.5 114z" />
    <glyph glyph-name="semicolon" unicode=";" horiz-adv-x="602" 
d="M305 784q-71 0 -116.5 47.5t-45.5 114.5t45.5 113.5t116.5 46.5q68 0 114 -46.5t46 -113.5t-46 -114.5t-114 -47.5zM135 145q0 70 47 114t115 44q71 0 118.5 -43t47.5 -115q0 -14 -2 -28t-8 -32.5t-12 -33t-19 -42t-22.5 -46.5t-30 -59.5t-35.5 -69.5l-49 -96h-148
l127 252q-57 9 -93 52t-36 103z" />
    <glyph glyph-name="less" unicode="&#x3c;" horiz-adv-x="1138" 
d="M977 233l-819 385v140l819 387v-205l-547 -250l547 -252v-205z" />
    <glyph glyph-name="equal" unicode="=" horiz-adv-x="1232" 
d="M104 813v197h1024v-197h-1024zM104 356v197h1024v-197h-1024z" />
    <glyph glyph-name="greater" unicode="&#x3e;" horiz-adv-x="1138" 
d="M160 233v205l547 252l-547 250v205l819 -387v-140z" />
    <glyph glyph-name="question" unicode="?" horiz-adv-x="1222" 
d="M498 449q0 65 11.5 113t40.5 89t59 71t86 80q15 12 22 19q57 48 88.5 80.5t58.5 86t27 112.5q0 111 -74.5 174t-185.5 63q-53 0 -101 -18t-87.5 -54.5t-63 -99.5t-23.5 -145h-227q1 104 29.5 190.5t77 145.5t114 100t138.5 59.5t151 18.5q96 0 184 -29.5t155.5 -84
t107.5 -137t40 -181.5q0 -57 -16 -110t-38.5 -91t-60 -78.5t-67 -65.5t-74.5 -59q-74 -55 -106.5 -85.5t-50 -71.5t-17.5 -101v-30h-198v39zM444 131q0 64 43.5 108t112.5 44q65 0 108.5 -44t43.5 -108q0 -62 -43.5 -106.5t-108.5 -44.5q-69 0 -112.5 44t-43.5 107z" />
    <glyph glyph-name="at" unicode="@" horiz-adv-x="1945" 
d="M985 -285q-174 0 -321 49t-250 132.5t-175.5 196t-106.5 238.5t-34 261q0 140 36.5 274.5t112 253.5t182 209t256 142.5t323.5 52.5t317 -45.5t238 -121t160.5 -177t94.5 -210t29 -222.5q0 -156 -52 -290.5t-152 -219t-228 -84.5q-45 0 -83.5 8.5t-64.5 22t-47 30
t-33 33.5t-20 30.5t-11 21.5l-3 9q-3 -6 -9.5 -16.5t-30.5 -37.5t-52.5 -47t-77.5 -37t-104 -17q-114 0 -195 55.5t-117.5 143t-36.5 196.5q0 101 29 193t81 164.5t133.5 115.5t178.5 43q60 0 109 -15.5t75.5 -37.5t44.5 -44t23 -38l6 -15l29 134h215l-113 -535
q-14 -58 -14 -108q0 -125 107 -125q113 0 190.5 135t77.5 319q0 96 -23 187.5t-76 178t-131 151.5t-197.5 104t-266.5 39q-145 0 -270.5 -45.5t-215 -123.5t-153 -180.5t-94.5 -218t-31 -235.5q0 -115 28.5 -222.5t88.5 -203.5t145.5 -167.5t208 -113t268.5 -41.5
q81 0 160 16t133.5 39t98 46t64.5 39l21 16l56 -117q-8 -7 -23 -18t-66 -40t-108 -51.5t-148 -40.5t-186 -18zM731 555q0 -113 48 -184.5t141 -71.5q75 0 133 54.5t87 137t29 175.5q0 112 -46.5 182t-137.5 70q-78 0 -137 -54t-88 -135.5t-29 -173.5z" />
    <glyph glyph-name="A" unicode="A" horiz-adv-x="1542" 
d="M80 0l524 1516h332l526 -1516h-266l-135 412h-594l-137 -412h-250zM535 614h458l-229 695z" />
    <glyph glyph-name="B" unicode="B" horiz-adv-x="1333" 
d="M129 0v1516h592q216 0 343.5 -112t127.5 -274q0 -67 -19.5 -124t-47.5 -93t-63.5 -63.5t-63.5 -40t-52 -18.5q51 -13 99.5 -38.5t96 -68t76.5 -109.5t29 -149t-29.5 -156t-88.5 -135.5t-159 -98t-229 -36.5h-612zM375 203h336q143 0 213.5 69.5t70.5 169.5t-70.5 169
t-213.5 69h-336v-477zM375 870h321q124 0 187 65t63 157t-63 156.5t-187 64.5h-321v-443z" />
    <glyph glyph-name="C" unicode="C" horiz-adv-x="1617" 
d="M846 -20q-148 0 -273.5 43.5t-213.5 118t-149.5 174.5t-90.5 211.5t-29 230.5t29 230.5t90.5 211.5t149.5 174.5t213.5 118t273.5 43.5q101 0 188.5 -19t150.5 -50.5t116 -72.5t87.5 -87t61.5 -91.5t41 -86.5t23 -72.5t12 -50.5l2 -19h-248q-1 7 -3.5 19t-15 47t-30 66.5
t-52 70.5t-78 67t-110.5 47t-147 19q-97 0 -179 -31t-140.5 -84.5t-99.5 -125t-61 -154t-20 -170.5q0 -87 20 -169t61 -154t99.5 -126t140.5 -85t179 -31q63 0 118 11.5t95 31t73.5 44.5t56 53t40 55.5t27.5 52.5t16 44.5t8 30.5l2 12h248q-1 -7 -2.5 -19t-11.5 -49.5
t-23.5 -74t-40.5 -85.5t-61.5 -91.5t-87.5 -86t-116 -74t-150.5 -49.5t-188.5 -19z" />
    <glyph glyph-name="D" unicode="D" horiz-adv-x="1529" 
d="M129 0v1516h500q167 0 304 -42.5t229.5 -115t156.5 -170.5t92.5 -205.5t28.5 -224.5t-28.5 -224.5t-92.5 -205.5t-156.5 -170.5t-229.5 -115t-304 -42.5h-500zM375 207h241q119 0 216 31t162 83.5t109 123.5t63.5 149.5t19.5 163.5t-19.5 163.5t-63.5 149.5t-109 123.5
t-162 83.5t-216 31h-241v-1102z" />
    <glyph glyph-name="E" unicode="E" horiz-adv-x="1204" 
d="M129 0v1516h967v-211h-721v-431h637v-208h-637v-455h729v-211h-975z" />
    <glyph glyph-name="F" unicode="F" horiz-adv-x="1200" 
d="M129 0v1516h971v-211h-725v-455h624v-209h-624v-641h-246z" />
    <glyph glyph-name="G" unicode="G" horiz-adv-x="1646" 
d="M862 -20q-152 0 -280 43.5t-217.5 118t-152.5 174t-92.5 211t-29.5 229.5q0 119 29 231t91 212t150 175t214 118.5t276 43.5q97 0 181 -16t145 -43.5t112.5 -63t85 -74.5t59.5 -78.5t40.5 -75t23.5 -63t11 -43.5l3 -16h-251q-1 6 -3.5 15.5t-15 37.5t-29.5 53t-49.5 56
t-73 53.5t-102.5 37.5t-135 15q-100 0 -184 -31.5t-143.5 -85.5t-101 -126.5t-61.5 -155.5t-20 -172q0 -113 33 -214.5t96 -182t164.5 -128t228.5 -47.5q190 0 314.5 111t146.5 305h-481v195h712v-86q0 -180 -55.5 -322t-152 -230.5t-220.5 -134.5t-266 -46z" />
    <glyph glyph-name="H" unicode="H" horiz-adv-x="1462" 
d="M129 0v1516h246v-633h712v633h246v-1516h-246v668h-712v-668h-246z" />
    <glyph glyph-name="I" unicode="I" horiz-adv-x="503" 
d="M129 0v1516h246v-1516h-246z" />
    <glyph glyph-name="J" unicode="J" horiz-adv-x="1208" 
d="M569 -20q-83 0 -152.5 16t-118 42.5t-86.5 61.5t-61 73.5t-39 77t-23 73.5t-10.5 61.5t-2.5 42.5v16h239q1 0 -0.5 -9t1.5 -24.5t5 -35t11 -41.5t20 -44t31.5 -41.5t45.5 -35t61.5 -24.5t80.5 -9q129 0 196 86.5t67 239.5v1010h245v-1010q0 -167 -67 -287.5t-181 -179.5
t-262 -59z" />
    <glyph glyph-name="K" unicode="K" horiz-adv-x="1404" 
d="M1022 0l-647 727v-727h-246v1516h246v-693l629 690h305l-686 -727l714 -786h-315z" />
    <glyph glyph-name="L" unicode="L" horiz-adv-x="1200" 
d="M129 0v1516h246v-1305h725v-211h-971z" />
    <glyph glyph-name="M" unicode="M" horiz-adv-x="1794" 
d="M129 0v1516h350l422 -965l422 965h342v-1516h-235v1229l-433 -967h-200l-432 973v-1235h-236z" />
    <glyph glyph-name="N" unicode="N" horiz-adv-x="1486" 
d="M129 0v1516h277l714 -1151v1151h238v-1516h-277l-712 1151v-1151h-240z" />
    <glyph glyph-name="O" unicode="O" horiz-adv-x="1705" 
d="M852 -20q-146 0 -271 43.5t-214 118.5t-152.5 174.5t-94 212t-30.5 231.5q0 117 30.5 229t94 211.5t152.5 174t214 118t271 43.5t271.5 -43t215 -117.5t153 -173.5t94 -211.5t30.5 -230.5q0 -120 -30.5 -233t-94 -212.5t-153 -174t-215 -117.5t-271.5 -43zM346 760
q0 -110 34 -211t96 -179.5t160 -125.5t216 -47q119 0 217 46.5t161 124.5t97.5 179t34.5 213q0 110 -34.5 210t-97.5 178t-161 124.5t-217 46.5q-118 0 -216 -47t-160 -125.5t-96 -178t-34 -208.5z" />
    <glyph glyph-name="P" unicode="P" horiz-adv-x="1288" 
d="M131 0v1516h531q107 0 196.5 -26.5t151.5 -72.5t105 -108t63 -133.5t20 -149.5q0 -97 -33 -182.5t-96.5 -154t-168.5 -108.5t-238 -40h-285v-541h-246zM377 739h262q157 0 235 81t78 204q0 59 -18 109.5t-54.5 91t-98 63.5t-142.5 23h-262v-572z" />
    <glyph glyph-name="Q" unicode="Q" horiz-adv-x="1736" 
d="M1409 -76l-149 162q-173 -106 -408 -106q-146 0 -271 43.5t-214 118.5t-152.5 174.5t-94 212t-30.5 231.5q0 117 30.5 229t94 211.5t152.5 174t214 118t271 43.5t271.5 -43t215 -117.5t153 -173.5t94 -211.5t30.5 -230.5q0 -150 -49.5 -291t-143.5 -248l273 -297h-287z
M346 760q0 -110 34 -211t96 -179.5t160 -125.5t216 -47q133 0 238 57l-256 274l163 138l252 -273q113 153 113 367q0 110 -34.5 210t-97.5 178t-161 124.5t-217 46.5q-118 0 -216 -47t-160 -125.5t-96 -178t-34 -208.5z" />
    <glyph glyph-name="R" unicode="R" horiz-adv-x="1392" 
d="M129 0v1516h543q111 0 200 -25.5t147.5 -68t97.5 -100.5t56 -121.5t17 -133.5q0 -145 -76.5 -258t-236.5 -158l419 -651h-286l-379 625h-256v-625h-246zM375 813h287q75 0 131 21.5t87 58t45.5 78.5t14.5 90q0 50 -14.5 92.5t-45.5 79t-87 57.5t-131 21h-287v-498z" />
    <glyph glyph-name="S" unicode="S" horiz-adv-x="1331" 
d="M692 -18q-101 0 -187 18t-145.5 48t-107.5 69.5t-77 83t-50 87t-30 83t-14 69.5t-5 48v18h248q0 -7 0.5 -18.5t6.5 -46t18 -65.5t39.5 -68.5t64.5 -65t99.5 -46t139.5 -18.5q146 0 233 71.5t87 178.5q0 86 -65 139t-195 80l-183 35q-222 43 -332 144t-110 266
q0 193 150 319.5t391 126.5q91 0 168.5 -16t131.5 -43t98 -62t70.5 -74t46 -77.5t28.5 -73.5t14 -62t5 -43l1 -16h-242q0 6 -0.5 15.5t-6.5 37.5t-17 53.5t-35 56.5t-56.5 53.5t-86 38t-119.5 15.5q-140 0 -219.5 -68.5t-79.5 -164.5q0 -83 60 -134.5t192 -78.5l184 -35
q226 -45 338 -148.5t112 -271.5q0 -94 -37.5 -176.5t-107.5 -145.5t-178 -99.5t-240 -36.5z" />
    <glyph glyph-name="T" unicode="T" horiz-adv-x="1265" 
d="M510 0v1307h-436v209h1118v-209h-436v-1307h-246z" />
    <glyph glyph-name="U" unicode="U" horiz-adv-x="1452" 
d="M725 -20q-131 0 -240 37.5t-188.5 109.5t-123.5 182.5t-44 249.5v957h246v-953q0 -170 89.5 -273.5t260.5 -103.5q172 0 262 103.5t90 273.5v953h246v-957q0 -277 -164 -428t-434 -151z" />
    <glyph glyph-name="V" unicode="V" horiz-adv-x="1466" 
d="M582 0l-529 1516h269l421 -1272l420 1272h250l-530 -1516h-301z" />
    <glyph glyph-name="W" unicode="W" horiz-adv-x="2041" 
d="M451 0l-398 1516h252l293 -1178l309 1178h232l309 -1178l293 1178h248l-398 -1516h-280l-291 1110l-291 -1110h-278z" />
    <glyph glyph-name="X" unicode="X" horiz-adv-x="1507" 
d="M109 0l481 758l-481 758h284l361 -580l360 580h285l-486 -758l486 -758h-285l-360 582l-361 -582h-284z" />
    <glyph glyph-name="Y" unicode="Y" horiz-adv-x="1390" 
d="M573 0v590l-528 926h274l386 -707l382 707h259l-529 -926v-590h-244z" />
    <glyph glyph-name="Z" unicode="Z" horiz-adv-x="1318" 
d="M90 0v203l821 1100h-821v213h1124v-203l-827 -1100h844v-213h-1141z" />
    <glyph glyph-name="bracketleft" unicode="[" horiz-adv-x="778" 
d="M115 -451v2190h549v-174h-312v-1841h312v-175h-549z" />
    <glyph glyph-name="backslash" unicode="\" horiz-adv-x="1118" 
d="M850 -379l-782 2153h200l783 -2153h-201z" />
    <glyph glyph-name="bracketright" unicode="]" horiz-adv-x="778" 
d="M664 -451h-549v175h311v1841h-311v174h549v-2190z" />
    <glyph glyph-name="asciicircum" unicode="^" horiz-adv-x="909" 
d="M104 1165l254 351h193l254 -351h-199l-151 217l-152 -217h-199z" />
    <glyph glyph-name="underscore" unicode="_" horiz-adv-x="1200" 
d="M104 -135v133h992v-133h-992z" />
    <glyph glyph-name="grave" unicode="`" horiz-adv-x="483" 
d="M252 1241l-205 287h262l123 -285z" />
    <glyph glyph-name="a" unicode="a" horiz-adv-x="1165" 
d="M483 -20q-167 0 -272 85.5t-105 225.5q0 283 416 350l283 47v23q0 103 -51.5 162t-159.5 59q-61 0 -107 -18.5t-68 -45t-35.5 -53t-15.5 -45.5l-3 -18h-220q0 7 1.5 20t11 49.5t25 70t50 74.5t80 70.5t119 49.5t164.5 20q115 0 201 -31t135.5 -86t73.5 -122.5t24 -147.5
v-719h-225v150q-30 -49 -62 -79q-100 -91 -260 -91zM332 305q0 -78 59 -120t144 -42q126 0 198 79.5t72 217.5v90l-234 -38q-239 -42 -239 -187z" />
    <glyph glyph-name="b" unicode="b" horiz-adv-x="1325" 
d="M723 -20q-233 0 -361 172v-152h-233v1556h233v-622q124 172 361 172q121 0 218.5 -47.5t157.5 -127t92 -179t32 -209.5t-32 -210t-92 -179.5t-157.5 -126.5t-218.5 -47zM356 543q0 -106 34.5 -192t107 -139.5t172.5 -53.5q150 0 233.5 110.5t83.5 274.5t-83.5 274.5
t-233.5 110.5q-100 0 -172.5 -53.5t-107 -139.5t-34.5 -192z" />
    <glyph glyph-name="c" unicode="c" horiz-adv-x="1253" 
d="M653 -20q-135 0 -242.5 48t-173.5 128.5t-100.5 179.5t-34.5 207t34.5 207t100.5 179.5t173.5 128.5t242.5 48q129 0 228 -40.5t147.5 -98t79 -115.5t36.5 -98l7 -41h-225q-1 8 -5 22.5t-22.5 50.5t-45 63.5t-79 50t-119.5 22.5q-154 0 -237.5 -108t-83.5 -271t83.5 -271
t237.5 -108q67 0 119 21.5t79.5 52t45 61.5t22.5 53l5 21h225q-1 -8 -3 -22.5t-15 -55t-32.5 -77.5t-58.5 -82.5t-88.5 -78t-128 -55t-172.5 -22.5z" />
    <glyph glyph-name="d" unicode="d" horiz-adv-x="1325" 
d="M602 -20q-121 0 -218.5 47t-157.5 126.5t-92 179.5t-32 210t32 209.5t92 179t157.5 127t218.5 47.5q237 0 361 -172v622h233v-1556h-233v152q-128 -172 -361 -172zM338 543q0 -164 83.5 -274.5t233.5 -110.5q100 0 172.5 53.5t107 139.5t34.5 192t-34.5 192t-107 139.5
t-172.5 53.5q-150 0 -233.5 -110.5t-83.5 -274.5z" />
    <glyph glyph-name="e" unicode="e" horiz-adv-x="1249" 
d="M922 639q-6 136 -85 211.5t-198 75.5q-125 0 -204 -79t-93 -208h580zM102 545q0 84 19.5 163t62.5 152t104 127t151 86.5t198 32.5q177 0 298.5 -81.5t173.5 -222.5t34 -325h-801q11 -146 93 -232.5t222 -86.5q61 0 110.5 16t76.5 38t45 44.5t23 38.5l6 16h219
q-1 -7 -4 -19t-18 -46.5t-35 -65.5t-59.5 -69t-87.5 -65.5t-122.5 -46.5t-161.5 -19q-135 0 -242.5 48.5t-172.5 129.5t-98.5 180t-33.5 207z" />
    <glyph glyph-name="f" unicode="f" horiz-adv-x="794" 
d="M244 1210q0 77 20.5 142t61.5 116t110 80t158 29q43 0 78.5 -5.5t49.5 -11.5l15 -6v-178q-43 17 -102 17q-162 0 -162 -195v-113h283v-192h-283v-893h-229v893h-203v192h203v125z" />
    <glyph glyph-name="g" unicode="g" horiz-adv-x="1282" 
d="M653 -444q-99 0 -179.5 20t-131 52t-88.5 71t-56 78t-29 71t-13 52l-2 20h227q1 -8 4.5 -21t22 -46.5t45 -59t79.5 -46.5t121 -21q82 0 141.5 29t92.5 80t48 110.5t15 130.5v129q-12 -19 -26 -37t-44.5 -45.5t-66.5 -47t-92.5 -34t-120.5 -14.5q-97 0 -179 29.5t-140 81
t-99 120.5t-60.5 147t-19.5 162q0 105 32 200.5t92 171.5t157 121.5t217 45.5q64 0 120.5 -14.5t92.5 -34t66.5 -47t44.5 -46t26 -38.5v159h232v-1009q0 -113 -33.5 -207.5t-98.5 -164.5t-166.5 -109t-230.5 -39zM342 567q0 -99 33 -180t104 -132.5t170 -51.5q145 0 225 105
t80 259q0 72 -19.5 136.5t-56.5 115.5t-96 81t-133 30q-98 0 -169.5 -52.5t-104.5 -133t-33 -177.5z" />
    <glyph glyph-name="h" unicode="h" horiz-adv-x="1216" 
d="M129 0v1556h233v-632q13 19 26.5 36.5t44.5 46.5t66 49t90 35t116 15q97 0 171.5 -32t120 -89t68 -132t22.5 -165v-688h-233v657q0 261 -221 261q-138 0 -204.5 -96.5t-66.5 -258.5v-563h-233z" />
    <glyph glyph-name="i" unicode="i" horiz-adv-x="471" 
d="M119 0v1085h233v-1085h-233zM78 1397q0 65 43.5 109t111.5 44q67 0 111.5 -44t44.5 -109t-44.5 -109.5t-111.5 -44.5q-68 0 -111.5 45t-43.5 109z" />
    <glyph glyph-name="j" unicode="j" horiz-adv-x="520" 
d="M72 -440q-38 0 -75.5 6.5t-56.5 13.5l-18 6v178q50 -16 101 -16q143 0 143 174v1163h233v-1173q0 -352 -327 -352zM127 1405q0 65 44 109.5t112 44.5q67 0 111 -44.5t44 -109.5t-44 -109.5t-111 -44.5q-68 0 -112 45t-44 109z" />
    <glyph glyph-name="k" unicode="k" horiz-adv-x="1153" 
d="M803 0l-441 557v-557h-233v1556h233v-942l429 471h288l-479 -493l492 -592h-289z" />
    <glyph glyph-name="l" unicode="l" horiz-adv-x="491" 
d="M129 0l2 1556h231v-1556h-233z" />
    <glyph glyph-name="m" unicode="m" horiz-adv-x="1867" 
d="M819 0v659q0 122 -50.5 191.5t-156.5 69.5q-129 0 -190.5 -97.5t-61.5 -259.5v-563h-231v1085h231v-172q17 34 43 65.5t65.5 61.5t96 48t121.5 18q128 0 211.5 -60t120.5 -165h2q125 225 356 225q181 0 272 -115.5t91 -302.5v-688h-232v659q0 122 -49 191.5t-155 69.5
q-129 0 -191.5 -97.5t-62.5 -259.5v-563h-230z" />
    <glyph glyph-name="n" unicode="n" horiz-adv-x="1216" 
d="M129 0v1085h233v-161q13 19 26.5 36.5t44.5 46.5t66 49t90 35t116 15q97 0 171.5 -32t120 -89t68 -132t22.5 -165v-688h-233v657q0 261 -221 261q-138 0 -204.5 -96.5t-66.5 -258.5v-563h-233z" />
    <glyph glyph-name="o" unicode="o" horiz-adv-x="1316" 
d="M657 -20q-130 0 -236.5 45t-175 122.5t-106 179t-37.5 216.5t37.5 216.5t106 179t175 122.5t236.5 45q131 0 237.5 -45t175.5 -122.5t106.5 -179t37.5 -216.5t-37.5 -216.5t-106.5 -179t-175.5 -122.5t-237.5 -45zM340 543q0 -161 85 -268t232 -107q148 0 234 107t86 268
t-86 268t-234 107q-147 0 -232 -107t-85 -268z" />
    <glyph glyph-name="p" unicode="p" horiz-adv-x="1325" 
d="M129 -410v1495h233v-151q124 172 361 172q121 0 218.5 -47.5t157.5 -127t92 -179t32 -209.5t-32 -210t-92 -179.5t-157.5 -126.5t-218.5 -47q-233 0 -361 172v-562h-233zM356 543q0 -106 34.5 -192t107 -139.5t172.5 -53.5q150 0 233.5 110.5t83.5 274.5t-83.5 274.5
t-233.5 110.5q-100 0 -172.5 -53.5t-107 -139.5t-34.5 -192z" />
    <glyph glyph-name="q" unicode="q" horiz-adv-x="1325" 
d="M1196 -410h-233v562q-128 -172 -361 -172q-121 0 -218.5 47t-157.5 126.5t-92 179.5t-32 210t32 209.5t92 179t157.5 127t218.5 47.5q237 0 361 -172v151h233v-1495zM338 543q0 -164 83.5 -274.5t233.5 -110.5q100 0 172.5 53.5t107 139.5t34.5 192t-34.5 192t-107 139.5
t-172.5 53.5q-150 0 -233.5 -110.5t-83.5 -274.5z" />
    <glyph glyph-name="r" unicode="r" horiz-adv-x="792" 
d="M129 0v1085h231v-163q44 83 111 133.5t176 50.5q18 0 35.5 -2t25.5 -4l9 -2v-213q-33 6 -74 6q-140 0 -211.5 -75.5t-71.5 -258.5v-557h-231z" />
    <glyph glyph-name="s" unicode="s" horiz-adv-x="1052" 
d="M549 -20q-99 0 -179.5 21t-129.5 54t-85 73.5t-52.5 81t-25.5 73.5t-10 54l-1 21h227q0 -8 2 -22t16.5 -49.5t39 -62.5t77 -49.5t123.5 -22.5q99 0 153 43.5t54 109.5q0 55 -39 84t-127 51l-146 33q-342 73 -342 299q0 143 115.5 238.5t300.5 95.5q89 0 162 -19t118 -49
t78.5 -66.5t49.5 -73t25 -66.5t11 -49l1 -19h-217q0 4 -0.5 10t-5 24.5t-12 35t-24 37t-39 35t-58.5 24.5t-81 10q-93 0 -144.5 -41.5t-51.5 -101.5q0 -49 38.5 -79.5t123.5 -49.5l137 -31q175 -38 265.5 -113.5t90.5 -199.5q0 -145 -119.5 -244.5t-318.5 -99.5z" />
    <glyph glyph-name="t" unicode="t" horiz-adv-x="821" 
d="M575 -20q-179 0 -260.5 95.5t-81.5 260.5v557h-170v192h170v269h228v-269h278v-192h-278v-541q0 -176 168 -176q28 0 57.5 8t45.5 16l16 9v-199q-58 -30 -173 -30z" />
    <glyph glyph-name="u" unicode="u" horiz-adv-x="1198" 
d="M496 -20q-94 0 -166.5 32.5t-115 87.5t-64 123t-21.5 144v718h233v-679q0 -109 51.5 -174.5t159.5 -65.5q134 0 198.5 96t64.5 258v565h233v-1085h-233v172q-11 -22 -25 -42.5t-43.5 -49t-64.5 -49.5t-89.5 -36t-117.5 -15z" />
    <glyph glyph-name="v" unicode="v" horiz-adv-x="1183" 
d="M461 0l-400 1085h242l299 -862l293 862h227l-403 -1085h-258z" />
    <glyph glyph-name="w" unicode="w" horiz-adv-x="1802" 
d="M422 0l-342 1085h233l242 -815l250 815h199l247 -815l242 815h229l-344 -1085h-243l-236 778l-235 -778h-242z" />
    <glyph glyph-name="x" unicode="x" horiz-adv-x="1128" 
d="M59 0l349 541l-351 544h248l258 -405l260 405h248l-356 -544l354 -541h-248l-258 406l-256 -406h-248z" />
    <glyph glyph-name="y" unicode="y" horiz-adv-x="1183" 
d="M268 -412l207 480l-414 1017h242l297 -755l287 755h235l-610 -1497h-244z" />
    <glyph glyph-name="z" unicode="z" horiz-adv-x="1040" 
d="M88 0v166l608 729h-581v190h866v-165l-608 -730h610v-190h-895z" />
    <glyph glyph-name="braceleft" unicode="{" horiz-adv-x="907" 
d="M805 -465q-108 -5 -188.5 11t-132.5 51t-85.5 87.5t-47.5 120.5t-18.5 149.5t1.5 174.5q2 87 3 152t-8.5 112.5t-23 78t-40.5 49t-61 25.5t-85 7h-86v184h86q51 0 85 7t61 25.5t40.5 49t23 78t8.5 112.5t-3 152q-6 94 -1.5 176t18.5 150t47.5 120t85.5 86.5t132.5 50.5
t188.5 11v-180q-93 0 -144 -24t-71 -76.5t-22 -134.5t1 -199q5 -106 0.5 -189t-23.5 -143t-65.5 -101t-126.5 -63q80 -22 127 -63.5t65.5 -102.5t23 -143.5t-0.5 -185.5q-3 -117 -1 -199.5t22 -135t71 -76.5t144 -24v-180z" />
    <glyph glyph-name="bar" unicode="|" horiz-adv-x="854" 
d="M324 -473v2419h206v-2419h-206z" />
    <glyph glyph-name="braceright" unicode="}" horiz-adv-x="907" 
d="M102 -285q93 0 144 24t71 76.5t22 135t-1 199.5q-5 103 -0.5 185.5t23 143.5t65.5 102.5t127 63.5q-80 22 -126.5 63t-65.5 101t-23.5 143t0.5 189q3 117 1 199t-22 134.5t-71 76.5t-144 24v180q108 5 188.5 -11t132.5 -50.5t85.5 -86.5t47.5 -120t18.5 -150t-1.5 -176
q-2 -87 -3 -152t8.5 -112.5t23 -78t40.5 -49t61 -25.5t85 -7h86v-184h-86q-51 0 -85 -7t-61 -25.5t-40.5 -49t-23 -78t-8.5 -112.5t3 -152q6 -93 1.5 -174.5t-18.5 -149.5t-47.5 -120.5t-85.5 -87.5t-132.5 -51t-188.5 -11v180z" />
    <glyph glyph-name="asciitilde" unicode="~" horiz-adv-x="972" 
d="M633 649q-51 0 -96 20.5t-71 45t-57.5 45t-58.5 20.5q-67 0 -67 -121h-144q0 53 9.5 98t30.5 86t62.5 65t98.5 24q52 0 98 -21t73 -45.5t58 -45.5t56 -21q67 0 67 121h142q0 -41 -5 -77t-19 -72.5t-36 -62.5t-58 -42.5t-83 -16.5z" />
    <glyph glyph-name="uni00A0" unicode="&#xa0;" horiz-adv-x="466" 
 />
    <glyph glyph-name="exclamdown" unicode="&#xa1;" horiz-adv-x="593" 
d="M180 -469l19 1104h200l23 -1104h-242zM135 913q0 64 44 109t110 45q65 0 108 -45t43 -109t-43 -107.5t-108 -43.5q-67 0 -110.5 43.5t-43.5 107.5z" />
    <glyph glyph-name="cent" unicode="&#xa2;" horiz-adv-x="1232" 
d="M549 -182v170q-109 17 -196 70.5t-141 130t-82 167t-28 187.5t28 187.5t82 167t141 130t196 70.5v172h168v-166q82 -7 150 -32.5t111.5 -60.5t77 -75.5t51 -79.5t28.5 -71.5t13 -52.5l3 -19h-225q-1 7 -4 18.5t-17.5 43t-35 57t-61 50t-91.5 33.5v-745q51 9 91.5 33
t61.5 52t34.5 55t17.5 45l4 18h225q-1 -7 -3 -20t-13 -51t-28 -72.5t-51 -78.5t-77.5 -77t-111.5 -59t-150 -33v-164h-168zM334 543q0 -131 55.5 -230t159.5 -133v725q-104 -34 -159.5 -132.5t-55.5 -229.5z" />
    <glyph glyph-name="sterling" unicode="&#xa3;" horiz-adv-x="1284" 
d="M133 203q132 17 214.5 98.5t82.5 194.5q0 69 -39 145h-272v133h190q-51 77 -78.5 147.5t-27.5 159.5q0 208 158.5 331.5t418.5 123.5q76 0 156.5 -10t123.5 -20l42 -9v-211q-143 41 -297 41q-170 0 -270.5 -69t-100.5 -193q0 -40 14 -83.5t24.5 -64.5t45.5 -76.5
t41 -66.5h414v-133h-352q18 -56 18 -119q0 -67 -23.5 -128t-57.5 -99t-64 -61.5t-52 -30.5h721v-203h-1030v203z" />
    <glyph glyph-name="currency" unicode="&#xa4;" horiz-adv-x="1265" 
d="M211 219l-109 107l170 170q-84 111 -84 258q0 143 80 256l-166 164l109 108l164 -166q118 88 264 88q144 0 258 -84l162 162l104 -108l-159 -162q83 -113 83 -258q0 -142 -86 -262l162 -166l-104 -107l-166 164q-116 -78 -254 -78q-143 0 -260 84zM356 754
q0 -115 83 -197t200 -82q115 0 197 81.5t82 197.5q0 115 -81.5 196.5t-197.5 81.5q-117 0 -200 -81.5t-83 -196.5z" />
    <glyph glyph-name="yen" unicode="&#xa5;" horiz-adv-x="1390" 
d="M186 375v155h387v60l-45 78h-342v153h256l-397 695h274l386 -707l382 707h259l-396 -695h260v-153h-348l-45 -78v-60h393v-155h-393v-375h-244v375h-387z" />
    <glyph glyph-name="brokenbar" unicode="&#xa6;" horiz-adv-x="854" 
d="M324 -473v991h206v-991h-206zM324 854v1094h206v-1094h-206z" />
    <glyph glyph-name="section" unicode="&#xa7;" horiz-adv-x="1398" 
d="M727 -471q-95 0 -176.5 16.5t-139 44.5t-104.5 64t-76.5 76.5t-51.5 80.5t-32.5 76t-17 64t-7.5 45l-1 16h239q0 -6 1 -16.5t9 -40t21.5 -56.5t42 -60t66.5 -56.5t99 -40t136 -16.5q137 0 219 68t82 169q0 96 -63 148.5t-176 76.5l-267 56q-450 90 -450 393q0 123 78 205
t213 104v15q-107 60 -159 138.5t-52 190.5q0 191 146.5 312.5t381.5 121.5q83 0 155 -15.5t123 -41.5t93.5 -59.5t70 -71t48 -75t31 -71t17 -59.5t8.5 -41l1 -16h-238q0 5 -1.5 14t-9 35.5t-19 50t-36 53t-56 50t-82 35t-111.5 14.5q-141 0 -215 -67t-74 -163
q0 -87 63.5 -137t186.5 -78l225 -47q451 -94 451 -391q0 -123 -77.5 -205.5t-213.5 -105.5v-13q115 -36 181.5 -126t66.5 -218q0 -193 -150 -319.5t-399 -126.5zM313 672q0 -45 20 -81t57.5 -60.5t81.5 -40.5t101 -29l250 -53q107 0 184.5 52t77.5 146q0 88 -69 137.5
t-191 75.5l-252 53q-106 0 -183 -52.5t-77 -147.5z" />
    <glyph glyph-name="dieresis" unicode="&#xa8;" horiz-adv-x="587" 
d="M686 1245q-67 0 -110.5 44t-43.5 108t43.5 107.5t110.5 43.5t111.5 -43.5t44.5 -107.5q0 -65 -44.5 -108.5t-111.5 -43.5zM139 1397q0 64 43.5 107.5t110.5 43.5t110 -43.5t43 -107.5q0 -65 -43 -108.5t-110 -43.5t-110.5 44t-43.5 108z" />
    <glyph glyph-name="copyright" unicode="&#xa9;" horiz-adv-x="1738" 
d="M870 106q131 0 251.5 52t207.5 139.5t139 208t52 252.5t-52 252t-139 207t-207.5 138.5t-251.5 51.5q-176 0 -326.5 -87t-238.5 -236.5t-88 -325.5q0 -132 52 -252.5t140 -208t208.5 -139.5t252.5 -52zM90 758q0 158 62 302t167 247.5t249 165t302 61.5
q157 0 300.5 -61.5t248 -165.5t166.5 -247.5t62 -301.5t-62 -302t-166.5 -248t-248 -166t-300.5 -62q-158 0 -302 62t-249 166t-167 248t-62 302zM438 756q0 86 28.5 165.5t82.5 143.5t142 102.5t198 38.5q77 0 141.5 -17.5t105.5 -46t72 -62.5t47 -68.5t26 -63t13 -46.5
l2 -17h-188q-1 7 -4 18t-18 40t-36 51.5t-62.5 40.5t-94.5 18q-123 0 -189.5 -85t-66.5 -212t66.5 -212t189.5 -85q53 0 94.5 17t63 41.5t35.5 49t18 41.5l4 17h188q-1 -7 -2.5 -18.5t-12 -44.5t-26 -63.5t-47.5 -67t-72.5 -63.5t-105 -45t-141.5 -18q-110 0 -198 38.5
t-142 103t-82.5 144t-28.5 165.5z" />
    <glyph glyph-name="ordfeminine" unicode="&#xaa;" horiz-adv-x="794" 
d="M381 1124q-105 -13 -105 -80q0 -36 29.5 -56.5t71.5 -20.5q62 0 102.5 42.5t40.5 112.5v23zM92 1030q0 180 264 211l164 23v16q0 48 -27.5 79.5t-84.5 31.5q-29 0 -51.5 -9t-34 -21.5t-18.5 -25t-9 -21.5l-2 -9h-178q0 5 1 13t8 32t18 46t33.5 48.5t52.5 46t78 32.5
t106 13q146 0 221.5 -73.5t75.5 -174.5v-440h-189v82h-10q-65 -94 -195 -94q-100 0 -161.5 52t-61.5 142z" />
    <glyph glyph-name="guillemotleft" unicode="&#xab;" horiz-adv-x="1384" 
d="M1053 203l-445 438l445 440h254l-441 -440l441 -438h-254zM80 641l444 440h252l-438 -440l438 -438h-252z" />
    <glyph glyph-name="logicalnot" unicode="&#xac;" horiz-adv-x="1341" 
d="M164 895v190h1014v-540h-189v350h-825z" />
    <glyph glyph-name="uni00AD" unicode="&#xad;" horiz-adv-x="972" 
d="M104 594v190h764v-190h-764z" />
    <glyph glyph-name="registered" unicode="&#xae;" horiz-adv-x="886" 
d="M444 791q-91 0 -164 31.5t-118 84.5t-68.5 118.5t-23.5 137.5q0 71 24 136.5t69 119t118 85.5t163 32t162.5 -32t117.5 -85.5t69 -119.5t24 -136q0 -97 -40 -180t-126.5 -137.5t-206.5 -54.5zM154 1163q0 -56 18.5 -108t53 -93.5t91 -66.5t127.5 -25q93 0 161 43.5
t99 108.5t31 141q0 56 -18.5 107.5t-53.5 93.5t-92 67t-127 25t-127 -25t-91.5 -67t-53 -93.5t-18.5 -107.5zM293 965v397h166q70 0 111.5 -35t41.5 -96q0 -85 -75 -117l86 -149h-107l-74 135h-53v-135h-96zM389 1176h68q27 0 43 14.5t16 36.5q0 25 -15.5 39t-43.5 14h-68
v-104z" />
    <glyph glyph-name="macron" unicode="&#xaf;" horiz-adv-x="794" 
d="M78 1317v160h639v-160h-639z" />
    <glyph glyph-name="degree" unicode="&#xb0;" horiz-adv-x="856" 
d="M426 799q-152 0 -259.5 107.5t-107.5 260.5q0 152 107.5 260.5t259.5 108.5q154 0 262.5 -108.5t108.5 -260.5q0 -153 -108.5 -260.5t-262.5 -107.5zM229 1167q0 -83 57.5 -140.5t139.5 -57.5q84 0 142.5 57.5t58.5 140.5t-59 141t-142 58q-82 0 -139.5 -58t-57.5 -141z
" />
    <glyph glyph-name="plusminus" unicode="&#xb1;" horiz-adv-x="1067" 
d="M438 322v301h-303v190h303v303h191v-303h301v-190h-301v-301h-191zM104 0v141h859v-141h-859z" />
    <glyph glyph-name="uni00B2" unicode="&#xb2;" horiz-adv-x="888" 
d="M104 842v135l154 123q23 18 65.5 51.5t60.5 48t47.5 39.5t42 40t27.5 35.5t20 38.5t5 38q0 50 -34 78t-82 28t-83.5 -33t-35.5 -92h-191q0 143 92.5 220t223.5 77t221 -73.5t90 -188.5q0 -44 -15 -85t-39 -75t-67 -73t-85.5 -71t-108.5 -77l-21 -14h344v-170h-631z" />
    <glyph glyph-name="uni00B3" unicode="&#xb3;" horiz-adv-x="782" 
d="M391 825q-77 0 -139.5 23.5t-100.5 63t-58.5 87t-20.5 97.5h188q0 -46 35.5 -77.5t93.5 -31.5q56 0 88.5 29t32.5 69q0 41 -30 67t-81 26h-110v147h108q48 0 77.5 26t29.5 64q0 39 -31.5 65.5t-81.5 26.5q-53 0 -86 -30.5t-33 -77.5h-182q0 106 82 187t223 81
q126 0 215.5 -62.5t89.5 -168.5q0 -69 -40.5 -116t-92.5 -63v-8q66 -18 106 -65t40 -115q0 -112 -93 -178t-229 -66z" />
    <glyph glyph-name="acute" unicode="&#xb4;" horiz-adv-x="462" 
d="M227 1241l-180 2l115 301h264z" />
    <glyph glyph-name="uni00B5" unicode="&#xb5;" horiz-adv-x="1259" 
d="M94 -406v1491h234v-702q0 -97 51.5 -152t142.5 -55q121 0 181.5 90t60.5 217v602h233v-757q0 -152 156 -152q21 0 39.5 2t26.5 4l8 2v-190q-45 -14 -119 -14q-244 0 -313 176h-13q-2 -7 -7 -19t-25.5 -42.5t-48.5 -53.5t-79.5 -42t-113.5 -19q-68 0 -124.5 20t-78.5 40
l-22 19l-9 -4q54 -154 54 -315v-146h-234z" />
    <glyph glyph-name="paragraph" unicode="&#xb6;" horiz-adv-x="1075" 
d="M406 672q-192 0 -296 107t-104 268q0 78 26 147t75 123t126.5 85.5t172.5 31.5h571v-1434h-150v1229h-141v-1229h-149v672h-131z" />
    <glyph glyph-name="periodcentered" unicode="&#xb7;" horiz-adv-x="591" 
d="M297 -20q-71 0 -116.5 47t-45.5 114t45.5 113.5t116.5 46.5q68 0 114 -46.5t46 -113.5t-46 -114t-114 -47z" />
    <glyph glyph-name="cedilla" unicode="&#xb8;" horiz-adv-x="493" 
d="M158 -563q-31 0 -69 3.5t-61 7.5l-22 3v133q84 -12 141 -12q80 0 115 29t35 69q0 35 -26 58.5t-74 23.5q-29 0 -58 -10t-43 -20l-14 -9l-86 86l127 201h156l-86 -133q21 6 53 6q94 0 149.5 -59t55.5 -144q0 -44 -17 -84.5t-51 -74.5t-92 -54t-133 -20z" />
    <glyph glyph-name="uni00B9" unicode="&#xb9;" horiz-adv-x="630" 
d="M420 1661v-819h-193v561h-170v115l27 8q80 26 127.5 52t87.5 71l10 12h111z" />
    <glyph glyph-name="ordmasculine" unicode="&#xba;" horiz-adv-x="884" 
d="M442 834q-160 0 -255 103.5t-95 248.5t94.5 247.5t255.5 102.5t256 -102t95 -248q0 -94 -40.5 -173t-122 -129t-188.5 -50zM283 1186q0 -80 43.5 -136.5t115.5 -56.5q75 0 118.5 56t43.5 137q0 80 -43.5 136t-118.5 56q-72 0 -115.5 -56t-43.5 -136z" />
    <glyph glyph-name="guillemotright" unicode="&#xbb;" horiz-adv-x="1710" 
d="M80 203l438 438l-438 440h254l442 -440l-442 -438h-254zM934 203l438 438l-438 440h254l442 -440l-442 -438h-254z" />
    <glyph glyph-name="onequarter" unicode="&#xbc;" horiz-adv-x="1806" 
d="M338 1452v-719h-176v496h-142v106l23 6q62 17 103 41t81 64l6 6h105zM287 0l862 1434h203l-865 -1434h-200zM1106 145v127l295 443h225v-426h105v-144h-105v-147h-180v147h-340zM1282 289h164v248z" />
    <glyph glyph-name="onehalf" unicode="&#xbd;" horiz-adv-x="1830" 
d="M338 1452v-719h-176v496h-142v106l23 6q62 17 103 41t81 64l6 6h105zM287 0l862 1434h203l-865 -1434h-200zM1192 463q0 126 82 194t199 68t195.5 -64t78.5 -169q0 -89 -66 -163t-208 -169l-15 -10h295v-152h-557v123l104 84q28 22 67.5 52.5t60 46.5t47.5 38.5t40 37
t26.5 32.5t18.5 34.5t5 34.5q0 42 -29.5 66t-69.5 24q-42 0 -72 -27.5t-30 -80.5h-172z" />
    <glyph glyph-name="threequarters" unicode="&#xbe;" horiz-adv-x="1974" 
d="M356 721q-135 0 -206.5 71t-71.5 164h168q0 -38 29.5 -65t78.5 -27q50 0 78.5 24t28.5 60t-25.5 59t-75.5 23h-88v131h90q42 0 68.5 22t26.5 54q0 33 -28 56.5t-73 23.5t-73.5 -26.5t-28.5 -65.5h-162q0 91 71 162t195 71q111 0 190 -55t79 -148q0 -62 -36 -103t-79 -52
v-8q127 -43 127 -158q0 -96 -81.5 -154.5t-201.5 -58.5zM455 0l862 1434h203l-865 -1434h-200zM1274 145v127l295 443h225v-426h104v-144h-104v-147h-180v147h-340zM1450 289h164v248z" />
    <glyph glyph-name="questiondown" unicode="&#xbf;" horiz-adv-x="1222" 
d="M623 -578q-133 0 -244.5 52t-180.5 153t-69 232q0 71 22 133.5t57 107.5t77.5 85.5t85.5 75t78 67.5t57 73t22 82v70h234v-70q0 -66 -22 -122.5t-56.5 -98t-77 -79t-84.5 -72t-76.5 -70t-56.5 -80.5t-22 -96q0 -105 77 -169.5t185 -64.5q112 0 190 72.5t78 210.5h229
q0 -121 -42.5 -217t-114 -155t-160 -89.5t-186.5 -30.5zM504 825q0 64 43 109t108 45q68 0 111 -45t43 -109t-43 -107.5t-111 -43.5q-65 0 -108 43.5t-43 107.5z" />
    <glyph glyph-name="Agrave" unicode="&#xc0;" horiz-adv-x="1505" 
d="M80 0l524 1516h332l526 -1516h-266l-135 412h-594l-137 -412h-250zM449 1958h262l123 -285l-181 -2zM535 614h458l-229 695z" />
    <glyph glyph-name="Aacute" unicode="&#xc1;" horiz-adv-x="1542" 
d="M80 0l524 1516h332l526 -1516h-266l-135 412h-594l-137 -412h-250zM535 614h458l-229 695zM690 1673l115 301h264l-199 -303z" />
    <glyph glyph-name="Acircumflex" unicode="&#xc2;" horiz-adv-x="1542" 
d="M80 0l524 1516h332l526 -1516h-266l-135 412h-594l-137 -412h-250zM449 1645l219 270h206l220 -270h-191l-133 139l-131 -139h-190zM535 614h458l-229 695z" />
    <glyph glyph-name="Atilde" unicode="&#xc3;" horiz-adv-x="1542" 
d="M80 0l524 1516h332l526 -1516h-266l-135 412h-594l-137 -412h-250zM436 1692q0 54 9 99t29 85t59 63t94 23q51 0 95 -19.5t69 -43t54 -43t54 -19.5q61 0 64 115h141q0 -54 -9 -99.5t-29 -86t-59 -64t-94 -23.5q-41 0 -76.5 13.5t-60 32.5t-46 37.5t-43.5 32t-44 13.5
q-62 0 -65 -116h-142zM535 614h458l-229 695z" />
    <glyph glyph-name="Adieresis" unicode="&#xc4;" horiz-adv-x="1542" 
d="M80 0l524 1516h332l526 -1516h-266l-135 412h-594l-137 -412h-250zM420 1827q0 64 43 107.5t110 43.5t110.5 -43.5t43.5 -107.5q0 -65 -43.5 -108.5t-110.5 -43.5t-110 44t-43 108zM535 614h458l-229 695zM813 1827q0 64 43.5 107.5t110.5 43.5t111 -43.5t44 -107.5
q0 -65 -44 -108.5t-111 -43.5t-110.5 44t-43.5 108z" />
    <glyph glyph-name="Aring" unicode="&#xc5;" horiz-adv-x="1542" 
d="M80 0l524 1516h332l526 -1516h-266l-135 412h-594l-137 -412h-250zM502 1921q0 110 79 188t189 78t189 -78t79 -188q0 -112 -78.5 -190t-189.5 -78t-189.5 78t-78.5 190zM535 614h458l-229 695zM649 1921q0 -49 35.5 -84t85.5 -35t85.5 35t35.5 84t-35.5 84t-85.5 35
t-85.5 -35t-35.5 -84z" />
    <glyph glyph-name="AE" unicode="&#xc6;" horiz-adv-x="2433" 
d="M-16 0l749 1516h178v-158l-401 -807h547v-211h-651l-170 -340h-252zM1358 0v1516h966v-211h-720v-431h637v-208h-637v-455h729v-211h-975z" />
    <glyph glyph-name="Ccedilla" unicode="&#xc7;" horiz-adv-x="1617" 
d="M819 -567q-31 0 -69 3.5t-60 7.5l-22 3v133q84 -12 141 -12q80 0 114.5 29t34.5 69q0 35 -26 58.5t-74 23.5q-29 0 -58 -10t-43 -20l-14 -9l-86 86l119 187q-135 10 -248.5 58.5t-193.5 123t-135.5 171t-82 203.5t-26.5 220q0 119 29 230.5t90.5 211.5t149.5 174.5
t213.5 118t273.5 43.5q101 0 188.5 -19t150.5 -50.5t116 -72.5t87.5 -87t61.5 -91.5t41 -86.5t23 -72.5t12 -50.5l2 -19h-248q-1 7 -3.5 19t-15 47t-30 66.5t-52 70.5t-78 67t-110.5 47t-147 19q-97 0 -179 -31t-140.5 -84.5t-99.5 -125t-61 -154t-20 -170.5q0 -87 20 -169
t61 -154t99.5 -126t140.5 -85t179 -31q63 0 118 11.5t95 31t73.5 44.5t56 53t40 55.5t27.5 52.5t16 44.5t8 30.5l2 12h248q-1 -10 -4 -28t-19 -70.5t-39 -101.5t-70 -109.5t-106.5 -106.5t-152.5 -82t-205 -46l-78 -121q21 6 53 6q94 0 149.5 -59t55.5 -144q0 -44 -17 -84.5
t-51 -74.5t-92 -54t-133 -20z" />
    <glyph glyph-name="Egrave" unicode="&#xc8;" horiz-adv-x="1179" 
d="M129 0v1516h967v-211h-721v-431h637v-208h-637v-455h729v-211h-975zM287 1958h262l123 -285l-180 -2z" />
    <glyph glyph-name="Eacute" unicode="&#xc9;" horiz-adv-x="1179" 
d="M129 0v1516h967v-211h-721v-431h637v-208h-637v-455h729v-211h-975zM512 1673l115 301h264l-199 -303z" />
    <glyph glyph-name="Ecircumflex" unicode="&#xca;" horiz-adv-x="1179" 
d="M129 0v1516h967v-211h-721v-431h637v-208h-637v-455h729v-211h-975zM270 1645l219 270h207l219 -270h-190l-133 139l-131 -139h-191z" />
    <glyph glyph-name="Edieresis" unicode="&#xcb;" horiz-adv-x="1179" 
d="M129 0v1516h967v-211h-721v-431h637v-208h-637v-455h729v-211h-975zM242 1827q0 64 42.5 107.5t110.5 43.5q66 0 110 -44t44 -107q0 -65 -44 -108.5t-110 -43.5q-68 0 -110.5 44t-42.5 108zM635 1827q0 64 43 107.5t110 43.5t110.5 -43.5t43.5 -107.5q0 -65 -43.5 -108.5
t-110.5 -43.5t-110 44t-43 108z" />
    <glyph glyph-name="Igrave" unicode="&#xcc;" horiz-adv-x="503" 
d="M129 0v1516h246v-1516h-246zM-55 1958h262l123 -285l-180 -2z" />
    <glyph glyph-name="Iacute" unicode="&#xcd;" horiz-adv-x="503" 
d="M129 0v1516h246v-1516h-246zM170 1673l115 301h264l-199 -303z" />
    <glyph glyph-name="Icircumflex" unicode="&#xce;" horiz-adv-x="503" 
d="M129 0v1516h246v-1516h-246zM-76 1645l230 278h192l232 -278h-197l-131 141l-131 -141h-195z" />
    <glyph glyph-name="Idieresis" unicode="&#xcf;" horiz-adv-x="503" 
d="M129 0v1516h246v-1516h-246zM-100 1827q0 64 43 107.5t110 43.5t110.5 -43.5t43.5 -107.5q0 -65 -43.5 -108.5t-110.5 -43.5t-110 44t-43 108zM293 1827q0 64 43 107.5t110 43.5t111.5 -43.5t44.5 -107.5q0 -65 -44.5 -108.5t-111.5 -43.5t-110 44t-43 108z" />
    <glyph glyph-name="Eth" unicode="&#xd0;" horiz-adv-x="1642" 
d="M2 657v201h199v658h499q167 0 304 -42.5t229.5 -115t156.5 -170.5t92.5 -205.5t28.5 -224.5t-28.5 -224.5t-92.5 -205.5t-156.5 -170.5t-229.5 -115t-304 -42.5h-499v657h-199zM446 207h242q119 0 216 31t161.5 83.5t108.5 123.5t63.5 149.5t19.5 163.5t-19.5 163.5
t-63.5 149.5t-108.5 123.5t-161.5 83.5t-216 31h-242v-451h345v-201h-345v-450z" />
    <glyph glyph-name="Ntilde" unicode="&#xd1;" horiz-adv-x="1486" 
d="M129 0v1516h277l714 -1151v1151h238v-1516h-277l-712 1151v-1151h-240zM397 1692q0 54 9 99t29 85t59 63t94 23q51 0 95 -19.5t69 -43t54 -43t54 -19.5q61 0 64 115h141q0 -54 -9 -99.5t-29 -86t-59 -64t-94 -23.5q-41 0 -76.5 13.5t-60 32.5t-46 37.5t-43.5 32t-44 13.5
q-62 0 -65 -116h-142z" />
    <glyph glyph-name="Ograve" unicode="&#xd2;" horiz-adv-x="1705" 
d="M852 -20q-146 0 -271 43.5t-214 118.5t-152.5 174.5t-94 212t-30.5 231.5q0 117 30.5 229t94 211.5t152.5 174t214 118t271 43.5t271.5 -43t215 -117.5t153 -173.5t94 -211.5t30.5 -230.5q0 -120 -30.5 -233t-94 -212.5t-153 -174t-215 -117.5t-271.5 -43zM346 760
q0 -110 34 -211t96 -179.5t160 -125.5t216 -47q119 0 217 46.5t161 124.5t97.5 179t34.5 213q0 110 -34.5 210t-97.5 178t-161 124.5t-217 46.5q-118 0 -216 -47t-160 -125.5t-96 -178t-34 -208.5zM547 1978h262l123 -284l-180 -2z" />
    <glyph glyph-name="Oacute" unicode="&#xd3;" horiz-adv-x="1705" 
d="M852 -20q-146 0 -271 43.5t-214 118.5t-152.5 174.5t-94 212t-30.5 231.5q0 117 30.5 229t94 211.5t152.5 174t214 118t271 43.5t271.5 -43t215 -117.5t153 -173.5t94 -211.5t30.5 -230.5q0 -120 -30.5 -233t-94 -212.5t-153 -174t-215 -117.5t-271.5 -43zM346 760
q0 -110 34 -211t96 -179.5t160 -125.5t216 -47q119 0 217 46.5t161 124.5t97.5 179t34.5 213q0 110 -34.5 210t-97.5 178t-161 124.5t-217 46.5q-118 0 -216 -47t-160 -125.5t-96 -178t-34 -208.5zM772 1694l115 301h264l-199 -303z" />
    <glyph glyph-name="Ocircumflex" unicode="&#xd4;" horiz-adv-x="1705" 
d="M852 -20q-146 0 -271 43.5t-214 118.5t-152.5 174.5t-94 212t-30.5 231.5q0 117 30.5 229t94 211.5t152.5 174t214 118t271 43.5t271.5 -43t215 -117.5t153 -173.5t94 -211.5t30.5 -230.5q0 -120 -30.5 -233t-94 -212.5t-153 -174t-215 -117.5t-271.5 -43zM346 760
q0 -110 34 -211t96 -179.5t160 -125.5t216 -47q119 0 217 46.5t161 124.5t97.5 179t34.5 213q0 110 -34.5 210t-97.5 178t-161 124.5t-217 46.5q-118 0 -216 -47t-160 -125.5t-96 -178t-34 -208.5zM530 1665l220 270h206l220 -270h-191l-133 139l-131 -139h-191z" />
    <glyph glyph-name="Otilde" unicode="&#xd5;" horiz-adv-x="1705" 
d="M852 -20q-146 0 -271 43.5t-214 118.5t-152.5 174.5t-94 212t-30.5 231.5q0 117 30.5 229t94 211.5t152.5 174t214 118t271 43.5t271.5 -43t215 -117.5t153 -173.5t94 -211.5t30.5 -230.5q0 -120 -30.5 -233t-94 -212.5t-153 -174t-215 -117.5t-271.5 -43zM346 760
q0 -110 34 -211t96 -179.5t160 -125.5t216 -47q119 0 217 46.5t161 124.5t97.5 179t34.5 213q0 110 -34.5 210t-97.5 178t-161 124.5t-217 46.5q-118 0 -216 -47t-160 -125.5t-96 -178t-34 -208.5zM518 1712q0 54 9 99t29 85t59 63t94 23q51 0 95 -19.5t69 -42.5t54 -42.5
t54 -19.5q60 0 63 114h142q0 -43 -5 -80t-18.5 -73t-34.5 -61.5t-55 -41.5t-78 -16q-41 0 -76.5 13.5t-60 32t-46 37.5t-43.5 32.5t-44 13.5q-63 0 -66 -117h-141z" />
    <glyph glyph-name="Odieresis" unicode="&#xd6;" horiz-adv-x="1705" 
d="M852 -20q-146 0 -271 43.5t-214 118.5t-152.5 174.5t-94 212t-30.5 231.5q0 117 30.5 229t94 211.5t152.5 174t214 118t271 43.5t271.5 -43t215 -117.5t153 -173.5t94 -211.5t30.5 -230.5q0 -120 -30.5 -233t-94 -212.5t-153 -174t-215 -117.5t-271.5 -43zM346 760
q0 -110 34 -211t96 -179.5t160 -125.5t216 -47q119 0 217 46.5t161 124.5t97.5 179t34.5 213q0 110 -34.5 210t-97.5 178t-161 124.5t-217 46.5q-118 0 -216 -47t-160 -125.5t-96 -178t-34 -208.5zM502 1847q0 64 43 108t110 44t110.5 -44t43.5 -108q0 -65 -43.5 -108
t-110.5 -43t-110 43.5t-43 107.5zM895 1847q0 64 43.5 108t110.5 44t111 -44t44 -108q0 -65 -44 -108t-111 -43t-110.5 43.5t-43.5 107.5z" />
    <glyph glyph-name="multiply" unicode="&#xd7;" horiz-adv-x="948" 
d="M698 270l-225 226l-223 -226l-146 144l226 225l-226 225l146 146l225 -226l223 224l144 -144l-224 -223l226 -225z" />
    <glyph glyph-name="Oslash" unicode="&#xd8;" horiz-adv-x="1716" 
d="M207 -49l135 213q-122 110 -187 267.5t-65 328.5q0 117 30.5 229t94 211.5t152.5 174t214 118t271 43.5q177 0 328 -66l59 93h246l-129 -203q126 -108 193 -266.5t67 -333.5q0 -120 -30.5 -233t-94 -212.5t-153 -174t-215 -117.5t-271.5 -43q-189 0 -336 69l-63 -98h-246
zM346 760q0 -229 129 -389l582 907q-90 41 -205 41q-118 0 -216 -47t-160 -125.5t-96 -178t-34 -208.5zM639 242q95 -45 213 -45q119 0 217 46.5t161 124.5t97.5 179t34.5 213t-35.5 215t-103.5 180z" />
    <glyph glyph-name="Ugrave" unicode="&#xd9;" horiz-adv-x="1452" 
d="M725 -20q-131 0 -240 37.5t-188.5 109.5t-123.5 182.5t-44 249.5v957h246v-953q0 -170 89.5 -273.5t260.5 -103.5q172 0 262 103.5t90 273.5v953h246v-957q0 -277 -164 -428t-434 -151zM416 1958h262l123 -285l-180 -2z" />
    <glyph glyph-name="Uacute" unicode="&#xda;" horiz-adv-x="1452" 
d="M725 -20q-131 0 -240 37.5t-188.5 109.5t-123.5 182.5t-44 249.5v957h246v-953q0 -170 89.5 -273.5t260.5 -103.5q172 0 262 103.5t90 273.5v953h246v-957q0 -277 -164 -428t-434 -151zM561 1673l115 301h264l-199 -303z" />
    <glyph glyph-name="Ucircumflex" unicode="&#xdb;" horiz-adv-x="1400" 
d="M725 -20q-131 0 -240 37.5t-188.5 109.5t-123.5 182.5t-44 249.5v957h246v-953q0 -170 89.5 -273.5t260.5 -103.5q172 0 262 103.5t90 273.5v953h246v-957q0 -277 -164 -428t-434 -151zM367 1645l229 278h192l232 -278h-197l-131 141l-131 -141h-194z" />
    <glyph glyph-name="Udieresis" unicode="&#xdc;" horiz-adv-x="1452" 
d="M725 -20q-131 0 -240 37.5t-188.5 109.5t-123.5 182.5t-44 249.5v957h246v-953q0 -170 89.5 -273.5t260.5 -103.5q172 0 262 103.5t90 273.5v953h246v-957q0 -277 -164 -428t-434 -151zM369 1827q0 64 43 107.5t110 43.5t110.5 -43.5t43.5 -107.5q0 -65 -43.5 -108.5
t-110.5 -43.5t-110 44t-43 108zM762 1827q0 64 43 107.5t110 43.5t111.5 -43.5t44.5 -107.5q0 -65 -44.5 -108.5t-111.5 -43.5t-110 44t-43 108z" />
    <glyph glyph-name="Yacute" unicode="&#xdd;" horiz-adv-x="1390" 
d="M573 0v590l-528 926h274l386 -707l382 707h259l-529 -926v-590h-244zM621 1669l114 301h264l-198 -303z" />
    <glyph glyph-name="Thorn" unicode="&#xde;" horiz-adv-x="1366" 
d="M129 0v1516h246v-259h366q129 0 233 -42.5t168.5 -113.5t99 -158.5t34.5 -182.5q0 -96 -34.5 -185t-99 -160.5t-168.5 -114t-233 -42.5h-366v-258h-246zM375 467h366q139 0 217 86.5t78 204.5q0 56 -19 107t-54.5 92t-93 65.5t-128.5 24.5h-366v-580z" />
    <glyph glyph-name="germandbls" unicode="&#xdf;" horiz-adv-x="1298" 
d="M657 1544q-131 0 -235 -45t-167.5 -122t-96.5 -173t-33 -205v-1003h235v1003q0 170 83.5 257t220.5 87q117 0 195.5 -65.5t78.5 -175.5q0 -101 -71 -163t-185 -62h-156v-189h168q134 0 213.5 -65.5t79.5 -178.5q0 -118 -88 -191t-250 -73q-32 0 -72 3t-64 7l-24 3v-199
q85 -14 181 -14q247 0 403 118.5t156 317.5q0 61 -16 114t-41.5 89t-56.5 65.5t-62.5 46.5t-57 29t-41.5 16l-16 4v11q100 37 168 124.5t68 210.5q0 127 -73 223.5t-189.5 145.5t-254.5 49z" />
    <glyph glyph-name="agrave" unicode="&#xe0;" horiz-adv-x="1165" 
d="M483 -20q-167 0 -272 85.5t-105 225.5q0 283 416 350l283 47v23q0 103 -51.5 162t-159.5 59q-61 0 -107 -18.5t-68 -45t-35.5 -53t-15.5 -45.5l-3 -18h-220q0 7 1.5 20t11 49.5t25 70t50 74.5t80 70.5t119 49.5t164.5 20q115 0 201 -31t135.5 -86t73.5 -122.5t24 -147.5
v-719h-225v150q-30 -49 -62 -79q-100 -91 -260 -91zM291 1528h262l123 -285l-180 -2zM332 305q0 -78 59 -120t144 -42q126 0 198 79.5t72 217.5v90l-234 -38q-239 -42 -239 -187z" />
    <glyph glyph-name="aacute" unicode="&#xe1;" horiz-adv-x="1165" 
d="M483 -20q-167 0 -272 85.5t-105 225.5q0 283 416 350l283 47v23q0 103 -51.5 162t-159.5 59q-61 0 -107 -18.5t-68 -45t-35.5 -53t-15.5 -45.5l-3 -18h-220q0 7 1.5 20t11 49.5t25 70t50 74.5t80 70.5t119 49.5t164.5 20q115 0 201 -31t135.5 -86t73.5 -122.5t24 -147.5
v-719h-225v150q-30 -49 -62 -79q-100 -91 -260 -91zM332 305q0 -78 59 -120t144 -42q126 0 198 79.5t72 217.5v90l-234 -38q-239 -42 -239 -187zM516 1243l115 301h264l-199 -303z" />
    <glyph glyph-name="acircumflex" unicode="&#xe2;" horiz-adv-x="1165" 
d="M483 -20q-167 0 -272 85.5t-105 225.5q0 283 416 350l283 47v23q0 103 -51.5 162t-159.5 59q-61 0 -107 -18.5t-68 -45t-35.5 -53t-15.5 -45.5l-3 -18h-220q0 7 1.5 20t11 49.5t25 70t50 74.5t80 70.5t119 49.5t164.5 20q115 0 201 -31t135.5 -86t73.5 -122.5t24 -147.5
v-719h-225v150q-30 -49 -62 -79q-100 -91 -260 -91zM270 1214l230 279h192l232 -279h-197l-131 142l-131 -142h-195zM332 305q0 -78 59 -120t144 -42q126 0 198 79.5t72 217.5v90l-234 -38q-239 -42 -239 -187z" />
    <glyph glyph-name="atilde" unicode="&#xe3;" horiz-adv-x="1165" 
d="M483 -20q-167 0 -272 85.5t-105 225.5q0 283 416 350l283 47v23q0 103 -51.5 162t-159.5 59q-61 0 -107 -18.5t-68 -45t-35.5 -53t-15.5 -45.5l-3 -18h-220q0 7 1.5 20t11 49.5t25 70t50 74.5t80 70.5t119 49.5t164.5 20q115 0 201 -31t135.5 -86t73.5 -122.5t24 -147.5
v-719h-225v150q-30 -49 -62 -79q-100 -91 -260 -91zM262 1262q0 54 9 99t29 85t59 63t94 23q51 0 95 -19.5t69 -43t54 -43t54 -19.5q60 0 63 115h142q0 -54 -9 -99.5t-29 -86t-59 -64t-94 -23.5q-41 0 -76.5 13.5t-60 32.5t-46 37.5t-43.5 32t-44 13.5q-63 0 -66 -116h-141z
M332 305q0 -78 59 -120t144 -42q126 0 198 79.5t72 217.5v90l-234 -38q-239 -42 -239 -187z" />
    <glyph glyph-name="adieresis" unicode="&#xe4;" horiz-adv-x="1165" 
d="M483 -20q-167 0 -272 85.5t-105 225.5q0 283 416 350l283 47v23q0 103 -51.5 162t-159.5 59q-61 0 -107 -18.5t-68 -45t-35.5 -53t-15.5 -45.5l-3 -18h-220q0 7 1.5 20t11 49.5t25 70t50 74.5t80 70.5t119 49.5t164.5 20q115 0 201 -31t135.5 -86t73.5 -122.5t24 -147.5
v-719h-225v150q-30 -49 -62 -79q-100 -91 -260 -91zM244 1397q0 64 43 107.5t110 43.5t110.5 -43.5t43.5 -107.5q0 -65 -43.5 -108.5t-110.5 -43.5t-110 44t-43 108zM332 305q0 -78 59 -120t144 -42q126 0 198 79.5t72 217.5v90l-234 -38q-239 -42 -239 -187zM637 1397
q0 64 43.5 107.5t110.5 43.5t111 -43.5t44 -107.5q0 -65 -44 -108.5t-111 -43.5t-110.5 44t-43.5 108z" />
    <glyph glyph-name="aring" unicode="&#xe5;" horiz-adv-x="1165" 
d="M483 -20q-167 0 -272 85.5t-105 225.5q0 283 416 350l283 47v23q0 103 -51.5 162t-159.5 59q-61 0 -107 -18.5t-68 -45t-35.5 -53t-15.5 -45.5l-3 -18h-220q0 7 1.5 20t11 49.5t25 70t50 74.5t80 70.5t119 49.5t164.5 20q115 0 201 -31t135.5 -86t73.5 -122.5t24 -147.5
v-719h-225v150q-30 -49 -62 -79q-100 -91 -260 -91zM326 1491q0 110 79 188t189 78t189 -78t79 -188q0 -112 -78.5 -190t-189.5 -78t-189.5 78t-78.5 190zM332 305q0 -78 59 -120t144 -42q126 0 198 79.5t72 217.5v90l-234 -38q-239 -42 -239 -187zM473 1491q0 -49 35.5 -84
t85.5 -35t85.5 35t35.5 84t-35.5 84t-85.5 35t-85.5 -35t-35.5 -84z" />
    <glyph glyph-name="ae" unicode="&#xe6;" horiz-adv-x="1933" 
d="M481 -20q-168 0 -275.5 86.5t-107.5 242.5q0 152 112.5 240t309.5 88h291v57q0 41 -11 78.5t-35 73t-71 57t-112 21.5q-60 0 -106.5 -18t-70 -44t-38 -52t-17.5 -44l-4 -18h-223q1 7 3 20t14.5 50.5t30 71t53 75t80 71t114.5 50t153 20.5q157 0 253.5 -63t121.5 -146h6
q17 36 48 70.5t78.5 66.5t117.5 52t152 20q220 0 356.5 -147.5t136.5 -421.5v-64h-794q5 -129 88 -219t219 -90q58 0 106 17.5t75 43t45.5 51t25.5 42.5l6 18h217q-1 -7 -4.5 -20t-18.5 -50t-35 -70.5t-58.5 -74.5t-86 -70.5t-120 -50t-156.5 -20.5q-80 0 -151 19
t-118.5 46.5t-85.5 62.5t-57.5 63.5t-30.5 53.5h-10q-3 -10 -10 -26.5t-38.5 -58.5t-73.5 -74.5t-120.5 -59t-173.5 -26.5zM324 311q0 -78 58.5 -119.5t147.5 -41.5q127 0 204 84.5t77 209.5v29h-283q-100 0 -152 -45t-52 -117zM1044 637h572q-7 149 -82 219t-193 70
q-125 0 -206.5 -77.5t-90.5 -211.5z" />
    <glyph glyph-name="ccedilla" unicode="&#xe7;" horiz-adv-x="1253" 
d="M623 -569q-31 0 -69 3.5t-60 7.5l-23 3v133q84 -12 141 -12q80 0 115 29t35 69q0 35 -26 58.5t-74 23.5q-29 0 -58 -10t-43 -20l-14 -9l-86 86l121 191q-94 10 -174 46t-135.5 89.5t-94.5 123t-57.5 145t-18.5 155.5q0 108 34.5 207t100.5 179.5t173.5 128.5t242.5 48
q129 0 228 -40.5t147.5 -98t79 -115.5t36.5 -98l7 -41h-225q-1 8 -5 22.5t-22.5 50.5t-45 63.5t-79 50t-119.5 22.5q-154 0 -237.5 -108t-83.5 -271t83.5 -271t237.5 -108q67 0 119 21.5t79.5 52t45 61.5t22.5 53l5 21h225q-1 -7 -3 -19.5t-13 -49t-27 -70.5t-48.5 -77.5
t-73.5 -76.5t-106 -60t-143 -36l-80 -123q21 6 54 6q93 0 148.5 -59t55.5 -144q0 -95 -74 -164t-218 -69z" />
    <glyph glyph-name="egrave" unicode="&#xe8;" horiz-adv-x="1249" 
d="M922 639q-6 136 -85 211.5t-198 75.5q-125 0 -204 -79t-93 -208h580zM102 545q0 84 19.5 163t62.5 152t104 127t151 86.5t198 32.5q177 0 298.5 -81.5t173.5 -222.5t34 -325h-801q11 -146 93 -232.5t222 -86.5q61 0 110.5 16t76.5 38t45 44.5t23 38.5l6 16h219
q-1 -7 -4 -19t-18 -46.5t-35 -65.5t-59.5 -69t-87.5 -65.5t-122.5 -46.5t-161.5 -19q-135 0 -242.5 48.5t-172.5 129.5t-98.5 180t-33.5 207zM334 1526h262l123 -285l-180 -2z" />
    <glyph glyph-name="eacute" unicode="&#xe9;" horiz-adv-x="1249" 
d="M922 639q-6 136 -85 211.5t-198 75.5q-125 0 -204 -79t-93 -208h580zM102 545q0 84 19.5 163t62.5 152t104 127t151 86.5t198 32.5q177 0 298.5 -81.5t173.5 -222.5t34 -325h-801q11 -146 93 -232.5t222 -86.5q61 0 110.5 16t76.5 38t45 44.5t23 38.5l6 16h219
q-1 -7 -4 -19t-18 -46.5t-35 -65.5t-59.5 -69t-87.5 -65.5t-122.5 -46.5t-161.5 -19q-135 0 -242.5 48.5t-172.5 129.5t-98.5 180t-33.5 207zM559 1241l115 301h264l-199 -303z" />
    <glyph glyph-name="ecircumflex" unicode="&#xea;" horiz-adv-x="1249" 
d="M922 639q-6 136 -85 211.5t-198 75.5q-125 0 -204 -79t-93 -208h580zM102 545q0 84 19.5 163t62.5 152t104 127t151 86.5t198 32.5q177 0 298.5 -81.5t173.5 -222.5t34 -325h-801q11 -146 93 -232.5t222 -86.5q61 0 110.5 16t76.5 38t45 44.5t23 38.5l6 16h219
q-1 -7 -4 -19t-18 -46.5t-35 -65.5t-59.5 -69t-87.5 -65.5t-122.5 -46.5t-161.5 -19q-135 0 -242.5 48.5t-172.5 129.5t-98.5 180t-33.5 207zM313 1212l230 279h192l232 -279h-197l-131 142l-131 -142h-195z" />
    <glyph glyph-name="edieresis" unicode="&#xeb;" horiz-adv-x="1249" 
d="M922 639q-6 136 -85 211.5t-198 75.5q-125 0 -204 -79t-93 -208h580zM102 545q0 84 19.5 163t62.5 152t104 127t151 86.5t198 32.5q177 0 298.5 -81.5t173.5 -222.5t34 -325h-801q11 -146 93 -232.5t222 -86.5q61 0 110.5 16t76.5 38t45 44.5t23 38.5l6 16h219
q-1 -7 -4 -19t-18 -46.5t-35 -65.5t-59.5 -69t-87.5 -65.5t-122.5 -46.5t-161.5 -19q-135 0 -242.5 48.5t-172.5 129.5t-98.5 180t-33.5 207zM287 1395q0 64 43 107.5t110 43.5t110.5 -43.5t43.5 -107.5q0 -65 -43.5 -108.5t-110.5 -43.5t-110 44t-43 108zM680 1395
q0 64 43.5 107.5t110.5 43.5t111 -43.5t44 -107.5q0 -65 -44 -108.5t-111 -43.5t-110.5 44t-43.5 108z" />
    <glyph glyph-name="igrave" unicode="&#xec;" horiz-adv-x="487" 
d="M119 0v1085h233v-1085h-233zM-63 1528h262l123 -285l-181 -2z" />
    <glyph glyph-name="iacute" unicode="&#xed;" horiz-adv-x="487" 
d="M119 0v1085h233v-1085h-233zM164 1243l115 301h264l-199 -303z" />
    <glyph glyph-name="icircumflex" unicode="&#xee;" horiz-adv-x="487" 
d="M119 0v1085h233v-1085h-233zM-82 1214l229 279h193l231 -279h-196l-131 142l-131 -142h-195z" />
    <glyph glyph-name="idieresis" unicode="&#xef;" horiz-adv-x="471" 
d="M119 0v1085h233v-1085h-233zM-117 1397q0 64 43.5 107.5t110.5 43.5t110 -43.5t43 -107.5q0 -65 -43 -108.5t-110 -43.5t-110.5 44t-43.5 108zM276 1397q0 64 43.5 107.5t110.5 43.5t111.5 -43.5t44.5 -107.5q0 -65 -44.5 -108.5t-111.5 -43.5t-110.5 44t-43.5 108z" />
    <glyph glyph-name="eth" unicode="&#xf0;" horiz-adv-x="1273" 
d="M635 -20q-133 0 -239.5 48.5t-171 129t-98.5 179.5t-34 206q0 104 32 200t91.5 173.5t154.5 124t210 46.5q152 0 262 -88q-111 180 -326 336l-229 -133l-86 148l153 90q-48 27 -95 50.5t-70 33.5l-23 10l80 172q137 -48 307 -152l246 144l86 -150l-174 -100
q75 -58 140 -120t127.5 -144.5t106 -170t70.5 -196t27 -223.5q0 -101 -21.5 -192t-66 -168.5t-108.5 -133.5t-153.5 -88t-197.5 -32zM330 543q0 -70 19.5 -135t56 -117.5t96.5 -84.5t135 -32t135.5 32t97 85.5t55.5 118t19 133.5q0 95 -33 176.5t-104.5 136.5t-169.5 55
q-99 0 -170.5 -54.5t-104 -136t-32.5 -177.5z" />
    <glyph glyph-name="ntilde" unicode="&#xf1;" horiz-adv-x="1216" 
d="M129 0v1085h233v-161q13 19 26.5 36.5t44.5 46.5t66 49t90 35t116 15q97 0 171.5 -32t120 -89t68 -132t22.5 -165v-688h-233v657q0 261 -221 261q-138 0 -204.5 -96.5t-66.5 -258.5v-563h-233zM279 1262q0 54 8.5 99t29 85t59 63t93.5 23q51 0 95 -19.5t69 -43t54 -43
t54 -19.5q61 0 64 115h141q0 -54 -8.5 -99.5t-29 -86.5t-59 -64t-93.5 -23q-50 0 -93 20t-68 44.5t-54.5 44.5t-55.5 20q-62 0 -65 -116h-141z" />
    <glyph glyph-name="ograve" unicode="&#xf2;" horiz-adv-x="1312" 
d="M657 -20q-130 0 -236.5 45t-175 122.5t-106 179t-37.5 216.5t37.5 216.5t106 179t175 122.5t236.5 45q131 0 237.5 -45t175.5 -122.5t106.5 -179t37.5 -216.5t-37.5 -216.5t-106.5 -179t-175.5 -122.5t-237.5 -45zM340 543q0 -161 85 -268t232 -107q148 0 234 107t86 268
t-86 268t-234 107q-147 0 -232 -107t-85 -268zM350 1530h262l123 -285l-180 -2z" />
    <glyph glyph-name="oacute" unicode="&#xf3;" horiz-adv-x="1312" 
d="M657 -20q-130 0 -236.5 45t-175 122.5t-106 179t-37.5 216.5t37.5 216.5t106 179t175 122.5t236.5 45q131 0 237.5 -45t175.5 -122.5t106.5 -179t37.5 -216.5t-37.5 -216.5t-106.5 -179t-175.5 -122.5t-237.5 -45zM340 543q0 -161 85 -268t232 -107q148 0 234 107t86 268
t-86 268t-234 107q-147 0 -232 -107t-85 -268zM594 1245l115 301h264l-199 -303z" />
    <glyph glyph-name="ocircumflex" unicode="&#xf4;" horiz-adv-x="1316" 
d="M657 -20q-130 0 -236.5 45t-175 122.5t-106 179t-37.5 216.5t37.5 216.5t106 179t175 122.5t236.5 45q131 0 237.5 -45t175.5 -122.5t106.5 -179t37.5 -216.5t-37.5 -216.5t-106.5 -179t-175.5 -122.5t-237.5 -45zM334 1214l229 279h193l231 -279h-196l-132 142
l-131 -142h-194zM340 543q0 -161 85 -268t232 -107q148 0 234 107t86 268t-86 268t-234 107q-147 0 -232 -107t-85 -268z" />
    <glyph glyph-name="otilde" unicode="&#xf5;" horiz-adv-x="1316" 
d="M657 -20q-130 0 -236.5 45t-175 122.5t-106 179t-37.5 216.5t37.5 216.5t106 179t175 122.5t236.5 45q131 0 237.5 -45t175.5 -122.5t106.5 -179t37.5 -216.5t-37.5 -216.5t-106.5 -179t-175.5 -122.5t-237.5 -45zM324 1262q0 54 8.5 99t29 85t59 63t93.5 23
q51 0 95 -19.5t69 -43t54 -43t54 -19.5q61 0 64 115h141q0 -54 -8.5 -99.5t-29 -86.5t-59 -64t-93.5 -23q-50 0 -93 20t-68 44.5t-54.5 44.5t-55.5 20q-62 0 -65 -116h-141zM340 543q0 -161 85 -268t232 -107q148 0 234 107t86 268t-86 268t-234 107q-147 0 -232 -107
t-85 -268z" />
    <glyph glyph-name="odieresis" unicode="&#xf6;" horiz-adv-x="1316" 
d="M657 -20q-130 0 -236.5 45t-175 122.5t-106 179t-37.5 216.5t37.5 216.5t106 179t175 122.5t236.5 45q131 0 237.5 -45t175.5 -122.5t106.5 -179t37.5 -216.5t-37.5 -216.5t-106.5 -179t-175.5 -122.5t-237.5 -45zM307 1397q0 64 43.5 107.5t110.5 43.5t110 -43.5
t43 -107.5q0 -65 -43 -108.5t-110 -43.5t-110.5 44t-43.5 108zM340 543q0 -161 85 -268t232 -107q148 0 234 107t86 268t-86 268t-234 107q-147 0 -232 -107t-85 -268zM700 1397q0 64 43.5 107.5t110.5 43.5t111.5 -43.5t44.5 -107.5q0 -65 -44.5 -108.5t-111.5 -43.5
t-110.5 44t-43.5 108z" />
    <glyph glyph-name="divide" unicode="&#xf7;" horiz-adv-x="1132" 
d="M115 524v178h913v-178h-913zM113 92q0 67 45 113.5t116 46.5q68 0 114 -46.5t46 -113.5t-46 -114.5t-114 -47.5q-71 0 -116 47t-45 115zM705 92q0 67 45 113.5t116 46.5q68 0 114 -46.5t46 -113.5t-46 -114.5t-114 -47.5q-71 0 -116 47t-45 115z" />
    <glyph glyph-name="oslash" unicode="&#xf8;" horiz-adv-x="1290" 
d="M225 -92l97 172q-106 75 -163 197.5t-57 265.5q0 115 37.5 216.5t106 179t175 122.5t236.5 45q119 0 220 -37l61 107h170l-100 -181q100 -76 153 -194t53 -258q0 -115 -37.5 -216.5t-106.5 -179t-175.5 -122.5t-237.5 -45q-117 0 -202 32l-58 -104h-172zM340 543
q0 -168 88 -273l352 625q-61 23 -123 23q-147 0 -232 -107t-85 -268zM553 184q50 -16 104 -16q148 0 234 107t86 268q0 154 -78 258z" />
    <glyph glyph-name="ugrave" unicode="&#xf9;" horiz-adv-x="1198" 
d="M496 -20q-94 0 -166.5 32.5t-115 87.5t-64 123t-21.5 144v718h233v-679q0 -109 51.5 -174.5t159.5 -65.5q134 0 198.5 96t64.5 258v565h233v-1085h-233v172q-11 -22 -25 -42.5t-43.5 -49t-64.5 -49.5t-89.5 -36t-117.5 -15zM295 1528h262l123 -285l-180 -2z" />
    <glyph glyph-name="uacute" unicode="&#xfa;" horiz-adv-x="1198" 
d="M496 -20q-94 0 -166.5 32.5t-115 87.5t-64 123t-21.5 144v718h233v-679q0 -109 51.5 -174.5t159.5 -65.5q134 0 198.5 96t64.5 258v565h233v-1085h-233v172q-11 -22 -25 -42.5t-43.5 -49t-64.5 -49.5t-89.5 -36t-117.5 -15zM520 1243l115 301h264l-199 -303z" />
    <glyph glyph-name="ucircumflex" unicode="&#xfb;" horiz-adv-x="1198" 
d="M496 -20q-94 0 -166.5 32.5t-115 87.5t-64 123t-21.5 144v718h233v-679q0 -109 51.5 -174.5t159.5 -65.5q134 0 198.5 96t64.5 258v565h233v-1085h-233v172q-11 -22 -25 -42.5t-43.5 -49t-64.5 -49.5t-89.5 -36t-117.5 -15zM274 1214l230 279h192l232 -279h-197l-131 142
l-131 -142h-195z" />
    <glyph glyph-name="udieresis" unicode="&#xfc;" horiz-adv-x="1198" 
d="M496 -20q-94 0 -166.5 32.5t-115 87.5t-64 123t-21.5 144v718h233v-679q0 -109 51.5 -174.5t159.5 -65.5q134 0 198.5 96t64.5 258v565h233v-1085h-233v172q-11 -22 -25 -42.5t-43.5 -49t-64.5 -49.5t-89.5 -36t-117.5 -15zM250 1397q0 64 43 107.5t110 43.5t110.5 -43.5
t43.5 -107.5q0 -65 -43.5 -108.5t-110.5 -43.5t-110 44t-43 108zM643 1397q0 64 43.5 107.5t110.5 43.5t111 -43.5t44 -107.5q0 -65 -44 -108.5t-111 -43.5t-110.5 44t-43.5 108z" />
    <glyph glyph-name="yacute" unicode="&#xfd;" horiz-adv-x="1183" 
d="M268 -412l207 480l-414 1017h242l297 -755l287 755h235l-610 -1497h-244zM512 1243l115 301h264l-199 -303z" />
    <glyph glyph-name="thorn" unicode="&#xfe;" horiz-adv-x="2650" 
d="M129 -410v1495h233v-151q124 172 361 172q121 0 218.5 -47.5t157.5 -127t92 -179t32 -209.5t-32 -210t-92 -179.5t-157.5 -126.5t-218.5 -47q-233 0 -361 172v-562h-233zM356 543q0 -106 34.5 -192t107 -139.5t172.5 -53.5q150 0 233.5 110.5t83.5 274.5t-83.5 274.5
t-233.5 110.5q-100 0 -172.5 -53.5t-107 -139.5t-34.5 -192zM1454 0v1556h234v-622q124 172 360 172q121 0 218.5 -47.5t157.5 -127t92 -179t32 -209.5t-32 -210t-92 -179.5t-157.5 -126.5t-218.5 -47q-64 0 -120 13.5t-92 30.5t-68.5 44t-47.5 44t-32 40v-152h-234z
M1681 543q0 -106 34.5 -192t107 -139.5t172.5 -53.5q150 0 233.5 110.5t83.5 274.5t-83.5 274.5t-233.5 110.5q-100 0 -172.5 -53.5t-107 -139.5t-34.5 -192z" />
    <glyph glyph-name="ydieresis" unicode="&#xff;" horiz-adv-x="1183" 
d="M268 -412l207 480l-414 1017h242l297 -755l287 755h235l-610 -1497h-244zM242 1397q0 64 43 107.5t110 43.5t110.5 -43.5t43.5 -107.5q0 -65 -43.5 -108.5t-110.5 -43.5t-110 44t-43 108zM635 1397q0 64 43 107.5t110 43.5t111.5 -43.5t44.5 -107.5q0 -65 -44.5 -108.5
t-111.5 -43.5t-110 44t-43 108z" />
    <glyph glyph-name="Amacron" unicode="&#x100;" horiz-adv-x="1542" 
d="M80 0l524 1516h332l526 -1516h-266l-135 412h-594l-137 -412h-250zM451 1704v160h639v-160h-639zM535 614h458l-229 695z" />
    <glyph glyph-name="amacron" unicode="&#x101;" horiz-adv-x="1165" 
d="M483 -20q-167 0 -272 85.5t-105 225.5q0 283 416 350l283 47v23q0 103 -51.5 162t-159.5 59q-61 0 -107 -18.5t-68 -45t-35.5 -53t-15.5 -45.5l-3 -18h-220q0 7 1.5 20t11 49.5t25 70t50 74.5t80 70.5t119 49.5t164.5 20q115 0 201 -31t135.5 -86t73.5 -122.5t24 -147.5
v-719h-225v150q-30 -49 -62 -79q-100 -91 -260 -91zM276 1274v160h639v-160h-639zM332 305q0 -78 59 -120t144 -42q126 0 198 79.5t72 217.5v90l-234 -38q-239 -42 -239 -187z" />
    <glyph glyph-name="Abreve" unicode="&#x102;" horiz-adv-x="1525" 
d="M80 0l524 1516h332l526 -1516h-266l-135 412h-594l-137 -412h-250zM434 1939h158q0 -6 1 -16t10 -35t24.5 -44.5t50 -35.5t80.5 -16q48 0 82.5 15t50.5 37t24.5 43.5t9.5 36.5l1 15h157v-16t-5.5 -39t-16 -55t-34.5 -58t-57 -55t-88 -39t-124 -16q-68 0 -123 15.5
t-87.5 40t-57 54t-34.5 59t-16 54t-6 40.5v15zM535 614h458l-229 695z" />
    <glyph glyph-name="abreve" unicode="&#x103;" horiz-adv-x="1165" 
d="M483 -20q-167 0 -272 85.5t-105 225.5q0 283 416 350l283 47v23q0 103 -51.5 162t-159.5 59q-61 0 -107 -18.5t-68 -45t-35.5 -53t-15.5 -45.5l-3 -18h-220q0 7 1.5 20t11 49.5t25 70t50 74.5t80 70.5t119 49.5t164.5 20q115 0 201 -31t135.5 -86t73.5 -122.5t24 -147.5
v-719h-225v150q-30 -49 -62 -79q-100 -91 -260 -91zM272 1532h152q0 -7 1 -18t10.5 -39.5t25.5 -50.5t51 -40t82 -18q34 0 62 9t45 24t30 32.5t19 35t9.5 32.5t4.5 24v9h154q0 -6 -0.5 -17t-6.5 -42t-17 -59t-35 -62.5t-57 -59.5t-87 -42t-121 -17t-120.5 16.5t-86 43
t-56.5 58t-35 63.5t-17 58.5t-7 43.5v16zM332 305q0 -78 59 -120t144 -42q126 0 198 79.5t72 217.5v90l-234 -38q-239 -42 -239 -187z" />
    <glyph glyph-name="Cacute" unicode="&#x106;" horiz-adv-x="1562" 
d="M846 -20q-148 0 -273.5 43.5t-213.5 118t-149.5 174.5t-90.5 211.5t-29 230.5t29 230.5t90.5 211.5t149.5 174.5t213.5 118t273.5 43.5q101 0 188.5 -19t150.5 -50.5t116 -72.5t87.5 -87t61.5 -91.5t41 -86.5t23 -72.5t12 -50.5l2 -19h-248q-1 7 -3.5 19t-15 47t-30 66.5
t-52 70.5t-78 67t-110.5 47t-147 19q-97 0 -179 -31t-140.5 -84.5t-99.5 -125t-61 -154t-20 -170.5q0 -87 20 -169t61 -154t99.5 -126t140.5 -85t179 -31q63 0 118 11.5t95 31t73.5 44.5t56 53t40 55.5t27.5 52.5t16 44.5t8 30.5l2 12h248q-1 -7 -2.5 -19t-11.5 -49.5
t-23.5 -74t-40.5 -85.5t-61.5 -91.5t-87.5 -86t-116 -74t-150.5 -49.5t-188.5 -19zM760 1673l114 301h265l-199 -303z" />
    <glyph glyph-name="cacute" unicode="&#x107;" horiz-adv-x="1253" 
d="M653 -20q-135 0 -242.5 48t-173.5 128.5t-100.5 179.5t-34.5 207t34.5 207t100.5 179.5t173.5 128.5t242.5 48q129 0 228 -40.5t147.5 -98t79 -115.5t36.5 -98l7 -41h-225q-1 8 -5 22.5t-22.5 50.5t-45 63.5t-79 50t-119.5 22.5q-154 0 -237.5 -108t-83.5 -271t83.5 -271
t237.5 -108q67 0 119 21.5t79.5 52t45 61.5t22.5 53l5 21h225q-1 -8 -3 -22.5t-15 -55t-32.5 -77.5t-58.5 -82.5t-88.5 -78t-128 -55t-172.5 -22.5zM598 1243l115 301h264l-199 -303z" />
    <glyph glyph-name="Cdotaccent" unicode="&#x10a;" horiz-adv-x="1562" 
d="M846 -20q-148 0 -273.5 43.5t-213.5 118t-149.5 174.5t-90.5 211.5t-29 230.5t29 230.5t90.5 211.5t149.5 174.5t213.5 118t273.5 43.5q101 0 188.5 -19t150.5 -50.5t116 -72.5t87.5 -87t61.5 -91.5t41 -86.5t23 -72.5t12 -50.5l2 -19h-248q-1 7 -3.5 19t-15 47t-30 66.5
t-52 70.5t-78 67t-110.5 47t-147 19q-97 0 -179 -31t-140.5 -84.5t-99.5 -125t-61 -154t-20 -170.5q0 -87 20 -169t61 -154t99.5 -126t140.5 -85t179 -31q63 0 118 11.5t95 31t73.5 44.5t56 53t40 55.5t27.5 52.5t16 44.5t8 30.5l2 12h248q-1 -7 -2.5 -19t-11.5 -49.5
t-23.5 -74t-40.5 -85.5t-61.5 -91.5t-87.5 -86t-116 -74t-150.5 -49.5t-188.5 -19zM655 1827q0 65 44 109t112 44q67 0 111.5 -44t44.5 -109t-44.5 -109.5t-111.5 -44.5q-68 0 -112 45t-44 109z" />
    <glyph glyph-name="cdotaccent" unicode="&#x10b;" horiz-adv-x="1253" 
d="M653 -20q-135 0 -242.5 48t-173.5 128.5t-100.5 179.5t-34.5 207t34.5 207t100.5 179.5t173.5 128.5t242.5 48q129 0 228 -40.5t147.5 -98t79 -115.5t36.5 -98l7 -41h-225q-1 8 -5 22.5t-22.5 50.5t-45 63.5t-79 50t-119.5 22.5q-154 0 -237.5 -108t-83.5 -271t83.5 -271
t237.5 -108q67 0 119 21.5t79.5 52t45 61.5t22.5 53l5 21h225q-1 -8 -3 -22.5t-15 -55t-32.5 -77.5t-58.5 -82.5t-88.5 -78t-128 -55t-172.5 -22.5zM494 1397q0 65 43.5 109t111.5 44q67 0 111.5 -44t44.5 -109t-44.5 -109.5t-111.5 -44.5q-68 0 -111.5 45t-43.5 109z" />
    <glyph glyph-name="Ccaron" unicode="&#x10c;" horiz-adv-x="1617" 
d="M846 -20q-148 0 -273.5 43.5t-213.5 118t-149.5 174.5t-90.5 211.5t-29 230.5t29 230.5t90.5 211.5t149.5 174.5t213.5 118t273.5 43.5q101 0 188.5 -19t150.5 -50.5t116 -72.5t87.5 -87t61.5 -91.5t41 -86.5t23 -72.5t12 -50.5l2 -19h-248q-1 7 -3.5 19t-15 47t-30 66.5
t-52 70.5t-78 67t-110.5 47t-147 19q-97 0 -179 -31t-140.5 -84.5t-99.5 -125t-61 -154t-20 -170.5q0 -87 20 -169t61 -154t99.5 -126t140.5 -85t179 -31q63 0 118 11.5t95 31t73.5 44.5t56 53t40 55.5t27.5 52.5t16 44.5t8 30.5l2 12h248q-1 -7 -2.5 -19t-11.5 -49.5
t-23.5 -74t-40.5 -85.5t-61.5 -91.5t-87.5 -86t-116 -74t-150.5 -49.5t-188.5 -19zM522 1952h195l131 -142l131 142h197l-232 -279h-192z" />
    <glyph glyph-name="ccaron" unicode="&#x10d;" horiz-adv-x="1253" 
d="M653 -20q-135 0 -242.5 48t-173.5 128.5t-100.5 179.5t-34.5 207t34.5 207t100.5 179.5t173.5 128.5t242.5 48q129 0 228 -40.5t147.5 -98t79 -115.5t36.5 -98l7 -41h-225q-1 8 -5 22.5t-22.5 50.5t-45 63.5t-79 50t-119.5 22.5q-154 0 -237.5 -108t-83.5 -271t83.5 -271
t237.5 -108q67 0 119 21.5t79.5 52t45 61.5t22.5 53l5 21h225q-1 -8 -3 -22.5t-15 -55t-32.5 -77.5t-58.5 -82.5t-88.5 -78t-128 -55t-172.5 -22.5zM330 1522h194l131 -142l131 142h197l-231 -279h-193z" />
    <glyph glyph-name="Dcaron" unicode="&#x10e;" horiz-adv-x="1529" 
d="M129 0v1516h500q167 0 304 -42.5t229.5 -115t156.5 -170.5t92.5 -205.5t28.5 -224.5t-28.5 -224.5t-92.5 -205.5t-156.5 -170.5t-229.5 -115t-304 -42.5h-500zM362 1952h195l131 -142l131 142h197l-232 -279h-192zM375 207h241q119 0 216 31t162 83.5t109 123.5
t63.5 149.5t19.5 163.5t-19.5 163.5t-63.5 149.5t-109 123.5t-162 83.5t-216 31h-241v-1102z" />
    <glyph glyph-name="dcaron" unicode="&#x10f;" horiz-adv-x="1697" 
d="M602 -20q-121 0 -218.5 47t-157.5 126.5t-92 179.5t-32 210t32 209.5t92 179t157.5 127t218.5 47.5q237 0 361 -172v622h233v-1556h-233v152q-128 -172 -361 -172zM338 543q0 -164 83.5 -274.5t233.5 -110.5q100 0 172.5 53.5t107 139.5t34.5 192t-34.5 192t-107 139.5
t-172.5 53.5q-150 0 -233.5 -110.5t-83.5 -274.5zM1382 1030l23 486h237l-86 -486h-174z" />
    <glyph glyph-name="Dcroat" unicode="&#x110;" horiz-adv-x="1591" 
d="M2 657v201h199v658h499q167 0 304 -42.5t229.5 -115t156.5 -170.5t92.5 -205.5t28.5 -224.5t-28.5 -224.5t-92.5 -205.5t-156.5 -170.5t-229.5 -115t-304 -42.5h-499v657h-199zM446 207h242q119 0 216 31t161.5 83.5t108.5 123.5t63.5 149.5t19.5 163.5t-19.5 163.5
t-63.5 149.5t-108.5 123.5t-161.5 83.5t-216 31h-242v-451h345v-201h-345v-450z" />
    <glyph glyph-name="dcroat" unicode="&#x111;" horiz-adv-x="1333" 
d="M682 1219v165h281v172h233v-172h180v-165h-180v-1219h-233v152q-128 -172 -361 -172q-121 0 -218.5 47t-157.5 126.5t-92 179.5t-32 210t32 209.5t92 179t157.5 127t218.5 47.5q237 0 361 -172v285h-281zM338 543q0 -164 83.5 -274.5t233.5 -110.5q100 0 172.5 53.5
t107 139.5t34.5 192t-34.5 192t-107 139.5t-172.5 53.5q-150 0 -233.5 -110.5t-83.5 -274.5z" />
    <glyph glyph-name="Emacron" unicode="&#x112;" horiz-adv-x="1179" 
d="M129 0v1516h967v-211h-721v-431h637v-208h-637v-455h729v-211h-975zM272 1704v160h639v-160h-639z" />
    <glyph glyph-name="emacron" unicode="&#x113;" horiz-adv-x="1249" 
d="M922 639q-6 136 -85 211.5t-198 75.5q-125 0 -204 -79t-93 -208h580zM102 545q0 84 19.5 163t62.5 152t104 127t151 86.5t198 32.5q177 0 298.5 -81.5t173.5 -222.5t34 -325h-801q11 -146 93 -232.5t222 -86.5q61 0 110.5 16t76.5 38t45 44.5t23 38.5l6 16h219
q-1 -7 -4 -19t-18 -46.5t-35 -65.5t-59.5 -69t-87.5 -65.5t-122.5 -46.5t-161.5 -19q-135 0 -242.5 48.5t-172.5 129.5t-98.5 180t-33.5 207zM319 1272v160h639v-160h-639z" />
    <glyph glyph-name="Edotaccent" unicode="&#x116;" horiz-adv-x="1179" 
d="M129 0v1516h967v-211h-721v-431h637v-208h-637v-455h729v-211h-975zM436 1827q0 65 44 109t112 44q67 0 111.5 -44t44.5 -109t-44.5 -109.5t-111.5 -44.5q-68 0 -112 45t-44 109z" />
    <glyph glyph-name="edotaccent" unicode="&#x117;" horiz-adv-x="1249" 
d="M922 639q-6 136 -85 211.5t-198 75.5q-125 0 -204 -79t-93 -208h580zM102 545q0 84 19.5 163t62.5 152t104 127t151 86.5t198 32.5q177 0 298.5 -81.5t173.5 -222.5t34 -325h-801q11 -146 93 -232.5t222 -86.5q61 0 110.5 16t76.5 38t45 44.5t23 38.5l6 16h219
q-1 -7 -4 -19t-18 -46.5t-35 -65.5t-59.5 -69t-87.5 -65.5t-122.5 -46.5t-161.5 -19q-135 0 -242.5 48.5t-172.5 129.5t-98.5 180t-33.5 207zM483 1395q0 65 44 109t112 44q67 0 111.5 -44t44.5 -109t-44.5 -109.5t-111.5 -44.5q-68 0 -112 45t-44 109z" />
    <glyph glyph-name="Ecaron" unicode="&#x11a;" horiz-adv-x="1179" 
d="M129 0v1516h967v-211h-721v-431h637v-208h-637v-455h729v-211h-975zM264 1952h195l131 -142l131 142h197l-232 -279h-192z" />
    <glyph glyph-name="ecaron" unicode="&#x11b;" horiz-adv-x="1249" 
d="M922 639q-6 136 -85 211.5t-198 75.5q-125 0 -204 -79t-93 -208h580zM102 545q0 84 19.5 163t62.5 152t104 127t151 86.5t198 32.5q177 0 298.5 -81.5t173.5 -222.5t34 -325h-801q11 -146 93 -232.5t222 -86.5q61 0 110.5 16t76.5 38t45 44.5t23 38.5l6 16h219
q-1 -7 -4 -19t-18 -46.5t-35 -65.5t-59.5 -69t-87.5 -65.5t-122.5 -46.5t-161.5 -19q-135 0 -242.5 48.5t-172.5 129.5t-98.5 180t-33.5 207zM311 1520h195l131 -142l131 142h197l-232 -279h-192z" />
    <glyph glyph-name="Gbreve" unicode="&#x11e;" horiz-adv-x="1646" 
d="M862 -20q-152 0 -280 43.5t-217.5 118t-152.5 174t-92.5 211t-29.5 229.5q0 119 29 231t91 212t150 175t214 118.5t276 43.5q97 0 181 -16t145 -43.5t112.5 -63t85 -74.5t59.5 -78.5t40.5 -75t23.5 -63t11 -43.5l3 -16h-251q-1 6 -3.5 15.5t-15 37.5t-29.5 53t-49.5 56
t-73 53.5t-102.5 37.5t-135 15q-100 0 -184 -31.5t-143.5 -85.5t-101 -126.5t-61.5 -155.5t-20 -172q0 -113 33 -214.5t96 -182t164.5 -128t228.5 -47.5q190 0 314.5 111t146.5 305h-481v195h712v-86q0 -180 -55.5 -322t-152 -230.5t-220.5 -134.5t-266 -46zM530 1962h152
q0 -7 1 -18t10.5 -39.5t25.5 -50.5t51 -40t82 -18q34 0 62 9t45 24t30 32.5t19 35t9.5 32.5t4.5 24v9h154q0 -6 -0.5 -17t-6.5 -42t-17 -59t-35 -62.5t-57 -59.5t-87 -42t-121 -17t-120.5 16.5t-86 43t-56.5 58t-35 63.5t-17 58.5t-7 43.5v16z" />
    <glyph glyph-name="gbreve" unicode="&#x11f;" horiz-adv-x="1282" 
d="M653 -444q-99 0 -179.5 20t-131 52t-88.5 71t-56 78t-29 71t-13 52l-2 20h227q1 -8 4.5 -21t22 -46.5t45 -59t79.5 -46.5t121 -21q82 0 141.5 29t92.5 80t48 110.5t15 130.5v129q-12 -19 -26 -37t-44.5 -45.5t-66.5 -47t-92.5 -34t-120.5 -14.5q-97 0 -179 29.5t-140 81
t-99 120.5t-60.5 147t-19.5 162q0 105 32 200.5t92 171.5t157 121.5t217 45.5q64 0 120.5 -14.5t92.5 -34t66.5 -47t44.5 -46t26 -38.5v159h232v-1009q0 -113 -33.5 -207.5t-98.5 -164.5t-166.5 -109t-230.5 -39zM330 1532h151q0 -7 1 -18t10.5 -39.5t25.5 -50.5t51 -40
t82 -18q34 0 62 9t45 24t30 32.5t19 35t9.5 32.5t3.5 24l1 9h154q0 -6 -0.5 -17t-6.5 -42t-17 -59t-35 -62.5t-57 -59.5t-87 -42t-121 -17t-120.5 16.5t-86 43t-56.5 58t-34.5 63.5t-16.5 58.5t-7 43.5v16zM342 567q0 -99 33 -180t104 -132.5t170 -51.5q145 0 225 105
t80 259q0 72 -19.5 136.5t-56.5 115.5t-96 81t-133 30q-98 0 -169.5 -52.5t-104.5 -133t-33 -177.5z" />
    <glyph glyph-name="Gdotaccent" unicode="&#x120;" horiz-adv-x="1619" 
d="M862 -20q-152 0 -280 43.5t-217.5 118t-152.5 174t-92.5 211t-29.5 229.5q0 119 29 231t91 212t150 175t214 118.5t276 43.5q97 0 181 -16t145 -43.5t112.5 -63t85 -74.5t59.5 -78.5t40.5 -75t23.5 -63t11 -43.5l3 -16h-251q-1 6 -3.5 15.5t-15 37.5t-29.5 53t-49.5 56
t-73 53.5t-102.5 37.5t-135 15q-100 0 -184 -31.5t-143.5 -85.5t-101 -126.5t-61.5 -155.5t-20 -172q0 -113 33 -214.5t96 -182t164.5 -128t228.5 -47.5q190 0 314.5 111t146.5 305h-481v195h712v-86q0 -180 -55.5 -322t-152 -230.5t-220.5 -134.5t-266 -46zM680 1827
q0 65 44 109t112 44q67 0 111 -44t44 -109t-44 -109.5t-111 -44.5q-68 0 -112 45t-44 109z" />
    <glyph glyph-name="gdotaccent" unicode="&#x121;" horiz-adv-x="1294" 
d="M653 -444q-99 0 -179.5 20t-131 52t-88.5 71t-56 78t-29 71t-13 52l-2 20h227q1 -8 4.5 -21t22 -46.5t45 -59t79.5 -46.5t121 -21q82 0 141.5 29t92.5 80t48 110.5t15 130.5v129q-12 -19 -26 -37t-44.5 -45.5t-66.5 -47t-92.5 -34t-120.5 -14.5q-97 0 -179 29.5t-140 81
t-99 120.5t-60.5 147t-19.5 162q0 105 32 200.5t92 171.5t157 121.5t217 45.5q64 0 120.5 -14.5t92.5 -34t66.5 -47t44.5 -46t26 -38.5v159h232v-1009q0 -113 -33.5 -207.5t-98.5 -164.5t-166.5 -109t-230.5 -39zM342 567q0 -99 33 -180t104 -132.5t170 -51.5q145 0 225 105
t80 259q0 72 -19.5 136.5t-56.5 115.5t-96 81t-133 30q-98 0 -169.5 -52.5t-104.5 -133t-33 -177.5zM496 1397q0 65 43.5 109t111.5 44q67 0 111.5 -44t44.5 -109t-44.5 -109.5t-111.5 -44.5q-68 0 -111.5 45t-43.5 109z" />
    <glyph glyph-name="uni0122" unicode="&#x122;" horiz-adv-x="1646" 
d="M862 -20q-152 0 -280 43.5t-217.5 118t-152.5 174t-92.5 211t-29.5 229.5q0 119 29 231t91 212t150 175t214 118.5t276 43.5q97 0 181 -16t145 -43.5t112.5 -63t85 -74.5t59.5 -78.5t40.5 -75t23.5 -63t11 -43.5l3 -16h-251q-1 6 -3.5 15.5t-15 37.5t-29.5 53t-49.5 56
t-73 53.5t-102.5 37.5t-135 15q-100 0 -184 -31.5t-143.5 -85.5t-101 -126.5t-61.5 -155.5t-20 -172q0 -113 33 -214.5t96 -182t164.5 -128t228.5 -47.5q190 0 314.5 111t146.5 305h-481v195h659q38 20 76 20q63 0 104 -38t41 -103q0 -57 -35 -122t-120 -185l-15 -21h-71
q-84 -182 -249 -276t-372 -94zM1532 487l33 56q-7 0 -23 4q-3 -27 -10 -60z" />
    <glyph glyph-name="uni0123" unicode="&#x123;" horiz-adv-x="1282" 
d="M653 -444q-99 0 -179.5 20t-131 52t-88.5 71t-56 78t-29 71t-13 52l-2 20h227q1 -8 4.5 -21t22 -46.5t45 -59t79.5 -46.5t121 -21q82 0 141.5 29t92.5 80t48 110.5t15 130.5v129q-12 -19 -26 -37t-44.5 -45.5t-66.5 -47t-92.5 -34t-120.5 -14.5q-97 0 -179 29.5t-140 81
t-99 120.5t-60.5 147t-19.5 162q0 105 32 200.5t92 171.5t157 121.5t217 45.5q64 0 120.5 -14.5t92.5 -34t66.5 -47t44.5 -46t26 -38.5v159h232v-1009q0 -113 -33.5 -207.5t-98.5 -164.5t-166.5 -109t-230.5 -39zM342 567q0 -99 33 -180t104 -132.5t170 -51.5q145 0 225 105
t80 259q0 72 -19.5 136.5t-56.5 115.5t-96 81t-133 30q-98 0 -169.5 -52.5t-104.5 -133t-33 -177.5zM510 1370q0 57 35 121.5t121 185.5l14 21h106l-116 -193q55 -3 91 -42t36 -97q0 -60 -41.5 -98.5t-100.5 -38.5q-63 0 -104 38t-41 103z" />
    <glyph glyph-name="Hbar" unicode="&#x126;" horiz-adv-x="1531" 
d="M23 1165v197h139v154h246v-154h712v154h246v-154h143v-197h-143v-1165h-246v668h-712v-668h-246v1165h-139zM408 883h712v282h-712v-282z" />
    <glyph glyph-name="hbar" unicode="&#x127;" horiz-adv-x="1230" 
d="M2 1194v172h152v190h233v-190h307v-172h-307v-270q117 182 342 182q191 0 287 -115.5t96 -302.5v-688h-233v657q0 261 -222 261q-138 0 -204 -96.5t-66 -258.5v-563h-233v1194h-152z" />
    <glyph glyph-name="Itilde" unicode="&#x128;" horiz-adv-x="503" 
d="M129 0v1516h246v-1516h-246zM-84 1692q0 54 8.5 99t29 85t59 63t93.5 23q51 0 95 -19.5t69.5 -43t54.5 -43t54 -19.5q60 0 63 115h142q0 -54 -9 -99.5t-29 -86t-59 -64t-94 -23.5q-41 0 -76.5 13.5t-60 32.5t-46 37.5t-43.5 32t-44 13.5q-63 0 -66 -116h-141z" />
    <glyph glyph-name="itilde" unicode="&#x129;" horiz-adv-x="487" 
d="M119 0v1085h233v-1085h-233zM-90 1262q0 54 8.5 99t29 85t59 63t93.5 23q51 0 95 -19.5t69.5 -43t54.5 -43t54 -19.5q60 0 63 115h142q0 -54 -9 -99.5t-29 -86t-59 -64t-94 -23.5q-41 0 -76.5 13.5t-60 32.5t-46 37.5t-43.5 32t-44 13.5q-63 0 -66 -116h-141z" />
    <glyph glyph-name="Imacron" unicode="&#x12a;" horiz-adv-x="503" 
d="M129 0v1516h246v-1516h-246zM-70 1704v160h639v-160h-639z" />
    <glyph glyph-name="imacron" unicode="&#x12b;" horiz-adv-x="565" 
d="M119 0v1085h233v-1085h-233zM-39 1274v160h639v-160h-639z" />
    <glyph glyph-name="Idotaccent" unicode="&#x130;" horiz-adv-x="503" 
d="M129 0v1516h246v-1516h-246zM94 1827q0 65 44 109t112 44q67 0 111.5 -44t44.5 -109t-44.5 -109.5t-111.5 -44.5q-68 0 -112 45t-44 109z" />
    <glyph glyph-name="dotlessi" unicode="&#x131;" horiz-adv-x="471" 
d="M119 0v1085h233v-1085h-233z" />
    <glyph glyph-name="uni0136" unicode="&#x136;" horiz-adv-x="1404" 
d="M1022 0l-647 727v-727h-246v1516h246v-693l629 690h305l-686 -727l714 -786h-315zM1290 682q0 60 41.5 98.5t100.5 38.5q63 0 104 -38t41 -103q0 -57 -35 -121.5t-121 -185.5l-14 -21h-107l117 193q-55 3 -91 42t-36 97z" />
    <glyph glyph-name="uni0137" unicode="&#x137;" horiz-adv-x="1153" 
d="M803 0l-441 557v-557h-233v1556h233v-942l429 471h288l-479 -493l492 -592h-289zM1151 682q0 60 41.5 98.5t99.5 38.5q63 0 104.5 -38.5t41.5 -102.5q0 -57 -35 -121.5t-121 -185.5l-14 -21h-107l117 193q-55 3 -91 42t-36 97z" />
    <glyph glyph-name="Lacute" unicode="&#x139;" horiz-adv-x="1239" 
d="M129 0v1516h246v-1305h725v-211h-971zM244 1673l114 301h265l-199 -303z" />
    <glyph glyph-name="lacute" unicode="&#x13a;" horiz-adv-x="491" 
d="M129 0l2 1556h231v-1556h-233zM88 1718l115 301h264l-199 -303z" />
    <glyph glyph-name="uni013B" unicode="&#x13b;" horiz-adv-x="1200" 
d="M129 0v1516h246v-1305h725v-211h-971zM1260 682q0 60 41.5 98.5t99.5 38.5q63 0 104 -38t41 -103q0 -57 -35 -122t-120 -185l-15 -21h-106l116 193q-54 3 -90 42t-36 97z" />
    <glyph glyph-name="uni013C" unicode="&#x13c;" horiz-adv-x="491" 
d="M129 0l2 1556h231v-1556h-233zM836 682q0 60 41.5 98.5t99.5 38.5q63 0 104 -38t41 -103q0 -57 -35 -122t-120 -185l-15 -21h-106l117 193q-55 3 -91 42t-36 97z" />
    <glyph glyph-name="Lcaron" unicode="&#x13d;" horiz-adv-x="1175" 
d="M129 0v1516h246v-1305h725v-211h-971zM-23 1952h195l131 -142l131 142h197l-232 -279h-192z" />
    <glyph glyph-name="lcaron" unicode="&#x13e;" horiz-adv-x="864" 
d="M129 0l2 1556h231v-1556h-233zM549 1030l22 486h238l-86 -486h-174z" />
    <glyph glyph-name="Lslash" unicode="&#x141;" horiz-adv-x="1161" 
d="M-16 584v190l143 47v695h246v-611l362 121v-188l-362 -123v-504h725v-211h-971v633z" />
    <glyph glyph-name="lslash" unicode="&#x142;" horiz-adv-x="796" 
d="M23 580v188l200 68v720h232v-643l319 107v-189l-319 -106v-725h-234v647z" />
    <glyph glyph-name="Nacute" unicode="&#x143;" horiz-adv-x="1486" 
d="M129 0v1516h277l714 -1151v1151h238v-1516h-277l-712 1151v-1151h-240zM571 1673l115 301h264l-198 -303z" />
    <glyph glyph-name="nacute" unicode="&#x144;" horiz-adv-x="1193" 
d="M129 0v1085h233v-161q13 19 26.5 36.5t44.5 46.5t66 49t90 35t116 15q97 0 171.5 -32t120 -89t68 -132t22.5 -165v-688h-233v657q0 261 -221 261q-138 0 -204.5 -96.5t-66.5 -258.5v-563h-233zM442 1243l115 301h264l-198 -303z" />
    <glyph glyph-name="uni0145" unicode="&#x145;" horiz-adv-x="1486" 
d="M129 0v1516h277l714 -1151v1151h238v-740q43 43 104 43q63 0 104.5 -38.5t41.5 -102.5q0 -57 -35 -121.5t-121 -185.5l-14 -21h-80v-350h-277l-712 1151v-1151h-240zM1358 393l90 150q-53 3 -90 43v-193z" />
    <glyph glyph-name="uni0146" unicode="&#x146;" horiz-adv-x="1216" 
d="M129 0v1085h233v-161q13 19 26.5 36.5t44.5 46.5t66 49t90 35t116 15q97 0 171.5 -32t120 -89t68 -132t22.5 -165v-688h-233v657q0 261 -221 261q-138 0 -204.5 -96.5t-66.5 -258.5v-563h-233zM1202 682q0 60 41.5 98.5t99.5 38.5q63 0 104.5 -38.5t41.5 -102.5
q0 -57 -35 -121.5t-121 -185.5l-14 -21h-107l117 193q-55 3 -91 42t-36 97z" />
    <glyph glyph-name="Ncaron" unicode="&#x147;" horiz-adv-x="1486" 
d="M129 0v1516h277l714 -1151v1151h238v-1516h-277l-712 1151v-1151h-240zM403 1952h195l131 -142l131 142h197l-232 -279h-192z" />
    <glyph glyph-name="ncaron" unicode="&#x148;" horiz-adv-x="1216" 
d="M129 0v1085h233v-161q13 19 26.5 36.5t44.5 46.5t66 49t90 35t116 15q97 0 171.5 -32t120 -89t68 -132t22.5 -165v-688h-233v657q0 261 -221 261q-138 0 -204.5 -96.5t-66.5 -258.5v-563h-233zM285 1522h194l131 -142l131 142h197l-231 -279h-193z" />
    <glyph glyph-name="Omacron" unicode="&#x14c;" horiz-adv-x="1705" 
d="M852 -20q-146 0 -271 43.5t-214 118.5t-152.5 174.5t-94 212t-30.5 231.5q0 117 30.5 229t94 211.5t152.5 174t214 118t271 43.5t271.5 -43t215 -117.5t153 -173.5t94 -211.5t30.5 -230.5q0 -120 -30.5 -233t-94 -212.5t-153 -174t-215 -117.5t-271.5 -43zM346 760
q0 -110 34 -211t96 -179.5t160 -125.5t216 -47q119 0 217 46.5t161 124.5t97.5 179t34.5 213q0 110 -34.5 210t-97.5 178t-161 124.5t-217 46.5q-118 0 -216 -47t-160 -125.5t-96 -178t-34 -208.5zM532 1724v160h639v-160h-639z" />
    <glyph glyph-name="omacron" unicode="&#x14d;" horiz-adv-x="1316" 
d="M657 -20q-130 0 -236.5 45t-175 122.5t-106 179t-37.5 216.5t37.5 216.5t106 179t175 122.5t236.5 45q131 0 237.5 -45t175.5 -122.5t106.5 -179t37.5 -216.5t-37.5 -216.5t-106.5 -179t-175.5 -122.5t-237.5 -45zM338 1274v160h639v-160h-639zM340 543q0 -161 85 -268
t232 -107q148 0 234 107t86 268t-86 268t-234 107q-147 0 -232 -107t-85 -268z" />
    <glyph glyph-name="Ohungarumlaut" unicode="&#x150;" horiz-adv-x="1705" 
d="M852 -20q-146 0 -271 43.5t-214 118.5t-152.5 174.5t-94 212t-30.5 231.5q0 117 30.5 229t94 211.5t152.5 174t214 118t271 43.5t271.5 -43t215 -117.5t153 -173.5t94 -211.5t30.5 -230.5q0 -120 -30.5 -233t-94 -212.5t-153 -174t-215 -117.5t-271.5 -43zM346 760
q0 -110 34 -211t96 -179.5t160 -125.5t216 -47q119 0 217 46.5t161 124.5t97.5 179t34.5 213q0 110 -34.5 210t-97.5 178t-161 124.5t-217 46.5q-118 0 -216 -47t-160 -125.5t-96 -178t-34 -208.5zM584 1698l94 368h227l-139 -370zM932 1698l94 368h225l-137 -370z" />
    <glyph glyph-name="ohungarumlaut" unicode="&#x151;" horiz-adv-x="1316" 
d="M657 -20q-130 0 -236.5 45t-175 122.5t-106 179t-37.5 216.5t37.5 216.5t106 179t175 122.5t236.5 45q131 0 237.5 -45t175.5 -122.5t106.5 -179t37.5 -216.5t-37.5 -216.5t-106.5 -179t-175.5 -122.5t-237.5 -45zM340 543q0 -161 85 -268t232 -107q148 0 234 107t86 268
t-86 268t-234 107q-147 0 -232 -107t-85 -268zM389 1247l94 369h228l-140 -371zM737 1247l94 369h226l-137 -371z" />
    <glyph glyph-name="OE" unicode="&#x152;" horiz-adv-x="2027" 
d="M1933 1516v-209h-733v-433h639v-206h-639v-459h744v-209h-1072q-155 0 -284.5 42.5t-218.5 115t-151 170t-91 206t-29 224.5t29 224.5t91 206t151 170t218.5 115t284.5 42.5h1061zM338 758q0 -84 19.5 -162.5t62.5 -149t105 -123t153 -83.5t201 -31h82v1096h-82
q-110 0 -201 -31t-153 -83t-105 -123t-62.5 -149t-19.5 -161z" />
    <glyph glyph-name="oe" unicode="&#x153;" horiz-adv-x="2041" 
d="M635 -20q-127 0 -232 47t-171.5 125.5t-103 179.5t-36.5 211t36.5 211t103 179.5t171.5 125.5t232 47q283 0 422 -223q135 223 405 223q222 0 355 -147t133 -420v-64h-770q8 -131 86 -218t207 -87q57 0 103.5 17t72.5 41.5t43.5 49t23.5 41.5l6 17h217q-1 -7 -4 -20
t-17 -50t-33.5 -70.5t-57 -74.5t-83.5 -70.5t-117 -50t-154 -20.5q-279 0 -414 223q-142 -223 -424 -223zM326 543q0 -97 34.5 -179t106 -134t168.5 -52t168.5 52t106 134t34.5 179q0 151 -82.5 257.5t-226.5 106.5t-226.5 -106.5t-82.5 -257.5zM1182 643h542
q-7 134 -80.5 204.5t-181.5 70.5q-117 0 -192.5 -74.5t-87.5 -200.5z" />
    <glyph glyph-name="Racute" unicode="&#x154;" horiz-adv-x="1368" 
d="M129 0v1516h543q111 0 200 -25.5t147.5 -68t97.5 -100.5t56 -121.5t17 -133.5q0 -145 -76.5 -258t-236.5 -158l419 -651h-286l-379 625h-256v-625h-246zM375 813h287q75 0 131 21.5t87 58t45.5 78.5t14.5 90q0 50 -14.5 92.5t-45.5 79t-87 57.5t-131 21h-287v-498z
M535 1673l114 301h264l-198 -303z" />
    <glyph glyph-name="racute" unicode="&#x155;" horiz-adv-x="800" 
d="M129 0v1085h231v-163q44 83 111 133.5t176 50.5q18 0 35.5 -2t25.5 -4l9 -2v-213q-33 6 -74 6q-140 0 -211.5 -75.5t-71.5 -258.5v-557h-231zM238 1243l114 301h264l-198 -303z" />
    <glyph glyph-name="uni0156" unicode="&#x156;" horiz-adv-x="1388" 
d="M129 0v1516h543q111 0 200 -25.5t147.5 -68t97.5 -100.5t56 -121.5t17 -133.5q0 -145 -76.5 -258t-236.5 -158l419 -651h-286l-379 625h-256v-625h-246zM375 813h287q75 0 131 21.5t87 58t45.5 78.5t14.5 90q0 50 -14.5 92.5t-45.5 79t-87 57.5t-131 21h-287v-498z
M1198 682q0 60 41.5 98.5t99.5 38.5q63 0 104.5 -38.5t41.5 -102.5q0 -57 -35 -121.5t-121 -185.5l-14 -21h-107l117 193q-55 3 -91 42t-36 97z" />
    <glyph glyph-name="uni0157" unicode="&#x157;" horiz-adv-x="792" 
d="M129 0v1085h231v-163q44 83 111 133.5t176 50.5q18 0 35.5 -2t25.5 -4l9 -2v-213q-33 6 -74 6q-140 0 -211.5 -75.5t-71.5 -258.5v-557h-231zM825 682q0 60 41.5 98.5t100.5 38.5q63 0 104 -38t41 -103q0 -57 -35 -121.5t-121 -185.5l-14 -21h-106l116 193q-55 3 -91 42
t-36 97z" />
    <glyph glyph-name="Rcaron" unicode="&#x158;" horiz-adv-x="1359" 
d="M129 0v1516h543q111 0 200 -25.5t147.5 -68t97.5 -100.5t56 -121.5t17 -133.5q0 -145 -76.5 -258t-236.5 -158l419 -651h-286l-379 625h-256v-625h-246zM268 1952h195l131 -142l131 142h197l-232 -279h-192zM375 813h287q75 0 131 21.5t87 58t45.5 78.5t14.5 90
q0 50 -14.5 92.5t-45.5 79t-87 57.5t-131 21h-287v-498z" />
    <glyph glyph-name="rcaron" unicode="&#x159;" horiz-adv-x="792" 
d="M129 0v1085h231v-163q44 83 111 133.5t176 50.5q18 0 35.5 -2t25.5 -4l9 -2v-213q-33 6 -74 6q-140 0 -211.5 -75.5t-71.5 -258.5v-557h-231zM70 1522h194l131 -142l131 142h197l-231 -279h-193z" />
    <glyph glyph-name="Sacute" unicode="&#x15a;" horiz-adv-x="1341" 
d="M692 -18q-101 0 -187 18t-145.5 48t-107.5 69.5t-77 83t-50 87t-30 83t-14 69.5t-5 48v18h248q0 -7 0.5 -18.5t6.5 -46t18 -65.5t39.5 -68.5t64.5 -65t99.5 -46t139.5 -18.5q146 0 233 71.5t87 178.5q0 86 -65 139t-195 80l-183 35q-222 43 -332 144t-110 266
q0 193 150 319.5t391 126.5q91 0 168.5 -16t131.5 -43t98 -62t70.5 -74t46 -77.5t28.5 -73.5t14 -62t5 -43l1 -16h-242q0 6 -0.5 15.5t-6.5 37.5t-17 53.5t-35 56.5t-56.5 53.5t-86 38t-119.5 15.5q-140 0 -219.5 -68.5t-79.5 -164.5q0 -83 60 -134.5t192 -78.5l184 -35
q226 -45 338 -148.5t112 -271.5q0 -94 -37.5 -176.5t-107.5 -145.5t-178 -99.5t-240 -36.5zM674 1673l114 301h265l-199 -303z" />
    <glyph glyph-name="sacute" unicode="&#x15b;" horiz-adv-x="1048" 
d="M549 -20q-99 0 -179.5 21t-129.5 54t-85 73.5t-52.5 81t-25.5 73.5t-10 54l-1 21h227q0 -8 2 -22t16.5 -49.5t39 -62.5t77 -49.5t123.5 -22.5q99 0 153 43.5t54 109.5q0 55 -39 84t-127 51l-146 33q-342 73 -342 299q0 143 115.5 238.5t300.5 95.5q89 0 162 -19t118 -49
t78.5 -66.5t49.5 -73t25 -66.5t11 -49l1 -19h-217q0 4 -0.5 10t-5 24.5t-12 35t-24 37t-39 35t-58.5 24.5t-81 10q-93 0 -144.5 -41.5t-51.5 -101.5q0 -49 38.5 -79.5t123.5 -49.5l137 -31q175 -38 265.5 -113.5t90.5 -199.5q0 -145 -119.5 -244.5t-318.5 -99.5zM416 1243
l114 301h265l-199 -303z" />
    <glyph glyph-name="Scedilla" unicode="&#x15e;" horiz-adv-x="1331" 
d="M616 -563q-31 0 -69 3.5t-60 7.5l-22 3v133q84 -12 141 -12q80 0 115 29t35 69q0 35 -26.5 58.5t-74.5 23.5q-29 0 -57.5 -10t-42.5 -20l-14 -9l-86 86l118 189q-82 10 -151.5 34t-117.5 56t-86.5 71t-62 80t-40 81t-24 75.5t-11.5 62.5t-4 42v16h248q0 -7 0.5 -18.5
t6.5 -46t18 -65.5t39.5 -68.5t64.5 -65t99.5 -46t139.5 -18.5q146 0 233 71.5t87 178.5q0 86 -65 139t-195 80l-183 35q-222 43 -332 144t-110 266q0 193 150 319.5t391 126.5q91 0 168.5 -16t131.5 -43t98 -62t70.5 -74t46 -77.5t28.5 -73.5t14 -62t5 -43l1 -16h-242
q0 6 -0.5 15.5t-6.5 37.5t-17 53.5t-35 56.5t-56.5 53.5t-86 38t-119.5 15.5q-140 0 -219.5 -68.5t-79.5 -164.5q0 -83 60 -134.5t192 -78.5l184 -35q226 -45 338 -148.5t112 -271.5q0 -188 -141.5 -318.5t-388.5 -139.5l-74 -115q21 6 54 6q93 0 148.5 -59t55.5 -144
q0 -44 -17 -84.5t-51 -74.5t-92 -54t-133 -20z" />
    <glyph glyph-name="scedilla" unicode="&#x15f;" horiz-adv-x="1075" 
d="M489 -563q-31 0 -69 3.5t-60 7.5l-22 3v133q84 -12 141 -12q80 0 115 29t35 69q0 35 -26.5 58.5t-74.5 23.5q-29 0 -57.5 -10t-42.5 -20l-14 -9l-86 86l118 187q-79 10 -142 36t-102 59.5t-67 71.5t-41 74t-20 65.5t-8 47.5v18h227q0 -8 2 -22t16.5 -49.5t39 -62.5
t77 -49.5t123.5 -22.5q99 0 153 43.5t54 109.5q0 55 -39 84t-127 51l-146 33q-342 73 -342 299q0 143 115.5 238.5t300.5 95.5q89 0 162 -19t118 -49t78.5 -66.5t49.5 -73t25 -66.5t11 -49l1 -19h-217q0 4 -0.5 10t-5 24.5t-12 35t-24 37t-39 35t-58.5 24.5t-81 10
q-93 0 -144.5 -41.5t-51.5 -101.5q0 -49 38.5 -79.5t123.5 -49.5l137 -31q175 -38 265.5 -113.5t90.5 -199.5q0 -135 -105 -232.5t-284 -109.5l-74 -115q21 6 54 6q93 0 148.5 -59t55.5 -144q0 -44 -17 -84.5t-51 -74.5t-92 -54t-133 -20z" />
    <glyph glyph-name="Scaron" unicode="&#x160;" horiz-adv-x="1331" 
d="M692 -18q-101 0 -187 18t-145.5 48t-107.5 69.5t-77 83t-50 87t-30 83t-14 69.5t-5 48v18h248q0 -7 0.5 -18.5t6.5 -46t18 -65.5t39.5 -68.5t64.5 -65t99.5 -46t139.5 -18.5q146 0 233 71.5t87 178.5q0 86 -65 139t-195 80l-183 35q-222 43 -332 144t-110 266
q0 193 150 319.5t391 126.5q91 0 168.5 -16t131.5 -43t98 -62t70.5 -74t46 -77.5t28.5 -73.5t14 -62t5 -43l1 -16h-242q0 6 -0.5 15.5t-6.5 37.5t-17 53.5t-35 56.5t-56.5 53.5t-86 38t-119.5 15.5q-140 0 -219.5 -68.5t-79.5 -164.5q0 -83 60 -134.5t192 -78.5l184 -35
q226 -45 338 -148.5t112 -271.5q0 -94 -37.5 -176.5t-107.5 -145.5t-178 -99.5t-240 -36.5zM340 1952h195l131 -142l131 142h196l-231 -279h-193z" />
    <glyph glyph-name="scaron" unicode="&#x161;" horiz-adv-x="1075" 
d="M549 -20q-99 0 -179.5 21t-129.5 54t-85 73.5t-52.5 81t-25.5 73.5t-10 54l-1 21h227q0 -8 2 -22t16.5 -49.5t39 -62.5t77 -49.5t123.5 -22.5q99 0 153 43.5t54 109.5q0 55 -39 84t-127 51l-146 33q-342 73 -342 299q0 143 115.5 238.5t300.5 95.5q89 0 162 -19t118 -49
t78.5 -66.5t49.5 -73t25 -66.5t11 -49l1 -19h-168l-113 -139q149 -41 226 -114t77 -187q0 -145 -119.5 -244.5t-318.5 -99.5zM338 834h61l131 -140l134 140h67q-54 106 -203 106q-78 0 -127 -29.5t-63 -76.5z" />
    <glyph glyph-name="uni0162" unicode="&#x162;" horiz-adv-x="1265" 
d="M510 0v1307h-436v209h1118v-209h-436v-1307h-51l-87 -133q21 6 54 6q94 0 149.5 -59t55.5 -144q0 -44 -17 -84.5t-51 -74.5t-92 -54t-133 -20q-31 0 -69 3.5t-61 7.5l-22 3v133q84 -12 141 -12q80 0 115 29t35 69q0 35 -26 58.5t-74 23.5q-29 0 -58 -10t-43 -20l-14 -9
l-86 86l127 201h-39z" />
    <glyph glyph-name="uni0163" unicode="&#x163;" horiz-adv-x="821" 
d="M575 -20h-12l-74 -113q21 6 54 6q94 0 149.5 -59t55.5 -144q0 -44 -17 -84.5t-51 -74.5t-92 -54t-133 -20q-31 0 -69 3.5t-60 7.5l-23 3v133q84 -12 141 -12q80 0 115 29t35 69q0 35 -26 58.5t-74 23.5q-29 0 -58 -10t-43 -20l-14 -9l-86 86l127 201h14q-201 65 -201 336
v557h-170v192h170v269h228v-269h278v-192h-278v-541q0 -176 168 -176q28 0 57.5 8t45.5 16l16 9v-199q-58 -30 -173 -30z" />
    <glyph glyph-name="Tcaron" unicode="&#x164;" horiz-adv-x="1265" 
d="M510 0v1307h-436v209h1118v-209h-436v-1307h-246zM305 1952h195l131 -142l131 142h196l-231 -279h-192z" />
    <glyph glyph-name="tcaron" unicode="&#x165;" horiz-adv-x="1193" 
d="M575 -20q-179 0 -260.5 95.5t-81.5 260.5v557h-170v192h170v269h228v-269h278v-192h-278v-541q0 -176 168 -176q28 0 57.5 8t45.5 16l16 9v-199q-58 -30 -173 -30zM879 1030l22 486h238l-86 -486h-174z" />
    <glyph glyph-name="Tbar" unicode="&#x166;" horiz-adv-x="1251" 
d="M168 662v192h342v453h-436v209h1118v-209h-436v-453h430v-192h-430v-662h-246v662h-342z" />
    <glyph glyph-name="tbar" unicode="&#x167;" horiz-adv-x="856" 
d="M96 532v189h137v172h-170v192h170v269h228v-269h278v-192h-278v-172h223v-189h-223v-180q0 -176 168 -176q28 0 57.5 8t45.5 16l16 9v-199q-58 -30 -173 -30q-179 0 -260.5 95.5t-81.5 260.5v196h-137z" />
    <glyph glyph-name="Utilde" unicode="&#x168;" horiz-adv-x="1400" 
d="M725 -20q-131 0 -240 37.5t-188.5 109.5t-123.5 182.5t-44 249.5v957h246v-953q0 -170 89.5 -273.5t260.5 -103.5q172 0 262 103.5t90 273.5v953h246v-957q0 -277 -164 -428t-434 -151zM358 1692q0 54 9 99t29 85t59 63t94 23q51 0 95 -19.5t69 -43t54 -43t54 -19.5
q61 0 64 115h141q0 -54 -8.5 -99.5t-29 -86.5t-59 -64t-93.5 -23q-50 0 -93 20t-68 44.5t-54.5 44.5t-55.5 20q-62 0 -65 -116h-142z" />
    <glyph glyph-name="utilde" unicode="&#x169;" horiz-adv-x="1198" 
d="M496 -20q-94 0 -166.5 32.5t-115 87.5t-64 123t-21.5 144v718h233v-679q0 -109 51.5 -174.5t159.5 -65.5q134 0 198.5 96t64.5 258v565h233v-1085h-233v172q-11 -22 -25 -42.5t-43.5 -49t-64.5 -49.5t-89.5 -36t-117.5 -15zM266 1262q0 54 9 99t29 85t59 63t94 23
q51 0 95 -19.5t69 -43t54 -43t54 -19.5q61 0 64 115h141q0 -54 -9 -99.5t-29 -86t-59 -64t-94 -23.5q-41 0 -76.5 13.5t-60 32.5t-46 37.5t-43.5 32t-44 13.5q-62 0 -65 -116h-142z" />
    <glyph glyph-name="Umacron" unicode="&#x16a;" horiz-adv-x="1400" 
d="M725 -20q-131 0 -240 37.5t-188.5 109.5t-123.5 182.5t-44 249.5v957h246v-953q0 -170 89.5 -273.5t260.5 -103.5q172 0 262 103.5t90 273.5v953h246v-957q0 -277 -164 -428t-434 -151zM373 1704v160h639v-160h-639z" />
    <glyph glyph-name="umacron" unicode="&#x16b;" horiz-adv-x="1198" 
d="M496 -20q-94 0 -166.5 32.5t-115 87.5t-64 123t-21.5 144v718h233v-679q0 -109 51.5 -174.5t159.5 -65.5q134 0 198.5 96t64.5 258v565h233v-1085h-233v172q-11 -22 -25 -42.5t-43.5 -49t-64.5 -49.5t-89.5 -36t-117.5 -15zM281 1274v160h639v-160h-639z" />
    <glyph glyph-name="Uring" unicode="&#x16e;" horiz-adv-x="1400" 
d="M725 -20q-131 0 -240 37.5t-188.5 109.5t-123.5 182.5t-44 249.5v957h246v-953q0 -170 89.5 -273.5t260.5 -103.5q172 0 262 103.5t90 273.5v953h246v-957q0 -277 -164 -428t-434 -151zM424 1921q0 110 79 188t189 78q111 0 190 -78t79 -188q0 -112 -79 -190t-190 -78
t-189.5 78t-78.5 190zM571 1921q0 -49 35.5 -84t85.5 -35t85.5 35t35.5 84t-35.5 84t-85.5 35t-85.5 -35t-35.5 -84z" />
    <glyph glyph-name="uring" unicode="&#x16f;" horiz-adv-x="1198" 
d="M496 -20q-94 0 -166.5 32.5t-115 87.5t-64 123t-21.5 144v718h233v-679q0 -109 51.5 -174.5t159.5 -65.5q134 0 198.5 96t64.5 258v565h233v-1085h-233v172q-11 -22 -25 -42.5t-43.5 -49t-64.5 -49.5t-89.5 -36t-117.5 -15zM332 1491q0 110 79 188t189 78t189 -78
t79 -188q0 -112 -78.5 -190t-189.5 -78t-189.5 78t-78.5 190zM479 1491q0 -49 35.5 -84t85.5 -35t85.5 35t35.5 84t-35.5 84t-85.5 35t-85.5 -35t-35.5 -84z" />
    <glyph glyph-name="Uhungarumlaut" unicode="&#x170;" horiz-adv-x="1452" 
d="M725 -20q-131 0 -240 37.5t-188.5 109.5t-123.5 182.5t-44 249.5v957h246v-953q0 -170 89.5 -273.5t260.5 -103.5q172 0 262 103.5t90 273.5v953h246v-957q0 -277 -164 -428t-434 -151zM451 1677l94 369h227l-139 -371zM799 1677l94 369h225l-137 -371z" />
    <glyph glyph-name="uhungarumlaut" unicode="&#x171;" horiz-adv-x="1198" 
d="M496 -20q-94 0 -166.5 32.5t-115 87.5t-64 123t-21.5 144v718h233v-679q0 -109 51.5 -174.5t159.5 -65.5q134 0 198.5 96t64.5 258v565h233v-1085h-233v172q-11 -22 -25 -42.5t-43.5 -49t-64.5 -49.5t-89.5 -36t-117.5 -15zM332 1247l94 369h227l-139 -371zM680 1247
l94 369h225l-137 -371z" />
    <glyph glyph-name="Wcircumflex" unicode="&#x174;" horiz-adv-x="2041" 
d="M451 0l-398 1516h252l293 -1178l309 1178h232l309 -1178l293 1178h248l-398 -1516h-280l-291 1110l-291 -1110h-278zM696 1645l230 278h192l232 -278h-197l-131 141l-131 -141h-195z" />
    <glyph glyph-name="wcircumflex" unicode="&#x175;" horiz-adv-x="1802" 
d="M422 0l-342 1085h233l242 -815l250 815h199l247 -815l242 815h229l-344 -1085h-243l-236 778l-235 -778h-242zM555 1214l229 279h193l231 -279h-196l-131 142l-131 -142h-195z" />
    <glyph glyph-name="Ycircumflex" unicode="&#x176;" horiz-adv-x="1390" 
d="M573 0v590l-528 926h274l386 -707l382 707h259l-529 -926v-590h-244zM375 1640l229 279h193l231 -279h-197l-131 142l-131 -142h-194z" />
    <glyph glyph-name="ycircumflex" unicode="&#x177;" horiz-adv-x="1183" 
d="M268 -412l207 480l-414 1017h242l297 -755l287 755h235l-610 -1497h-244zM266 1214l230 279h192l232 -279h-197l-131 142l-131 -142h-195z" />
    <glyph glyph-name="Ydieresis" unicode="&#x178;" horiz-adv-x="1390" 
d="M573 0v590l-528 926h274l386 -707l382 707h259l-529 -926v-590h-244zM350 1823q0 64 43.5 107.5t110.5 43.5t110 -43.5t43 -107.5q0 -65 -43 -108.5t-110 -43.5t-110.5 44t-43.5 108zM743 1823q0 64 43.5 107.5t110.5 43.5t111.5 -43.5t44.5 -107.5q0 -65 -44.5 -108.5
t-111.5 -43.5t-110.5 44t-43.5 108z" />
    <glyph glyph-name="Zacute" unicode="&#x179;" horiz-adv-x="1296" 
d="M90 0v203l821 1100h-821v213h1124v-203l-827 -1100h844v-213h-1141zM565 1673l115 301h264l-199 -303z" />
    <glyph glyph-name="zacute" unicode="&#x17a;" horiz-adv-x="1040" 
d="M88 0v166l608 729h-581v190h866v-165l-608 -730h610v-190h-895zM446 1239l115 301h264l-198 -303z" />
    <glyph glyph-name="Zdotaccent" unicode="&#x17b;" horiz-adv-x="1302" 
d="M90 0v203l821 1100h-821v213h1124v-203l-827 -1100h844v-213h-1141zM461 1827q0 65 43.5 109t111.5 44q67 0 111.5 -44t44.5 -109t-44.5 -109.5t-111.5 -44.5q-68 0 -111.5 45t-43.5 109z" />
    <glyph glyph-name="zdotaccent" unicode="&#x17c;" horiz-adv-x="1040" 
d="M88 0v166l608 729h-581v190h866v-165l-608 -730h610v-190h-895zM342 1393q0 65 44 109t112 44q67 0 111 -44t44 -109t-44 -109.5t-111 -44.5q-68 0 -112 45t-44 109z" />
    <glyph glyph-name="Zcaron" unicode="&#x17d;" horiz-adv-x="1318" 
d="M90 0v203l821 1100h-821v213h1124v-203l-827 -1100h844v-213h-1141zM299 1952h195l131 -142l131 142h196l-231 -279h-193z" />
    <glyph glyph-name="zcaron" unicode="&#x17e;" horiz-adv-x="1040" 
d="M88 0v166l608 729h-581v190h866v-165l-608 -730h610v-190h-895zM180 1518h195l131 -142l131 142h197l-232 -279h-192z" />
    <glyph glyph-name="Ohorn" unicode="&#x1a0;" horiz-adv-x="1728" 
d="M852 -20q-146 0 -271 43.5t-214 118.5t-152.5 174.5t-94 212t-30.5 231.5q0 117 30.5 229t94 211.5t152.5 174t214 118t271 43.5h6q68 0 159.5 -9t125.5 -9q54 0 89 9t62.5 34t40 71.5t13.5 118.5h208q-1 -175 -73 -257.5t-195 -82.5q158 -106 243 -280.5t85 -370.5
q0 -120 -30.5 -233t-94 -212.5t-153 -174t-215 -117.5t-271.5 -43zM346 760q0 -110 34 -211t96 -179.5t160 -125.5t216 -47q119 0 217 46.5t161 124.5t97.5 179t34.5 213q0 110 -34.5 210t-97.5 178t-161 124.5t-217 46.5q-118 0 -216 -47t-160 -125.5t-96 -178t-34 -208.5z
" />
    <glyph glyph-name="ohorn" unicode="&#x1a1;" horiz-adv-x="1333" 
d="M657 -20q-130 0 -236.5 45t-175 122.5t-106 179t-37.5 216.5t37 216.5t106 179t175 122.5t235 45h2h7q61 0 132.5 -7t98.5 -7q77 0 118 46.5t42 178.5h188q0 -161 -62.5 -240.5t-164.5 -87.5q96 -76 147 -192.5t51 -253.5q0 -115 -37.5 -216.5t-106.5 -179t-175.5 -122.5
t-237.5 -45zM340 543q0 -161 85 -268t232 -107q148 0 234 107t86 268t-86 268t-234 107q-147 0 -232 -107t-85 -268z" />
    <glyph glyph-name="Uhorn" unicode="&#x1af;" horiz-adv-x="1400" 
d="M725 -20q-131 0 -240 37.5t-188.5 109.5t-123.5 182.5t-44 249.5v957h246v-953q0 -170 89.5 -273.5t260.5 -103.5q172 0 262 103.5t90 273.5v830h-33v123h84q44 0 74 9.5t55 35t37 73.5t13 121h204q-3 -270 -188 -338v-858q0 -277 -164 -428t-434 -151z" />
    <glyph glyph-name="uhorn" unicode="&#x1b0;" horiz-adv-x="1198" 
d="M496 -20q-94 0 -166.5 32.5t-115 87.5t-64 123t-21.5 144v718h233v-679q0 -109 51.5 -174.5t159.5 -65.5q134 0 198.5 96t64.5 258v565h84q42 0 70.5 9t52 33t35 71t12.5 119h190q-1 -151 -55.5 -229t-155.5 -103v-985h-233v172q-11 -22 -25 -42.5t-43.5 -49t-64.5 -49.5
t-89.5 -36t-117.5 -15z" />
    <glyph glyph-name="Gcaron" unicode="&#x1e6;" horiz-adv-x="1646" 
d="M862 -20q-152 0 -280 43.5t-217.5 118t-152.5 174t-92.5 211t-29.5 229.5q0 119 29 231t91 212t150 175t214 118.5t276 43.5q97 0 181 -16t145 -43.5t112.5 -63t85 -74.5t59.5 -78.5t40.5 -75t23.5 -63t11 -43.5l3 -16h-251q-1 6 -3.5 15.5t-15 37.5t-29.5 53t-49.5 56
t-73 53.5t-102.5 37.5t-135 15q-100 0 -184 -31.5t-143.5 -85.5t-101 -126.5t-61.5 -155.5t-20 -172q0 -113 33 -214.5t96 -182t164.5 -128t228.5 -47.5q190 0 314.5 111t146.5 305h-481v195h712v-86q0 -180 -55.5 -322t-152 -230.5t-220.5 -134.5t-266 -46zM526 1952h195
l131 -142l131 142h197l-232 -279h-192z" />
    <glyph glyph-name="gcaron" unicode="&#x1e7;" horiz-adv-x="1282" 
d="M653 -444q-99 0 -179.5 20t-131 52t-88.5 71t-56 78t-29 71t-13 52l-2 20h227q1 -8 4.5 -21t22 -46.5t45 -59t79.5 -46.5t121 -21q82 0 141.5 29t92.5 80t48 110.5t15 130.5v129q-12 -19 -26 -37t-44.5 -45.5t-66.5 -47t-92.5 -34t-120.5 -14.5q-97 0 -179 29.5t-140 81
t-99 120.5t-60.5 147t-19.5 162q0 105 32 200.5t92 171.5t157 121.5t217 45.5q64 0 120.5 -14.5t92.5 -34t66.5 -47t44.5 -46t26 -38.5v159h232v-1009q0 -113 -33.5 -207.5t-98.5 -164.5t-166.5 -109t-230.5 -39zM326 1522h194l131 -142l131 142h197l-231 -279h-193z
M342 567q0 -99 33 -180t104 -132.5t170 -51.5q145 0 225 105t80 259q0 72 -19.5 136.5t-56.5 115.5t-96 81t-133 30q-98 0 -169.5 -52.5t-104.5 -133t-33 -177.5z" />
    <glyph glyph-name="uni0218" unicode="&#x218;" horiz-adv-x="1331" 
d="M692 -18q-101 0 -187 18t-145.5 48t-107.5 69.5t-77 83t-50 87t-30 83t-14 69.5t-5 48v18h248q0 -7 0.5 -18.5t6.5 -46t18 -65.5t39.5 -68.5t64.5 -65t99.5 -46t139.5 -18.5q146 0 233 71.5t87 178.5q0 86 -65 139t-195 80l-183 35q-222 43 -332 144t-110 266
q0 193 150 319.5t391 126.5q91 0 168.5 -16t131.5 -43t98 -62t70.5 -74t46 -77.5t28.5 -73.5t14 -62t5 -43l1 -16h-242q0 6 -0.5 15.5t-6.5 37.5t-17 53.5t-35 56.5t-56.5 53.5t-86 38t-119.5 15.5q-140 0 -219.5 -68.5t-79.5 -164.5q0 -83 60 -134.5t192 -78.5l184 -35
q226 -45 338 -148.5t112 -271.5q0 -94 -37.5 -176.5t-107.5 -145.5t-178 -99.5t-240 -36.5zM1255 682q0 60 41.5 98.5t100.5 38.5q63 0 104 -38t41 -103q0 -57 -35 -121.5t-121 -185.5l-14 -21h-106l116 193q-55 3 -91 42t-36 97z" />
    <glyph glyph-name="uni0219" unicode="&#x219;" horiz-adv-x="1052" 
d="M549 -20q-99 0 -179.5 21t-129.5 54t-85 73.5t-52.5 81t-25.5 73.5t-10 54l-1 21h227q0 -8 2 -22t16.5 -49.5t39 -62.5t77 -49.5t123.5 -22.5q99 0 153 43.5t54 109.5q0 55 -39 84t-127 51l-146 33q-342 73 -342 299q0 143 115.5 238.5t300.5 95.5q89 0 162 -19t118 -49
t78.5 -66.5t49.5 -73t25 -66.5t11 -49l1 -19h-217q0 4 -0.5 10t-5 24.5t-12 35t-24 37t-39 35t-58.5 24.5t-81 10q-93 0 -144.5 -41.5t-51.5 -101.5q0 -49 38.5 -79.5t123.5 -49.5l137 -31q175 -38 265.5 -113.5t90.5 -199.5q0 -145 -119.5 -244.5t-318.5 -99.5zM1116 682
q0 60 41.5 98.5t99.5 38.5q63 0 104.5 -38.5t41.5 -102.5q0 -57 -35 -121.5t-121 -185.5l-14 -21h-107l117 193q-55 3 -91 42t-36 97z" />
    <glyph glyph-name="uni021A" unicode="&#x21a;" horiz-adv-x="1265" 
d="M510 0v1307h-436v209h1118v-209h-436v-1307h-246zM1223 682q0 60 41.5 98.5t99.5 38.5q63 0 104 -38t41 -103q0 -57 -35 -122t-120 -185l-15 -21h-106l117 193q-55 3 -91 42t-36 97z" />
    <glyph glyph-name="uni021B" unicode="&#x21b;" horiz-adv-x="821" 
d="M575 -20q-179 0 -260.5 95.5t-81.5 260.5v557h-170v192h170v269h228v-269h278v-192h-278v-541q0 -176 168 -176q28 0 57.5 8t45.5 16l16 9v-199q-58 -30 -173 -30zM1094 682q0 60 41.5 98.5t99.5 38.5q63 0 104 -38t41 -103q0 -57 -35 -122t-120 -185l-15 -21h-106
l117 193q-55 3 -91 42t-36 97z" />
    <glyph glyph-name="circumflex" unicode="&#x2c6;" horiz-adv-x="909" 
d="M104 1165l254 351h193l254 -351h-199l-151 217l-152 -217h-199z" />
    <glyph glyph-name="caron" unicode="&#x2c7;" horiz-adv-x="772" 
d="M262 1217l-254 350h199l151 -217l152 217h199l-254 -350h-193z" />
    <glyph glyph-name="breve" unicode="&#x2d8;" horiz-adv-x="782" 
d="M354 1233q-67 0 -120.5 16.5t-86 43t-56.5 58t-34.5 63.5t-16.5 58.5t-6 43.5l-1 16h151q0 -7 1 -18t10.5 -39.5t25.5 -50.5t51 -40t82 -18q34 0 62 9t45 24t30 32.5t19 35t9.5 32.5t4.5 24v9h154q0 -6 -0.5 -17t-6.5 -42t-17 -59t-35 -62.5t-57 -59.5t-87 -42t-121 -17z
" />
    <glyph glyph-name="dotaccent" unicode="&#x2d9;" horiz-adv-x="593" 
d="M297 1243q-68 0 -112 45t-44 109q0 65 44 109t112 44q67 0 111.5 -44t44.5 -109t-44.5 -109.5t-111.5 -44.5z" />
    <glyph glyph-name="ring" unicode="&#x2da;" horiz-adv-x="720" 
d="M360 1214q-111 0 -189.5 78.5t-78.5 190.5q0 110 79 188t189 78q111 0 190 -78t79 -188q0 -112 -79 -190.5t-190 -78.5zM240 1483q0 -49 35 -84t85 -35t85.5 35t35.5 84t-35.5 84t-85.5 35t-85 -35t-35 -84z" />
    <glyph glyph-name="ogonek" unicode="&#x2db;" horiz-adv-x="425" 
d="M295 -422q-126 0 -192 54t-66 137q0 47 21 86.5t50.5 61.5t59.5 38t51 21l21 6l86 -45q-4 -2 -11.5 -5.5t-26.5 -15t-33 -25.5t-26 -35.5t-12 -45.5q0 -37 29.5 -60.5t85.5 -23.5q16 0 34.5 2t29.5 4l10 2v-144q-48 -12 -111 -12z" />
    <glyph glyph-name="tilde" unicode="&#x2dc;" horiz-adv-x="688" 
d="M494 1249q-50 0 -93 20t-68 44.5t-54.5 44.5t-55.5 20q-62 0 -65 -116h-142q0 54 9 99t29 85t59 63t94 23q51 0 95 -19.5t69 -43t54 -43t54 -19.5q61 0 64 115h141q0 -54 -8.5 -99.5t-29 -86.5t-59 -64t-93.5 -23z" />
    <glyph glyph-name="gravecomb" unicode="&#x300;" 
d="M252 1241l-205 287h262l123 -285z" />
    <glyph glyph-name="acutecomb" unicode="&#x301;" 
d="M227 1241l-180 2l115 301h264z" />
    <glyph glyph-name="uni0302" unicode="&#x302;" 
d="M41 1214l229 279h193l231 -279h-196l-131 142l-131 -142h-195z" />
    <glyph glyph-name="tildecomb" unicode="&#x303;" 
d="M494 1249q-50 0 -93 20t-68 44.5t-54.5 44.5t-55.5 20q-62 0 -65 -116h-142q0 54 9 99t29 85t59 63t94 23q51 0 95 -19.5t69 -43t54 -43t54 -19.5q61 0 64 115h141q0 -54 -8.5 -99.5t-29 -86.5t-59 -64t-93.5 -23z" />
    <glyph glyph-name="uni0304" unicode="&#x304;" 
d="M78 1317v160h639v-160h-639z" />
    <glyph glyph-name="uni0306" unicode="&#x306;" 
d="M354 1233q-67 0 -120.5 16.5t-86 43t-56.5 58t-34.5 63.5t-16.5 58.5t-6 43.5l-1 16h151q0 -7 1 -18t10.5 -39.5t25.5 -50.5t51 -40t82 -18q34 0 62 9t45 24t30 32.5t19 35t9.5 32.5t4.5 24v9h154q0 -6 -0.5 -17t-6.5 -42t-17 -59t-35 -62.5t-57 -59.5t-87 -42t-121 -17z
" />
    <glyph glyph-name="uni0307" unicode="&#x307;" 
d="M297 1243q-68 0 -112 45t-44 109q0 65 44 109t112 44q67 0 111.5 -44t44.5 -109t-44.5 -109.5t-111.5 -44.5z" />
    <glyph glyph-name="uni0308" unicode="&#x308;" 
d="M686 1245q-67 0 -110.5 44t-43.5 108t43.5 107.5t110.5 43.5t111.5 -43.5t44.5 -107.5q0 -65 -44.5 -108.5t-111.5 -43.5zM139 1397q0 64 43.5 107.5t110.5 43.5t110 -43.5t43 -107.5q0 -65 -43 -108.5t-110 -43.5t-110.5 44t-43.5 108z" />
    <glyph glyph-name="hookabovecomb" unicode="&#x309;" 
d="M195 1249q0 54 18.5 83t67.5 61q4 2 19.5 12.5t19.5 13.5t15.5 11.5t15.5 13.5t10 13.5t8 17t2 18.5q0 32 -27 51t-63 19q-40 0 -68 -23.5t-29 -66.5h-149q4 103 75.5 156.5t176.5 53.5q98 0 169.5 -48t71.5 -132q0 -18 -4.5 -35t-8.5 -29t-16.5 -27t-17.5 -22t-24 -21
t-23 -17t-27 -17.5t-24 -15.5q-29 -18 -39 -33t-10 -37v-8h-139v8z" />
    <glyph glyph-name="uni030A" unicode="&#x30a;" 
d="M360 1214q-111 0 -189.5 78.5t-78.5 190.5q0 110 79 188t189 78q111 0 190 -78t79 -188q0 -112 -79 -190.5t-190 -78.5zM240 1483q0 -49 35 -84t85 -35t85.5 35t35.5 84t-35.5 84t-85.5 35t-85 -35t-35 -84z" />
    <glyph glyph-name="uni030B" unicode="&#x30b;" 
d="M260 1245l-182 2l94 369h227zM426 1247l94 369h225l-137 -371z" />
    <glyph glyph-name="uni030C" unicode="&#x30c;" 
d="M41 1522h195l131 -142l131 142h196l-231 -279h-193z" />
    <glyph glyph-name="uni0312" unicode="&#x312;" 
d="M344 1698l-117 -193q55 -3 91 -42t36 -97q0 -60 -41.5 -98.5t-99.5 -38.5q-63 0 -104 38t-41 103q0 57 35 122t120 185l15 21h106z" />
    <glyph glyph-name="uni031B" unicode="&#x31b;" 
d="M717 1165q0 -101 -53 -158t-154 -57h-344v135h272q82 0 82 84v129h197v-133z" />
    <glyph glyph-name="dotbelowcomb" unicode="&#x323;" 
d="M291 -467q-63 0 -104.5 42.5t-41.5 102.5q0 62 41 105t105 43q63 0 105 -43t42 -105q0 -60 -42 -102.5t-105 -42.5z" />
    <glyph glyph-name="uni0326" unicode="&#x326;" 
d="M885 350l116 193q-55 3 -91 42t-36 97q0 60 41.5 98.5t100.5 38.5q63 0 104 -38t41 -103q0 -57 -35 -122t-120 -185l-15 -21h-106z" />
    <glyph glyph-name="uni0327" unicode="&#x327;" 
d="M158 -563q-31 0 -69 3.5t-61 7.5l-22 3v133q84 -12 141 -12q80 0 115 29t35 69q0 35 -26 58.5t-74 23.5q-29 0 -58 -10t-43 -20l-14 -9l-86 86l127 201h156l-86 -133q21 6 53 6q94 0 149.5 -59t55.5 -144q0 -44 -17 -84.5t-51 -74.5t-92 -54t-133 -20z" />
    <glyph glyph-name="uni0328" unicode="&#x328;" 
d="M295 -422q-126 0 -192 54t-66 137q0 47 21 86.5t50.5 61.5t59.5 38t51 21l21 6l86 -45q-4 -2 -11.5 -5.5t-26.5 -15t-33 -25.5t-26 -35.5t-12 -45.5q0 -37 29.5 -60.5t85.5 -23.5q16 0 34.5 2t29.5 4l10 2v-144q-48 -12 -111 -12z" />
    <glyph glyph-name="uni1E20" unicode="&#x1e20;" horiz-adv-x="1646" 
d="M862 -20q-152 0 -280 43.5t-217.5 118t-152.5 174t-92.5 211t-29.5 229.5q0 119 29 231t91 212t150 175t214 118.5t276 43.5q97 0 181 -16t145 -43.5t112.5 -63t85 -74.5t59.5 -78.5t40.5 -75t23.5 -63t11 -43.5l3 -16h-251q-1 6 -3.5 15.5t-15 37.5t-29.5 53t-49.5 56
t-73 53.5t-102.5 37.5t-135 15q-100 0 -184 -31.5t-143.5 -85.5t-101 -126.5t-61.5 -155.5t-20 -172q0 -113 33 -214.5t96 -182t164.5 -128t228.5 -47.5q190 0 314.5 111t146.5 305h-481v195h712v-86q0 -180 -55.5 -322t-152 -230.5t-220.5 -134.5t-266 -46zM535 1704v160
h639v-160h-639z" />
    <glyph glyph-name="uni1E21" unicode="&#x1e21;" horiz-adv-x="1282" 
d="M653 -444q-99 0 -179.5 20t-131 52t-88.5 71t-56 78t-29 71t-13 52l-2 20h227q1 -8 4.5 -21t22 -46.5t45 -59t79.5 -46.5t121 -21q82 0 141.5 29t92.5 80t48 110.5t15 130.5v129q-12 -19 -26 -37t-44.5 -45.5t-66.5 -47t-92.5 -34t-120.5 -14.5q-97 0 -179 29.5t-140 81
t-99 120.5t-60.5 147t-19.5 162q0 105 32 200.5t92 171.5t157 121.5t217 45.5q64 0 120.5 -14.5t92.5 -34t66.5 -47t44.5 -46t26 -38.5v159h232v-1009q0 -113 -33.5 -207.5t-98.5 -164.5t-166.5 -109t-230.5 -39zM334 1274v160h639v-160h-639zM342 567q0 -99 33 -180
t104 -132.5t170 -51.5q145 0 225 105t80 259q0 72 -19.5 136.5t-56.5 115.5t-96 81t-133 30q-98 0 -169.5 -52.5t-104.5 -133t-33 -177.5z" />
    <glyph glyph-name="Wgrave" unicode="&#x1e80;" horiz-adv-x="2025" 
d="M451 0l-398 1516h252l293 -1178l309 1178h232l309 -1178l293 1178h248l-398 -1516h-280l-291 1110l-291 -1110h-278zM711 1958h262l123 -285l-181 -2z" />
    <glyph glyph-name="wgrave" unicode="&#x1e81;" horiz-adv-x="1769" 
d="M422 0l-342 1085h233l242 -815l250 815h199l247 -815l242 815h229l-344 -1085h-243l-236 778l-235 -778h-242zM559 1528h262l123 -285l-180 -2z" />
    <glyph glyph-name="Wacute" unicode="&#x1e82;" horiz-adv-x="2025" 
d="M451 0l-398 1516h252l293 -1178l309 1178h232l309 -1178l293 1178h248l-398 -1516h-280l-291 1110l-291 -1110h-278zM954 1673l115 301h264l-198 -303z" />
    <glyph glyph-name="wacute" unicode="&#x1e83;" horiz-adv-x="1769" 
d="M422 0l-342 1085h233l242 -815l250 815h199l247 -815l242 815h229l-344 -1085h-243l-236 778l-235 -778h-242zM803 1243l115 301h264l-199 -303z" />
    <glyph glyph-name="Wdieresis" unicode="&#x1e84;" horiz-adv-x="2041" 
d="M451 0l-398 1516h252l293 -1178l309 1178h232l309 -1178l293 1178h248l-398 -1516h-280l-291 1110l-291 -1110h-278zM672 1827q0 64 43 107.5t110 43.5t110.5 -43.5t43.5 -107.5q0 -65 -43.5 -108.5t-110.5 -43.5t-110 44t-43 108zM1065 1827q0 64 43.5 107.5t110.5 43.5
t111 -43.5t44 -107.5q0 -65 -44 -108.5t-111 -43.5t-110.5 44t-43.5 108z" />
    <glyph glyph-name="wdieresis" unicode="&#x1e85;" horiz-adv-x="1802" 
d="M422 0l-342 1085h233l242 -815l250 815h199l247 -815l242 815h229l-344 -1085h-243l-236 778l-235 -778h-242zM528 1397q0 64 43.5 107.5t110.5 43.5t110.5 -43.5t43.5 -107.5q0 -65 -43.5 -108.5t-110.5 -43.5t-110.5 44t-43.5 108zM922 1397q0 64 43 107.5t110 43.5
t111.5 -43.5t44.5 -107.5q0 -65 -44.5 -108.5t-111.5 -43.5t-110 44t-43 108z" />
    <glyph glyph-name="uni1E9E" unicode="&#x1e9e;" horiz-adv-x="1353" 
d="M696 -20q-45 0 -92 3.5t-72 6.5l-24 4v199q78 -13 158 -13q184 0 273 73.5t89 186.5t-90 177.5t-260 64.5h-51v139l336 488q-109 26 -213 26q-188 0 -289 -110.5t-101 -309.5v-919h-235v919q0 98 21 186.5t69 169t120 138.5t182 92.5t247 34.5q113 0 226 -22.5t170 -45.5
l57 -22v-113l-345 -497q171 -21 284.5 -133.5t113.5 -270.5q0 -91 -34 -170.5t-101 -143.5t-180 -101t-259 -37z" />
    <glyph glyph-name="uni1EA0" unicode="&#x1ea0;" horiz-adv-x="1542" 
d="M80 0l524 1516h332l526 -1516h-266l-135 412h-594l-137 -412h-250zM535 614h458l-229 695zM621 -322q0 63 40.5 105.5t104.5 42.5q63 0 105 -43t42 -105q0 -60 -42.5 -102.5t-104.5 -42.5q-63 0 -104 42.5t-41 102.5z" />
    <glyph glyph-name="uni1EA1" unicode="&#x1ea1;" horiz-adv-x="1165" 
d="M483 -20q-167 0 -272 85.5t-105 225.5q0 283 416 350l283 47v23q0 103 -51.5 162t-159.5 59q-61 0 -107 -18.5t-68 -45t-35.5 -53t-15.5 -45.5l-3 -18h-220q0 7 1.5 20t11 49.5t25 70t50 74.5t80 70.5t119 49.5t164.5 20q115 0 201 -31t135.5 -86t73.5 -122.5t24 -147.5
v-719h-225v150q-30 -49 -62 -79q-100 -91 -260 -91zM332 305q0 -78 59 -120t144 -42q126 0 198 79.5t72 217.5v90l-234 -38q-239 -42 -239 -187zM430 -322q0 63 40.5 105.5t104.5 42.5q63 0 105.5 -43t42.5 -105q0 -60 -42.5 -102.5t-105.5 -42.5t-104 42.5t-41 102.5z" />
    <glyph glyph-name="uni1EA2" unicode="&#x1ea2;" horiz-adv-x="1525" 
d="M80 0l524 1516h332l526 -1516h-266l-135 412h-594l-137 -412h-250zM530 1901q4 103 75.5 156.5t176.5 53.5q99 0 170.5 -48.5t71.5 -131.5q0 -18 -4.5 -35t-8.5 -29t-16.5 -27t-17.5 -22t-24 -21t-23 -17t-27 -17.5t-24 -15.5q-29 -19 -39.5 -33.5t-10.5 -36.5v-8h-139v8
q0 54 18.5 83t67.5 61q4 2 19.5 12.5t19.5 13.5t15.5 11.5t15.5 13.5t10 13.5t8 17t2 18.5q0 32 -27 51t-63 19q-39 0 -67 -23.5t-29 -66.5h-150zM535 614h458l-229 695z" />
    <glyph glyph-name="uni1EA3" unicode="&#x1ea3;" horiz-adv-x="1165" 
d="M483 -20q-167 0 -272 85.5t-105 225.5q0 283 416 350l283 47v23q0 103 -51.5 162t-159.5 59q-61 0 -107 -18.5t-68 -45t-35.5 -53t-15.5 -45.5l-3 -18h-220q0 7 1.5 20t11 49.5t25 70t50 74.5t80 70.5t119 49.5t164.5 20q115 0 201 -31t135.5 -86t73.5 -122.5t24 -147.5
v-719h-225v150q-30 -49 -62 -79q-100 -91 -260 -91zM332 305q0 -78 59 -120t144 -42q126 0 198 79.5t72 217.5v90l-234 -38q-239 -42 -239 -187zM362 1470q4 103 75.5 157t176.5 54q99 0 170.5 -48.5t71.5 -131.5q0 -18 -4.5 -35t-8.5 -29t-16.5 -27t-17.5 -22t-24 -21
t-23 -17t-27 -17.5t-24 -15.5q-29 -18 -39 -33t-10 -37v-8h-140v8q0 54 18.5 83t67.5 61q4 2 19.5 12.5t19.5 13.5t15.5 11.5t15.5 13.5t10 13.5t8 17t2 18.5q0 32 -27 51t-63 19q-39 0 -67 -23.5t-29 -67.5h-150z" />
    <glyph glyph-name="uni1EA4" unicode="&#x1ea4;" horiz-adv-x="1542" 
d="M80 0l524 1516h332l526 -1516h-266l-135 412h-594l-137 -412h-250zM449 1645l219 270h206l220 -270h-191l-133 139l-131 -139h-190zM535 614h458l-229 695zM989 1884l123 273h246l-197 -275z" />
    <glyph glyph-name="uni1EA5" unicode="&#x1ea5;" horiz-adv-x="1165" 
d="M483 -20q-167 0 -272 85.5t-105 225.5q0 283 416 350l283 47v23q0 103 -51.5 162t-159.5 59q-61 0 -107 -18.5t-68 -45t-35.5 -53t-15.5 -45.5l-3 -18h-220q0 7 1.5 20t11 49.5t25 70t50 74.5t80 70.5t119 49.5t164.5 20q115 0 201 -31t135.5 -86t73.5 -122.5t24 -147.5
v-719h-225v150q-30 -49 -62 -79q-100 -91 -260 -91zM274 1214l220 271h206l220 -271h-191l-133 140l-131 -140h-191zM332 305q0 -78 59 -120t144 -42q126 0 198 79.5t72 217.5v90l-234 -38q-239 -42 -239 -187zM815 1454l123 272h246l-197 -274z" />
    <glyph glyph-name="uni1EA6" unicode="&#x1ea6;" horiz-adv-x="1542" 
d="M80 0l524 1516h332l526 -1516h-266l-135 412h-594l-137 -412h-250zM449 1645l219 270h206l220 -270h-191l-133 139l-131 -139h-190zM535 614h458l-229 695zM807 2206h262l123 -285l-180 -2z" />
    <glyph glyph-name="uni1EA7" unicode="&#x1ea7;" horiz-adv-x="1165" 
d="M483 -20q-167 0 -272 85.5t-105 225.5q0 283 416 350l283 47v23q0 103 -51.5 162t-159.5 59q-61 0 -107 -18.5t-68 -45t-35.5 -53t-15.5 -45.5l-3 -18h-220q0 7 1.5 20t11 49.5t25 70t50 74.5t80 70.5t119 49.5t164.5 20q115 0 201 -31t135.5 -86t73.5 -122.5t24 -147.5
v-719h-225v150q-30 -49 -62 -79q-100 -91 -260 -91zM274 1214l220 271h206l220 -271h-191l-133 140l-131 -140h-191zM332 305q0 -78 59 -120t144 -42q126 0 198 79.5t72 217.5v90l-234 -38q-239 -42 -239 -187zM633 1776h262l123 -285l-180 -2z" />
    <glyph glyph-name="uni1EA8" unicode="&#x1ea8;" horiz-adv-x="1542" 
d="M80 0l524 1516h332l526 -1516h-266l-135 412h-594l-137 -412h-250zM449 1645l219 270h206l220 -270h-191l-133 139l-131 -139h-190zM535 614h458l-229 695zM858 2095q3 94 69.5 143.5t162.5 49.5q93 0 160 -44t67 -122q0 -15 -2 -28.5t-8 -25.5t-10.5 -21.5t-15.5 -20
t-16 -16t-20 -16t-19.5 -13.5t-21.5 -14t-20 -13q-26 -17 -35.5 -31t-9.5 -33v-8h-133v8q0 46 15.5 73.5t63.5 57.5q58 39 72 58q12 17 12 35q0 27 -25 43t-59 16q-36 0 -62.5 -20t-27.5 -58h-137z" />
    <glyph glyph-name="uni1EA9" unicode="&#x1ea9;" horiz-adv-x="1165" 
d="M483 -20q-167 0 -272 85.5t-105 225.5q0 283 416 350l283 47v23q0 103 -51.5 162t-159.5 59q-61 0 -107 -18.5t-68 -45t-35.5 -53t-15.5 -45.5l-3 -18h-220q0 7 1.5 20t11 49.5t25 70t50 74.5t80 70.5t119 49.5t164.5 20q115 0 201 -31t135.5 -86t73.5 -122.5t24 -147.5
v-719h-225v150q-30 -49 -62 -79q-100 -91 -260 -91zM274 1214l220 271h206l220 -271h-191l-133 140l-131 -140h-191zM332 305q0 -78 59 -120t144 -42q126 0 198 79.5t72 217.5v90l-234 -38q-239 -42 -239 -187zM684 1665q3 94 69 143.5t162 49.5q93 0 160.5 -44t67.5 -122
q0 -15 -2 -28.5t-8 -25.5t-10.5 -21.5t-15.5 -20t-16 -16t-20 -16t-19.5 -13.5t-21.5 -14t-20 -13q-26 -17 -35.5 -31t-9.5 -33v-8h-134v8q0 46 16 73.5t64 57.5q3 2 12.5 8.5t13 8.5t11.5 8t11 9t9.5 8.5t9.5 9t7 9t5.5 10t3 10t1.5 11.5q0 27 -25 43.5t-59 16.5
q-36 0 -62.5 -20t-27.5 -58h-137z" />
    <glyph glyph-name="uni1EAA" unicode="&#x1eaa;" horiz-adv-x="1542" 
d="M80 0l524 1516h332l526 -1516h-266l-135 412h-594l-137 -412h-250zM446 1645l220 270h206l220 -270h-191l-133 139l-131 -139h-191zM457 1995q0 47 8.5 87.5t27 76.5t54.5 56.5t86 20.5q44 0 85 -16t67 -36t54 -36t48 -16q30 0 45.5 26t15.5 70h129q1 -64 -13 -116.5
t-55 -91t-106 -38.5q-42 0 -83 17.5t-66.5 38t-54.5 38t-50 17.5q-31 0 -47 -27t-16 -71h-129zM535 614h458l-229 695z" />
    <glyph glyph-name="uni1EAB" unicode="&#x1eab;" horiz-adv-x="1165" 
d="M483 -20q-167 0 -272 85.5t-105 225.5q0 283 416 350l283 47v23q0 103 -51.5 162t-159.5 59q-61 0 -107 -18.5t-68 -45t-35.5 -53t-15.5 -45.5l-3 -18h-220q0 7 1.5 20t11 49.5t25 70t50 74.5t80 70.5t119 49.5t164.5 20q115 0 201 -31t135.5 -86t73.5 -122.5t24 -147.5
v-719h-225v150q-30 -49 -62 -79q-100 -91 -260 -91zM272 1214l220 271h206l220 -271h-191l-133 140l-131 -140h-191zM283 1565q0 47 8.5 87.5t27 76.5t54.5 56.5t86 20.5q44 0 85 -16t67 -36t54 -36t48 -16q30 0 45.5 26t15.5 70h129q1 -64 -13 -116.5t-55 -91t-106 -38.5
q-42 0 -83 17.5t-66.5 38t-54.5 38t-50 17.5q-31 0 -47 -27t-16 -71h-129zM332 305q0 -78 59 -120t144 -42q126 0 198 79.5t72 217.5v90l-234 -38q-239 -42 -239 -187z" />
    <glyph glyph-name="uni1EAC" unicode="&#x1eac;" horiz-adv-x="1542" 
d="M80 0l524 1516h332l526 -1516h-266l-135 412h-594l-137 -412h-250zM449 1645l219 270h206l220 -270h-191l-133 139l-131 -139h-190zM535 614h458l-229 695zM621 -322q0 63 40.5 105.5t104.5 42.5q63 0 105 -43t42 -105q0 -60 -42.5 -102.5t-104.5 -42.5q-63 0 -104 42.5
t-41 102.5z" />
    <glyph glyph-name="uni1EAD" unicode="&#x1ead;" horiz-adv-x="1165" 
d="M483 -20q-167 0 -272 85.5t-105 225.5q0 283 416 350l283 47v23q0 103 -51.5 162t-159.5 59q-61 0 -107 -18.5t-68 -45t-35.5 -53t-15.5 -45.5l-3 -18h-220q0 7 1.5 20t11 49.5t25 70t50 74.5t80 70.5t119 49.5t164.5 20q115 0 201 -31t135.5 -86t73.5 -122.5t24 -147.5
v-719h-225v150q-30 -49 -62 -79q-100 -91 -260 -91zM270 1214l230 279h192l232 -279h-197l-131 142l-131 -142h-195zM332 305q0 -78 59 -120t144 -42q126 0 198 79.5t72 217.5v90l-234 -38q-239 -42 -239 -187zM430 -322q0 63 40.5 105.5t104.5 42.5q63 0 105.5 -43
t42.5 -105q0 -60 -42.5 -102.5t-105.5 -42.5t-104 42.5t-41 102.5z" />
    <glyph glyph-name="uni1EAE" unicode="&#x1eae;" horiz-adv-x="1542" 
d="M80 0l524 1516h332l526 -1516h-266l-135 412h-594l-137 -412h-250zM442 1939h158q0 -6 1 -16t10 -35t24.5 -44.5t50 -35.5t80.5 -16q48 0 82.5 15t50.5 37t24.5 43.5t9.5 36.5l1 15h158q0 -6 -0.5 -16t-6 -39t-16 -55t-34.5 -58t-57 -55t-88 -39t-124 -16
q-68 0 -123 15.5t-87.5 40t-57 54t-34.5 59t-16 54t-6 40.5v15zM535 614h458l-229 695zM684 1995l123 272h246l-197 -274z" />
    <glyph glyph-name="uni1EAF" unicode="&#x1eaf;" horiz-adv-x="1165" 
d="M483 -20q-167 0 -272 85.5t-105 225.5q0 283 416 350l283 47v23q0 103 -51.5 162t-159.5 59q-61 0 -107 -18.5t-68 -45t-35.5 -53t-15.5 -45.5l-3 -18h-220q0 7 1.5 20t11 49.5t25 70t50 74.5t80 70.5t119 49.5t164.5 20q115 0 201 -31t135.5 -86t73.5 -122.5t24 -147.5
v-719h-225v150q-30 -49 -62 -79q-100 -91 -260 -91zM266 1509h158q0 -6 1 -16t10 -35t24.5 -44.5t50 -35.5t80.5 -16q48 0 82.5 15t50.5 37t24.5 43.5t9.5 36.5l1 15h157v-16t-5.5 -39t-16 -55t-34.5 -58t-57 -55t-88 -39t-124 -16q-68 0 -123 15.5t-87.5 40t-57 54
t-34.5 59t-16 54t-6 40.5v15zM332 305q0 -78 59 -120t144 -42q126 0 198 79.5t72 217.5v90l-234 -38q-239 -42 -239 -187zM508 1565l123 272h246l-197 -274z" />
    <glyph glyph-name="uni1EB0" unicode="&#x1eb0;" horiz-adv-x="1542" 
d="M80 0l524 1516h332l526 -1516h-266l-135 412h-594l-137 -412h-250zM438 1939h158q0 -6 1 -16t10 -35t24.5 -44.5t50 -35.5t80.5 -16q48 0 82.5 15t50.5 37t24.5 43.5t9.5 36.5l1 15h157v-16t-5.5 -39t-16 -55t-34.5 -58t-57 -55t-88 -39t-124 -16q-68 0 -123 15.5
t-87.5 40t-57 54t-34.5 59t-16 54t-6 40.5v15zM498 2290h231l135 -299l-184 -2zM535 614h458l-229 695z" />
    <glyph glyph-name="uni1EB1" unicode="&#x1eb1;" horiz-adv-x="1165" 
d="M483 -20q-167 0 -272 85.5t-105 225.5q0 283 416 350l283 47v23q0 103 -51.5 162t-159.5 59q-61 0 -107 -18.5t-68 -45t-35.5 -53t-15.5 -45.5l-3 -18h-220q0 7 1.5 20t11 49.5t25 70t50 74.5t80 70.5t119 49.5t164.5 20q115 0 201 -31t135.5 -86t73.5 -122.5t24 -147.5
v-719h-225v150q-30 -49 -62 -79q-100 -91 -260 -91zM264 1509h158q0 -6 1 -16t10 -35t24.5 -44.5t50 -35.5t80.5 -16q48 0 82.5 15t50.5 37t24.5 43.5t9.5 36.5l1 15h157v-16t-5.5 -39t-16 -55t-34.5 -58t-57 -55t-88 -39t-124 -16q-68 0 -123 15.5t-87.5 40t-57 54
t-34.5 59t-16 54t-6 40.5v15zM324 1860h231l135 -299l-184 -2zM332 305q0 -78 59 -120t144 -42q126 0 198 79.5t72 217.5v90l-234 -38q-239 -42 -239 -187z" />
    <glyph glyph-name="uni1EB2" unicode="&#x1eb2;" horiz-adv-x="1542" 
d="M80 0l524 1516h332l526 -1516h-266l-135 412h-594l-137 -412h-250zM438 1939h158q0 -6 1 -16t10 -35t24.5 -44.5t50 -35.5t80.5 -16q48 0 82.5 15t50.5 37t24.5 43.5t9.5 36.5l1 15h157v-16t-5.5 -39t-16 -55t-34.5 -58t-57 -55t-88 -39t-124 -16q-68 0 -123 15.5
t-87.5 40t-57 54t-34.5 59t-16 54t-6 40.5v15zM535 614h458l-229 695zM553 2202q3 94 69 143t162 49q93 0 160.5 -44t67.5 -122q0 -15 -2 -28.5t-8 -25.5t-10.5 -21.5t-15.5 -20t-16 -16t-20 -16t-19.5 -13.5t-21.5 -14t-20 -13q-26 -17 -35.5 -30.5t-9.5 -32.5v-8h-134v8
q0 46 16 73.5t64 57.5q3 2 12.5 8.5t13 8.5t11.5 8t11 9t9.5 8.5t9.5 9t7 9t5.5 10t3 10t1.5 11.5q0 27 -25 43t-59 16q-37 0 -63 -19.5t-27 -57.5h-137z" />
    <glyph glyph-name="uni1EB3" unicode="&#x1eb3;" horiz-adv-x="1165" 
d="M483 -20q-167 0 -272 85.5t-105 225.5q0 283 416 350l283 47v23q0 103 -51.5 162t-159.5 59q-61 0 -107 -18.5t-68 -45t-35.5 -53t-15.5 -45.5l-3 -18h-220q0 7 1.5 20t11 49.5t25 70t50 74.5t80 70.5t119 49.5t164.5 20q115 0 201 -31t135.5 -86t73.5 -122.5t24 -147.5
v-719h-225v150q-30 -49 -62 -79q-100 -91 -260 -91zM264 1509h158q0 -6 1 -16t10 -35t24.5 -44.5t50 -35.5t80.5 -16q48 0 82.5 15t50.5 37t24.5 43.5t9.5 36.5l1 15h157v-16t-5.5 -39t-16 -55t-34.5 -58t-57 -55t-88 -39t-124 -16q-68 0 -123 15.5t-87.5 40t-57 54
t-34.5 59t-16 54t-6 40.5v15zM332 305q0 -78 59 -120t144 -42q126 0 198 79.5t72 217.5v90l-234 -38q-239 -42 -239 -187zM379 1772q3 94 69 143t162 49q93 0 160.5 -44t67.5 -122q0 -15 -2 -28.5t-8 -25.5t-10.5 -21.5t-15.5 -20t-16 -16t-20 -16t-19.5 -13.5t-21.5 -14
t-20 -13q-26 -17 -36 -30.5t-10 -32.5v-8h-133v8q0 46 16 73.5t64 57.5q3 2 12.5 8.5t13 8.5t11.5 8t11 9t9.5 8.5t9.5 9t7 9t5.5 10t3 10t1.5 11.5q0 27 -25 43t-59 16q-37 0 -63 -19.5t-27 -57.5h-137z" />
    <glyph glyph-name="uni1EB4" unicode="&#x1eb4;" horiz-adv-x="1542" 
d="M80 0l524 1516h332l526 -1516h-266l-135 412h-594l-137 -412h-250zM442 1939h158q0 -6 1 -16t10 -35t24.5 -44.5t50 -35.5t80.5 -16q48 0 82.5 15t50.5 37t24.5 43.5t9.5 36.5l1 15h158q0 -6 -0.5 -16t-6 -39t-16 -55t-34.5 -58t-57 -55t-88 -39t-124 -16
q-68 0 -123 15.5t-87.5 40t-57 54t-34.5 59t-16 54t-6 40.5v15zM465 2015q0 47 8.5 87.5t27 76.5t54.5 57t86 21q56 0 105.5 -26.5t87 -52.5t61.5 -26q30 0 45.5 26.5t15.5 70.5h129q1 -64 -13 -116.5t-55 -91t-106 -38.5q-42 0 -83 17.5t-66.5 38t-54.5 38t-50 17.5
q-31 0 -47 -27.5t-16 -71.5h-129zM535 614h458l-229 695z" />
    <glyph glyph-name="uni1EB5" unicode="&#x1eb5;" horiz-adv-x="1165" 
d="M483 -20q-167 0 -272 85.5t-105 225.5q0 283 416 350l283 47v23q0 103 -51.5 162t-159.5 59q-61 0 -107 -18.5t-68 -45t-35.5 -53t-15.5 -45.5l-3 -18h-220q0 7 1.5 20t11 49.5t25 70t50 74.5t80 70.5t119 49.5t164.5 20q115 0 201 -31t135.5 -86t73.5 -122.5t24 -147.5
v-719h-225v150q-30 -49 -62 -79q-100 -91 -260 -91zM266 1509h158q0 -6 1 -16t10 -35t24.5 -44.5t50 -35.5t80.5 -16q48 0 82.5 15t50.5 37t24.5 43.5t9.5 36.5l1 15h157v-16t-5.5 -39t-16 -55t-34.5 -58t-57 -55t-88 -39t-124 -16q-68 0 -123 15.5t-87.5 40t-57 54
t-34.5 59t-16 54t-6 40.5v15zM289 1585q0 47 8.5 87.5t27 76.5t54.5 57t86 21q56 0 105.5 -26.5t87 -52.5t61.5 -26q30 0 45.5 26.5t15.5 70.5h129q1 -64 -13 -116.5t-55 -91t-106 -38.5q-42 0 -83 17t-66.5 38t-54.5 38t-50 17q-31 0 -47 -27t-16 -71h-129zM332 305
q0 -78 59 -120t144 -42q126 0 198 79.5t72 217.5v90l-234 -38q-239 -42 -239 -187z" />
    <glyph glyph-name="uni1EB6" unicode="&#x1eb6;" horiz-adv-x="1542" 
d="M80 0l524 1516h332l526 -1516h-266l-135 412h-594l-137 -412h-250zM449 1962h151q0 -7 1 -18t10.5 -39.5t25.5 -50.5t51 -40t82 -18q34 0 62 9t45 24t30 32.5t19 35t9.5 32.5t4.5 24v9h154q0 -6 -0.5 -17t-6.5 -42t-17 -59t-35 -62.5t-57 -59.5t-87 -42t-121 -17
t-120.5 16.5t-86 43t-56.5 58t-34.5 63.5t-16.5 58.5t-6 43.5zM535 614h458l-229 695zM621 -322q0 63 40.5 105.5t104.5 42.5q63 0 105 -43t42 -105q0 -60 -42.5 -102.5t-104.5 -42.5q-63 0 -104 42.5t-41 102.5z" />
    <glyph glyph-name="uni1EB7" unicode="&#x1eb7;" horiz-adv-x="1165" 
d="M483 -20q-167 0 -272 85.5t-105 225.5q0 283 416 350l283 47v23q0 103 -51.5 162t-159.5 59q-61 0 -107 -18.5t-68 -45t-35.5 -53t-15.5 -45.5l-3 -18h-220q0 7 1.5 20t11 49.5t25 70t50 74.5t80 70.5t119 49.5t164.5 20q115 0 201 -31t135.5 -86t73.5 -122.5t24 -147.5
v-719h-225v150q-30 -49 -62 -79q-100 -91 -260 -91zM272 1532h152q0 -7 1 -18t10.5 -39.5t25.5 -50.5t51 -40t82 -18q34 0 62 9t45 24t30 32.5t19 35t9.5 32.5t4.5 24v9h154q0 -6 -0.5 -17t-6.5 -42t-17 -59t-35 -62.5t-57 -59.5t-87 -42t-121 -17t-120.5 16.5t-86 43
t-56.5 58t-35 63.5t-17 58.5t-7 43.5v16zM332 305q0 -78 59 -120t144 -42q126 0 198 79.5t72 217.5v90l-234 -38q-239 -42 -239 -187zM430 -322q0 63 40.5 105.5t104.5 42.5q63 0 105.5 -43t42.5 -105q0 -60 -42.5 -102.5t-105.5 -42.5t-104 42.5t-41 102.5z" />
    <glyph glyph-name="uni1EB8" unicode="&#x1eb8;" horiz-adv-x="1179" 
d="M129 0v1516h967v-211h-721v-431h637v-208h-637v-455h729v-211h-975zM446 -322q0 62 41 105t105 43q63 0 105 -43t42 -105q0 -60 -42.5 -102.5t-104.5 -42.5q-63 0 -104.5 42.5t-41.5 102.5z" />
    <glyph glyph-name="uni1EB9" unicode="&#x1eb9;" horiz-adv-x="1249" 
d="M922 639q-6 136 -85 211.5t-198 75.5q-125 0 -204 -79t-93 -208h580zM102 545q0 84 19.5 163t62.5 152t104 127t151 86.5t198 32.5q177 0 298.5 -81.5t173.5 -222.5t34 -325h-801q11 -146 93 -232.5t222 -86.5q61 0 110.5 16t76.5 38t45 44.5t23 38.5l6 16h219
q-1 -7 -4 -19t-18 -46.5t-35 -65.5t-59.5 -69t-87.5 -65.5t-122.5 -46.5t-161.5 -19q-135 0 -242.5 48.5t-172.5 129.5t-98.5 180t-33.5 207zM504 -322q0 63 40.5 105.5t104.5 42.5q63 0 105.5 -43t42.5 -105q0 -60 -42.5 -102.5t-105.5 -42.5t-104 42.5t-41 102.5z" />
    <glyph glyph-name="uni1EBA" unicode="&#x1eba;" horiz-adv-x="1179" 
d="M129 0v1516h967v-211h-721v-431h637v-208h-637v-455h729v-211h-975zM352 1901q4 103 75.5 156.5t176.5 53.5q99 0 170.5 -48.5t71.5 -131.5q0 -18 -4 -35t-8.5 -29.5t-17 -27t-18.5 -21.5t-23.5 -20.5t-23 -17.5t-27 -17.5t-24.5 -15.5q-29 -18 -39 -33t-10 -37v-8h-139
v8q0 54 18.5 83t67.5 61q4 2 19.5 12.5t19.5 13.5t15.5 11.5t15.5 13.5t10 13.5t8 17t2 18.5q0 32 -27 51t-63 19q-39 0 -67 -23.5t-29 -66.5h-150z" />
    <glyph glyph-name="uni1EBB" unicode="&#x1ebb;" horiz-adv-x="1249" 
d="M922 639q-6 136 -85 211.5t-198 75.5q-125 0 -204 -79t-93 -208h580zM102 545q0 84 19.5 163t62.5 152t104 127t151 86.5t198 32.5q177 0 298.5 -81.5t173.5 -222.5t34 -325h-801q11 -146 93 -232.5t222 -86.5q61 0 110.5 16t76.5 38t45 44.5t23 38.5l6 16h219
q-1 -7 -4 -19t-18 -46.5t-35 -65.5t-59.5 -69t-87.5 -65.5t-122.5 -46.5t-161.5 -19q-135 0 -242.5 48.5t-172.5 129.5t-98.5 180t-33.5 207zM406 1468q4 103 75 157t176 54q99 0 170.5 -48.5t71.5 -131.5q0 -18 -4.5 -35t-8.5 -29t-16.5 -27t-17.5 -22t-24 -21t-23 -17
t-27 -17.5t-24 -15.5q-29 -18 -39 -33t-10 -37v-8h-140v8q0 54 18.5 83t67.5 61q4 2 19.5 12.5t19.5 13.5t15.5 11.5t15.5 13.5t10 13.5t8 17t2 18.5q0 32 -27 51t-63 19q-39 0 -67 -23.5t-29 -67.5h-149z" />
    <glyph glyph-name="uni1EBC" unicode="&#x1ebc;" horiz-adv-x="1179" 
d="M129 0v1516h967v-211h-721v-431h637v-208h-637v-455h729v-211h-975zM258 1692q0 54 9 99t29 85t59 63t94 23q51 0 95 -19.5t69 -43t54 -43t54 -19.5q60 0 63 115h142q0 -54 -9 -99.5t-29 -86t-59 -64t-94 -23.5q-41 0 -76.5 13.5t-60 32.5t-46 37.5t-43.5 32t-44 13.5
q-63 0 -66 -116h-141z" />
    <glyph glyph-name="uni1EBD" unicode="&#x1ebd;" horiz-adv-x="1249" 
d="M922 639q-6 136 -85 211.5t-198 75.5q-125 0 -204 -79t-93 -208h580zM102 545q0 84 19.5 163t62.5 152t104 127t151 86.5t198 32.5q177 0 298.5 -81.5t173.5 -222.5t34 -325h-801q11 -146 93 -232.5t222 -86.5q61 0 110.5 16t76.5 38t45 44.5t23 38.5l6 16h219
q-1 -7 -4 -19t-18 -46.5t-35 -65.5t-59.5 -69t-87.5 -65.5t-122.5 -46.5t-161.5 -19q-135 0 -242.5 48.5t-172.5 129.5t-98.5 180t-33.5 207zM305 1260q0 54 9 99t29 85t59 63t94 23q51 0 95 -19.5t69 -43t54 -43t54 -19.5q60 0 63 115h142q0 -54 -9 -99.5t-29 -86t-59 -64
t-94 -23.5q-41 0 -76.5 13.5t-60 32.5t-46 37.5t-43.5 32t-44 13.5q-63 0 -66 -116h-141z" />
    <glyph glyph-name="uni1EBE" unicode="&#x1ebe;" horiz-adv-x="1179" 
d="M129 0v1516h967v-211h-721v-431h637v-208h-637v-455h729v-211h-975zM270 1645l219 270h207l219 -270h-190l-133 139l-131 -139h-191zM809 1884l123 273h246l-197 -275z" />
    <glyph glyph-name="uni1EBF" unicode="&#x1ebf;" horiz-adv-x="1249" 
d="M922 639q-6 136 -85 211.5t-198 75.5q-125 0 -204 -79t-93 -208h580zM102 545q0 84 19.5 163t62.5 152t104 127t151 86.5t198 32.5q177 0 298.5 -81.5t173.5 -222.5t34 -325h-801q11 -146 93 -232.5t222 -86.5q61 0 110.5 16t76.5 38t45 44.5t23 38.5l6 16h219
q-1 -7 -4 -19t-18 -46.5t-35 -65.5t-59.5 -69t-87.5 -65.5t-122.5 -46.5t-161.5 -19q-135 0 -242.5 48.5t-172.5 129.5t-98.5 180t-33.5 207zM317 1212l220 271h206l220 -271h-191l-133 140l-131 -140h-191zM858 1452l123 272h246l-197 -274z" />
    <glyph glyph-name="uni1EC0" unicode="&#x1ec0;" horiz-adv-x="1179" 
d="M129 0v1516h967v-211h-721v-431h637v-208h-637v-455h729v-211h-975zM270 1645l219 270h207l219 -270h-190l-133 139l-131 -139h-191zM629 2206h262l123 -285l-180 -2z" />
    <glyph glyph-name="uni1EC1" unicode="&#x1ec1;" horiz-adv-x="1249" 
d="M922 639q-6 136 -85 211.5t-198 75.5q-125 0 -204 -79t-93 -208h580zM102 545q0 84 19.5 163t62.5 152t104 127t151 86.5t198 32.5q177 0 298.5 -81.5t173.5 -222.5t34 -325h-801q11 -146 93 -232.5t222 -86.5q61 0 110.5 16t76.5 38t45 44.5t23 38.5l6 16h219
q-1 -7 -4 -19t-18 -46.5t-35 -65.5t-59.5 -69t-87.5 -65.5t-122.5 -46.5t-161.5 -19q-135 0 -242.5 48.5t-172.5 129.5t-98.5 180t-33.5 207zM317 1212l220 271h206l220 -271h-191l-133 140l-131 -140h-191zM676 1774h262l123 -285l-180 -2z" />
    <glyph glyph-name="uni1EC2" unicode="&#x1ec2;" horiz-adv-x="1179" 
d="M129 0v1516h967v-211h-721v-431h637v-208h-637v-455h729v-211h-975zM270 1645l219 270h207l219 -270h-190l-133 139l-131 -139h-191zM678 2095q3 94 69 143.5t162 49.5q93 0 160.5 -44t67.5 -122q0 -15 -2 -28.5t-8 -25.5t-10.5 -21.5t-15.5 -20t-16 -16t-20 -16
t-19.5 -13.5t-21.5 -14t-20 -13q-46 -30 -46 -64v-8h-133v8q0 46 16 73.5t64 57.5q58 39 72 58q12 17 12 35q0 27 -25 43t-59 16q-36 0 -62.5 -20t-27.5 -58h-137z" />
    <glyph glyph-name="uni1EC3" unicode="&#x1ec3;" horiz-adv-x="1249" 
d="M922 639q-6 136 -85 211.5t-198 75.5q-125 0 -204 -79t-93 -208h580zM102 545q0 84 19.5 163t62.5 152t104 127t151 86.5t198 32.5q177 0 298.5 -81.5t173.5 -222.5t34 -325h-801q11 -146 93 -232.5t222 -86.5q61 0 110.5 16t76.5 38t45 44.5t23 38.5l6 16h219
q-1 -7 -4 -19t-18 -46.5t-35 -65.5t-59.5 -69t-87.5 -65.5t-122.5 -46.5t-161.5 -19q-135 0 -242.5 48.5t-172.5 129.5t-98.5 180t-33.5 207zM317 1212l220 271h206l220 -271h-191l-133 140l-131 -140h-191zM727 1663q3 94 69 143t162 49q93 0 160.5 -44t67.5 -121
q0 -15 -2 -28.5t-8 -25.5t-10.5 -21.5t-15.5 -20t-16 -16t-20 -16t-19.5 -13.5t-21.5 -14t-20 -13q-26 -17 -35.5 -31t-9.5 -33v-8h-134v8q0 46 16 73.5t64 57.5q3 2 12.5 8.5t13 8.5t11.5 8t11 9t9.5 8.5t9.5 9t7 9t5.5 10t3 10t1.5 11.5q0 27 -25 43.5t-59 16.5
q-36 0 -62.5 -20t-27.5 -58h-137z" />
    <glyph glyph-name="uni1EC4" unicode="&#x1ec4;" horiz-adv-x="1179" 
d="M129 0v1516h967v-211h-721v-431h637v-208h-637v-455h729v-211h-975zM268 1645l219 270h207l219 -270h-190l-133 139l-131 -139h-191zM279 1995q0 47 8.5 87.5t27 76.5t54.5 56.5t86 20.5q44 0 85 -16t67 -36t54 -36t48 -16q30 0 45.5 26t15.5 70h129q1 -64 -13 -116.5
t-55 -91t-106 -38.5q-42 0 -83 17.5t-66.5 38t-54.5 38t-50 17.5q-31 0 -47 -27t-16 -71h-129z" />
    <glyph glyph-name="uni1EC5" unicode="&#x1ec5;" horiz-adv-x="1249" 
d="M922 639q-6 136 -85 211.5t-198 75.5q-125 0 -204 -79t-93 -208h580zM102 545q0 84 19.5 163t62.5 152t104 127t151 86.5t198 32.5q177 0 298.5 -81.5t173.5 -222.5t34 -325h-801q11 -146 93 -232.5t222 -86.5q61 0 110.5 16t76.5 38t45 44.5t23 38.5l6 16h219
q-1 -7 -4 -19t-18 -46.5t-35 -65.5t-59.5 -69t-87.5 -65.5t-122.5 -46.5t-161.5 -19q-135 0 -242.5 48.5t-172.5 129.5t-98.5 180t-33.5 207zM315 1212l220 271h206l220 -271h-191l-133 140l-131 -140h-191zM326 1563q0 47 8.5 87.5t27 76.5t54.5 56.5t86 20.5q44 0 85 -16
t67 -36t54 -36t48 -16q30 0 45.5 26t15.5 70h129q1 -64 -13 -116.5t-55 -91t-106 -38.5q-42 0 -83 17.5t-66.5 38t-54.5 38t-50 17.5q-31 0 -47 -27t-16 -71h-129z" />
    <glyph glyph-name="uni1EC6" unicode="&#x1ec6;" horiz-adv-x="1179" 
d="M129 0v1516h967v-211h-721v-431h637v-208h-637v-455h729v-211h-975zM270 1645l219 270h207l219 -270h-190l-133 139l-131 -139h-191zM446 -322q0 62 41 105t105 43q63 0 105 -43t42 -105q0 -60 -42.5 -102.5t-104.5 -42.5q-63 0 -104.5 42.5t-41.5 102.5z" />
    <glyph glyph-name="uni1EC7" unicode="&#x1ec7;" horiz-adv-x="1249" 
d="M922 639q-6 136 -85 211.5t-198 75.5q-125 0 -204 -79t-93 -208h580zM102 545q0 84 19.5 163t62.5 152t104 127t151 86.5t198 32.5q177 0 298.5 -81.5t173.5 -222.5t34 -325h-801q11 -146 93 -232.5t222 -86.5q61 0 110.5 16t76.5 38t45 44.5t23 38.5l6 16h219
q-1 -7 -4 -19t-18 -46.5t-35 -65.5t-59.5 -69t-87.5 -65.5t-122.5 -46.5t-161.5 -19q-135 0 -242.5 48.5t-172.5 129.5t-98.5 180t-33.5 207zM313 1212l230 279h192l232 -279h-197l-131 142l-131 -142h-195zM504 -322q0 63 40.5 105.5t104.5 42.5q63 0 105.5 -43t42.5 -105
q0 -60 -42.5 -102.5t-105.5 -42.5t-104 42.5t-41 102.5z" />
    <glyph glyph-name="uni1EC8" unicode="&#x1ec8;" horiz-adv-x="487" 
d="M129 0v1516h246v-1516h-246zM10 1901q4 103 75.5 156.5t176.5 53.5q99 0 170.5 -48.5t71.5 -131.5q0 -18 -4 -35t-8.5 -29.5t-17 -27t-18.5 -21.5t-23.5 -20.5t-23 -17.5t-27 -17.5t-24.5 -15.5q-29 -18 -39 -33t-10 -37v-8h-139v8q0 54 18.5 83t67.5 61q4 2 19.5 12.5
t19.5 13.5t15.5 11.5t15.5 13.5t10 13.5t8 17t2 18.5q0 32 -27 51t-63 19q-39 0 -67 -23.5t-29 -66.5h-150z" />
    <glyph glyph-name="uni1EC9" unicode="&#x1ec9;" horiz-adv-x="471" 
d="M119 0v1085h233v-1085h-233zM2 1470q4 103 75.5 157t176.5 54q99 0 170.5 -48.5t71.5 -131.5q0 -18 -4 -35t-8.5 -29.5t-17 -27t-18.5 -21.5t-23.5 -20.5t-23 -17.5t-27 -17.5t-24.5 -15.5q-29 -18 -39 -33t-10 -37v-8h-139v8q0 54 18.5 83t67.5 61q4 2 19.5 12.5
t19.5 13.5t15.5 11.5t15.5 13.5t10 13.5t8 17t2 18.5q0 32 -27 51t-63 19q-39 0 -67 -23.5t-29 -67.5h-150z" />
    <glyph glyph-name="uni1ECA" unicode="&#x1eca;" horiz-adv-x="503" 
d="M129 0v1516h246v-1516h-246zM104 -322q0 62 41 105t105 43q63 0 105 -43t42 -105q0 -60 -42.5 -102.5t-104.5 -42.5q-63 0 -104.5 42.5t-41.5 102.5z" />
    <glyph glyph-name="uni1ECB" unicode="&#x1ecb;" horiz-adv-x="471" 
d="M119 0v1085h233v-1085h-233zM78 1397q0 65 43.5 109t111.5 44q67 0 111.5 -44t44.5 -109t-44.5 -109.5t-111.5 -44.5q-68 0 -111.5 45t-43.5 109zM88 -322q0 63 40.5 105.5t104.5 42.5q63 0 105.5 -43t42.5 -105q0 -60 -42.5 -102.5t-105.5 -42.5t-104 42.5t-41 102.5z
" />
    <glyph glyph-name="uni1ECC" unicode="&#x1ecc;" horiz-adv-x="1705" 
d="M852 -20q-146 0 -271 43.5t-214 118.5t-152.5 174.5t-94 212t-30.5 231.5q0 117 30.5 229t94 211.5t152.5 174t214 118t271 43.5t271.5 -43t215 -117.5t153 -173.5t94 -211.5t30.5 -230.5q0 -120 -30.5 -233t-94 -212.5t-153 -174t-215 -117.5t-271.5 -43zM346 760
q0 -110 34 -211t96 -179.5t160 -125.5t216 -47q119 0 217 46.5t161 124.5t97.5 179t34.5 213q0 110 -34.5 210t-97.5 178t-161 124.5t-217 46.5q-118 0 -216 -47t-160 -125.5t-96 -178t-34 -208.5zM707 -322q0 63 40.5 105.5t104.5 42.5q63 0 105 -43t42 -105
q0 -60 -42.5 -102.5t-104.5 -42.5q-63 0 -104 42.5t-41 102.5z" />
    <glyph glyph-name="uni1ECD" unicode="&#x1ecd;" horiz-adv-x="1312" 
d="M657 -20q-130 0 -236.5 45t-175 122.5t-106 179t-37.5 216.5t37.5 216.5t106 179t175 122.5t236.5 45q131 0 237.5 -45t175.5 -122.5t106.5 -179t37.5 -216.5t-37.5 -216.5t-106.5 -179t-175.5 -122.5t-237.5 -45zM340 543q0 -161 85 -268t232 -107q148 0 234 107t86 268
t-86 268t-234 107q-147 0 -232 -107t-85 -268zM575 -322q0 62 41 105t105 43q63 0 105 -43t42 -105q0 -60 -42 -102.5t-105 -42.5t-104.5 42.5t-41.5 102.5z" />
    <glyph glyph-name="uni1ECE" unicode="&#x1ece;" horiz-adv-x="1705" 
d="M852 -20q-146 0 -271 43.5t-214 118.5t-152.5 174.5t-94 212t-30.5 231.5q0 117 30.5 229t94 211.5t152.5 174t214 118t271 43.5t271.5 -43t215 -117.5t153 -173.5t94 -211.5t30.5 -230.5q0 -120 -30.5 -233t-94 -212.5t-153 -174t-215 -117.5t-271.5 -43zM346 760
q0 -110 34 -211t96 -179.5t160 -125.5t216 -47q119 0 217 46.5t161 124.5t97.5 179t34.5 213q0 110 -34.5 210t-97.5 178t-161 124.5t-217 46.5q-118 0 -216 -47t-160 -125.5t-96 -178t-34 -208.5zM621 1921q4 103 75 157t176 54q99 0 170.5 -48.5t71.5 -131.5
q0 -16 -2.5 -30.5t-9 -28.5t-11 -23.5t-17 -22t-17.5 -18.5t-21.5 -17.5t-21 -15t-24 -15.5t-21.5 -14q-29 -19 -39 -33t-10 -36v-8h-140v8q0 53 18.5 82t67.5 61q4 3 15 10t15.5 10t13.5 9.5t13 10t10.5 10t9.5 11.5t6.5 11.5t5 13.5t1.5 15q0 32 -27 50.5t-63 18.5
q-39 0 -67 -23.5t-29 -66.5h-149z" />
    <glyph glyph-name="uni1ECF" unicode="&#x1ecf;" horiz-adv-x="1316" 
d="M657 -20q-130 0 -236.5 45t-175 122.5t-106 179t-37.5 216.5t37.5 216.5t106 179t175 122.5t236.5 45q131 0 237.5 -45t175.5 -122.5t106.5 -179t37.5 -216.5t-37.5 -216.5t-106.5 -179t-175.5 -122.5t-237.5 -45zM340 543q0 -161 85 -268t232 -107q148 0 234 107t86 268
t-86 268t-234 107q-147 0 -232 -107t-85 -268zM424 1470q4 103 75.5 157t176.5 54q99 0 170.5 -48.5t71.5 -131.5q0 -18 -4 -35t-8.5 -29.5t-17 -27t-18.5 -21.5t-23.5 -20.5t-23 -17.5t-27 -17.5t-24.5 -15.5q-29 -18 -39 -33t-10 -37v-8h-139v8q0 54 18.5 83t67.5 61
q4 2 19.5 12.5t19.5 13.5t15.5 11.5t15.5 13.5t10 13.5t8 17t2 18.5q0 32 -27 51t-63 19q-39 0 -67.5 -24t-29.5 -67h-149z" />
    <glyph glyph-name="uni1ED0" unicode="&#x1ed0;" horiz-adv-x="1705" 
d="M852 -20q-146 0 -271 43.5t-214 118.5t-152.5 174.5t-94 212t-30.5 231.5q0 117 30.5 229t94 211.5t152.5 174t214 118t271 43.5t271.5 -43t215 -117.5t153 -173.5t94 -211.5t30.5 -230.5q0 -120 -30.5 -233t-94 -212.5t-153 -174t-215 -117.5t-271.5 -43zM346 760
q0 -110 34 -211t96 -179.5t160 -125.5t216 -47q119 0 217 46.5t161 124.5t97.5 179t34.5 213q0 110 -34.5 210t-97.5 178t-161 124.5t-217 46.5q-118 0 -216 -47t-160 -125.5t-96 -178t-34 -208.5zM530 1665l220 270h206l220 -270h-191l-133 139l-131 -139h-191zM1071 1905
l123 272h246l-197 -274z" />
    <glyph glyph-name="uni1ED1" unicode="&#x1ed1;" horiz-adv-x="1316" 
d="M657 -20q-130 0 -236.5 45t-175 122.5t-106 179t-37.5 216.5t37.5 216.5t106 179t175 122.5t236.5 45q131 0 237.5 -45t175.5 -122.5t106.5 -179t37.5 -216.5t-37.5 -216.5t-106.5 -179t-175.5 -122.5t-237.5 -45zM336 1214l219 271h207l219 -271h-190l-134 140
l-131 -140h-190zM340 543q0 -161 85 -268t232 -107q148 0 234 107t86 268t-86 268t-234 107q-147 0 -232 -107t-85 -268zM877 1454l122 272h246l-196 -274z" />
    <glyph glyph-name="uni1ED2" unicode="&#x1ed2;" horiz-adv-x="1705" 
d="M852 -20q-146 0 -271 43.5t-214 118.5t-152.5 174.5t-94 212t-30.5 231.5q0 117 30.5 229t94 211.5t152.5 174t214 118t271 43.5t271.5 -43t215 -117.5t153 -173.5t94 -211.5t30.5 -230.5q0 -120 -30.5 -233t-94 -212.5t-153 -174t-215 -117.5t-271.5 -43zM346 760
q0 -110 34 -211t96 -179.5t160 -125.5t216 -47q119 0 217 46.5t161 124.5t97.5 179t34.5 213q0 110 -34.5 210t-97.5 178t-161 124.5t-217 46.5q-118 0 -216 -47t-160 -125.5t-96 -178t-34 -208.5zM530 1665l220 270h206l220 -270h-191l-133 139l-131 -139h-191zM889 2226
h262l123 -284l-180 -3z" />
    <glyph glyph-name="uni1ED3" unicode="&#x1ed3;" horiz-adv-x="1316" 
d="M657 -20q-130 0 -236.5 45t-175 122.5t-106 179t-37.5 216.5t37.5 216.5t106 179t175 122.5t236.5 45q131 0 237.5 -45t175.5 -122.5t106.5 -179t37.5 -216.5t-37.5 -216.5t-106.5 -179t-175.5 -122.5t-237.5 -45zM336 1214l219 271h207l219 -271h-190l-134 140
l-131 -140h-190zM340 543q0 -161 85 -268t232 -107q148 0 234 107t86 268t-86 268t-234 107q-147 0 -232 -107t-85 -268zM694 1776h262l123 -285l-180 -2z" />
    <glyph glyph-name="uni1ED4" unicode="&#x1ed4;" horiz-adv-x="1705" 
d="M852 -20q-146 0 -271 43.5t-214 118.5t-152.5 174.5t-94 212t-30.5 231.5q0 117 30.5 229t94 211.5t152.5 174t214 118t271 43.5t271.5 -43t215 -117.5t153 -173.5t94 -211.5t30.5 -230.5q0 -120 -30.5 -233t-94 -212.5t-153 -174t-215 -117.5t-271.5 -43zM346 760
q0 -110 34 -211t96 -179.5t160 -125.5t216 -47q119 0 217 46.5t161 124.5t97.5 179t34.5 213q0 110 -34.5 210t-97.5 178t-161 124.5t-217 46.5q-118 0 -216 -47t-160 -125.5t-96 -178t-34 -208.5zM530 1665l220 270h206l220 -270h-191l-133 139l-131 -139h-191zM940 2116
q3 94 69 143t162 49q93 0 160.5 -44t67.5 -122q0 -15 -2 -28.5t-8 -25.5t-10.5 -21.5t-15.5 -20t-16 -16t-20 -16t-19.5 -13.5t-21.5 -14t-20 -13q-26 -17 -35.5 -30.5t-9.5 -32.5v-8h-134v8q0 46 16 73.5t64 57.5q3 2 12.5 8.5t13 8.5t11.5 8t11 9t9.5 8.5t9.5 9t7 9
t5.5 10t3 10t1.5 11.5q0 27 -25 43t-59 16q-37 0 -63 -19.5t-27 -57.5h-137z" />
    <glyph glyph-name="uni1ED5" unicode="&#x1ed5;" horiz-adv-x="1316" 
d="M657 -20q-130 0 -236.5 45t-175 122.5t-106 179t-37.5 216.5t37.5 216.5t106 179t175 122.5t236.5 45q131 0 237.5 -45t175.5 -122.5t106.5 -179t37.5 -216.5t-37.5 -216.5t-106.5 -179t-175.5 -122.5t-237.5 -45zM336 1214l219 271h207l219 -271h-190l-134 140
l-131 -140h-190zM340 543q0 -161 85 -268t232 -107q148 0 234 107t86 268t-86 268t-234 107q-147 0 -232 -107t-85 -268zM745 1665q3 94 69.5 143.5t162.5 49.5q93 0 160 -44t67 -122q0 -15 -2 -28.5t-8 -25.5t-10.5 -21.5t-15.5 -20t-16 -16t-20 -16t-19.5 -13.5t-21.5 -14
t-20 -13q-26 -17 -35.5 -31t-9.5 -33v-8h-133v8q0 46 16 73.5t64 57.5q3 2 12.5 8.5t13 8.5t11.5 8t11 9t9.5 8.5t9.5 9t7 9t5.5 10t3 10t1.5 11.5q0 27 -25 43.5t-59 16.5q-36 0 -62.5 -20t-27.5 -58h-138z" />
    <glyph glyph-name="uni1ED6" unicode="&#x1ed6;" horiz-adv-x="1705" 
d="M852 -20q-146 0 -271 43.5t-214 118.5t-152.5 174.5t-94 212t-30.5 231.5q0 117 30.5 229t94 211.5t152.5 174t214 118t271 43.5t271.5 -43t215 -117.5t153 -173.5t94 -211.5t30.5 -230.5q0 -120 -30.5 -233t-94 -212.5t-153 -174t-215 -117.5t-271.5 -43zM346 760
q0 -110 34 -211t96 -179.5t160 -125.5t216 -47q119 0 217 46.5t161 124.5t97.5 179t34.5 213q0 110 -34.5 210t-97.5 178t-161 124.5t-217 46.5q-118 0 -216 -47t-160 -125.5t-96 -178t-34 -208.5zM528 1665l220 270h206l220 -270h-191l-133 139l-131 -139h-191zM539 2015
q0 47 8.5 87.5t27 76.5t54.5 57t86 21q56 0 105.5 -26.5t87 -52.5t61.5 -26q30 0 45.5 26.5t15.5 70.5h129q1 -64 -13 -116.5t-55 -91t-106 -38.5q-42 0 -83 17.5t-66.5 38t-54.5 38t-50 17.5q-31 0 -47 -27.5t-16 -71.5h-129z" />
    <glyph glyph-name="uni1ED7" unicode="&#x1ed7;" horiz-adv-x="1316" 
d="M657 -20q-130 0 -236.5 45t-175 122.5t-106 179t-37.5 216.5t37.5 216.5t106 179t175 122.5t236.5 45q131 0 237.5 -45t175.5 -122.5t106.5 -179t37.5 -216.5t-37.5 -216.5t-106.5 -179t-175.5 -122.5t-237.5 -45zM334 1214l219 271h207l219 -271h-191l-133 140
l-131 -140h-190zM340 543q0 -161 85 -268t232 -107q148 0 234 107t86 268t-86 268t-234 107q-147 0 -232 -107t-85 -268zM344 1565q0 47 8.5 87.5t27 76.5t54.5 56.5t86 20.5q44 0 85 -16t67 -36t54 -36t48 -16q30 0 46 26t16 70h129q1 -64 -13 -116.5t-55 -91t-106 -38.5
q-42 0 -83 17.5t-66.5 38t-54.5 38t-50 17.5q-31 0 -47.5 -27.5t-16.5 -70.5h-129z" />
    <glyph glyph-name="uni1ED8" unicode="&#x1ed8;" horiz-adv-x="1705" 
d="M852 -20q-146 0 -271 43.5t-214 118.5t-152.5 174.5t-94 212t-30.5 231.5q0 117 30.5 229t94 211.5t152.5 174t214 118t271 43.5t271.5 -43t215 -117.5t153 -173.5t94 -211.5t30.5 -230.5q0 -120 -30.5 -233t-94 -212.5t-153 -174t-215 -117.5t-271.5 -43zM346 760
q0 -110 34 -211t96 -179.5t160 -125.5t216 -47q119 0 217 46.5t161 124.5t97.5 179t34.5 213q0 110 -34.5 210t-97.5 178t-161 124.5t-217 46.5q-118 0 -216 -47t-160 -125.5t-96 -178t-34 -208.5zM530 1665l220 270h206l220 -270h-191l-133 139l-131 -139h-191zM707 -322
q0 63 40.5 105.5t104.5 42.5q63 0 105 -43t42 -105q0 -60 -42.5 -102.5t-104.5 -42.5q-63 0 -104 42.5t-41 102.5z" />
    <glyph glyph-name="uni1ED9" unicode="&#x1ed9;" horiz-adv-x="1316" 
d="M657 -20q-130 0 -236.5 45t-175 122.5t-106 179t-37.5 216.5t37.5 216.5t106 179t175 122.5t236.5 45q131 0 237.5 -45t175.5 -122.5t106.5 -179t37.5 -216.5t-37.5 -216.5t-106.5 -179t-175.5 -122.5t-237.5 -45zM334 1214l229 279h193l231 -279h-196l-132 142
l-131 -142h-194zM340 543q0 -161 85 -268t232 -107q148 0 234 107t86 268t-86 268t-234 107q-147 0 -232 -107t-85 -268zM512 -322q0 63 40.5 105.5t104.5 42.5q63 0 105.5 -43t42.5 -105q0 -60 -42.5 -102.5t-105.5 -42.5t-104 42.5t-41 102.5z" />
    <glyph glyph-name="uni1EDA" unicode="&#x1eda;" horiz-adv-x="1728" 
d="M852 -20q-146 0 -271 43.5t-214 118.5t-152.5 174.5t-94 212t-30.5 231.5q0 117 30.5 229t94 211.5t152.5 174t214 118t271 43.5h6q68 0 159.5 -9t125.5 -9q54 0 89 9t62.5 34t40 71.5t13.5 118.5h208q-1 -175 -73 -257.5t-195 -82.5q158 -106 243 -280.5t85 -370.5
q0 -120 -30.5 -233t-94 -212.5t-153 -174t-215 -117.5t-271.5 -43zM346 760q0 -110 34 -211t96 -179.5t160 -125.5t216 -47q119 0 217 46.5t161 124.5t97.5 179t34.5 213q0 110 -34.5 210t-97.5 178t-161 124.5t-217 46.5q-118 0 -216 -47t-160 -125.5t-96 -178t-34 -208.5z
M778 1673l115 301h264l-199 -303z" />
    <glyph glyph-name="uni1EDB" unicode="&#x1edb;" horiz-adv-x="1333" 
d="M657 -20q-130 0 -236.5 45t-175 122.5t-106 179t-37.5 216.5t37 216.5t106 179t175 122.5t235 45h2h7q61 0 132.5 -7t98.5 -7q77 0 118 46.5t42 178.5h188q0 -161 -62.5 -240.5t-164.5 -87.5q96 -76 147 -192.5t51 -253.5q0 -115 -37.5 -216.5t-106.5 -179t-175.5 -122.5
t-237.5 -45zM340 543q0 -161 85 -268t232 -107q148 0 234 107t86 268t-86 268t-234 107q-147 0 -232 -107t-85 -268zM565 1243l115 301h264l-199 -303z" />
    <glyph glyph-name="uni1EDC" unicode="&#x1edc;" horiz-adv-x="1728" 
d="M852 -20q-146 0 -271 43.5t-214 118.5t-152.5 174.5t-94 212t-30.5 231.5q0 117 30.5 229t94 211.5t152.5 174t214 118t271 43.5h6q68 0 159.5 -9t125.5 -9q54 0 89 9t62.5 34t40 71.5t13.5 118.5h208q-1 -175 -73 -257.5t-195 -82.5q158 -106 243 -280.5t85 -370.5
q0 -120 -30.5 -233t-94 -212.5t-153 -174t-215 -117.5t-271.5 -43zM346 760q0 -110 34 -211t96 -179.5t160 -125.5t216 -47q119 0 217 46.5t161 124.5t97.5 179t34.5 213q0 110 -34.5 210t-97.5 178t-161 124.5t-217 46.5q-118 0 -216 -47t-160 -125.5t-96 -178t-34 -208.5z
M553 1958h262l123 -285l-180 -2z" />
    <glyph glyph-name="uni1EDD" unicode="&#x1edd;" horiz-adv-x="1345" 
d="M657 -20q-130 0 -236.5 45t-175 122.5t-106 179t-37.5 216.5t37 216.5t106 179t175 122.5t235 45h2h7q61 0 132.5 -7t98.5 -7q77 0 118 46.5t42 178.5h188q0 -161 -62.5 -240.5t-164.5 -87.5q96 -76 147 -192.5t51 -253.5q0 -115 -37.5 -216.5t-106.5 -179t-175.5 -122.5
t-237.5 -45zM340 543q0 -161 85 -268t232 -107q148 0 234 107t86 268t-86 268t-234 107q-147 0 -232 -107t-85 -268zM350 1528h262l123 -285l-180 -2z" />
    <glyph glyph-name="uni1EDE" unicode="&#x1ede;" horiz-adv-x="1728" 
d="M852 -20q-146 0 -271 43.5t-214 118.5t-152.5 174.5t-94 212t-30.5 231.5q0 117 30.5 229t94 211.5t152.5 174t214 118t271 43.5h6q68 0 159.5 -9t125.5 -9q54 0 89 9t62.5 34t40 71.5t13.5 118.5h208q-1 -175 -73 -257.5t-195 -82.5q158 -106 243 -280.5t85 -370.5
q0 -120 -30.5 -233t-94 -212.5t-153 -174t-215 -117.5t-271.5 -43zM346 760q0 -110 34 -211t96 -179.5t160 -125.5t216 -47q119 0 217 46.5t161 124.5t97.5 179t34.5 213q0 110 -34.5 210t-97.5 178t-161 124.5t-217 46.5q-118 0 -216 -47t-160 -125.5t-96 -178t-34 -208.5z
M625 1901q4 103 75.5 156.5t176.5 53.5q98 0 169.5 -48t71.5 -132q0 -18 -4.5 -35t-8.5 -29t-16.5 -27t-17.5 -22t-24 -21t-23 -17t-27 -17.5t-24 -15.5q-29 -18 -39 -33t-10 -37v-8h-140v8q0 54 18.5 83t67.5 61q5 3 19.5 12.5t19.5 13t16 11.5t15.5 13.5t10.5 14t8 17
t2 18.5q0 32 -27.5 51t-63.5 19q-39 0 -67 -23.5t-29 -66.5h-149z" />
    <glyph glyph-name="uni1EDF" unicode="&#x1edf;" horiz-adv-x="1333" 
d="M657 -20q-130 0 -236.5 45t-175 122.5t-106 179t-37.5 216.5t37 216.5t106 179t175 122.5t235 45h2h7q61 0 132.5 -7t98.5 -7q77 0 118 46.5t42 178.5h188q0 -161 -62.5 -240.5t-164.5 -87.5q96 -76 147 -192.5t51 -253.5q0 -115 -37.5 -216.5t-106.5 -179t-175.5 -122.5
t-237.5 -45zM340 543q0 -161 85 -268t232 -107q148 0 234 107t86 268t-86 268t-234 107q-147 0 -232 -107t-85 -268zM412 1470q4 103 75.5 157t176.5 54q98 0 169.5 -48t71.5 -132q0 -18 -4.5 -35t-8.5 -29t-16.5 -27t-17.5 -22t-24 -21t-23 -17t-27 -17.5t-24 -15.5
q-29 -18 -39 -33t-10 -37v-8h-140v8q0 54 18.5 83t67.5 61q5 3 19.5 12.5t19.5 13t16 11.5t15.5 13.5t10.5 14t8 17t2 18.5q0 32 -27.5 51t-63.5 19q-39 0 -67 -23.5t-29 -67.5h-149z" />
    <glyph glyph-name="uni1EE0" unicode="&#x1ee0;" horiz-adv-x="1728" 
d="M852 -20q-146 0 -271 43.5t-214 118.5t-152.5 174.5t-94 212t-30.5 231.5q0 117 30.5 229t94 211.5t152.5 174t214 118t271 43.5h6q68 0 159.5 -9t125.5 -9q54 0 89 9t62.5 34t40 71.5t13.5 118.5h208q-1 -175 -73 -257.5t-195 -82.5q158 -106 243 -280.5t85 -370.5
q0 -120 -30.5 -233t-94 -212.5t-153 -174t-215 -117.5t-271.5 -43zM346 760q0 -110 34 -211t96 -179.5t160 -125.5t216 -47q119 0 217 46.5t161 124.5t97.5 179t34.5 213q0 110 -34.5 210t-97.5 178t-161 124.5t-217 46.5q-118 0 -216 -47t-160 -125.5t-96 -178t-34 -208.5z
M524 1692q0 54 9 99t29 85t59 63t94 23q51 0 95 -19.5t69 -43t54 -43t54 -19.5q61 0 64 115h141q0 -54 -9 -99.5t-29 -86t-59 -64t-94 -23.5q-41 0 -76.5 13.5t-60 32.5t-46 37.5t-43.5 32t-44 13.5q-62 0 -65 -116h-142z" />
    <glyph glyph-name="uni1EE1" unicode="&#x1ee1;" horiz-adv-x="1333" 
d="M657 -20q-130 0 -236.5 45t-175 122.5t-106 179t-37.5 216.5t37 216.5t106 179t175 122.5t235 45h2h7q61 0 132.5 -7t98.5 -7q77 0 118 46.5t42 178.5h188q0 -161 -62.5 -240.5t-164.5 -87.5q96 -76 147 -192.5t51 -253.5q0 -115 -37.5 -216.5t-106.5 -179t-175.5 -122.5
t-237.5 -45zM336 1243q0 47 8.5 87.5t27 76.5t54.5 57t86 21q56 0 105.5 -26.5t87 -52.5t61.5 -26q30 0 45.5 26.5t15.5 70.5h129q1 -64 -13 -116.5t-55 -91t-106 -38.5q-42 0 -83 17t-66.5 38t-54.5 38t-50 17q-31 0 -47 -27t-16 -71h-129zM340 543q0 -161 85 -268
t232 -107q148 0 234 107t86 268t-86 268t-234 107q-147 0 -232 -107t-85 -268z" />
    <glyph glyph-name="uni1EE2" unicode="&#x1ee2;" horiz-adv-x="1728" 
d="M852 -20q-146 0 -271 43.5t-214 118.5t-152.5 174.5t-94 212t-30.5 231.5q0 117 30.5 229t94 211.5t152.5 174t214 118t271 43.5h6q68 0 159.5 -9t125.5 -9q54 0 89 9t62.5 34t40 71.5t13.5 118.5h208q-1 -175 -73 -257.5t-195 -82.5q158 -106 243 -280.5t85 -370.5
q0 -120 -30.5 -233t-94 -212.5t-153 -174t-215 -117.5t-271.5 -43zM346 760q0 -110 34 -211t96 -179.5t160 -125.5t216 -47q119 0 217 46.5t161 124.5t97.5 179t34.5 213q0 110 -34.5 210t-97.5 178t-161 124.5t-217 46.5q-118 0 -216 -47t-160 -125.5t-96 -178t-34 -208.5z
M713 -322q0 63 40.5 105.5t104.5 42.5q63 0 105.5 -43t42.5 -105q0 -60 -42.5 -102.5t-105.5 -42.5t-104 42.5t-41 102.5z" />
    <glyph glyph-name="uni1EE3" unicode="&#x1ee3;" horiz-adv-x="1333" 
d="M657 -20q-130 0 -236.5 45t-175 122.5t-106 179t-37.5 216.5t37 216.5t106 179t175 122.5t235 45h2h7q61 0 132.5 -7t98.5 -7q77 0 118 46.5t42 178.5h188q0 -161 -62.5 -240.5t-164.5 -87.5q96 -76 147 -192.5t51 -253.5q0 -115 -37.5 -216.5t-106.5 -179t-175.5 -122.5
t-237.5 -45zM340 543q0 -161 85 -268t232 -107q148 0 234 107t86 268t-86 268t-234 107q-147 0 -232 -107t-85 -268zM508 -322q0 63 40.5 105.5t104.5 42.5q63 0 105.5 -43t42.5 -105q0 -60 -42.5 -102.5t-105.5 -42.5t-104 42.5t-41 102.5z" />
    <glyph glyph-name="uni1EE4" unicode="&#x1ee4;" horiz-adv-x="1452" 
d="M725 -20q-131 0 -240 37.5t-188.5 109.5t-123.5 182.5t-44 249.5v957h246v-953q0 -170 89.5 -273.5t260.5 -103.5q172 0 262 103.5t90 273.5v953h246v-957q0 -277 -164 -428t-434 -151zM635 -322q0 63 40.5 105.5t104.5 42.5q63 0 105.5 -43t42.5 -105
q0 -60 -42.5 -102.5t-105.5 -42.5t-104 42.5t-41 102.5z" />
    <glyph glyph-name="uni1EE5" unicode="&#x1ee5;" horiz-adv-x="1198" 
d="M496 -20q-94 0 -166.5 32.5t-115 87.5t-64 123t-21.5 144v718h233v-679q0 -109 51.5 -174.5t159.5 -65.5q134 0 198.5 96t64.5 258v565h233v-1085h-233v172q-11 -22 -25 -42.5t-43.5 -49t-64.5 -49.5t-89.5 -36t-117.5 -15zM420 -322q0 63 40.5 105.5t104.5 42.5
q63 0 105.5 -43t42.5 -105q0 -60 -42.5 -102.5t-105.5 -42.5t-104 42.5t-41 102.5z" />
    <glyph glyph-name="uni1EE6" unicode="&#x1ee6;" horiz-adv-x="1400" 
d="M725 -20q-131 0 -240 37.5t-188.5 109.5t-123.5 182.5t-44 249.5v957h246v-953q0 -170 89.5 -273.5t260.5 -103.5q172 0 262 103.5t90 273.5v953h246v-957q0 -277 -164 -428t-434 -151zM461 1901q4 103 75.5 156.5t176.5 53.5q98 0 169.5 -48t71.5 -132q0 -18 -4.5 -35
t-8.5 -29t-16.5 -27t-17.5 -22t-24 -21t-23 -17t-27 -17.5t-24 -15.5q-29 -18 -39 -33t-10 -37v-8h-139v8q0 54 18.5 83t67.5 61q4 2 19.5 12.5t19.5 13.5t15.5 11.5t15.5 13.5t10 13.5t8 17t2 18.5q0 32 -27 51t-63 19q-40 0 -68 -23.5t-29 -66.5h-149z" />
    <glyph glyph-name="uni1EE7" unicode="&#x1ee7;" horiz-adv-x="1181" 
d="M496 -20q-94 0 -166.5 32.5t-115 87.5t-64 123t-21.5 144v718h233v-679q0 -109 51.5 -174.5t159.5 -65.5q134 0 198.5 96t64.5 258v565h233v-1085h-233v172q-11 -22 -25 -42.5t-43.5 -49t-64.5 -49.5t-89.5 -36t-117.5 -15zM360 1470q4 103 75.5 157t176.5 54
q99 0 170.5 -48.5t71.5 -131.5q0 -18 -4.5 -35t-8.5 -29t-16.5 -27t-17.5 -22t-24 -21t-23 -17t-27 -17.5t-24 -15.5q-29 -19 -39.5 -33.5t-10.5 -36.5v-8h-139v8q0 54 18.5 83t67.5 61q4 2 19.5 12.5t19.5 13.5t15.5 11.5t15.5 13.5t10 13.5t8 17t2 18.5q0 32 -27 51
t-63 19q-39 0 -67 -23.5t-29 -67.5h-150z" />
    <glyph glyph-name="uni1EE8" unicode="&#x1ee8;" horiz-adv-x="1400" 
d="M725 -20q-131 0 -240 37.5t-188.5 109.5t-123.5 182.5t-44 249.5v957h246v-953q0 -170 89.5 -273.5t260.5 -103.5q172 0 262 103.5t90 273.5v830h-33v123h84q44 0 74 9.5t55 35t37 73.5t13 121h204q-3 -270 -188 -338v-858q0 -277 -164 -428t-434 -151zM616 1673l115 301
h264l-198 -303z" />
    <glyph glyph-name="uni1EE9" unicode="&#x1ee9;" horiz-adv-x="1198" 
d="M496 -20q-94 0 -166.5 32.5t-115 87.5t-64 123t-21.5 144v718h233v-679q0 -109 51.5 -174.5t159.5 -65.5q134 0 198.5 96t64.5 258v565h84q42 0 70.5 9t52 33t35 71t12.5 119h190q-1 -151 -55.5 -229t-155.5 -103v-985h-233v172q-11 -22 -25 -42.5t-43.5 -49t-64.5 -49.5
t-89.5 -36t-117.5 -15zM508 1243l115 301h264l-199 -303z" />
    <glyph glyph-name="uni1EEA" unicode="&#x1eea;" horiz-adv-x="1452" 
d="M725 -20q-131 0 -240 37.5t-188.5 109.5t-123.5 182.5t-44 249.5v957h246v-953q0 -170 89.5 -273.5t260.5 -103.5q172 0 262 103.5t90 273.5v830h-33v123h84q44 0 74 9.5t55 35t37 73.5t13 121h204q-3 -270 -188 -338v-858q0 -277 -164 -428t-434 -151zM467 1958h262
l123 -285l-180 -2z" />
    <glyph glyph-name="uni1EEB" unicode="&#x1eeb;" horiz-adv-x="1198" 
d="M496 -20q-94 0 -166.5 32.5t-115 87.5t-64 123t-21.5 144v718h233v-679q0 -109 51.5 -174.5t159.5 -65.5q134 0 198.5 96t64.5 258v565h84q42 0 70.5 9t52 33t35 71t12.5 119h190q-1 -151 -55.5 -229t-155.5 -103v-985h-233v172q-11 -22 -25 -42.5t-43.5 -49t-64.5 -49.5
t-89.5 -36t-117.5 -15zM283 1528h262l123 -285l-181 -2z" />
    <glyph glyph-name="uni1EEC" unicode="&#x1eec;" horiz-adv-x="1400" 
d="M725 -20q-131 0 -240 37.5t-188.5 109.5t-123.5 182.5t-44 249.5v957h246v-953q0 -170 89.5 -273.5t260.5 -103.5q172 0 262 103.5t90 273.5v830h-33v123h84q44 0 74 9.5t55 35t37 73.5t13 121h204q-3 -270 -188 -338v-858q0 -277 -164 -428t-434 -151zM465 1901
q4 103 75.5 156.5t176.5 53.5q98 0 169.5 -48t71.5 -132q0 -18 -4.5 -35t-8.5 -29t-16.5 -27t-17.5 -22t-24 -21t-23 -17t-27 -17.5t-24 -15.5q-29 -18 -39 -33t-10 -37v-8h-139v8q0 54 18.5 83t67.5 61q4 2 19.5 12.5t19.5 13.5t15.5 11.5t15.5 13.5t10 13.5t8 17t2 18.5
q0 32 -27 51t-63 19q-40 0 -68 -23.5t-29 -66.5h-149z" />
    <glyph glyph-name="uni1EED" unicode="&#x1eed;" horiz-adv-x="1181" 
d="M496 -20q-94 0 -166.5 32.5t-115 87.5t-64 123t-21.5 144v718h233v-679q0 -109 51.5 -174.5t159.5 -65.5q134 0 198.5 96t64.5 258v565h84q42 0 70.5 9t52 33t35 71t12.5 119h190q-1 -151 -55.5 -229t-155.5 -103v-985h-233v172q-11 -22 -25 -42.5t-43.5 -49t-64.5 -49.5
t-89.5 -36t-117.5 -15zM356 1470q4 103 75.5 157t176.5 54q99 0 170.5 -48.5t71.5 -131.5q0 -18 -4.5 -35t-8.5 -29t-16.5 -27t-17.5 -22t-24 -21t-23 -17t-27 -17.5t-24 -15.5q-29 -19 -39.5 -33.5t-10.5 -36.5v-8h-139v8q0 54 18.5 83t67.5 61q4 2 19.5 12.5t19.5 13.5
t15.5 11.5t15.5 13.5t10 13.5t8 17t2 18.5q0 32 -27 51t-63 19q-39 0 -67 -23.5t-29 -67.5h-150z" />
    <glyph glyph-name="uni1EEE" unicode="&#x1eee;" horiz-adv-x="1400" 
d="M725 -20q-131 0 -240 37.5t-188.5 109.5t-123.5 182.5t-44 249.5v957h246v-953q0 -170 89.5 -273.5t260.5 -103.5q172 0 262 103.5t90 273.5v830h-33v123h84q44 0 74 9.5t55 35t37 73.5t13 121h204q-3 -270 -188 -338v-858q0 -277 -164 -428t-434 -151zM362 1692
q0 54 9 99t29 85t59 63t94 23q51 0 95 -19.5t69 -43t54 -43t54 -19.5q61 0 64 115h141q0 -54 -8.5 -99.5t-29 -86.5t-59 -64t-93.5 -23q-50 0 -93 20t-68 44.5t-54.5 44.5t-55.5 20q-62 0 -65 -116h-142z" />
    <glyph glyph-name="uni1EEF" unicode="&#x1eef;" horiz-adv-x="1198" 
d="M496 -20q-94 0 -166.5 32.5t-115 87.5t-64 123t-21.5 144v718h233v-679q0 -109 51.5 -174.5t159.5 -65.5q134 0 198.5 96t64.5 258v565h84q42 0 70.5 9t52 33t35 71t12.5 119h190q-1 -151 -55.5 -229t-155.5 -103v-985h-233v172q-11 -22 -25 -42.5t-43.5 -49t-64.5 -49.5
t-89.5 -36t-117.5 -15zM254 1262q0 54 8.5 99t29 85t59 63t93.5 23q51 0 95 -19.5t69.5 -43t54.5 -43t54 -19.5q60 0 63 115h142q0 -54 -9 -99.5t-29 -86t-59 -64t-94 -23.5q-41 0 -76.5 13.5t-60 32.5t-46 37.5t-43.5 32t-44 13.5q-63 0 -66 -116h-141z" />
    <glyph glyph-name="uni1EF0" unicode="&#x1ef0;" horiz-adv-x="1452" 
d="M725 -20q-131 0 -240 37.5t-188.5 109.5t-123.5 182.5t-44 249.5v957h246v-953q0 -170 89.5 -273.5t260.5 -103.5q172 0 262 103.5t90 273.5v830h-33v123h84q44 0 74 9.5t55 35t37 73.5t13 121h204q-3 -270 -188 -338v-858q0 -277 -164 -428t-434 -151zM700 -322
q0 62 41 105t105 43q63 0 105 -43t42 -105q0 -60 -42.5 -102.5t-104.5 -42.5q-63 0 -104.5 42.5t-41.5 102.5z" />
    <glyph glyph-name="uni1EF1" unicode="&#x1ef1;" horiz-adv-x="1198" 
d="M496 -20q-94 0 -166.5 32.5t-115 87.5t-64 123t-21.5 144v718h233v-679q0 -109 51.5 -174.5t159.5 -65.5q134 0 198.5 96t64.5 258v565h84q42 0 70.5 9t52 33t35 71t12.5 119h190q-1 -151 -55.5 -229t-155.5 -103v-985h-233v172q-11 -22 -25 -42.5t-43.5 -49t-64.5 -49.5
t-89.5 -36t-117.5 -15zM442 -322q0 62 41 105t105 43q63 0 105 -43t42 -105q0 -60 -42.5 -102.5t-104.5 -42.5q-63 0 -104.5 42.5t-41.5 102.5z" />
    <glyph glyph-name="Ygrave" unicode="&#x1ef2;" horiz-adv-x="1390" 
d="M573 0v590l-528 926h274l386 -707l382 707h259l-529 -926v-590h-244zM395 1954h262l123 -285l-180 -2z" />
    <glyph glyph-name="ygrave" unicode="&#x1ef3;" horiz-adv-x="1183" 
d="M268 -412l207 480l-414 1017h242l297 -755l287 755h235l-610 -1497h-244zM287 1528h262l123 -285l-180 -2z" />
    <glyph glyph-name="uni1EF4" unicode="&#x1ef4;" horiz-adv-x="1390" 
d="M573 0v590l-528 926h274l386 -707l382 707h259l-529 -926v-590h-244zM549 -322q0 63 40.5 105.5t104.5 42.5q63 0 105.5 -43t42.5 -105q0 -60 -42.5 -102.5t-105.5 -42.5t-104 42.5t-41 102.5z" />
    <glyph glyph-name="uni1EF5" unicode="&#x1ef5;" horiz-adv-x="1183" 
d="M268 -412l207 480l-414 1017h242l297 -755l287 755h235l-610 -1497h-244zM739 -322q0 62 41 105t105 43q63 0 105 -43t42 -105q0 -60 -42 -102.5t-105 -42.5t-104.5 42.5t-41.5 102.5z" />
    <glyph glyph-name="uni1EF6" unicode="&#x1ef6;" horiz-adv-x="1390" 
d="M573 0v590l-528 926h274l386 -707l382 707h259l-529 -926v-590h-244zM469 1894q4 103 75.5 157t176.5 54q99 0 170.5 -48.5t71.5 -131.5q0 -18 -4 -35t-8.5 -29.5t-17 -27t-18.5 -21.5t-23.5 -20.5t-23 -17.5t-27 -17.5t-24.5 -15.5q-29 -18 -39 -33t-10 -37v-8h-139v8
q0 54 18.5 83t67.5 61q4 2 19.5 12.5t19.5 13.5t15.5 11.5t15.5 13.5t10 13.5t8 17t2 18.5q0 32 -27 51t-63 19q-39 0 -67.5 -24t-29.5 -67h-149z" />
    <glyph glyph-name="uni1EF7" unicode="&#x1ef7;" horiz-adv-x="1183" 
d="M268 -412l207 480l-414 1017h242l297 -755l287 755h235l-610 -1497h-244zM360 1470q4 103 75.5 157t176.5 54q99 0 170.5 -48.5t71.5 -131.5q0 -18 -4.5 -35t-8.5 -29t-16.5 -27t-17.5 -22t-24 -21t-23 -17t-27 -17.5t-24 -15.5q-29 -19 -39.5 -33.5t-10.5 -36.5v-8h-139
v8q0 54 18.5 83t67.5 61q4 2 19.5 12.5t19.5 13.5t15.5 11.5t15.5 13.5t10 13.5t8 17t2 18.5q0 32 -27 51t-63 19q-39 0 -67 -23.5t-29 -67.5h-150z" />
    <glyph glyph-name="uni1EF8" unicode="&#x1ef8;" horiz-adv-x="1390" 
d="M573 0v590l-528 926h274l386 -707l382 707h259l-529 -926v-590h-244zM367 1688q0 54 8.5 99t29 85t59 63t93.5 23q51 0 95 -19.5t69 -43t54 -43t54 -19.5q61 0 64 115h141q0 -54 -8.5 -99.5t-29 -86.5t-59 -64t-93.5 -23q-50 0 -93 20t-68 44.5t-54.5 44.5t-55.5 20
q-62 0 -65 -116h-141z" />
    <glyph glyph-name="uni1EF9" unicode="&#x1ef9;" horiz-adv-x="1183" 
d="M268 -412l207 480l-414 1017h242l297 -755l287 755h235l-610 -1497h-244zM258 1262q0 54 9 99t29 85t59 63t94 23q51 0 95 -19.5t69 -43t54 -43t54 -19.5q60 0 63 115h142q0 -54 -9 -99.5t-29 -86t-59 -64t-94 -23.5q-41 0 -76.5 13.5t-60 32.5t-46 37.5t-43.5 32
t-44 13.5q-63 0 -66 -116h-141z" />
    <glyph glyph-name="endash" unicode="&#x2013;" horiz-adv-x="1185" 
d="M127 594v190h932v-190h-932z" />
    <glyph glyph-name="emdash" unicode="&#x2014;" horiz-adv-x="1505" 
d="M104 594v190h1299v-190h-1299z" />
    <glyph glyph-name="quoteleft" unicode="&#x2018;" horiz-adv-x="471" 
d="M381 1575l-111 -256q54 -11 87.5 -52t33.5 -98q0 -68 -46.5 -110.5t-113.5 -42.5q-68 0 -113.5 41.5t-45.5 105.5q0 47 23 104t100 212l47 96h139z" />
    <glyph glyph-name="quoteright" unicode="&#x2019;" horiz-adv-x="507" 
d="M100 987l111 256q-54 11 -87.5 52t-33.5 98q0 68 46.5 110.5t113.5 42.5q68 0 114 -41.5t46 -105.5q0 -47 -23 -104t-100 -212l-47 -96h-140z" />
    <glyph glyph-name="quotesinglbase" unicode="&#x201a;" horiz-adv-x="610" 
d="M137 -262l127 252q-57 9 -93 52t-36 103q0 70 47 114t115 44q71 0 118.5 -43t47.5 -115q0 -14 -2 -28t-8 -32.5t-12 -33t-19 -42t-22.5 -46.5t-30 -59.5t-35.5 -69.5l-49 -96h-148z" />
    <glyph glyph-name="quotedblleft" unicode="&#x201c;" horiz-adv-x="854" 
d="M778 1575l-110 -256q54 -11 87 -52t33 -98q0 -68 -46 -110.5t-113 -42.5q-68 0 -114 41.5t-46 105.5q0 47 23 104t100 212l47 96h139zM68 1163q0 47 23 105t99 211l48 96h139l-111 -256q54 -11 87.5 -52t33.5 -98q0 -68 -46.5 -110.5t-113.5 -42.5q-68 0 -113.5 41.5
t-45.5 105.5z" />
    <glyph glyph-name="quotedblright" unicode="&#x201d;" horiz-adv-x="878" 
d="M86 987l111 256q-54 11 -87.5 52t-33.5 98q0 68 46.5 110.5t113.5 42.5q68 0 113.5 -41.5t45.5 -105.5q0 -47 -23 -104t-100 -212l-47 -96h-139zM477 1393q0 68 46.5 110.5t113.5 42.5q68 0 114 -41.5t46 -105.5q0 -47 -23 -104t-100 -212l-47 -96h-140l111 256
q-54 11 -87.5 52t-33.5 98z" />
    <glyph glyph-name="quotedblbase" unicode="&#x201e;" horiz-adv-x="991" 
d="M145 -266l111 256q-54 11 -87.5 51.5t-33.5 97.5q0 68 46.5 111t113.5 43q68 0 114 -42t46 -106q0 -47 -22.5 -103t-100.5 -212l-47 -96h-140zM537 139q0 68 46 111t113 43q68 0 114 -42t46 -106q0 -47 -22.5 -103t-100.5 -212l-47 -96h-139l110 256q-54 11 -87 51.5
t-33 97.5z" />
    <glyph glyph-name="dagger" unicode="&#x2020;" horiz-adv-x="1150" 
d="M475 471v637h-371v172h371v338h203v-338h369v-172h-369v-637h-203z" />
    <glyph glyph-name="daggerdbl" unicode="&#x2021;" horiz-adv-x="1150" 
d="M475 471v277h-371v174h371v245h-371v174h371v277h203v-277h369v-174h-369v-245h369v-174h-369v-277h-203z" />
    <glyph glyph-name="bullet" unicode="&#x2022;" horiz-adv-x="1167" 
d="M586 512q-127 0 -208 84t-81 205q0 119 81 200.5t208 81.5q122 0 203 -82t81 -200q0 -120 -81.5 -204.5t-202.5 -84.5z" />
    <glyph glyph-name="ellipsis" unicode="&#x2026;" horiz-adv-x="1777" 
d="M297 -20q-71 0 -116.5 47t-45.5 114t45.5 113.5t116.5 46.5q68 0 114 -46.5t46 -113.5t-46 -114t-114 -47zM727 141q0 67 45.5 113.5t116.5 46.5q68 0 114 -46.5t46 -113.5t-46 -114t-114 -47q-71 0 -116.5 47t-45.5 114zM1319 141q0 67 45.5 113.5t116.5 46.5
q68 0 113.5 -46.5t45.5 -113.5t-45.5 -114t-113.5 -47q-71 0 -116.5 47t-45.5 114z" />
    <glyph glyph-name="perthousand" unicode="&#x2030;" horiz-adv-x="2512" 
d="M2095 -20q-141 0 -234.5 89t-93.5 230t93.5 231.5t234.5 90.5t233.5 -90.5t92.5 -231.5q0 -140 -92.5 -229.5t-233.5 -89.5zM92 1167q0 96 37.5 178t119.5 136.5t195 54.5q85 0 153.5 -31t111 -84t64.5 -118t22 -136q0 -97 -37.5 -179.5t-119 -136.5t-194.5 -54
q-85 0 -154 31t-111 83.5t-64.5 118t-22.5 137.5zM270 1167q0 -97 45.5 -160t128.5 -63t128.5 63t45.5 160q0 96 -45 157.5t-129 61.5t-129 -61.5t-45 -157.5zM336 0l899 1516h188l-897 -1516h-190zM967 350q0 96 37.5 178t119.5 136.5t195 54.5q85 0 153.5 -31t110.5 -84
t64 -118t22 -136q0 -72 -22 -137.5t-64 -118t-110.5 -83.5t-153.5 -31t-154 31t-111 83.5t-64.5 118t-22.5 137.5zM1145 350q0 -97 44.5 -159t127.5 -62t129.5 62.5t46.5 158.5q0 97 -46 159t-130 62q-83 0 -127.5 -62t-44.5 -159zM1939 299q0 -72 45 -117t111 -45t110 45
t44 117t-44 117t-110 45t-111 -45t-45 -117z" />
    <glyph glyph-name="guilsinglleft" unicode="&#x2039;" horiz-adv-x="854" 
d="M774 1081l-438 -438l438 -440h-252l-444 440l444 438h252z" />
    <glyph glyph-name="guilsinglright" unicode="&#x203a;" horiz-adv-x="854" 
d="M80 203l438 438l-438 440h254l442 -440l-442 -438h-254z" />
    <glyph glyph-name="fraction" unicode="&#x2044;" horiz-adv-x="1159" 
d="M61 0l863 1434h202l-864 -1434h-201z" />
    <glyph glyph-name="uni2070" unicode="&#x2070;" horiz-adv-x="899" 
d="M457 825q-165 0 -262 121t-97 301q0 181 97 301.5t262 120.5q164 0 262 -121.5t98 -300.5t-98 -300.5t-262 -121.5zM301 1247q0 -116 42.5 -181t113.5 -65q70 0 113.5 65.5t43.5 180.5q0 118 -43 184t-114 66q-70 0 -113 -66t-43 -184z" />
    <glyph glyph-name="uni2074" unicode="&#x2074;" horiz-adv-x="956" 
d="M487 842v166l-399 2v145l336 506h256v-494h123v-159h-123v-166h-193zM285 1167h202v303z" />
    <glyph glyph-name="uni2075" unicode="&#x2075;" horiz-adv-x="851" 
d="M397 825q-87 0 -152.5 28.5t-99 72.5t-49 86.5t-16.5 81.5h186q0 -4 1.5 -11.5t10 -26t21 -32.5t38.5 -25.5t60 -11.5q58 0 90.5 38t32.5 89t-32.5 88t-90.5 37q-38 0 -65 -15.5t-35 -30.5l-8 -15h-199l53 479h523v-166h-377l-19 -174h6q61 69 173 69q127 0 198.5 -77.5
t71.5 -186.5q0 -56 -20.5 -108t-59.5 -94.5t-101.5 -68.5t-140.5 -26z" />
    <glyph glyph-name="uni2076" unicode="&#x2076;" horiz-adv-x="950" 
d="M410 819q-116 0 -199 56t-120.5 140.5t-37.5 184.5q0 65 17.5 130t56 125.5t92.5 107t133 74.5t172 28q30 0 61.5 -3t47.5 -6l16 -3v-172q-70 10 -121 10q-114 0 -186.5 -60.5t-85.5 -150.5q65 102 205 102q130 0 203 -78t73 -188q0 -118 -87 -207.5t-240 -89.5z
M272 1110q0 -51 36 -89t100 -38t99.5 38t35.5 89t-35.5 89t-99.5 38q-63 0 -99.5 -38t-36.5 -89z" />
    <glyph glyph-name="uni2077" unicode="&#x2077;" horiz-adv-x="827" 
d="M205 846q5 108 38 215.5t83 192.5t90 140t80 99h-433v168h646v-137q-12 -12 -32 -33.5t-72 -92t-92.5 -145t-76 -186.5t-39.5 -221h-192z" />
    <glyph glyph-name="uni2078" unicode="&#x2078;" horiz-adv-x="851" 
d="M416 823q-131 0 -224.5 62t-93.5 174q0 43 15 78.5t37 56t44 35t37 19.5l15 5v11q0 -1 -13.5 4.5t-32 18t-37.5 31.5t-32.5 51t-13.5 69q0 102 87 164.5t212 62.5q127 0 215 -62t88 -165q0 -37 -13.5 -69t-32 -51t-37.5 -31.5t-32.5 -18t-13.5 -4.5v-11q6 -2 16 -5.5
t35 -19t44.5 -35.5t35.5 -55.5t16 -78.5q0 -76 -46 -130.5t-117 -80t-158 -25.5zM291 1081q0 -43 33.5 -75.5t91.5 -32.5q60 0 93.5 32t33.5 76q0 42 -33.5 74.5t-93.5 32.5q-58 0 -91.5 -32.5t-33.5 -74.5zM305 1421q0 -39 29.5 -68.5t81.5 -29.5q54 0 84 30t30 70
q0 37 -30.5 66t-83.5 29q-52 0 -81.5 -29t-29.5 -68z" />
    <glyph glyph-name="uni2079" unicode="&#x2079;" horiz-adv-x="950" 
d="M541 1686q88 0 157.5 -32t112 -86.5t64.5 -121.5t22 -141q0 -65 -17.5 -130t-56 -125.5t-92.5 -107t-133 -74.5t-172 -28q-30 0 -61.5 3t-47.5 6l-16 3v172q70 -10 121 -10q114 0 186.5 60.5t85.5 150.5q-66 -103 -205 -103q-130 0 -203 78.5t-73 188.5q0 118 87.5 207.5
t240.5 89.5zM408 1395q0 -51 35.5 -89t99.5 -38q63 0 99 38t36 89t-35.5 89t-99.5 38t-99.5 -38t-35.5 -89z" />
    <glyph glyph-name="uni2080" unicode="&#x2080;" horiz-adv-x="915" 
d="M457 -434q-165 0 -262 121t-97 301q0 181 97 301.5t262 120.5q164 0 262 -121.5t98 -300.5t-98 -300.5t-262 -121.5zM301 -12q0 -116 42.5 -181t113.5 -65q70 0 113.5 65.5t43.5 180.5q0 118 -43 184t-114 66q-70 0 -113 -66t-43 -184z" />
    <glyph glyph-name="uni2081" unicode="&#x2081;" horiz-adv-x="581" 
d="M420 401v-819h-193v561h-170v115l27 8q80 26 127.5 52t87.5 71l10 12h111z" />
    <glyph glyph-name="uni2082" unicode="&#x2082;" horiz-adv-x="823" 
d="M104 -418v135l154 123q23 18 65.5 51.5t60.5 48t47.5 39.5t42 40t27.5 35.5t20 38.5t5 38q0 50 -34.5 78.5t-81.5 28.5q-48 0 -83.5 -33t-35.5 -92h-191q0 143 92.5 220t223.5 77t221 -74t90 -189q0 -55 -20 -102.5t-66 -95t-96 -86.5t-133 -96l-21 -15h344v-170h-631z
" />
    <glyph glyph-name="uni2083" unicode="&#x2083;" horiz-adv-x="782" 
d="M391 -434q-150 0 -234.5 81.5t-84.5 188.5h188q0 -46 35.5 -77t93.5 -31q56 0 88.5 29t32.5 69q0 41 -30 66.5t-81 25.5h-110v148h108q48 0 77.5 26t29.5 64q0 39 -31.5 65.5t-81.5 26.5q-53 0 -86 -31t-33 -78h-182q0 50 20 97.5t57.5 86t96.5 62t131 23.5
q126 0 215.5 -63t89.5 -169q0 -69 -40.5 -115.5t-92.5 -62.5v-8q66 -18 106 -65t40 -115q0 -112 -93 -178t-229 -66z" />
    <glyph glyph-name="uni2084" unicode="&#x2084;" horiz-adv-x="905" 
d="M487 -418v166l-399 2v146l336 505h256v-493h123v-160h-123v-166h-193zM285 -92h202v303z" />
    <glyph glyph-name="uni2085" unicode="&#x2085;" horiz-adv-x="837" 
d="M397 -434q-71 0 -127.5 19.5t-91 48.5t-57.5 66.5t-31.5 70t-9.5 63.5h186q0 -4 1.5 -11.5t10 -25.5t21 -32t38.5 -25.5t60 -11.5q58 0 90.5 38t32.5 89t-32.5 88t-90.5 37q-24 0 -44 -6.5t-31.5 -15.5t-19 -18t-10.5 -16l-3 -6h-199l53 479h523v-166h-377l-19 -174h6
q62 70 173 70q127 0 198.5 -77.5t71.5 -186.5q0 -56 -20.5 -108t-59.5 -94.5t-101.5 -68.5t-140.5 -26z" />
    <glyph glyph-name="uni2086" unicode="&#x2086;" horiz-adv-x="788" 
d="M410 -440q-116 0 -199 56t-120.5 140.5t-37.5 184.5q0 65 17.5 130t56 125.5t92.5 107t133 74.5t172 28q30 0 61.5 -3t47.5 -7l16 -3v-172q-70 10 -121 10q-114 0 -186.5 -60.5t-85.5 -150.5q66 103 205 103q130 0 203 -78t73 -188q0 -118 -87 -207.5t-240 -89.5z
M272 -150q0 -51 36 -88.5t100 -37.5t99.5 37.5t35.5 88.5t-35.5 89t-99.5 38q-63 0 -99.5 -38t-36.5 -89z" />
    <glyph glyph-name="uni2087" unicode="&#x2087;" horiz-adv-x="761" 
d="M205 -418q5 108 38 215.5t83 192.5t90 140t80 99h-433v168h646v-137q-12 -12 -32 -33.5t-72 -92t-92.5 -145t-76 -186.5t-39.5 -221h-192z" />
    <glyph glyph-name="uni2088" unicode="&#x2088;" horiz-adv-x="835" 
d="M416 -436q-131 0 -224.5 61.5t-93.5 173.5q0 43 15 78.5t37 56t44 35t37 19.5l15 6v10q0 -1 -13.5 4.5t-32 18t-37.5 31.5t-32.5 51t-13.5 69q0 103 87 165.5t212 62.5q127 0 215 -62.5t88 -165.5q0 -37 -13.5 -69t-32 -51t-37.5 -31.5t-32.5 -18t-13.5 -4.5v-10
q6 -2 16 -5.5t35 -19.5t44.5 -36t35.5 -55.5t16 -78.5q0 -76 -46 -130.5t-117 -79.5t-158 -25zM291 -178q0 -43 33.5 -76t91.5 -33q60 0 93.5 32.5t33.5 76.5q0 42 -33.5 74t-93.5 32q-58 0 -91.5 -32t-33.5 -74zM305 162q0 -39 29.5 -69t81.5 -30q54 0 84 30.5t30 70.5
q0 37 -30.5 65.5t-83.5 28.5q-52 0 -81.5 -29t-29.5 -67z" />
    <glyph glyph-name="uni2089" unicode="&#x2089;" horiz-adv-x="950" 
d="M541 412q88 0 157.5 -32t112 -86.5t64.5 -121.5t22 -141q0 -65 -17.5 -130t-56 -125.5t-92.5 -107t-133 -74.5t-172 -28q-30 0 -61.5 3t-47.5 6l-16 3v172q70 -10 121 -10q114 0 186.5 60.5t85.5 150.5q-66 -103 -205 -103q-130 0 -203 78.5t-73 188.5q0 118 87.5 207.5
t240.5 89.5zM408 121q0 -51 35.5 -89t99.5 -38q63 0 99 38t36 89t-35.5 89t-99.5 38t-99.5 -38t-35.5 -89z" />
    <glyph glyph-name="dong" unicode="&#x20ab;" horiz-adv-x="1241" 
d="M520 279q-93 0 -168 35.5t-122 95t-72 133.5t-25 155q0 80 25 154t72 133.5t122 95t168 35.5q58 0 106.5 -14.5t80 -37.5t49.5 -42t30 -39h13v205h-217v137h217v109h209v-109h141v-137h-141v-895h-209v117h-13q-12 -19 -30 -38.5t-49.5 -42t-80 -36.5t-106.5 -14zM104 0
v139h1020v-139h-1020zM344 698q0 -102 59.5 -175.5t167.5 -73.5q109 0 169.5 73.5t60.5 175.5q0 99 -60.5 172.5t-169.5 73.5q-108 0 -167.5 -73t-59.5 -173z" />
    <glyph glyph-name="Euro" unicode="&#x20ac;" horiz-adv-x="1460" 
d="M1042 -20q-128 0 -240 29t-197 80t-152 122.5t-110.5 153t-68.5 174.5h-200v149h174q-2 23 -2 70q0 44 2 67h-174v150h200q30 117 92.5 216t156 177.5t227.5 123t292 44.5q71 0 151 -9t125 -19l44 -9v-211q-168 37 -309 37q-206 0 -339.5 -96.5t-189.5 -253.5h592v-150
h-624q-5 -57 -5 -67q0 -12 5 -70h624v-149h-592q56 -157 190 -254t339 -97q63 0 140 9t123 19l46 9v-211q-160 -34 -320 -34z" />
    <glyph glyph-name="trademark" unicode="&#x2122;" horiz-adv-x="1652" 
d="M279 758v620h-213v138h585v-138h-211v-620h-161zM735 758v758h230l174 -429l178 429h217v-758h-154v575l-190 -448h-111l-190 450v-577h-154z" />
    <glyph glyph-name="oneeighth" unicode="&#x215b;" horiz-adv-x="1824" 
d="M338 1452v-719h-176v496h-142v106l23 6q62 17 103 41t81 64l6 6h105zM287 0l862 1434h203l-865 -1434h-200zM1184 193q0 22 4.5 42t12 35.5t17.5 28.5t20.5 23t21.5 17.5t20.5 12.5t17 8.5t11.5 5.5l4 1v6q-5 1 -12 4.5t-26.5 16t-34 28t-26.5 43.5t-12 61
q0 90 76.5 144.5t187.5 54.5t189 -55t78 -144q0 -33 -12 -60.5t-28.5 -44t-33.5 -28t-29 -15.5l-12 -5v-6l6 -3q7 -2 18.5 -8t25 -14.5t28 -22.5t25.5 -31.5t18.5 -42t7.5 -52.5q0 -96 -83 -150.5t-198 -54.5q-116 0 -199 54.5t-83 150.5zM1356 215q0 -40 29 -69t81 -29
q51 0 80 29t29 69q0 38 -29 66t-80 28t-80.5 -28t-29.5 -66zM1368 512q0 -34 26 -59t72 -25q47 0 73 25.5t26 60.5q0 34 -26 59t-73 25t-72.5 -25.5t-25.5 -60.5z" />
    <glyph glyph-name="threeeighths" unicode="&#x215c;" horiz-adv-x="1992" 
d="M356 721q-135 0 -206.5 71t-71.5 164h168q0 -38 29.5 -65t78.5 -27q50 0 78.5 24t28.5 60t-25.5 59t-75.5 23h-88v131h90q42 0 68.5 22t26.5 54q0 33 -28 56.5t-73 23.5t-73.5 -26.5t-28.5 -65.5h-162q0 91 71 162t195 71q111 0 190 -55t79 -148q0 -62 -36 -103t-79 -52
v-8q127 -43 127 -158q0 -96 -81.5 -154.5t-201.5 -58.5zM455 0l862 1434h203l-865 -1434h-200zM1352 193q0 22 4.5 42t12 35.5t17.5 28.5t20.5 23t21.5 17.5t20.5 12.5t17 8.5t11.5 5.5l4 1v6q-5 1 -12 4.5t-26.5 16t-34 28t-26.5 43.5t-12 61q0 90 76.5 144.5t187.5 54.5
t189 -55t78 -144q0 -33 -12 -60.5t-28.5 -44t-33.5 -28t-29 -15.5l-12 -5v-6l6 -3q7 -2 18.5 -8t25 -14.5t28 -22.5t25.5 -31.5t18.5 -42t7.5 -52.5q0 -96 -83 -150.5t-198 -54.5q-116 0 -199 54.5t-83 150.5zM1524 215q0 -40 29 -69t81 -29q51 0 80 29t29 69q0 38 -29 66
t-80 28t-80.5 -28t-29.5 -66zM1536 512q0 -34 26 -59t72 -25q47 0 73 25.5t26 60.5q0 34 -26 59t-73 25t-72.5 -25.5t-25.5 -60.5z" />
    <glyph glyph-name="fiveeighths" unicode="&#x215d;" horiz-adv-x="1968" 
d="M354 719q-63 0 -113.5 18t-79.5 45t-48.5 61t-26.5 61.5t-8 51.5h164q0 -4 1.5 -10t8 -22.5t17.5 -29t32.5 -22.5t50.5 -10q52 0 81.5 33.5t29.5 77.5q0 43 -29 76.5t-80 33.5q-34 0 -58.5 -14.5t-31.5 -28.5l-8 -14h-170l43 422h459v-148h-332l-14 -151h4q5 6 13 13.5
t26 20.5t46.5 21t61.5 8q113 0 177.5 -69.5t64.5 -165.5q0 -104 -74 -181t-207 -77zM430 0l862 1434h203l-864 -1434h-201zM1327 193q0 22 4.5 42t12 35.5t17.5 28.5t20.5 23t21.5 17.5t20.5 12.5t17 8.5t11.5 5.5l4 1v6q-4 1 -11.5 4.5t-26.5 16t-33.5 28t-26.5 43.5
t-12 61q0 90 76.5 144.5t187.5 54.5t188.5 -54.5t77.5 -144.5q0 -52 -29 -90t-57 -50l-29 -13v-6l7 -3q6 -2 17.5 -8t25 -14.5t28 -22.5t25.5 -31.5t18.5 -42t7.5 -52.5q0 -96 -82.5 -150.5t-197.5 -54.5q-116 0 -199.5 54.5t-83.5 150.5zM1499 215q0 -40 29.5 -69t81.5 -29
q51 0 79.5 29t28.5 69q0 38 -28.5 66t-79.5 28t-81 -28t-30 -66zM1511 512q0 -34 26 -59t73 -25t72.5 25.5t25.5 60.5q0 34 -26 59t-72 25q-47 0 -73 -25.5t-26 -60.5z" />
    <glyph glyph-name="seveneighths" unicode="&#x215e;" horiz-adv-x="1896" 
d="M135 733q5 101 30.5 196.5t63 168t68 119t61.5 83.5h-348v150h535v-121q-9 -9 -24 -26.5t-54 -76t-70 -123t-58.5 -165.5t-31.5 -205h-172zM358 0l863 1434h202l-864 -1434h-201zM1255 193q0 22 4.5 42t12 35.5t17.5 28.5t20.5 23t21.5 17.5t20.5 12.5t17 8.5t11.5 5.5
l4 1v6q-4 1 -11.5 4.5t-26.5 16t-33.5 28t-26.5 43.5t-12 61q0 90 76.5 144.5t187.5 54.5t188.5 -54.5t77.5 -144.5q0 -33 -11.5 -60.5t-28.5 -44t-34 -28t-28 -15.5l-12 -5v-6l6 -3q7 -2 18.5 -8t25 -14.5t28 -22.5t25.5 -31.5t18.5 -42t7.5 -52.5q0 -96 -83 -150.5
t-198 -54.5q-116 0 -199.5 54.5t-83.5 150.5zM1427 215q0 -40 29.5 -69t81.5 -29q51 0 80 29t29 69q0 38 -29 66t-80 28t-81 -28t-30 -66zM1440 512q0 -34 26 -59t72 -25q47 0 72.5 25.5t25.5 60.5q0 34 -26 59t-72 25q-47 0 -72.5 -25.5t-25.5 -60.5z" />
    <glyph glyph-name="minus" unicode="&#x2212;" horiz-adv-x="1048" 
d="M104 537v204h840v-204h-840z" />
    <glyph glyph-name="uni2215" unicode="&#x2215;" horiz-adv-x="1026" 
d="M59 0l711 1516h225l-710 -1516h-226z" />
    <glyph glyph-name="approxequal" unicode="&#x2248;" horiz-adv-x="1947" 
d="M633 649q-51 0 -96 20.5t-71 45t-57.5 45t-58.5 20.5q-67 0 -67 -121h-144q0 53 9.5 98t30.5 86t62.5 65t98.5 24q52 0 98 -21t73 -45.5t58 -45.5t56 -21q67 0 67 121h142q0 -41 -5 -77t-19 -72.5t-36 -62.5t-58 -42.5t-83 -16.5zM1112 659q0 53 9.5 98t30.5 86t62.5 65
t98.5 24q52 0 98 -21t72.5 -45.5t57.5 -45.5t56 -21q68 0 68 121h141q0 -52 -9 -96.5t-30 -86t-62 -65t-99 -23.5q-51 0 -96 20.5t-71 45t-57.5 45t-58.5 20.5q-68 0 -68 -121h-143z" />
    <glyph glyph-name="notequal" unicode="&#x2260;" horiz-adv-x="1314" 
d="M295 0l199 352h-390v197h502l148 260h-650v197h760l146 256h200l-145 -256h63v-197h-174l-147 -260h321v-197h-434l-198 -352h-201z" />
    <glyph glyph-name="lessequal" unicode="&#x2264;" horiz-adv-x="1177" 
d="M1004 336l-832 323v140l832 325v-190l-572 -203l572 -205v-190zM160 0v141h858v-141h-858z" />
    <glyph glyph-name="greaterequal" unicode="&#x2265;" horiz-adv-x="1177" 
d="M174 336v190l574 205l-574 203v190l832 -325v-140zM160 0v141h858v-141h-858z" />
    <glyph glyph-name="A.001" horiz-adv-x="1513" 
d="M57 0l533 1516h334l532 -1516h-264l-117 344h-651l-117 -344h-250zM494 553h512l-256 756z" />
    <glyph glyph-name="B.001" horiz-adv-x="1388" 
 />
    <glyph glyph-name="B.002" horiz-adv-x="1312" 
 />
    <glyph glyph-name="B.003" horiz-adv-x="1316" 
 />
    <glyph glyph-name="C.001" horiz-adv-x="1597" 
d="M836 -20q-145 0 -267.5 42.5t-208 116t-145.5 172.5t-88.5 212t-28.5 235t28.5 235t88.5 212t145.5 172.5t208 116t267.5 42.5q99 0 185 -19t147.5 -50.5t113 -72.5t84.5 -87t59 -91.5t39.5 -86.5t22 -72.5t10.5 -50.5l2 -19h-246q-1 7 -3 19t-13.5 47t-28 66.5
t-49.5 70.5t-74.5 67t-106.5 47t-142 19q-117 0 -211 -45.5t-152.5 -124t-89.5 -179.5t-31 -216q0 -91 19 -174.5t59 -154.5t96.5 -123.5t136 -82.5t173.5 -30q77 0 142 18.5t106.5 48t74 65t50 71.5t28 65.5t13.5 48.5l3 18h246q-1 -7 -2.5 -19t-10.5 -49.5t-22 -74
t-39 -85.5t-59 -91.5t-84.5 -86t-113 -74t-147.5 -49.5t-185 -19z" />
    <glyph glyph-name="G.001" horiz-adv-x="1624" 
d="M858 -20q-148 0 -273.5 43.5t-214 118t-151 174t-92 211t-29.5 229.5q0 119 30 231.5t92.5 212t151 174.5t214 118.5t272.5 43.5q95 0 177.5 -16.5t143 -44.5t111 -64.5t84 -77t59.5 -80.5t40 -76.5t23 -64.5t12 -44l3 -17h-245q-1 6 -3.5 15.5t-15 37.5t-29.5 53.5
t-50 56.5t-73.5 53.5t-102 38t-134.5 15.5q-100 0 -185.5 -31.5t-145.5 -85t-102 -125.5t-62.5 -153t-20.5 -166q0 -108 33.5 -208t96.5 -180.5t164.5 -128.5t227.5 -48q194 0 317 111t136 302h-457v191h686v-107q0 -139 -35.5 -255.5t-99 -200t-150 -142t-188.5 -86.5
t-215 -28z" />
    <glyph glyph-name="J.001" horiz-adv-x="944" 
d="M285 -20q-45 0 -95 4t-77 8l-27 4v207q90 -10 162 -10q161 0 247.5 77.5t86.5 255.5v990h237v-992q0 -251 -135.5 -397.5t-398.5 -146.5z" />
    <glyph glyph-name="J.002" horiz-adv-x="1234" 
d="M633 -20q-67 0 -122.5 14t-87.5 33.5t-54.5 39.5t-30.5 34l-8 14l82 145q8 -8 23.5 -19.5t65 -31t101.5 -19.5q137 0 199.5 78t62.5 213v1035h246v-1051q0 -231 -132 -358t-345 -127z" />
    <glyph glyph-name="M.001" horiz-adv-x="1710" 
d="M125 0v1516h317l412 -850l418 850h313v-1516h-235v1157l-389 -780h-211l-390 784v-1161h-235z" />
    <glyph glyph-name="M.002" horiz-adv-x="1705" 
d="M125 0v1516h317l412 -871l418 871h309v-1516h-235v1155l-396 -809h-194l-396 813v-1159h-235z" />
    <glyph glyph-name="M.003" horiz-adv-x="1699" 
d="M125 0v1516h326l401 -867l403 867h320v-1516h-238v1176l-385 -811h-202l-388 815v-1180h-237z" />
    <glyph glyph-name="N.001" horiz-adv-x="1454" 
d="M125 0v1516h219l741 -1086v1086h244v-1516h-219l-741 1075v-1075h-244z" />
    <glyph glyph-name="Q.001" horiz-adv-x="1728" 
d="M1419 -66l-151 156q-178 -110 -416 -110q-146 0 -271 43.5t-214 118.5t-152.5 174.5t-94 212t-30.5 231.5q0 117 30.5 229t94 211.5t152.5 174t214 118t271 43.5t271.5 -43t215 -117.5t153 -173.5t94 -211.5t30.5 -230.5q0 -150 -49.5 -290t-143.5 -247l279 -289h-283z
M346 760q0 -110 34 -211t96 -179.5t160 -125.5t216 -47q134 0 242 59l-316 322l154 135l315 -322q115 151 115 369q0 110 -34.5 210t-97.5 178t-161 124.5t-217 46.5q-118 0 -216 -47t-160 -125.5t-96 -178t-34 -208.5z" />
    <glyph glyph-name="Q.002" horiz-adv-x="1728" 
d="M1419 -66l-151 156q-178 -110 -416 -110q-146 0 -271 43.5t-214 118.5t-152.5 174.5t-94 212t-30.5 231.5q0 117 30.5 229t94 211.5t152.5 174t214 118t271 43.5t271.5 -43t215 -117.5t153 -173.5t94 -211.5t30.5 -230.5q0 -150 -49.5 -290t-143.5 -247l279 -289h-283z
M346 760q0 -110 34 -211t96 -179.5t160 -125.5t216 -47q134 0 242 59l-316 322l154 135l315 -322q115 151 115 369q0 110 -34.5 210t-97.5 178t-161 124.5t-217 46.5q-118 0 -216 -47t-160 -125.5t-96 -178t-34 -208.5z" />
    <glyph glyph-name="Q.003" horiz-adv-x="1728" 
d="M1358 0l-88 92q-176 -112 -418 -112q-146 0 -271 43.5t-214 118.5t-152.5 174.5t-94 212t-30.5 231.5q0 117 30.5 229t94 211.5t152.5 174t214 118t271 43.5t271.5 -43t215 -117.5t153 -173.5t94 -211.5t30.5 -230.5q0 -150 -49.5 -290t-143.5 -247l215 -223h-280z
M346 760q0 -110 34 -211t96 -179.5t160 -125.5t216 -47q134 0 242 59l-316 322l154 135l315 -322q115 151 115 369q0 110 -34.5 210t-97.5 178t-161 124.5t-217 46.5q-118 0 -216 -47t-160 -125.5t-96 -178t-34 -208.5z" />
    <glyph glyph-name="R.001" horiz-adv-x="1417" 
d="M1022 0l-369 618h-278v-618h-246v1516h614q115 0 210.5 -36.5t157 -98t95 -142t33.5 -170.5q0 -150 -88.5 -268.5t-245.5 -161.5l400 -639h-283zM375 819h356q122 0 191 71.5t69 172.5q0 102 -68.5 173t-191.5 71h-356v-488z" />
    <glyph glyph-name="R.002" horiz-adv-x="1363" 
d="M129 0v1516h539q111 0 200 -25.5t147.5 -68t97.5 -100.5t56 -121.5t17 -133.5q0 -72 -19 -137t-59 -123t-108.5 -100.5t-159.5 -63.5l415 -643h-286l-379 625h-215v-625h-246zM375 813h282q75 0 131 21.5t87.5 58t46 78.5t14.5 90q0 49 -14.5 92t-46 79.5t-87.5 57.5
t-131 21h-282v-498z" />
    <glyph glyph-name="S.001" horiz-adv-x="1314" 
d="M684 -20q-97 0 -179 16t-139.5 43.5t-104.5 63.5t-75.5 75t-49.5 78.5t-30.5 75.5t-15 63.5t-6.5 43.5v16h258q0 -6 1 -15.5t9 -37t20.5 -53t39 -56t61.5 -53t91.5 -37.5t125.5 -15q138 0 222.5 67.5t84.5 174.5q0 85 -57.5 135.5t-175.5 77.5l-203 45q-420 93 -420 404
q0 135 71.5 237t192.5 154.5t273 52.5q85 0 157 -15t123 -40t92 -57t66.5 -68t44 -72t27.5 -68t14 -57t6 -40v-15h-241q0 9 -2 24t-17.5 54t-43.5 68.5t-88.5 54t-143.5 24.5q-141 0 -214 -62.5t-73 -154.5q0 -137 215 -188l219 -50q203 -44 314.5 -150.5t111.5 -279.5
q0 -95 -38.5 -179t-108.5 -147.5t-177.5 -100.5t-236.5 -37z" />
    <glyph glyph-name="S.002" horiz-adv-x="1314" 
d="M684 -20q-97 0 -179 16t-139.5 43.5t-104.5 63.5t-75.5 75t-49.5 78.5t-30.5 75.5t-15 63.5t-6.5 43.5v16h256q0 -6 1.5 -15.5t9 -37t20.5 -53t39.5 -56t62 -53t92 -37.5t125.5 -15q139 0 224 68t85 176q0 85 -58.5 135.5t-176.5 77.5l-203 45q-420 89 -420 404
q0 134 71 235.5t192.5 154t273.5 52.5q85 0 157 -14.5t123 -39.5t92 -57.5t66.5 -68t44 -71t27.5 -68t14 -57.5t6 -40v-14h-239q0 5 -0.5 13t-6.5 31.5t-16 44.5t-32.5 47t-52.5 44.5t-79 31.5t-110 13q-141 0 -214 -63.5t-73 -157.5q0 -138 215 -186l219 -50
q426 -95 426 -432q0 -94 -38 -177.5t-107.5 -147t-177 -100.5t-238.5 -37z" />
    <glyph glyph-name="S.003" horiz-adv-x="1314" 
d="M633 -20q-99 0 -183.5 16t-143.5 43.5t-107 63.5t-77.5 75t-51.5 78.5t-31.5 75.5t-15.5 63.5t-7 43.5v16h265q0 -6 1 -15.5t9 -37t20.5 -52.5t39.5 -55.5t62.5 -52.5t93 -37t128.5 -15q139 0 223 68t84 168q0 178 -250 221l-168 31q-214 37 -332 137.5t-118 271.5
q0 198 151.5 323.5t388.5 125.5q110 0 200.5 -23.5t147 -61.5t98.5 -83.5t62.5 -91t32.5 -83.5t14 -61l2 -24h-253q0 9 -2.5 23.5t-20.5 52t-46.5 66t-90 52t-142.5 23.5q-134 0 -209 -65.5t-75 -159.5q0 -83 58 -132.5t185 -70.5l173 -31q452 -74 452 -422q0 -96 -39 -180
t-110 -147.5t-179 -100t-239 -36.5z" />
    <glyph glyph-name="S.004" horiz-adv-x="1314" 
d="M684 -20q-97 0 -179 16t-139.5 43.5t-104.5 63.5t-75.5 75t-49.5 78.5t-30.5 75.5t-15 63.5t-6.5 43.5v16h256q0 -6 1.5 -15.5t9 -37t20.5 -53t39.5 -56t62 -53t92 -37.5t125.5 -15q137 0 223 71.5t86 178.5q0 90 -58.5 140.5t-176.5 72.5l-203 39q-420 79 -420 404
q0 134 71 235.5t192.5 154t273.5 52.5q85 0 157 -14.5t123 -39.5t92 -57.5t66.5 -68t44 -71t27.5 -68t14 -57.5t6 -40v-14h-239q0 5 -0.5 13t-6.5 31.5t-16 44.5t-32.5 47t-52.5 44.5t-79 31.5t-110 13q-141 0 -214 -63.5t-73 -157.5q0 -151 215 -195l219 -41
q426 -82 426 -425q0 -94 -38 -178.5t-107.5 -149.5t-177.5 -103t-238 -38z" />
    <glyph glyph-name="S.005" horiz-adv-x="1335" 
d="M690 -20q-98 0 -181.5 16t-141.5 43t-105.5 62t-76.5 73.5t-50 77t-31 73.5t-15.5 62t-6.5 43v16h258q0 -6 1 -15.5t8.5 -37t20 -52.5t39.5 -56t62 -53t92 -37t127 -15q144 0 231 70t87 174q0 90 -63.5 144t-194.5 81l-168 35q-449 90 -449 406q0 196 152 321t387 125
q86 0 160 -14.5t126.5 -38.5t95.5 -55.5t70 -66t47 -69t30 -66t16 -55.5t7 -39l1 -14h-246q-1 9 -3.5 23.5t-20.5 52t-47 66t-91 52t-145 23.5q-138 0 -214.5 -67.5t-76.5 -165.5q0 -82 59 -130.5t191 -74.5l174 -35q223 -44 335.5 -145.5t112.5 -276.5q0 -95 -38.5 -178.5
t-109.5 -146t-178.5 -99t-236.5 -36.5z" />
    <glyph glyph-name="S.006" horiz-adv-x="1323" 
d="M682 -20q-98 0 -181 16t-141 43t-105.5 62.5t-76.5 74.5t-50.5 77.5t-31 74t-15.5 62.5t-7 43v16h258q0 -6 1 -15.5t9 -37t20.5 -53t39.5 -56t62.5 -53t93 -37.5t128.5 -15q143 0 229 68.5t86 171.5q0 186 -260 229l-157 29q-227 40 -343 143t-116 267q0 196 151.5 321
t389.5 125q109 0 198.5 -23t145.5 -60t98.5 -82t63 -90t32.5 -82t14 -60l3 -23h-244q0 5 -1.5 12.5t-8.5 30.5t-18.5 43.5t-35.5 46t-55.5 43.5t-81 30.5t-110.5 12.5q-138 0 -215.5 -66.5t-77.5 -164.5q0 -84 59.5 -134t194.5 -73l157 -27q229 -38 346 -146t117 -282
q0 -197 -155 -329.5t-410 -132.5z" />
    <glyph glyph-name="S.007" horiz-adv-x="1341" 
d="M692 -20q-96 0 -178.5 15.5t-140.5 41.5t-105 59.5t-76.5 70.5t-51.5 74t-32 70.5t-16 59.5t-7 41l-1 16l256 21q0 -6 1 -15.5t9 -37t20.5 -53t39.5 -56t63 -53t94 -37.5t129 -15q142 0 229 69t87 171q0 89 -64.5 144t-197.5 83l-158 33q-457 93 -457 408
q0 197 151 321.5t390 124.5q107 0 196 -22t144.5 -57t98 -77.5t64 -85.5t34.5 -78t15 -57l3 -22l-240 -21q0 5 -1.5 12.5t-8.5 30.5t-19 43.5t-36 46t-55.5 43.5t-82.5 30.5t-112 12.5q-140 0 -217.5 -66.5t-77.5 -164.5q0 -80 59.5 -129t196.5 -76l156 -33
q232 -46 348 -150t116 -274q0 -197 -154.5 -329.5t-410.5 -132.5z" />
    <glyph glyph-name="S.008" horiz-adv-x="1341" 
d="M692 -20q-96 0 -178.5 15.5t-140.5 41.5t-105 59.5t-76.5 70.5t-51.5 74t-32 70.5t-16 59.5t-7 41l-1 16l256 21q0 -6 1 -15.5t9 -37t20.5 -53t39.5 -56t63 -53t94 -37.5t129 -15q142 0 229 69t87 171q0 185 -262 229l-158 29q-226 38 -341.5 142t-115.5 268
q0 197 151 321.5t390 124.5q107 0 196 -22t144.5 -57t98 -77.5t64 -85.5t34.5 -78t15 -57l3 -22l-240 -21q0 5 -1.5 12.5t-8.5 30.5t-19 43.5t-36 46t-55.5 43.5t-82.5 30.5t-112 12.5q-140 0 -217.5 -66.5t-77.5 -164.5q0 -83 60.5 -133.5t195.5 -73.5l156 -27
q229 -38 346.5 -146t117.5 -282q0 -197 -155 -329.5t-410 -132.5z" />
    <glyph glyph-name="S.009" horiz-adv-x="1341" 
d="M692 -20q-96 0 -178.5 15.5t-140.5 41.5t-105 59.5t-76.5 70.5t-51.5 74t-32 70.5t-16 59.5t-7 41l-1 16l256 21q0 -6 1 -15.5t9 -37t20.5 -53t39.5 -56t63 -53t94 -37.5t129 -15q142 0 229 69t87 171q0 185 -262 229l-158 29q-226 38 -341.5 142t-115.5 268
q0 197 151 321.5t390 124.5q107 0 196 -22t144.5 -57t98 -77.5t64 -85.5t34.5 -78t15 -57l3 -22l-240 -21q0 5 -1.5 12.5t-8.5 30.5t-19 43.5t-36 46t-55.5 43.5t-82.5 30.5t-112 12.5q-140 0 -217.5 -66.5t-77.5 -164.5q0 -83 60.5 -133.5t195.5 -73.5l156 -27
q229 -38 346.5 -146t117.5 -282q0 -197 -155 -329.5t-410 -132.5z" />
    <glyph glyph-name="S.010" horiz-adv-x="1341" 
d="M692 -20q-96 0 -178.5 16t-140.5 42.5t-105 61.5t-76.5 73.5t-51.5 77t-32 73.5t-16 61.5t-7 42.5l-1 16l256 21q0 -6 1 -16t9 -39.5t20.5 -56.5t39.5 -59.5t63 -56t94 -39.5t129 -16q142 0 229 69t87 171q0 89 -64.5 144t-197.5 83l-158 33q-457 93 -457 408
q0 197 151 321.5t390 124.5q107 0 196 -23t144.5 -59.5t98 -81t64 -89t34.5 -81t15 -59.5l3 -23l-240 -20q0 5 -1.5 13.5t-8.5 33t-19 46.5t-36 49t-55.5 46.5t-82.5 33t-112 13.5q-140 0 -217.5 -66.5t-77.5 -164.5q0 -80 59.5 -129t196.5 -76l156 -33q232 -46 348 -150
t116 -274q0 -197 -154.5 -329.5t-410.5 -132.5z" />
    <glyph glyph-name="S.011" horiz-adv-x="1341" 
d="M694 -20q-97 0 -179.5 16.5t-140.5 44.5t-105.5 64.5t-77 76.5t-51.5 80.5t-32 77t-16 64.5t-7 44l-1 17h256q0 -6 1 -16t9 -39.5t20.5 -56.5t39.5 -59.5t63 -56t94 -39.5t129 -16q143 0 230.5 69t87.5 171q0 89 -65.5 144t-198.5 83l-154 31q-230 48 -345.5 149
t-115.5 263q0 195 151.5 319.5t387.5 124.5q108 0 197 -24t145 -62.5t98.5 -85t64 -93t34 -85t15.5 -62.5l3 -24h-240q0 5 -1.5 13.5t-8.5 33t-19 46.5t-36 49t-55.5 46.5t-82.5 33t-112 13.5q-140 0 -218.5 -66.5t-78.5 -164.5q0 -80 61 -128.5t197 -76.5l156 -33
q232 -46 348 -150t116 -274q0 -198 -153 -330t-410 -132z" />
    <glyph glyph-name="S.012" horiz-adv-x="1341" 
d="M692 -20q-96 0 -178.5 16.5t-140.5 44.5t-105 64.5t-76.5 76.5t-51.5 80.5t-32 77t-16 64.5t-7 44l-1 17h256q0 -6 1 -16t9 -39.5t20.5 -56.5t39.5 -59.5t63 -56t94 -39.5t129 -16q143 0 230.5 69t87.5 171q0 90 -65 144.5t-199 82.5l-158 33q-227 46 -342 147t-115 263
q0 196 149.5 320t389.5 124q108 0 197 -24t145 -62.5t98.5 -85t64 -93t34 -85t15.5 -62.5l3 -24h-240q0 5 -1.5 13.5t-8.5 33t-19 46.5t-36 49t-55.5 46.5t-82.5 33t-112 13.5q-141 0 -219 -66.5t-78 -164.5q0 -80 60 -129t198 -76l156 -33q232 -46 348 -150t116 -274
q0 -197 -154.5 -329.5t-410.5 -132.5z" />
    <glyph glyph-name="S.013" horiz-adv-x="1341" 
d="M698 -20q-97 0 -180.5 16.5t-142 44.5t-106 64.5t-77 76.5t-51.5 80.5t-32.5 77t-16.5 64.5t-7 44l-1 17h256q0 -6 1 -16t9 -39.5t20.5 -56.5t40 -59.5t64 -56t95 -39.5t130.5 -16q143 0 228.5 68.5t85.5 171.5q0 89 -64.5 142t-199.5 85l-158 35q-228 51 -342.5 150
t-114.5 258q0 196 149.5 320t389.5 124q108 0 197 -24t145 -62.5t98.5 -85t64 -93t34 -85t15.5 -62.5l3 -24h-240q0 5 -1.5 13.5t-8.5 33t-19 46.5t-36 49t-55.5 46.5t-82.5 33t-112 13.5q-140 0 -220.5 -63.5t-80.5 -155.5q0 -83 60.5 -134t201.5 -81l156 -35
q232 -51 348 -153.5t116 -270.5q0 -129 -65 -233t-193.5 -166.5t-300.5 -62.5z" />
    <glyph glyph-name="S.014" horiz-adv-x="1341" 
d="M696 -20q-97 0 -180.5 16.5t-141.5 44.5t-105.5 64.5t-77 76.5t-51.5 80.5t-32 77t-16 64.5t-7 44l-1 17h256q0 -6 1 -16t9 -40t20.5 -57t39.5 -59.5t63 -56.5t94 -40t129 -16q143 0 229.5 69t86.5 173q0 91 -64.5 145t-197.5 82l-175 37q-218 45 -330 144.5t-112 261.5
q0 196 150 320t391 124q108 0 197.5 -24t145.5 -62.5t98.5 -85t63.5 -93t34 -85t15 -62.5l3 -24h-240q0 5 -1.5 13.5t-8.5 33t-19 47t-36 50t-55.5 47t-82.5 33t-112 13.5q-140 0 -219.5 -66.5t-79.5 -162.5q0 -82 60.5 -132t199.5 -79l174 -35q446 -92 446 -420
q0 -95 -38.5 -179t-109 -147t-177.5 -99.5t-236 -36.5z" />
    <glyph glyph-name="S.015" horiz-adv-x="1341" 
d="M696 -20q-125 0 -227 26.5t-165 69.5t-109.5 94.5t-68 103.5t-34.5 95t-14 69l-2 27h256q0 -6 1 -16t8 -40t20 -57t40 -59.5t64 -56.5t97 -40t134 -16q145 0 234.5 68.5t89.5 173.5q0 88 -65 139.5t-203 83.5l-179 39q-218 49 -332 148t-114 260q0 196 152 320t395 124
q87 0 162.5 -15t129 -40t97 -58t71.5 -69t49 -72t31 -69t16.5 -58t7.5 -40l1 -15h-242q-1 10 -3.5 26t-21.5 56.5t-50 72t-95.5 57t-150.5 25.5q-143 0 -224 -66.5t-81 -162.5q0 -80 61 -128.5t203 -80.5l176 -39q230 -52 342.5 -153.5t112.5 -266.5q0 -200 -154 -330
t-416 -130z" />
    <glyph glyph-name="S.016" horiz-adv-x="1341" 
d="M696 -18q-100 0 -185.5 17t-144.5 46t-107 66.5t-77 79.5t-50.5 83.5t-31 79t-14.5 66.5t-6 46v17h256q0 -6 0.5 -17t7 -42.5t18.5 -60t38.5 -63.5t63 -60.5t97 -42.5t135.5 -17q145 0 233.5 70.5t88.5 175.5q0 88 -66 141t-200 80l-179 37q-442 90 -442 406
q0 195 150 321.5t393 126.5q90 0 166.5 -16t130 -42.5t97.5 -61t71 -73t47 -76.5t29.5 -72.5t15 -61t5.5 -42.5l1 -16h-244q0 5 -1 14.5t-7.5 37t-17.5 52t-35 55t-56 52t-84 36.5t-116 15q-144 0 -223.5 -68.5t-79.5 -164.5q0 -81 61.5 -131.5t200.5 -79.5l176 -35
q226 -46 338.5 -149t112.5 -269q0 -197 -153.5 -328.5t-412.5 -131.5z" />
    <glyph glyph-name="S.017" horiz-adv-x="1341" 
d="M696 -20q-125 0 -227 26.5t-165 69.5t-109.5 94.5t-68 103.5t-34.5 95t-14 69l-2 27h256q0 -6 1 -16t8 -40t20 -57t40 -59.5t64 -56.5t97 -40t134 -16q145 0 234.5 68.5t89.5 173.5q0 90 -65.5 142t-202.5 81l-179 37q-446 94 -446 410q0 196 152 320t395 124
q87 0 162.5 -15t129 -40t97 -58t71.5 -69t49 -72t31 -69t16.5 -58t7.5 -40l1 -15h-242q-1 10 -3.5 26t-21.5 56.5t-50 72t-95.5 57t-150.5 25.5q-143 0 -224 -66.5t-81 -162.5q0 -83 61.5 -132.5t202.5 -78.5l176 -35q229 -46 342 -150t113 -272q0 -199 -154 -329.5
t-416 -130.5z" />
    <glyph glyph-name="S.018" horiz-adv-x="1341" 
d="M702 -18q-103 0 -189.5 17.5t-147 47.5t-109 68.5t-77.5 81t-50 85t-30 81t-14 68.5t-5 47v18h250q0 -7 0.5 -18t7 -44t18.5 -63t39.5 -66.5t65.5 -62.5t100.5 -44t140.5 -18q142 0 229 70.5t87 175.5q0 88 -66 142t-200 79l-172 35q-226 43 -337.5 143.5t-111.5 264.5
q0 195 150 321.5t393 126.5q90 0 167 -16t131 -43t98 -62t70.5 -74t46.5 -77.5t29 -73.5t14.5 -62t5.5 -43l1 -16h-244q0 6 -1 15.5t-7 37.5t-17.5 53t-35.5 56t-56 53.5t-84.5 37.5t-117.5 15q-143 0 -222 -67.5t-79 -163.5q0 -83 61.5 -134.5t200.5 -78.5l176 -35
q451 -89 451 -418q0 -95 -38.5 -179t-109 -146.5t-177 -98.5t-235.5 -36z" />
    <glyph glyph-name="S.019" horiz-adv-x="1341" 
d="M696 -18q-101 0 -187 18t-145.5 48t-107.5 69.5t-77 83t-50 87t-30 83t-14 69.5t-5 48v18h248q0 -7 0.5 -18.5t6.5 -46t18 -65.5t39.5 -68.5t65 -65t100 -46t140.5 -18.5q144 0 231 71.5t87 178.5q0 86 -64.5 139t-195.5 80l-183 35q-222 43 -332 144t-110 266
q0 193 150 319.5t391 126.5q91 0 168.5 -16t131.5 -43t98 -62t71 -74t47 -77.5t29 -73.5t14 -62t5 -43l1 -16h-244q0 6 -0.5 15.5t-6.5 37.5t-16.5 53.5t-34 56.5t-56 53.5t-86 38t-119.5 15.5q-140 0 -220.5 -69t-80.5 -164q0 -83 60 -134.5t192 -78.5l186 -35
q451 -90 451 -420q0 -94 -38 -176.5t-108.5 -145.5t-179 -99.5t-240.5 -36.5z" />
    <glyph glyph-name="W.001" horiz-adv-x="2035" 
d="M440 0l-395 1516h244l297 -1182l313 1182h240l311 -1178l297 1178h244l-396 -1516h-286l-291 1100l-291 -1100h-287z" />
    <glyph glyph-name="i.loclTRK" horiz-adv-x="487" 
d="M119 0v1085h233v-1085h-233zM86 1397q0 65 44 109t112 44q67 0 111 -44t44 -109t-44 -109.5t-111 -44.5q-68 0 -112 45t-44 109z" />
    <glyph glyph-name="a.001" horiz-adv-x="1179" 
d="M569 469q-111 -13 -169 -51.5t-58 -114.5q0 -74 54.5 -113.5t135.5 -39.5q122 0 201.5 89t79.5 230v39zM117 291q0 79 31 140t88 100.5t128.5 63t161.5 34.5l287 41v35q0 38 -10.5 73.5t-33.5 69t-68 54t-107 20.5q-60 0 -106 -18t-68 -43.5t-36 -51t-16 -43.5l-3 -18
h-222q0 7 2 20t13 50.5t28 71t51.5 75t80 71t118 50t160.5 20.5q218 0 333 -113.5t115 -287.5v-705h-231v141h-14q-6 -10 -15 -22.5t-37 -39.5t-61.5 -47t-90.5 -36t-122 -16q-158 0 -257 84t-99 227z" />
    <glyph glyph-name="a.002" horiz-adv-x="1179" 
d="M545 465q-97 -15 -150 -51t-53 -109q0 -76 54 -115.5t136 -39.5q122 0 201.5 89t79.5 230v37zM113 291q0 277 391 336l309 45v30q0 39 -10.5 75t-34 70t-68.5 54.5t-106 20.5q-60 0 -105.5 -18t-67.5 -43.5t-36 -51t-17 -43.5l-3 -18h-222q1 7 2.5 20t12.5 50.5t28 71
t52 75t80.5 71t118 50t159.5 20.5q110 0 197.5 -32t142 -88t83 -127.5t28.5 -153.5v-705h-234v141h-14q-36 -51 -73 -80q-103 -81 -253 -81q-160 0 -260 85t-100 226z" />
    <glyph glyph-name="a.003" horiz-adv-x="1175" 
d="M649 504q-167 -7 -238 -57t-71 -136q0 -74 56 -119t134 -45q123 0 203 89.5t80 232.5v41zM115 301q0 342 516 361l182 8v35q0 38 -10.5 73.5t-34 69t-69.5 54t-109 20.5q-59 0 -104.5 -18t-67.5 -43.5t-36 -51t-17 -43.5l-3 -18h-219q1 7 2.5 20t12.5 50.5t28 71t51.5 75
t79 71t116 50t157.5 20.5q113 0 200.5 -31.5t142 -87t82 -127t27.5 -155.5v-705h-229v141h-16q-6 -10 -15 -22.5t-37 -39.5t-61.5 -47t-90.5 -36t-122 -16q-157 0 -256.5 88.5t-99.5 232.5z" />
    <glyph glyph-name="a.004" horiz-adv-x="1175" 
d="M559 469q-106 -15 -162.5 -53t-56.5 -113q0 -74 55 -115t135 -41q123 0 203 89.5t80 232.5v39zM115 293q0 78 31 139t88 100t128.5 62.5t161.5 34.5l289 41v35q0 38 -10.5 73.5t-34 69t-69 54t-107.5 20.5q-60 0 -106 -18t-68.5 -43.5t-36 -51t-16.5 -43.5l-3 -18h-219
q0 7 2 20t13 50.5t27.5 71t51.5 75t80 71t117.5 50t159.5 20.5q218 0 333 -113.5t115 -287.5v-705h-229v141h-16q-6 -10 -15 -22.5t-37 -39.5t-61.5 -47t-90.5 -36t-122 -16q-158 0 -257 84.5t-99 228.5z" />
    <glyph glyph-name="a.005" horiz-adv-x="1155" 
 />
    <glyph glyph-name="a.006" horiz-adv-x="1155" 
 />
    <glyph glyph-name="a.007" horiz-adv-x="1155" 
 />
    <glyph glyph-name="a.008" horiz-adv-x="1155" 
 />
    </font>
</defs>
</svg>
